<svg xmlns="http://www.w3.org/2000/svg" width="25" height="25"><g fill="#e44047" fill-rule="evenodd"><path d="M.852 23.913H23.83V7.393H.852v16.52zM18.255 1.739C18.055.747 17.198 0 16.17 0a.43.43 0 00-.423.435c0 .24.189.436.423.436.705 0 1.278.583 1.278 1.303s-.573 1.303-1.278 1.303a.43.43 0 00-.423.436c0 .24.189.435.423.435 1.029 0 1.887-.747 2.086-1.739h5.575v3.913H.852V2.609h7.233a.431.431 0 00.426-.435.431.431 0 00-.426-.435h-.773A1.276 1.276 0 018.51.87c.704 0 1.275.583 1.275 1.303S9.214 3.476 8.51 3.476a.432.432 0 00-.426.436c0 .24.191.435.426.435 1.174 0 2.127-.975 2.127-2.174C10.638.974 9.685 0 8.511 0 7.484 0 6.624.747 6.427 1.739H0v23.045h24.68V1.739h-6.425z"/><path d="M11.064.87c.705 0 1.276.584 1.276 1.304 0 .72-.571 1.303-1.276 1.303a.431.431 0 00-.426.436c0 .24.191.435.426.435 1.172 0 2.128-.975 2.128-2.174 0-1.2-.956-2.174-2.128-2.174a.431.431 0 00-.426.435c0 .24.191.436.426.436"/><path d="M13.618.87c.702 0 1.275.584 1.275 1.304 0 .72-.573 1.303-1.275 1.303a.432.432 0 00-.426.436c0 .24.191.435.426.435 1.172 0 2.128-.975 2.128-2.174C15.746.974 14.79 0 13.618 0a.431.431 0 00-.426.435c0 .24.191.436.426.436M3.83 10.87h9.362a.43.43 0 00.426-.436.431.431 0 00-.426-.435H3.83a.432.432 0 00-.426.435c0 .24.192.436.426.436m17.02 6.086h-6.382a.431.431 0 00-.426.435c0 .24.191.436.426.436h6.383a.432.432 0 00.426-.436.431.431 0 00-.426-.435M3.83 14.347h4.255a.43.43 0 00.426-.433.43.43 0 00-.426-.436H3.829a.43.43 0 00-.426.436c0 .24.192.433.426.433m17.021 6.089h-4.255a.43.43 0 00-.426.433.43.43 0 00.426.435h4.256a.43.43 0 00.426-.435.43.43 0 00-.426-.433m-8.937-6.522c0 .24.191.433.426.433h6.383a.43.43 0 00.426-.433.43.43 0 00-.426-.435H12.34a.43.43 0 00-.426.435m-1.398.308a.47.47 0 00.122-.308.474.474 0 00-.122-.31.438.438 0 00-.605 0 .463.463 0 00-.125.31.46.46 0 00.125.308.428.428 0 00.605 0M5.53 17.391c0 .24.192.436.427.436h6.383a.431.431 0 00.426-.436.431.431 0 00-.426-.435H5.957a.432.432 0 00-.426.435m-1.701.436a.45.45 0 00.303-.128.473.473 0 00.122-.308.447.447 0 00-.122-.303.434.434 0 00-.605-.004.456.456 0 00-.125.307c0 .113.048.225.125.308a.433.433 0 00.301.128m17.021-3.48c.11 0 .223-.042.304-.125a.44.44 0 00.123-.308.44.44 0 00-.123-.31.438.438 0 00-.604 0 .461.461 0 00-.125.31c0 .112.047.225.125.308.08.083.19.125.3.125m-6.382 6.089H3.829a.43.43 0 00-.426.433.43.43 0 00.426.435h10.639a.43.43 0 00.426-.435.43.43 0 00-.426-.433"/></g></svg>