<?xml version="1.0" standalone="no"?>
<!DOCTYPE svg PUBLIC "-//W3C//DTD SVG 1.1//EN" "http://www.w3.org/Graphics/SVG/1.1/DTD/svg11.dtd" >
<svg xmlns="http://www.w3.org/2000/svg" xmlns:xlink="http://www.w3.org/1999/xlink" version="1.1">
<metadata>
Created by FontForge 20170731 at Tue Oct  2 14:36:44 2018
 By Aleksey,,,
Copyright (c) 2018 by Fontsmith Ltd. All rights reserved. This font may not be altered in any way without prior permission of Fontsmith Ltd.
</metadata>
<defs>
<font id="HeinekenSerif18-Bold" horiz-adv-x="0" >
  <font-face 
    font-family="Heineken Serif 18"
    font-weight="700"
    font-stretch="normal"
    units-per-em="1000"
    panose-1="2 4 8 6 6 6 2 6 7 3"
    ascent="788"
    descent="-212"
    x-height="573"
    cap-height="788"
    bbox="-456 -360 1294 1119"
    underline-thickness="100"
    underline-position="-300"
    unicode-range="U+000D-FB02"
  />
<missing-glyph horiz-adv-x="702" 
d="M70 0v788h562v-788h-562zM352 445l191 287h-383zM127 107l190 287l-190 287v-574zM577 107v574l-192 -287zM160 57h383l-191 286z" />
    <glyph glyph-name="fi" unicode="fi" horiz-adv-x="836" 
d="M655 622q-44 0 -74.5 29t-30.5 71q0 43 30 71t75 28q44 0 73.5 -28t29.5 -71q0 -42 -29.5 -71t-73.5 -29zM31 0l-3 79q10 5 31 12l15 5q19 7 25 16t6 31v309h-87v121h87v55q0 82 54 127t157 45q92 0 141.5 -36t49.5 -106v-5q0 -17 -7 -23q-10 -8 -25 -8h-125v37
q0 47 -31 47t-31 -49v-84h108v-121h-108v-309q0 -21 6.5 -31t24.5 -16l15 -5q21 -7 31 -12l-3 -79h-331zM498 0l-3 79q10 5 31 12l15 5q19 7 25 16t6 31v287q0 24 -6.5 32.5t-25.5 14.5l-15 5q-24 8 -29 12l3 79h256v-430q0 -21 6.5 -31t24.5 -16l15 -5q21 -7 31 -12l-3 -79
h-331z" />
    <glyph glyph-name="fl" unicode="fl" horiz-adv-x="885" 
d="M31 0l-3 79q10 5 31 12l15 5q19 7 25 16t6 31v309h-87v121h87v55q0 82 54 127t157 45q92 0 141.5 -36t49.5 -106v-5q0 -17 -7 -23q-10 -8 -25 -8h-125v37q0 47 -31 47t-31 -49v-84h108v-121h-108v-309q0 -21 6.5 -31t24.5 -16l15 -5q21 -7 31 -12l-3 -79h-331zM539 0
l-3 79q10 5 31 12l15 5q19 7 25 16t6 31v502q0 24 -6.5 32.5t-25.5 14.5l-15 5q-24 8 -29 12l3 79h256v-645q0 -21 6.5 -31t24.5 -16l15 -5q21 -7 31 -12l-3 -79h-331z" />
    <glyph glyph-name=".notdef" horiz-adv-x="702" 
d="M70 0v788h562v-788h-562zM352 445l191 287h-383zM127 107l190 287l-190 287v-574zM577 107v574l-192 -287zM160 57h383l-191 286z" />
    <glyph glyph-name=".null" 
 />
    <glyph glyph-name="nonmarkingreturn" horiz-adv-x="333" 
 />
    <glyph glyph-name="CR" unicode="&#xd;" horiz-adv-x="240" 
 />
    <glyph glyph-name="space" unicode=" " horiz-adv-x="240" 
 />
    <glyph glyph-name="exclam" unicode="!" horiz-adv-x="314" 
d="M90 232l-40 556h214l-40 -556h-134zM157 -10q-42 0 -70 27t-28 68q0 42 28 69t70 27t70 -27t28 -69q0 -41 -28 -68t-70 -27z" />
    <glyph glyph-name="quotedbl" unicode="&#x22;" horiz-adv-x="480" 
d="M70 498l-30 290h171l-29 -290h-112zM299 498l-30 290h171l-29 -290h-112z" />
    <glyph glyph-name="numbersign" unicode="#" horiz-adv-x="653" 
d="M72 0l33 221h-79v104h95l20 139h-83v104h100l32 220h137l-33 -220h107l34 220h136l-33 -220h89v-104h-104l-20 -139h85v-104h-102l-33 -221h-137l35 221h-108l-35 -221h-136zM259 325h107l20 139h-107z" />
    <glyph glyph-name="dollar" unicode="$" horiz-adv-x="607" 
d="M613 221q0 -96 -65 -160t-158 -72v-104h-138v119q-38 12 -67 31q-13 8 -14 -6l-2 -29h-126v275h134l2 -32q4 -68 44.5 -104t101.5 -36q45 0 68 22.5t23 59.5q0 34 -23 59.5t-76 57.5l-110 67q-80 49 -117 100.5t-37 124.5q0 78 51.5 132t134.5 69v114h138v-118
q26 -6 50 -22q12 -8 15 5l4 24h126v-246h-134l-4 41q-9 92 -99 92q-39 0 -61.5 -16.5t-22.5 -45.5q0 -27 22.5 -49t86.5 -61l108 -66q78 -47 111.5 -99.5t33.5 -126.5z" />
    <glyph glyph-name="percent" unicode="%" horiz-adv-x="893" 
d="M219 -29l-96 59l544 787l96 -59zM225 420q-79 0 -127 39q-63 52 -63 151t58 148q49 42 135 42t137 -45q55 -49 55 -143q0 -97 -60 -149q-52 -43 -135 -43zM230 501q27 0 42 26q13 23 13 84q0 65 -13 86q-14 22 -41 22q-30 0 -46 -25q-15 -25 -15 -82q0 -61 14 -86t46 -25
zM663 -12q-79 0 -127 39q-63 52 -63 151t58 148q49 42 135 42t137 -45q55 -49 55 -143q0 -100 -60 -149q-52 -43 -135 -43zM668 69q27 0 42 26q13 23 13 84q0 65 -13 86q-14 22 -41 22q-30 0 -46 -25q-15 -25 -15 -82q0 -61 14 -86t46 -25z" />
    <glyph glyph-name="ampersand" unicode="&#x26;" horiz-adv-x="851" 
d="M318 -12q-127 0 -202.5 64.5t-75.5 173.5q0 139 161 229q-35 43 -53 80.5t-18 83.5q0 83 68 132t170 49q94 0 150.5 -43.5t56.5 -109.5q0 -97 -144 -177l148 -190q7 11 16 29q23 53 -4 64l-16 6q-22 8 -29 14l4 62h249l7 -72q-6 -5 -31 -13l-15 -5q-26 -8 -54 -68
q-15 -33 -57 -105l37 -44q25 -31 75 -51l10 -4q15 -6 27 -12l-4 -81h-233q-16 16 -48 56q-85 -68 -195 -68zM362 555q56 44 56 93q0 22 -13 37.5t-33 15.5q-24 0 -39 -16.5t-15 -39.5q0 -37 44 -90zM360 104q49 0 91 31l-170 216q-36 -51 -36 -115q0 -63 32 -97.5t83 -34.5z
" />
    <glyph glyph-name="quotesingle" unicode="'" horiz-adv-x="251" 
d="M70 498l-30 290h171l-29 -290h-112z" />
    <glyph glyph-name="parenleft" unicode="(" horiz-adv-x="352" 
d="M203 -223q-63 113 -104 253.5t-41 279.5q0 150 39.5 289.5t106.5 246.5l100 -30q-88 -247 -88 -497q0 -260 87 -512z" />
    <glyph glyph-name="parenright" unicode=")" horiz-adv-x="352" 
d="M149 -223l-100 30q87 252 87 512q0 250 -88 497l100 30q67 -107 106.5 -246.5t39.5 -289.5q0 -139 -41 -279.5t-104 -253.5z" />
    <glyph glyph-name="asterisk" unicode="*" horiz-adv-x="600" 
d="M151 364q-19 0 -19 19q0 2 2 10l52 158l-135 98q-11 8 -11 19q0 7 6 12.5t15 5.5h169l51 159q5 15 19 15t19 -15l53 -159h167q9 0 15 -5.5t6 -12.5q0 -11 -11 -19l-134 -98l51 -158q2 -8 2 -10q0 -19 -19 -19q-9 0 -17 7l-132 97l-132 -97q-8 -7 -17 -7z" />
    <glyph glyph-name="plus" unicode="+" horiz-adv-x="625" 
d="M245 51v206h-214v127h214v206h135v-206h214v-127h-214v-206h-135z" />
    <glyph glyph-name="comma" unicode="," horiz-adv-x="274" 
d="M107 -164l-81 62q69 58 69 99q0 14 -14 27t-28.5 33t-14.5 50q0 36 26.5 60t66.5 24q44 0 74.5 -29.5t30.5 -83.5q0 -125 -129 -242z" />
    <glyph glyph-name="hyphen" unicode="-" horiz-adv-x="354" 
d="M40 237v126h274v-126h-274z" />
    <glyph glyph-name="period" unicode="." horiz-adv-x="287" 
d="M142 -10q-43 0 -72.5 29t-29.5 72q0 42 29.5 71t72.5 29q42 0 71 -29t29 -71q0 -43 -29 -72t-71 -29z" />
    <glyph glyph-name="slash" unicode="/" horiz-adv-x="559" 
d="M131 -141l-134 59l431 961l134 -59z" />
    <glyph glyph-name="zero" unicode="0" horiz-adv-x="703" 
d="M353 -12q-144 0 -229.5 107.5t-85.5 302.5q0 197 85 299.5t230 102.5q142 0 227 -105.5t85 -306.5q0 -189 -86 -294.5t-226 -105.5zM354 93q61 0 83.5 67t22.5 235q0 166 -22.5 233t-85.5 67q-64 0 -86.5 -67t-22.5 -235q0 -162 25.5 -231t85.5 -69z" />
    <glyph glyph-name="one" unicode="1" horiz-adv-x="539" 
d="M85 0l-9 82q19 7 50 15l22 6q27 7 38.5 23.5t11.5 52.5v426l-122 -36l-36 90l190 129h163v-609q0 -36 9.5 -51.5t33.5 -22.5l24 -7q5 -2 17.5 -5.5t22 -6.5t15.5 -5l-7 -81h-423z" />
    <glyph glyph-name="two" unicode="2" horiz-adv-x="607" 
d="M479 237h90v-237h-517v100l108 122q199 225 199 378q0 95 -56 95q-58 0 -58 -96v-63h-156q-20 0 -31 11t-11 37v14q0 92 73.5 147t191.5 55q109 0 180.5 -54.5t71.5 -151.5q0 -90 -59 -184.5t-189 -214.5l-59 -55h158q25 0 34 21l11 30q10 26 19 46z" />
    <glyph glyph-name="three" unicode="3" horiz-adv-x="617" 
d="M308 -12q-121 0 -195.5 51.5t-74.5 141.5v9q0 31 9 43.5t32 12.5h156v-56q0 -47 20.5 -72t56.5 -25q72 0 72 114q0 65 -28 95t-95 34l-51 3v115l46 3q55 4 76 33t21 102q0 55 -12 79t-40 24q-54 0 -54 -99v-57h-156q-22 0 -31.5 11.5t-9.5 37.5v8q0 90 71.5 147t186.5 57
t182.5 -54t67.5 -146q0 -66 -36 -113t-94 -62v-4q74 -18 117.5 -69.5t43.5 -129.5q0 -105 -79.5 -169.5t-201.5 -64.5z" />
    <glyph glyph-name="four" unicode="4" horiz-adv-x="661" 
d="M617 184h-83v-36q0 -23 6.5 -32.5t24.5 -14.5l16 -5q24 -7 36 -12l-3 -85h-355l-3 85q10 5 33 12l15 5q20 7 27.5 16.5t7.5 30.5v36h-307v91l344 513h158v-479h83v-125zM190 309h149v231z" />
    <glyph glyph-name="five" unicode="5" horiz-adv-x="621" 
d="M344 505q102 0 168.5 -68.5t66.5 -183.5q0 -125 -76.5 -195t-202.5 -70q-118 0 -190 51.5t-72 141.5v13q0 49 38 49h160v-49q0 -101 70 -101q35 0 51.5 33t16.5 110q0 152 -112 152q-64 0 -121 -29l-62 53l60 376h380v-148h-263l-23 -155q49 20 111 20z" />
    <glyph glyph-name="six" unicode="6" horiz-adv-x="634" 
d="M368 525q105 0 168.5 -70t63.5 -187q0 -126 -77 -203t-198 -77q-135 0 -211 93t-76 275q0 212 86.5 328t236.5 116q98 0 153 -45t55 -121v-8q0 -31 -34 -31h-141l-2 31q-4 69 -50 69q-41 0 -69 -53t-34 -162q53 45 129 45zM323 93q73 0 73 166q0 85 -17 121.5t-56 36.5
q-79 0 -79 -159q0 -165 79 -165z" />
    <glyph glyph-name="seven" unicode="7" horiz-adv-x="591" 
d="M36 788h545v-88q-219 -296 -219 -617v-83h-201v76q0 258 215 562h-185q-17 0 -23 -3t-10 -16l-11 -32q-15 -46 -24 -58h-87v259z" />
    <glyph glyph-name="eight" unicode="8" horiz-adv-x="628" 
d="M436 448q75 -46 117.5 -97.5t42.5 -129.5q0 -102 -82 -167.5t-203 -65.5q-124 0 -198.5 60t-74.5 156q0 62 36 112.5t101 83.5q-114 89 -114 195q0 92 73.5 148.5t189.5 56.5q107 0 174 -48.5t67 -128.5q0 -50 -33 -96t-96 -79zM322 705q-35 0 -55 -20t-20 -56
q0 -38 24 -67t69 -58q54 46 54 115q0 39 -18 62.5t-54 23.5zM325 83q42 0 65 26.5t23 71.5q0 29 -23 58t-47 46.5t-74 49.5q-48 -56 -48 -134q0 -55 28 -86.5t76 -31.5z" />
    <glyph glyph-name="nine" unicode="9" horiz-adv-x="639" 
d="M314 800q135 0 211 -93t76 -275q0 -212 -82.5 -328t-228.5 -116q-105 0 -162.5 45t-57.5 121v8q0 31 34 31h141l2 -30q4 -70 58 -70q38 0 64 53t32 162q-53 -45 -130 -45q-105 0 -171 70t-66 187q0 126 78.5 203t201.5 77zM317 371q78 0 78 159q0 165 -75 165
q-82 0 -82 -166q0 -84 19 -121t60 -37z" />
    <glyph glyph-name="colon" unicode=":" horiz-adv-x="278" 
d="M142 376q-43 0 -72.5 28.5t-29.5 69.5q0 40 28 68t69 28q40 0 68 -28t28 -68q0 -42 -25 -70t-66 -28zM142 -10q-43 0 -72.5 28.5t-29.5 69.5q0 40 28 68t69 28q40 0 68 -28t28 -68q0 -42 -25 -70t-66 -28z" />
    <glyph glyph-name="semicolon" unicode=";" horiz-adv-x="281" 
d="M135 376q-43 0 -72.5 28.5t-29.5 69.5q0 40 28 68t69 28q40 0 68 -28t28 -68q0 -42 -25 -70t-66 -28zM107 -164l-81 62q69 58 69 99q0 14 -14 27t-28.5 33t-14.5 50q0 36 26.5 60t66.5 24q44 0 74.5 -29.5t30.5 -83.5q0 -125 -129 -242z" />
    <glyph glyph-name="less" unicode="&#x3c;" horiz-adv-x="625" 
d="M188 321l398 -154l-44 -113l-498 202v128l495 206l44 -113z" />
    <glyph glyph-name="equal" unicode="=" horiz-adv-x="625" 
d="M31 384v127h563v-127h-563zM31 130v127h563v-127h-563z" />
    <glyph glyph-name="greater" unicode="&#x3e;" horiz-adv-x="625" 
d="M86 590l495 -206v-128l-498 -202l-44 113l398 154l-395 156z" />
    <glyph glyph-name="question" unicode="?" horiz-adv-x="568" 
d="M190 230q-11 46 -11 83q0 41 15.5 74t37.5 56t44.5 45.5t38 54t15.5 70.5q0 71 -51 71q-55 0 -55 -79v-66h-162q-38 0 -38 50v5q0 87 70.5 146.5t188.5 59.5q109 0 180 -54t71 -145q0 -48 -20 -86t-48.5 -64t-58 -51.5t-52 -62t-25.5 -80.5l-2 -27h-138zM259 -10
q-42 0 -70 27t-28 68q0 42 28 69t70 27t70 -27t28 -69q0 -41 -28 -68t-70 -27z" />
    <glyph glyph-name="at" unicode="@" horiz-adv-x="950" 
d="M532 800q181 0 277 -91.5t96 -242.5q0 -135 -62.5 -219.5t-165.5 -84.5q-40 0 -72.5 20.5t-43.5 57.5q-18 -36 -51 -56t-71 -20q-65 0 -109.5 48.5t-44.5 133.5q0 104 55.5 171t127.5 67t99 -54l8 46h106l-19 -243q-3 -36 1 -51t22 -15q27 0 46 49t19 143
q0 116 -58 176.5t-160 60.5q-133 0 -227.5 -105.5t-94.5 -272.5q0 -134 63.5 -208t159.5 -74t174 66l53 -82q-45 -40 -115 -65t-135 -25q-159 0 -259.5 96.5t-100.5 284.5q0 132 62.5 244t174 178.5t245.5 66.5zM470 269q29 0 48.5 38t19.5 96q0 82 -43 82q-29 0 -49.5 -36
t-20.5 -94q0 -86 45 -86z" />
    <glyph glyph-name="A" unicode="A" horiz-adv-x="792" 
d="M14 0l-5 83q11 6 31 13l14 5q21 8 34 21.5t23 44.5l193 621h178l200 -610q13 -38 25 -54t29 -22l17 -6q23 -8 32 -15l-6 -81h-351l-7 83q13 5 35 11l13 4q30 10 24 49l-21 73q-3 9 -14 9h-185q-12 0 -15 -11l-10 -35q-12 -36 -12 -56.5t18 -26.5l11 -4q21 -8 33 -15
l-7 -81h-277zM306 341h120q13 0 8 16l-61 216h-14l-62 -219q-3 -13 9 -13z" />
    <glyph glyph-name="B" unicode="B" horiz-adv-x="720" 
d="M44 0l-6 82q9 9 27 14l19 6q23 7 28 20.5t5 56.5v431q0 43 -5 56t-27 20l-15 5q-20 7 -31 16l5 81h317q129 0 202 -47.5t73 -133.5q0 -61 -33.5 -104t-90.5 -61v-5q78 -16 123 -68t45 -128q0 -110 -86.5 -175.5t-228.5 -65.5h-321zM327 485h18q40 0 67 27t27 73
q0 89 -87 89h-26q-14 0 -14 -14v-160q0 -15 15 -15zM326 114h28q56 0 90 35t34 99q0 57 -38.5 92.5t-94.5 35.5h-17q-16 0 -16 -15v-233q0 -14 14 -14z" />
    <glyph glyph-name="C" unicode="C" horiz-adv-x="687" 
d="M373 -12q-165 0 -250 104.5t-85 299.5q0 191 92 299.5t240 108.5q78 0 128 -30q12 -8 15 3l4 21h123v-258h-128l-6 35q-19 114 -112 114q-69 0 -110 -73t-41 -214q0 -292 154 -292q48 0 88.5 40.5t64.5 113.5l113 -43q-30 -106 -104 -167.5t-186 -61.5z" />
    <glyph glyph-name="D" unicode="D" horiz-adv-x="763" 
d="M44 0l-6 82q9 9 27 14l19 6q23 7 28 20.5t5 56.5v431q0 43 -5 56t-27 20l-15 5q-20 7 -31 16l5 81h294q178 0 282.5 -101t104.5 -285q0 -190 -103.5 -296t-278.5 -106h-299zM326 116h17q85 0 131 72t46 209q0 145 -41.5 210t-133.5 65h-19q-14 0 -14 -14v-528
q0 -14 14 -14z" />
    <glyph glyph-name="E" unicode="E" horiz-adv-x="657" 
d="M44 0l-6 82q9 9 27 14l19 6q23 7 28 20.5t5 56.5v431q0 43 -5 56t-27 20l-15 5q-20 7 -31 16l5 81h557v-225h-87q-10 22 -21 51l-14 39q-4 13 -10 16t-23 3h-120q-14 0 -14 -14v-187q0 -14 14 -14h51q18 0 28 27l6 15l5 12.5t5 12t4 8.5l65 -2v-261l-65 -2q-5 6 -15 32
l-5 12q-13 30 -28 30h-51q-14 0 -14 -14v-197q0 -14 14 -14h133q17 0 23 3t10 16l16 45q12 35 19 51h87v-231h-570z" />
    <glyph glyph-name="F" unicode="F" horiz-adv-x="643" 
d="M44 0l-6 82q9 9 27 14l19 6q23 7 28 20.5t5 56.5v431q0 43 -5 56t-27 20l-15 5q-20 7 -31 16l5 81h563v-231h-87q-7 16 -19 51l-16 45q-4 13 -10 16t-23 3h-126q-14 0 -14 -14v-204q0 -14 14 -14h56q25 0 35 27l6 15l5 12.5t5 12t4 8.5l65 -4v-257l-65 -4q-5 6 -15 32
l-5 12q-8 18 -15.5 24t-19.5 6h-56q-14 0 -14 -14v-132q0 -43 5 -56t27 -20l15 -5q20 -7 31 -16l-5 -81h-341z" />
    <glyph glyph-name="G" unicode="G" horiz-adv-x="750" 
d="M366 -12q-151 0 -239.5 105t-88.5 296q0 193 92.5 302t243.5 109q90 0 146 -35q10 -7 13 6l4 23h117v-258h-124l-5 30q-10 60 -43 90t-82 30q-69 0 -113 -74t-44 -214q0 -293 149 -293q49 0 78 34.5t29 90.5v40q0 22 -8 32t-28 12l-27 3q-22 3 -44 9l5 100h287v-426h-124
l-14 40q-6 17 -19 4q-56 -56 -161 -56z" />
    <glyph glyph-name="H" unicode="H" horiz-adv-x="839" 
d="M44 0l-6 82q9 9 27 14l19 6q23 7 28 20.5t5 56.5v431q0 43 -5 56t-27 20l-15 5q-20 7 -31 16l5 81h341l6 -82q-9 -9 -27 -14l-19 -6q-23 -7 -28 -20.5t-5 -56.5v-110q0 -14 14 -14h187q14 0 14 14v111q0 43 -5 56t-27 20l-15 5q-20 7 -31 16l5 81h341l6 -82
q-9 -9 -27 -14l-19 -6q-23 -7 -28 -20.5t-5 -56.5v-431q0 -43 5 -56t27 -20l15 -5q20 -7 31 -16l-5 -81h-341l-6 82q9 9 27 14l19 6q23 7 28 20.5t5 56.5v174q0 14 -14 14h-187q-14 0 -14 -14v-175q0 -43 5 -56t27 -20l15 -5q20 -7 31 -16l-5 -81h-341z" />
    <glyph glyph-name="I" unicode="I" horiz-adv-x="441" 
d="M50 0l-6 82q9 9 27 14l19 6q23 7 28 20.5t5 56.5v431q0 43 -5 56t-27 20l-15 5q-20 7 -31 16l5 81h341l6 -82q-9 -9 -27 -14l-19 -6q-23 -7 -28 -20.5t-5 -56.5v-431q0 -43 5 -56t27 -20l15 -5q20 -7 31 -16l-5 -81h-341z" />
    <glyph glyph-name="J" unicode="J" horiz-adv-x="598" 
d="M268 -12q-120 0 -177 49t-57 149q0 44 42 44h155v-85q0 -51 36 -51q33 0 33 77v439q0 43 -5 56t-27 20l-15 5q-20 7 -31 16l5 81h341l6 -82q-9 -9 -27 -14l-19 -6q-23 -7 -28 -20.5t-5 -56.5v-389q0 -121 -55 -176.5t-172 -55.5z" />
    <glyph glyph-name="K" unicode="K" horiz-adv-x="772" 
d="M723 95q20 -6 35 -14l-4 -81h-233l-174 331q-4 7 -11 2q-24 -18 -24 -34v-121q0 -43 5 -56t27 -20l15 -5q20 -7 31 -16l-5 -81h-341l-6 82q9 9 27 14l19 6q23 7 28 20.5t5 56.5v431q0 43 -5 56t-27 20l-15 5q-20 7 -31 16l5 81h341l6 -82q-9 -9 -27 -14l-19 -6
q-21 -7 -27 -21t-6 -56v-141l166 190q10 13 9 24t-12 16l-12 5q-11 4 -19 12l6 73h294l4 -80q-7 -9 -33 -15l-22 -6q-45 -11 -95 -64l-114 -127q-10 -11 -2 -27l155 -289q23 -43 38.5 -59.5t34.5 -21.5z" />
    <glyph glyph-name="L" unicode="L" horiz-adv-x="628" 
d="M44 0l-6 82q9 9 27 14l19 6q23 7 28 20.5t5 56.5v431q0 43 -5 56t-27 20l-15 5q-20 7 -31 16l5 81h341l6 -82q-9 -9 -27 -14l-19 -6q-23 -7 -28 -20.5t-5 -56.5v-479q0 -14 14 -14h121q17 0 23 3t10 16l16 45q12 35 19 51h87v-231h-558z" />
    <glyph glyph-name="M" unicode="M" horiz-adv-x="969" 
d="M44 0l-6 82q9 9 27 14l19 6q23 7 28 20.5t5 56.5v432q0 44 -5 56t-29 20l-20 7q-15 5 -24 14l5 80h275l174 -401l175 401h258l5 -80q-9 -9 -24 -14l-20 -7q-24 -8 -29 -20t-5 -56v-432q0 -43 5 -56.5t27 -20.5l15 -5q20 -7 31 -16l-5 -81h-306l-6 82q9 9 27 14l19 6
q23 7 28 20.5t5 56.5v357l-154 -365h-143l-147 334v-326q0 -43 5 -56.5t27 -20.5l15 -5q20 -7 31 -16l-5 -81h-278z" />
    <glyph glyph-name="N" unicode="N" horiz-adv-x="817" 
d="M44 0l-6 82q9 9 27 14l19 6q23 7 28 20.5t5 56.5v432q0 44 -5 56t-29 20l-20 7q-15 5 -24 14l5 80h252l280 -470v291q0 43 -5 56.5t-27 20.5l-15 5q-20 7 -31 16l5 81h278l6 -82q-9 -9 -27 -14l-19 -6q-23 -7 -28 -20.5t-5 -56.5v-609h-153l-306 508v-329q0 -43 5 -56.5
t27 -20.5l15 -5q20 -7 31 -16l-5 -81h-278z" />
    <glyph glyph-name="O" unicode="O" horiz-adv-x="759" 
d="M379 -12q-159 0 -250 101t-91 300t93 305t249 106q155 0 248 -104.5t93 -301.5q0 -199 -92 -302.5t-250 -103.5zM382 103q66 0 100 76t34 216q0 290 -134 290q-139 0 -139 -287q0 -295 139 -295z" />
    <glyph glyph-name="P" unicode="P" horiz-adv-x="702" 
d="M44 0l-6 82q9 9 27 14l19 6q23 7 28 20.5t5 56.5v431q0 43 -5 56t-27 20l-15 5q-20 7 -31 16l5 81h321q141 0 220 -62t79 -180q0 -123 -77 -190.5t-215 -67.5h-45q-15 0 -15 -15v-95q0 -43 5 -56t27 -20l15 -5q20 -7 31 -16l-5 -81h-341zM327 404h30q48 0 75 35t27 103
q0 66 -26.5 98t-73.5 32h-33q-14 0 -14 -15v-238q0 -15 15 -15z" />
    <glyph glyph-name="Q" unicode="Q" horiz-adv-x="759" 
d="M426 -9q7 -61 116 -61h73v-118q0 -25 -13.5 -34.5t-44.5 -9.5q-136 0 -198.5 54t-63.5 174q-122 25 -189.5 123.5t-67.5 269.5q0 199 93 305t249 106q155 0 248 -104.5t93 -301.5q0 -183 -79 -285.5t-216 -117.5zM382 685q-139 0 -139 -287q0 -295 139 -295q66 0 100 76
t34 216q0 290 -134 290z" />
    <glyph glyph-name="R" unicode="R" horiz-adv-x="739" 
d="M44 0l-6 82q9 9 27 14l19 6q23 7 28 20.5t5 56.5v431q0 43 -5 56t-27 20l-15 5q-20 7 -31 16l5 81h328q144 0 218 -56t74 -166q0 -136 -121 -205q-11 -6 -5 -17l82 -175q26 -55 67 -68l15 -5q17 -6 30 -15l-6 -81h-225l-142 313q-4 9 -16 9h-19q-12 0 -12 -15v-129
q0 -43 5 -56t27 -20l15 -5q20 -7 31 -16l-5 -81h-341zM326 438h26q44 0 75.5 32.5t31.5 86.5q0 115 -105 115h-27q-15 0 -15 -15v-204q0 -15 14 -15z" />
    <glyph glyph-name="S" unicode="S" horiz-adv-x="649" 
d="M367 -12q-106 0 -182 47q-13 8 -14 -6l-2 -29h-126v275h134l2 -32q4 -68 44.5 -104t101.5 -36q45 0 68 22.5t23 59.5q0 34 -23 59.5t-76 57.5l-110 67q-80 49 -117 100.5t-37 124.5q0 92 70 149t176 57q79 0 128 -31q12 -8 15 5l4 24h126v-246h-134l-4 41q-9 92 -99 92
q-39 0 -61.5 -16.5t-22.5 -45.5q0 -27 22.5 -49t86.5 -61l108 -66q78 -47 111.5 -99.5t33.5 -126.5q0 -103 -73 -168t-173 -65z" />
    <glyph glyph-name="T" unicode="T" horiz-adv-x="728" 
d="M193 0l-6 82q9 9 27 14l19 6q23 7 28 20.5t5 56.5v479q0 14 -14 14h-63q-16 0 -21.5 -4t-10.5 -17l-15 -43q-14 -41 -22 -55h-84v235h656v-235h-85q-10 21 -21 55l-16 45q-4 13 -10 16t-23 3h-62q-14 0 -14 -14v-480q0 -43 5 -56t27 -20l15 -5q20 -7 31 -16l-5 -81h-341z
" />
    <glyph glyph-name="U" unicode="U" horiz-adv-x="782" 
d="M403 -12q-301 0 -301 263v359q0 43 -5 56t-27 20l-15 5q-20 7 -31 16l5 81h341l6 -82q-9 -9 -27 -14l-19 -6q-23 -7 -28 -20.5t-5 -56.5v-344q0 -80 31 -117t98 -37q121 0 121 158v340q0 43 -5 56.5t-27 20.5l-15 5q-20 7 -31 16l5 81h278l6 -82q-9 -9 -27 -14l-19 -6
q-23 -7 -28 -20.5t-5 -56.5v-347q0 -132 -70.5 -203t-205.5 -71z" />
    <glyph glyph-name="V" unicode="V" horiz-adv-x="777" 
d="M759 788l7 -83q-7 -6 -29 -13l-15 -5q-18 -6 -28.5 -20t-23.5 -50l-197 -617h-167l-197 604q-14 44 -24 59.5t-29 21.5l-15 5q-24 9 -33 16l6 82h334l9 -83q-7 -7 -27 -13l-13 -4q-15 -4 -16.5 -21t9.5 -52l111 -360l113 361q11 39 7 52.5t-21 18.5l-17 5q-23 7 -33 15
l4 81h285z" />
    <glyph glyph-name="W" unicode="W" horiz-adv-x="1015" 
d="M997 788l7 -83q-7 -6 -29 -13l-15 -5q-18 -6 -27.5 -19.5t-18.5 -46.5l-145 -621h-167l-94 421l-104 -421h-167l-139 614q-9 38 -18 51.5t-25 19.5l-14 5q-24 9 -33 16l6 82h334l9 -83q-7 -7 -27 -13l-13 -4q-19 -6 -24 -21t1 -54l63 -317l110 492h147l100 -510l65 316
q10 53 6 70t-27 23l-17 5q-23 7 -33 15l4 81h285z" />
    <glyph glyph-name="X" unicode="X" horiz-adv-x="764" 
d="M718 99q23 -8 37 -17l-6 -82h-340l-10 82q10 5 26 11l10 4q14 4 13.5 18.5t-20.5 46.5l-71 117l-78 -117q-15 -24 -20 -37t-2.5 -19t12.5 -10l13 -5q15 -6 23 -11l-5 -80h-282l-9 83q11 6 31 13l18 6q46 16 86 72l143 212l-136 221q-25 41 -41.5 55.5t-39.5 22.5l-14 5
q-24 9 -33 16l6 82h336l11 -82q-8 -5 -28 -12l-10 -4q-13 -5 -14 -14.5t14 -38.5l64 -107l65 95q21 34 22.5 48.5t-12.5 17.5l-13 5q-21 8 -27 12l4 80h286l8 -83q-7 -6 -29 -13l-15 -5q-24 -8 -42 -22.5t-43 -48.5l-132 -195l137 -224q28 -47 47.5 -66t41.5 -26z" />
    <glyph glyph-name="Y" unicode="Y" horiz-adv-x="716" 
d="M711 788l7 -83q-7 -6 -29 -13l-16 -5q-22 -6 -37 -22t-32 -52l-139 -302v-133q0 -43 5 -56t27 -20l15 -5q20 -7 31 -16l-5 -81h-341l-6 82q9 9 27 14l19 6q23 7 28 20.5t5 56.5v120l-157 319q-30 58 -57 67l-15 5q-24 9 -33 16l7 82h330l8 -83q-7 -7 -27 -13l-13 -4
q-17 -5 -18 -18t12 -40l88 -178l75 163q30 67 6 73l-15 4q-23 7 -33 15l4 81h279z" />
    <glyph glyph-name="Z" unicode="Z" horiz-adv-x="642" 
d="M530 230h87v-230h-592v103l347 569h-177q-17 0 -23 -3t-10 -16l-14 -39q-11 -29 -21 -51h-87v225h563v-98l-352 -574h211q17 0 23 3t10 16l14 41q10 31 21 54z" />
    <glyph glyph-name="bracketleft" unicode="[" horiz-adv-x="389" 
d="M95 -212v1045h239v-100h-102v-845h102v-100h-239z" />
    <glyph glyph-name="backslash" unicode="\" horiz-adv-x="559" 
d="M428 -141l-431 961l134 59l431 -961z" />
    <glyph glyph-name="bracketright" unicode="]" horiz-adv-x="389" 
d="M294 -212h-239v100h102v845h-102v100h239v-1045z" />
    <glyph glyph-name="asciicircum" unicode="^" horiz-adv-x="625" 
d="M584 384l-112 -57l-159 299l-159 -299l-113 57l212 404h123z" />
    <glyph glyph-name="underscore" unicode="_" horiz-adv-x="600" 
d="M0 -203v121h600v-121h-600z" />
    <glyph glyph-name="grave" unicode="`" horiz-adv-x="400" 
d="M292 619l-235 140l100 114l201 -168z" />
    <glyph glyph-name="a" unicode="a" horiz-adv-x="638" 
d="M592 93q16 -5 22 -11l-3 -82h-224v76q-20 -38 -66.5 -63t-100.5 -25q-90 0 -139 44.5t-49 115.5q0 74 52 116.5t167 63.5l91 17q17 3 23 9t6 21v17q0 47 -15.5 67.5t-48.5 20.5q-34 0 -47.5 -18.5t-13.5 -57.5v-37h-148q-16 0 -25 12t-9 38q0 74 64.5 121t181.5 47
q128 0 186 -51t58 -152v-235q0 -43 24 -50zM371 201v62q-15 -7 -45 -15l-26 -6q-45 -11 -65 -28.5t-20 -47.5t19.5 -49t52.5 -19q40 0 62 28t22 75z" />
    <glyph glyph-name="b" unicode="b" horiz-adv-x="680" 
d="M427 585q102 0 163.5 -80t61.5 -219q0 -137 -63.5 -217.5t-173.5 -80.5q-108 0 -168 79v-67h-227l-3 79q10 5 31 12l15 5q19 7 25 16t6 31v502q0 24 -6.5 32.5t-25.5 14.5l-15 5q-22 7 -29 12l3 79h256v-261q58 58 150 58zM377 93q88 0 88 193q0 191 -89 191
q-99 0 -99 -191q0 -95 26 -144t74 -49z" />
    <glyph glyph-name="c" unicode="c" horiz-adv-x="583" 
d="M314 -12q-127 0 -206.5 78t-79.5 223q0 137 77 216.5t195 79.5q62 0 107 -26q12 -7 15 6l3 17h112v-235h-114l-2 22q-11 110 -90 110q-53 0 -84.5 -44t-31.5 -135q0 -96 37.5 -143.5t97.5 -47.5q67 0 136 71l68 -72q-90 -120 -240 -120z" />
    <glyph glyph-name="d" unicode="d" horiz-adv-x="674" 
d="M631 91q21 -7 31 -12l-3 -79h-227v78q-53 -90 -160 -90q-109 0 -176.5 81.5t-67.5 217.5q0 135 67.5 216.5t172.5 81.5q82 0 134 -57v117q0 24 -6.5 32.5t-25.5 14.5l-15 5q-22 7 -29 12l3 79h256v-645q0 -21 6.5 -31t24.5 -16zM311 96q91 0 91 191q0 190 -87 190
q-100 0 -100 -189q0 -192 96 -192z" />
    <glyph glyph-name="e" unicode="e" horiz-adv-x="627" 
d="M321 -12q-132 0 -212.5 81t-80.5 219q0 133 81 215t200 82q151 0 232 -121q39 -63 39 -103q0 -24 -28 -40q-50 -31 -142.5 -64t-171.5 -53q-14 -3 -13 -15q5 -33 32 -56.5t86 -23.5q97 0 172 80l70 -74q-50 -62 -112.5 -94.5t-151.5 -32.5zM225 303q17 0 66 14.5t83 30.5
q22 10 22 23q0 21 -14 52q-28 61 -79 61q-48 0 -71 -37.5t-23 -100.5q0 -15 2 -31q1 -12 14 -12z" />
    <glyph glyph-name="f" unicode="f" horiz-adv-x="429" 
d="M31 0l-3 79q10 5 31 12l15 5q19 7 25 16t6 31v309h-87v121h87v55q0 82 54 127t157 45q92 0 141.5 -36t49.5 -106v-5q0 -17 -7 -23q-10 -8 -25 -8h-125v37q0 47 -31 47t-31 -49v-84h108v-121h-108v-309q0 -21 6.5 -31t24.5 -16l15 -5q21 -7 31 -12l-3 -79h-331z" />
    <glyph glyph-name="g" unicode="g" horiz-adv-x="668" 
d="M638 573v-108h-91q36 -56 36 -125q0 -65 -32 -117.5t-89 -77.5q78 -16 120.5 -61.5t42.5 -107.5q0 -88 -83 -144t-221 -56q-149 0 -221.5 49.5t-72.5 135.5v3q0 36 32 36h136l3 -23q14 -102 130 -102q50 0 80 25.5t30 71.5q0 47 -30 75.5t-91 31.5l-20 1q-131 7 -202 73
t-71 187q0 111 72.5 178t206.5 67q53 0 90 -12h245zM309 184q87 0 87 149q0 76 -21.5 113t-69.5 37q-49 0 -71.5 -36t-22.5 -114q0 -149 98 -149z" />
    <glyph glyph-name="h" unicode="h" horiz-adv-x="698" 
d="M647 91q11 -4 27 -12l-3 -79h-240v349q0 54 -15 80.5t-52 26.5q-87 0 -87 -143v-170q0 -21 6.5 -31t24.5 -16l15 -5q21 -7 31 -12l-3 -79h-331l-3 79q10 5 31 12l15 5q19 7 25 16t6 31v502q0 24 -6.5 32.5t-25.5 14.5l-15 5q-24 8 -29 12l3 79h256v-263q69 60 157 60
q82 0 131 -51t49 -141v-250q0 -25 4.5 -34t17.5 -14z" />
    <glyph glyph-name="i" unicode="i" horiz-adv-x="363" 
d="M182 622q-44 0 -74.5 29t-30.5 71q0 43 30 71t75 28q44 0 73.5 -28t29.5 -71q0 -42 -29.5 -71t-73.5 -29zM25 0l-3 79q10 5 31 12l15 5q19 7 25 16t6 31v287q0 24 -6.5 32.5t-25.5 14.5l-15 5q-24 8 -29 12l3 79h256v-430q0 -21 6.5 -31t24.5 -16l15 -5q21 -7 31 -12
l-3 -79h-331z" />
    <glyph glyph-name="j" unicode="j" horiz-adv-x="338" 
d="M195 622q-44 0 -74.5 29t-30.5 71q0 43 30 71t75 28q44 0 73.5 -28t29.5 -71q0 -42 -29.5 -71t-73.5 -29zM83 -224q-92 0 -142 36.5t-50 100.5v5q0 23 8 34q9 12 30 12h120v-48q0 -44 31 -44q18 0 24.5 16.5t6.5 59.5v482q0 24 -6.5 32.5t-25.5 14.5l-15 5q-24 8 -29 12
l3 79h256v-583q0 -105 -53.5 -159.5t-157.5 -54.5z" />
    <glyph glyph-name="k" unicode="k" horiz-adv-x="680" 
d="M635 92q21 -6 28 -11l-3 -81h-212l-131 228q-6 12 -16 2l-15 -15q-9 -9 -9 -21v-51q0 -21 6.5 -31t24.5 -16l15 -5q21 -7 31 -12l-3 -79h-331l-3 79q10 5 31 12l15 5q19 7 25 16t6 31v502q0 24 -6.5 32.5t-25.5 14.5l-15 5q-24 8 -29 12l3 79h256v-449l110 109
q18 23 -10 31l-9 3q-17 5 -28 12l3 79h296l3 -79q-9 -6 -28 -12l-16 -4q-33 -8 -81 -55l-61 -62q-6 -6 0 -16l117 -202q26 -39 47 -46z" />
    <glyph glyph-name="l" unicode="l" horiz-adv-x="366" 
d="M20 0l-3 79q10 5 31 12l15 5q19 7 25 16t6 31v502q0 24 -6.5 32.5t-25.5 14.5l-15 5q-24 8 -29 12l3 79h256v-645q0 -21 6.5 -31t24.5 -16l15 -5q21 -7 31 -12l-3 -79h-331z" />
    <glyph glyph-name="m" unicode="m" horiz-adv-x="1012" 
d="M961 91q11 -4 27 -12l-3 -79h-240v349q0 54 -14 80.5t-48 26.5q-80 0 -80 -143v-170q0 -25 4.5 -34t17.5 -14l11 -4q11 -4 27 -12l-3 -79h-240v349q0 54 -14 80.5t-48 26.5q-37 0 -58.5 -35.5t-21.5 -107.5v-170q0 -21 6.5 -31t24.5 -16l15 -5q21 -7 31 -12l-3 -79h-331
l-3 79q10 5 31 12l15 5q19 7 25 16t6 31v287q0 24 -6.5 32.5t-25.5 14.5l-15 5q-24 8 -29 12l3 79h248v-55q64 67 153 67q107 0 155 -85q66 85 170 85q81 0 130.5 -51.5t49.5 -140.5v-250q0 -25 4.5 -34t17.5 -14z" />
    <glyph glyph-name="n" unicode="n" horiz-adv-x="699" 
d="M648 91q11 -4 27 -12l-3 -79h-240v349q0 54 -15 80.5t-52 26.5q-87 0 -87 -143v-170q0 -21 6.5 -31t24.5 -16l15 -5q21 -7 31 -12l-3 -79h-331l-3 79q10 5 31 12l15 5q19 7 25 16t6 31v287q0 24 -6.5 32.5t-25.5 14.5l-15 5q-24 8 -29 12l3 79h248v-55q73 67 165 67
q82 0 131 -51t49 -141v-250q0 -25 4.5 -34t17.5 -14z" />
    <glyph glyph-name="o" unicode="o" horiz-adv-x="640" 
d="M320 -12q-132 0 -212 81.5t-80 217.5t81.5 217t213.5 81t210.5 -80.5t78.5 -217.5q0 -135 -81.5 -217t-210.5 -82zM322 96q103 0 103 191q0 190 -102 190q-108 0 -108 -190q0 -191 107 -191z" />
    <glyph glyph-name="p" unicode="p" horiz-adv-x="673" 
d="M420 585q103 0 164 -81.5t61 -216.5q0 -138 -62.5 -218.5t-174.5 -80.5q-79 0 -138 51v-108q0 -35 38 -47l15 -5q22 -7 33 -12l-3 -79h-340l-3 79q10 5 31 12l15 5q19 7 25 16t6 31v499q0 24 -6.5 32.5t-25.5 14.5l-15 5q-22 7 -29 12l3 79h248v-55q64 67 158 67zM368 93
q48 0 69 48.5t21 145.5q0 95 -20 142.5t-67 47.5q-101 0 -101 -190q0 -194 98 -194z" />
    <glyph glyph-name="q" unicode="q" horiz-adv-x="636" 
d="M317 -212l-4 78q13 6 40 13l17 5q19 6 25 15.5t6 31.5v114q-51 -57 -132 -57q-106 0 -173.5 80t-67.5 218q0 134 67.5 216.5t173.5 82.5q101 0 149 -80l16 68h150v-642q0 -38 28 -47l18 -6q19 -6 30 -11l-3 -79h-340zM310 96q47 0 69 44.5t22 145.5q0 104 -21 147.5
t-69 43.5q-97 0 -97 -191q0 -190 96 -190z" />
    <glyph glyph-name="r" unicode="r" horiz-adv-x="570" 
d="M425 585q57 0 91 -37t34 -102v-9q0 -34 -12 -47q-11 -13 -36 -13h-126l-3 30q-3 40 -29 40q-30 0 -48.5 -51t-18.5 -134v-119q0 -39 31 -47l17 -5q22 -5 35 -12l-3 -79h-331l-3 79q12 6 30 12l15 5q15 5 20.5 15t5.5 32v287q0 24 -6.5 32.5t-25.5 14.5l-15 5
q-22 7 -29 12l3 79h248v-74q60 86 156 86z" />
    <glyph glyph-name="s" unicode="s" horiz-adv-x="551" 
d="M320 -12q-99 0 -154 45q-9 7 -12 -5l-5 -28h-108v211h116l2 -27q3 -44 31 -68t78 -24q68 0 68 47q0 22 -19.5 40.5t-75.5 41.5l-60 25q-72 30 -106.5 71t-34.5 104q0 73 55.5 118.5t142.5 45.5q86 0 135 -39q9 -7 10 3l3 27h109v-185h-116l-3 18q-6 37 -30.5 56.5
t-62.5 19.5q-65 0 -65 -45q0 -23 19 -36.5t80 -39.5l59 -27q73 -36 106 -75.5t33 -99.5q0 -77 -55 -125.5t-140 -48.5z" />
    <glyph glyph-name="t" unicode="t" horiz-adv-x="461" 
d="M250 -12q-163 0 -163 146v318h-79v111l46 11q29 6 39.5 15.5t16.5 31.5l34 117h126v-165h129v-121h-129v-290q0 -42 34 -42q30 0 77 31l57 -86q-85 -77 -188 -77z" />
    <glyph glyph-name="u" unicode="u" horiz-adv-x="699" 
d="M645 91q19 -7 28 -12l-3 -79h-224v61q-59 -73 -169 -73q-91 0 -139.5 51.5t-48.5 147.5v243q0 24 -5 33.5t-19 14.5l-13 4q-22 7 -28 12l3 79h245v-374q0 -92 75 -92q36 0 58 29.5t22 82.5v211q0 24 -5 33.5t-19 14.5l-13 4q-22 7 -28 12l3 79h245v-430q0 -22 4.5 -32
t17.5 -15z" />
    <glyph glyph-name="v" unicode="v" horiz-adv-x="653" 
d="M646 573l3 -79q-10 -5 -28 -11l-11 -4q-29 -11 -37 -36l-166 -443h-154l-158 427q-9 24 -18 34.5t-26 15.5l-15 5q-23 8 -31 13l3 78h336l4 -78q-12 -6 -27 -11l-19 -6q-30 -9 -17 -50l75 -233l88 251q10 27 -12 34l-12 4q-16 6 -24 10l3 79h243z" />
    <glyph glyph-name="w" unicode="w" horiz-adv-x="923" 
d="M229 0l-136 433q-7 20 -16.5 29.5t-25.5 14.5l-15 5q-20 7 -31 13l3 78h336l4 -78q-6 -4 -26 -11l-15 -5q-18 -6 -23.5 -16.5t0.5 -33.5l54 -208l94 352h133l100 -352l52 216q8 36 -14 43l-12 4q-16 6 -27 10l3 79h249l3 -79q-10 -5 -25 -10l-14 -5q-24 -8 -37 -44
l-127 -435h-161l-83 284l-82 -284h-161z" />
    <glyph glyph-name="x" unicode="x" horiz-adv-x="693" 
d="M654 90q15 -4 29 -12l-3 -78h-315l-4 77q10 6 24 10l12 4q7 2 9 6t-2 12t-16 21l-58 67l-56 -66q-24 -35 1 -43l10 -3q21 -6 27 -9l-5 -76h-293l-3 79q4 2 19.5 5.5t19.5 4.5l14 5q46 16 89 67l100 120l-120 135q-44 50 -74 61l-16 6q-13 4 -28 13l3 77h321l4 -76
q-7 -4 -20 -9l-14 -5q-24 -8 -4 -31l59 -67l53 61q26 30 1 39l-9 3q-9 3 -17 7l4 78h261l3 -79q-6 -3 -27 -10l-16 -6q-22 -8 -39 -21.5t-45 -46.5l-92 -108l140 -159q37 -42 60 -49z" />
    <glyph glyph-name="y" unicode="y" horiz-adv-x="647" 
d="M640 573l3 -79q-10 -5 -28 -11l-11 -4q-28 -10 -41 -39l-160 -428q-50 -133 -101 -184.5t-124 -51.5q-75 0 -117.5 40t-42.5 99v4q0 23 10 38t28 15h118l4 -30q6 -46 34 -46q15 0 28.5 18.5t33.5 68.5l-186 461q-11 24 -37 33l-15 5q-23 8 -31 13l3 78h336l4 -78
q-12 -6 -27 -11l-19 -6q-30 -9 -17 -49l73 -225l80 233q12 36 -8 43l-12 4q-21 6 -28 10l3 79h247z" />
    <glyph glyph-name="z" unicode="z" horiz-adv-x="581" 
d="M455 225h88v-225h-510v99l286 362h-135q-20 0 -27 -24l-25 -85h-87v221h487v-99l-286 -362h152q21 0 28 22z" />
    <glyph glyph-name="braceleft" unicode="{" horiz-adv-x="371" 
d="M278 -210q-84 0 -128 38t-44 131v256q0 49 -43 49h-30v122h28q45 0 45 56v222q0 93 44 131t128 38h63v-100h-28q-39 0 -54.5 -17t-15.5 -62v-243q0 -70 -55 -84l-8 -2l8 -2q29 -8 42 -25.5t13 -51.5v-277q0 -52 14 -65.5t56 -13.5h28v-100h-63z" />
    <glyph glyph-name="bar" unicode="|" horiz-adv-x="456" 
d="M155 -212v1081h146v-1081h-146z" />
    <glyph glyph-name="braceright" unicode="}" horiz-adv-x="371" 
d="M93 -210h-63v100h28q42 0 56 13.5t14 65.5v277q0 34 13 51.5t42 25.5l8 2l-8 2q-55 14 -55 84v243q0 45 -15.5 62t-54.5 17h-28v100h63q84 0 128 -38t44 -131v-222q0 -56 45 -56h28v-122h-30q-43 0 -43 -49v-256q0 -93 -44 -131t-128 -38z" />
    <glyph glyph-name="asciitilde" unicode="~" horiz-adv-x="625" 
d="M432 320q-45 0 -85 23t-73.5 46t-63.5 23q-65 0 -120 -85l-86 79q33 58 87 96t118 38q44 0 83.5 -23t75 -46t69.5 -23q49 0 107 82l78 -79q-31 -55 -79.5 -93t-110.5 -38z" />
    <glyph glyph-name="uni00A0" unicode="&#xa0;" horiz-adv-x="240" 
 />
    <glyph glyph-name="exclamdown" unicode="&#xa1;" horiz-adv-x="328" 
d="M164 417q-42 0 -70 27t-28 69q0 41 28 68t70 27t70 -27t28 -68q0 -42 -28 -69t-70 -27zM57 -190l40 556h134l40 -556h-214z" />
    <glyph glyph-name="cent" unicode="&#xa2;" horiz-adv-x="557" 
d="M544 219q-77 -102 -195 -117v-99h-134v107q-91 25 -144 98.5t-53 191.5q0 112 54 187.5t142 98.5v99h134v-96q25 -5 49 -19q12 -7 15 6l3 17h112v-235h-114l-2 22q-11 110 -90 110q-53 0 -84.5 -44t-31.5 -135q0 -96 37.5 -143.5t97.5 -47.5q67 0 136 71z" />
    <glyph glyph-name="sterling" unicode="&#xa3;" horiz-adv-x="646" 
d="M529 243h87v-243h-574v102q66 23 103 61.5t37 87.5q0 34 -16 71h-118v104h63q-49 90 -49 161q0 96 75 154.5t199 58.5q112 0 183.5 -54t71.5 -142v-8q0 -26 -9.5 -37.5t-31.5 -11.5h-155v51q0 87 -60 87q-68 0 -68 -90q0 -78 51 -169h151v-104h-108q5 -28 5 -50
q0 -79 -64 -141h151q31 0 42 32l10 27q12 33 24 53z" />
    <glyph glyph-name="currency" unicode="&#xa4;" horiz-adv-x="719" 
d="M123 1l-90 94l103 98q-30 54 -30 123q0 65 32 127l-105 99l90 94l102 -98q59 38 128 38q76 0 139 -46l106 104l91 -93l-114 -109q26 -54 26 -116q0 -63 -25 -113l113 -107l-91 -93l-103 102q-62 -48 -142 -48q-68 0 -130 40zM355 184q44 0 69.5 33t25.5 95q0 64 -26 101
t-70 37q-43 0 -70 -33.5t-27 -93.5q0 -64 25.5 -101.5t72.5 -37.5z" />
    <glyph glyph-name="yen" unicode="&#xa5;" horiz-adv-x="716" 
d="M711 788l7 -83q-7 -6 -29 -13l-16 -5q-43 -13 -70 -70l-89 -189h112v-108h-161v-52h161v-108h-161q1 -30 6.5 -40.5t25.5 -17.5l15 -5q20 -7 31 -16l-5 -81h-341l-6 82q9 9 27 14l19 6q20 7 26 17.5t7 40.5h-160v108h160v52h-160v108h105l-93 180q-21 41 -35 56t-31 21
l-15 5q-24 9 -33 16l7 82h330l8 -83q-7 -7 -27 -13l-13 -4q-9 -3 -13.5 -7.5t-3.5 -12.5t5 -17.5t12 -25.5l82 -162l77 162q26 57 4 63l-15 4q-23 7 -33 15l4 81h279z" />
    <glyph glyph-name="brokenbar" unicode="&#xa6;" horiz-adv-x="456" 
d="M155 468v401h146v-401h-146zM155 -212v401h146v-401h-146z" />
    <glyph glyph-name="section" unicode="&#xa7;" horiz-adv-x="632" 
d="M45 -160v237h125l6 -33q20 -117 137 -117q38 0 59 16.5t21 45.5q0 31 -26 52.5t-99 50.5l-45 18q-91 36 -134.5 80.5t-43.5 115.5q0 95 91 153q-74 59 -74 151q0 83 63.5 136.5t158.5 53.5q73 0 120 -31q13 -8 17 8l4 18h108v-206h-125l-1 25q-1 35 -27 56t-65 21
q-35 0 -57 -17t-22 -42q0 -29 24.5 -49.5t87.5 -42.5l45 -16q104 -37 147.5 -80t43.5 -116q0 -105 -87 -162q74 -56 74 -150q0 -80 -63.5 -139.5t-157.5 -59.5q-107 0 -171 55q-11 9 -13 -4l-4 -28h-117zM402 219q14 22 14 53q0 35 -26 59.5t-90 48.5q-13 5 -38 14t-32 12
q-16 -24 -16 -52q0 -30 20.5 -53t73.5 -44q80 -31 94 -38z" />
    <glyph glyph-name="dieresis" unicode="&#xa8;" horiz-adv-x="400" 
d="M87 639q-35 0 -60.5 25.5t-25.5 60.5t25.5 60.5t60.5 25.5t60.5 -25.5t25.5 -60.5t-25.5 -60.5t-60.5 -25.5zM313 639q-35 0 -60.5 25.5t-25.5 60.5t25.5 60.5t60.5 25.5t60.5 -25.5t25.5 -60.5t-25.5 -60.5t-60.5 -25.5z" />
    <glyph glyph-name="copyright" unicode="&#xa9;" horiz-adv-x="900" 
d="M450 -12q-171 0 -293 116t-122 290q0 115 57 208.5t152 145.5t206 52q170 0 292.5 -116.5t122.5 -289.5q0 -174 -122.5 -290t-292.5 -116zM450 69q130 0 223 92t93 233q0 142 -92.5 233.5t-223.5 91.5q-129 0 -222 -92t-93 -233t93 -233t222 -92zM463 151
q-106 0 -173.5 65t-67.5 179q0 109 66 176.5t172 67.5q89 0 143.5 -43.5t54.5 -109.5v-7q0 -21 -6 -28t-21 -7h-120v29q0 83 -54 83q-39 0 -64.5 -38t-25.5 -121q0 -74 32.5 -112.5t88.5 -38.5q72 0 128 73l58 -57q-73 -111 -211 -111z" />
    <glyph glyph-name="ordfeminine" unicode="&#xaa;" horiz-adv-x="462" 
d="M410 490q8 -3 13 -6v-53h-151v45q-31 -53 -118 -53q-47 0 -83 28.5t-36 76.5q0 86 134 113l56 11q22 4 28.5 8.5t6.5 15.5v11q0 48 -41 48q-39 0 -39 -42v-25h-107q-10 0 -14 9q-4 10 -4 22q0 43 45.5 72t126.5 29q158 0 158 -123v-151q0 -28 16 -33zM260 555v44
q-12 -5 -37 -12l-12 -3q-42 -10 -42 -45q0 -20 12 -30.5t29 -10.5q23 0 36.5 15.5t13.5 41.5zM47 293v83h371v-83h-371z" />
    <glyph glyph-name="guillemotleft" unicode="&#xab;" horiz-adv-x="539" 
d="M172 90l-118 205q-8 14 0 29l120 205l88 -31l-85 -184l85 -191zM374 90l-118 205q-8 14 0 29l120 205l88 -31l-85 -184l85 -191z" />
    <glyph glyph-name="logicalnot" unicode="&#xac;" horiz-adv-x="625" 
d="M459 150v230h-428v127h563v-357h-135z" />
    <glyph glyph-name="uni00AD" unicode="&#xad;" horiz-adv-x="354" 
d="M40 237v126h274v-126h-274z" />
    <glyph glyph-name="registered" unicode="&#xae;" horiz-adv-x="689" 
d="M344 229q-127 0 -212 82.5t-85 207.5q0 123 85.5 206.5t211.5 83.5t212 -83.5t86 -206.5q0 -125 -85.5 -207.5t-212.5 -82.5zM344 301q96 0 152.5 60.5t56.5 157.5t-56.5 157.5t-152.5 60.5t-152 -60.5t-56 -157.5t56 -157.5t152 -60.5zM233 373v302h123q122 0 122 -88
q0 -64 -51 -85q-9 -3 -6 -11l14 -37q10 -25 21 -31l8 -4q8 -4 15 -8l-4 -38h-98l-37 113q-1 4 -6 4h-3q-5 0 -5 -6v-111h-93zM330 543h10q44 0 44 42q0 37 -41 37h-10q-10 0 -10 -9v-62q0 -8 7 -8z" />
    <glyph glyph-name="macron" unicode="&#xaf;" horiz-adv-x="400" 
d="M5 645v117h390v-117h-390z" />
    <glyph glyph-name="degree" unicode="&#xb0;" horiz-adv-x="343" 
d="M172 594q-65 0 -111 44t-46 107q0 64 46 108.5t111 44.5q64 0 110 -44.5t46 -106.5q0 -64 -46 -108.5t-110 -44.5zM172 695q21 0 35.5 15t14.5 35q0 22 -14.5 37t-35.5 15q-22 0 -36.5 -14.5t-14.5 -35.5q0 -22 14.5 -37t36.5 -15z" />
    <glyph glyph-name="plusminus" unicode="&#xb1;" horiz-adv-x="625" 
d="M240 187v192h-214v127h214v192h135v-192h214v-127h-214v-192h-135zM36 0v127h563v-127h-563z" />
    <glyph glyph-name="uni00B2" unicode="&#xb2;" horiz-adv-x="466" 
d="M361 539h65v-150h-386v91q116 71 163 112.5t47 85.5t-32 44q-35 0 -35 -46v-59h-110q-41 0 -41 48q0 62 51 98.5t147 36.5q87 0 135 -35t48 -90q0 -103 -203 -194h95q27 0 39 26l5 11q3 6 12 21z" />
    <glyph glyph-name="uni00B3" unicode="&#xb3;" horiz-adv-x="468" 
d="M229 388q-92 0 -143.5 32t-51.5 86q0 33 29 33h114v-22q0 -51 48 -51q21 0 32 13.5t11 35.5q0 46 -52 46h-23v74h21q49 0 49 43q0 44 -34 44q-37 0 -37 -42v-21h-114q-16 0 -22.5 5t-6.5 23q0 50 50.5 81.5t137.5 31.5q79 0 128.5 -31t49.5 -81q0 -62 -72 -85v-1
q39 -8 63.5 -32.5t24.5 -61.5q0 -53 -56 -86.5t-146 -33.5z" />
    <glyph glyph-name="acute" unicode="&#xb4;" horiz-adv-x="400" 
d="M137 619l-66 86l201 168l100 -114z" />
    <glyph glyph-name="uni00B5" unicode="&#xb5;" horiz-adv-x="715" 
d="M662 120l45 -56q-51 -76 -143 -76q-85 0 -118 61q-43 -61 -111 -61q-39 0 -69 21v-221h-177v642q0 24 -5 33.5t-19 14.5l-13 4q-22 7 -28 12l3 79h245v-378q0 -40 19.5 -63.5t53.5 -23.5q39 0 60.5 30t21.5 85v207q0 24 -5 33.5t-19 14.5l-13 4q-22 7 -28 12l3 79h245
v-443q0 -27 20 -27q17 0 32 17z" />
    <glyph glyph-name="paragraph" unicode="&#xb6;" horiz-adv-x="738" 
d="M209 -172l-1 87q7 3 37 11l25 6q33 8 33 63v308h-15q-109 0 -173.5 70.5t-64.5 172.5q0 100 66.5 171t181.5 71h358v-960h-128v855h-97v-855h-222z" />
    <glyph glyph-name="periodcentered" unicode="&#xb7;" horiz-adv-x="490" 
d="M246 204q-45 0 -76 31t-31 76q0 44 31 74.5t76 30.5q44 0 74.5 -30.5t30.5 -74.5q0 -45 -30.5 -76t-74.5 -31z" />
    <glyph glyph-name="cedilla" unicode="&#xb8;" horiz-adv-x="400" 
d="M201 -227q-80 0 -133 34l28 76q39 -26 73 -26t34 29q0 36 -73 46l32 70h85l-12 -27q47 -11 74.5 -38.5t27.5 -66.5q0 -41 -35 -69t-101 -28z" />
    <glyph glyph-name="uni00B9" unicode="&#xb9;" horiz-adv-x="350" 
d="M114 389v264q0 20 -5 29t-18 12l-20 4q-18 4 -27 8v82h223v-399h-153z" />
    <glyph glyph-name="ordmasculine" unicode="&#xba;" horiz-adv-x="439" 
d="M219 423q-86 0 -140 51.5t-54 137.5q0 85 55.5 136.5t140.5 51.5q87 0 140 -51t53 -137t-55 -137.5t-140 -51.5zM222 499q31 0 45 26.5t14 86.5q0 112 -59 112q-63 0 -63 -112q0 -60 15 -86.5t48 -26.5zM34 293v83h371v-83h-371z" />
    <glyph glyph-name="guillemotright" unicode="&#xbb;" horiz-adv-x="539" 
d="M165 90l-90 33l85 191l-85 184l88 31l120 -205q8 -15 0 -29zM367 90l-90 33l85 191l-85 184l88 31l120 -205q8 -15 0 -29z" />
    <glyph glyph-name="onequarter" unicode="&#xbc;" horiz-adv-x="913" 
d="M612 831l107 -75l-509 -787l-107 79zM124 653q0 20 -5 29t-18 12l-20 4q-18 4 -27 8v82h223v-399h-153v264zM806 158h47v-81h-47v-77h-156v77h-216v70l170 251h202v-240zM553 158h97v151z" />
    <glyph glyph-name="onehalf" unicode="&#xbd;" horiz-adv-x="931" 
d="M612 831l107 -75l-509 -787l-107 79zM124 653q0 20 -5 29t-18 12l-20 4q-18 4 -27 8v82h223v-399h-153v264zM822 150h65v-150h-386v91q116 71 163 112.5t47 85.5t-32 44q-35 0 -35 -46v-59h-110q-41 0 -41 48q0 62 51 98.5t147 36.5q87 0 135 -35t48 -90
q0 -103 -203 -194h95q27 0 39 26l5 11q3 6 12 21z" />
    <glyph glyph-name="threequarters" unicode="&#xbe;" horiz-adv-x="1027" 
d="M726 831l107 -75l-509 -787l-107 79zM431 508q0 -53 -56 -86.5t-146 -33.5q-92 0 -143.5 32t-51.5 86q0 33 29 33h114v-22q0 -51 48 -51q21 0 32 13.5t11 35.5q0 46 -52 46h-23v74h21q49 0 49 43q0 44 -34 44q-37 0 -37 -42v-21h-114q-16 0 -22.5 5t-6.5 23
q0 50 50.5 81.5t137.5 31.5q79 0 128.5 -31t49.5 -81q0 -62 -72 -85v-1q39 -8 63.5 -32.5t24.5 -61.5zM920 158h47v-81h-47v-77h-156v77h-216v70l170 251h202v-240zM667 158h97v151z" />
    <glyph glyph-name="questiondown" unicode="&#xbf;" horiz-adv-x="568" 
d="M304 417q-42 0 -70 27t-28 69q0 41 28 68t70 27t70 -27t28 -68q0 -42 -28 -69t-70 -27zM280 -202q-109 0 -180 54t-71 145q0 48 20 86t48.5 64t58 51.5t52 62t25.5 80.5l2 27h138q11 -46 11 -83q0 -41 -15.5 -74t-38 -56t-44.5 -45.5t-37.5 -54t-15.5 -70.5q0 -71 51 -71
q55 0 55 79v66h162q38 0 38 -50v-5q0 -87 -70.5 -146.5t-188.5 -59.5z" />
    <glyph glyph-name="Agrave" unicode="&#xc0;" horiz-adv-x="792" 
d="M484 830l-265 100l72 137l243 -141zM14 0l-5 83q11 6 31 13l14 5q21 8 34 21.5t23 44.5l193 621h178l200 -610q13 -38 25 -54t29 -22l17 -6q23 -8 32 -15l-6 -81h-351l-7 83q13 5 35 11l13 4q30 10 24 49l-21 73q-3 9 -14 9h-185q-12 0 -15 -11l-10 -35
q-12 -36 -12 -56.5t18 -26.5l11 -4q21 -8 33 -15l-7 -81h-277zM306 341h120q13 0 8 16l-61 216h-14l-62 -219q-3 -13 9 -13z" />
    <glyph glyph-name="Aacute" unicode="&#xc1;" horiz-adv-x="792" 
d="M300 830l-50 96l243 141l72 -137zM14 0l-5 83q11 6 31 13l14 5q21 8 34 21.5t23 44.5l193 621h178l200 -610q13 -38 25 -54t29 -22l17 -6q23 -8 32 -15l-6 -81h-351l-7 83q13 5 35 11l13 4q30 10 24 49l-21 73q-3 9 -14 9h-185q-12 0 -15 -11l-10 -35q-12 -36 -12 -56.5
t18 -26.5l11 -4q21 -8 33 -15l-7 -81h-277zM306 341h120q13 0 8 16l-61 216h-14l-62 -219q-3 -13 9 -13z" />
    <glyph glyph-name="Acircumflex" unicode="&#xc2;" horiz-adv-x="792" 
d="M263 829l-66 73l131 133h136l130 -132l-66 -74l-133 100zM14 0l-5 83q11 6 31 13l14 5q21 8 34 21.5t23 44.5l193 621h178l200 -610q13 -38 25 -54t29 -22l17 -6q23 -8 32 -15l-6 -81h-351l-7 83q13 5 35 11l13 4q30 10 24 49l-21 73q-3 9 -14 9h-185q-12 0 -15 -11
l-10 -35q-12 -36 -12 -56.5t18 -26.5l11 -4q21 -8 33 -15l-7 -81h-277zM306 341h120q13 0 8 16l-61 216h-14l-62 -219q-3 -13 9 -13z" />
    <glyph glyph-name="Atilde" unicode="&#xc3;" horiz-adv-x="792" 
d="M268 836l-95 57q21 57 61 89.5t90 32.5q35 0 78.5 -24.5t64.5 -24.5q33 0 51 51l92 -54q-12 -49 -49 -87.5t-87 -38.5q-39 0 -81 24t-65 24q-40 0 -60 -49zM14 0l-5 83q11 6 31 13l14 5q21 8 34 21.5t23 44.5l193 621h178l200 -610q13 -38 25 -54t29 -22l17 -6
q23 -8 32 -15l-6 -81h-351l-7 83q13 5 35 11l13 4q30 10 24 49l-21 73q-3 9 -14 9h-185q-12 0 -15 -11l-10 -35q-12 -36 -12 -56.5t18 -26.5l11 -4q21 -8 33 -15l-7 -81h-277zM306 341h120q13 0 8 16l-61 216h-14l-62 -219q-3 -13 9 -13z" />
    <glyph glyph-name="Adieresis" unicode="&#xc4;" horiz-adv-x="792" 
d="M284 848q-37 0 -62.5 23.5t-25.5 59.5t25.5 59.5t62.5 23.5t62 -23.5t25 -59.5t-25 -59.5t-62 -23.5zM509 848q-37 0 -62.5 23.5t-25.5 59.5t25.5 59.5t62.5 23.5t62 -23.5t25 -59.5t-25 -59.5t-62 -23.5zM14 0l-5 83q11 6 31 13l14 5q21 8 34 21.5t23 44.5l193 621h178
l200 -610q13 -38 25 -54t29 -22l17 -6q23 -8 32 -15l-6 -81h-351l-7 83q13 5 35 11l13 4q30 10 24 49l-21 73q-3 9 -14 9h-185q-12 0 -15 -11l-10 -35q-12 -36 -12 -56.5t18 -26.5l11 -4q21 -8 33 -15l-7 -81h-277zM306 341h120q13 0 8 16l-61 216h-14l-62 -219
q-3 -13 9 -13z" />
    <glyph glyph-name="Aring" unicode="&#xc5;" horiz-adv-x="792" 
d="M395 832q-61 0 -96.5 28t-35.5 75q0 48 36 76t98 28q60 0 96.5 -28.5t36.5 -74.5q0 -48 -36.5 -76t-98.5 -28zM397 899q16 0 27.5 10.5t11.5 26.5q0 17 -11.5 27t-28.5 10t-28 -10t-11 -27q0 -16 11.5 -26.5t28.5 -10.5zM14 0l-5 83q11 6 31 13l14 5q21 8 34 21.5
t23 44.5l193 621h178l200 -610q13 -38 25 -54t29 -22l17 -6q23 -8 32 -15l-6 -81h-351l-7 83q13 5 35 11l13 4q30 10 24 49l-21 73q-3 9 -14 9h-185q-12 0 -15 -11l-10 -35q-12 -36 -12 -56.5t18 -26.5l11 -4q21 -8 33 -15l-7 -81h-277zM306 341h120q13 0 8 16l-61 216h-14
l-62 -219q-3 -13 9 -13z" />
    <glyph glyph-name="AE" unicode="&#xc6;" horiz-adv-x="988" 
d="M10 0l-6 80q16 10 45 21l24 9q21 8 34.5 24.5t27.5 53.5l163 429q11 29 11 39q0 11 -5.5 17t-20.5 11l-18 7q-22 9 -32 16l8 81h691v-225h-87q-10 22 -21 51l-14 39q-4 13 -10 16t-23 3h-111q-14 0 -14 -14v-187q0 -14 14 -14h42q18 0 28 27l6 15l5 12.5t5 12t4 8.5l65 2
v-263l-65 -4q-5 6 -15 32l-5 12q-13 30 -28 30h-42q-14 0 -14 -14v-197q0 -14 14 -14h124q17 0 23 3t10 16l16 45q12 35 19 51h87v-231h-561l-6 82q7 7 27 14l19 6q23 7 28 20.5t5 56.5v36q0 17 -16 17h-136q-16 0 -21 -14l-25 -64q-9 -23 -9 -31q0 -13 21 -21l18 -7
q21 -8 28 -15l-10 -80h-297zM348 344h86q23 0 23 29v299h-13l-105 -306q-3 -9 -3 -14q0 -8 12 -8z" />
    <glyph glyph-name="Ccedilla" unicode="&#xc7;" horiz-adv-x="687" 
d="M663 217q-30 -105 -102.5 -166.5t-182.5 -62.5l-6 -13q47 -11 74.5 -38.5t27.5 -66.5q0 -41 -35 -69t-101 -28q-80 0 -133 34l28 76q39 -26 73 -26t34 29q0 36 -73 46l29 63q-127 23 -192.5 125t-65.5 272q0 191 92 299.5t240 108.5q78 0 128 -30q12 -8 15 3l4 21h123
v-258h-128l-6 35q-19 114 -112 114q-69 0 -110 -73t-41 -214q0 -292 154 -292q48 0 88.5 40.5t64.5 113.5z" />
    <glyph glyph-name="Egrave" unicode="&#xc8;" horiz-adv-x="657" 
d="M438 830l-265 100l72 137l243 -141zM44 0l-6 82q9 9 27 14l19 6q23 7 28 20.5t5 56.5v431q0 43 -5 56t-27 20l-15 5q-20 7 -31 16l5 81h557v-225h-87q-10 22 -21 51l-14 39q-4 13 -10 16t-23 3h-120q-14 0 -14 -14v-187q0 -14 14 -14h51q18 0 28 27l6 15l5 12.5t5 12
t4 8.5l65 -2v-261l-65 -2q-5 6 -15 32l-5 12q-13 30 -28 30h-51q-14 0 -14 -14v-197q0 -14 14 -14h133q17 0 23 3t10 16l16 45q12 35 19 51h87v-231h-570z" />
    <glyph glyph-name="Eacute" unicode="&#xc9;" horiz-adv-x="657" 
d="M254 830l-50 96l243 141l72 -137zM44 0l-6 82q9 9 27 14l19 6q23 7 28 20.5t5 56.5v431q0 43 -5 56t-27 20l-15 5q-20 7 -31 16l5 81h557v-225h-87q-10 22 -21 51l-14 39q-4 13 -10 16t-23 3h-120q-14 0 -14 -14v-187q0 -14 14 -14h51q18 0 28 27l6 15l5 12.5t5 12t4 8.5
l65 -2v-261l-65 -2q-5 6 -15 32l-5 12q-13 30 -28 30h-51q-14 0 -14 -14v-197q0 -14 14 -14h133q17 0 23 3t10 16l16 45q12 35 19 51h87v-231h-570z" />
    <glyph glyph-name="Ecircumflex" unicode="&#xca;" horiz-adv-x="657" 
d="M217 829l-66 73l131 133h136l130 -132l-66 -74l-133 100zM44 0l-6 82q9 9 27 14l19 6q23 7 28 20.5t5 56.5v431q0 43 -5 56t-27 20l-15 5q-20 7 -31 16l5 81h557v-225h-87q-10 22 -21 51l-14 39q-4 13 -10 16t-23 3h-120q-14 0 -14 -14v-187q0 -14 14 -14h51q18 0 28 27
l6 15l5 12.5t5 12t4 8.5l65 -2v-261l-65 -2q-5 6 -15 32l-5 12q-13 30 -28 30h-51q-14 0 -14 -14v-197q0 -14 14 -14h133q17 0 23 3t10 16l16 45q12 35 19 51h87v-231h-570z" />
    <glyph glyph-name="Edieresis" unicode="&#xcb;" horiz-adv-x="657" 
d="M238 848q-37 0 -62.5 23.5t-25.5 59.5t25.5 59.5t62.5 23.5t62 -23.5t25 -59.5t-25 -59.5t-62 -23.5zM463 848q-37 0 -62.5 23.5t-25.5 59.5t25.5 59.5t62.5 23.5t62 -23.5t25 -59.5t-25 -59.5t-62 -23.5zM44 0l-6 82q9 9 27 14l19 6q23 7 28 20.5t5 56.5v431q0 43 -5 56
t-27 20l-15 5q-20 7 -31 16l5 81h557v-225h-87q-10 22 -21 51l-14 39q-4 13 -10 16t-23 3h-120q-14 0 -14 -14v-187q0 -14 14 -14h51q18 0 28 27l6 15l5 12.5t5 12t4 8.5l65 -2v-261l-65 -2q-5 6 -15 32l-5 12q-13 30 -28 30h-51q-14 0 -14 -14v-197q0 -14 14 -14h133
q17 0 23 3t10 16l16 45q12 35 19 51h87v-231h-570z" />
    <glyph glyph-name="Igrave" unicode="&#xcc;" horiz-adv-x="441" 
d="M309 830l-265 100l72 137l243 -141zM50 0l-6 82q9 9 27 14l19 6q23 7 28 20.5t5 56.5v431q0 43 -5 56t-27 20l-15 5q-20 7 -31 16l5 81h341l6 -82q-9 -9 -27 -14l-19 -6q-23 -7 -28 -20.5t-5 -56.5v-431q0 -43 5 -56t27 -20l15 -5q20 -7 31 -16l-5 -81h-341z" />
    <glyph glyph-name="Iacute" unicode="&#xcd;" horiz-adv-x="441" 
d="M125 830l-50 96l243 141l72 -137zM50 0l-6 82q9 9 27 14l19 6q23 7 28 20.5t5 56.5v431q0 43 -5 56t-27 20l-15 5q-20 7 -31 16l5 81h341l6 -82q-9 -9 -27 -14l-19 -6q-23 -7 -28 -20.5t-5 -56.5v-431q0 -43 5 -56t27 -20l15 -5q20 -7 31 -16l-5 -81h-341z" />
    <glyph glyph-name="Icircumflex" unicode="&#xce;" horiz-adv-x="441" 
d="M88 829l-66 73l131 133h136l130 -132l-66 -74l-133 100zM50 0l-6 82q9 9 27 14l19 6q23 7 28 20.5t5 56.5v431q0 43 -5 56t-27 20l-15 5q-20 7 -31 16l5 81h341l6 -82q-9 -9 -27 -14l-19 -6q-23 -7 -28 -20.5t-5 -56.5v-431q0 -43 5 -56t27 -20l15 -5q20 -7 31 -16
l-5 -81h-341z" />
    <glyph glyph-name="Idieresis" unicode="&#xcf;" horiz-adv-x="441" 
d="M109 848q-37 0 -62.5 23.5t-25.5 59.5t25.5 59.5t62.5 23.5t62 -23.5t25 -59.5t-25 -59.5t-62 -23.5zM334 848q-37 0 -62.5 23.5t-25.5 59.5t25.5 59.5t62.5 23.5t62 -23.5t25 -59.5t-25 -59.5t-62 -23.5zM50 0l-6 82q9 9 27 14l19 6q23 7 28 20.5t5 56.5v431q0 43 -5 56
t-27 20l-15 5q-20 7 -31 16l5 81h341l6 -82q-9 -9 -27 -14l-19 -6q-23 -7 -28 -20.5t-5 -56.5v-431q0 -43 5 -56t27 -20l15 -5q20 -7 31 -16l-5 -81h-341z" />
    <glyph glyph-name="Eth" unicode="&#xd0;" horiz-adv-x="763" 
d="M338 788q178 0 282.5 -101t104.5 -285q0 -190 -103.5 -296t-278.5 -106h-299l-6 82q9 9 27 14l19 6q23 7 28 20.5t5 56.5v172h-88v122h88v137q0 43 -5 56t-27 20l-15 5q-20 7 -31 16l5 81h294zM343 116q85 0 131 72t46 209q0 145 -41.5 210t-133.5 65h-19q-14 0 -14 -14
v-185h87v-122h-87v-221q0 -14 14 -14h17z" />
    <glyph glyph-name="Ntilde" unicode="&#xd1;" horiz-adv-x="817" 
d="M286 836l-95 57q21 57 61 89.5t90 32.5q35 0 78.5 -24.5t64.5 -24.5q33 0 51 51l92 -54q-12 -49 -49 -87.5t-87 -38.5q-39 0 -81 24t-65 24q-40 0 -60 -49zM44 0l-6 82q9 9 27 14l19 6q23 7 28 20.5t5 56.5v432q0 44 -5 56t-29 20l-20 7q-15 5 -24 14l5 80h252l280 -470
v291q0 43 -5 56.5t-27 20.5l-15 5q-20 7 -31 16l5 81h278l6 -82q-9 -9 -27 -14l-19 -6q-23 -7 -28 -20.5t-5 -56.5v-609h-153l-306 508v-329q0 -43 5 -56.5t27 -20.5l15 -5q20 -7 31 -16l-5 -81h-278z" />
    <glyph glyph-name="Ograve" unicode="&#xd2;" horiz-adv-x="759" 
d="M468 830l-265 100l72 137l243 -141zM379 -12q-159 0 -250 101t-91 300t93 305t249 106q155 0 248 -104.5t93 -301.5q0 -199 -92 -302.5t-250 -103.5zM382 103q66 0 100 76t34 216q0 290 -134 290q-139 0 -139 -287q0 -295 139 -295z" />
    <glyph glyph-name="Oacute" unicode="&#xd3;" horiz-adv-x="759" 
d="M284 830l-50 96l243 141l72 -137zM379 -12q-159 0 -250 101t-91 300t93 305t249 106q155 0 248 -104.5t93 -301.5q0 -199 -92 -302.5t-250 -103.5zM382 103q66 0 100 76t34 216q0 290 -134 290q-139 0 -139 -287q0 -295 139 -295z" />
    <glyph glyph-name="Ocircumflex" unicode="&#xd4;" horiz-adv-x="759" 
d="M247 829l-66 73l131 133h136l130 -132l-66 -74l-133 100zM379 -12q-159 0 -250 101t-91 300t93 305t249 106q155 0 248 -104.5t93 -301.5q0 -199 -92 -302.5t-250 -103.5zM382 103q66 0 100 76t34 216q0 290 -134 290q-139 0 -139 -287q0 -295 139 -295z" />
    <glyph glyph-name="Otilde" unicode="&#xd5;" horiz-adv-x="759" 
d="M252 836l-95 57q21 57 61 89.5t90 32.5q35 0 78.5 -24.5t64.5 -24.5q33 0 51 51l92 -54q-12 -49 -49 -87.5t-87 -38.5q-39 0 -81 24t-65 24q-40 0 -60 -49zM379 -12q-159 0 -250 101t-91 300t93 305t249 106q155 0 248 -104.5t93 -301.5q0 -199 -92 -302.5t-250 -103.5z
M382 103q66 0 100 76t34 216q0 290 -134 290q-139 0 -139 -287q0 -295 139 -295z" />
    <glyph glyph-name="Odieresis" unicode="&#xd6;" horiz-adv-x="759" 
d="M268 848q-37 0 -62.5 23.5t-25.5 59.5t25.5 59.5t62.5 23.5t62 -23.5t25 -59.5t-25 -59.5t-62 -23.5zM493 848q-37 0 -62.5 23.5t-25.5 59.5t25.5 59.5t62.5 23.5t62 -23.5t25 -59.5t-25 -59.5t-62 -23.5zM379 -12q-159 0 -250 101t-91 300t93 305t249 106
q155 0 248 -104.5t93 -301.5q0 -199 -92 -302.5t-250 -103.5zM382 103q66 0 100 76t34 216q0 290 -134 290q-139 0 -139 -287q0 -295 139 -295z" />
    <glyph glyph-name="multiply" unicode="&#xd7;" horiz-adv-x="625" 
d="M492 57l-181 181l-176 -178l-91 88l177 177l-170 175l91 88l170 -173l169 174l91 -87l-172 -174l182 -182z" />
    <glyph glyph-name="Oslash" unicode="&#xd8;" horiz-adv-x="759" 
d="M619 705q102 -108 102 -311q0 -199 -92 -302.5t-250 -103.5q-81 0 -146 27l-58 -105l-96 61l60 107q-101 104 -101 311q0 199 93 305t249 106q80 0 146 -29l58 103l96 -61zM243 398q0 -64 8 -120l207 371q-30 36 -76 36q-139 0 -139 -287zM382 103q66 0 100 76t34 216
q0 65 -7 113l-206 -369q31 -36 79 -36z" />
    <glyph glyph-name="Ugrave" unicode="&#xd9;" horiz-adv-x="782" 
d="M503 830l-265 100l72 137l243 -141zM403 -12q-301 0 -301 263v359q0 43 -5 56t-27 20l-15 5q-20 7 -31 16l5 81h341l6 -82q-9 -9 -27 -14l-19 -6q-23 -7 -28 -20.5t-5 -56.5v-344q0 -80 31 -117t98 -37q121 0 121 158v340q0 43 -5 56.5t-27 20.5l-15 5q-20 7 -31 16l5 81
h278l6 -82q-9 -9 -27 -14l-19 -6q-23 -7 -28 -20.5t-5 -56.5v-347q0 -132 -70.5 -203t-205.5 -71z" />
    <glyph glyph-name="Uacute" unicode="&#xda;" horiz-adv-x="782" 
d="M319 830l-50 96l243 141l72 -137zM403 -12q-301 0 -301 263v359q0 43 -5 56t-27 20l-15 5q-20 7 -31 16l5 81h341l6 -82q-9 -9 -27 -14l-19 -6q-23 -7 -28 -20.5t-5 -56.5v-344q0 -80 31 -117t98 -37q121 0 121 158v340q0 43 -5 56.5t-27 20.5l-15 5q-20 7 -31 16l5 81
h278l6 -82q-9 -9 -27 -14l-19 -6q-23 -7 -28 -20.5t-5 -56.5v-347q0 -132 -70.5 -203t-205.5 -71z" />
    <glyph glyph-name="Ucircumflex" unicode="&#xdb;" horiz-adv-x="782" 
d="M282 829l-66 73l131 133h136l130 -132l-66 -74l-133 100zM403 -12q-301 0 -301 263v359q0 43 -5 56t-27 20l-15 5q-20 7 -31 16l5 81h341l6 -82q-9 -9 -27 -14l-19 -6q-23 -7 -28 -20.5t-5 -56.5v-344q0 -80 31 -117t98 -37q121 0 121 158v340q0 43 -5 56.5t-27 20.5
l-15 5q-20 7 -31 16l5 81h278l6 -82q-9 -9 -27 -14l-19 -6q-23 -7 -28 -20.5t-5 -56.5v-347q0 -132 -70.5 -203t-205.5 -71z" />
    <glyph glyph-name="Udieresis" unicode="&#xdc;" horiz-adv-x="782" 
d="M303 848q-37 0 -62.5 23.5t-25.5 59.5t25.5 59.5t62.5 23.5t62 -23.5t25 -59.5t-25 -59.5t-62 -23.5zM528 848q-37 0 -62.5 23.5t-25.5 59.5t25.5 59.5t62.5 23.5t62 -23.5t25 -59.5t-25 -59.5t-62 -23.5zM403 -12q-301 0 -301 263v359q0 43 -5 56t-27 20l-15 5
q-20 7 -31 16l5 81h341l6 -82q-9 -9 -27 -14l-19 -6q-23 -7 -28 -20.5t-5 -56.5v-344q0 -80 31 -117t98 -37q121 0 121 158v340q0 43 -5 56.5t-27 20.5l-15 5q-20 7 -31 16l5 81h278l6 -82q-9 -9 -27 -14l-19 -6q-23 -7 -28 -20.5t-5 -56.5v-347q0 -132 -70.5 -203
t-205.5 -71z" />
    <glyph glyph-name="Yacute" unicode="&#xdd;" horiz-adv-x="716" 
d="M548 930l-265 -100l-50 96l243 141zM711 788l7 -83q-7 -6 -29 -13l-16 -5q-22 -6 -37 -22t-32 -52l-139 -302v-133q0 -43 5 -56t27 -20l15 -5q20 -7 31 -16l-5 -81h-341l-6 82q9 9 27 14l19 6q23 7 28 20.5t5 56.5v120l-157 319q-30 58 -57 67l-15 5q-24 9 -33 16l7 82
h330l8 -83q-7 -7 -27 -13l-13 -4q-17 -5 -18 -18t12 -40l88 -178l75 163q30 67 6 73l-15 4q-23 7 -33 15l4 81h279z" />
    <glyph glyph-name="Thorn" unicode="&#xde;" horiz-adv-x="679" 
d="M50 0l-6 82q9 9 27 14l19 6q23 7 28 20.5t5 56.5v431q0 43 -5 56t-27 20l-15 5q-20 7 -31 16l5 81h341l6 -82q-9 -9 -27 -14l-19 -6q-18 -5 -25.5 -14.5t-7.5 -27.5v-12q0 -10 11 -10h33q285 0 285 -208q0 -110 -77 -166.5t-205 -56.5h-33q-14 0 -14 -11v-40
q0 -16 6 -23.5t26 -14.5l15 -5q20 -7 31 -16l-5 -81h-341zM333 301h10q47 0 73 28t26 81q0 102 -94 102h-16q-14 0 -14 -15v-181q0 -15 15 -15z" />
    <glyph glyph-name="germandbls" unicode="&#xdf;" horiz-adv-x="733" 
d="M568 -12q-76 0 -121 38q-8 7 -10 -4l-4 -22h-92v188h106l3 -33q6 -66 57 -66q16 0 27.5 11t11.5 30q0 23 -19 47.5t-75 72.5l-33 28q-41 36 -60.5 68t-19.5 75q0 35 13.5 64t29 46t29 44.5t13.5 60.5q0 31 -16.5 50.5t-45.5 19.5q-74 0 -74 -95v-611h-257l-3 79
q10 5 31 12l15 5q19 7 25 16t6 31v309h-87v121h87v20q0 101 67.5 154t192.5 53q111 0 177.5 -47t66.5 -119q0 -32 -15.5 -60.5t-34 -45t-34 -38t-15.5 -40.5q0 -20 12.5 -35.5t52.5 -48.5l28 -23q60 -50 87.5 -95.5t27.5 -104.5q0 -68 -46.5 -111.5t-103.5 -43.5z" />
    <glyph glyph-name="agrave" unicode="&#xe0;" horiz-adv-x="638" 
d="M444 705l-66 -86l-235 140l100 114zM592 93q16 -5 22 -11l-3 -82h-224v76q-20 -38 -66.5 -63t-100.5 -25q-90 0 -139 44.5t-49 115.5q0 74 52 116.5t167 63.5l91 17q17 3 23 9t6 21v17q0 47 -15.5 67.5t-48.5 20.5q-34 0 -47.5 -18.5t-13.5 -57.5v-37h-148q-16 0 -25 12
t-9 38q0 74 64.5 121t181.5 47q128 0 186 -51t58 -152v-235q0 -43 24 -50zM371 201v62q-15 -7 -45 -15l-26 -6q-45 -11 -65 -28.5t-20 -47.5t19.5 -49t52.5 -19q40 0 62 28t22 75z" />
    <glyph glyph-name="aacute" unicode="&#xe1;" horiz-adv-x="638" 
d="M501 759l-235 -140l-66 86l201 168zM592 93q16 -5 22 -11l-3 -82h-224v76q-20 -38 -66.5 -63t-100.5 -25q-90 0 -139 44.5t-49 115.5q0 74 52 116.5t167 63.5l91 17q17 3 23 9t6 21v17q0 47 -15.5 67.5t-48.5 20.5q-34 0 -47.5 -18.5t-13.5 -57.5v-37h-148q-16 0 -25 12
t-9 38q0 74 64.5 121t181.5 47q128 0 186 -51t58 -152v-235q0 -43 24 -50zM371 201v62q-15 -7 -45 -15l-26 -6q-45 -11 -65 -28.5t-20 -47.5t19.5 -49t52.5 -19q40 0 62 28t22 75z" />
    <glyph glyph-name="acircumflex" unicode="&#xe2;" horiz-adv-x="638" 
d="M316 723l-123 -105l-75 73l143 143h109l142 -143l-73 -73zM592 93q16 -5 22 -11l-3 -82h-224v76q-20 -38 -66.5 -63t-100.5 -25q-90 0 -139 44.5t-49 115.5q0 74 52 116.5t167 63.5l91 17q17 3 23 9t6 21v17q0 47 -15.5 67.5t-48.5 20.5q-34 0 -47.5 -18.5t-13.5 -57.5
v-37h-148q-16 0 -25 12t-9 38q0 74 64.5 121t181.5 47q128 0 186 -51t58 -152v-235q0 -43 24 -50zM371 201v62q-15 -7 -45 -15l-26 -6q-45 -11 -65 -28.5t-20 -47.5t19.5 -49t52.5 -19q40 0 62 28t22 75z" />
    <glyph glyph-name="atilde" unicode="&#xe3;" horiz-adv-x="638" 
d="M247 685q-44 0 -66 -58l-82 58q16 57 53.5 90.5t87.5 33.5q36 0 85.5 -28.5t68.5 -28.5q41 0 60 59l79 -57q-14 -54 -49.5 -89.5t-84.5 -35.5q-42 0 -88 28t-64 28zM592 93q16 -5 22 -11l-3 -82h-224v76q-20 -38 -66.5 -63t-100.5 -25q-90 0 -139 44.5t-49 115.5
q0 74 52 116.5t167 63.5l91 17q17 3 23 9t6 21v17q0 47 -15.5 67.5t-48.5 20.5q-34 0 -47.5 -18.5t-13.5 -57.5v-37h-148q-16 0 -25 12t-9 38q0 74 64.5 121t181.5 47q128 0 186 -51t58 -152v-235q0 -43 24 -50zM371 201v62q-15 -7 -45 -15l-26 -6q-45 -11 -65 -28.5
t-20 -47.5t19.5 -49t52.5 -19q40 0 62 28t22 75z" />
    <glyph glyph-name="adieresis" unicode="&#xe4;" horiz-adv-x="638" 
d="M203 639q-35 0 -60.5 25.5t-25.5 60.5t25.5 60.5t60.5 25.5t60.5 -25.5t25.5 -60.5t-25.5 -60.5t-60.5 -25.5zM429 639q-35 0 -60.5 25.5t-25.5 60.5t25.5 60.5t60.5 25.5t60.5 -25.5t25.5 -60.5t-25.5 -60.5t-60.5 -25.5zM592 93q16 -5 22 -11l-3 -82h-224v76
q-20 -38 -66.5 -63t-100.5 -25q-90 0 -139 44.5t-49 115.5q0 74 52 116.5t167 63.5l91 17q17 3 23 9t6 21v17q0 47 -15.5 67.5t-48.5 20.5q-34 0 -47.5 -18.5t-13.5 -57.5v-37h-148q-16 0 -25 12t-9 38q0 74 64.5 121t181.5 47q128 0 186 -51t58 -152v-235q0 -43 24 -50z
M371 201v62q-15 -7 -45 -15l-26 -6q-45 -11 -65 -28.5t-20 -47.5t19.5 -49t52.5 -19q40 0 62 28t22 75z" />
    <glyph glyph-name="aring" unicode="&#xe5;" horiz-adv-x="638" 
d="M315 617q-55 0 -92.5 27.5t-37.5 79.5q0 50 37.5 79t94.5 29q54 0 92 -28t38 -79t-37 -79.5t-95 -28.5zM315 767q-17 0 -28 -11.5t-11 -30.5t12 -30.5t29 -11.5t28 11.5t11 30.5q0 20 -12 31t-29 11zM592 93q16 -5 22 -11l-3 -82h-224v76q-20 -38 -66.5 -63t-100.5 -25
q-90 0 -139 44.5t-49 115.5q0 74 52 116.5t167 63.5l91 17q17 3 23 9t6 21v17q0 47 -15.5 67.5t-48.5 20.5q-34 0 -47.5 -18.5t-13.5 -57.5v-37h-148q-16 0 -25 12t-9 38q0 74 64.5 121t181.5 47q128 0 186 -51t58 -152v-235q0 -43 24 -50zM371 201v62q-15 -7 -45 -15
l-26 -6q-45 -11 -65 -28.5t-20 -47.5t19.5 -49t52.5 -19q40 0 62 28t22 75z" />
    <glyph glyph-name="ae" unicode="&#xe6;" horiz-adv-x="959" 
d="M238 -12q-95 0 -150.5 45t-55.5 115q0 74 52 116.5t167 63.5l91 17q17 3 23 9t6 21v17q0 47 -15.5 67.5t-48.5 20.5q-34 0 -47.5 -18.5t-13.5 -57.5v-37h-148q-17 0 -25 11q-9 12 -9 39q0 74 64.5 121t181.5 47q109 0 167 -55q69 55 167 55q154 0 229 -121
q39 -63 39 -103q0 -22 -28 -40q-52 -33 -146 -67t-168 -50q-14 -3 -13 -15q4 -32 31 -56t87 -24q97 0 172 80l70 -74q-50 -62 -112.5 -94.5t-151.5 -32.5q-68 0 -126 27.5t-88 71.5q-63 -99 -201 -99zM557 303q17 0 66 14.5t83 30.5q22 10 22 23q0 21 -14 52q-28 61 -79 61
q-48 0 -71 -37.5t-23 -100.5q0 -15 2 -31q1 -12 14 -12zM287 98q40 0 62 26.5t22 72.5v66q-15 -7 -45 -15l-26 -6q-45 -11 -65 -28.5t-20 -47.5t19.5 -49t52.5 -19z" />
    <glyph glyph-name="ccedilla" unicode="&#xe7;" horiz-adv-x="583" 
d="M554 108q-83 -111 -217 -119l-6 -14q47 -11 74.5 -38.5t27.5 -66.5q0 -41 -35 -69t-101 -28q-80 0 -133 34l28 76q39 -26 73 -26t34 29q0 36 -73 46l28 61q-103 17 -164.5 93t-61.5 203q0 137 77 216.5t195 79.5q62 0 107 -26q12 -7 15 6l3 17h112v-235h-114l-2 22
q-11 110 -90 110q-53 0 -84.5 -44t-31.5 -135q0 -96 37.5 -143.5t97.5 -47.5q67 0 136 71z" />
    <glyph glyph-name="egrave" unicode="&#xe8;" horiz-adv-x="627" 
d="M371 619l-235 140l100 114l201 -168zM321 -12q-132 0 -212.5 81t-80.5 219q0 133 81 215t200 82q151 0 232 -121q39 -63 39 -103q0 -24 -28 -40q-50 -31 -142.5 -64t-171.5 -53q-14 -3 -13 -15q5 -33 32 -56.5t86 -23.5q97 0 172 80l70 -74q-50 -62 -112.5 -94.5
t-151.5 -32.5zM225 303q17 0 66 14.5t83 30.5q22 10 22 23q0 21 -14 52q-28 61 -79 61q-48 0 -71 -37.5t-23 -100.5q0 -15 2 -31q1 -12 14 -12z" />
    <glyph glyph-name="eacute" unicode="&#xe9;" horiz-adv-x="627" 
d="M259 619l-66 86l201 168l100 -114zM321 -12q-132 0 -212.5 81t-80.5 219q0 133 81 215t200 82q151 0 232 -121q39 -63 39 -103q0 -24 -28 -40q-50 -31 -142.5 -64t-171.5 -53q-14 -3 -13 -15q5 -33 32 -56.5t86 -23.5q97 0 172 80l70 -74q-50 -62 -112.5 -94.5
t-151.5 -32.5zM225 303q17 0 66 14.5t83 30.5q22 10 22 23q0 21 -14 52q-28 61 -79 61q-48 0 -71 -37.5t-23 -100.5q0 -15 2 -31q1 -12 14 -12z" />
    <glyph glyph-name="ecircumflex" unicode="&#xea;" horiz-adv-x="627" 
d="M186 618l-75 73l143 143h109l142 -143l-73 -73l-123 105zM321 -12q-132 0 -212.5 81t-80.5 219q0 133 81 215t200 82q151 0 232 -121q39 -63 39 -103q0 -24 -28 -40q-50 -31 -142.5 -64t-171.5 -53q-14 -3 -13 -15q5 -33 32 -56.5t86 -23.5q97 0 172 80l70 -74
q-50 -62 -112.5 -94.5t-151.5 -32.5zM225 303q17 0 66 14.5t83 30.5q22 10 22 23q0 21 -14 52q-28 61 -79 61q-48 0 -71 -37.5t-23 -100.5q0 -15 2 -31q1 -12 14 -12z" />
    <glyph glyph-name="edieresis" unicode="&#xeb;" horiz-adv-x="627" 
d="M196 639q-35 0 -60.5 25.5t-25.5 60.5t25.5 60.5t60.5 25.5t60.5 -25.5t25.5 -60.5t-25.5 -60.5t-60.5 -25.5zM422 639q-35 0 -60.5 25.5t-25.5 60.5t25.5 60.5t60.5 25.5t60.5 -25.5t25.5 -60.5t-25.5 -60.5t-60.5 -25.5zM321 -12q-132 0 -212.5 81t-80.5 219
q0 133 81 215t200 82q151 0 232 -121q39 -63 39 -103q0 -24 -28 -40q-50 -31 -142.5 -64t-171.5 -53q-14 -3 -13 -15q5 -33 32 -56.5t86 -23.5q97 0 172 80l70 -74q-50 -62 -112.5 -94.5t-151.5 -32.5zM225 303q17 0 66 14.5t83 30.5q22 10 22 23q0 21 -14 52q-28 61 -79 61
q-48 0 -71 -37.5t-23 -100.5q0 -15 2 -31q1 -12 14 -12z" />
    <glyph glyph-name="igrave" unicode="&#xec;" horiz-adv-x="363" 
d="M212 611l-192 153l108 109l168 -192zM25 0l-3 79q10 5 31 12l15 5q19 7 25 16t6 31v287q0 24 -6.5 32.5t-25.5 14.5l-15 5q-24 8 -29 12l3 79h256v-430q0 -21 6.5 -31t24.5 -16l15 -5q21 -7 31 -12l-3 -79h-331z" />
    <glyph glyph-name="iacute" unicode="&#xed;" horiz-adv-x="363" 
d="M158 611l-84 70l168 192l108 -109zM25 0l-3 79q10 5 31 12l15 5q19 7 25 16t6 31v287q0 24 -6.5 32.5t-25.5 14.5l-15 5q-24 8 -29 12l3 79h256v-430q0 -21 6.5 -31t24.5 -16l15 -5q21 -7 31 -12l-3 -79h-331z" />
    <glyph glyph-name="icircumflex" unicode="&#xee;" horiz-adv-x="363" 
d="M85 619l-83 61l120 153h119l121 -154l-83 -60l-97 106zM25 0l-3 79q10 5 31 12l15 5q19 7 25 16t6 31v287q0 24 -6.5 32.5t-25.5 14.5l-15 5q-24 8 -29 12l3 79h256v-430q0 -21 6.5 -31t24.5 -16l15 -5q21 -7 31 -12l-3 -79h-331z" />
    <glyph glyph-name="idieresis" unicode="&#xef;" horiz-adv-x="363" 
d="M81 639q-34 0 -58 23.5t-24 62.5q0 37 24 61.5t58 24.5t57.5 -24.5t23.5 -61.5q0 -39 -23.5 -62.5t-57.5 -23.5zM284 639q-34 0 -58 23.5t-24 62.5q0 37 24 61.5t58 24.5q33 0 57 -24.5t24 -61.5q0 -39 -23.5 -62.5t-57.5 -23.5zM25 0l-3 79q10 5 31 12l15 5q19 7 25 16
t6 31v287q0 24 -6.5 32.5t-25.5 14.5l-15 5q-24 8 -29 12l3 79h256v-430q0 -21 6.5 -31t24.5 -16l15 -5q21 -7 31 -12l-3 -79h-331z" />
    <glyph glyph-name="eth" unicode="&#xf0;" horiz-adv-x="625" 
d="M443 698q154 -170 154 -390q0 -143 -76 -231.5t-215 -88.5q-123 0 -200.5 78.5t-77.5 207.5t71.5 209.5t179.5 80.5q62 0 108 -33q-21 67 -56 111l-91 -48l-46 87l67 36q-21 20 -62 53l93 59q46 -29 80 -58l95 49l48 -88zM314 91q46 0 71 52.5t25 130.5q0 184 -96 184
q-36 0 -59.5 -28.5t-31.5 -67.5t-8 -88q0 -33 4.5 -62.5t15 -58t31 -45.5t48.5 -17z" />
    <glyph glyph-name="ntilde" unicode="&#xf1;" horiz-adv-x="699" 
d="M287 685q-44 0 -66 -58l-82 58q16 57 53.5 90.5t87.5 33.5q36 0 85.5 -28.5t68.5 -28.5q41 0 60 59l79 -57q-14 -54 -49.5 -89.5t-84.5 -35.5q-42 0 -88 28t-64 28zM648 91q11 -4 27 -12l-3 -79h-240v349q0 54 -15 80.5t-52 26.5q-87 0 -87 -143v-170q0 -21 6.5 -31
t24.5 -16l15 -5q21 -7 31 -12l-3 -79h-331l-3 79q10 5 31 12l15 5q19 7 25 16t6 31v287q0 24 -6.5 32.5t-25.5 14.5l-15 5q-24 8 -29 12l3 79h248v-55q73 67 165 67q82 0 131 -51t49 -141v-250q0 -25 4.5 -34t17.5 -14z" />
    <glyph glyph-name="ograve" unicode="&#xf2;" horiz-adv-x="640" 
d="M384 619l-235 140l100 114l201 -168zM320 -12q-132 0 -212 81.5t-80 217.5t81.5 217t213.5 81t210.5 -80.5t78.5 -217.5q0 -135 -81.5 -217t-210.5 -82zM322 96q103 0 103 191q0 190 -102 190q-108 0 -108 -190q0 -191 107 -191z" />
    <glyph glyph-name="oacute" unicode="&#xf3;" horiz-adv-x="640" 
d="M272 619l-66 86l201 168l100 -114zM320 -12q-132 0 -212 81.5t-80 217.5t81.5 217t213.5 81t210.5 -80.5t78.5 -217.5q0 -135 -81.5 -217t-210.5 -82zM322 96q103 0 103 191q0 190 -102 190q-108 0 -108 -190q0 -191 107 -191z" />
    <glyph glyph-name="ocircumflex" unicode="&#xf4;" horiz-adv-x="640" 
d="M199 618l-75 73l143 143h109l142 -143l-73 -73l-123 105zM320 -12q-132 0 -212 81.5t-80 217.5t81.5 217t213.5 81t210.5 -80.5t78.5 -217.5q0 -135 -81.5 -217t-210.5 -82zM322 96q103 0 103 191q0 190 -102 190q-108 0 -108 -190q0 -191 107 -191z" />
    <glyph glyph-name="otilde" unicode="&#xf5;" horiz-adv-x="640" 
d="M187 627l-82 58q16 57 53.5 90.5t87.5 33.5q36 0 85.5 -28.5t68.5 -28.5q41 0 60 59l79 -57q-14 -54 -49.5 -89.5t-84.5 -35.5q-42 0 -88 28t-64 28q-44 0 -66 -58zM320 -12q-132 0 -212 81.5t-80 217.5t81.5 217t213.5 81t210.5 -80.5t78.5 -217.5q0 -135 -81.5 -217
t-210.5 -82zM322 96q103 0 103 191q0 190 -102 190q-108 0 -108 -190q0 -191 107 -191z" />
    <glyph glyph-name="odieresis" unicode="&#xf6;" horiz-adv-x="640" 
d="M209 639q-35 0 -60.5 25.5t-25.5 60.5t25.5 60.5t60.5 25.5t60.5 -25.5t25.5 -60.5t-25.5 -60.5t-60.5 -25.5zM435 639q-35 0 -60.5 25.5t-25.5 60.5t25.5 60.5t60.5 25.5t60.5 -25.5t25.5 -60.5t-25.5 -60.5t-60.5 -25.5zM320 -12q-132 0 -212 81.5t-80 217.5t81.5 217
t213.5 81t210.5 -80.5t78.5 -217.5q0 -135 -81.5 -217t-210.5 -82zM322 96q103 0 103 191q0 190 -102 190q-108 0 -108 -190q0 -191 107 -191z" />
    <glyph glyph-name="divide" unicode="&#xf7;" horiz-adv-x="625" 
d="M313 439q-38 0 -64.5 26.5t-26.5 64.5q0 37 26.5 63t64.5 26q37 0 63.5 -26t26.5 -63q0 -38 -26.5 -64.5t-63.5 -26.5zM31 257v127h563v-127h-563zM313 22q-38 0 -64.5 26.5t-26.5 64.5q0 37 26.5 63t64.5 26q37 0 63.5 -26t26.5 -63q0 -38 -26.5 -64.5t-63.5 -26.5z" />
    <glyph glyph-name="oslash" unicode="&#xf8;" horiz-adv-x="640" 
d="M516 521q96 -82 96 -234q0 -135 -81.5 -217t-210.5 -82q-54 0 -96 13l-50 -89l-93 50l49 87q-102 82 -102 238q0 136 81.5 217t213.5 81q52 0 100 -14l42 75l93 -50zM215 287q0 -39 5 -77l144 257q-16 10 -41 10q-108 0 -108 -190zM322 96q103 0 103 191q0 40 -4 65
l-139 -248q18 -8 40 -8z" />
    <glyph glyph-name="ugrave" unicode="&#xf9;" horiz-adv-x="699" 
d="M458 705l-66 -86l-235 140l100 114zM645 91q19 -7 28 -12l-3 -79h-224v61q-59 -73 -169 -73q-91 0 -139.5 51.5t-48.5 147.5v243q0 24 -5 33.5t-19 14.5l-13 4q-22 7 -28 12l3 79h245v-374q0 -92 75 -92q36 0 58 29.5t22 82.5v211q0 24 -5 33.5t-19 14.5l-13 4
q-22 7 -28 12l3 79h245v-430q0 -22 4.5 -32t17.5 -15z" />
    <glyph glyph-name="uacute" unicode="&#xfa;" horiz-adv-x="699" 
d="M515 759l-235 -140l-66 86l201 168zM645 91q19 -7 28 -12l-3 -79h-224v61q-59 -73 -169 -73q-91 0 -139.5 51.5t-48.5 147.5v243q0 24 -5 33.5t-19 14.5l-13 4q-22 7 -28 12l3 79h245v-374q0 -92 75 -92q36 0 58 29.5t22 82.5v211q0 24 -5 33.5t-19 14.5l-13 4
q-22 7 -28 12l3 79h245v-430q0 -22 4.5 -32t17.5 -15z" />
    <glyph glyph-name="ucircumflex" unicode="&#xfb;" horiz-adv-x="699" 
d="M330 723l-123 -105l-75 73l143 143h109l142 -143l-73 -73zM645 91q19 -7 28 -12l-3 -79h-224v61q-59 -73 -169 -73q-91 0 -139.5 51.5t-48.5 147.5v243q0 24 -5 33.5t-19 14.5l-13 4q-22 7 -28 12l3 79h245v-374q0 -92 75 -92q36 0 58 29.5t22 82.5v211q0 24 -5 33.5
t-19 14.5l-13 4q-22 7 -28 12l3 79h245v-430q0 -22 4.5 -32t17.5 -15z" />
    <glyph glyph-name="udieresis" unicode="&#xfc;" horiz-adv-x="699" 
d="M217 639q-35 0 -60.5 25.5t-25.5 60.5t25.5 60.5t60.5 25.5t60.5 -25.5t25.5 -60.5t-25.5 -60.5t-60.5 -25.5zM443 639q-35 0 -60.5 25.5t-25.5 60.5t25.5 60.5t60.5 25.5t60.5 -25.5t25.5 -60.5t-25.5 -60.5t-60.5 -25.5zM645 91q19 -7 28 -12l-3 -79h-224v61
q-59 -73 -169 -73q-91 0 -139.5 51.5t-48.5 147.5v243q0 24 -5 33.5t-19 14.5l-13 4q-22 7 -28 12l3 79h245v-374q0 -92 75 -92q36 0 58 29.5t22 82.5v211q0 24 -5 33.5t-19 14.5l-13 4q-22 7 -28 12l3 79h245v-430q0 -22 4.5 -32t17.5 -15z" />
    <glyph glyph-name="yacute" unicode="&#xfd;" horiz-adv-x="647" 
d="M539 759l-235 -140l-66 86l201 168zM640 573l3 -79q-10 -5 -28 -11l-11 -4q-28 -10 -41 -39l-160 -428q-50 -133 -101 -184.5t-124 -51.5q-75 0 -117.5 40t-42.5 99v4q0 23 10 38t28 15h118l4 -30q6 -46 34 -46q15 0 28.5 18.5t33.5 68.5l-186 461q-11 24 -37 33l-15 5
q-23 8 -31 13l3 78h336l4 -78q-12 -6 -27 -11l-19 -6q-30 -9 -17 -49l73 -225l80 233q12 36 -8 43l-12 4q-21 6 -28 10l3 79h247z" />
    <glyph glyph-name="thorn" unicode="&#xfe;" horiz-adv-x="673" 
d="M420 585q103 0 164 -81.5t61 -216.5q0 -138 -62.5 -218.5t-174.5 -80.5q-79 0 -138 51v-108q0 -35 38 -47l15 -5q22 -7 33 -12l-3 -79h-340l-3 79q10 5 31 12l15 5q19 7 25 16t6 31v714q0 24 -6.5 32.5t-25.5 14.5l-15 5q-22 7 -29 12l3 79h256v-261q61 58 150 58z
M368 93q48 0 69 48.5t21 145.5q0 95 -20 142.5t-67 47.5q-101 0 -101 -190q0 -194 98 -194z" />
    <glyph glyph-name="ydieresis" unicode="&#xff;" horiz-adv-x="647" 
d="M241 639q-35 0 -60.5 25.5t-25.5 60.5t25.5 60.5t60.5 25.5t60.5 -25.5t25.5 -60.5t-25.5 -60.5t-60.5 -25.5zM467 639q-35 0 -60.5 25.5t-25.5 60.5t25.5 60.5t60.5 25.5t60.5 -25.5t25.5 -60.5t-25.5 -60.5t-60.5 -25.5zM640 573l3 -79q-10 -5 -28 -11l-11 -4
q-28 -10 -41 -39l-160 -428q-50 -133 -101 -184.5t-124 -51.5q-75 0 -117.5 40t-42.5 99v4q0 23 10 38t28 15h118l4 -30q6 -46 34 -46q15 0 28.5 18.5t33.5 68.5l-186 461q-11 24 -37 33l-15 5q-23 8 -31 13l3 78h336l4 -78q-12 -6 -27 -11l-19 -6q-30 -9 -17 -49l73 -225
l80 233q12 36 -8 43l-12 4q-21 6 -28 10l3 79h247z" />
    <glyph glyph-name="Amacron" unicode="&#x100;" horiz-adv-x="792" 
d="M201 870v122h390v-122h-390zM14 0l-5 83q11 6 31 13l14 5q21 8 34 21.5t23 44.5l193 621h178l200 -610q13 -38 25 -54t29 -22l17 -6q23 -8 32 -15l-6 -81h-351l-7 83q13 5 35 11l13 4q30 10 24 49l-21 73q-3 9 -14 9h-185q-12 0 -15 -11l-10 -35q-12 -36 -12 -56.5
t18 -26.5l11 -4q21 -8 33 -15l-7 -81h-277zM306 341h120q13 0 8 16l-61 216h-14l-62 -219q-3 -13 9 -13z" />
    <glyph glyph-name="amacron" unicode="&#x101;" horiz-adv-x="638" 
d="M511 762v-117h-390v117h390zM592 93q16 -5 22 -11l-3 -82h-224v76q-20 -38 -66.5 -63t-100.5 -25q-90 0 -139 44.5t-49 115.5q0 74 52 116.5t167 63.5l91 17q17 3 23 9t6 21v17q0 47 -15.5 67.5t-48.5 20.5q-34 0 -47.5 -18.5t-13.5 -57.5v-37h-148q-16 0 -25 12t-9 38
q0 74 64.5 121t181.5 47q128 0 186 -51t58 -152v-235q0 -43 24 -50zM371 201v62q-15 -7 -45 -15l-26 -6q-45 -11 -65 -28.5t-20 -47.5t19.5 -49t52.5 -19q40 0 62 28t22 75z" />
    <glyph glyph-name="Abreve" unicode="&#x102;" horiz-adv-x="792" 
d="M396 850q-87 0 -136 47.5t-54 120.5h125q13 -56 66 -56q51 0 64 56h125q-5 -72 -54.5 -120t-135.5 -48zM14 0l-5 83q11 6 31 13l14 5q21 8 34 21.5t23 44.5l193 621h178l200 -610q13 -38 25 -54t29 -22l17 -6q23 -8 32 -15l-6 -81h-351l-7 83q13 5 35 11l13 4
q30 10 24 49l-21 73q-3 9 -14 9h-185q-12 0 -15 -11l-10 -35q-12 -36 -12 -56.5t18 -26.5l11 -4q21 -8 33 -15l-7 -81h-277zM306 341h120q13 0 8 16l-61 216h-14l-62 -219q-3 -13 9 -13z" />
    <glyph glyph-name="abreve" unicode="&#x103;" horiz-adv-x="638" 
d="M315 622q-75 0 -129 46.5t-57 130.5h123q2 -32 19 -49.5t45 -17.5t45.5 17.5t19.5 49.5h121q-3 -84 -57.5 -130.5t-129.5 -46.5zM592 93q16 -5 22 -11l-3 -82h-224v76q-20 -38 -66.5 -63t-100.5 -25q-90 0 -139 44.5t-49 115.5q0 74 52 116.5t167 63.5l91 17q17 3 23 9
t6 21v17q0 47 -15.5 67.5t-48.5 20.5q-34 0 -47.5 -18.5t-13.5 -57.5v-37h-148q-16 0 -25 12t-9 38q0 74 64.5 121t181.5 47q128 0 186 -51t58 -152v-235q0 -43 24 -50zM371 201v62q-15 -7 -45 -15l-26 -6q-45 -11 -65 -28.5t-20 -47.5t19.5 -49t52.5 -19q40 0 62 28t22 75z
" />
    <glyph glyph-name="Aogonek" unicode="&#x104;" horiz-adv-x="792" 
d="M681 0q-55 -38 -55 -88q0 -15 8.5 -24t22.5 -9q30 0 63 33l49 -68q-58 -61 -148 -61q-64 0 -100 25.5t-36 74.5q0 32 23 65t58 52h-138l-7 83q13 5 35 11l13 4q30 10 24 49l-21 73q-3 9 -14 9h-185q-12 0 -15 -11l-10 -35q-12 -36 -12 -56.5t18 -26.5l11 -4q21 -8 33 -15
l-7 -81h-277l-5 83q11 6 31 13l14 5q21 8 34 21.5t23 44.5l193 621h178l200 -610q13 -38 25 -54t29 -22l17 -6q23 -8 32 -15l-6 -81h-98zM426 341q13 0 8 16l-61 216h-14l-62 -219q-3 -13 9 -13h120z" />
    <glyph glyph-name="aogonek" unicode="&#x105;" horiz-adv-x="638" 
d="M585 -88l49 -68q-58 -61 -146 -61q-63 0 -97.5 28.5t-34.5 78.5q0 32 24.5 63t68.5 48q-53 16 -67 66q-22 -34 -67 -56.5t-95 -22.5q-90 0 -139 44.5t-49 115.5q0 74 52 116.5t167 63.5l91 17q17 3 23 9t6 21v17q0 47 -15.5 67.5t-48.5 20.5q-34 0 -47.5 -18.5
t-13.5 -57.5v-37h-148q-15 0 -24 10q-10 13 -10 40q0 74 64.5 121t181.5 47q128 0 186 -51t58 -152v-236q0 -27 4 -36.5t21 -14.5l14 -4q14 -4 21 -10l-3 -82h-10q-40 0 -74 -27.5t-34 -56.5q0 -36 29 -36q30 0 63 33zM371 201v62q-15 -7 -45 -15l-26 -6q-45 -11 -65 -28.5
t-20 -47.5t19.5 -49t52.5 -19q40 0 62 28t22 75z" />
    <glyph glyph-name="Cacute" unicode="&#x106;" horiz-adv-x="687" 
d="M276 830l-50 96l243 141l72 -137zM373 -12q-165 0 -250 104.5t-85 299.5q0 191 92 299.5t240 108.5q78 0 128 -30q12 -8 15 3l4 21h123v-258h-128l-6 35q-19 114 -112 114q-69 0 -110 -73t-41 -214q0 -292 154 -292q48 0 88.5 40.5t64.5 113.5l113 -43
q-30 -106 -104 -167.5t-186 -61.5z" />
    <glyph glyph-name="cacute" unicode="&#x107;" horiz-adv-x="583" 
d="M257 619l-66 86l201 168l100 -114zM314 -12q-127 0 -206.5 78t-79.5 223q0 137 77 216.5t195 79.5q62 0 107 -26q12 -7 15 6l3 17h112v-235h-114l-2 22q-11 110 -90 110q-53 0 -84.5 -44t-31.5 -135q0 -96 37.5 -143.5t97.5 -47.5q67 0 136 71l68 -72q-90 -120 -240 -120
z" />
    <glyph glyph-name="Ccircumflex" unicode="&#x108;" horiz-adv-x="687" 
d="M239 829l-66 73l131 133h136l130 -132l-66 -74l-133 100zM373 -12q-165 0 -250 104.5t-85 299.5q0 191 92 299.5t240 108.5q78 0 128 -30q12 -8 15 3l4 21h123v-258h-128l-6 35q-19 114 -112 114q-69 0 -110 -73t-41 -214q0 -292 154 -292q48 0 88.5 40.5t64.5 113.5
l113 -43q-30 -106 -104 -167.5t-186 -61.5z" />
    <glyph glyph-name="ccircumflex" unicode="&#x109;" horiz-adv-x="583" 
d="M184 618l-75 73l143 143h109l142 -143l-73 -73l-123 105zM314 -12q-127 0 -206.5 78t-79.5 223q0 137 77 216.5t195 79.5q62 0 107 -26q12 -7 15 6l3 17h112v-235h-114l-2 22q-11 110 -90 110q-53 0 -84.5 -44t-31.5 -135q0 -96 37.5 -143.5t97.5 -47.5q67 0 136 71
l68 -72q-90 -120 -240 -120z" />
    <glyph glyph-name="Cdotaccent" unicode="&#x10a;" horiz-adv-x="687" 
d="M374 851q-45 0 -72.5 27t-27.5 69t27.5 68.5t72.5 26.5q42 0 70 -26.5t28 -68.5q0 -41 -28 -68.5t-70 -27.5zM373 -12q-165 0 -250 104.5t-85 299.5q0 191 92 299.5t240 108.5q78 0 128 -30q12 -8 15 3l4 21h123v-258h-128l-6 35q-19 114 -112 114q-69 0 -110 -73
t-41 -214q0 -292 154 -292q48 0 88.5 40.5t64.5 113.5l113 -43q-30 -106 -104 -167.5t-186 -61.5z" />
    <glyph glyph-name="cdotaccent" unicode="&#x10b;" horiz-adv-x="583" 
d="M307 634q-41 0 -70 29.5t-29 70.5q0 42 29 70.5t70 28.5q40 0 69.5 -29t29.5 -70t-29.5 -70.5t-69.5 -29.5zM314 -12q-127 0 -206.5 78t-79.5 223q0 137 77 216.5t195 79.5q62 0 107 -26q12 -7 15 6l3 17h112v-235h-114l-2 22q-11 110 -90 110q-53 0 -84.5 -44
t-31.5 -135q0 -96 37.5 -143.5t97.5 -47.5q67 0 136 71l68 -72q-90 -120 -240 -120z" />
    <glyph glyph-name="Ccaron" unicode="&#x10c;" horiz-adv-x="687" 
d="M303 846l-130 127l66 74l133 -95l132 95l66 -73l-131 -128h-136zM373 -12q-165 0 -250 104.5t-85 299.5q0 191 92 299.5t240 108.5q78 0 128 -30q12 -8 15 3l4 21h123v-258h-128l-6 35q-19 114 -112 114q-69 0 -110 -73t-41 -214q0 -292 154 -292q48 0 88.5 40.5
t64.5 113.5l113 -43q-30 -106 -104 -167.5t-186 -61.5z" />
    <glyph glyph-name="ccaron" unicode="&#x10d;" horiz-adv-x="583" 
d="M252 636l-143 139l75 73l123 -101l123 101l75 -73l-144 -139h-109zM314 -12q-127 0 -206.5 78t-79.5 223q0 137 77 216.5t195 79.5q62 0 107 -26q12 -7 15 6l3 17h112v-235h-114l-2 22q-11 110 -90 110q-53 0 -84.5 -44t-31.5 -135q0 -96 37.5 -143.5t97.5 -47.5
q67 0 136 71l68 -72q-90 -120 -240 -120z" />
    <glyph glyph-name="Dcaron" unicode="&#x10e;" horiz-adv-x="763" 
d="M303 846l-130 127l66 74l133 -95l132 95l66 -73l-131 -128h-136zM44 0l-6 82q9 9 27 14l19 6q23 7 28 20.5t5 56.5v431q0 43 -5 56t-27 20l-15 5q-20 7 -31 16l5 81h294q178 0 282.5 -101t104.5 -285q0 -190 -103.5 -296t-278.5 -106h-299zM326 116h17q85 0 131 72
t46 209q0 145 -41.5 210t-133.5 65h-19q-14 0 -14 -14v-528q0 -14 14 -14z" />
    <glyph glyph-name="dcaron" unicode="&#x10f;" horiz-adv-x="674" 
d="M711 800q39 0 63.5 -26t24.5 -71q0 -44 -28 -94.5t-78 -89.5l-72 54q53 45 53 78q0 12 -19 35.5t-19 49.5q0 28 22 46t53 18zM616 96l15 -5q21 -7 31 -12l-3 -79h-227v78q-53 -90 -160 -90q-109 0 -176.5 81.5t-67.5 217.5q0 135 67.5 216.5t172.5 81.5q82 0 134 -57v117
q0 24 -6.5 32.5t-25.5 14.5l-15 5q-22 7 -29 12l3 79h256v-645q0 -21 6.5 -31t24.5 -16zM311 96q91 0 91 191q0 190 -87 190q-100 0 -100 -189q0 -192 96 -192z" />
    <glyph glyph-name="Dcroat" unicode="&#x110;" horiz-adv-x="763" 
d="M338 788q178 0 282.5 -101t104.5 -285q0 -190 -103.5 -296t-278.5 -106h-299l-6 82q9 9 27 14l19 6q23 7 28 20.5t5 56.5v172h-88v122h88v137q0 43 -5 56t-27 20l-15 5q-20 7 -31 16l5 81h294zM343 116q85 0 131 72t46 209q0 145 -41.5 210t-133.5 65h-19q-14 0 -14 -14
v-185h87v-122h-87v-221q0 -14 14 -14h17z" />
    <glyph glyph-name="dcroat" unicode="&#x111;" horiz-adv-x="674" 
d="M631 91q21 -7 31 -12l-3 -79h-227v78q-53 -90 -160 -90q-109 0 -176.5 81.5t-67.5 217.5q0 135 67.5 216.5t172.5 81.5q82 0 134 -57v73h-120v70h117q-6 14 -29 21l-15 5q-22 7 -29 12l3 79h256v-117h55v-70h-55v-458q0 -21 6.5 -31t24.5 -16zM311 96q91 0 91 191
q0 190 -87 190q-100 0 -100 -189q0 -192 96 -192z" />
    <glyph glyph-name="Emacron" unicode="&#x112;" horiz-adv-x="657" 
d="M155 870v122h390v-122h-390zM44 0l-6 82q9 9 27 14l19 6q23 7 28 20.5t5 56.5v431q0 43 -5 56t-27 20l-15 5q-20 7 -31 16l5 81h557v-225h-87q-10 22 -21 51l-14 39q-4 13 -10 16t-23 3h-120q-14 0 -14 -14v-187q0 -14 14 -14h51q18 0 28 27l6 15l5 12.5t5 12t4 8.5
l65 -2v-261l-65 -2q-5 6 -15 32l-5 12q-13 30 -28 30h-51q-14 0 -14 -14v-197q0 -14 14 -14h133q17 0 23 3t10 16l16 45q12 35 19 51h87v-231h-570z" />
    <glyph glyph-name="emacron" unicode="&#x113;" horiz-adv-x="627" 
d="M114 645v117h390v-117h-390zM321 -12q-132 0 -212.5 81t-80.5 219q0 133 81 215t200 82q151 0 232 -121q39 -63 39 -103q0 -24 -28 -40q-50 -31 -142.5 -64t-171.5 -53q-14 -3 -13 -15q5 -33 32 -56.5t86 -23.5q97 0 172 80l70 -74q-50 -62 -112.5 -94.5t-151.5 -32.5z
M225 303q17 0 66 14.5t83 30.5q22 10 22 23q0 21 -14 52q-28 61 -79 61q-48 0 -71 -37.5t-23 -100.5q0 -15 2 -31q1 -12 14 -12z" />
    <glyph glyph-name="Ebreve" unicode="&#x114;" horiz-adv-x="657" 
d="M350 850q-87 0 -136 47.5t-54 120.5h125q13 -56 66 -56q51 0 64 56h125q-5 -72 -54.5 -120t-135.5 -48zM44 0l-6 82q9 9 27 14l19 6q23 7 28 20.5t5 56.5v431q0 43 -5 56t-27 20l-15 5q-20 7 -31 16l5 81h557v-225h-87q-10 22 -21 51l-14 39q-4 13 -10 16t-23 3h-120
q-14 0 -14 -14v-187q0 -14 14 -14h51q18 0 28 27l6 15l5 12.5t5 12t4 8.5l65 -2v-261l-65 -2q-5 6 -15 32l-5 12q-13 30 -28 30h-51q-14 0 -14 -14v-197q0 -14 14 -14h133q17 0 23 3t10 16l16 45q12 35 19 51h87v-231h-570z" />
    <glyph glyph-name="ebreve" unicode="&#x115;" horiz-adv-x="627" 
d="M308 622q-75 0 -129 46.5t-57 130.5h123q2 -32 19 -49.5t45 -17.5t45.5 17.5t19.5 49.5h121q-3 -84 -57.5 -130.5t-129.5 -46.5zM321 -12q-132 0 -212.5 81t-80.5 219q0 133 81 215t200 82q151 0 232 -121q39 -63 39 -103q0 -24 -28 -40q-50 -31 -142.5 -64t-171.5 -53
q-14 -3 -13 -15q5 -33 32 -56.5t86 -23.5q97 0 172 80l70 -74q-50 -62 -112.5 -94.5t-151.5 -32.5zM225 303q17 0 66 14.5t83 30.5q22 10 22 23q0 21 -14 52q-28 61 -79 61q-48 0 -71 -37.5t-23 -100.5q0 -15 2 -31q1 -12 14 -12z" />
    <glyph glyph-name="Edotaccent" unicode="&#x116;" horiz-adv-x="657" 
d="M352 851q-45 0 -72.5 27t-27.5 69t27.5 68.5t72.5 26.5q42 0 70 -26.5t28 -68.5q0 -41 -28 -68.5t-70 -27.5zM44 0l-6 82q9 9 27 14l19 6q23 7 28 20.5t5 56.5v431q0 43 -5 56t-27 20l-15 5q-20 7 -31 16l5 81h557v-225h-87q-10 22 -21 51l-14 39q-4 13 -10 16t-23 3
h-120q-14 0 -14 -14v-187q0 -14 14 -14h51q18 0 28 27l6 15l5 12.5t5 12t4 8.5l65 -2v-261l-65 -2q-5 6 -15 32l-5 12q-13 30 -28 30h-51q-14 0 -14 -14v-197q0 -14 14 -14h133q17 0 23 3t10 16l16 45q12 35 19 51h87v-231h-570z" />
    <glyph glyph-name="edotaccent" unicode="&#x117;" horiz-adv-x="627" 
d="M309 634q-41 0 -70 29.5t-29 70.5q0 42 29 70.5t70 28.5q40 0 69.5 -29t29.5 -70t-29.5 -70.5t-69.5 -29.5zM321 -12q-132 0 -212.5 81t-80.5 219q0 133 81 215t200 82q151 0 232 -121q39 -63 39 -103q0 -24 -28 -40q-50 -31 -142.5 -64t-171.5 -53q-14 -3 -13 -15
q5 -33 32 -56.5t86 -23.5q97 0 172 80l70 -74q-50 -62 -112.5 -94.5t-151.5 -32.5zM225 303q17 0 66 14.5t83 30.5q22 10 22 23q0 21 -14 52q-28 61 -79 61q-48 0 -71 -37.5t-23 -100.5q0 -15 2 -31q1 -12 14 -12z" />
    <glyph glyph-name="Eogonek" unicode="&#x118;" horiz-adv-x="657" 
d="M599 -88l49 -68q-58 -61 -148 -61q-64 0 -100 25.5t-36 74.5q0 32 23 65t58 52h-401l-6 82q9 9 27 14l19 6q23 7 28 20.5t5 56.5v431q0 43 -5 56t-27 20l-15 5q-20 7 -31 16l5 81h557v-225h-87q-10 22 -21 51l-14 39q-4 13 -10 16t-23 3h-120q-14 0 -14 -14v-187
q0 -14 14 -14h51q18 0 28 27l6 15l5 12.5t5 12t4 8.5l65 -2v-261l-65 -2q-5 6 -15 32l-5 12q-13 30 -28 30h-51q-14 0 -14 -14v-197q0 -14 14 -14h133q17 0 23 3t10 16l16 45q12 35 19 51h87v-231h-54q-55 -38 -55 -88q0 -15 8.5 -24t22.5 -9q30 0 63 33z" />
    <glyph glyph-name="eogonek" unicode="&#x119;" horiz-adv-x="627" 
d="M436 -217q-131 0 -131 98q0 62 64 109q-32 -2 -48 -2q-132 0 -212.5 81t-80.5 219q0 133 81 215t200 82q151 0 232 -121q39 -63 39 -103q0 -24 -28 -40q-50 -31 -142.5 -64t-171.5 -53q-14 -3 -13 -15q5 -33 32 -56.5t86 -23.5q97 0 172 80l70 -74q-45 -56 -79 -81
q-69 -50 -69 -113q0 -42 33 -42q30 0 63 33l49 -68q-58 -61 -146 -61zM225 303q17 0 66 14.5t83 30.5q22 10 22 23q0 21 -14 52q-28 61 -79 61q-48 0 -71 -37.5t-23 -100.5q0 -15 2 -31q1 -12 14 -12z" />
    <glyph glyph-name="Ecaron" unicode="&#x11a;" horiz-adv-x="657" 
d="M281 846l-130 127l66 74l133 -95l132 95l66 -73l-131 -128h-136zM44 0l-6 82q9 9 27 14l19 6q23 7 28 20.5t5 56.5v431q0 43 -5 56t-27 20l-15 5q-20 7 -31 16l5 81h557v-225h-87q-10 22 -21 51l-14 39q-4 13 -10 16t-23 3h-120q-14 0 -14 -14v-187q0 -14 14 -14h51
q18 0 28 27l6 15l5 12.5t5 12t4 8.5l65 -2v-261l-65 -2q-5 6 -15 32l-5 12q-13 30 -28 30h-51q-14 0 -14 -14v-197q0 -14 14 -14h133q17 0 23 3t10 16l16 45q12 35 19 51h87v-231h-570z" />
    <glyph glyph-name="ecaron" unicode="&#x11b;" horiz-adv-x="627" 
d="M254 636l-143 139l75 73l123 -101l123 101l75 -73l-144 -139h-109zM321 -12q-132 0 -212.5 81t-80.5 219q0 133 81 215t200 82q151 0 232 -121q39 -63 39 -103q0 -24 -28 -40q-50 -31 -142.5 -64t-171.5 -53q-14 -3 -13 -15q5 -33 32 -56.5t86 -23.5q97 0 172 80l70 -74
q-50 -62 -112.5 -94.5t-151.5 -32.5zM225 303q17 0 66 14.5t83 30.5q22 10 22 23q0 21 -14 52q-28 61 -79 61q-48 0 -71 -37.5t-23 -100.5q0 -15 2 -31q1 -12 14 -12z" />
    <glyph glyph-name="Gcircumflex" unicode="&#x11c;" horiz-adv-x="750" 
d="M244 829l-66 73l131 133h136l130 -132l-66 -74l-133 100zM366 -12q-151 0 -239.5 105t-88.5 296q0 193 92.5 302t243.5 109q90 0 146 -35q10 -7 13 6l4 23h117v-258h-124l-5 30q-10 60 -43 90t-82 30q-69 0 -113 -74t-44 -214q0 -293 149 -293q49 0 78 34.5t29 90.5v40
q0 22 -8 32t-28 12l-27 3q-22 3 -44 9l5 100h287v-426h-124l-14 40q-6 17 -19 4q-56 -56 -161 -56z" />
    <glyph glyph-name="gcircumflex" unicode="&#x11d;" horiz-adv-x="668" 
d="M314 723l-123 -105l-75 73l143 143h109l142 -143l-73 -73zM638 573v-108h-91q36 -56 36 -125q0 -65 -32 -117.5t-89 -77.5q78 -16 120.5 -61.5t42.5 -107.5q0 -88 -83 -144t-221 -56q-149 0 -221.5 49.5t-72.5 135.5v3q0 36 32 36h136l3 -23q14 -102 130 -102
q50 0 80 25.5t30 71.5q0 47 -30 75.5t-91 31.5l-20 1q-131 7 -202 73t-71 187q0 111 72.5 178t206.5 67q53 0 90 -12h245zM309 184q87 0 87 149q0 76 -21.5 113t-69.5 37q-49 0 -71.5 -36t-22.5 -114q0 -149 98 -149z" />
    <glyph glyph-name="Gbreve" unicode="&#x11e;" horiz-adv-x="750" 
d="M377 850q-87 0 -136 47.5t-54 120.5h125q13 -56 66 -56q51 0 64 56h125q-5 -72 -54.5 -120t-135.5 -48zM366 -12q-151 0 -239.5 105t-88.5 296q0 193 92.5 302t243.5 109q90 0 146 -35q10 -7 13 6l4 23h117v-258h-124l-5 30q-10 60 -43 90t-82 30q-69 0 -113 -74
t-44 -214q0 -293 149 -293q49 0 78 34.5t29 90.5v40q0 22 -8 32t-28 12l-27 3q-22 3 -44 9l5 100h287v-426h-124l-14 40q-6 17 -19 4q-56 -56 -161 -56z" />
    <glyph glyph-name="gbreve" unicode="&#x11f;" horiz-adv-x="668" 
d="M313 622q-75 0 -129 46.5t-57 130.5h123q2 -32 19 -49.5t45 -17.5t45.5 17.5t19.5 49.5h121q-3 -84 -57.5 -130.5t-129.5 -46.5zM638 573v-108h-91q36 -56 36 -125q0 -65 -32 -117.5t-89 -77.5q78 -16 120.5 -61.5t42.5 -107.5q0 -88 -83 -144t-221 -56
q-149 0 -221.5 49.5t-72.5 135.5v3q0 36 32 36h136l3 -23q14 -102 130 -102q50 0 80 25.5t30 71.5q0 47 -30 75.5t-91 31.5l-20 1q-131 7 -202 73t-71 187q0 111 72.5 178t206.5 67q53 0 90 -12h245zM309 184q87 0 87 149q0 76 -21.5 113t-69.5 37q-49 0 -71.5 -36
t-22.5 -114q0 -149 98 -149z" />
    <glyph glyph-name="Gdotaccent" unicode="&#x120;" horiz-adv-x="750" 
d="M379 851q-45 0 -72.5 27t-27.5 69t27.5 68.5t72.5 26.5q42 0 70 -26.5t28 -68.5q0 -41 -28 -68.5t-70 -27.5zM366 -12q-151 0 -239.5 105t-88.5 296q0 193 92.5 302t243.5 109q90 0 146 -35q10 -7 13 6l4 23h117v-258h-124l-5 30q-10 60 -43 90t-82 30q-69 0 -113 -74
t-44 -214q0 -293 149 -293q49 0 78 34.5t29 90.5v40q0 22 -8 32t-28 12l-27 3q-22 3 -44 9l5 100h287v-426h-124l-14 40q-6 17 -19 4q-56 -56 -161 -56z" />
    <glyph glyph-name="gdotaccent" unicode="&#x121;" horiz-adv-x="668" 
d="M314 634q-41 0 -70 29.5t-29 70.5q0 42 29 70.5t70 28.5q40 0 69.5 -29t29.5 -70t-29.5 -70.5t-69.5 -29.5zM638 573v-108h-91q36 -56 36 -125q0 -65 -32 -117.5t-89 -77.5q78 -16 120.5 -61.5t42.5 -107.5q0 -88 -83 -144t-221 -56q-149 0 -221.5 49.5t-72.5 135.5v3
q0 36 32 36h136l3 -23q14 -102 130 -102q50 0 80 25.5t30 71.5q0 47 -30 75.5t-91 31.5l-20 1q-131 7 -202 73t-71 187q0 111 72.5 178t206.5 67q53 0 90 -12h245zM309 184q87 0 87 149q0 76 -21.5 113t-69.5 37q-49 0 -71.5 -36t-22.5 -114q0 -149 98 -149z" />
    <glyph glyph-name="Gcommaaccent" unicode="&#x122;" horiz-adv-x="750" 
d="M366 -12q-151 0 -239.5 105t-88.5 296q0 193 92.5 302t243.5 109q90 0 146 -35q10 -7 13 6l4 23h117v-258h-124l-5 30q-10 60 -43 90t-82 30q-69 0 -113 -74t-44 -214q0 -293 149 -293q49 0 78 34.5t29 90.5v40q0 22 -8 32t-28 12l-27 3q-22 3 -44 9l5 100h287v-426h-124
l-14 40q-6 17 -19 4q-56 -56 -161 -56zM375 -360l-79 57q58 43 58 78q0 10 -21.5 30.5t-21.5 49.5q0 31 23 51t60 20q42 0 69.5 -30t27.5 -78q0 -42 -31.5 -92.5t-84.5 -85.5z" />
    <glyph glyph-name="gcommaaccent" unicode="&#x123;" horiz-adv-x="668" 
d="M311 626q-42 0 -69.5 30t-27.5 78q0 42 31.5 92.5t84.5 85.5l79 -57q-58 -43 -58 -78q0 -10 21.5 -30.5t21.5 -49.5q0 -31 -23 -51t-60 -20zM638 573v-108h-91q36 -56 36 -125q0 -65 -32 -117.5t-89 -77.5q78 -16 120.5 -61.5t42.5 -107.5q0 -88 -83 -144t-221 -56
q-149 0 -221.5 49.5t-72.5 135.5v3q0 36 32 36h136l3 -23q14 -102 130 -102q50 0 80 25.5t30 71.5q0 47 -30 75.5t-91 31.5l-20 1q-131 7 -202 73t-71 187q0 111 72.5 178t206.5 67q53 0 90 -12h245zM309 184q87 0 87 149q0 76 -21.5 113t-69.5 37q-49 0 -71.5 -36
t-22.5 -114q0 -149 98 -149z" />
    <glyph glyph-name="Hcircumflex" unicode="&#x124;" horiz-adv-x="839" 
d="M284 829l-66 73l131 133h136l130 -132l-66 -74l-133 100zM44 0l-6 82q9 9 27 14l19 6q23 7 28 20.5t5 56.5v431q0 43 -5 56t-27 20l-15 5q-20 7 -31 16l5 81h341l6 -82q-9 -9 -27 -14l-19 -6q-23 -7 -28 -20.5t-5 -56.5v-110q0 -14 14 -14h187q14 0 14 14v111q0 43 -5 56
t-27 20l-15 5q-20 7 -31 16l5 81h341l6 -82q-9 -9 -27 -14l-19 -6q-23 -7 -28 -20.5t-5 -56.5v-431q0 -43 5 -56t27 -20l15 -5q20 -7 31 -16l-5 -81h-341l-6 82q9 9 27 14l19 6q23 7 28 20.5t5 56.5v174q0 14 -14 14h-187q-14 0 -14 -14v-175q0 -43 5 -56t27 -20l15 -5
q20 -7 31 -16l-5 -81h-341z" />
    <glyph glyph-name="hcircumflex" unicode="&#x125;" horiz-adv-x="698" 
d="M159 929l-132 -100l-66 73l131 133h136l130 -132l-66 -74zM647 91q11 -4 27 -12l-3 -79h-240v349q0 54 -15 80.5t-52 26.5q-87 0 -87 -143v-170q0 -21 6.5 -31t24.5 -16l15 -5q21 -7 31 -12l-3 -79h-331l-3 79q10 5 31 12l15 5q19 7 25 16t6 31v502q0 24 -6.5 32.5
t-25.5 14.5l-15 5q-24 8 -29 12l3 79h256v-263q69 60 157 60q82 0 131 -51t49 -141v-250q0 -25 4.5 -34t17.5 -14z" />
    <glyph glyph-name="Hbar" unicode="&#x126;" horiz-adv-x="817" 
d="M799 522h-88v-344q0 -43 5 -56t27 -20l15 -5q20 -7 31 -16l-5 -81h-341l-6 82q9 9 27 14l19 6q23 7 28 20.5t5 56.5v174q0 14 -14 14h-187q-14 0 -14 -14v-175q0 -43 5 -56t27 -20l15 -5q20 -7 31 -16l-5 -81h-341l-6 82q9 9 27 14l19 6q23 7 28 20.5t5 56.5v343h-88v100
h88q0 35 -5.5 46t-26.5 18l-15 5q-20 7 -31 16l5 81h341l6 -82q-9 -9 -27 -14l-19 -6q-21 -7 -26.5 -18.5t-6.5 -45.5h215q0 35 -5.5 46t-26.5 18l-15 5q-20 7 -31 16l5 81h341l6 -82q-9 -9 -27 -14l-19 -6q-21 -7 -26.5 -18.5t-6.5 -45.5h88v-100zM516 499v23h-215v-23
q0 -14 14 -14h187q14 0 14 14z" />
    <glyph glyph-name="hbar" unicode="&#x127;" horiz-adv-x="698" 
d="M647 91q11 -4 27 -12l-3 -79h-240v349q0 54 -15 80.5t-52 26.5q-87 0 -87 -143v-170q0 -21 6.5 -31t24.5 -16l15 -5q21 -7 31 -12l-3 -79h-331l-3 79q10 5 31 12l15 5q19 7 25 16t6 31v458h-82v70h79q-6 14 -29 21l-15 5q-24 8 -29 12l3 79h256v-117h93v-70h-93v-76
q69 60 157 60q82 0 131 -51t49 -141v-250q0 -25 4.5 -34t17.5 -14z" />
    <glyph glyph-name="Itilde" unicode="&#x128;" horiz-adv-x="441" 
d="M93 836l-95 57q21 57 61 89.5t90 32.5q35 0 78.5 -24.5t64.5 -24.5q33 0 51 51l92 -54q-12 -49 -49 -87.5t-87 -38.5q-39 0 -81 24t-65 24q-40 0 -60 -49zM50 0l-6 82q9 9 27 14l19 6q23 7 28 20.5t5 56.5v431q0 43 -5 56t-27 20l-15 5q-20 7 -31 16l5 81h341l6 -82
q-9 -9 -27 -14l-19 -6q-23 -7 -28 -20.5t-5 -56.5v-431q0 -43 5 -56t27 -20l15 -5q20 -7 31 -16l-5 -81h-341z" />
    <glyph glyph-name="itilde" unicode="&#x129;" horiz-adv-x="363" 
d="M75 632l-84 36q10 61 43.5 101t78.5 40q36 0 80.5 -28t58.5 -28q27 0 40 51l86 -30q-9 -56 -40.5 -100.5t-71.5 -44.5q-33 0 -78.5 25.5t-62.5 25.5q-39 0 -50 -48zM25 0l-3 79q10 5 31 12l15 5q19 7 25 16t6 31v287q0 24 -6.5 32.5t-25.5 14.5l-15 5q-24 8 -29 12l3 79
h256v-430q0 -21 6.5 -31t24.5 -16l15 -5q21 -7 31 -12l-3 -79h-331z" />
    <glyph glyph-name="Imacron" unicode="&#x12a;" horiz-adv-x="441" 
d="M26 870v122h390v-122h-390zM50 0l-6 82q9 9 27 14l19 6q23 7 28 20.5t5 56.5v431q0 43 -5 56t-27 20l-15 5q-20 7 -31 16l5 81h341l6 -82q-9 -9 -27 -14l-19 -6q-23 -7 -28 -20.5t-5 -56.5v-431q0 -43 5 -56t27 -20l15 -5q20 -7 31 -16l-5 -81h-341z" />
    <glyph glyph-name="imacron" unicode="&#x12b;" horiz-adv-x="363" 
d="M24 645v117h316v-117h-316zM25 0l-3 79q10 5 31 12l15 5q19 7 25 16t6 31v287q0 24 -6.5 32.5t-25.5 14.5l-15 5q-24 8 -29 12l3 79h256v-430q0 -21 6.5 -31t24.5 -16l15 -5q21 -7 31 -12l-3 -79h-331z" />
    <glyph glyph-name="Ibreve" unicode="&#x12c;" horiz-adv-x="441" 
d="M221 850q-87 0 -136 47.5t-54 120.5h125q13 -56 66 -56q51 0 64 56h125q-5 -72 -54.5 -120t-135.5 -48zM50 0l-6 82q9 9 27 14l19 6q23 7 28 20.5t5 56.5v431q0 43 -5 56t-27 20l-15 5q-20 7 -31 16l5 81h341l6 -82q-9 -9 -27 -14l-19 -6q-23 -7 -28 -20.5t-5 -56.5v-431
q0 -43 5 -56t27 -20l15 -5q20 -7 31 -16l-5 -81h-341z" />
    <glyph glyph-name="ibreve" unicode="&#x12d;" horiz-adv-x="363" 
d="M181 630q-74 0 -120 45t-46 132h113q-2 -67 54 -67q53 0 53 67h111q0 -87 -45.5 -132t-119.5 -45zM25 0l-3 79q10 5 31 12l15 5q19 7 25 16t6 31v287q0 24 -6.5 32.5t-25.5 14.5l-15 5q-24 8 -29 12l3 79h256v-430q0 -21 6.5 -31t24.5 -16l15 -5q21 -7 31 -12l-3 -79
h-331z" />
    <glyph glyph-name="Iogonek" unicode="&#x12e;" horiz-adv-x="441" 
d="M350 102l15 -5q20 -7 31 -16l-5 -81h-96q-55 -38 -55 -88q0 -15 8.5 -24t22.5 -9q30 0 63 33l49 -68q-58 -61 -148 -61q-64 0 -100 25.5t-36 74.5q0 32 23 65t58 52h-130l-6 82q9 9 27 14l19 6q23 7 28 20.5t5 56.5v431q0 43 -5 56t-27 20l-15 5q-20 7 -31 16l5 81h341
l6 -82q-9 -9 -27 -14l-19 -6q-23 -7 -28 -20.5t-5 -56.5v-431q0 -43 5 -56t27 -20z" />
    <glyph glyph-name="iogonek" unicode="&#x12f;" horiz-adv-x="363" 
d="M182 622q-44 0 -74.5 29t-30.5 71q0 43 30 71t75 28q44 0 73.5 -28t29.5 -71q0 -42 -29.5 -71t-73.5 -29zM274 0q-45 -42 -45 -88q0 -33 28 -33q22 0 49 27l49 -68q-61 -55 -139 -55q-61 0 -94.5 27t-33.5 76q0 68 71 114h-134l-3 79q10 5 31 12l15 5q19 7 25 16t6 31
v287q0 24 -6.5 32.5t-25.5 14.5l-15 5q-24 8 -29 12l3 79h256v-430q0 -21 6.5 -31t24.5 -16l15 -5q21 -7 31 -12l-3 -79h-82z" />
    <glyph glyph-name="Idotaccent" unicode="&#x130;" horiz-adv-x="441" 
d="M223 851q-45 0 -72.5 27t-27.5 69t27.5 68.5t72.5 26.5q42 0 70 -26.5t28 -68.5q0 -41 -28 -68.5t-70 -27.5zM50 0l-6 82q9 9 27 14l19 6q23 7 28 20.5t5 56.5v431q0 43 -5 56t-27 20l-15 5q-20 7 -31 16l5 81h341l6 -82q-9 -9 -27 -14l-19 -6q-23 -7 -28 -20.5t-5 -56.5
v-431q0 -43 5 -56t27 -20l15 -5q20 -7 31 -16l-5 -81h-341z" />
    <glyph glyph-name="dotlessi" unicode="&#x131;" horiz-adv-x="363" 
d="M25 0l-3 79q10 5 31 12l15 5q19 7 25 16t6 31v287q0 24 -6.5 32.5t-25.5 14.5l-15 5q-24 8 -29 12l3 79h256v-430q0 -21 6.5 -31t24.5 -16l15 -5q21 -7 31 -12l-3 -79h-331z" />
    <glyph glyph-name="IJ" unicode="&#x132;" horiz-adv-x="1004" 
d="M50 0l-6 82q9 9 27 14l19 6q23 7 28 20.5t5 56.5v431q0 43 -5 56t-27 20l-15 5q-20 7 -31 16l5 81h341l6 -82q-9 -9 -27 -14l-19 -6q-23 -7 -28 -20.5t-5 -56.5v-431q0 -43 5 -56t27 -20l15 -5q20 -7 31 -16l-5 -81h-341zM674 -12q-120 0 -177 49t-57 149q0 44 42 44h155
v-85q0 -51 36 -51q33 0 33 77v439q0 43 -5 56t-27 20l-15 5q-20 7 -31 16l5 81h341l6 -82q-9 -9 -27 -14l-19 -6q-23 -7 -28 -20.5t-5 -56.5v-389q0 -121 -55 -176.5t-172 -55.5z" />
    <glyph glyph-name="ij" unicode="&#x133;" horiz-adv-x="721" 
d="M182 622q-44 0 -74.5 29t-30.5 71q0 43 30 71t75 28q44 0 73.5 -28t29.5 -71q0 -42 -29.5 -71t-73.5 -29zM578 622q-44 0 -74.5 29t-30.5 71q0 43 30 71t75 28q44 0 73.5 -28t29.5 -71q0 -42 -29.5 -71t-73.5 -29zM25 0l-3 79q10 5 31 12l15 5q19 7 25 16t6 31v287
q0 24 -6.5 32.5t-25.5 14.5l-15 5q-24 8 -29 12l3 79h256v-430q0 -21 6.5 -31t24.5 -16l15 -5q21 -7 31 -12l-3 -79h-331zM466 -224q-92 0 -142 36.5t-50 100.5v5q0 23 8 34q9 12 30 12h120v-48q0 -44 31 -44q18 0 24.5 16.5t6.5 59.5v482q0 24 -6.5 32.5t-25.5 14.5l-15 5
q-24 8 -29 12l3 79h256v-583q0 -105 -53.5 -159.5t-157.5 -54.5z" />
    <glyph glyph-name="Jcircumflex" unicode="&#x134;" horiz-adv-x="598" 
d="M267 829l-66 73l131 133h136l130 -132l-66 -74l-133 100zM268 -12q-120 0 -177 49t-57 149q0 44 42 44h155v-85q0 -51 36 -51q33 0 33 77v439q0 43 -5 56t-27 20l-15 5q-20 7 -31 16l5 81h341l6 -82q-9 -9 -27 -14l-19 -6q-23 -7 -28 -20.5t-5 -56.5v-389
q0 -121 -55 -176.5t-172 -55.5z" />
    <glyph glyph-name="jcircumflex" unicode="&#x135;" horiz-adv-x="338" 
d="M89 619l-83 61l120 153h119l121 -154l-83 -60l-97 106zM83 -224q-92 0 -142 36.5t-50 100.5v5q0 23 8 34q9 12 30 12h120v-48q0 -44 31 -44q18 0 24.5 16.5t6.5 59.5v482q0 24 -6.5 32.5t-25.5 14.5l-15 5q-24 8 -29 12l3 79h256v-583q0 -105 -53.5 -159.5t-157.5 -54.5z
" />
    <glyph glyph-name="Kcommaaccent" unicode="&#x136;" horiz-adv-x="772" 
d="M723 95q20 -6 35 -14l-4 -81h-233l-174 331q-4 7 -11 2q-24 -18 -24 -34v-121q0 -43 5 -56t27 -20l15 -5q20 -7 31 -16l-5 -81h-341l-6 82q9 9 27 14l19 6q23 7 28 20.5t5 56.5v431q0 43 -5 56t-27 20l-15 5q-20 7 -31 16l5 81h341l6 -82q-9 -9 -27 -14l-19 -6
q-21 -7 -27 -21t-6 -56v-141l166 190q10 13 9 24t-12 16l-12 5q-11 4 -19 12l6 73h294l4 -80q-7 -9 -33 -15l-22 -6q-45 -11 -95 -64l-114 -127q-10 -11 -2 -27l155 -289q23 -43 38.5 -59.5t34.5 -21.5zM423 -74q42 0 69.5 -30t27.5 -78q0 -42 -31.5 -92.5t-84.5 -85.5
l-79 57q58 43 58 78q0 10 -21.5 30.5t-21.5 49.5q0 31 23 51t60 20z" />
    <glyph glyph-name="kcommaaccent" unicode="&#x137;" horiz-adv-x="680" 
d="M635 92q21 -6 28 -11l-3 -81h-212l-131 228q-6 12 -16 2l-15 -15q-9 -9 -9 -21v-51q0 -21 6.5 -31t24.5 -16l15 -5q21 -7 31 -12l-3 -79h-331l-3 79q10 5 31 12l15 5q19 7 25 16t6 31v502q0 24 -6.5 32.5t-25.5 14.5l-15 5q-24 8 -29 12l3 79h256v-449l110 109
q18 23 -10 31l-9 3q-17 5 -28 12l3 79h296l3 -79q-9 -6 -28 -12l-16 -4q-33 -8 -81 -55l-61 -62q-6 -6 0 -16l117 -202q26 -39 47 -46zM372 -74q42 0 69.5 -30t27.5 -78q0 -42 -31.5 -92.5t-84.5 -85.5l-79 57q58 43 58 78q0 10 -21.5 30.5t-21.5 49.5q0 31 23 51t60 20z
" />
    <glyph glyph-name="kgreenlandic" unicode="&#x138;" horiz-adv-x="681" 
d="M636 92q21 -6 28 -11l-3 -81h-212l-131 228q-6 12 -16 2l-15 -15q-9 -9 -9 -21v-51q0 -21 6.5 -31t24.5 -16l15 -5q21 -7 31 -12l-3 -79h-331l-3 79q10 5 31 12l15 5q19 7 25 16t6 31v287q0 24 -6.5 32.5t-25.5 14.5l-15 5q-24 8 -29 12l3 79h256v-234l110 109
q18 23 -10 31l-9 3q-18 5 -28 12l3 79h296l3 -79q-9 -6 -28 -12l-16 -4q-30 -7 -81 -55l-61 -62q-6 -6 0 -16l117 -202q26 -39 47 -46z" />
    <glyph glyph-name="Lacute" unicode="&#x139;" horiz-adv-x="628" 
d="M124 830l-50 96l243 141l72 -137zM44 0l-6 82q9 9 27 14l19 6q23 7 28 20.5t5 56.5v431q0 43 -5 56t-27 20l-15 5q-20 7 -31 16l5 81h341l6 -82q-9 -9 -27 -14l-19 -6q-23 -7 -28 -20.5t-5 -56.5v-479q0 -14 14 -14h121q17 0 23 3t10 16l16 45q12 35 19 51h87v-231h-558z
" />
    <glyph glyph-name="lacute" unicode="&#x13a;" horiz-adv-x="366" 
d="M67 830l-50 96l243 141l72 -137zM20 0l-3 79q10 5 31 12l15 5q19 7 25 16t6 31v502q0 24 -6.5 32.5t-25.5 14.5l-15 5q-24 8 -29 12l3 79h256v-645q0 -21 6.5 -31t24.5 -16l15 -5q21 -7 31 -12l-3 -79h-331z" />
    <glyph glyph-name="Lcommaaccent" unicode="&#x13b;" horiz-adv-x="628" 
d="M44 0l-6 82q9 9 27 14l19 6q23 7 28 20.5t5 56.5v431q0 43 -5 56t-27 20l-15 5q-20 7 -31 16l5 81h341l6 -82q-9 -9 -27 -14l-19 -6q-23 -7 -28 -20.5t-5 -56.5v-479q0 -14 14 -14h121q17 0 23 3t10 16l16 45q12 35 19 51h87v-231h-558zM311 -360l-79 57q58 43 58 78
q0 10 -21.5 30.5t-21.5 49.5q0 31 23 51t60 20q42 0 69.5 -30t27.5 -78q0 -42 -31.5 -92.5t-84.5 -85.5z" />
    <glyph glyph-name="lcommaaccent" unicode="&#x13c;" horiz-adv-x="366" 
d="M20 0l-3 79q10 5 31 12l15 5q19 7 25 16t6 31v502q0 24 -6.5 32.5t-25.5 14.5l-15 5q-24 8 -29 12l3 79h256v-645q0 -21 6.5 -31t24.5 -16l15 -5q21 -7 31 -12l-3 -79h-331zM167 -360l-79 57q58 43 58 78q0 10 -21.5 30.5t-21.5 49.5q0 31 23 51t60 20q42 0 69.5 -30
t27.5 -78q0 -42 -31.5 -92.5t-84.5 -85.5z" />
    <glyph glyph-name="Lcaron" unicode="&#x13d;" horiz-adv-x="628" 
d="M499 519l-72 54q53 45 53 78q0 12 -19 35.5t-19 49.5q0 28 22 46t53 18q39 0 63.5 -26t24.5 -71q0 -44 -28 -94.5t-78 -89.5zM44 0l-6 82q9 9 27 14l19 6q23 7 28 20.5t5 56.5v431q0 43 -5 56t-27 20l-15 5q-20 7 -31 16l5 81h341l6 -82q-9 -9 -27 -14l-19 -6
q-23 -7 -28 -20.5t-5 -56.5v-479q0 -14 14 -14h121q17 0 23 3t10 16l16 45q12 35 19 51h87v-231h-558z" />
    <glyph glyph-name="lcaron" unicode="&#x13e;" horiz-adv-x="366" 
d="M386 519l-72 54q53 45 53 78q0 12 -19 35.5t-19 49.5q0 28 22 46t53 18q39 0 63.5 -26t24.5 -71q0 -44 -28 -94.5t-78 -89.5zM20 0l-3 79q10 5 31 12l15 5q19 7 25 16t6 31v502q0 24 -6.5 32.5t-25.5 14.5l-15 5q-24 8 -29 12l3 79h256v-645q0 -21 6.5 -31t24.5 -16
l15 -5q21 -7 31 -12l-3 -79h-331z" />
    <glyph glyph-name="Ldot" unicode="&#x13f;" horiz-adv-x="634" 
d="M44 0l-6 82q9 9 27 14l19 6q23 7 28 20.5t5 56.5v431q0 43 -5 56t-27 20l-15 5q-20 7 -31 16l5 81h341l6 -82q-9 -9 -27 -14l-19 -6q-23 -7 -28 -20.5t-5 -56.5v-479q0 -14 14 -14h121q17 0 23 3t10 16l16 45q12 35 19 51h87v-231h-558zM532 359q-45 0 -76 31t-31 76
q0 44 31 74.5t76 30.5q44 0 74.5 -30.5t30.5 -74.5q0 -45 -30.5 -76t-74.5 -31z" />
    <glyph glyph-name="ldot" unicode="&#x140;" horiz-adv-x="498" 
d="M20 0l-3 79q10 5 31 12l15 5q19 7 25 16t6 31v502q0 24 -6.5 32.5t-25.5 14.5l-15 5q-24 8 -29 12l3 79h256v-645q0 -21 6.5 -31t24.5 -16l15 -5q21 -7 31 -12l-3 -79h-331zM435 306q-45 0 -76 31t-31 76q0 44 31 74.5t76 30.5q44 0 74.5 -30.5t30.5 -74.5
q0 -45 -30.5 -76t-74.5 -31z" />
    <glyph glyph-name="Lslash" unicode="&#x141;" horiz-adv-x="656" 
d="M543 231h87v-231h-558l-6 82q9 9 27 14l19 6q23 7 28 20.5t5 56.5v126l-72 -38l-58 108l130 68v167q0 43 -5 56t-27 20l-15 5q-20 7 -31 16l5 81h341l6 -82q-9 -9 -27 -14l-19 -6q-23 -7 -28 -20.5t-5 -56.5v-64l105 55l57 -108l-162 -85v-277q0 -14 14 -14h121
q17 0 23 3t10 16l16 45q12 35 19 51z" />
    <glyph glyph-name="lslash" unicode="&#x142;" horiz-adv-x="421" 
d="M326 96l15 -5q21 -7 31 -12l-3 -79h-331l-3 79q10 5 31 12l15 5q19 7 25 16t6 31v185l-59 -32l-51 102l110 59v188q0 24 -6.5 32.5t-25.5 14.5l-15 5q-24 8 -29 12l3 79h256v-233l61 33l50 -101l-111 -60v-284q0 -21 6.5 -31t24.5 -16z" />
    <glyph glyph-name="Nacute" unicode="&#x143;" horiz-adv-x="817" 
d="M318 830l-50 96l243 141l72 -137zM44 0l-6 82q9 9 27 14l19 6q23 7 28 20.5t5 56.5v432q0 44 -5 56t-29 20l-20 7q-15 5 -24 14l5 80h252l280 -470v291q0 43 -5 56.5t-27 20.5l-15 5q-20 7 -31 16l5 81h278l6 -82q-9 -9 -27 -14l-19 -6q-23 -7 -28 -20.5t-5 -56.5v-609
h-153l-306 508v-329q0 -43 5 -56.5t27 -20.5l15 -5q20 -7 31 -16l-5 -81h-278z" />
    <glyph glyph-name="nacute" unicode="&#x144;" horiz-adv-x="699" 
d="M541 759l-235 -140l-66 86l201 168zM648 91q11 -4 27 -12l-3 -79h-240v349q0 54 -15 80.5t-52 26.5q-87 0 -87 -143v-170q0 -21 6.5 -31t24.5 -16l15 -5q21 -7 31 -12l-3 -79h-331l-3 79q10 5 31 12l15 5q19 7 25 16t6 31v287q0 24 -6.5 32.5t-25.5 14.5l-15 5
q-24 8 -29 12l3 79h248v-55q73 67 165 67q82 0 131 -51t49 -141v-250q0 -25 4.5 -34t17.5 -14z" />
    <glyph glyph-name="Ncommaaccent" unicode="&#x145;" horiz-adv-x="817" 
d="M44 0l-6 82q9 9 27 14l19 6q23 7 28 20.5t5 56.5v432q0 44 -5 56t-29 20l-20 7q-15 5 -24 14l5 80h252l280 -470v291q0 43 -5 56.5t-27 20.5l-15 5q-20 7 -31 16l5 81h278l6 -82q-9 -9 -27 -14l-19 -6q-23 -7 -28 -20.5t-5 -56.5v-609h-153l-306 508v-329q0 -43 5 -56.5
t27 -20.5l15 -5q20 -7 31 -16l-5 -81h-278zM405 -360l-79 57q58 43 58 78q0 10 -21.5 30.5t-21.5 49.5q0 31 23 51t60 20q42 0 69.5 -30t27.5 -78q0 -42 -31.5 -92.5t-84.5 -85.5z" />
    <glyph glyph-name="ncommaaccent" unicode="&#x146;" horiz-adv-x="699" 
d="M648 91q11 -4 27 -12l-3 -79h-240v349q0 54 -15 80.5t-52 26.5q-87 0 -87 -143v-170q0 -21 6.5 -31t24.5 -16l15 -5q21 -7 31 -12l-3 -79h-331l-3 79q10 5 31 12l15 5q19 7 25 16t6 31v287q0 24 -6.5 32.5t-25.5 14.5l-15 5q-24 8 -29 12l3 79h248v-55q73 67 165 67
q82 0 131 -51t49 -141v-250q0 -25 4.5 -34t17.5 -14zM346 -74q42 0 69.5 -30t27.5 -78q0 -42 -31.5 -92.5t-84.5 -85.5l-79 57q58 43 58 78q0 10 -21.5 30.5t-21.5 49.5q0 31 23 51t60 20z" />
    <glyph glyph-name="Ncaron" unicode="&#x147;" horiz-adv-x="817" 
d="M345 846l-130 127l66 74l133 -95l132 95l66 -73l-131 -128h-136zM44 0l-6 82q9 9 27 14l19 6q23 7 28 20.5t5 56.5v432q0 44 -5 56t-29 20l-20 7q-15 5 -24 14l5 80h252l280 -470v291q0 43 -5 56.5t-27 20.5l-15 5q-20 7 -31 16l5 81h278l6 -82q-9 -9 -27 -14l-19 -6
q-23 -7 -28 -20.5t-5 -56.5v-609h-153l-306 508v-329q0 -43 5 -56.5t27 -20.5l15 -5q20 -7 31 -16l-5 -81h-278z" />
    <glyph glyph-name="ncaron" unicode="&#x148;" horiz-adv-x="699" 
d="M410 636h-109l-143 139l75 73l123 -101l123 101l75 -73zM648 91q11 -4 27 -12l-3 -79h-240v349q0 54 -15 80.5t-52 26.5q-87 0 -87 -143v-170q0 -21 6.5 -31t24.5 -16l15 -5q21 -7 31 -12l-3 -79h-331l-3 79q10 5 31 12l15 5q19 7 25 16t6 31v287q0 24 -6.5 32.5
t-25.5 14.5l-15 5q-24 8 -29 12l3 79h248v-55q73 67 165 67q82 0 131 -51t49 -141v-250q0 -25 4.5 -34t17.5 -14z" />
    <glyph glyph-name="Eng" unicode="&#x14a;" horiz-adv-x="817" 
d="M781 788l6 -82q-9 -9 -27 -14l-19 -6q-23 -7 -28 -20.5t-5 -56.5v-596q0 -125 -47.5 -181t-137.5 -56q-55 0 -104 9v118q27 -8 73 -8q84 0 84 75v7l-327 533v-331q0 -43 5 -56.5t27 -20.5l15 -5q20 -7 31 -16l-5 -81h-278l-6 82q9 9 27 14l19 6q23 7 28 20.5t5 56.5v432
q0 44 -5 56t-29 20l-20 7q-15 5 -24 14l5 80h252l280 -466v287q0 43 -5 56.5t-27 20.5l-15 5q-20 7 -31 16l5 81h278z" />
    <glyph glyph-name="eng" unicode="&#x14b;" horiz-adv-x="659" 
d="M21 0l-3 79q10 5 31 12l15 5q19 7 25 16t6 31v287q0 24 -6.5 32.5t-25.5 14.5l-15 5q-22 7 -29 12l3 79h248v-55q73 67 165 67q82 0 131 -51t49 -141v-393q0 -114 -43 -169t-137 -55q-66 0 -106 9v118q16 -4 50 -4q27 0 40 20.5t13 71.5v358q0 54 -15 80.5t-52 26.5
q-87 0 -87 -143v-170q0 -21 6.5 -31t24.5 -16l15 -5q21 -7 31 -12l-3 -79h-331z" />
    <glyph glyph-name="Omacron" unicode="&#x14c;" horiz-adv-x="759" 
d="M185 870v122h390v-122h-390zM379 -12q-159 0 -250 101t-91 300t93 305t249 106q155 0 248 -104.5t93 -301.5q0 -199 -92 -302.5t-250 -103.5zM382 103q66 0 100 76t34 216q0 290 -134 290q-139 0 -139 -287q0 -295 139 -295z" />
    <glyph glyph-name="omacron" unicode="&#x14d;" horiz-adv-x="640" 
d="M127 645v117h390v-117h-390zM320 -12q-132 0 -212 81.5t-80 217.5t81.5 217t213.5 81t210.5 -80.5t78.5 -217.5q0 -135 -81.5 -217t-210.5 -82zM322 96q103 0 103 191q0 190 -102 190q-108 0 -108 -190q0 -191 107 -191z" />
    <glyph glyph-name="Obreve" unicode="&#x14e;" horiz-adv-x="759" 
d="M380 850q-87 0 -136 47.5t-54 120.5h125q13 -56 66 -56q51 0 64 56h125q-5 -72 -54.5 -120t-135.5 -48zM379 -12q-159 0 -250 101t-91 300t93 305t249 106q155 0 248 -104.5t93 -301.5q0 -199 -92 -302.5t-250 -103.5zM382 103q66 0 100 76t34 216q0 290 -134 290
q-139 0 -139 -287q0 -295 139 -295z" />
    <glyph glyph-name="obreve" unicode="&#x14f;" horiz-adv-x="640" 
d="M321 622q-75 0 -129 46.5t-57 130.5h123q2 -32 19 -49.5t45 -17.5t45.5 17.5t19.5 49.5h121q-3 -84 -57.5 -130.5t-129.5 -46.5zM320 -12q-132 0 -212 81.5t-80 217.5t81.5 217t213.5 81t210.5 -80.5t78.5 -217.5q0 -135 -81.5 -217t-210.5 -82zM322 96q103 0 103 191
q0 190 -102 190q-108 0 -108 -190q0 -191 107 -191z" />
    <glyph glyph-name="Ohungarumlaut" unicode="&#x150;" horiz-adv-x="759" 
d="M223 824l-73 87l179 160l94 -104zM490 824l-73 87l179 160l94 -104zM379 -12q-159 0 -250 101t-91 300t93 305t249 106q155 0 248 -104.5t93 -301.5q0 -199 -92 -302.5t-250 -103.5zM382 103q66 0 100 76t34 216q0 290 -134 290q-139 0 -139 -287q0 -295 139 -295z" />
    <glyph glyph-name="ohungarumlaut" unicode="&#x151;" horiz-adv-x="640" 
d="M178 602l-82 74l167 194l113 -83zM435 602l-82 74l167 194l113 -83zM320 -12q-132 0 -212 81.5t-80 217.5t81.5 217t213.5 81t210.5 -80.5t78.5 -217.5q0 -135 -81.5 -217t-210.5 -82zM322 96q103 0 103 191q0 190 -102 190q-108 0 -108 -190q0 -191 107 -191z" />
    <glyph glyph-name="OE" unicode="&#x152;" horiz-adv-x="1009" 
d="M320 -12q-131 0 -206.5 104t-75.5 297q0 191 81.5 301t205.5 110q108 0 165 -72v60h463v-225h-87q-10 22 -21 51l-14 39q-4 13 -10 16t-23 3h-110q-14 0 -14 -14v-187q0 -14 14 -14h41q18 0 28 27l6 15l5 12.5t5 12t4 8.5l65 2v-263l-65 -4q-5 6 -15 32l-5 12
q-13 30 -28 30h-41q-14 0 -14 -14v-197q0 -14 14 -14h123q17 0 23 3t10 16l16 45q12 35 19 51h87v-231h-475v78q-21 -39 -67.5 -64.5t-103.5 -25.5zM380 102q65 0 99 70v454q-34 60 -96 60q-66 0 -103 -74t-37 -214q0 -150 33 -223t104 -73z" />
    <glyph glyph-name="oe" unicode="&#x153;" horiz-adv-x="1011" 
d="M311 -12q-128 0 -205.5 81.5t-77.5 217.5t79.5 217t206.5 81q60 0 113 -23t87 -62q32 38 84.5 61.5t112.5 23.5q139 0 211 -115q42 -68 42 -109q0 -22 -28 -40q-52 -33 -146 -67t-168 -50q-14 -3 -13 -15q4 -32 31 -56t87 -24q97 0 172 80l70 -74q-50 -62 -112.5 -94.5
t-151.5 -32.5q-63 0 -116 22t-79 62q-72 -84 -199 -84zM609 303q17 0 66 14.5t83 30.5q22 10 22 23q0 21 -14 52q-28 61 -79 61q-48 0 -71 -37.5t-23 -100.5q0 -15 2 -31q1 -12 14 -12zM322 96q103 0 103 191q0 190 -102 190q-108 0 -108 -190q0 -191 107 -191z" />
    <glyph glyph-name="Racute" unicode="&#x154;" horiz-adv-x="739" 
d="M264 830l-50 96l243 141l72 -137zM44 0l-6 82q9 9 27 14l19 6q23 7 28 20.5t5 56.5v431q0 43 -5 56t-27 20l-15 5q-20 7 -31 16l5 81h328q144 0 218 -56t74 -166q0 -136 -121 -205q-11 -6 -5 -17l82 -175q26 -55 67 -68l15 -5q17 -6 30 -15l-6 -81h-225l-142 313
q-4 9 -16 9h-19q-12 0 -12 -15v-129q0 -43 5 -56t27 -20l15 -5q20 -7 31 -16l-5 -81h-341zM326 438h26q44 0 75.5 32.5t31.5 86.5q0 115 -105 115h-27q-15 0 -15 -15v-204q0 -15 14 -15z" />
    <glyph glyph-name="racute" unicode="&#x155;" horiz-adv-x="570" 
d="M482 759l-235 -140l-66 86l201 168zM425 585q57 0 91 -37t34 -102v-9q0 -34 -12 -47q-11 -13 -36 -13h-126l-3 30q-3 40 -29 40q-30 0 -48.5 -51t-18.5 -134v-119q0 -39 31 -47l17 -5q22 -5 35 -12l-3 -79h-331l-3 79q12 6 30 12l15 5q15 5 20.5 15t5.5 32v287
q0 24 -6.5 32.5t-25.5 14.5l-15 5q-22 7 -29 12l3 79h248v-74q60 86 156 86z" />
    <glyph glyph-name="Rcommaaccent" unicode="&#x156;" horiz-adv-x="739" 
d="M44 0l-6 82q9 9 27 14l19 6q23 7 28 20.5t5 56.5v431q0 43 -5 56t-27 20l-15 5q-20 7 -31 16l5 81h328q144 0 218 -56t74 -166q0 -136 -121 -205q-11 -6 -5 -17l82 -175q26 -55 67 -68l15 -5q17 -6 30 -15l-6 -81h-225l-142 313q-4 9 -16 9h-19q-12 0 -12 -15v-129
q0 -43 5 -56t27 -20l15 -5q20 -7 31 -16l-5 -81h-341zM326 438h26q44 0 75.5 32.5t31.5 86.5q0 115 -105 115h-27q-15 0 -15 -15v-204q0 -15 14 -15zM392 -360l-79 57q58 43 58 78q0 10 -21.5 30.5t-21.5 49.5q0 31 23 51t60 20q42 0 69.5 -30t27.5 -78q0 -42 -31.5 -92.5
t-84.5 -85.5z" />
    <glyph glyph-name="rcommaaccent" unicode="&#x157;" horiz-adv-x="570" 
d="M425 585q57 0 91 -37t34 -102v-9q0 -34 -12 -47q-11 -13 -36 -13h-126l-3 30q-3 40 -29 40q-30 0 -48.5 -51t-18.5 -134v-119q0 -39 31 -47l17 -5q22 -5 35 -12l-3 -79h-331l-3 79q12 6 30 12l15 5q15 5 20.5 15t5.5 32v287q0 24 -6.5 32.5t-25.5 14.5l-15 5
q-22 7 -29 12l3 79h248v-74q60 86 156 86zM191 -74q42 0 69.5 -30t27.5 -78q0 -42 -31.5 -92.5t-84.5 -85.5l-79 57q58 43 58 78q0 10 -21.5 30.5t-21.5 49.5q0 31 23 51t60 20z" />
    <glyph glyph-name="Rcaron" unicode="&#x158;" horiz-adv-x="739" 
d="M291 846l-130 127l66 74l133 -95l132 95l66 -73l-131 -128h-136zM44 0l-6 82q9 9 27 14l19 6q23 7 28 20.5t5 56.5v431q0 43 -5 56t-27 20l-15 5q-20 7 -31 16l5 81h328q144 0 218 -56t74 -166q0 -136 -121 -205q-11 -6 -5 -17l82 -175q26 -55 67 -68l15 -5q17 -6 30 -15
l-6 -81h-225l-142 313q-4 9 -16 9h-19q-12 0 -12 -15v-129q0 -43 5 -56t27 -20l15 -5q20 -7 31 -16l-5 -81h-341zM326 438h26q44 0 75.5 32.5t31.5 86.5q0 115 -105 115h-27q-15 0 -15 -15v-204q0 -15 14 -15z" />
    <glyph glyph-name="rcaron" unicode="&#x159;" horiz-adv-x="570" 
d="M351 636h-109l-143 139l75 73l123 -101l123 101l75 -73zM425 585q57 0 91 -37t34 -102v-9q0 -34 -12 -47q-11 -13 -36 -13h-126l-3 30q-3 40 -29 40q-30 0 -48.5 -51t-18.5 -134v-119q0 -39 31 -47l17 -5q22 -5 35 -12l-3 -79h-331l-3 79q12 6 30 12l15 5q15 5 20.5 15
t5.5 32v287q0 24 -6.5 32.5t-25.5 14.5l-15 5q-22 7 -29 12l3 79h248v-74q60 86 156 86z" />
    <glyph glyph-name="Sacute" unicode="&#x15a;" horiz-adv-x="649" 
d="M227 830l-50 96l243 141l72 -137zM367 -12q-106 0 -182 47q-13 8 -14 -6l-2 -29h-126v275h134l2 -32q4 -68 44.5 -104t101.5 -36q45 0 68 22.5t23 59.5q0 34 -23 59.5t-76 57.5l-110 67q-80 49 -117 100.5t-37 124.5q0 92 70 149t176 57q79 0 128 -31q12 -8 15 5l4 24
h126v-246h-134l-4 41q-9 92 -99 92q-39 0 -61.5 -16.5t-22.5 -45.5q0 -27 22.5 -49t86.5 -61l108 -66q78 -47 111.5 -99.5t33.5 -126.5q0 -103 -73 -168t-173 -65z" />
    <glyph glyph-name="sacute" unicode="&#x15b;" horiz-adv-x="551" 
d="M216 619l-66 86l201 168l100 -114zM320 -12q-99 0 -154 45q-9 7 -12 -5l-5 -28h-108v211h116l2 -27q3 -44 31 -68t78 -24q68 0 68 47q0 22 -19.5 40.5t-75.5 41.5l-60 25q-72 30 -106.5 71t-34.5 104q0 73 55.5 118.5t142.5 45.5q86 0 135 -39q9 -7 10 3l3 27h109v-185
h-116l-3 18q-6 37 -30.5 56.5t-62.5 19.5q-65 0 -65 -45q0 -23 19 -36.5t80 -39.5l59 -27q73 -36 106 -75.5t33 -99.5q0 -77 -55 -125.5t-140 -48.5z" />
    <glyph glyph-name="Scircumflex" unicode="&#x15c;" horiz-adv-x="649" 
d="M190 829l-66 73l131 133h136l130 -132l-66 -74l-133 100zM367 -12q-106 0 -182 47q-13 8 -14 -6l-2 -29h-126v275h134l2 -32q4 -68 44.5 -104t101.5 -36q45 0 68 22.5t23 59.5q0 34 -23 59.5t-76 57.5l-110 67q-80 49 -117 100.5t-37 124.5q0 92 70 149t176 57
q79 0 128 -31q12 -8 15 5l4 24h126v-246h-134l-4 41q-9 92 -99 92q-39 0 -61.5 -16.5t-22.5 -45.5q0 -27 22.5 -49t86.5 -61l108 -66q78 -47 111.5 -99.5t33.5 -126.5q0 -103 -73 -168t-173 -65z" />
    <glyph glyph-name="scircumflex" unicode="&#x15d;" horiz-adv-x="551" 
d="M143 618l-75 73l143 143h109l142 -143l-73 -73l-123 105zM320 -12q-99 0 -154 45q-9 7 -12 -5l-5 -28h-108v211h116l2 -27q3 -44 31 -68t78 -24q68 0 68 47q0 22 -19.5 40.5t-75.5 41.5l-60 25q-72 30 -106.5 71t-34.5 104q0 73 55.5 118.5t142.5 45.5q86 0 135 -39
q9 -7 10 3l3 27h109v-185h-116l-3 18q-6 37 -30.5 56.5t-62.5 19.5q-65 0 -65 -45q0 -23 19 -36.5t80 -39.5l59 -27q73 -36 106 -75.5t33 -99.5q0 -77 -55 -125.5t-140 -48.5z" />
    <glyph glyph-name="Scedilla" unicode="&#x15e;" horiz-adv-x="649" 
d="M613 221q0 -99 -68 -163.5t-163 -69.5l-6 -13q47 -11 74.5 -38.5t27.5 -66.5q0 -41 -35 -69t-101 -28q-80 0 -133 34l28 76q39 -26 73 -26t34 29q0 36 -73 46l28 61q-62 9 -114 42q-13 8 -14 -6l-2 -29h-126v275h134l2 -32q4 -68 44.5 -104t101.5 -36q45 0 68 22.5
t23 59.5q0 34 -23 59.5t-76 57.5l-110 67q-80 49 -117 100.5t-37 124.5q0 92 70 149t176 57q79 0 128 -31q12 -8 15 5l4 24h126v-246h-134l-4 41q-9 92 -99 92q-39 0 -61.5 -16.5t-22.5 -45.5q0 -27 22.5 -49t86.5 -61l108 -66q78 -47 111.5 -99.5t33.5 -126.5z" />
    <glyph glyph-name="scedilla" unicode="&#x15f;" horiz-adv-x="551" 
d="M320 -12h-12l-6 -13q47 -11 74.5 -38.5t27.5 -66.5q0 -41 -35 -69t-101 -28q-80 0 -133 34l28 76q39 -26 73 -26t34 29q0 36 -73 46l31 69q-37 11 -62 32q-9 7 -12 -5l-5 -28h-108v211h116l2 -27q3 -44 31 -68t78 -24q68 0 68 47q0 22 -19.5 40.5t-75.5 41.5l-60 25
q-72 30 -106.5 71t-34.5 104q0 73 55.5 118.5t142.5 45.5q86 0 135 -39q9 -7 10 3l3 27h109v-185h-116l-3 18q-6 37 -30.5 56.5t-62.5 19.5q-65 0 -65 -45q0 -23 19 -36.5t80 -39.5l59 -27q73 -36 106 -75.5t33 -99.5q0 -77 -55 -125.5t-140 -48.5z" />
    <glyph glyph-name="Scaron" unicode="&#x160;" horiz-adv-x="649" 
d="M254 846l-130 127l66 74l133 -95l132 95l66 -73l-131 -128h-136zM367 -12q-106 0 -182 47q-13 8 -14 -6l-2 -29h-126v275h134l2 -32q4 -68 44.5 -104t101.5 -36q45 0 68 22.5t23 59.5q0 34 -23 59.5t-76 57.5l-110 67q-80 49 -117 100.5t-37 124.5q0 92 70 149t176 57
q79 0 128 -31q12 -8 15 5l4 24h126v-246h-134l-4 41q-9 92 -99 92q-39 0 -61.5 -16.5t-22.5 -45.5q0 -27 22.5 -49t86.5 -61l108 -66q78 -47 111.5 -99.5t33.5 -126.5q0 -103 -73 -168t-173 -65z" />
    <glyph glyph-name="scaron" unicode="&#x161;" horiz-adv-x="551" 
d="M211 636l-143 139l75 73l123 -101l123 101l75 -73l-144 -139h-109zM320 -12q-99 0 -154 45q-9 7 -12 -5l-5 -28h-108v211h116l2 -27q3 -44 31 -68t78 -24q68 0 68 47q0 22 -19.5 40.5t-75.5 41.5l-60 25q-72 30 -106.5 71t-34.5 104q0 73 55.5 118.5t142.5 45.5
q86 0 135 -39q9 -7 10 3l3 27h109v-185h-116l-3 18q-6 37 -30.5 56.5t-62.5 19.5q-65 0 -65 -45q0 -23 19 -36.5t80 -39.5l59 -27q73 -36 106 -75.5t33 -99.5q0 -77 -55 -125.5t-140 -48.5z" />
    <glyph glyph-name="uni0162" unicode="&#x162;" horiz-adv-x="728" 
d="M193 0l-6 82q9 9 27 14l19 6q23 7 28 20.5t5 56.5v479q0 14 -14 14h-63q-16 0 -21.5 -4t-10.5 -17l-15 -43q-14 -41 -22 -55h-84v235h656v-235h-85q-10 21 -21 55l-16 45q-4 13 -10 16t-23 3h-62q-14 0 -14 -14v-480q0 -43 5 -56t27 -20l15 -5q20 -7 31 -16l-5 -81h-341z
M346 -360l-79 57q58 43 58 78q0 10 -21.5 30.5t-21.5 49.5q0 31 23 51t60 20q42 0 69.5 -30t27.5 -78q0 -42 -31.5 -92.5t-84.5 -85.5z" />
    <glyph glyph-name="uni0163" unicode="&#x163;" horiz-adv-x="461" 
d="M250 -12q-163 0 -163 146v318h-79v111l46 11q29 6 39.5 15.5t16.5 31.5l34 117h126v-165h129v-121h-129v-290q0 -42 34 -42q30 0 77 31l57 -86q-85 -77 -188 -77zM229 -360l-79 57q58 43 58 78q0 10 -21.5 30.5t-21.5 49.5q0 31 23 51t60 20q42 0 69.5 -30t27.5 -78
q0 -42 -31.5 -92.5t-84.5 -85.5z" />
    <glyph glyph-name="Tcaron" unicode="&#x164;" horiz-adv-x="728" 
d="M300 846l-130 127l66 74l133 -95l132 95l66 -73l-131 -128h-136zM193 0l-6 82q9 9 27 14l19 6q23 7 28 20.5t5 56.5v479q0 14 -14 14h-63q-16 0 -21.5 -4t-10.5 -17l-15 -43q-14 -41 -22 -55h-84v235h656v-235h-85q-10 21 -21 55l-16 45q-4 13 -10 16t-23 3h-62
q-14 0 -14 -14v-480q0 -43 5 -56t27 -20l15 -5q20 -7 31 -16l-5 -81h-341z" />
    <glyph glyph-name="tcaron" unicode="&#x165;" horiz-adv-x="461" 
d="M383 613l-72 54q53 45 53 78q0 11 -19 34.5t-19 50.5q0 28 22 46t53 18q39 0 63.5 -26t24.5 -71q0 -44 -28 -94.5t-78 -89.5zM250 -12q-163 0 -163 146v318h-79v111l46 11q29 6 39.5 15.5t16.5 31.5l34 117h126v-165h129v-121h-129v-290q0 -42 34 -42q30 0 77 31l57 -86
q-85 -77 -188 -77z" />
    <glyph glyph-name="Tbar" unicode="&#x166;" horiz-adv-x="728" 
d="M36 788h656v-235h-85q-10 21 -21 55l-16 45q-4 13 -10 16t-23 3h-62q-14 0 -14 -14v-205h111v-122h-111v-153q0 -43 5 -56t27 -20l15 -5q20 -7 31 -16l-5 -81h-341l-6 82q9 9 27 14l19 6q23 7 28 20.5t5 56.5v152h-111v122h111v205q0 14 -14 14h-63q-16 0 -21.5 -4
t-10.5 -17l-15 -43q-14 -41 -22 -55h-84v235z" />
    <glyph glyph-name="tbar" unicode="&#x167;" horiz-adv-x="461" 
d="M381 151l57 -86q-85 -77 -188 -77q-163 0 -163 146v112h-73v120h73v86h-79v111l46 11q29 6 39.5 15.5t16.5 31.5l34 117h126v-165h129v-121h-129v-86h124v-120h-124v-84q0 -42 34 -42q30 0 77 31z" />
    <glyph glyph-name="Utilde" unicode="&#x168;" horiz-adv-x="782" 
d="M287 836l-95 57q21 57 61 89.5t90 32.5q35 0 78.5 -24.5t64.5 -24.5q33 0 51 51l92 -54q-12 -49 -49 -87.5t-87 -38.5q-39 0 -81 24t-65 24q-40 0 -60 -49zM403 -12q-301 0 -301 263v359q0 43 -5 56t-27 20l-15 5q-20 7 -31 16l5 81h341l6 -82q-9 -9 -27 -14l-19 -6
q-23 -7 -28 -20.5t-5 -56.5v-344q0 -80 31 -117t98 -37q121 0 121 158v340q0 43 -5 56.5t-27 20.5l-15 5q-20 7 -31 16l5 81h278l6 -82q-9 -9 -27 -14l-19 -6q-23 -7 -28 -20.5t-5 -56.5v-347q0 -132 -70.5 -203t-205.5 -71z" />
    <glyph glyph-name="utilde" unicode="&#x169;" horiz-adv-x="699" 
d="M261 685q-44 0 -66 -58l-82 58q16 57 53.5 90.5t87.5 33.5q36 0 85.5 -28.5t68.5 -28.5q41 0 60 59l79 -57q-14 -54 -49.5 -89.5t-84.5 -35.5q-42 0 -88 28t-64 28zM645 91q19 -7 28 -12l-3 -79h-224v61q-59 -73 -169 -73q-91 0 -139.5 51.5t-48.5 147.5v243
q0 24 -5 33.5t-19 14.5l-13 4q-22 7 -28 12l3 79h245v-374q0 -92 75 -92q36 0 58 29.5t22 82.5v211q0 24 -5 33.5t-19 14.5l-13 4q-22 7 -28 12l3 79h245v-430q0 -22 4.5 -32t17.5 -15z" />
    <glyph glyph-name="Umacron" unicode="&#x16a;" horiz-adv-x="782" 
d="M220 870v122h390v-122h-390zM403 -12q-301 0 -301 263v359q0 43 -5 56t-27 20l-15 5q-20 7 -31 16l5 81h341l6 -82q-9 -9 -27 -14l-19 -6q-23 -7 -28 -20.5t-5 -56.5v-344q0 -80 31 -117t98 -37q121 0 121 158v340q0 43 -5 56.5t-27 20.5l-15 5q-20 7 -31 16l5 81h278
l6 -82q-9 -9 -27 -14l-19 -6q-23 -7 -28 -20.5t-5 -56.5v-347q0 -132 -70.5 -203t-205.5 -71z" />
    <glyph glyph-name="umacron" unicode="&#x16b;" horiz-adv-x="699" 
d="M525 762v-117h-390v117h390zM645 91q19 -7 28 -12l-3 -79h-224v61q-59 -73 -169 -73q-91 0 -139.5 51.5t-48.5 147.5v243q0 24 -5 33.5t-19 14.5l-13 4q-22 7 -28 12l3 79h245v-374q0 -92 75 -92q36 0 58 29.5t22 82.5v211q0 24 -5 33.5t-19 14.5l-13 4q-22 7 -28 12
l3 79h245v-430q0 -22 4.5 -32t17.5 -15z" />
    <glyph glyph-name="Ubreve" unicode="&#x16c;" horiz-adv-x="782" 
d="M415 850q-87 0 -136 47.5t-54 120.5h125q13 -56 66 -56q51 0 64 56h125q-5 -72 -54.5 -120t-135.5 -48zM403 -12q-301 0 -301 263v359q0 43 -5 56t-27 20l-15 5q-20 7 -31 16l5 81h341l6 -82q-9 -9 -27 -14l-19 -6q-23 -7 -28 -20.5t-5 -56.5v-344q0 -80 31 -117t98 -37
q121 0 121 158v340q0 43 -5 56.5t-27 20.5l-15 5q-20 7 -31 16l5 81h278l6 -82q-9 -9 -27 -14l-19 -6q-23 -7 -28 -20.5t-5 -56.5v-347q0 -132 -70.5 -203t-205.5 -71z" />
    <glyph glyph-name="ubreve" unicode="&#x16d;" horiz-adv-x="699" 
d="M329 622q-75 0 -129 46.5t-57 130.5h123q2 -32 19 -49.5t45 -17.5t45.5 17.5t19.5 49.5h121q-3 -84 -57.5 -130.5t-129.5 -46.5zM645 91q19 -7 28 -12l-3 -79h-224v61q-59 -73 -169 -73q-91 0 -139.5 51.5t-48.5 147.5v243q0 24 -5 33.5t-19 14.5l-13 4q-22 7 -28 12
l3 79h245v-374q0 -92 75 -92q36 0 58 29.5t22 82.5v211q0 24 -5 33.5t-19 14.5l-13 4q-22 7 -28 12l3 79h245v-430q0 -22 4.5 -32t17.5 -15z" />
    <glyph glyph-name="Uring" unicode="&#x16e;" horiz-adv-x="782" 
d="M414 832q-61 0 -96.5 28t-35.5 75q0 48 36 76t98 28q60 0 96.5 -28.5t36.5 -74.5q0 -48 -36.5 -76t-98.5 -28zM416 899q16 0 27.5 10.5t11.5 26.5q0 17 -11.5 27t-28.5 10t-28 -10t-11 -27q0 -16 11.5 -26.5t28.5 -10.5zM403 -12q-301 0 -301 263v359q0 43 -5 56t-27 20
l-15 5q-20 7 -31 16l5 81h341l6 -82q-9 -9 -27 -14l-19 -6q-23 -7 -28 -20.5t-5 -56.5v-344q0 -80 31 -117t98 -37q121 0 121 158v340q0 43 -5 56.5t-27 20.5l-15 5q-20 7 -31 16l5 81h278l6 -82q-9 -9 -27 -14l-19 -6q-23 -7 -28 -20.5t-5 -56.5v-347q0 -132 -70.5 -203
t-205.5 -71z" />
    <glyph glyph-name="uring" unicode="&#x16f;" horiz-adv-x="699" 
d="M329 617q-55 0 -92.5 27.5t-37.5 79.5q0 50 37.5 79t94.5 29q54 0 92 -28t38 -79t-37 -79.5t-95 -28.5zM329 767q-17 0 -28 -11.5t-11 -30.5t12 -30.5t29 -11.5t28 11.5t11 30.5q0 20 -12 31t-29 11zM645 91q19 -7 28 -12l-3 -79h-224v61q-59 -73 -169 -73
q-91 0 -139.5 51.5t-48.5 147.5v243q0 24 -5 33.5t-19 14.5l-13 4q-22 7 -28 12l3 79h245v-374q0 -92 75 -92q36 0 58 29.5t22 82.5v211q0 24 -5 33.5t-19 14.5l-13 4q-22 7 -28 12l3 79h245v-430q0 -22 4.5 -32t17.5 -15z" />
    <glyph glyph-name="Uhungarumlaut" unicode="&#x170;" horiz-adv-x="782" 
d="M258 824l-73 87l179 160l94 -104zM525 824l-73 87l179 160l94 -104zM403 -12q-301 0 -301 263v359q0 43 -5 56t-27 20l-15 5q-20 7 -31 16l5 81h341l6 -82q-9 -9 -27 -14l-19 -6q-23 -7 -28 -20.5t-5 -56.5v-344q0 -80 31 -117t98 -37q121 0 121 158v340q0 43 -5 56.5
t-27 20.5l-15 5q-20 7 -31 16l5 81h278l6 -82q-9 -9 -27 -14l-19 -6q-23 -7 -28 -20.5t-5 -56.5v-347q0 -132 -70.5 -203t-205.5 -71z" />
    <glyph glyph-name="uhungarumlaut" unicode="&#x171;" horiz-adv-x="699" 
d="M384 787l-198 -185l-82 74l167 194zM443 602l-82 74l167 194l113 -83zM645 91q19 -7 28 -12l-3 -79h-224v61q-59 -73 -169 -73q-91 0 -139.5 51.5t-48.5 147.5v243q0 24 -5 33.5t-19 14.5l-13 4q-22 7 -28 12l3 79h245v-374q0 -92 75 -92q36 0 58 29.5t22 82.5v211
q0 24 -5 33.5t-19 14.5l-13 4q-22 7 -28 12l3 79h245v-430q0 -22 4.5 -32t17.5 -15z" />
    <glyph glyph-name="Uogonek" unicode="&#x172;" horiz-adv-x="782" 
d="M752 788l6 -82q-9 -9 -27 -14l-19 -6q-23 -7 -28 -20.5t-5 -56.5v-347q0 -80 -24.5 -133t-83.5 -102q-78 -64 -78 -111q0 -16 9 -26t24 -10q29 0 61 32l49 -68q-58 -61 -146 -61q-65 0 -101.5 25.5t-36.5 74.5q0 63 65 105h-14q-301 0 -301 263v359q0 43 -5 56t-27 20
l-15 5q-20 7 -31 16l5 81h341l6 -82q-9 -9 -27 -14l-19 -6q-23 -7 -28 -20.5t-5 -56.5v-344q0 -80 31 -117t98 -37q121 0 121 158v340q0 43 -5 56.5t-27 20.5l-15 5q-20 7 -31 16l5 81h278z" />
    <glyph glyph-name="uogonek" unicode="&#x173;" horiz-adv-x="699" 
d="M641 -88l49 -68q-58 -61 -146 -61q-63 0 -97.5 28.5t-34.5 78.5q0 32 24.5 63t69.5 48q-44 15 -60 61q-60 -74 -169 -74q-91 0 -139.5 51.5t-48.5 147.5v243q0 24 -5 33.5t-19 14.5l-13 4q-22 7 -28 12l3 79h245v-374q0 -92 75 -92q36 0 58 29.5t22 82.5v211
q0 24 -5 33.5t-19 14.5l-13 4q-22 7 -28 12l3 79h245v-427q0 -27 4 -36.5t21 -14.5l14 -4q14 -4 21 -10l-3 -82h-10q-40 0 -74 -27.5t-34 -56.5q0 -36 29 -36q30 0 63 33z" />
    <glyph glyph-name="Wcircumflex" unicode="&#x174;" horiz-adv-x="1015" 
d="M541 929l-132 -100l-66 73l131 133h136l130 -132l-66 -74zM997 788l7 -83q-7 -6 -29 -13l-15 -5q-18 -6 -27.5 -19.5t-18.5 -46.5l-145 -621h-167l-94 421l-104 -421h-167l-139 614q-9 38 -18 51.5t-25 19.5l-14 5q-24 9 -33 16l6 82h334l9 -83q-7 -7 -27 -13l-13 -4
q-19 -6 -24 -21t1 -54l63 -317l110 492h147l100 -510l65 316q10 53 6 70t-27 23l-17 5q-23 7 -33 15l4 81h285z" />
    <glyph glyph-name="wcircumflex" unicode="&#x175;" horiz-adv-x="923" 
d="M378 618l-75 73l143 143h109l142 -143l-73 -73l-123 105zM229 0l-136 433q-7 20 -16.5 29.5t-25.5 14.5l-15 5q-20 7 -31 13l3 78h336l4 -78q-6 -4 -26 -11l-15 -5q-18 -6 -23.5 -16.5t0.5 -33.5l54 -208l94 352h133l100 -352l52 216q8 36 -14 43l-12 4q-16 6 -27 10
l3 79h249l3 -79q-10 -5 -25 -10l-14 -5q-24 -8 -37 -44l-127 -435h-161l-83 284l-82 -284h-161z" />
    <glyph glyph-name="Ycircumflex" unicode="&#x176;" horiz-adv-x="716" 
d="M378 929l-132 -100l-66 73l131 133h136l130 -132l-66 -74zM711 788l7 -83q-7 -6 -29 -13l-16 -5q-22 -6 -37 -22t-32 -52l-139 -302v-133q0 -43 5 -56t27 -20l15 -5q20 -7 31 -16l-5 -81h-341l-6 82q9 9 27 14l19 6q23 7 28 20.5t5 56.5v120l-157 319q-30 58 -57 67
l-15 5q-24 9 -33 16l7 82h330l8 -83q-7 -7 -27 -13l-13 -4q-17 -5 -18 -18t12 -40l88 -178l75 163q30 67 6 73l-15 4q-23 7 -33 15l4 81h279z" />
    <glyph glyph-name="ycircumflex" unicode="&#x177;" horiz-adv-x="647" 
d="M354 723l-123 -105l-75 73l143 143h109l142 -143l-73 -73zM640 573l3 -79q-10 -5 -28 -11l-11 -4q-28 -10 -41 -39l-160 -428q-50 -133 -101 -184.5t-124 -51.5q-75 0 -117.5 40t-42.5 99v4q0 23 10 38t28 15h118l4 -30q6 -46 34 -46q15 0 28.5 18.5t33.5 68.5l-186 461
q-11 24 -37 33l-15 5q-23 8 -31 13l3 78h336l4 -78q-12 -6 -27 -11l-19 -6q-30 -9 -17 -49l73 -225l80 233q12 36 -8 43l-12 4q-21 6 -28 10l3 79h247z" />
    <glyph glyph-name="Ydieresis" unicode="&#x178;" horiz-adv-x="716" 
d="M267 848q-37 0 -62.5 23.5t-25.5 59.5t25.5 59.5t62.5 23.5t62 -23.5t25 -59.5t-25 -59.5t-62 -23.5zM492 848q-37 0 -62.5 23.5t-25.5 59.5t25.5 59.5t62.5 23.5t62 -23.5t25 -59.5t-25 -59.5t-62 -23.5zM711 788l7 -83q-7 -6 -29 -13l-16 -5q-22 -6 -37 -22t-32 -52
l-139 -302v-133q0 -43 5 -56t27 -20l15 -5q20 -7 31 -16l-5 -81h-341l-6 82q9 9 27 14l19 6q23 7 28 20.5t5 56.5v120l-157 319q-30 58 -57 67l-15 5q-24 9 -33 16l7 82h330l8 -83q-7 -7 -27 -13l-13 -4q-17 -5 -18 -18t12 -40l88 -178l75 163q30 67 6 73l-15 4
q-23 7 -33 15l4 81h279z" />
    <glyph glyph-name="Zacute" unicode="&#x179;" horiz-adv-x="642" 
d="M501 930l-265 -100l-50 96l243 141zM530 230h87v-230h-592v103l347 569h-177q-17 0 -23 -3t-10 -16l-14 -39q-11 -29 -21 -51h-87v225h563v-98l-352 -574h211q17 0 23 3t10 16l14 41q10 31 21 54z" />
    <glyph glyph-name="zacute" unicode="&#x17a;" horiz-adv-x="581" 
d="M473 759l-235 -140l-66 86l201 168zM455 225h88v-225h-510v99l286 362h-135q-20 0 -27 -24l-25 -85h-87v221h487v-99l-286 -362h152q21 0 28 22z" />
    <glyph glyph-name="Zdotaccent" unicode="&#x17b;" horiz-adv-x="642" 
d="M334 851q-45 0 -72.5 27t-27.5 69t27.5 68.5t72.5 26.5q42 0 70 -26.5t28 -68.5q0 -41 -28 -68.5t-70 -27.5zM530 230h87v-230h-592v103l347 569h-177q-17 0 -23 -3t-10 -16l-14 -39q-11 -29 -21 -51h-87v225h563v-98l-352 -574h211q17 0 23 3t10 16l14 41q10 31 21 54z
" />
    <glyph glyph-name="zdotaccent" unicode="&#x17c;" horiz-adv-x="581" 
d="M288 634q-41 0 -70 29.5t-29 70.5q0 42 29 70.5t70 28.5q40 0 69.5 -29t29.5 -70t-29.5 -70.5t-69.5 -29.5zM455 225h88v-225h-510v99l286 362h-135q-20 0 -27 -24l-25 -85h-87v221h487v-99l-286 -362h152q21 0 28 22z" />
    <glyph glyph-name="Zcaron" unicode="&#x17d;" horiz-adv-x="642" 
d="M399 846h-136l-130 127l66 74l133 -95l132 95l66 -73zM530 230h87v-230h-592v103l347 569h-177q-17 0 -23 -3t-10 -16l-14 -39q-11 -29 -21 -51h-87v225h563v-98l-352 -574h211q17 0 23 3t10 16l14 41q10 31 21 54z" />
    <glyph glyph-name="zcaron" unicode="&#x17e;" horiz-adv-x="581" 
d="M342 636h-109l-143 139l75 73l123 -101l123 101l75 -73zM455 225h88v-225h-510v99l286 362h-135q-20 0 -27 -24l-25 -85h-87v221h487v-99l-286 -362h152q21 0 28 22z" />
    <glyph glyph-name="longs" unicode="&#x17f;" horiz-adv-x="429" 
d="M31 0l-3 79q10 5 31 12l15 5q19 7 25 16t6 31v309h-87v121h87v55q0 82 54 127t157 45q92 0 141.5 -36t49.5 -106v-5q0 -17 -7 -23q-10 -8 -25 -8h-125v37q0 47 -31 47t-31 -49v-514q0 -21 6.5 -31t24.5 -16l15 -5q21 -7 31 -12l-3 -79h-331z" />
    <glyph glyph-name="florin" unicode="&#x192;" horiz-adv-x="636" 
d="M53 -224q-79 0 -126 36.5t-47 105.5v5q0 20 7 27t26 7h121v-44q0 -43 27 -43q18 0 25.5 17.5t17.5 76.5l59 364h-99v120h120l23 145q17 105 73.5 156t161.5 51q87 0 132 -39t45 -110v-5q0 -20 -6 -26q-8 -8 -30 -8h-118v41q0 29 -5.5 41t-19.5 12q-16 0 -25 -14t-16 -52
l-33 -192h120v-120h-140l-54 -335q-19 -116 -78 -166.5t-161 -50.5z" />
    <glyph glyph-name="uni01CD" unicode="&#x1cd;" horiz-adv-x="792" 
d="M327 846l-130 127l66 74l133 -95l132 95l66 -73l-131 -128h-136zM14 0l-5 83q11 6 31 13l14 5q21 8 34 21.5t23 44.5l193 621h178l200 -610q13 -38 25 -54t29 -22l17 -6q23 -8 32 -15l-6 -81h-351l-7 83q13 5 35 11l13 4q30 10 24 49l-21 73q-3 9 -14 9h-185
q-12 0 -15 -11l-10 -35q-12 -36 -12 -56.5t18 -26.5l11 -4q21 -8 33 -15l-7 -81h-277zM306 341h120q13 0 8 16l-61 216h-14l-62 -219q-3 -13 9 -13z" />
    <glyph glyph-name="uni01CE" unicode="&#x1ce;" horiz-adv-x="638" 
d="M370 636h-109l-143 139l75 73l123 -101l123 101l75 -73zM592 93q16 -5 22 -11l-3 -82h-224v76q-20 -38 -66.5 -63t-100.5 -25q-90 0 -139 44.5t-49 115.5q0 74 52 116.5t167 63.5l91 17q17 3 23 9t6 21v17q0 47 -15.5 67.5t-48.5 20.5q-34 0 -47.5 -18.5t-13.5 -57.5v-37
h-148q-16 0 -25 12t-9 38q0 74 64.5 121t181.5 47q128 0 186 -51t58 -152v-235q0 -43 24 -50zM371 201v62q-15 -7 -45 -15l-26 -6q-45 -11 -65 -28.5t-20 -47.5t19.5 -49t52.5 -19q40 0 62 28t22 75z" />
    <glyph glyph-name="AEacute" unicode="&#x1fc;" horiz-adv-x="988" 
d="M508 830l-50 96l243 141l72 -137zM10 0l-6 80q16 10 45 21l24 9q21 8 34.5 24.5t27.5 53.5l163 429q11 29 11 39q0 11 -5.5 17t-20.5 11l-18 7q-22 9 -32 16l8 81h691v-225h-87q-10 22 -21 51l-14 39q-4 13 -10 16t-23 3h-111q-14 0 -14 -14v-187q0 -14 14 -14h42
q18 0 28 27l6 15l5 12.5t5 12t4 8.5l65 2v-263l-65 -4q-5 6 -15 32l-5 12q-13 30 -28 30h-42q-14 0 -14 -14v-197q0 -14 14 -14h124q17 0 23 3t10 16l16 45q12 35 19 51h87v-231h-561l-6 82q7 7 27 14l19 6q23 7 28 20.5t5 56.5v36q0 17 -16 17h-136q-16 0 -21 -14l-25 -64
q-9 -23 -9 -31q0 -13 21 -21l18 -7q21 -8 28 -15l-10 -80h-297zM348 344h86q23 0 23 29v299h-13l-105 -306q-3 -9 -3 -14q0 -8 12 -8z" />
    <glyph glyph-name="aeacute" unicode="&#x1fd;" horiz-adv-x="959" 
d="M434 619l-66 86l201 168l100 -114zM238 -12q-95 0 -150.5 45t-55.5 115q0 74 52 116.5t167 63.5l91 17q17 3 23 9t6 21v17q0 47 -15.5 67.5t-48.5 20.5q-34 0 -47.5 -18.5t-13.5 -57.5v-37h-148q-17 0 -25 11q-9 12 -9 39q0 74 64.5 121t181.5 47q109 0 167 -55
q69 55 167 55q154 0 229 -121q39 -63 39 -103q0 -22 -28 -40q-52 -33 -146 -67t-168 -50q-14 -3 -13 -15q4 -32 31 -56t87 -24q97 0 172 80l70 -74q-50 -62 -112.5 -94.5t-151.5 -32.5q-68 0 -126 27.5t-88 71.5q-63 -99 -201 -99zM557 303q17 0 66 14.5t83 30.5
q22 10 22 23q0 21 -14 52q-28 61 -79 61q-48 0 -71 -37.5t-23 -100.5q0 -15 2 -31q1 -12 14 -12zM287 98q40 0 62 26.5t22 72.5v66q-15 -7 -45 -15l-26 -6q-45 -11 -65 -28.5t-20 -47.5t19.5 -49t52.5 -19z" />
    <glyph glyph-name="Oslashacute" unicode="&#x1fe;" horiz-adv-x="759" 
d="M523 930l-265 -100l-50 96l243 141zM619 705q102 -108 102 -311q0 -199 -92 -302.5t-250 -103.5q-81 0 -146 27l-58 -105l-96 61l60 107q-101 104 -101 311q0 199 93 305t249 106q80 0 146 -29l58 103l96 -61zM243 398q0 -64 8 -120l207 371q-30 36 -76 36
q-139 0 -139 -287zM382 103q66 0 100 76t34 216q0 65 -7 113l-206 -369q31 -36 79 -36z" />
    <glyph glyph-name="oslashacute" unicode="&#x1ff;" horiz-adv-x="640" 
d="M494 759l-235 -140l-66 86l201 168zM516 521q96 -82 96 -234q0 -135 -81.5 -217t-210.5 -82q-54 0 -96 13l-50 -89l-93 50l49 87q-102 82 -102 238q0 136 81.5 217t213.5 81q52 0 100 -14l42 75l93 -50zM215 287q0 -39 5 -77l144 257q-16 10 -41 10q-108 0 -108 -190z
M322 96q103 0 103 191q0 40 -4 65l-139 -248q18 -8 40 -8z" />
    <glyph glyph-name="Scommaaccent" unicode="&#x218;" horiz-adv-x="649" 
d="M367 -12q-106 0 -182 47q-13 8 -14 -6l-2 -29h-126v275h134l2 -32q4 -68 44.5 -104t101.5 -36q45 0 68 22.5t23 59.5q0 34 -23 59.5t-76 57.5l-110 67q-80 49 -117 100.5t-37 124.5q0 92 70 149t176 57q79 0 128 -31q12 -8 15 5l4 24h126v-246h-134l-4 41q-9 92 -99 92
q-39 0 -61.5 -16.5t-22.5 -45.5q0 -27 22.5 -49t86.5 -61l108 -66q78 -47 111.5 -99.5t33.5 -126.5q0 -103 -73 -168t-173 -65zM326 -360l-79 57q58 43 58 78q0 10 -21.5 30.5t-21.5 49.5q0 31 23 51t60 20q42 0 69.5 -30t27.5 -78q0 -42 -31.5 -92.5t-84.5 -85.5z" />
    <glyph glyph-name="scommaaccent" unicode="&#x219;" horiz-adv-x="551" 
d="M320 -12q-99 0 -154 45q-9 7 -12 -5l-5 -28h-108v211h116l2 -27q3 -44 31 -68t78 -24q68 0 68 47q0 22 -19.5 40.5t-75.5 41.5l-60 25q-72 30 -106.5 71t-34.5 104q0 73 55.5 118.5t142.5 45.5q86 0 135 -39q9 -7 10 3l3 27h109v-185h-116l-3 18q-6 37 -30.5 56.5
t-62.5 19.5q-65 0 -65 -45q0 -23 19 -36.5t80 -39.5l59 -27q73 -36 106 -75.5t33 -99.5q0 -77 -55 -125.5t-140 -48.5zM252 -360l-79 57q58 43 58 78q0 10 -21.5 30.5t-21.5 49.5q0 31 23 51t60 20q42 0 69.5 -30t27.5 -78q0 -42 -31.5 -92.5t-84.5 -85.5z" />
    <glyph glyph-name="uni021A" unicode="&#x21a;" horiz-adv-x="728" 
d="M193 0l-6 82q9 9 27 14l19 6q23 7 28 20.5t5 56.5v479q0 14 -14 14h-63q-16 0 -21.5 -4t-10.5 -17l-15 -43q-14 -41 -22 -55h-84v235h656v-235h-85q-10 21 -21 55l-16 45q-4 13 -10 16t-23 3h-62q-14 0 -14 -14v-480q0 -43 5 -56t27 -20l15 -5q20 -7 31 -16l-5 -81h-341z
M346 -360l-79 57q58 43 58 78q0 10 -21.5 30.5t-21.5 49.5q0 31 23 51t60 20q42 0 69.5 -30t27.5 -78q0 -42 -31.5 -92.5t-84.5 -85.5z" />
    <glyph glyph-name="uni021B" unicode="&#x21b;" horiz-adv-x="461" 
d="M250 -12q-163 0 -163 146v318h-79v111l46 11q29 6 39.5 15.5t16.5 31.5l34 117h126v-165h129v-121h-129v-290q0 -42 34 -42q30 0 77 31l57 -86q-85 -77 -188 -77zM229 -360l-79 57q58 43 58 78q0 10 -21.5 30.5t-21.5 49.5q0 31 23 51t60 20q42 0 69.5 -30t27.5 -78
q0 -42 -31.5 -92.5t-84.5 -85.5z" />
    <glyph glyph-name="uni0237" unicode="&#x237;" horiz-adv-x="338" 
d="M83 -224q-92 0 -142 36.5t-50 100.5v5q0 23 8 34q9 12 30 12h120v-48q0 -44 31 -44q18 0 24.5 16.5t6.5 59.5v482q0 24 -6.5 32.5t-25.5 14.5l-15 5q-24 8 -29 12l3 79h256v-583q0 -105 -53.5 -159.5t-157.5 -54.5z" />
    <glyph glyph-name="circumflex" unicode="&#x2c6;" horiz-adv-x="400" 
d="M78 618l-75 73l143 143h109l142 -143l-73 -73l-123 105z" />
    <glyph glyph-name="caron" unicode="&#x2c7;" horiz-adv-x="400" 
d="M145 636l-143 139l75 73l123 -101l123 101l75 -73l-144 -139h-109z" />
    <glyph glyph-name="breve" unicode="&#x2d8;" horiz-adv-x="400" 
d="M199 622q-75 0 -129 46.5t-57 130.5h123q2 -32 19 -49.5t45 -17.5t45.5 17.5t19.5 49.5h121q-3 -84 -57.5 -130.5t-129.5 -46.5z" />
    <glyph glyph-name="dotaccent" unicode="&#x2d9;" horiz-adv-x="400" 
d="M200 634q-41 0 -70 29.5t-29 70.5q0 42 29 70.5t70 28.5q40 0 69.5 -29t29.5 -70t-29.5 -70.5t-69.5 -29.5z" />
    <glyph glyph-name="ring" unicode="&#x2da;" horiz-adv-x="400" 
d="M199 617q-55 0 -92.5 27.5t-37.5 79.5q0 50 37.5 79t94.5 29q54 0 92 -28t38 -79t-37 -79.5t-95 -28.5zM201 683q17 0 28 11.5t11 30.5q0 20 -12 31t-29 11t-28 -11.5t-11 -30.5t12 -30.5t29 -11.5z" />
    <glyph glyph-name="ogonek" unicode="&#x2db;" horiz-adv-x="400" 
d="M208 -217q-64 0 -100 25.5t-36 74.5q0 35 26.5 69.5t64.5 52.5h113q-63 -38 -63 -93q0 -15 8.5 -24t22.5 -9q30 0 63 33l49 -68q-58 -61 -148 -61z" />
    <glyph glyph-name="tilde" unicode="&#x2dc;" horiz-adv-x="400" 
d="M65 627l-82 58q16 57 53.5 90.5t87.5 33.5q36 0 85.5 -28.5t68.5 -28.5q41 0 60 59l79 -57q-14 -54 -49.5 -89.5t-84.5 -35.5q-42 0 -88 28t-64 28q-44 0 -66 -58z" />
    <glyph glyph-name="hungarumlaut" unicode="&#x2dd;" horiz-adv-x="400" 
d="M26 602l-82 74l167 194l113 -83zM283 602l-82 74l167 194l113 -83z" />
    <glyph glyph-name="gravecomb" unicode="&#x300;" 
d="M-108 619l-235 140l100 114l201 -168z" />
    <glyph glyph-name="acutecomb" unicode="&#x301;" 
d="M-263 619l-66 86l201 168l100 -114z" />
    <glyph glyph-name="uni0302" unicode="&#x302;" 
d="M-322 618l-75 73l143 143h109l142 -143l-73 -73l-123 105z" />
    <glyph glyph-name="tildecomb" unicode="&#x303;" 
d="M-335 627l-82 58q16 57 53.5 90.5t87.5 33.5q36 0 85.5 -28.5t68.5 -28.5q41 0 60 59l79 -57q-14 -54 -49.5 -89.5t-84.5 -35.5q-42 0 -88 28t-64 28q-44 0 -66 -58z" />
    <glyph glyph-name="uni0304" unicode="&#x304;" 
d="M-395 645v117h390v-117h-390z" />
    <glyph glyph-name="uni0306" unicode="&#x306;" 
d="M-201 622q-75 0 -129 46.5t-57 130.5h123q2 -32 19 -49.5t45 -17.5t45.5 17.5t19.5 49.5h121q-3 -84 -57.5 -130.5t-129.5 -46.5z" />
    <glyph glyph-name="uni0307" unicode="&#x307;" 
d="M-200 634q-41 0 -70 29.5t-29 70.5q0 42 29 70.5t70 28.5q40 0 69.5 -29t29.5 -70t-29.5 -70.5t-69.5 -29.5z" />
    <glyph glyph-name="uni0308" unicode="&#x308;" 
d="M-313 639q-35 0 -60.5 25.5t-25.5 60.5t25.5 60.5t60.5 25.5t60.5 -25.5t25.5 -60.5t-25.5 -60.5t-60.5 -25.5zM-87 639q-35 0 -60.5 25.5t-25.5 60.5t25.5 60.5t60.5 25.5t60.5 -25.5t25.5 -60.5t-25.5 -60.5t-60.5 -25.5z" />
    <glyph glyph-name="uni030A" unicode="&#x30a;" 
d="M-201 617q-55 0 -92.5 27.5t-37.5 79.5q0 50 37.5 79t94.5 29q54 0 92 -28t38 -79t-37 -79.5t-95 -28.5zM-199 683q17 0 28 11.5t11 30.5q0 20 -12 31t-29 11t-28 -11.5t-11 -30.5t12 -30.5t29 -11.5z" />
    <glyph glyph-name="uni030B" unicode="&#x30b;" 
d="M-374 602l-82 74l167 194l113 -83zM-117 602l-82 74l167 194l113 -83z" />
    <glyph glyph-name="uni030C" unicode="&#x30c;" 
d="M-255 636l-143 139l75 73l123 -101l123 101l75 -73l-144 -139h-109z" />
    <glyph glyph-name="uni0315" unicode="&#x315;" 
d="M-205 519l-72 54q53 45 53 78q0 12 -19 35.5t-19 49.5q0 28 22 46t53 18q39 0 63.5 -26t24.5 -71q0 -44 -28 -94.5t-78 -89.5z" />
    <glyph glyph-name="uni0326" unicode="&#x326;" 
d="M-215 -360l-79 57q58 43 58 78q0 10 -21.5 30.5t-21.5 49.5q0 31 23 51t60 20q42 0 69.5 -30t27.5 -78q0 -42 -31.5 -92.5t-84.5 -85.5z" />
    <glyph glyph-name="uni0327" unicode="&#x327;" 
d="M-199 -227q-80 0 -133 34l28 76q39 -26 73 -26t34 29q0 36 -73 46l32 70h85l-12 -27q47 -11 74.5 -38.5t27.5 -66.5q0 -41 -35 -69t-101 -28z" />
    <glyph glyph-name="uni0328" unicode="&#x328;" 
d="M-192 -217q-64 0 -100 25.5t-36 74.5q0 35 26.5 69.5t64.5 52.5h113q-63 -38 -63 -93q0 -15 8.5 -24t22.5 -9q30 0 63 33l49 -68q-58 -61 -148 -61z" />
    <glyph glyph-name="uni0394" unicode="&#x394;" horiz-adv-x="772" 
d="M480 788l272 -788h-732l282 788h178zM364 592l-158 -471h312z" />
    <glyph glyph-name="uni03A9" unicode="&#x3a9;" horiz-adv-x="786" 
d="M603 121h157v-121h-327v104q120 105 120 318q0 263 -158 263q-74 0 -118 -65.5t-44 -197.5q0 -112 28 -189t93 -129v-104h-328v121h149q-146 113 -146 306q0 166 104 269.5t264 103.5t260 -103t100 -270q0 -183 -154 -306z" />
    <glyph glyph-name="uni03BC" unicode="&#x3bc;" horiz-adv-x="715" 
d="M662 120l45 -56q-51 -76 -143 -76q-85 0 -118 61q-43 -61 -111 -61q-39 0 -69 21v-221h-177v642q0 24 -5 33.5t-19 14.5l-13 4q-22 7 -28 12l3 79h245v-378q0 -40 19.5 -63.5t53.5 -23.5q39 0 60.5 30t21.5 85v207q0 24 -5 33.5t-19 14.5l-13 4q-22 7 -28 12l3 79h245
v-443q0 -27 20 -27q17 0 32 17z" />
    <glyph glyph-name="pi" unicode="&#x3c0;" horiz-adv-x="730" 
d="M538 -12q-131 0 -131 133v331h-129v-452h-183v452h-80v121h657v-121h-82v-314q0 -32 25 -32q19 0 35 16l46 -53q-57 -81 -158 -81z" />
    <glyph glyph-name="Wgrave" unicode="&#x1e80;" horiz-adv-x="1015" 
d="M680 926l-50 -96l-265 100l72 137zM997 788l7 -83q-7 -6 -29 -13l-15 -5q-18 -6 -27.5 -19.5t-18.5 -46.5l-145 -621h-167l-94 421l-104 -421h-167l-139 614q-9 38 -18 51.5t-25 19.5l-14 5q-24 9 -33 16l6 82h334l9 -83q-7 -7 -27 -13l-13 -4q-19 -6 -24 -21t1 -54
l63 -317l110 492h147l100 -510l65 316q10 53 6 70t-27 23l-17 5q-23 7 -33 15l4 81h285z" />
    <glyph glyph-name="wgrave" unicode="&#x1e81;" horiz-adv-x="923" 
d="M563 619l-235 140l100 114l201 -168zM229 0l-136 433q-7 20 -16.5 29.5t-25.5 14.5l-15 5q-20 7 -31 13l3 78h336l4 -78q-6 -4 -26 -11l-15 -5q-18 -6 -23.5 -16.5t0.5 -33.5l54 -208l94 352h133l100 -352l52 216q8 36 -14 43l-12 4q-16 6 -27 10l3 79h249l3 -79
q-10 -5 -25 -10l-14 -5q-24 -8 -37 -44l-127 -435h-161l-83 284l-82 -284h-161z" />
    <glyph glyph-name="Wacute" unicode="&#x1e82;" horiz-adv-x="1015" 
d="M711 930l-265 -100l-50 96l243 141zM997 788l7 -83q-7 -6 -29 -13l-15 -5q-18 -6 -27.5 -19.5t-18.5 -46.5l-145 -621h-167l-94 421l-104 -421h-167l-139 614q-9 38 -18 51.5t-25 19.5l-14 5q-24 9 -33 16l6 82h334l9 -83q-7 -7 -27 -13l-13 -4q-19 -6 -24 -21t1 -54
l63 -317l110 492h147l100 -510l65 316q10 53 6 70t-27 23l-17 5q-23 7 -33 15l4 81h285z" />
    <glyph glyph-name="wacute" unicode="&#x1e83;" horiz-adv-x="923" 
d="M451 619l-66 86l201 168l100 -114zM229 0l-136 433q-7 20 -16.5 29.5t-25.5 14.5l-15 5q-20 7 -31 13l3 78h336l4 -78q-6 -4 -26 -11l-15 -5q-18 -6 -23.5 -16.5t0.5 -33.5l54 -208l94 352h133l100 -352l52 216q8 36 -14 43l-12 4q-16 6 -27 10l3 79h249l3 -79
q-10 -5 -25 -10l-14 -5q-24 -8 -37 -44l-127 -435h-161l-83 284l-82 -284h-161z" />
    <glyph glyph-name="Wdieresis" unicode="&#x1e84;" horiz-adv-x="1015" 
d="M430 848q-37 0 -62.5 23.5t-25.5 59.5t25.5 59.5t62.5 23.5t62 -23.5t25 -59.5t-25 -59.5t-62 -23.5zM655 848q-37 0 -62.5 23.5t-25.5 59.5t25.5 59.5t62.5 23.5t62 -23.5t25 -59.5t-25 -59.5t-62 -23.5zM997 788l7 -83q-7 -6 -29 -13l-15 -5q-18 -6 -27.5 -19.5
t-18.5 -46.5l-145 -621h-167l-94 421l-104 -421h-167l-139 614q-9 38 -18 51.5t-25 19.5l-14 5q-24 9 -33 16l6 82h334l9 -83q-7 -7 -27 -13l-13 -4q-19 -6 -24 -21t1 -54l63 -317l110 492h147l100 -510l65 316q10 53 6 70t-27 23l-17 5q-23 7 -33 15l4 81h285z" />
    <glyph glyph-name="wdieresis" unicode="&#x1e85;" horiz-adv-x="923" 
d="M388 639q-35 0 -60.5 25.5t-25.5 60.5t25.5 60.5t60.5 25.5t60.5 -25.5t25.5 -60.5t-25.5 -60.5t-60.5 -25.5zM614 639q-35 0 -60.5 25.5t-25.5 60.5t25.5 60.5t60.5 25.5t60.5 -25.5t25.5 -60.5t-25.5 -60.5t-60.5 -25.5zM229 0l-136 433q-7 20 -16.5 29.5t-25.5 14.5
l-15 5q-20 7 -31 13l3 78h336l4 -78q-6 -4 -26 -11l-15 -5q-18 -6 -23.5 -16.5t0.5 -33.5l54 -208l94 352h133l100 -352l52 216q8 36 -14 43l-12 4q-16 6 -27 10l3 79h249l3 -79q-10 -5 -25 -10l-14 -5q-24 -8 -37 -44l-127 -435h-161l-83 284l-82 -284h-161z" />
    <glyph glyph-name="uni1E9E" unicode="&#x1e9e;" horiz-adv-x="795" 
d="M601 -12q-80 0 -133 41q-12 9 -14 -5l-3 -24h-98v218h116l3 -37q6 -79 68 -79q26 0 39.5 15.5t13.5 40.5q0 30 -23 51.5t-86 56.5q-29 16 -45.5 27.5t-36.5 29t-29 40t-9 49.5q0 38 20.5 67t44.5 44t44.5 39.5t20.5 54.5t-21 49t-58 19q-55 0 -82 -39.5t-27 -103.5v-542
h-268l-6 82q8 8 27 14l19 6q19 6 26 16.5t7 40.5v368q0 132 80 202.5t227 70.5q118 0 195.5 -53t77.5 -127q0 -39 -20.5 -69.5t-45.5 -45.5t-45.5 -31.5t-20.5 -31.5q0 -16 13.5 -27t62.5 -38q145 -82 145 -202q0 -79 -52 -133t-127 -54z" />
    <glyph glyph-name="Ygrave" unicode="&#x1ef2;" horiz-adv-x="716" 
d="M517 926l-50 -96l-265 100l72 137zM711 788l7 -83q-7 -6 -29 -13l-16 -5q-22 -6 -37 -22t-32 -52l-139 -302v-133q0 -43 5 -56t27 -20l15 -5q20 -7 31 -16l-5 -81h-341l-6 82q9 9 27 14l19 6q23 7 28 20.5t5 56.5v120l-157 319q-30 58 -57 67l-15 5q-24 9 -33 16l7 82
h330l8 -83q-7 -7 -27 -13l-13 -4q-17 -5 -18 -18t12 -40l88 -178l75 163q30 67 6 73l-15 4q-23 7 -33 15l4 81h279z" />
    <glyph glyph-name="ygrave" unicode="&#x1ef3;" horiz-adv-x="647" 
d="M482 705l-66 -86l-235 140l100 114zM640 573l3 -79q-10 -5 -28 -11l-11 -4q-28 -10 -41 -39l-160 -428q-50 -133 -101 -184.5t-124 -51.5q-75 0 -117.5 40t-42.5 99v4q0 23 10 38t28 15h118l4 -30q6 -46 34 -46q15 0 28.5 18.5t33.5 68.5l-186 461q-11 24 -37 33l-15 5
q-23 8 -31 13l3 78h336l4 -78q-12 -6 -27 -11l-19 -6q-30 -9 -17 -49l73 -225l80 233q12 36 -8 43l-12 4q-21 6 -28 10l3 79h247z" />
    <glyph glyph-name="uni2002" unicode="&#x2002;" horiz-adv-x="680" 
 />
    <glyph glyph-name="uni2003" unicode="&#x2003;" horiz-adv-x="980" 
 />
    <glyph glyph-name="uni2009" unicode="&#x2009;" horiz-adv-x="196" 
 />
    <glyph glyph-name="uni200A" unicode="&#x200a;" horiz-adv-x="61" 
 />
    <glyph glyph-name="endash" unicode="&#x2013;" horiz-adv-x="680" 
d="M40 237v126h600v-126h-600z" />
    <glyph glyph-name="emdash" unicode="&#x2014;" horiz-adv-x="980" 
d="M40 237v126h900v-126h-900z" />
    <glyph glyph-name="quoteleft" unicode="&#x2018;" horiz-adv-x="249" 
d="M130 475q-42 0 -68 27.5t-26 79.5q0 115 114 218l65 -49q-62 -62 -62 -95q0 -13 13.5 -27t27.5 -34t14 -48q0 -30 -22.5 -51t-55.5 -21z" />
    <glyph glyph-name="quoteright" unicode="&#x2019;" horiz-adv-x="249" 
d="M99 475l-65 49q62 62 62 95q0 13 -14 27t-27.5 34t-13.5 48q0 30 22.5 51t55.5 21q42 0 68 -27.5t26 -79.5q0 -115 -114 -218z" />
    <glyph glyph-name="quotesinglbase" unicode="&#x201a;" horiz-adv-x="249" 
d="M99 -149l-65 49q62 62 62 95q0 13 -14 27t-27.5 34t-13.5 48q0 30 22.5 51t55.5 21q42 0 68 -27.5t26 -79.5q0 -115 -114 -218z" />
    <glyph glyph-name="quotedblleft" unicode="&#x201c;" horiz-adv-x="479" 
d="M130 475q-42 0 -68 27.5t-26 79.5q0 115 114 218l65 -49q-62 -62 -62 -95q0 -13 13.5 -27t27.5 -34t14 -48q0 -30 -22.5 -51t-55.5 -21zM360 475q-42 0 -68 27.5t-26 79.5q0 115 114 218l65 -49q-62 -62 -62 -95q0 -13 13.5 -27t27.5 -34t14 -48q0 -30 -22.5 -51
t-55.5 -21z" />
    <glyph glyph-name="quotedblright" unicode="&#x201d;" horiz-adv-x="479" 
d="M99 475l-65 49q62 62 62 95q0 13 -14 27t-27.5 34t-13.5 48q0 30 22.5 51t55.5 21q42 0 68 -27.5t26 -79.5q0 -115 -114 -218zM329 475l-65 49q62 62 62 95q0 13 -14 27t-27.5 34t-13.5 48q0 30 22.5 51t55.5 21q42 0 68 -27.5t26 -79.5q0 -115 -114 -218z" />
    <glyph glyph-name="quotedblbase" unicode="&#x201e;" horiz-adv-x="479" 
d="M99 -149l-65 49q62 62 62 95q0 13 -14 27t-27.5 34t-13.5 48q0 30 22.5 51t55.5 21q42 0 68 -27.5t26 -79.5q0 -115 -114 -218zM329 -149l-65 49q62 62 62 95q0 13 -14 27t-27.5 34t-13.5 48q0 30 22.5 51t55.5 21q42 0 68 -27.5t26 -79.5q0 -115 -114 -218z" />
    <glyph glyph-name="dagger" unicode="&#x2020;" horiz-adv-x="602" 
d="M246 87l-26 239l22 99l-192 -14v135l192 -13l-21 97l14 93h129l13 -93l-19 -97l194 13v-135l-194 14l20 -100l-25 -238h-107z" />
    <glyph glyph-name="daggerdbl" unicode="&#x2021;" horiz-adv-x="602" 
d="M235 -2l-14 93l21 89l-192 -16v136l202 -16l-28 76l18 73l-192 -14v135l192 -13l-21 89l14 93h129l13 -93l-19 -89l194 13v-135l-194 14l17 -74l-26 -75l203 16v-136l-194 16l19 -89l-13 -93h-129z" />
    <glyph glyph-name="bullet" unicode="&#x2022;" horiz-adv-x="622" 
d="M311 79q-95 0 -163 68t-68 163t68 163t163 68t163 -68t68 -163t-68 -163t-163 -68z" />
    <glyph glyph-name="ellipsis" unicode="&#x2026;" horiz-adv-x="861" 
d="M142 -10q-43 0 -72.5 29t-29.5 72q0 42 29.5 71t72.5 29q42 0 71 -29t29 -71q0 -43 -29 -72t-71 -29zM429 -10q-43 0 -72.5 29t-29.5 72q0 42 29.5 71t72.5 29q42 0 71 -29t29 -71q0 -43 -29 -72t-71 -29zM716 -10q-43 0 -72.5 29t-29.5 72q0 42 29.5 71t72.5 29
q42 0 71 -29t29 -71q0 -43 -29 -72t-71 -29z" />
    <glyph glyph-name="perthousand" unicode="&#x2030;" horiz-adv-x="1329" 
d="M219 -29l-96 59l544 787l96 -59zM225 420q-79 0 -127 39q-63 52 -63 151t58 148q49 42 135 42t137 -45q55 -49 55 -143q0 -97 -60 -149q-52 -43 -135 -43zM230 501q27 0 42 26q13 23 13 84q0 65 -13 86q-14 22 -41 22q-30 0 -46 -25q-15 -25 -15 -82q0 -61 14 -86t46 -25
zM663 -12q-79 0 -127 39q-63 52 -63 151t58 148q49 42 135 42t137 -45q55 -49 55 -143q0 -100 -60 -149q-52 -43 -135 -43zM1099 -12q-79 0 -127 39q-63 52 -63 151t58 148q49 42 135 42t137 -45q55 -49 55 -143q0 -100 -60 -149q-52 -43 -135 -43zM668 69q27 0 42 26
q13 23 13 84q0 65 -13 86q-14 22 -41 22q-30 0 -46 -25q-15 -25 -15 -82q0 -61 14 -86t46 -25zM1104 69q27 0 42 26q13 23 13 84q0 65 -13 86q-14 22 -41 22q-30 0 -46 -25q-15 -25 -15 -82q0 -61 14 -86t46 -25z" />
    <glyph glyph-name="guilsinglleft" unicode="&#x2039;" horiz-adv-x="337" 
d="M172 90l-118 205q-8 14 0 29l120 205l88 -31l-85 -184l85 -191z" />
    <glyph glyph-name="guilsinglright" unicode="&#x203a;" horiz-adv-x="337" 
d="M165 90l-90 33l85 191l-85 184l88 31l120 -205q8 -15 0 -29z" />
    <glyph glyph-name="fraction" unicode="&#x2044;" horiz-adv-x="486" 
d="M42 -31l-107 79l509 783l107 -75z" />
    <glyph glyph-name="Euro" unicode="&#x20ac;" horiz-adv-x="779" 
d="M648 260l113 -43q-30 -106 -104 -167.5t-186 -61.5q-255 0 -317 245h-114v109h98q-2 32 -2 50v25h-96v109h110q30 131 114.5 202.5t203.5 71.5q78 0 128 -30q12 -8 15 3l4 21h123v-258h-128l-6 35q-19 114 -112 114q-51 0 -87.5 -40t-52.5 -119h168v-109h-179v-19
q0 -20 2 -56h177v-109h-161q35 -127 136 -127q48 0 88.5 40.5t64.5 113.5z" />
    <glyph glyph-name="uni2113" unicode="&#x2113;" horiz-adv-x="366" 
d="M20 0l-3 79q10 5 31 12l15 5q19 7 25 16t6 31v502q0 24 -6.5 32.5t-25.5 14.5l-15 5q-24 8 -29 12l3 79h256v-645q0 -21 6.5 -31t24.5 -16l15 -5q21 -7 31 -12l-3 -79h-331z" />
    <glyph glyph-name="uni2116" unicode="&#x2116;" horiz-adv-x="1256" 
d="M1036 423q-86 0 -140 51.5t-54 137.5q0 85 55.5 136.5t140.5 51.5q87 0 140 -51t53 -137t-55 -137.5t-140 -51.5zM44 0l-6 82q9 9 27 14l19 6q23 7 28 20.5t5 56.5v432q0 44 -5 56t-29 20l-20 7q-15 5 -24 14l5 80h252l280 -470v291q0 43 -5 56.5t-27 20.5l-15 5
q-20 7 -31 16l5 81h278l6 -82q-9 -9 -27 -14l-19 -6q-23 -7 -28 -20.5t-5 -56.5v-609h-153l-306 508v-329q0 -43 5 -56.5t27 -20.5l15 -5q20 -7 31 -16l-5 -81h-278zM1039 499q31 0 45 26.5t14 86.5q0 112 -59 112q-63 0 -63 -112q0 -60 15 -86.5t48 -26.5zM851 293v83h371
v-83h-371z" />
    <glyph glyph-name="trademark" unicode="&#x2122;" horiz-adv-x="1086" 
d="M133 429l-5 52q9 5 14 6l10 3q21 6 21 35v187q0 7 -8 7h-45q-15 0 -18 -12l-5 -26q-4 -18 -12 -35h-60v142h420v-143h-60q-9 22 -11 33l-6 29q-3 12 -18 12h-43q-8 0 -8 -7v-188q0 -29 18 -34l11 -3q13 -5 16 -7l-5 -51h-206zM490 429l-3 52q1 0 2 1t4.5 2.5t10.5 3.5
l10 3q11 3 14 9t3 24v163q0 35 -18 40l-9 2q-16 7 -17 7l3 52h207l75 -145l76 145h205l3 -52q-6 -3 -16 -6l-12 -3q-10 -2 -13.5 -9t-3.5 -25v-168q0 -18 3.5 -24t13.5 -9l9 -3q14 -5 19 -8l-3 -52h-211l-4 53q6 4 18 7l10 3q10 3 13.5 9t3.5 24v141l-82 -154h-90l-82 158
v-146q0 -17 3.5 -23t13.5 -10l8 -3q12 -4 19 -8l-2 -51h-181z" />
    <glyph glyph-name="uni2126" unicode="&#x2126;" horiz-adv-x="786" 
d="M603 121h157v-121h-327v104q120 105 120 318q0 263 -158 263q-74 0 -118 -65.5t-44 -197.5q0 -112 28 -189t93 -129v-104h-328v121h149q-146 113 -146 306q0 166 104 269.5t264 103.5t260 -103t100 -270q0 -183 -154 -306z" />
    <glyph glyph-name="estimated" unicode="&#x212e;" horiz-adv-x="960" 
d="M480 -16q-159 0 -271.5 103t-112.5 249t112.5 249t271.5 103t271.5 -103t112.5 -249q0 -11 -1 -16h-623v-196q44 -51 106.5 -79.5t133.5 -28.5q147 0 243 112h66q-54 -67 -135 -105.5t-174 -38.5zM240 352h480v196q-97 108 -240 108q-145 0 -240 -108v-196z" />
    <glyph glyph-name="arrowleft" unicode="&#x2190;" horiz-adv-x="961" 
d="M351 57l-321 321l321 321l85 -82l-182 -177h672v-124h-672l182 -177z" />
    <glyph glyph-name="arrowup" unicode="&#x2191;" horiz-adv-x="722" 
d="M299 -60v672l-177 -182l-82 85l321 321l321 -321l-82 -85l-177 182v-672h-124z" />
    <glyph glyph-name="arrowright" unicode="&#x2192;" horiz-adv-x="961" 
d="M30 316v124h672l-182 177l85 82l321 -321l-321 -321l-85 82l182 177h-672z" />
    <glyph glyph-name="arrowdown" unicode="&#x2193;" horiz-adv-x="722" 
d="M361 -60l-321 321l82 85l177 -182v672h124v-672l177 182l82 -85z" />
    <glyph glyph-name="partialdiff" unicode="&#x2202;" horiz-adv-x="657" 
d="M307 -12q-129 0 -204 72t-75 190q0 139 83 227.5t197 88.5q70 0 125 -39q-37 141 -195 236l65 82q326 -162 326 -489q0 -164 -84.5 -266t-237.5 -102zM312 93q53 0 82 70t29 156q0 139 -73 139q-55 0 -86 -69t-31 -151q0 -145 79 -145z" />
    <glyph glyph-name="uni2206" unicode="&#x2206;" horiz-adv-x="772" 
d="M480 788l272 -788h-732l282 788h178zM364 592l-158 -471h312z" />
    <glyph glyph-name="product" unicode="&#x220f;" horiz-adv-x="827" 
d="M44 -111l-6 82q9 9 27 14l19 6q23 7 28 20.5t5 56.5v600h-97v120h787v-120h-97v-601q0 -43 5 -56t27 -20l15 -5q20 -7 31 -16l-5 -81h-341l-6 82q9 9 27 14l19 6q23 7 28 20.5t5 56.5v600h-203v-601q0 -43 5 -56t27 -20l15 -5q20 -7 31 -16l-5 -81h-341z" />
    <glyph glyph-name="summation" unicode="&#x2211;" horiz-adv-x="648" 
d="M46 -111v113l233 338l-225 307v141h554v-225h-87q-10 22 -21 51l-14 39q-4 13 -10 16t-23 3h-185l209 -303l-239 -336h222q17 0 23 3.5t10 15.5l15 49q14 44 23 61h87v-273h-572z" />
    <glyph glyph-name="minus" unicode="&#x2212;" horiz-adv-x="625" 
d="M31 257v127h563v-127h-563z" />
    <glyph glyph-name="radical" unicode="&#x221a;" horiz-adv-x="664" 
d="M552 835l122 -32l-275 -803h-163l-133 432q-7 23 -15 31.5t-23 13.5l-16 5q-18 6 -30 12l3 79h223l99 -353z" />
    <glyph glyph-name="infinity" unicode="&#x221e;" horiz-adv-x="819" 
d="M610 149q-105 0 -205 97q-94 -89 -199 -89q-78 0 -129.5 49t-51.5 130q0 76 54 128.5t136 52.5q97 0 199 -91q88 83 196 83q81 0 132.5 -51t51.5 -133q0 -74 -51 -125t-133 -51zM215 278q61 0 116 58q-53 64 -112 64q-28 0 -49 -15.5t-21 -44.5q0 -31 20 -46.5t46 -15.5z
M605 265q65 0 65 61q0 30 -18.5 45.5t-47.5 15.5q-54 0 -107 -59q50 -63 108 -63z" />
    <glyph glyph-name="integral" unicode="&#x222b;" horiz-adv-x="645" 
d="M166 -224q-79 0 -132 37.5t-53 104.5v5q0 20 7 27t25 7h128v-35q0 -28 6.5 -40t22.5 -12q12 0 18 7t9.5 31t3.5 72v611q0 105 61.5 157t156.5 52q85 0 138.5 -38.5t53.5 -106.5v-5q0 -20 -6 -26q-8 -8 -30 -8h-121v37q0 53 -31 53q-21 0 -30 -20.5t-9 -73.5v-596
q0 -125 -58.5 -182.5t-159.5 -57.5z" />
    <glyph glyph-name="approxequal" unicode="&#x2248;" horiz-adv-x="625" 
d="M427 346q-46 0 -85.5 18.5t-72.5 37t-63 18.5q-66 0 -114 -73l-83 79q30 53 82.5 87.5t116.5 34.5q44 0 82.5 -18.5t73 -37t68.5 -18.5q57 0 107 70l78 -79q-29 -51 -78 -85t-112 -34zM427 105q-45 0 -85 18.5t-73 37t-63 18.5q-66 0 -114 -73l-83 79q30 53 82.5 87.5
t116.5 34.5q44 0 82.5 -18.5t73 -37t68.5 -18.5q57 0 107 70l78 -79q-29 -51 -78 -85t-112 -34z" />
    <glyph glyph-name="notequal" unicode="&#x2260;" horiz-adv-x="625" 
d="M594 384h-174l-79 -127h253v-127h-332l-92 -147l-97 61l54 86h-96v127h175l79 127h-254v127h334l92 148l97 -61l-54 -87h94v-127z" />
    <glyph glyph-name="lessequal" unicode="&#x2264;" horiz-adv-x="625" 
d="M586 284l-44 -113l-498 202v128l495 206l44 -113l-395 -156zM31 127h563v-127h-563v127z" />
    <glyph glyph-name="greaterequal" unicode="&#x2265;" horiz-adv-x="625" 
d="M83 170l-44 113l398 154l-395 156l44 113l495 -206v-128zM31 127h563v-127h-563v127z" />
    <glyph glyph-name="dotmath" unicode="&#x22c5;" horiz-adv-x="512" 
d="M257 204q-45 0 -76 31t-31 76q0 44 31 74.5t76 30.5q44 0 74.5 -30.5t30.5 -74.5q0 -45 -30.5 -76t-74.5 -31z" />
    <glyph glyph-name="lozenge" unicode="&#x25ca;" horiz-adv-x="673" 
d="M290 -21l-280 406l285 403h96l272 -403l-284 -406h-89zM342 140l167 234l-175 257l-168 -232z" />
    <glyph glyph-name="uniF8FF" unicode="&#xf8ff;" horiz-adv-x="934" 
d="M218 -42q-15 0 -26 9.5t-11 25.5q0 7 5 22l84 257l-219 159q-23 16 -23 37q0 17 11.5 26.5t29.5 9.5h276l84 259q12 33 38 33t38 -33l84 -259h276q18 0 29.5 -9.5t11.5 -26.5q0 -21 -23 -37l-219 -159l84 -257q5 -15 5 -22q0 -16 -11 -25.5t-26 -9.5q-14 0 -31 12
l-218 159l-218 -159q-17 -12 -31 -12zM223 0l244 178l244 -178l-93 287v1l242 176h-300l-93 287l-93 -287h-300l242 -176v-1z" />
    <glyph glyph-name="uni00A40301" horiz-adv-x="598" 
d="M304 830l-50 96l243 141l72 -137zM268 -12q-120 0 -177 49t-57 149q0 44 42 44h155v-85q0 -51 36 -51q33 0 33 77v439q0 43 -5 56t-27 20l-15 5q-20 7 -31 16l5 81h341l6 -82q-9 -9 -27 -14l-19 -6q-23 -7 -28 -20.5t-5 -56.5v-389q0 -121 -55 -176.5t-172 -55.5z" />
    <glyph glyph-name="Cacute.loclPLK" horiz-adv-x="687" 
d="M388 843l-95 58l126 218l132 -87zM373 -12q-165 0 -250 104.5t-85 299.5q0 191 92 299.5t240 108.5q78 0 128 -30q12 -8 15 3l4 21h123v-258h-128l-6 35q-19 114 -112 114q-69 0 -110 -73t-41 -214q0 -292 154 -292q48 0 88.5 40.5t64.5 113.5l113 -43
q-30 -106 -104 -167.5t-186 -61.5z" />
    <glyph glyph-name="Nacute.loclPLK" horiz-adv-x="817" 
d="M430 843l-95 58l126 218l132 -87zM44 0l-6 82q9 9 27 14l19 6q23 7 28 20.5t5 56.5v432q0 44 -5 56t-29 20l-20 7q-15 5 -24 14l5 80h252l280 -470v291q0 43 -5 56.5t-27 20.5l-15 5q-20 7 -31 16l5 81h278l6 -82q-9 -9 -27 -14l-19 -6q-23 -7 -28 -20.5t-5 -56.5v-609
h-153l-306 508v-329q0 -43 5 -56.5t27 -20.5l15 -5q20 -7 31 -16l-5 -81h-278z" />
    <glyph glyph-name="Oacute.loclPLK" horiz-adv-x="759" 
d="M396 843l-95 58l126 218l132 -87zM379 -12q-159 0 -250 101t-91 300t93 305t249 106q155 0 248 -104.5t93 -301.5q0 -199 -92 -302.5t-250 -103.5zM382 103q66 0 100 76t34 216q0 290 -134 290q-139 0 -139 -287q0 -295 139 -295z" />
    <glyph glyph-name="Sacute.loclPLK" horiz-adv-x="649" 
d="M339 843l-95 58l126 218l132 -87zM367 -12q-106 0 -182 47q-13 8 -14 -6l-2 -29h-126v275h134l2 -32q4 -68 44.5 -104t101.5 -36q45 0 68 22.5t23 59.5q0 34 -23 59.5t-76 57.5l-110 67q-80 49 -117 100.5t-37 124.5q0 92 70 149t176 57q79 0 128 -31q12 -8 15 5l4 24
h126v-246h-134l-4 41q-9 92 -99 92q-39 0 -61.5 -16.5t-22.5 -45.5q0 -27 22.5 -49t86.5 -61l108 -66q78 -47 111.5 -99.5t33.5 -126.5q0 -103 -73 -168t-173 -65z" />
    <glyph glyph-name="Zacute.loclPLK" horiz-adv-x="642" 
d="M511 1032l-163 -189l-95 58l126 218zM530 230h87v-230h-592v103l347 569h-177q-17 0 -23 -3t-10 -16l-14 -39q-11 -29 -21 -51h-87v225h563v-98l-352 -574h211q17 0 23 3t10 16l14 41q10 31 21 54z" />
    <glyph glyph-name="i.loclTRK" horiz-adv-x="363" 
d="M182 622q-44 0 -74.5 29t-30.5 71q0 43 30 71t75 28q44 0 73.5 -28t29.5 -71q0 -42 -29.5 -71t-73.5 -29zM25 0l-3 79q10 5 31 12l15 5q19 7 25 16t6 31v287q0 24 -6.5 32.5t-25.5 14.5l-15 5q-24 8 -29 12l3 79h256v-430q0 -21 6.5 -31t24.5 -16l15 -5q21 -7 31 -12
l-3 -79h-331z" />
    <glyph glyph-name="uni006A0301" horiz-adv-x="338" 
d="M162 611l-84 70l168 192l108 -109zM83 -224q-92 0 -142 36.5t-50 100.5v5q0 23 8 34q9 12 30 12h120v-48q0 -44 31 -44q18 0 24.5 16.5t6.5 59.5v482q0 24 -6.5 32.5t-25.5 14.5l-15 5q-24 8 -29 12l3 79h256v-583q0 -105 -53.5 -159.5t-157.5 -54.5z" />
    <glyph glyph-name="germandbls.calt" horiz-adv-x="795" 
d="M601 -12q-80 0 -133 41q-12 9 -14 -5l-3 -24h-98v218h116l3 -37q6 -79 68 -79q26 0 39.5 15.5t13.5 40.5q0 30 -23 51.5t-86 56.5q-29 16 -45.5 27.5t-36.5 29t-29 40t-9 49.5q0 38 20.5 67t44.5 44t44.5 39.5t20.5 54.5t-21 49t-58 19q-55 0 -82 -39.5t-27 -103.5v-542
h-268l-6 82q8 8 27 14l19 6q19 6 26 16.5t7 40.5v368q0 132 80 202.5t227 70.5q118 0 195.5 -53t77.5 -127q0 -39 -20.5 -69.5t-45.5 -45.5t-45.5 -31.5t-20.5 -31.5q0 -16 13.5 -27t62.5 -38q145 -82 145 -202q0 -79 -52 -133t-127 -54z" />
    <glyph glyph-name="cacute.loclPLK" horiz-adv-x="583" 
d="M306 623l-87 65l140 202l122 -90zM314 -12q-127 0 -206.5 78t-79.5 223q0 137 77 216.5t195 79.5q62 0 107 -26q12 -7 15 6l3 17h112v-235h-114l-2 22q-11 110 -90 110q-53 0 -84.5 -44t-31.5 -135q0 -96 37.5 -143.5t97.5 -47.5q67 0 136 71l68 -72q-90 -120 -240 -120z
" />
    <glyph glyph-name="nacute.loclPLK" horiz-adv-x="699" 
d="M530 800l-175 -177l-87 65l140 202zM648 91q11 -4 27 -12l-3 -79h-240v349q0 54 -15 80.5t-52 26.5q-87 0 -87 -143v-170q0 -21 6.5 -31t24.5 -16l15 -5q21 -7 31 -12l-3 -79h-331l-3 79q10 5 31 12l15 5q19 7 25 16t6 31v287q0 24 -6.5 32.5t-25.5 14.5l-15 5
q-24 8 -29 12l3 79h248v-55q73 67 165 67q82 0 131 -51t49 -141v-250q0 -25 4.5 -34t17.5 -14z" />
    <glyph glyph-name="oacute.loclPLK" horiz-adv-x="640" 
d="M321 623l-87 65l140 202l122 -90zM320 -12q-132 0 -212 81.5t-80 217.5t81.5 217t213.5 81t210.5 -80.5t78.5 -217.5q0 -135 -81.5 -217t-210.5 -82zM322 96q103 0 103 191q0 190 -102 190q-108 0 -108 -190q0 -191 107 -191z" />
    <glyph glyph-name="sacute.loclPLK" horiz-adv-x="551" 
d="M265 623l-87 65l140 202l122 -90zM320 -12q-99 0 -154 45q-9 7 -12 -5l-5 -28h-108v211h116l2 -27q3 -44 31 -68t78 -24q68 0 68 47q0 22 -19.5 40.5t-75.5 41.5l-60 25q-72 30 -106.5 71t-34.5 104q0 73 55.5 118.5t142.5 45.5q86 0 135 -39q9 -7 10 3l3 27h109v-185
h-116l-3 18q-6 37 -30.5 56.5t-62.5 19.5q-65 0 -65 -45q0 -23 19 -36.5t80 -39.5l59 -27q73 -36 106 -75.5t33 -99.5q0 -77 -55 -125.5t-140 -48.5z" />
    <glyph glyph-name="zacute.loclPLK" horiz-adv-x="581" 
d="M462 800l-175 -177l-87 65l140 202zM455 225h88v-225h-510v99l286 362h-135q-20 0 -27 -24l-25 -85h-87v221h487v-99l-286 -362h152q21 0 28 22z" />
    <glyph glyph-name="uni0308.case" 
d="M-312 848q-37 0 -62.5 23.5t-25.5 59.5t25.5 59.5t62.5 23.5t62 -23.5t25 -59.5t-25 -59.5t-62 -23.5zM-87 848q-37 0 -62.5 23.5t-25.5 59.5t25.5 59.5t62.5 23.5t62 -23.5t25 -59.5t-25 -59.5t-62 -23.5z" />
    <glyph glyph-name="uni0307.case" 
d="M-199 851q-45 0 -72.5 27t-27.5 69t27.5 68.5t72.5 26.5q42 0 70 -26.5t28 -68.5q0 -41 -28 -68.5t-70 -27.5z" />
    <glyph glyph-name="gravecomb.case" 
d="M-87 830l-265 100l72 137l243 -141z" />
    <glyph glyph-name="acutecomb.case" 
d="M-287 830l-50 96l243 141l72 -137z" />
    <glyph glyph-name="uni030B.case" 
d="M-350 824l-73 87l179 160l94 -104zM-83 824l-73 87l179 160l94 -104z" />
    <glyph glyph-name="uni0302.case" 
d="M-332 829l-66 73l131 133h136l130 -132l-66 -74l-133 100z" />
    <glyph glyph-name="uni030C.case" 
d="M-269 846l-130 127l66 74l133 -95l132 95l66 -73l-131 -128h-136z" />
    <glyph glyph-name="uni0306.case" 
d="M-200 850q-87 0 -136 47.5t-54 120.5h125q13 -56 66 -56q51 0 64 56h125q-5 -72 -54.5 -120t-135.5 -48z" />
    <glyph glyph-name="uni030A.case" 
d="M-201 832q-61 0 -96.5 28t-35.5 75q0 48 36 76t98 28q60 0 96.5 -28.5t36.5 -74.5q0 -48 -36.5 -76t-98.5 -28zM-199 899q16 0 27.5 10.5t11.5 26.5q0 17 -11.5 27t-28.5 10t-28 -10t-11 -27q0 -16 11.5 -26.5t28.5 -10.5z" />
    <glyph glyph-name="tildecomb.case" 
d="M-323 836l-95 57q21 57 61 89.5t90 32.5q35 0 78.5 -24.5t64.5 -24.5q33 0 51 51l92 -54q-12 -49 -49 -87.5t-87 -38.5q-39 0 -81 24t-65 24q-40 0 -60 -49z" />
    <glyph glyph-name="uni0304.case" 
d="M-395 870v122h390v-122h-390z" />
    <glyph glyph-name="acutecomb.loclPLK" 
d="M-191 623l-87 65l140 202l122 -90z" />
    <glyph glyph-name="acutecomb.case.loclPLK" 
d="M-154 829l-95 58l126 218l132 -87z" />
    <glyph glyph-name="uni0308.narrow" 
d="M-301 639q-34 0 -58 23.5t-24 62.5q0 37 24 61.5t58 24.5t57.5 -24.5t23.5 -61.5q0 -39 -23.5 -62.5t-57.5 -23.5zM-98 639q-34 0 -58 23.5t-24 62.5q0 37 24 61.5t58 24.5q33 0 57 -24.5t24 -61.5q0 -39 -23.5 -62.5t-57.5 -23.5z" />
    <glyph glyph-name="gravecomb.narrow" 
d="M-140 611l-192 153l108 109l168 -192z" />
    <glyph glyph-name="acutecomb.narrow" 
d="M-227 611l-84 70l168 192l108 -109z" />
    <glyph glyph-name="uni0302.narrow" 
d="M-297 619l-83 61l120 153h119l121 -154l-83 -60l-97 106z" />
    <glyph glyph-name="uni030C.narrow" 
d="M-259 630l-121 154l83 60l97 -106l97 106l83 -61l-120 -153h-119z" />
    <glyph glyph-name="uni0306.narrow" 
d="M-200 630q-74 0 -120 45t-46 132h113q-2 -67 54 -67q53 0 53 67h111q0 -87 -45.5 -132t-119.5 -45z" />
    <glyph glyph-name="tildecomb.narrow" 
d="M-309 632l-84 36q10 61 43.5 101t78.5 40q36 0 80.5 -28t58.5 -28q27 0 40 51l86 -30q-9 -56 -40.5 -100.5t-71.5 -44.5q-33 0 -78.5 25.5t-62.5 25.5q-39 0 -50 -48z" />
    <glyph glyph-name="uni0304.narrow" 
d="M-358 645v117h316v-117h-316z" />
    <glyph glyph-name="uni0328.narrow" 
d="M-178 -217q-61 0 -94.5 27t-33.5 76q0 34 22 66t57 53h113q-51 -43 -51 -93q0 -33 28 -33q22 0 49 27l49 -68q-61 -55 -139 -55z" />
    <glyph glyph-name="acute.case" horiz-adv-x="400" 
d="M113 830l-50 96l243 141l72 -137z" />
    <glyph glyph-name="breve.case" horiz-adv-x="400" 
d="M200 850q-87 0 -136 47.5t-54 120.5h125q13 -56 66 -56q51 0 64 56h125q-5 -72 -54.5 -120t-135.5 -48z" />
    <glyph glyph-name="caron.case" horiz-adv-x="400" 
d="M131 846l-130 127l66 74l133 -95l132 95l66 -73l-131 -128h-136z" />
    <glyph glyph-name="circumflex.case" horiz-adv-x="400" 
d="M68 829l-66 73l131 133h136l130 -132l-66 -74l-133 100z" />
    <glyph glyph-name="dieresis.case" horiz-adv-x="400" 
d="M88 848q-37 0 -62.5 23.5t-25.5 59.5t25.5 59.5t62.5 23.5t62 -23.5t25 -59.5t-25 -59.5t-62 -23.5zM313 848q-37 0 -62.5 23.5t-25.5 59.5t25.5 59.5t62.5 23.5t62 -23.5t25 -59.5t-25 -59.5t-62 -23.5z" />
    <glyph glyph-name="dotaccent.case" horiz-adv-x="400" 
d="M201 851q-45 0 -72.5 27t-27.5 69t27.5 68.5t72.5 26.5q42 0 70 -26.5t28 -68.5q0 -41 -28 -68.5t-70 -27.5z" />
    <glyph glyph-name="grave.case" horiz-adv-x="400" 
d="M313 830l-265 100l72 137l243 -141z" />
    <glyph glyph-name="hungarumlaut.case" horiz-adv-x="400" 
d="M50 824l-73 87l179 160l94 -104zM317 824l-73 87l179 160l94 -104z" />
    <glyph glyph-name="macron.case" horiz-adv-x="400" 
d="M5 870v122h390v-122h-390z" />
    <glyph glyph-name="ring.case" horiz-adv-x="400" 
d="M199 832q-61 0 -96.5 28t-35.5 75q0 48 36 76t98 28q60 0 96.5 -28.5t36.5 -74.5q0 -48 -36.5 -76t-98.5 -28zM201 899q16 0 27.5 10.5t11.5 26.5q0 17 -11.5 27t-28.5 10t-28 -10t-11 -27q0 -16 11.5 -26.5t28.5 -10.5z" />
    <glyph glyph-name="tilde.case" horiz-adv-x="400" 
d="M77 836l-95 57q21 57 61 89.5t90 32.5q35 0 78.5 -24.5t64.5 -24.5q33 0 51 51l92 -54q-12 -49 -49 -87.5t-87 -38.5q-39 0 -81 24t-65 24q-40 0 -60 -49z" />
    </font>
</defs>
</svg>
