<?xml version="1.0" standalone="no"?>
<!DOCTYPE svg PUBLIC "-//W3C//DTD SVG 20010904//EN"
 "http://www.w3.org/TR/2001/REC-SVG-20010904/DTD/svg10.dtd">
<svg version="1.0" xmlns="http://www.w3.org/2000/svg"
 width="260.000000pt" height="260.000000pt" viewBox="0 0 260.000000 260.000000"
 preserveAspectRatio="xMidYMid meet">
<metadata>
Created by potrace 1.11, written by Peter Selinger 2001-2013
</metadata>
<g transform="translate(0.000000,260.000000) scale(0.100000,-0.100000)"
fill="#000000" stroke="none">
<path d="M1282 2475 c-9 -11 -9 -15 -1 -15 8 0 8 -4 -1 -15 -7 -8 -9 -15 -5
-15 4 0 2 -7 -5 -15 -7 -8 -9 -15 -5 -15 4 0 3 -6 -3 -13 -6 -7 -12 -27 -14
-44 -1 -18 -6 -29 -10 -27 -8 5 -9 4 -13 -33 -1 -13 -7 -29 -14 -36 -6 -8 -9
-16 -6 -19 3 -3 -2 -22 -12 -44 -9 -21 -16 -43 -14 -48 1 -4 -6 -20 -15 -33
-11 -18 -12 -23 -3 -17 12 7 12 5 1 -9 -8 -9 -11 -21 -7 -27 3 -5 1 -10 -5
-10 -6 0 -8 -4 -5 -10 3 -5 2 -10 -3 -10 -6 0 -8 -9 -5 -20 3 -12 0 -20 -6
-20 -7 0 -10 -4 -6 -9 3 -5 1 -12 -5 -16 -5 -3 -10 -17 -10 -30 0 -13 -5 -27
-10 -30 -6 -4 -8 -11 -5 -16 4 -5 2 -9 -4 -9 -6 0 -8 -6 -5 -14 3 -8 -2 -26
-11 -40 -10 -14 -13 -26 -9 -26 5 0 2 -5 -6 -10 -13 -8 -13 -10 -1 -10 11 0
10 -4 -5 -16 -10 -8 -13 -13 -6 -9 6 3 12 1 12 -4 0 -6 -7 -11 -15 -11 -13 0
-14 -4 -5 -20 9 -17 8 -20 -7 -20 -14 0 -15 -2 -5 -9 11 -7 10 -9 -3 -15 -9
-3 -14 -10 -11 -15 4 -5 -2 -8 -11 -6 -10 1 -24 -2 -30 -8 -8 -6 -13 -6 -13 0
0 12 -30 11 -49 -2 -9 -5 -12 -4 -7 3 7 12 -32 11 -53 -3 -9 -5 -12 -4 -7 3 7
12 -32 11 -53 -3 -9 -5 -12 -4 -7 3 7 12 -32 11 -53 -3 -9 -5 -12 -4 -8 2 8
13 -126 11 -135 -2 -5 -6 -8 -6 -8 2 0 11 -36 10 -48 -2 -3 -2 -11 0 -18 6 -9
7 -19 7 -32 0 -13 -7 -22 -7 -29 0 -8 8 -17 8 -31 0 -13 -7 -23 -7 -27 -2 -6
11 -44 9 -64 -4 -9 -5 -12 -4 -7 3 7 12 -32 11 -53 -3 -9 -5 -12 -4 -7 3 7 12
-32 11 -53 -3 -9 -5 -12 -4 -8 2 4 6 -10 9 -33 9 -22 0 -40 -4 -40 -9 0 -4 -6
-5 -12 -1 -9 5 -9 3 1 -9 7 -9 18 -14 24 -10 7 4 8 0 3 -13 -4 -10 -4 -15 0
-11 4 4 14 1 22 -5 8 -7 24 -17 36 -23 11 -7 20 -17 19 -23 -2 -6 4 -9 12 -6
8 4 17 -1 21 -10 3 -9 12 -16 20 -16 8 0 14 -4 14 -9 0 -5 13 -14 30 -21 16
-7 27 -16 25 -20 -3 -5 10 -14 30 -21 23 -9 31 -16 22 -21 -8 -5 -5 -8 8 -8
11 0 27 -9 35 -20 10 -14 16 -16 22 -7 5 8 8 7 8 -5 0 -10 7 -18 15 -18 8 0
15 -7 15 -16 0 -8 5 -12 11 -9 5 4 19 -3 30 -16 10 -12 19 -19 19 -15 0 4 10
-2 22 -14 12 -11 26 -20 30 -20 5 0 6 -5 2 -12 -4 -6 -3 -8 3 -5 6 4 23 -5 39
-18 16 -14 34 -25 39 -25 6 0 16 -9 23 -20 7 -11 19 -20 27 -20 8 0 15 -4 15
-10 0 -5 6 -10 13 -10 7 0 19 -9 27 -20 8 -11 20 -20 27 -20 7 0 13 -9 13 -20
0 -11 -5 -20 -11 -20 -8 0 -7 -5 1 -16 11 -12 11 -15 1 -12 -13 3 -21 -17 -24
-59 0 -12 -5 -19 -9 -17 -4 3 -8 -4 -8 -16 0 -11 -9 -39 -19 -61 -11 -21 -16
-37 -11 -34 4 3 6 -4 3 -15 -3 -11 -10 -17 -16 -13 -6 4 -8 0 -4 -9 3 -9 0
-21 -6 -27 -8 -8 -8 -11 2 -11 9 0 8 -5 -3 -16 -9 -8 -14 -20 -11 -25 4 -5 1
-9 -5 -9 -7 0 -10 -7 -6 -15 3 -8 1 -15 -4 -15 -6 0 -10 -5 -10 -11 0 -5 6 -7
13 -4 6 4 5 1 -4 -7 -9 -7 -15 -21 -13 -31 2 -13 -2 -17 -13 -13 -13 5 -14 4
-4 -8 9 -10 9 -16 1 -21 -6 -4 -9 -13 -6 -20 2 -7 -3 -16 -12 -20 -14 -5 -14
-7 -2 -15 13 -8 13 -10 1 -10 -8 0 -11 -3 -8 -7 4 -3 0 -17 -8 -30 -9 -13 -13
-28 -10 -33 3 -6 1 -10 -6 -10 -6 0 -9 -8 -6 -20 3 -11 0 -20 -6 -20 -6 0 -7
-3 -4 -7 4 -3 -1 -15 -10 -26 -10 -11 -12 -17 -5 -13 14 9 17 -10 2 -19 -6 -4
-8 -11 -5 -16 4 -5 1 -9 -4 -9 -6 0 -10 -3 -9 -7 3 -13 -14 -58 -26 -65 -6 -4
4 -8 22 -8 20 0 31 4 27 10 -3 6 1 10 9 10 9 0 16 5 16 11 0 5 3 8 8 6 10 -7
32 19 24 27 -3 4 1 4 10 1 9 -4 18 0 22 10 3 9 10 13 16 10 5 -3 10 1 10 10 0
9 5 13 10 10 6 -3 10 -1 10 4 0 6 6 11 14 11 8 0 17 7 20 16 4 9 13 14 22 10
8 -3 12 -2 9 4 -3 6 -2 10 3 10 6 0 30 16 54 35 23 19 48 39 54 44 19 15 59
35 67 33 4 -1 6 1 5 5 -2 5 1 9 5 10 5 1 16 10 25 21 9 10 27 24 40 31 12 7
20 17 16 23 -5 7 -2 8 6 3 8 -5 17 -2 24 7 6 8 16 16 21 17 6 2 9 7 7 13 -1 5
2 7 8 3 5 -3 13 1 16 9 3 9 10 13 15 10 12 -7 40 21 31 31 -4 5 -2 5 5 1 6 -3
14 -2 18 4 4 6 11 7 17 4 7 -4 8 -2 4 4 -4 7 -3 12 2 12 5 0 19 9 32 20 17 15
27 17 41 9 11 -5 19 -12 19 -15 0 -3 -5 -2 -12 2 -7 4 -8 3 -4 -5 4 -6 11 -9
16 -6 5 3 18 -4 29 -16 11 -12 24 -18 32 -14 8 5 10 4 5 -3 -4 -7 -3 -12 2
-12 5 0 22 -12 37 -27 16 -16 25 -21 21 -13 -6 11 -4 11 6 -1 7 -9 23 -19 36
-23 12 -4 20 -12 17 -17 -4 -5 2 -12 12 -16 10 -3 30 -17 45 -31 16 -14 31
-21 39 -17 7 5 10 4 7 -1 -5 -10 22 -37 42 -42 8 -2 25 -14 38 -28 14 -13 28
-21 33 -18 5 3 9 -1 9 -9 0 -7 11 -19 25 -25 28 -13 47 -27 73 -54 9 -10 22
-18 29 -18 7 0 13 -5 13 -11 0 -5 5 -7 10 -4 6 3 10 2 10 -2 0 -5 16 -17 35
-27 19 -10 32 -23 29 -27 -3 -5 2 -9 10 -9 9 0 16 -4 16 -10 0 -14 37 -13 46
2 5 8 2 9 -11 4 -15 -5 -16 -4 -5 9 7 9 8 15 2 15 -6 0 -9 11 -8 25 2 13 -1
22 -5 19 -5 -3 -9 3 -9 13 0 11 -6 25 -12 32 -11 11 -10 12 0 6 11 -6 11 -3 0
16 -7 13 -17 27 -22 30 -4 4 -3 10 3 13 8 5 7 12 -4 22 -8 9 -13 20 -10 25 4
5 1 9 -5 9 -6 0 -9 4 -6 8 3 5 -1 20 -9 35 -7 14 -11 28 -8 31 3 3 -2 17 -12
32 -11 17 -12 24 -4 19 11 -6 12 -5 2 6 -7 7 -13 24 -13 37 0 13 -4 21 -9 18
-5 -3 -9 6 -8 20 0 15 -7 30 -14 35 -11 7 -11 9 -1 9 9 0 9 6 -3 24 -9 13 -15
28 -14 32 3 20 -2 35 -10 30 -4 -3 -7 6 -5 19 1 14 -2 23 -7 19 -5 -3 -9 6 -9
20 0 39 0 40 -17 59 -13 14 -13 17 -2 17 11 1 11 3 -2 13 -19 15 -34 52 -17
41 7 -4 2 6 -10 23 -14 20 -18 34 -12 38 5 3 10 11 10 16 0 6 -5 7 -12 3 -7
-4 -8 -3 -4 5 4 6 12 9 17 6 5 -4 12 1 15 9 3 9 10 13 15 10 5 -3 9 0 9 7 0 7
3 9 7 6 3 -4 13 2 20 13 8 11 19 18 24 15 5 -4 9 1 9 10 0 9 5 13 10 10 6 -3
10 -2 10 4 0 6 7 8 15 5 11 -5 14 -2 9 12 -4 11 -4 16 1 12 11 -11 47 11 39
24 -4 6 -3 8 3 5 6 -4 18 2 28 13 10 11 22 20 27 20 5 0 18 9 30 20 12 10 25
17 29 15 4 -3 10 4 14 15 3 11 9 19 13 18 10 -3 63 32 90 60 12 13 22 18 22
12 0 -6 13 2 29 17 46 45 80 71 85 66 6 -7 46 29 40 38 -2 4 6 5 18 1 14 -3
19 -2 14 6 -4 7 -3 12 2 12 5 0 19 9 32 20 12 11 26 17 30 15 12 -8 22 27 11
38 -7 7 -16 5 -27 -4 -12 -9 -15 -10 -10 -1 4 6 2 12 -3 12 -6 0 -11 -5 -11
-11 0 -6 -5 -7 -12 -2 -21 12 -48 14 -48 2 0 -6 -5 -7 -12 -2 -20 12 -41 13
-55 1 -7 -6 -13 -6 -13 -1 0 5 -22 9 -50 9 -27 0 -50 -5 -50 -11 0 -7 -3 -7
-8 0 -9 14 -65 14 -74 0 -5 -7 -8 -7 -8 0 0 14 -70 14 -70 0 0 -7 -3 -7 -8 0
-4 6 -20 11 -37 11 -16 0 -33 -5 -37 -11 -5 -7 -8 -6 -8 1 0 12 -29 12 -49 -1
-9 -5 -12 -4 -7 3 7 12 -32 11 -53 -3 -9 -5 -12 -4 -7 3 7 12 -32 11 -53 -3
-9 -5 -12 -4 -7 3 7 12 -32 11 -53 -3 -9 -5 -12 -4 -7 3 7 11 -31 11 -51 -1
-5 -3 -13 -3 -17 0 -4 4 -16 8 -28 10 -27 4 -38 20 -38 56 0 15 -6 27 -12 27
-9 0 -8 4 2 10 13 8 12 10 -3 10 -10 0 -15 5 -12 10 4 6 1 18 -7 27 -11 14
-11 16 1 9 9 -6 8 -1 -3 16 -9 14 -13 28 -9 31 3 4 1 7 -7 7 -10 0 -10 4 1 17
10 11 10 14 2 9 -9 -5 -13 0 -13 13 0 12 -5 21 -11 21 -6 0 -8 8 -4 19 3 11 1
22 -5 26 -6 3 -8 11 -5 16 4 5 1 9 -4 9 -6 0 -11 12 -11 26 0 14 -4 23 -9 20
-4 -3 -7 6 -5 19 1 14 -2 27 -7 31 -5 3 -7 10 -4 15 4 5 1 9 -4 9 -6 0 -11 12
-11 26 0 17 -4 23 -12 18 -10 -6 -10 -5 -1 7 9 11 8 18 -2 33 -8 10 -11 24 -8
32 3 8 0 14 -7 14 -7 0 -10 7 -6 16 3 8 2 12 -4 9 -6 -4 -9 4 -7 17 1 14 -3
22 -10 21 -7 -2 -10 4 -7 12 4 9 0 23 -7 32 -10 12 -10 15 -1 9 10 -6 10 -2 0
18 -6 14 -16 26 -22 26 -6 0 -4 5 4 10 11 7 11 10 2 10 -7 0 -11 4 -7 9 3 5 0
13 -6 17 -8 4 -7 9 2 15 11 7 10 9 -3 9 -10 0 -17 5 -15 11 3 18 -17 20 -31 4z"/>
<path d="M36 1584 c-6 -24 -3 -31 21 -49 15 -11 36 -28 45 -37 10 -10 18 -16
18 -13 0 3 12 -6 26 -20 14 -14 30 -23 35 -20 5 4 9 -2 9 -11 0 -10 3 -15 6
-12 3 4 19 -8 36 -25 16 -18 32 -30 35 -28 8 6 43 -22 38 -30 -3 -4 2 -10 11
-13 10 -4 13 -2 8 7 -5 8 -2 8 9 -2 9 -7 14 -17 11 -22 -3 -5 1 -9 9 -9 8 0
26 -11 41 -25 14 -13 26 -22 26 -19 0 3 11 -6 24 -20 13 -15 28 -26 35 -26 6
0 11 -5 11 -11 0 -5 4 -7 10 -4 5 3 10 -1 10 -10 0 -9 4 -14 9 -11 5 3 11 -1
15 -9 3 -8 12 -15 20 -15 9 0 20 -9 26 -20 6 -11 17 -20 25 -20 8 0 15 -4 15
-10 0 -5 5 -10 10 -10 12 0 32 -15 58 -42 9 -10 22 -18 29 -18 20 0 16 50 -4
57 -10 4 -25 15 -34 25 -9 10 -21 18 -27 18 -6 0 -18 10 -26 22 -11 15 -16 18
-17 8 0 -9 -5 -6 -11 8 -6 12 -17 22 -23 22 -7 0 -15 7 -19 15 -3 8 -11 14
-18 13 -7 -2 -12 2 -13 9 0 6 -4 15 -9 20 -5 5 -6 3 -2 -4 4 -7 5 -13 2 -13
-10 0 -51 45 -48 53 1 4 -2 7 -8 7 -5 0 -10 -6 -11 -12 0 -7 -5 -3 -11 8 -5
12 -21 27 -35 33 -13 6 -21 16 -18 21 3 6 -3 10 -14 10 -12 0 -21 7 -21 16 0
8 -4 13 -9 10 -5 -3 -21 6 -35 19 -15 14 -32 25 -37 25 -6 0 -8 4 -4 9 3 5 0
13 -6 17 -8 4 -9 3 -5 -4 4 -7 3 -12 -3 -12 -5 0 -13 9 -16 20 -4 11 -10 18
-15 15 -5 -3 -16 5 -24 17 -9 12 -18 19 -22 16 -3 -4 -19 7 -35 23 -15 16 -33
29 -39 29 -5 0 -10 7 -10 16 0 9 -6 14 -12 11 -7 -2 -18 5 -24 16 -11 19 -12
18 -18 -9z"/>
<path d="M2540 1586 c0 -6 -13 -20 -30 -29 -16 -10 -30 -23 -30 -28 0 -6 -5
-7 -10 -4 -6 3 -13 -1 -16 -9 -3 -9 -12 -16 -19 -16 -8 0 -23 -12 -34 -26 -11
-14 -24 -23 -29 -20 -6 3 -15 -1 -22 -9 -7 -8 -9 -15 -4 -15 5 0 1 -5 -8 -11
-10 -5 -20 -9 -24 -9 -3 1 -14 -8 -23 -19 -10 -11 -21 -18 -25 -14 -3 3 -6 -1
-6 -10 0 -9 -7 -17 -15 -17 -8 0 -15 -5 -15 -11 0 -5 -4 -7 -10 -4 -5 3 -10
-1 -10 -10 0 -11 -5 -15 -15 -11 -9 3 -15 0 -15 -9 0 -8 -7 -15 -15 -15 -9 0
-18 -6 -21 -14 -3 -9 -12 -12 -22 -9 -11 5 -14 2 -9 -10 4 -11 1 -17 -8 -17
-8 0 -24 -9 -34 -19 -11 -11 -22 -17 -25 -13 -3 3 -6 -2 -6 -11 0 -10 -3 -16
-7 -16 -20 3 -34 -2 -28 -11 3 -5 0 -10 -8 -10 -8 0 -17 -7 -21 -15 -3 -8 -12
-15 -21 -15 -8 0 -15 -4 -15 -10 0 -5 -7 -10 -16 -10 -8 0 -13 -4 -10 -9 3 -5
-3 -11 -14 -14 -28 -7 -36 -35 -16 -55 14 -13 17 -14 14 -2 -3 13 1 15 34 19
6 0 8 4 5 8 -4 3 16 21 43 40 28 18 50 38 50 44 0 6 5 7 10 4 6 -3 10 -1 10 5
0 6 5 8 10 5 6 -3 10 1 10 9 0 9 6 15 13 14 6 -2 11 3 9 10 -1 8 1 11 6 8 5
-3 27 10 48 28 21 18 44 35 49 37 6 2 9 7 7 12 -1 4 7 7 19 7 11 0 18 4 15 8
-3 4 11 16 29 26 19 11 32 23 29 27 -3 5 2 9 11 9 10 0 13 5 9 12 -5 7 -2 9 8
6 8 -4 22 1 30 10 29 32 59 53 69 47 5 -4 9 -3 8 2 -3 19 2 34 9 29 5 -3 21 7
37 22 16 15 33 26 37 25 5 -2 8 5 8 15 0 14 2 15 10 2 9 -14 14 -7 11 13 -1 5
8 11 19 14 26 7 26 39 0 46 -12 3 -20 0 -20 -7z"/>
<path d="M1286 644 c-3 -8 -12 -14 -21 -14 -8 0 -15 -4 -15 -10 0 -5 -7 -10
-15 -10 -8 0 -15 -4 -15 -8 0 -5 -12 -15 -27 -23 -28 -14 -53 -33 -79 -57 -8
-7 -18 -10 -24 -7 -5 3 -10 -1 -10 -9 0 -9 -7 -16 -15 -16 -8 0 -15 -5 -15
-11 0 -5 -4 -8 -9 -5 -5 3 -11 -1 -15 -9 -3 -8 -12 -15 -21 -15 -8 0 -15 -4
-15 -10 0 -5 -6 -10 -13 -10 -7 0 -24 -10 -37 -22 -14 -13 -28 -22 -33 -20 -5
1 -11 -6 -14 -17 -3 -11 -11 -17 -18 -15 -7 3 -15 -2 -18 -10 -4 -9 -16 -16
-27 -16 -12 0 -18 -4 -15 -10 3 -5 -1 -10 -9 -10 -9 0 -16 -5 -16 -10 0 -6 -3
-9 -7 -9 -19 3 -36 -2 -29 -8 3 -4 -12 -15 -34 -25 -23 -11 -44 -26 -47 -33
-3 -8 -9 -12 -14 -9 -5 3 -9 0 -9 -5 0 -6 -6 -11 -14 -11 -7 0 -19 -7 -26 -15
-7 -8 -21 -15 -31 -15 -11 0 -19 -5 -19 -11 0 -5 -5 -7 -10 -4 -6 4 -8 11 -4
16 3 5 2 8 -3 7 -4 -1 -18 3 -29 10 -12 6 -24 9 -27 6 -7 -8 4 -44 14 -44 5 0
9 -7 9 -16 0 -8 5 -12 10 -9 6 3 10 2 10 -2 0 -5 13 -9 30 -9 16 -1 30 3 30 8
0 6 7 8 14 5 9 -4 17 2 21 13 3 11 9 19 13 17 8 -2 138 79 160 100 8 7 19 10
25 6 7 -3 9 -3 5 2 -4 4 14 21 40 38 26 16 50 34 53 40 4 5 12 6 19 2 7 -5 11
-4 8 1 -6 8 11 31 22 30 11 -1 49 31 44 37 -3 3 5 3 18 0 12 -3 20 -2 16 2 -7
7 55 55 72 55 5 0 13 7 18 16 5 9 13 15 18 15 5 -1 9 3 9 8 0 5 3 13 8 17 4 4
7 1 7 -6 0 -8 8 -3 20 10 11 13 20 19 20 15 0 -4 8 1 18 11 9 10 23 20 31 22
8 2 20 10 26 19 11 14 14 13 28 -8 10 -13 17 -19 17 -14 1 6 9 0 20 -13 10
-13 22 -22 26 -21 7 2 38 -18 60 -38 7 -7 18 -13 24 -13 6 0 8 -5 4 -12 -4 -6
-3 -8 4 -4 6 3 22 -5 36 -19 16 -16 26 -20 29 -12 3 7 6 4 6 -7 1 -12 6 -16
16 -12 9 3 15 0 15 -9 0 -8 7 -15 15 -15 8 0 15 -5 15 -11 0 -5 5 -7 10 -4 6
3 10 1 10 -4 0 -6 6 -11 14 -11 8 0 17 -7 20 -16 4 -9 9 -14 13 -11 3 4 14 -3
24 -14 9 -11 20 -20 23 -20 20 3 26 -1 26 -16 0 -9 3 -13 7 -10 3 4 12 -1 20
-11 10 -11 12 -12 8 -2 -4 10 -2 9 8 -2 8 -10 17 -15 20 -11 4 3 9 -2 13 -11
3 -9 10 -13 15 -10 5 3 9 0 9 -6 0 -6 5 -8 10 -5 6 3 10 -1 10 -10 0 -9 5 -13
10 -10 6 3 10 1 10 -5 0 -6 4 -9 9 -6 5 3 12 -1 15 -10 4 -9 9 -14 13 -11 3 4
12 -1 20 -11 10 -11 12 -12 8 -2 -4 10 -2 9 8 -2 8 -10 17 -15 20 -11 4 3 7
-2 7 -11 0 -12 5 -16 15 -12 8 3 15 1 15 -4 0 -11 28 -9 49 4 11 7 12 6 6 -5
-5 -8 5 0 22 16 32 32 34 55 3 52 -10 -1 -16 -5 -13 -11 4 -5 -1 -7 -10 -3
-10 3 -17 2 -17 -4 0 -6 -4 -7 -10 -4 -5 3 -10 1 -10 -5 0 -6 -10 -2 -22 10
-12 11 -28 20 -35 20 -8 0 -11 5 -7 12 5 8 2 9 -9 5 -10 -3 -17 -2 -17 4 0 5
-12 14 -26 19 -14 6 -22 15 -19 20 4 6 3 10 -2 9 -14 -4 -58 18 -72 35 -7 9
-20 16 -27 16 -8 0 -14 4 -14 8 0 5 -12 15 -27 23 -16 8 -39 24 -53 37 -14 12
-30 22 -37 22 -7 0 -13 7 -13 15 0 9 -6 12 -15 9 -10 -4 -15 0 -16 12 0 11 -3
14 -5 7 -5 -12 -17 -5 -64 37 -9 8 -23 16 -31 18 -8 2 -21 11 -29 21 -14 16
-26 24 -55 31 -5 2 -16 11 -23 21 -7 11 -20 19 -28 19 -8 0 -13 4 -10 8 3 5
-10 15 -29 22 -19 8 -35 17 -35 21 0 14 -29 17 -34 3z"/>
</g>
</svg>
