<?xml version="1.0" standalone="no"?>
<!DOCTYPE svg PUBLIC "-//W3C//DTD SVG 1.1//EN" "http://www.w3.org/Graphics/SVG/1.1/DTD/svg11.dtd" >
<svg xmlns="http://www.w3.org/2000/svg" xmlns:xlink="http://www.w3.org/1999/xlink" version="1.1">
<metadata>
Created by FontForge 20170731 at Tue Oct  2 14:36:42 2018
 By Aleksey,,,
Copyright (c) 2018 by Fontsmith Ltd. All rights reserved. This font may not be altered in any way without prior permission of Fontsmith Ltd.
</metadata>
<defs>
<font id="HeinekenSerif18-Medium" horiz-adv-x="0" >
  <font-face 
    font-family="Heineken Serif 18 Medium"
    font-weight="500"
    font-stretch="normal"
    units-per-em="1000"
    panose-1="2 4 8 6 6 6 2 6 7 3"
    ascent="788"
    descent="-212"
    x-height="552"
    cap-height="788"
    bbox="-446 -338 1225 1089"
    underline-thickness="100"
    underline-position="-300"
    unicode-range="U+000D-FB02"
  />
<missing-glyph horiz-adv-x="702" 
d="M70 0v788h562v-788h-562zM352 445l191 287h-383zM127 107l190 287l-190 287v-574zM577 107v574l-192 -287zM160 57h383l-191 286z" />
    <glyph glyph-name="fi" unicode="fi" horiz-adv-x="770" 
d="M31 0l-3 67q10 5 31 12l15 5q19 7 25 16t6 31v321h-87v100h87v53q0 97 51.5 146t144.5 49q77 0 123.5 -36.5t46.5 -105.5v-5q0 -20 -6 -26q-8 -8 -30 -8h-93v44q0 56 -40 56q-24 0 -34 -15.5t-10 -51.5v-100h106v-100h-106v-321q0 -20 8.5 -29t33.5 -18l15 -5
q21 -7 31 -12l-3 -67h-312zM611 617q-41 0 -68.5 26.5t-27.5 65.5t27.5 65t68.5 26q40 0 67 -26t27 -65t-27 -65.5t-67 -26.5zM462 0l-3 67q10 5 31 12l15 5q19 7 25 16t6 31v290q0 24 -6.5 32.5t-25.5 14.5l-15 5q-22 7 -29 12l3 67h226v-421q0 -21 6.5 -31t24.5 -16l15 -5
q21 -7 31 -12l-3 -67h-301z" />
    <glyph glyph-name="fl" unicode="fl" horiz-adv-x="844" 
d="M31 0l-3 67q10 5 31 12l15 5q19 7 25 16t6 31v321h-87v100h87v53q0 97 51.5 146t144.5 49q77 0 123.5 -36.5t46.5 -105.5v-5q0 -20 -6 -26q-8 -8 -30 -8h-93v44q0 56 -40 56q-24 0 -34 -15.5t-10 -51.5v-100h106v-100h-106v-321q0 -20 8.5 -29t33.5 -18l15 -5
q21 -7 31 -12l-3 -67h-312zM528 0l-3 67q10 5 31 12l15 5q19 7 25 16t6 31v526q0 24 -6.5 32.5t-25.5 14.5l-15 5q-24 8 -29 12l3 67h226v-657q0 -21 6.5 -31t24.5 -16l15 -5q21 -7 31 -12l-3 -67h-301z" />
    <glyph glyph-name=".notdef" horiz-adv-x="702" 
d="M70 0v788h562v-788h-562zM352 445l191 287h-383zM127 107l190 287l-190 287v-574zM577 107v574l-192 -287zM160 57h383l-191 286z" />
    <glyph glyph-name=".null" 
 />
    <glyph glyph-name="nonmarkingreturn" horiz-adv-x="333" 
 />
    <glyph glyph-name="CR" unicode="&#xd;" horiz-adv-x="240" 
 />
    <glyph glyph-name="space" unicode=" " horiz-adv-x="240" 
 />
    <glyph glyph-name="exclam" unicode="!" horiz-adv-x="294" 
d="M91 222l-26 566h164l-26 -566h-112zM147 -10q-38 0 -64 25t-26 62q0 38 26 63t64 25t64 -25t26 -63q0 -37 -26 -62t-64 -25z" />
    <glyph glyph-name="quotedbl" unicode="&#x22;" horiz-adv-x="431" 
d="M70 498l-30 290h151l-29 -290h-92zM270 498l-30 290h151l-29 -290h-92z" />
    <glyph glyph-name="numbersign" unicode="#" horiz-adv-x="619" 
d="M83 0l37 243h-94v78h105l22 149h-91v78h104l35 240h106l-36 -240h111l37 240h105l-36 -240h105v-78h-116l-22 -149h99v-78h-112l-36 -243h-106l38 243h-113l-37 -243h-105zM238 321h110l22 149h-110z" />
    <glyph glyph-name="dollar" unicode="$" horiz-adv-x="607" 
d="M571 228q0 -95 -58 -159.5t-154 -77.5v-106h-107v111q-62 15 -97 47q-16 15 -18 -7l-4 -36h-90v275h97l2 -32q5 -71 47.5 -114t108.5 -43q49 0 82.5 29.5t33.5 73.5q0 63 -91 117l-127 77q-139 83 -139 215q0 80 51 133.5t136 65.5v112h107v-117q39 -10 70 -36
q13 -13 16 6l6 31h90v-226h-97l-4 41q-4 47 -36.5 72t-85.5 25q-43 0 -69.5 -22.5t-26.5 -60.5q0 -53 88 -108l133 -83q136 -85 136 -203z" />
    <glyph glyph-name="percent" unicode="%" horiz-adv-x="832" 
d="M179 -18l-71 41l528 782l75 -44zM220 420q-82 0 -129 46q-56 55 -56 144q0 93 53 144q49 46 135 46q82 0 130 -43q57 -51 57 -145q0 -89 -56 -145q-47 -47 -134 -47zM222 483q24 0 43 19q29 29 29 109q0 85 -27 111q-19 18 -46 18q-23 0 -42 -19q-14 -14 -21.5 -46.5
t-7.5 -62.5q0 -84 27 -111q18 -18 45 -18zM606 -12q-83 0 -129 46q-56 56 -56 144q0 93 53 144q49 46 135 46q82 0 130 -43q57 -51 57 -145q0 -91 -56 -145q-48 -47 -134 -47zM608 51q22 0 43 19q29 28 29 109q0 85 -27 111q-19 18 -46 18q-22 0 -41 -19q-29 -29 -29 -109
q0 -82 27 -111q17 -18 44 -18z" />
    <glyph glyph-name="ampersand" unicode="&#x26;" horiz-adv-x="795" 
d="M305 -12q-124 0 -194.5 64.5t-70.5 173.5q0 147 154 236q-34 46 -49.5 83.5t-15.5 84.5q0 75 62 122.5t150 47.5q86 0 137.5 -43.5t51.5 -109.5q0 -96 -141 -180l158 -210q9 17 23 52q21 52 -14 63l-17 5q-25 7 -35 15l4 58h235l7 -63q-6 -5 -31 -13l-15 -5
q-12 -4 -22 -19.5t-29 -59.5q-26 -61 -51 -104l45 -53q38 -44 58 -50l10 -4q15 -6 27 -12l-3 -67h-190q-29 31 -54 63q-90 -75 -190 -75zM326 549q69 46 69 103q0 26 -13.5 40t-37.5 14q-25 0 -40 -16t-15 -43q0 -48 37 -98zM336 88q53 0 105 46l-180 240q-51 -54 -51 -138
q0 -64 34 -106t92 -42z" />
    <glyph glyph-name="quotesingle" unicode="'" horiz-adv-x="231" 
d="M70 498l-30 290h151l-29 -290h-92z" />
    <glyph glyph-name="parenleft" unicode="(" horiz-adv-x="315" 
d="M199 -220q-62 112 -101.5 251t-39.5 279q0 151 37.5 289t104.5 244l70 -27q-84 -236 -84 -497q0 -249 84 -515z" />
    <glyph glyph-name="parenright" unicode=")" horiz-adv-x="315" 
d="M116 -220l-71 24q84 266 84 515q0 261 -84 497l70 27q67 -106 104.5 -244t37.5 -289q0 -140 -39.5 -279t-101.5 -251z" />
    <glyph glyph-name="asterisk" unicode="*" horiz-adv-x="600" 
d="M151 364q-19 0 -19 19q0 2 2 10l52 158l-135 98q-11 8 -11 19q0 7 6 12.5t15 5.5h169l51 159q5 15 19 15t19 -15l53 -159h167q9 0 15 -5.5t6 -12.5q0 -11 -11 -19l-134 -98l51 -158q2 -8 2 -10q0 -19 -19 -19q-9 0 -17 7l-132 97l-132 -97q-8 -7 -17 -7z" />
    <glyph glyph-name="plus" unicode="+" horiz-adv-x="605" 
d="M249 57v213h-218v101h218v213h107v-213h218v-101h-218v-213h-107z" />
    <glyph glyph-name="comma" unicode="," horiz-adv-x="268" 
d="M94 -183l-60 44q72 95 72 126q0 15 -31.5 50t-31.5 62q0 33 23 55t60 22q42 0 68 -30.5t26 -89.5q0 -100 -126 -239z" />
    <glyph glyph-name="hyphen" unicode="-" horiz-adv-x="334" 
d="M40 253v100h254v-100h-254z" />
    <glyph glyph-name="period" unicode="." horiz-adv-x="271" 
d="M134 -10q-39 0 -66.5 27t-27.5 66q0 38 27.5 65t66.5 27q38 0 65 -27t27 -65q0 -39 -27 -66t-65 -27z" />
    <glyph glyph-name="slash" unicode="/" horiz-adv-x="520" 
d="M94 -131l-97 42l429 958l97 -42z" />
    <glyph glyph-name="zero" unicode="0" horiz-adv-x="665" 
d="M334 -12q-142 0 -219 106.5t-77 306.5q0 191 78 295t218 104q139 0 216 -107.5t77 -307.5q0 -189 -78 -293t-215 -104zM333 83q65 0 94.5 76.5t29.5 235.5q0 158 -29.5 234t-94.5 76t-95 -76.5t-30 -235.5q0 -156 30 -233t95 -77z" />
    <glyph glyph-name="one" unicode="1" horiz-adv-x="494" 
d="M78 0l-6 70q16 6 47 15l20 5q35 9 46 23t11 54v459l-126 -39l-30 74l188 127h125v-622q0 -39 10.5 -53t40.5 -23l16 -5q31 -9 46 -16l-5 -69h-383z" />
    <glyph glyph-name="two" unicode="2" horiz-adv-x="580" 
d="M462 222h70v-222h-485v100l106 122q192 221 192 382q0 101 -63 101q-37 0 -53 -25.5t-16 -77.5v-66h-123q-20 0 -31 11q-11 13 -11 37v14q0 92 66.5 147t175.5 55q102 0 163.5 -53t61.5 -149q0 -94 -56.5 -189t-185.5 -214l-75 -70h197q25 0 34 21l10 24q12 30 23 52z
" />
    <glyph glyph-name="three" unicode="3" horiz-adv-x="586" 
d="M280 -12q-109 0 -175.5 51.5t-66.5 137.5v9q0 32 9 46t32 14h119v-61q0 -54 22.5 -78t67.5 -24q50 0 77 32.5t27 93.5q0 73 -32.5 105.5t-108.5 36.5l-42 2v95l44 2q60 3 81.5 34t21.5 113q0 57 -16.5 82.5t-50.5 25.5q-74 0 -74 -109v-54h-119q-22 0 -31 11.5t-10 37.5
v8q0 89 68 145t175 56q106 0 165 -53.5t59 -143.5q0 -62 -38 -114.5t-92 -64.5v-5q81 -14 123.5 -66t42.5 -135q0 -108 -75.5 -169t-202.5 -61z" />
    <glyph glyph-name="four" unicode="4" horiz-adv-x="629" 
d="M585 183h-73v-53q0 -24 4.5 -33.5t18.5 -13.5l15 -5q25 -8 35 -12l-3 -67h-308l-3 67q11 5 33 12l15 5q20 7 27.5 16.5t7.5 30.5v53h-318v76l352 529h124v-490h73v-115zM173 298h181v274z" />
    <glyph glyph-name="five" unicode="5" horiz-adv-x="586" 
d="M322 502q100 0 161 -66.5t61 -182.5q0 -125 -72 -195t-193 -70q-107 0 -174 48.5t-67 137.5v13q0 49 38 49h122v-45q0 -52 23 -80t67 -28q93 0 93 161q0 149 -126 149q-57 0 -119 -28l-58 52l59 371h357v-135h-263l-28 -172q51 21 119 21z" />
    <glyph glyph-name="six" unicode="6" horiz-adv-x="593" 
d="M342 522q100 0 158.5 -69.5t58.5 -184.5q0 -125 -72 -202.5t-183 -77.5q-129 0 -197.5 92t-68.5 276q0 207 80 325.5t221 118.5q94 0 144 -40.5t50 -115.5v-8q0 -31 -34 -31h-116l-3 33q-6 67 -59 67q-51 0 -83.5 -62.5t-37.5 -180.5q52 60 142 60zM302 83q91 0 91 176
q0 82 -23 125t-65 43q-45 0 -70.5 -44t-25.5 -124q0 -176 93 -176z" />
    <glyph glyph-name="seven" unicode="7" horiz-adv-x="546" 
d="M36 788h500v-78q-102 -138 -157.5 -301t-55.5 -326v-83h-169v75q0 268 226 576h-210q-17 0 -23 -3t-10 -16l-11 -32q-15 -46 -24 -58h-66v246z" />
    <glyph glyph-name="eight" unicode="8" horiz-adv-x="602" 
d="M407 441q76 -44 119.5 -96t43.5 -133q0 -96 -78.5 -160t-193.5 -64q-113 0 -186.5 58.5t-73.5 152.5q0 137 147 206q-57 42 -89 88.5t-32 107.5q0 85 70.5 142t176.5 57q101 0 163.5 -46t62.5 -129q0 -53 -35.5 -103.5t-94.5 -80.5zM309 715q-39 0 -64.5 -26t-25.5 -68
q0 -43 28 -74t81 -61q66 46 66 130q0 44 -22.5 71.5t-62.5 27.5zM305 73q51 0 80.5 32.5t29.5 82.5q0 26 -11 48t-38 45t-45 35.5t-59 38.5q-69 -56 -69 -156q0 -57 30.5 -91.5t81.5 -34.5z" />
    <glyph glyph-name="nine" unicode="9" horiz-adv-x="593" 
d="M290 800q129 0 197 -92t68 -276q0 -209 -75 -326.5t-205 -117.5q-100 0 -156 42.5t-56 116.5v4q0 35 28 35h121l3 -27q9 -76 72 -76q47 0 75.5 63.5t30.5 179.5q-52 -60 -139 -60q-102 0 -161 69.5t-59 184.5q0 125 72 202.5t184 77.5zM288 361q45 0 70.5 44t25.5 124
q0 86 -23.5 131t-67.5 45q-93 0 -93 -176q0 -82 23 -125t65 -43z" />
    <glyph glyph-name="colon" unicode=":" horiz-adv-x="271" 
d="M134 379q-39 0 -66.5 27t-27.5 66q0 38 27.5 65t66.5 27q38 0 65 -27t27 -65q0 -39 -27 -66t-65 -27zM134 -10q-39 0 -66.5 27t-27.5 66q0 38 27.5 65t66.5 27q38 0 65 -27t27 -65q0 -39 -27 -66t-65 -27z" />
    <glyph glyph-name="semicolon" unicode=";" horiz-adv-x="265" 
d="M128 379q-39 0 -66.5 27t-27.5 66q0 38 27.5 65t66.5 27q38 0 65 -27t27 -65q0 -39 -27 -66t-65 -27zM94 -183l-60 44q72 79 72 126q0 15 -31.5 50t-31.5 62q0 33 23 55t60 22q42 0 68 -30.5t26 -89.5q0 -100 -126 -239z" />
    <glyph glyph-name="less" unicode="&#x3c;" horiz-adv-x="605" 
d="M151 321l407 -163l-36 -91l-472 193v121l469 196l38 -91z" />
    <glyph glyph-name="equal" unicode="=" horiz-adv-x="605" 
d="M31 393v101h543v-101h-543zM31 150v101h543v-101h-543z" />
    <glyph glyph-name="greater" unicode="&#x3e;" horiz-adv-x="605" 
d="M86 577l469 -196v-121l-472 -193l-36 91l407 163l-406 165z" />
    <glyph glyph-name="question" unicode="?" horiz-adv-x="531" 
d="M195 222q-10 39 -10 82q0 40 16.5 74.5t39.5 59.5t46 49.5t39.5 57t16.5 69.5q0 91 -72 91q-74 0 -74 -102v-62h-127q-20 0 -28 12t-8 37v5q0 89 63.5 147t180.5 58q99 0 164 -52t65 -134q0 -51 -18.5 -90t-45.5 -66t-55 -53t-50.5 -63.5t-27.5 -84.5l-4 -35h-111z
M252 -10q-38 0 -64 25t-26 62q0 38 26 63t64 25t64 -25t26 -63q0 -37 -26 -62t-64 -25z" />
    <glyph glyph-name="at" unicode="@" horiz-adv-x="916" 
d="M513 800q177 0 267.5 -93t90.5 -240q0 -136 -59.5 -220.5t-158.5 -84.5q-43 0 -69.5 21.5t-26.5 65.5q-17 -40 -53 -62.5t-75 -22.5q-66 0 -108 47t-42 135q0 105 54.5 170.5t128.5 65.5q70 0 95 -52l8 46h88l-19 -243q-7 -83 30 -83q32 0 56 58t24 157q0 116 -61 183
t-171 67q-132 0 -230.5 -114.5t-98.5 -282.5q0 -138 65 -218.5t171 -80.5q105 0 171 65l42 -63q-41 -46 -99.5 -68.5t-119.5 -22.5q-164 0 -263.5 97.5t-99.5 290.5q0 128 61.5 239t168.5 177t233 66zM454 256q31 0 54 40t23 105q0 45 -14 70.5t-39 25.5q-35 0 -57.5 -40.5
t-22.5 -101.5q0 -99 56 -99z" />
    <glyph glyph-name="A" unicode="A" horiz-adv-x="749" 
d="M12 0l-3 64q7 7 33 18l10 4q22 9 32.5 22.5t27.5 61.5l204 618h123l215 -648q10 -27 19 -37t28 -18l5 -2q24 -8 36 -16l-5 -67h-331l-4 64q13 8 39 17l14 5q26 10 32 25.5t-2 47.5l-23 76q-4 11 -15 11h-191q-11 0 -15 -11l-24 -78q-11 -41 -8.5 -53.5t19.5 -17.5l15 -5
q22 -7 35 -17l-6 -64h-260zM286 340h131q13 0 9 13l-72 234h-6l-71 -234q-4 -13 9 -13z" />
    <glyph glyph-name="B" unicode="B" horiz-adv-x="663" 
d="M44 0l-6 70q9 9 27 14l19 6q23 7 28 20.5t5 56.5v455q0 42 -6 55t-28 21l-20 7q-15 5 -24 14l5 69h284q122 0 184.5 -46.5t62.5 -133.5q0 -65 -33.5 -109.5t-91.5 -56.5v-5q79 -14 126 -68.5t47 -132.5q0 -111 -74 -173.5t-214 -62.5h-291zM293 485h19q48 0 74.5 28.5
t26.5 80.5q0 44 -24.5 69t-68.5 25h-29q-14 0 -14 -14v-174q0 -15 16 -15zM291 100h29q63 0 100 40t37 109q0 60 -41.5 98.5t-105.5 38.5h-17q-16 0 -16 -15v-257q0 -14 14 -14z" />
    <glyph glyph-name="C" unicode="C" horiz-adv-x="636" 
d="M351 -12q-153 0 -233 102.5t-80 298.5t80 303.5t223 107.5q86 0 139 -40q9 -6 12 6l6 28h93v-240h-95l-5 30q-20 118 -118 118q-79 0 -122 -79.5t-43 -224.5q0 -151 41.5 -230t120.5 -79q100 0 161 150l81 -34q-74 -217 -261 -217z" />
    <glyph glyph-name="D" unicode="D" horiz-adv-x="725" 
d="M44 0l-6 70q9 9 27 14l19 6q23 7 28 20.5t5 56.5v455q0 44 -5 56t-29 20l-20 7q-15 5 -24 14l5 69h271q178 0 275 -100t97 -286q0 -192 -96 -297t-269 -105h-278zM291 99h17q95 0 152 80.5t57 217.5q0 292 -207 292h-19q-14 0 -14 -14v-562q0 -14 14 -14z" />
    <glyph glyph-name="E" unicode="E" horiz-adv-x="614" 
d="M44 0l-6 70q7 7 27 14l19 6q23 7 28 20.5t5 56.5v455q0 44 -5 56t-29 20l-16 6q-17 6 -28 15l5 69h505v-219h-66q-6 9 -22 56l-15 44q-4 13 -10 16t-23 3h-122q-14 0 -14 -14v-210q0 -14 14 -14h26q24 0 32.5 5.5t17.5 26.5l5 12q6 16 15 31l51 -4v-237l-51 -4
q-8 10 -15 26l-5 12q-10 23 -19.5 30t-30.5 7h-26q-14 0 -14 -14v-227q0 -14 14 -14h144q17 0 23 3t10 16l15 44q12 36 22 56h66v-219h-527z" />
    <glyph glyph-name="F" unicode="F" horiz-adv-x="585" 
d="M44 0l-6 70q9 9 27 14l19 6q23 7 28 20.5t5 56.5v455q0 43 -5 55t-29 21l-16 6q-17 6 -28 15l5 69h505v-219h-66q-6 9 -22 56l-15 44q-4 13 -10 16t-23 3h-122q-14 0 -14 -14v-221q0 -14 14 -14h26q24 0 32.5 5.5t17.5 26.5l5 12q5 14 15 31l51 -4v-237l-51 -4
q-8 10 -15 26l-5 12q-11 26 -18.5 31.5t-31.5 5.5h-26q-14 0 -14 -14v-164q0 -43 5.5 -55.5t30.5 -20.5l15 -5q20 -7 31 -16l-5 -69h-310z" />
    <glyph glyph-name="G" unicode="G" horiz-adv-x="698" 
d="M341 -12q-147 0 -225 103.5t-78 297.5q0 197 81.5 304t234.5 107q82 0 139 -41q10 -7 13 6l5 29h93v-240h-95l-5 30q-20 118 -129 118q-83 0 -125 -78t-42 -226q0 -309 160 -309q53 0 84.5 37.5t31.5 97.5v62q0 22 -8 32t-28 12l-17 2q-35 4 -56 10l5 84h252v-426h-101
l-18 51q-6 17 -19 3q-52 -66 -153 -66z" />
    <glyph glyph-name="H" unicode="H" horiz-adv-x="798" 
d="M44 0l-6 70q9 9 27 14l19 6q23 7 28 20.5t5 56.5v455q0 43 -5 55t-29 21l-16 6q-17 6 -28 15l5 69h306l6 -70q-10 -8 -24 -13l-22 -7q-23 -7 -28 -20.5t-5 -56.5v-129q0 -14 14 -14h216q14 0 14 14v130q0 43 -5 55t-29 21l-16 6q-17 6 -28 15l5 69h306l6 -70
q-10 -8 -24 -13l-22 -7q-23 -7 -28 -20.5t-5 -56.5v-455q0 -43 5 -56t27 -20l15 -5q20 -7 31 -16l-5 -69h-306l-6 70q9 9 27 14l19 6q23 7 28 20.5t5 56.5v198q0 14 -14 14h-216q-14 0 -14 -14v-199q0 -43 5 -56t27 -20l15 -5q20 -7 31 -16l-5 -69h-306z" />
    <glyph glyph-name="I" unicode="I" horiz-adv-x="406" 
d="M50 0l-6 70q9 9 27 14l19 6q23 7 28 20.5t5 56.5v455q0 43 -5 55t-29 21l-16 6q-17 6 -28 15l5 69h306l6 -70q-10 -8 -24 -13l-22 -7q-23 -7 -28 -20.5t-5 -56.5v-455q0 -43 5 -56t27 -20l15 -5q20 -7 31 -16l-5 -69h-306z" />
    <glyph glyph-name="J" unicode="J" horiz-adv-x="533" 
d="M225 -12q-86 0 -138.5 42.5t-52.5 111.5q0 61 48 61h112v-66q0 -35 8.5 -49.5t29.5 -14.5t29.5 15t8.5 53v481q0 43 -5 55t-29 21l-16 6q-17 6 -28 15l5 69h306l6 -70q-10 -8 -24 -13l-22 -7q-23 -7 -28 -20.5t-5 -56.5v-404q0 -111 -53 -170t-152 -59z" />
    <glyph glyph-name="K" unicode="K" horiz-adv-x="704" 
d="M657 83q24 -7 33 -14l-4 -69h-213l-175 353q-5 11 -15 4q-6 -5 -6 -21v-170q0 -43 5 -56t27 -20l15 -5q20 -7 31 -16l-5 -69h-306l-6 70q9 9 27 14l19 6q23 7 28 20.5t5 56.5v455q0 43 -5 55t-29 21l-16 6q-17 6 -28 15l5 69h306l6 -70q-10 -8 -24 -13l-22 -7
q-23 -7 -28 -20.5t-5 -56.5v-138l155 185q24 29 1 42l-9 5q-11 6 -21 14l7 59h268l4 -66q-7 -9 -33 -15l-22 -6q-57 -16 -95 -59l-120 -138q-10 -13 -2 -27l163 -321q16 -32 31.5 -46.5t39.5 -22.5z" />
    <glyph glyph-name="L" unicode="L" horiz-adv-x="581" 
d="M44 0l-6 70q9 9 27 14l19 6q23 7 28 20.5t5 56.5v455q0 43 -5 55t-29 21l-16 6q-17 6 -28 15l5 69h306l6 -70q-10 -8 -24 -13l-22 -7q-23 -7 -28 -20.5t-5 -56.5v-507q0 -14 14 -14h128q17 0 23 3t10 16l15 44q16 47 22 56h66v-219h-511z" />
    <glyph glyph-name="M" unicode="M" horiz-adv-x="944" 
d="M44 0l-6 70q9 9 27 14l19 6q23 7 28 20.5t5 56.5v455q0 42 -6 55t-28 21l-20 7q-15 5 -24 14l5 69h250l180 -433l181 433h246l5 -69q-9 -9 -24 -14l-20 -7q-21 -8 -27.5 -21.5t-6.5 -54.5v-456q0 -43 5 -56t27 -20l15 -5q20 -7 31 -16l-5 -69h-306l-6 70q9 9 27 14l19 6
q23 7 28 20.5t5 56.5v392l-155 -378h-133l-155 368v-383q0 -43 5 -56t27 -20l15 -5q20 -7 31 -16l-5 -69h-254z" />
    <glyph glyph-name="N" unicode="N" horiz-adv-x="777" 
d="M44 0l-6 70q9 9 27 14l19 6q23 7 28 20.5t5 56.5v455q0 44 -5 56t-29 20l-20 7q-15 5 -24 14l5 69h224l292 -512v346q0 43 -5 56t-27 20l-15 5q-20 7 -31 16l5 69h254l6 -70q-9 -9 -27 -14l-19 -6q-23 -7 -28 -20.5t-5 -56.5v-621h-126l-317 553v-387q0 -43 5 -56t27 -20
l15 -5q20 -7 31 -16l-5 -69h-254z" />
    <glyph glyph-name="O" unicode="O" horiz-adv-x="707" 
d="M351 -12q-154 0 -233.5 102t-79.5 299t82.5 304t234.5 107q150 0 232 -105.5t82 -300.5q0 -196 -82 -301t-236 -105zM353 87q69 0 107.5 81t38.5 227t-38 226t-107 80q-68 0 -107 -81t-39 -222q0 -148 38.5 -229.5t106.5 -81.5z" />
    <glyph glyph-name="P" unicode="P" horiz-adv-x="643" 
d="M44 0l-6 70q9 9 27 14l19 6q23 7 28 20.5t5 56.5v455q0 43 -5 55t-29 21l-16 6q-17 6 -28 15l5 69h278q138 0 212 -61.5t74 -180.5q0 -121 -81 -187t-219 -66h-16q-15 0 -15 -15v-112q0 -42 6.5 -55t31.5 -21l15 -5q25 -8 34 -16l-5 -69h-315zM292 393h14q63 0 99 38
t36 111q0 72 -34.5 109t-90.5 37h-25q-14 0 -14 -15v-265q0 -15 15 -15z" />
    <glyph glyph-name="Q" unicode="Q" horiz-adv-x="707" 
d="M400 -9q8 -69 113 -69h73v-110q0 -26 -13.5 -35t-49.5 -9q-110 0 -173.5 60.5t-65.5 165.5q-121 21 -183.5 121t-62.5 274q0 197 82.5 304t234.5 107q150 0 232 -105.5t82 -300.5q0 -180 -69 -283t-200 -120zM208 398q0 -148 38.5 -229.5t106.5 -81.5q69 0 107.5 81
t38.5 227t-38 226t-107 80q-68 0 -107 -81t-39 -222z" />
    <glyph glyph-name="R" unicode="R" horiz-adv-x="672" 
d="M44 0l-6 70q9 9 27 14l19 6q23 7 28 20.5t5 56.5v455q0 43 -5 55t-29 21l-16 6q-17 6 -28 15l5 69h284q275 0 275 -224q0 -66 -35 -117.5t-92 -77.5q-10 -4 -5 -17l87 -187q19 -42 32 -56t36 -22l9 -3q17 -6 30 -15l-4 -69h-196l-140 322q-5 11 -16 11h-18q-14 0 -14 -15
v-152q0 -43 5 -56t27 -20l15 -5q20 -7 31 -16l-5 -69h-306zM292 433h11q62 0 96 33t34 94q0 66 -31.5 97t-94.5 31h-15q-15 0 -15 -15v-225q0 -15 15 -15z" />
    <glyph glyph-name="S" unicode="S" horiz-adv-x="607" 
d="M315 -12q-98 0 -160 55q-16 15 -18 -7l-4 -36h-90v275h97l2 -32q5 -71 47.5 -114t108.5 -43q49 0 82.5 29.5t33.5 73.5q0 63 -91 117l-127 77q-139 83 -139 215q0 91 64.5 146.5t168.5 55.5q81 0 131 -44q13 -13 16 6l6 31h90v-226h-97l-4 41q-4 47 -36.5 72t-85.5 25
q-43 0 -69.5 -22.5t-26.5 -60.5q0 -53 88 -108l133 -83q136 -85 136 -203q0 -106 -71.5 -173t-184.5 -67z" />
    <glyph glyph-name="T" unicode="T" horiz-adv-x="680" 
d="M187 0l-6 70q9 9 27 14l19 6q23 7 28 20.5t5 56.5v507q0 14 -14 14h-74q-17 0 -23 -3t-10 -16l-15 -44q-16 -47 -22 -56h-66v219h608v-219h-66q-6 9 -22 56l-15 44q-4 13 -10 16t-23 3h-74q-14 0 -14 -14v-508q0 -43 5 -56t27 -20l15 -5q20 -7 31 -16l-5 -69h-306z" />
    <glyph glyph-name="U" unicode="U" horiz-adv-x="745" 
d="M375 -12q-131 0 -202 68t-71 195v371q0 43 -5 56t-27 20l-15 5q-20 7 -31 16l5 69h306l6 -70q-9 -9 -27 -14l-19 -6q-23 -7 -28 -20.5t-5 -56.5v-368q0 -80 34 -117t106 -37q132 0 132 163v360q0 43 -5 56t-27 20l-15 5q-20 7 -31 16l5 69h254l6 -70q-9 -9 -27 -14
l-19 -6q-23 -7 -28 -20.5t-5 -56.5v-367q0 -125 -71 -195.5t-196 -70.5z" />
    <glyph glyph-name="V" unicode="V" horiz-adv-x="738" 
d="M720 788l7 -68q-7 -6 -29 -13l-15 -5q-16 -5 -25.5 -19t-21.5 -54l-195 -629h-141l-199 622q-13 42 -21.5 56t-25.5 20l-15 5q-20 7 -31 16l5 69h309l8 -70q-7 -7 -27 -13l-15 -4q-19 -6 -23 -19t7 -52l127 -427l128 420q11 40 5.5 55t-28.5 22l-17 5q-25 7 -37 17l4 66
h266z" />
    <glyph glyph-name="W" unicode="W" horiz-adv-x="973" 
d="M955 788l7 -68q-7 -6 -29 -13l-12 -4q-19 -6 -29 -21.5t-18 -52.5l-145 -629h-139l-110 478l-117 -478h-139l-144 660q-7 32 -26 38l-15 5q-20 7 -31 16l5 69h309l8 -70q-7 -7 -27 -13l-15 -4q-24 -7 -31.5 -23t0.5 -57l74 -384l121 551h127l112 -550l85 385q8 41 0.5 56
t-33.5 23l-17 5q-24 8 -36 16l3 65h262z" />
    <glyph glyph-name="X" unicode="X" horiz-adv-x="738" 
d="M692 85q29 -10 37 -16l-5 -69h-310l-8 70q8 6 27 12l13 4q14 4 12 19t-23 50l-88 150l-101 -155q-15 -24 -20.5 -38.5t-3.5 -20.5t11 -9l11 -3q23 -7 31 -13l-4 -66h-255l-7 68q7 6 29 13l15 5q25 8 43 24.5t42 52.5l151 230l-145 243q-32 53 -62 62l-15 5q-28 10 -37 16
l5 69h306l8 -70q-7 -7 -23 -12l-13 -4q-14 -4 -12 -19t23 -49l67 -112l79 124q33 52 8 60l-11 3q-23 7 -31 13l4 66h255l7 -68q-7 -6 -29 -13l-15 -5q-45 -15 -78 -67l-133 -204l160 -266q38 -64 70 -75z" />
    <glyph glyph-name="Y" unicode="Y" horiz-adv-x="674" 
d="M669 788l7 -68q-7 -6 -29 -13l-15 -5q-19 -6 -33.5 -22.5t-33.5 -56.5l-139 -295v-162q0 -43 5 -56t27 -20l15 -5q20 -7 31 -16l-5 -69h-306l-6 70q9 9 27 14l19 6q23 7 28 20.5t5 56.5v149l-152 306q-20 42 -31 56t-27 20l-15 5q-24 9 -33 16l5 69h305l8 -70
q-7 -7 -27 -13l-13 -4q-39 -12 -13 -67l97 -197l92 198q28 58 -3 67l-17 5q-23 7 -33 15l4 66h256z" />
    <glyph glyph-name="Z" unicode="Z" horiz-adv-x="604" 
d="M513 219h66v-219h-554v68l355 625h-195q-17 0 -23 -3t-10 -16l-17 -49q-16 -47 -22 -56h-66v219h522v-68l-357 -625h230q17 0 23 3t10 16l16 49q14 41 22 56z" />
    <glyph glyph-name="bracketleft" unicode="[" horiz-adv-x="353" 
d="M95 -212v1045h203v-80h-102v-885h102v-80h-203z" />
    <glyph glyph-name="backslash" unicode="\" horiz-adv-x="520" 
d="M426 -131l-429 958l97 42l429 -958z" />
    <glyph glyph-name="bracketright" unicode="]" horiz-adv-x="353" 
d="M258 -212h-203v80h102v885h-102v80h203v-1045z" />
    <glyph glyph-name="asciicircum" unicode="^" horiz-adv-x="605" 
d="M556 384l-84 -44l-170 322l-169 -322l-84 44l213 404h84z" />
    <glyph glyph-name="underscore" unicode="_" horiz-adv-x="580" 
d="M0 -187v100h580v-100h-580z" />
    <glyph glyph-name="grave" unicode="`" horiz-adv-x="400" 
d="M292 617l-217 132l83 98l186 -160z" />
    <glyph glyph-name="a" unicode="a" horiz-adv-x="602" 
d="M557 77q14 -4 21 -10l-3 -67h-197v66q-24 -35 -67.5 -56.5t-93.5 -21.5q-81 0 -133 44t-52 113q0 74 53 117.5t168 63.5l86 17q17 4 21.5 9t4.5 21v17q0 87 -83 87q-67 0 -67 -64v-51h-128q-14 0 -21 14q-6 12 -6 34q0 67 56 110.5t165 43.5q118 0 177.5 -48.5
t59.5 -140.5v-244q0 -26 4 -35.5t21 -14.5zM365 199v68q-25 -9 -55 -16l-28 -7q-90 -19 -90 -83q0 -30 20 -51t50 -21q45 0 74 29.5t29 80.5z" />
    <glyph glyph-name="b" unicode="b" horiz-adv-x="648" 
d="M396 564q102 0 163 -78.5t61 -209.5q0 -130 -65 -209t-165 -79q-118 0 -171 91v-79h-199l-3 67q10 5 31 12l15 5q19 7 25 16t6 31v525q0 24 -6.5 33t-25.5 15l-15 5q-22 7 -29 12l3 67h226v-287q51 63 149 63zM356 86q48 0 74 48.5t26 141.5q0 190 -100 190
q-56 0 -85 -49.5t-29 -140.5q0 -92 29.5 -141t84.5 -49z" />
    <glyph glyph-name="c" unicode="c" horiz-adv-x="557" 
d="M296 -12q-120 0 -194 75t-74 215q0 132 72.5 209t185.5 77q68 0 112 -27q11 -6 15 6l4 18h88v-222h-95l-2 16q-8 62 -32.5 90t-68.5 28q-53 0 -84 -45.5t-31 -137.5q0 -96 37 -145.5t101 -49.5q69 0 142 65l56 -62q-100 -110 -232 -110z" />
    <glyph glyph-name="d" unicode="d" horiz-adv-x="628" 
d="M592 78q16 -5 24 -11l-3 -67h-199v68q-55 -80 -149 -80q-105 0 -171 78.5t-66 209.5t65.5 209.5t168.5 78.5q91 0 139 -66v159q0 24 -6.5 32.5t-25.5 14.5l-15 5q-22 7 -29 12l3 67h226v-657q0 -24 4.5 -33.5t18.5 -14.5zM295 86q52 0 81.5 49.5t29.5 140.5
q0 190 -106 190q-108 0 -108 -189q0 -191 103 -191z" />
    <glyph glyph-name="e" unicode="e" horiz-adv-x="588" 
d="M307 -12q-131 0 -205 78t-74 211q0 129 77 208t193 79q99 0 169 -56q81 -66 81 -149q0 -16 -10.5 -24.5t-46.5 -25.5q-142 -66 -288 -101q-12 -3 -12 -12q0 -38 35 -66.5t102 -28.5q91 0 167 73l53 -65q-40 -54 -103 -87.5t-138 -33.5zM192 297q18 0 76 17.5t96 35.5
q24 11 24 25q0 30 -18 57q-29 43 -82 43q-47 0 -78.5 -37t-31.5 -105q0 -11 2 -27q2 -9 12 -9z" />
    <glyph glyph-name="f" unicode="f" horiz-adv-x="393" 
d="M31 0l-3 67q10 5 31 12l15 5q19 7 25 16t6 31v321h-87v100h87v53q0 97 51.5 146t144.5 49q77 0 123.5 -36.5t46.5 -105.5v-5q0 -20 -6 -26q-8 -8 -30 -8h-93v44q0 56 -40 56q-24 0 -34 -15.5t-10 -51.5v-100h106v-100h-106v-321q0 -20 8.5 -29t33.5 -18l15 -5
q21 -7 31 -12l-3 -67h-312z" />
    <glyph glyph-name="g" unicode="g" horiz-adv-x="650" 
d="M624 552v-100h-97q36 -48 36 -120q0 -66 -31.5 -116.5t-89.5 -74.5q78 -15 118 -58t40 -106q0 -88 -77.5 -144.5t-207.5 -56.5q-145 0 -215 49.5t-70 135.5v3q0 36 32 36h118l3 -23q15 -110 140 -110q55 0 83.5 27.5t28.5 75.5q0 102 -125 109l-19 1q-259 14 -259 252
q0 108 71 170.5t194 62.5q50 0 94 -13h233zM303 170q96 0 96 155q0 152 -99 152q-104 0 -104 -152q0 -155 107 -155z" />
    <glyph glyph-name="h" unicode="h" horiz-adv-x="664" 
d="M613 79q11 -4 27 -12l-3 -67h-210v349q0 107 -77 107q-50 0 -76.5 -41t-26.5 -117v-167q0 -21 6.5 -31t24.5 -16l15 -5q21 -7 31 -12l-3 -67h-301l-3 67q10 5 31 12l15 5q19 7 25 16t6 31v526q0 24 -6.5 32.5t-25.5 14.5l-15 5q-24 8 -29 12l3 67h226v-287q60 63 149 63
q83 0 133.5 -53.5t50.5 -144.5v-235q0 -25 5 -34.5t17 -13.5z" />
    <glyph glyph-name="i" unicode="i" horiz-adv-x="333" 
d="M174 617q-41 0 -68.5 26.5t-27.5 65.5t27.5 65t68.5 26q40 0 67 -26t27 -65t-27 -65.5t-67 -26.5zM25 0l-3 67q10 5 31 12l15 5q19 7 25 16t6 31v290q0 24 -6.5 32.5t-25.5 14.5l-15 5q-22 7 -29 12l3 67h226v-421q0 -21 6.5 -31t24.5 -16l15 -5q21 -7 31 -12l-3 -67
h-301z" />
    <glyph glyph-name="j" unicode="j" horiz-adv-x="308" 
d="M174 617q-41 0 -68.5 26.5t-27.5 65.5t27.5 65t68.5 26q40 0 67 -26t27 -65t-27 -65.5t-67 -26.5zM58 -224q-77 0 -122 34.5t-45 95.5v5q0 22 9 35q10 13 29 13h91v-52q0 -50 39 -50q40 0 40 58v506q0 24 -6.5 32.5t-25.5 14.5l-15 5q-22 7 -29 12l3 67h226v-561
q0 -107 -47 -161t-147 -54z" />
    <glyph glyph-name="k" unicode="k" horiz-adv-x="632" 
d="M578 79q9 -3 27 -12l-3 -67h-172l-133 236q-7 13 -15 5l-26 -26q-9 -9 -9 -20v-64q0 -24 4.5 -33.5t19.5 -14.5l15 -5q15 -5 27 -11l-3 -67h-290l-3 67q10 5 31 12l15 5q19 7 25 16t6 31v526q0 24 -6.5 32.5t-25.5 14.5l-15 5q-24 8 -29 12l3 67h226v-465l111 110
q14 13 14 23.5t-10 13.5l-10 4q-14 6 -22 11l3 67h260l3 -67q-10 -5 -31 -12l-16 -5q-46 -15 -94 -60l-58 -56q-5 -5 0 -15l117 -205q22 -39 50 -48z" />
    <glyph glyph-name="l" unicode="l" horiz-adv-x="336" 
d="M20 0l-3 67q10 5 31 12l15 5q19 7 25 16t6 31v526q0 24 -6.5 32.5t-25.5 14.5l-15 5q-24 8 -29 12l3 67h226v-657q0 -21 6.5 -31t24.5 -16l15 -5q21 -7 31 -12l-3 -67h-301z" />
    <glyph glyph-name="m" unicode="m" horiz-adv-x="992" 
d="M941 79q15 -6 27 -12l-3 -67h-210v356q0 100 -68 100q-49 0 -79 -42t-30 -111v-172q0 -25 4.5 -34t17.5 -14l11 -4q15 -6 27 -12l-3 -67h-210v356q0 100 -68 100q-49 0 -79 -42t-30 -111v-172q0 -21 6.5 -31t24.5 -16l15 -5q21 -7 31 -12l-3 -67h-301l-3 67q10 5 31 12
l15 5q19 7 25 16t6 31v290q0 24 -6.5 32.5t-25.5 14.5l-15 5q-22 7 -29 12l3 67h226v-62q60 74 152 74q102 0 149 -82q70 82 178 82q84 0 132.5 -53t48.5 -145v-235q0 -25 4.5 -34t17.5 -14z" />
    <glyph glyph-name="n" unicode="n" horiz-adv-x="677" 
d="M626 79q15 -6 27 -12l-3 -67h-210v346q0 54 -17.5 79.5t-57.5 25.5q-56 0 -86.5 -41t-30.5 -113v-166q0 -21 6.5 -31t24.5 -16l15 -5q21 -7 31 -12l-3 -67h-301l-3 67q10 5 31 12l15 5q19 7 25 16t6 31v290q0 24 -6.5 32.5t-25.5 14.5l-15 5q-22 7 -29 12l3 67h226v-58
q64 70 160 70q86 0 135.5 -53t49.5 -145v-235q0 -25 4.5 -34t17.5 -14z" />
    <glyph glyph-name="o" unicode="o" horiz-adv-x="610" 
d="M304 -12q-124 0 -200 78.5t-76 209.5q0 130 78 209t201 79q124 0 199.5 -78.5t75.5 -209.5q0 -130 -78 -209t-200 -79zM306 83q54 0 83 49.5t29 143.5t-29 143.5t-82 49.5q-55 0 -85 -48.5t-30 -144.5q0 -94 29 -143.5t85 -49.5z" />
    <glyph glyph-name="p" unicode="p" horiz-adv-x="641" 
d="M384 564q101 0 165 -79t64 -209q0 -129 -66 -208.5t-162 -79.5q-93 0 -145 57v-126q0 -22 6.5 -31.5t26.5 -15.5l16 -5q28 -9 37 -12l-3 -67h-310l-3 67q10 5 31 12l15 5q19 7 25 16t6 31v502q0 24 -6.5 32.5t-25.5 14.5l-15 5q-22 7 -29 12l3 67h226v-49q52 61 144 61z
M349 86q47 0 73.5 49t26.5 141q0 190 -100 190q-114 0 -114 -190q0 -92 29.5 -141t84.5 -49z" />
    <glyph glyph-name="q" unicode="q" horiz-adv-x="621" 
d="M317 -212l-3 67q8 4 32 12l15 5q22 7 31 17t9 30v130q-53 -61 -136 -61q-106 0 -171.5 77t-65.5 211q0 129 66 208.5t168 79.5q49 0 90.5 -21t62.5 -56l15 65h124v-633q0 -23 4 -32.5t19 -14.5l15 -5q15 -5 29 -12l-3 -67h-301zM296 86q50 0 80 49.5t30 140.5
q0 186 -109 186q-105 0 -105 -186q0 -190 104 -190z" />
    <glyph glyph-name="r" unicode="r" horiz-adv-x="535" 
d="M401 564q53 0 83.5 -33t30.5 -90v-5q0 -33 -11 -45q-10 -12 -33 -12h-96l-4 42q-3 34 -30 34q-39 0 -66.5 -50.5t-27.5 -126.5v-147q0 -20 8 -29t30 -17l15 -5q24 -8 34 -13l-3 -67h-310l-3 67q10 5 31 12l15 5q19 7 24.5 16t5.5 31v290q0 24 -6.5 32.5t-25.5 14.5l-15 5
q-22 7 -29 12l3 67h226v-74q62 86 154 86z" />
    <glyph glyph-name="s" unicode="s" horiz-adv-x="510" 
d="M272 -12q-37 0 -72.5 12t-54.5 28q-11 9 -15 -6l-6 -22h-84v203h94l3 -27q5 -44 38 -68.5t85 -24.5q38 0 57.5 15t19.5 37q0 21 -14.5 34.5t-53.5 31.5l-107 48q-113 51 -113 160q0 67 53 111t129 44q73 0 120 -37q10 -8 11 5l3 23h84v-176h-93l-4 21q-14 71 -102 71
q-30 0 -47 -13t-17 -33q0 -19 13 -31.5t46 -27.5l122 -56q107 -49 107 -148q0 -76 -56 -125t-146 -49z" />
    <glyph glyph-name="t" unicode="t" horiz-adv-x="427" 
d="M234 -12q-146 0 -146 151v313h-80v89l47 12q27 7 39 17t17 30l34 120h96v-168h123v-100h-123v-300q0 -27 8.5 -38t27.5 -11q32 0 78 32l49 -70q-84 -77 -170 -77z" />
    <glyph glyph-name="u" unicode="u" horiz-adv-x="648" 
d="M598 78q16 -5 24 -11l-3 -67h-199v75q-62 -87 -166 -87q-80 0 -128.5 53.5t-48.5 144.5v247q0 27 -21 35l-11 4q-18 6 -27 12l3 68h209v-351q0 -100 68 -100q49 0 79 40t30 108v184q0 27 -21 35l-11 4q-22 7 -29 12l3 68h211v-421q0 -24 4.5 -33.5t18.5 -14.5z" />
    <glyph glyph-name="v" unicode="v" horiz-adv-x="618" 
d="M611 552l3 -67q-12 -6 -30 -12l-15 -5q-16 -5 -25.5 -15t-18.5 -34l-157 -419h-121l-161 429q-12 32 -35 39l-15 5q-21 7 -31 12l3 67h299l3 -66q-11 -5 -29 -11l-17 -5q-28 -9 -18 -39l84 -251l84 243q7 23 4.5 32.5t-17.5 14.5l-11 4q-20 6 -30 11l3 67h248z" />
    <glyph glyph-name="w" unicode="w" horiz-adv-x="882" 
d="M221 0l-136 433q-8 27 -34 35l-15 5q-21 7 -31 12l3 67h294l3 -66q-7 -4 -27 -11l-17 -5q-26 -8 -18 -38l67 -240l96 360h119l99 -360l65 244q4 16 0.5 22.5t-16.5 11.5l-11 4q-19 6 -30 11l3 67h240l3 -67q-10 -5 -28 -11l-14 -5q-33 -12 -43 -41l-133 -428h-124
l-95 311l-95 -311h-125z" />
    <glyph glyph-name="x" unicode="x" horiz-adv-x="621" 
d="M587 78q13 -4 24 -11l-3 -67h-279l-3 66q9 5 26 11l14 5q26 10 6 33l-78 90l-65 -80q-11 -14 -7.5 -26.5t18.5 -17.5l11 -4q18 -6 26 -10l-3 -67h-260l-3 67q10 5 28 11l14 5q33 12 54 38l126 152l-141 165q-17 21 -42 31l-12 5q-12 4 -26 11l3 67h288l3 -66
q-7 -4 -27 -11l-17 -5q-11 -3 -13 -12.5t9 -23.5l63 -74l60 73q22 29 -2 37l-11 4l-29 11l3 67h251l3 -67q-6 -3 -28 -11l-14 -5q-36 -14 -62 -43l-110 -135l138 -160q36 -41 54 -48z" />
    <glyph glyph-name="y" unicode="y" horiz-adv-x="616" 
d="M609 552l3 -67q-12 -6 -30 -12l-15 -5q-30 -10 -45 -49l-139 -369q-60 -159 -109.5 -216.5t-121.5 -57.5q-63 0 -102 36.5t-39 99.5v4q0 46 37 46h98l4 -32q7 -49 36 -49q34 0 73 104l-168 435q-16 40 -40 48l-15 5q-21 7 -31 12l3 67h295l3 -66q-11 -5 -29 -11l-17 -5
q-26 -8 -15 -40l86 -254l85 253q10 32 -16 41l-11 4q-19 6 -30 11l3 67h247z" />
    <glyph glyph-name="z" unicode="z" horiz-adv-x="555" 
d="M447 208h70v-208h-484v82l289 377h-153q-20 0 -27 -21l-28 -94h-70v208h463v-82l-284 -377h169q20 0 27 21z" />
    <glyph glyph-name="braceleft" unicode="{" horiz-adv-x="335" 
d="M269 -210q-88 0 -125.5 37t-37.5 132v271q0 49 -43 49h-30v90h28q45 0 45 56v239q0 95 37.5 132t125.5 37h36v-80h-28q-45 0 -57.5 -20t-12.5 -79v-243q0 -60 -59 -83l-8 -3l8 -2q59 -16 59 -77v-277q0 -59 12.5 -79t57.5 -20h28v-80h-36z" />
    <glyph glyph-name="bar" unicode="|" horiz-adv-x="426" 
d="M155 -212v1081h116v-1081h-116z" />
    <glyph glyph-name="braceright" unicode="}" horiz-adv-x="335" 
d="M66 -210h-36v80h28q45 0 57.5 20t12.5 79v277q0 61 59 77l8 2l-8 3q-59 23 -59 83v243q0 59 -12.5 79t-57.5 20h-28v80h36q88 0 125.5 -37t37.5 -132v-239q0 -56 45 -56h28v-90h-30q-43 0 -43 -49v-271q0 -95 -37.5 -132t-125.5 -37z" />
    <glyph glyph-name="asciitilde" unicode="~" horiz-adv-x="605" 
d="M421 328q-43 0 -84 23.5t-77 47t-67 23.5q-35 0 -64.5 -23t-48.5 -58l-71 63q28 52 78.5 87t108.5 35q42 0 80.5 -23.5t74.5 -47t74 -23.5q65 0 109 78l62 -61q-24 -50 -73.5 -85.5t-101.5 -35.5z" />
    <glyph glyph-name="uni00A0" unicode="&#xa0;" horiz-adv-x="240" 
 />
    <glyph glyph-name="exclamdown" unicode="&#xa1;" horiz-adv-x="294" 
d="M147 433q-38 0 -64 25t-26 63q0 37 26 62t64 25t64 -25t26 -62q0 -38 -26 -63t-64 -25zM65 -190l26 566h112l26 -566h-164z" />
    <glyph glyph-name="cent" unicode="&#xa2;" horiz-adv-x="557" 
d="M528 217q-82 -90 -187 -106v-108h-99v108q-98 16 -156 89.5t-58 196.5q0 116 56.5 190t149.5 91v107h99v-106q38 -7 65 -23q11 -6 15 6l4 18h88v-222h-95l-2 16q-8 62 -32.5 90t-68.5 28q-53 0 -84 -45.5t-31 -137.5q0 -96 37 -145.5t101 -49.5q69 0 142 65z" />
    <glyph glyph-name="sterling" unicode="&#xa3;" horiz-adv-x="614" 
d="M518 227h66v-227h-540v90q140 57 140 161q0 48 -26 89h-116v81h75q-53 97 -53 165q0 96 72 155t184 59q106 0 172.5 -51t66.5 -139v-8q0 -26 -9.5 -37.5t-31.5 -11.5h-119v53q0 46 -21 72.5t-60 26.5t-63 -29.5t-24 -80.5q0 -75 59 -174h153v-81h-119q9 -34 9 -68
q0 -93 -81 -157h190q31 0 42 32l10 27q12 33 24 53z" />
    <glyph glyph-name="currency" unicode="&#xa4;" horiz-adv-x="719" 
d="M108 20l-68 73l111 101q-31 53 -31 122q0 67 34 130l-111 105l71 74l107 -103q61 43 132 43q78 0 142 -51l109 106l75 -70l-122 -112q30 -54 30 -122q0 -64 -27 -116l116 -109l-74 -73l-105 102q-63 -52 -144 -52q-76 0 -140 50zM355 166q48 0 78 37t30 104
q0 72 -29.5 116.5t-79.5 44.5q-49 0 -79.5 -38t-30.5 -105q0 -73 29 -116t82 -43z" />
    <glyph glyph-name="yen" unicode="&#xa5;" horiz-adv-x="674" 
d="M669 788l7 -68q-7 -6 -29 -13l-15 -5q-20 -7 -35.5 -23t-34.5 -55l-97 -200h129v-88h-168v-78h168v-88h-168v-4q0 -43 5 -56t27 -20l15 -5q20 -7 31 -16l-5 -69h-306l-6 70q9 9 27 14l19 6q23 7 28 20.5t5 56.5v3h-168v88h168v78h-168v88h122l-107 206q-17 34 -29 48
t-28 20l-15 5q-24 9 -33 16l5 69h305l8 -70q-7 -7 -27 -13l-13 -4q-38 -12 -11 -63l95 -186l89 183q16 34 16 48t-16 19l-17 5q-23 7 -33 15l4 66h256z" />
    <glyph glyph-name="brokenbar" unicode="&#xa6;" horiz-adv-x="426" 
d="M155 468v401h116v-401h-116zM155 -212v401h116v-401h-116z" />
    <glyph glyph-name="section" unicode="&#xa7;" horiz-adv-x="600" 
d="M45 -159v235h94l5 -31q12 -73 54.5 -108.5t94.5 -35.5q46 0 71.5 24.5t25.5 67.5q0 36 -26 58.5t-78 41.5l-70 26q-75 28 -118 77.5t-43 115.5q0 92 89 152q-72 59 -72 149q0 78 58.5 132.5t157.5 54.5q70 0 112 -39q9 -9 13 5l7 29h84v-206h-100l-1 28q-1 46 -30.5 72.5
t-72.5 26.5q-40 0 -67 -23.5t-27 -62.5t26.5 -58.5t82.5 -40.5l73 -27q88 -33 126 -78t38 -107q0 -82 -79 -155q67 -60 67 -142q0 -83 -63 -144t-162 -61q-101 0 -160 52q-10 10 -12 -5l-3 -23h-95zM395 207q18 29 18 59q0 39 -20 62t-67 41l-118 46q-18 -29 -18 -58
q0 -39 23 -62.5t77 -45.5z" />
    <glyph glyph-name="dieresis" unicode="&#xa8;" horiz-adv-x="400" 
d="M87 634q-32 0 -55.5 23.5t-23.5 55.5t23.5 55.5t55.5 23.5t55.5 -23.5t23.5 -55.5t-23.5 -55.5t-55.5 -23.5zM313 634q-32 0 -55.5 23.5t-23.5 55.5t23.5 55.5t55.5 23.5t55.5 -23.5t23.5 -55.5t-23.5 -55.5t-55.5 -23.5z" />
    <glyph glyph-name="copyright" unicode="&#xa9;" horiz-adv-x="880" 
d="M440 -12q-169 0 -287 117.5t-118 288.5t118 288.5t287 117.5q168 0 286.5 -117.5t118.5 -288.5t-118.5 -288.5t-286.5 -117.5zM440 57q133 0 226 98t93 239t-93 239t-226 98q-132 0 -225.5 -98t-93.5 -239q0 -140 93.5 -238.5t225.5 -98.5zM453 151q-101 0 -166.5 64.5
t-65.5 176.5q0 109 66.5 178t164.5 69q81 0 133 -40.5t52 -105.5v-7q0 -20 -5.5 -24.5t-21.5 -4.5h-94v30q0 41 -17 63.5t-49 22.5q-47 0 -76 -44.5t-29 -126.5q0 -81 35 -127.5t100 -46.5q75 0 132 70l43 -39q-71 -108 -202 -108z" />
    <glyph glyph-name="ordfeminine" unicode="&#xaa;" horiz-adv-x="439" 
d="M387 481q8 -3 13 -6v-44h-134v44q-35 -52 -106 -52q-54 0 -89.5 29.5t-35.5 75.5q0 47 30.5 73.5t102.5 40.5l56 11q20 4 26.5 9t6.5 15v9q0 57 -51 57q-44 0 -44 -42v-33h-87q-9 0 -14 9q-4 10 -4 22q0 44 37.5 72.5t110.5 28.5q75 0 116 -32t41 -91v-160q0 -28 16 -33z
M257 561v41q-17 -7 -36 -11l-18 -4q-58 -13 -58 -53q0 -18 13.5 -30t33.5 -12q29 0 47 18t18 51zM39 303v65h361v-65h-361z" />
    <glyph glyph-name="guillemotleft" unicode="&#xab;" horiz-adv-x="479" 
d="M172 90l-118 205q-8 14 0 29l120 205l63 -31l-85 -184l85 -191zM338 111l-112 187q-6 11 0 22l115 189l59 -33l-74 -162l78 -165z" />
    <glyph glyph-name="logicalnot" unicode="&#xac;" horiz-adv-x="605" 
d="M467 150v243h-436v101h543v-344h-107z" />
    <glyph glyph-name="uni00AD" unicode="&#xad;" horiz-adv-x="334" 
d="M40 253v100h254v-100h-254z" />
    <glyph glyph-name="registered" unicode="&#xae;" horiz-adv-x="677" 
d="M338 229q-125 0 -208 84t-83 206q0 121 83 205.5t208 84.5t208.5 -84.5t83.5 -205.5q0 -122 -83.5 -206t-208.5 -84zM338 292q97 0 154.5 65t57.5 162q0 96 -57.5 161.5t-154.5 65.5t-154 -65.5t-57 -161.5q0 -97 57 -162t154 -65zM228 364v327h115q54 0 86 -26t32 -71
q0 -67 -54 -85q-6 -2 -2 -13l21 -57q10 -25 21 -31l7 -4q7 -4 13 -8l-2 -32h-85l-45 122q-3 8 -11 8h-12q-8 0 -8 -10v-120h-76zM314 544h16q25 0 38.5 14t13.5 37q0 46 -44 46h-24q-10 0 -10 -10v-76q0 -11 10 -11z" />
    <glyph glyph-name="macron" unicode="&#xaf;" horiz-adv-x="400" 
d="M5 649v101h390v-101h-390z" />
    <glyph glyph-name="degree" unicode="&#xb0;" horiz-adv-x="337" 
d="M169 597q-63 0 -108.5 43.5t-45.5 104.5q0 62 45.5 106t108.5 44q62 0 107.5 -43.5t45.5 -104.5q0 -63 -45 -106.5t-108 -43.5zM169 686q26 0 43.5 17t17.5 42q0 26 -17.5 43.5t-43.5 17.5t-44 -17t-18 -42q0 -26 18 -43.5t44 -17.5z" />
    <glyph glyph-name="plusminus" unicode="&#xb1;" horiz-adv-x="605" 
d="M249 200v190h-218v101h218v190h107v-190h218v-101h-218v-190h-107zM31 0v101h543v-101h-543z" />
    <glyph glyph-name="uni00B2" unicode="&#xb2;" horiz-adv-x="413" 
d="M327 531h46v-142h-333v82q116 80 154 119t38 91q0 53 -39 53q-42 0 -42 -66v-44h-75q-24 0 -34 8t-10 31q0 57 41.5 97t124.5 40q75 0 118.5 -34t43.5 -91q0 -66 -55 -112t-157 -90h125q26 0 38 26l4 8q7 17 12 24z" />
    <glyph glyph-name="uni00B3" unicode="&#xb3;" horiz-adv-x="423" 
d="M208 388q-83 0 -128.5 34.5t-45.5 83.5q0 33 20 33h92v-26q0 -27 16.5 -43t43.5 -16q24 0 37.5 16t13.5 41q0 58 -59 58h-18v60h18q28 0 41 13.5t13 43.5q0 48 -42 48q-23 0 -35.5 -15t-12.5 -39v-19h-85q-27 0 -27 29q0 47 45.5 78.5t118.5 31.5q69 0 113 -30.5
t44 -78.5q0 -61 -71 -88v-1q36 -7 61 -31.5t25 -59.5q0 -53 -50.5 -88t-127.5 -35z" />
    <glyph glyph-name="acute" unicode="&#xb4;" horiz-adv-x="400" 
d="M137 617l-52 70l186 160l83 -98z" />
    <glyph glyph-name="uni00B5" unicode="&#xb5;" horiz-adv-x="661" 
d="M621 113l32 -46q-18 -36 -52 -57.5t-76 -21.5q-36 0 -63.5 24t-34.5 65q-17 -41 -48 -65t-70 -24q-57 0 -81 37v-237h-145v645q0 27 -21 35l-11 4q-18 6 -27 12l3 68h209v-351q0 -100 68 -100q49 0 79 40t30 108v184q0 27 -21 35l-11 4q-22 7 -29 12l3 68h211v-425
q0 -30 20 -30q19 0 35 16z" />
    <glyph glyph-name="paragraph" unicode="&#xb6;" horiz-adv-x="696" 
d="M209 -172l-1 73q7 3 37 11l25 6q33 8 33 63v351h-15q-114 0 -176 67.5t-62 162.5q0 97 64.5 161.5t175.5 64.5h324v-960h-107v870h-97v-870h-201z" />
    <glyph glyph-name="periodcentered" unicode="&#xb7;" horiz-adv-x="498" 
d="M250 215q-42 0 -71 28.5t-29 70.5q0 41 29 69.5t71 28.5q41 0 69.5 -28.5t28.5 -69.5q0 -42 -28.5 -70.5t-69.5 -28.5z" />
    <glyph glyph-name="cedilla" unicode="&#xb8;" horiz-adv-x="400" 
d="M197 -227q-71 0 -122 33l26 62q35 -23 67 -23q19 0 30 10t11 26q0 39 -70 59l28 62h73l-13 -28q46 -11 72.5 -37t26.5 -64q0 -42 -34.5 -71t-94.5 -29z" />
    <glyph glyph-name="uni00B9" unicode="&#xb9;" horiz-adv-x="314" 
d="M112 389v282q0 20 -5 29t-18 12l-20 4q-15 3 -25 8v64h187v-399h-119z" />
    <glyph glyph-name="ordmasculine" unicode="&#xba;" horiz-adv-x="439" 
d="M219 423q-81 0 -132.5 51.5t-51.5 137.5q0 85 52.5 136.5t133.5 51.5q82 0 132.5 -51t50.5 -137q0 -85 -52.5 -137t-132.5 -52zM220 485q74 0 74 127q0 61 -19 93.5t-54 32.5q-75 0 -75 -126q0 -127 74 -127zM39 303v65h361v-65h-361z" />
    <glyph glyph-name="guillemotright" unicode="&#xbb;" horiz-adv-x="479" 
d="M282 90l-65 33l85 191l-85 184l63 31l120 -205q8 -15 0 -29zM116 111l-66 38l78 165l-74 162l59 33l115 -189q6 -11 0 -22z" />
    <glyph glyph-name="onequarter" unicode="&#xbc;" horiz-adv-x="816" 
d="M612 821l79 -55l-509 -787l-79 59zM122 671q0 20 -5 29t-18 12l-20 4q-15 3 -25 8v64h187v-399h-119v282zM714 151h42v-70h-42v-81h-119v81h-182v60l169 257h132v-247zM494 151h101v153z" />
    <glyph glyph-name="onehalf" unicode="&#xbd;" horiz-adv-x="888" 
d="M612 821l79 -55l-509 -787l-79 59zM122 671q0 20 -5 29t-18 12l-20 4q-15 3 -25 8v64h187v-399h-119v282zM788 142h46v-142h-333v82q116 80 154 119t38 91q0 53 -39 53q-42 0 -42 -66v-44h-75q-24 0 -34 8t-10 31q0 57 41.5 97t124.5 40q75 0 118.5 -34t43.5 -91
q0 -66 -55 -112t-157 -90h125q26 0 38 26l4 8z" />
    <glyph glyph-name="threequarters" unicode="&#xbe;" horiz-adv-x="892" 
d="M688 821l79 -55l-509 -787l-79 59zM386 511q0 -53 -50.5 -88t-127.5 -35q-83 0 -128.5 34.5t-45.5 83.5q0 33 20 33h92v-26q0 -27 16.5 -43t43.5 -16q24 0 37.5 16t13.5 41q0 58 -59 58h-18v60h18q28 0 41 13.5t13 43.5q0 48 -42 48q-23 0 -35.5 -15t-12.5 -39v-19h-85
q-27 0 -27 29q0 47 45.5 78.5t118.5 31.5q69 0 113 -30.5t44 -78.5q0 -61 -71 -88v-1q36 -7 61 -31.5t25 -59.5zM790 151h42v-70h-42v-81h-119v81h-182v60l169 257h132v-247zM570 151h101v153z" />
    <glyph glyph-name="questiondown" unicode="&#xbf;" horiz-adv-x="531" 
d="M289 433q-38 0 -64 25t-26 63q0 37 26 62t64 25t64 -25t26 -62q0 -38 -26 -63t-64 -25zM263 -202q-99 0 -164 52t-65 134q0 51 18.5 90t45.5 66t55 53t50.5 63.5t27.5 84.5l4 35h111q10 -39 10 -82q0 -40 -16.5 -74.5t-39.5 -59.5t-46 -49.5t-39.5 -57t-16.5 -69.5
q0 -91 72 -91q74 0 74 102v62h127q20 0 28 -12t8 -37v-5q0 -89 -63.5 -147t-180.5 -58z" />
    <glyph glyph-name="Agrave" unicode="&#xc0;" horiz-adv-x="749" 
d="M455 840l-241 93l63 111l221 -125zM12 0l-3 64q7 7 33 18l10 4q22 9 32.5 22.5t27.5 61.5l204 618h123l215 -648q10 -27 19 -37t28 -18l5 -2q24 -8 36 -16l-5 -67h-331l-4 64q13 8 39 17l14 5q26 10 32 25.5t-2 47.5l-23 76q-4 11 -15 11h-191q-11 0 -15 -11l-24 -78
q-11 -41 -8.5 -53.5t19.5 -17.5l15 -5q22 -7 35 -17l-6 -64h-260zM286 340h131q13 0 9 13l-72 234h-6l-71 -234q-4 -13 9 -13z" />
    <glyph glyph-name="Aacute" unicode="&#xc1;" horiz-adv-x="749" 
d="M293 840l-43 79l221 125l63 -111zM12 0l-3 64q7 7 33 18l10 4q22 9 32.5 22.5t27.5 61.5l204 618h123l215 -648q10 -27 19 -37t28 -18l5 -2q24 -8 36 -16l-5 -67h-331l-4 64q13 8 39 17l14 5q26 10 32 25.5t-2 47.5l-23 76q-4 11 -15 11h-191q-11 0 -15 -11l-24 -78
q-11 -41 -8.5 -53.5t19.5 -17.5l15 -5q22 -7 35 -17l-6 -64h-260zM286 340h131q13 0 9 13l-72 234h-6l-71 -234q-4 -13 9 -13z" />
    <glyph glyph-name="Acircumflex" unicode="&#xc2;" horiz-adv-x="749" 
d="M255 837l-56 63l121 127h116l121 -128l-56 -63l-123 95zM12 0l-3 64q7 7 33 18l10 4q22 9 32.5 22.5t27.5 61.5l204 618h123l215 -648q10 -27 19 -37t28 -18l5 -2q24 -8 36 -16l-5 -67h-331l-4 64q13 8 39 17l14 5q26 10 32 25.5t-2 47.5l-23 76q-4 11 -15 11h-191
q-11 0 -15 -11l-24 -78q-11 -41 -8.5 -53.5t19.5 -17.5l15 -5q22 -7 35 -17l-6 -64h-260zM286 340h131q13 0 9 13l-72 234h-6l-71 -234q-4 -13 9 -13z" />
    <glyph glyph-name="Atilde" unicode="&#xc3;" horiz-adv-x="749" 
d="M243 847l-78 46q18 51 57 80.5t84 29.5q35 0 80 -25.5t63 -25.5q39 0 54 53l75 -46q-9 -44 -43 -78.5t-79 -34.5q-40 0 -83 25t-63 25q-49 0 -67 -49zM12 0l-3 64q7 7 33 18l10 4q22 9 32.5 22.5t27.5 61.5l204 618h123l215 -648q10 -27 19 -37t28 -18l5 -2q24 -8 36 -16
l-5 -67h-331l-4 64q13 8 39 17l14 5q26 10 32 25.5t-2 47.5l-23 76q-4 11 -15 11h-191q-11 0 -15 -11l-24 -78q-11 -41 -8.5 -53.5t19.5 -17.5l15 -5q22 -7 35 -17l-6 -64h-260zM286 340h131q13 0 9 13l-72 234h-6l-71 -234q-4 -13 9 -13z" />
    <glyph glyph-name="Adieresis" unicode="&#xc4;" horiz-adv-x="749" 
d="M265 851q-35 0 -57.5 21.5t-22.5 55.5t22.5 55.5t57.5 21.5t57 -21.5t22 -55.5t-22 -55.5t-57 -21.5zM492 851q-35 0 -57.5 21.5t-22.5 55.5t22.5 55.5t57.5 21.5t57 -21.5t22 -55.5t-22 -55.5t-57 -21.5zM12 0l-3 64q7 7 33 18l10 4q22 9 32.5 22.5t27.5 61.5l204 618
h123l215 -648q10 -27 19 -37t28 -18l5 -2q24 -8 36 -16l-5 -67h-331l-4 64q13 8 39 17l14 5q26 10 32 25.5t-2 47.5l-23 76q-4 11 -15 11h-191q-11 0 -15 -11l-24 -78q-11 -41 -8.5 -53.5t19.5 -17.5l15 -5q22 -7 35 -17l-6 -64h-260zM286 340h131q13 0 9 13l-72 234h-6
l-71 -234q-4 -13 9 -13z" />
    <glyph glyph-name="Aring" unicode="&#xc5;" horiz-adv-x="749" 
d="M377 847q-54 0 -90.5 26.5t-36.5 75.5q0 48 36 75.5t93 27.5q54 0 90.5 -26.5t36.5 -75.5q0 -48 -36 -75.5t-93 -27.5zM379 908q19 0 31 12t12 30q0 20 -13 30.5t-32 10.5t-31 -11t-12 -30t13 -30.5t32 -11.5zM12 0l-3 64q7 7 33 18l10 4q22 9 32.5 22.5t27.5 61.5
l204 618h123l215 -648q10 -27 19 -37t28 -18l5 -2q24 -8 36 -16l-5 -67h-331l-4 64q13 8 39 17l14 5q26 10 32 25.5t-2 47.5l-23 76q-4 11 -15 11h-191q-11 0 -15 -11l-24 -78q-11 -41 -8.5 -53.5t19.5 -17.5l15 -5q22 -7 35 -17l-6 -64h-260zM286 340h131q13 0 9 13
l-72 234h-6l-71 -234q-4 -13 9 -13z" />
    <glyph glyph-name="AE" unicode="&#xc6;" horiz-adv-x="959" 
d="M7 0l-3 64q12 9 36 19l22 9q45 18 73 84l195 449q11 25 11 39q0 18 -27 29l-26 11q-20 8 -30 15l5 69h631v-219h-66q-6 9 -22 56l-15 44q-4 13 -10 16t-23 3h-122q-14 0 -14 -14v-210q0 -14 14 -14h26q24 0 32.5 5.5t17.5 26.5l5 12q5 14 15 31l51 -4v-237l-51 -4
q-8 10 -15 26l-5 12q-11 26 -18.5 31.5t-31.5 5.5h-26q-14 0 -14 -14v-227q0 -14 14 -14h144q17 0 23 3t10 16l15 44q16 47 22 56h66v-219h-527l-6 70q7 7 27 14l19 6q23 7 28 20.5t5 56.5v58q0 17 -16 17h-162q-15 0 -21 -14l-45 -102q-5 -12 -5 -18q0 -16 20 -22l15 -5
q24 -8 33 -17l-6 -64h-268zM329 337h110q23 0 23 29v310h-13l-129 -317q-3 -6 -3 -13q0 -9 12 -9z" />
    <glyph glyph-name="Ccedilla" unicode="&#xc7;" horiz-adv-x="636" 
d="M612 205q-73 -213 -253 -217l-7 -14q46 -11 72.5 -37t26.5 -64q0 -42 -34.5 -71t-94.5 -29q-71 0 -122 33l26 62q34 -23 67 -23q19 0 30 10t11 26q0 39 -70 59l24 53q-122 20 -186 121t-64 275q0 196 80 303.5t223 107.5q86 0 139 -40q9 -6 12 6l6 28h93v-240h-95l-5 30
q-20 118 -118 118q-79 0 -122 -79.5t-43 -224.5q0 -151 41.5 -230t120.5 -79q100 0 161 150z" />
    <glyph glyph-name="Egrave" unicode="&#xc8;" horiz-adv-x="614" 
d="M395 840l-241 93l63 111l221 -125zM44 0l-6 70q7 7 27 14l19 6q23 7 28 20.5t5 56.5v455q0 44 -5 56t-29 20l-16 6q-17 6 -28 15l5 69h505v-219h-66q-6 9 -22 56l-15 44q-4 13 -10 16t-23 3h-122q-14 0 -14 -14v-210q0 -14 14 -14h26q24 0 32.5 5.5t17.5 26.5l5 12
q6 16 15 31l51 -4v-237l-51 -4q-8 10 -15 26l-5 12q-10 23 -19.5 30t-30.5 7h-26q-14 0 -14 -14v-227q0 -14 14 -14h144q17 0 23 3t10 16l15 44q12 36 22 56h66v-219h-527z" />
    <glyph glyph-name="Eacute" unicode="&#xc9;" horiz-adv-x="614" 
d="M233 840l-43 79l221 125l63 -111zM44 0l-6 70q7 7 27 14l19 6q23 7 28 20.5t5 56.5v455q0 44 -5 56t-29 20l-16 6q-17 6 -28 15l5 69h505v-219h-66q-6 9 -22 56l-15 44q-4 13 -10 16t-23 3h-122q-14 0 -14 -14v-210q0 -14 14 -14h26q24 0 32.5 5.5t17.5 26.5l5 12
q6 16 15 31l51 -4v-237l-51 -4q-8 10 -15 26l-5 12q-10 23 -19.5 30t-30.5 7h-26q-14 0 -14 -14v-227q0 -14 14 -14h144q17 0 23 3t10 16l15 44q12 36 22 56h66v-219h-527z" />
    <glyph glyph-name="Ecircumflex" unicode="&#xca;" horiz-adv-x="614" 
d="M195 837l-56 63l121 127h116l121 -128l-56 -63l-123 95zM44 0l-6 70q7 7 27 14l19 6q23 7 28 20.5t5 56.5v455q0 44 -5 56t-29 20l-16 6q-17 6 -28 15l5 69h505v-219h-66q-6 9 -22 56l-15 44q-4 13 -10 16t-23 3h-122q-14 0 -14 -14v-210q0 -14 14 -14h26q24 0 32.5 5.5
t17.5 26.5l5 12q6 16 15 31l51 -4v-237l-51 -4q-8 10 -15 26l-5 12q-10 23 -19.5 30t-30.5 7h-26q-14 0 -14 -14v-227q0 -14 14 -14h144q17 0 23 3t10 16l15 44q12 36 22 56h66v-219h-527z" />
    <glyph glyph-name="Edieresis" unicode="&#xcb;" horiz-adv-x="614" 
d="M205 851q-35 0 -57.5 21.5t-22.5 55.5t22.5 55.5t57.5 21.5t57 -21.5t22 -55.5t-22 -55.5t-57 -21.5zM432 851q-35 0 -57.5 21.5t-22.5 55.5t22.5 55.5t57.5 21.5t57 -21.5t22 -55.5t-22 -55.5t-57 -21.5zM44 0l-6 70q7 7 27 14l19 6q23 7 28 20.5t5 56.5v455q0 44 -5 56
t-29 20l-16 6q-17 6 -28 15l5 69h505v-219h-66q-6 9 -22 56l-15 44q-4 13 -10 16t-23 3h-122q-14 0 -14 -14v-210q0 -14 14 -14h26q24 0 32.5 5.5t17.5 26.5l5 12q6 16 15 31l51 -4v-237l-51 -4q-8 10 -15 26l-5 12q-10 23 -19.5 30t-30.5 7h-26q-14 0 -14 -14v-227
q0 -14 14 -14h144q17 0 23 3t10 16l15 44q12 36 22 56h66v-219h-527z" />
    <glyph glyph-name="Igrave" unicode="&#xcc;" horiz-adv-x="406" 
d="M280 840l-241 93l63 111l221 -125zM50 0l-6 70q9 9 27 14l19 6q23 7 28 20.5t5 56.5v455q0 43 -5 55t-29 21l-16 6q-17 6 -28 15l5 69h306l6 -70q-10 -8 -24 -13l-22 -7q-23 -7 -28 -20.5t-5 -56.5v-455q0 -43 5 -56t27 -20l15 -5q20 -7 31 -16l-5 -69h-306z" />
    <glyph glyph-name="Iacute" unicode="&#xcd;" horiz-adv-x="406" 
d="M118 840l-43 79l221 125l63 -111zM50 0l-6 70q9 9 27 14l19 6q23 7 28 20.5t5 56.5v455q0 43 -5 55t-29 21l-16 6q-17 6 -28 15l5 69h306l6 -70q-10 -8 -24 -13l-22 -7q-23 -7 -28 -20.5t-5 -56.5v-455q0 -43 5 -56t27 -20l15 -5q20 -7 31 -16l-5 -69h-306z" />
    <glyph glyph-name="Icircumflex" unicode="&#xce;" horiz-adv-x="406" 
d="M80 837l-56 63l121 127h116l121 -128l-56 -63l-123 95zM50 0l-6 70q9 9 27 14l19 6q23 7 28 20.5t5 56.5v455q0 43 -5 55t-29 21l-16 6q-17 6 -28 15l5 69h306l6 -70q-10 -8 -24 -13l-22 -7q-23 -7 -28 -20.5t-5 -56.5v-455q0 -43 5 -56t27 -20l15 -5q20 -7 31 -16
l-5 -69h-306z" />
    <glyph glyph-name="Idieresis" unicode="&#xcf;" horiz-adv-x="406" 
d="M90 851q-35 0 -57.5 21.5t-22.5 55.5t22.5 55.5t57.5 21.5t57 -21.5t22 -55.5t-22 -55.5t-57 -21.5zM317 851q-35 0 -57.5 21.5t-22.5 55.5t22.5 55.5t57.5 21.5t57 -21.5t22 -55.5t-22 -55.5t-57 -21.5zM50 0l-6 70q9 9 27 14l19 6q23 7 28 20.5t5 56.5v455q0 43 -5 55
t-29 21l-16 6q-17 6 -28 15l5 69h306l6 -70q-10 -8 -24 -13l-22 -7q-23 -7 -28 -20.5t-5 -56.5v-455q0 -43 5 -56t27 -20l15 -5q20 -7 31 -16l-5 -69h-306z" />
    <glyph glyph-name="Eth" unicode="&#xd0;" horiz-adv-x="725" 
d="M315 788q178 0 275 -100t97 -286q0 -192 -96 -297t-269 -105h-278l-6 70q9 9 27 14l19 6q23 7 28 20.5t5 56.5v194h-88v102h88v159q0 44 -5 56t-29 20l-20 7q-15 5 -24 14l5 69h271zM308 99q95 0 152 80.5t57 217.5q0 292 -207 292h-19q-14 0 -14 -14v-212h122v-102h-122
v-248q0 -14 14 -14h17z" />
    <glyph glyph-name="Ntilde" unicode="&#xd1;" horiz-adv-x="777" 
d="M254 847l-78 46q18 51 57 80.5t84 29.5q35 0 80 -25.5t63 -25.5q39 0 54 53l75 -46q-9 -44 -43 -78.5t-79 -34.5q-40 0 -83 25t-63 25q-49 0 -67 -49zM44 0l-6 70q9 9 27 14l19 6q23 7 28 20.5t5 56.5v455q0 44 -5 56t-29 20l-20 7q-15 5 -24 14l5 69h224l292 -512v346
q0 43 -5 56t-27 20l-15 5q-20 7 -31 16l5 69h254l6 -70q-9 -9 -27 -14l-19 -6q-23 -7 -28 -20.5t-5 -56.5v-621h-126l-317 553v-387q0 -43 5 -56t27 -20l15 -5q20 -7 31 -16l-5 -69h-254z" />
    <glyph glyph-name="Ograve" unicode="&#xd2;" horiz-adv-x="707" 
d="M431 840l-241 93l63 111l221 -125zM351 -12q-154 0 -233.5 102t-79.5 299t82.5 304t234.5 107q150 0 232 -105.5t82 -300.5q0 -196 -82 -301t-236 -105zM353 87q69 0 107.5 81t38.5 227t-38 226t-107 80q-68 0 -107 -81t-39 -222q0 -148 38.5 -229.5t106.5 -81.5z" />
    <glyph glyph-name="Oacute" unicode="&#xd3;" horiz-adv-x="707" 
d="M269 840l-43 79l221 125l63 -111zM351 -12q-154 0 -233.5 102t-79.5 299t82.5 304t234.5 107q150 0 232 -105.5t82 -300.5q0 -196 -82 -301t-236 -105zM353 87q69 0 107.5 81t38.5 227t-38 226t-107 80q-68 0 -107 -81t-39 -222q0 -148 38.5 -229.5t106.5 -81.5z" />
    <glyph glyph-name="Ocircumflex" unicode="&#xd4;" horiz-adv-x="707" 
d="M231 837l-56 63l121 127h116l121 -128l-56 -63l-123 95zM351 -12q-154 0 -233.5 102t-79.5 299t82.5 304t234.5 107q150 0 232 -105.5t82 -300.5q0 -196 -82 -301t-236 -105zM353 87q69 0 107.5 81t38.5 227t-38 226t-107 80q-68 0 -107 -81t-39 -222q0 -148 38.5 -229.5
t106.5 -81.5z" />
    <glyph glyph-name="Otilde" unicode="&#xd5;" horiz-adv-x="707" 
d="M219 847l-78 46q18 51 57 80.5t84 29.5q35 0 80 -25.5t63 -25.5q39 0 54 53l75 -46q-9 -44 -43 -78.5t-79 -34.5q-40 0 -83 25t-63 25q-49 0 -67 -49zM351 -12q-154 0 -233.5 102t-79.5 299t82.5 304t234.5 107q150 0 232 -105.5t82 -300.5q0 -196 -82 -301t-236 -105z
M353 87q69 0 107.5 81t38.5 227t-38 226t-107 80q-68 0 -107 -81t-39 -222q0 -148 38.5 -229.5t106.5 -81.5z" />
    <glyph glyph-name="Odieresis" unicode="&#xd6;" horiz-adv-x="707" 
d="M241 851q-35 0 -57.5 21.5t-22.5 55.5t22.5 55.5t57.5 21.5t57 -21.5t22 -55.5t-22 -55.5t-57 -21.5zM468 851q-35 0 -57.5 21.5t-22.5 55.5t22.5 55.5t57.5 21.5t57 -21.5t22 -55.5t-22 -55.5t-57 -21.5zM351 -12q-154 0 -233.5 102t-79.5 299t82.5 304t234.5 107
q150 0 232 -105.5t82 -300.5q0 -196 -82 -301t-236 -105zM353 87q69 0 107.5 81t38.5 227t-38 226t-107 80q-68 0 -107 -81t-39 -222q0 -148 38.5 -229.5t106.5 -81.5z" />
    <glyph glyph-name="multiply" unicode="&#xd7;" horiz-adv-x="605" 
d="M113 70l-68 66l189 189l-181 187l68 66l183 -185l179 184l69 -65l-182 -184l190 -191l-66 -68l-191 191z" />
    <glyph glyph-name="Oslash" unicode="&#xd8;" horiz-adv-x="707" 
d="M578 706q91 -106 91 -312q0 -196 -82 -301t-236 -105q-90 0 -155 35l-59 -106l-78 46l66 118q-87 104 -87 308q0 197 82.5 304t234.5 107q87 0 152 -36l57 102l78 -46zM208 398q0 -84 12 -146l224 399q-36 50 -90 50q-68 0 -107 -81t-39 -222zM353 87q69 0 107.5 81
t38.5 227q0 87 -13 146l-224 -401q36 -53 91 -53z" />
    <glyph glyph-name="Ugrave" unicode="&#xd9;" horiz-adv-x="745" 
d="M474 840l-241 93l63 111l221 -125zM375 -12q-131 0 -202 68t-71 195v371q0 43 -5 56t-27 20l-15 5q-20 7 -31 16l5 69h306l6 -70q-9 -9 -27 -14l-19 -6q-23 -7 -28 -20.5t-5 -56.5v-368q0 -80 34 -117t106 -37q132 0 132 163v360q0 43 -5 56t-27 20l-15 5q-20 7 -31 16
l5 69h254l6 -70q-9 -9 -27 -14l-19 -6q-23 -7 -28 -20.5t-5 -56.5v-367q0 -125 -71 -195.5t-196 -70.5z" />
    <glyph glyph-name="Uacute" unicode="&#xda;" horiz-adv-x="745" 
d="M312 840l-43 79l221 125l63 -111zM375 -12q-131 0 -202 68t-71 195v371q0 43 -5 56t-27 20l-15 5q-20 7 -31 16l5 69h306l6 -70q-9 -9 -27 -14l-19 -6q-23 -7 -28 -20.5t-5 -56.5v-368q0 -80 34 -117t106 -37q132 0 132 163v360q0 43 -5 56t-27 20l-15 5q-20 7 -31 16
l5 69h254l6 -70q-9 -9 -27 -14l-19 -6q-23 -7 -28 -20.5t-5 -56.5v-367q0 -125 -71 -195.5t-196 -70.5z" />
    <glyph glyph-name="Ucircumflex" unicode="&#xdb;" horiz-adv-x="745" 
d="M274 837l-56 63l121 127h116l121 -128l-56 -63l-123 95zM375 -12q-131 0 -202 68t-71 195v371q0 43 -5 56t-27 20l-15 5q-20 7 -31 16l5 69h306l6 -70q-9 -9 -27 -14l-19 -6q-23 -7 -28 -20.5t-5 -56.5v-368q0 -80 34 -117t106 -37q132 0 132 163v360q0 43 -5 56t-27 20
l-15 5q-20 7 -31 16l5 69h254l6 -70q-9 -9 -27 -14l-19 -6q-23 -7 -28 -20.5t-5 -56.5v-367q0 -125 -71 -195.5t-196 -70.5z" />
    <glyph glyph-name="Udieresis" unicode="&#xdc;" horiz-adv-x="745" 
d="M284 851q-35 0 -57.5 21.5t-22.5 55.5t22.5 55.5t57.5 21.5t57 -21.5t22 -55.5t-22 -55.5t-57 -21.5zM511 851q-35 0 -57.5 21.5t-22.5 55.5t22.5 55.5t57.5 21.5t57 -21.5t22 -55.5t-22 -55.5t-57 -21.5zM375 -12q-131 0 -202 68t-71 195v371q0 43 -5 56t-27 20l-15 5
q-20 7 -31 16l5 69h306l6 -70q-9 -9 -27 -14l-19 -6q-23 -7 -28 -20.5t-5 -56.5v-368q0 -80 34 -117t106 -37q132 0 132 163v360q0 43 -5 56t-27 20l-15 5q-20 7 -31 16l5 69h254l6 -70q-9 -9 -27 -14l-19 -6q-23 -7 -28 -20.5t-5 -56.5v-367q0 -125 -71 -195.5t-196 -70.5z
" />
    <glyph glyph-name="Yacute" unicode="&#xdd;" horiz-adv-x="674" 
d="M514 933l-241 -93l-43 79l221 125zM669 788l7 -68q-7 -6 -29 -13l-15 -5q-19 -6 -33.5 -22.5t-33.5 -56.5l-139 -295v-162q0 -43 5 -56t27 -20l15 -5q20 -7 31 -16l-5 -69h-306l-6 70q9 9 27 14l19 6q23 7 28 20.5t5 56.5v149l-152 306q-20 42 -31 56t-27 20l-15 5
q-24 9 -33 16l5 69h305l8 -70q-7 -7 -27 -13l-13 -4q-39 -12 -13 -67l97 -197l92 198q28 58 -3 67l-17 5q-23 7 -33 15l4 66h256z" />
    <glyph glyph-name="Thorn" unicode="&#xde;" horiz-adv-x="642" 
d="M50 0l-6 70q9 9 27 14l19 6q23 7 28 20.5t5 56.5v455q0 43 -5 55t-29 21l-16 6q-17 6 -28 15l5 69h306l6 -70q-10 -8 -24 -13l-22 -7q-19 -6 -26 -14.5t-7 -23.5v-19q0 -15 15 -15h30q282 0 282 -212q0 -112 -78.5 -169.5t-217.5 -57.5h-16q-15 0 -15 -15v-27
q0 -28 5 -38t27 -17l15 -5q20 -7 31 -16l-5 -69h-306zM298 283h14q131 0 131 127q0 120 -121 120h-25q-14 0 -14 -15v-217q0 -15 15 -15z" />
    <glyph glyph-name="germandbls" unicode="&#xdf;" horiz-adv-x="665" 
d="M512 -12q-62 0 -100 38q-10 10 -13 -2l-6 -24h-87v184h94l3 -29q7 -71 57 -71q18 0 31 12t13 36q0 23 -16.5 44t-60.5 61l-45 41q-39 36 -56.5 64.5t-17.5 67.5q0 35 16 65.5t36 49.5t36 49t16 65t-20.5 57t-51.5 22q-87 0 -87 -113v-605h-234l-1 62q10 6 30 12l20 6
q18 5 25 18t7 44v310h-82v100h81v42q0 98 69 152t176 54q94 0 158.5 -46.5t64.5 -115.5q0 -35 -17 -65.5t-37 -48.5t-37 -41.5t-17 -45.5q0 -21 10.5 -36.5t37.5 -37.5l35 -30q55 -48 81.5 -88t26.5 -99q0 -71 -42.5 -114.5t-95.5 -43.5z" />
    <glyph glyph-name="agrave" unicode="&#xe0;" horiz-adv-x="602" 
d="M412 687l-52 -70l-217 132l83 98zM557 77q14 -4 21 -10l-3 -67h-197v66q-24 -35 -67.5 -56.5t-93.5 -21.5q-81 0 -133 44t-52 113q0 74 53 117.5t168 63.5l86 17q17 4 21.5 9t4.5 21v17q0 87 -83 87q-67 0 -67 -64v-51h-128q-14 0 -21 14q-6 12 -6 34q0 67 56 110.5
t165 43.5q118 0 177.5 -48.5t59.5 -140.5v-244q0 -26 4 -35.5t21 -14.5zM365 199v68q-25 -9 -55 -16l-28 -7q-90 -19 -90 -83q0 -30 20 -51t50 -21q45 0 74 29.5t29 80.5z" />
    <glyph glyph-name="aacute" unicode="&#xe1;" horiz-adv-x="602" 
d="M465 749l-217 -132l-52 70l186 160zM557 77q14 -4 21 -10l-3 -67h-197v66q-24 -35 -67.5 -56.5t-93.5 -21.5q-81 0 -133 44t-52 113q0 74 53 117.5t168 63.5l86 17q17 4 21.5 9t4.5 21v17q0 87 -83 87q-67 0 -67 -64v-51h-128q-14 0 -21 14q-6 12 -6 34q0 67 56 110.5
t165 43.5q118 0 177.5 -48.5t59.5 -140.5v-244q0 -26 4 -35.5t21 -14.5zM365 199v68q-25 -9 -55 -16l-28 -7q-90 -19 -90 -83q0 -30 20 -51t50 -21q45 0 74 29.5t29 80.5z" />
    <glyph glyph-name="acircumflex" unicode="&#xe2;" horiz-adv-x="602" 
d="M298 707l-123 -91l-56 57l138 134h82l138 -134l-56 -57zM557 77q14 -4 21 -10l-3 -67h-197v66q-24 -35 -67.5 -56.5t-93.5 -21.5q-81 0 -133 44t-52 113q0 74 53 117.5t168 63.5l86 17q17 4 21.5 9t4.5 21v17q0 87 -83 87q-67 0 -67 -64v-51h-128q-14 0 -21 14
q-6 12 -6 34q0 67 56 110.5t165 43.5q118 0 177.5 -48.5t59.5 -140.5v-244q0 -26 4 -35.5t21 -14.5zM365 199v68q-25 -9 -55 -16l-28 -7q-90 -19 -90 -83q0 -30 20 -51t50 -21q45 0 74 29.5t29 80.5z" />
    <glyph glyph-name="atilde" unicode="&#xe3;" horiz-adv-x="602" 
d="M235 679q-46 0 -68 -58l-76 54q19 56 56.5 85t83.5 29q36 0 81 -28.5t64 -28.5q39 0 55 63l73 -47q-10 -49 -42.5 -87t-76.5 -38q-42 0 -86 28t-64 28zM557 77q14 -4 21 -10l-3 -67h-197v66q-24 -35 -67.5 -56.5t-93.5 -21.5q-81 0 -133 44t-52 113q0 74 53 117.5
t168 63.5l86 17q17 4 21.5 9t4.5 21v17q0 87 -83 87q-67 0 -67 -64v-51h-128q-14 0 -21 14q-6 12 -6 34q0 67 56 110.5t165 43.5q118 0 177.5 -48.5t59.5 -140.5v-244q0 -26 4 -35.5t21 -14.5zM365 199v68q-25 -9 -55 -16l-28 -7q-90 -19 -90 -83q0 -30 20 -51t50 -21
q45 0 74 29.5t29 80.5z" />
    <glyph glyph-name="adieresis" unicode="&#xe4;" horiz-adv-x="602" 
d="M185 634q-32 0 -55.5 23.5t-23.5 55.5t23.5 55.5t55.5 23.5t55.5 -23.5t23.5 -55.5t-23.5 -55.5t-55.5 -23.5zM411 634q-32 0 -55.5 23.5t-23.5 55.5t23.5 55.5t55.5 23.5t55.5 -23.5t23.5 -55.5t-23.5 -55.5t-55.5 -23.5zM557 77q14 -4 21 -10l-3 -67h-197v66
q-24 -35 -67.5 -56.5t-93.5 -21.5q-81 0 -133 44t-52 113q0 74 53 117.5t168 63.5l86 17q17 4 21.5 9t4.5 21v17q0 87 -83 87q-67 0 -67 -64v-51h-128q-14 0 -21 14q-6 12 -6 34q0 67 56 110.5t165 43.5q118 0 177.5 -48.5t59.5 -140.5v-244q0 -26 4 -35.5t21 -14.5z
M365 199v68q-25 -9 -55 -16l-28 -7q-90 -19 -90 -83q0 -30 20 -51t50 -21q45 0 74 29.5t29 80.5z" />
    <glyph glyph-name="aring" unicode="&#xe5;" horiz-adv-x="602" 
d="M297 610q-54 0 -90.5 27t-36.5 80q0 51 36 79.5t93 28.5q54 0 90.5 -28t36.5 -79q0 -52 -35.5 -80t-93.5 -28zM297 763q-19 0 -31 -12t-12 -33t13 -33t32 -12t31 12.5t12 32.5q0 22 -13 33.5t-32 11.5zM557 77q14 -4 21 -10l-3 -67h-197v66q-24 -35 -67.5 -56.5
t-93.5 -21.5q-81 0 -133 44t-52 113q0 74 53 117.5t168 63.5l86 17q17 4 21.5 9t4.5 21v17q0 87 -83 87q-67 0 -67 -64v-51h-128q-14 0 -21 14q-6 12 -6 34q0 67 56 110.5t165 43.5q118 0 177.5 -48.5t59.5 -140.5v-244q0 -26 4 -35.5t21 -14.5zM365 199v68q-25 -9 -55 -16
l-28 -7q-90 -19 -90 -83q0 -30 20 -51t50 -21q45 0 74 29.5t29 80.5z" />
    <glyph glyph-name="ae" unicode="&#xe6;" horiz-adv-x="918" 
d="M217 -12q-81 0 -133 44t-52 113q0 74 53 117.5t168 63.5l86 17q17 4 21.5 9t4.5 21v17q0 87 -83 87q-67 0 -67 -64v-51h-128q-14 0 -21 14q-6 12 -6 34q0 67 56 110.5t165 43.5q120 0 178 -69q26 30 74 49.5t100 19.5q97 0 168 -60q34 -30 55.5 -69t21.5 -77
q0 -15 -12 -24t-47 -26q-52 -25 -140.5 -55.5t-145.5 -44.5q-12 -3 -12 -13q0 -39 36 -66.5t103 -27.5q90 0 165 73l53 -65q-39 -54 -104 -87.5t-140 -33.5q-74 0 -133 28t-87 73q-26 -44 -77 -72.5t-120 -28.5zM522 297q18 0 76 17.5t96 35.5q24 11 24 25q0 30 -18 57
q-29 43 -82 43q-47 0 -78.5 -37t-31.5 -105q0 -11 2 -27q2 -9 12 -9zM262 89q45 0 74 29.5t29 80.5v68q-25 -9 -55 -16l-28 -7q-90 -19 -90 -83q0 -30 20 -51t50 -21z" />
    <glyph glyph-name="ccedilla" unicode="&#xe7;" horiz-adv-x="557" 
d="M528 98q-88 -97 -202 -108l-7 -16q46 -11 72.5 -37t26.5 -64q0 -42 -34.5 -71t-94.5 -29q-71 0 -122 33l26 62q35 -23 67 -23q19 0 30 10t11 26q0 39 -70 59l23 51q-103 12 -164.5 86t-61.5 201q0 132 72.5 209t185.5 77q68 0 112 -27q11 -6 15 6l4 18h88v-222h-95l-2 16
q-8 62 -32.5 90t-68.5 28q-53 0 -84 -45.5t-31 -137.5q0 -96 37 -145.5t101 -49.5q69 0 142 65z" />
    <glyph glyph-name="egrave" unicode="&#xe8;" horiz-adv-x="588" 
d="M346 617l-217 132l83 98l186 -160zM307 -12q-131 0 -205 78t-74 211q0 129 77 208t193 79q99 0 169 -56q81 -66 81 -149q0 -16 -10.5 -24.5t-46.5 -25.5q-142 -66 -288 -101q-12 -3 -12 -12q0 -38 35 -66.5t102 -28.5q91 0 167 73l53 -65q-40 -54 -103 -87.5t-138 -33.5z
M192 297q18 0 76 17.5t96 35.5q24 11 24 25q0 30 -18 57q-29 43 -82 43q-47 0 -78.5 -37t-31.5 -105q0 -11 2 -27q2 -9 12 -9z" />
    <glyph glyph-name="eacute" unicode="&#xe9;" horiz-adv-x="588" 
d="M234 617l-52 70l186 160l83 -98zM307 -12q-131 0 -205 78t-74 211q0 129 77 208t193 79q99 0 169 -56q81 -66 81 -149q0 -16 -10.5 -24.5t-46.5 -25.5q-142 -66 -288 -101q-12 -3 -12 -12q0 -38 35 -66.5t102 -28.5q91 0 167 73l53 -65q-40 -54 -103 -87.5t-138 -33.5z
M192 297q18 0 76 17.5t96 35.5q24 11 24 25q0 30 -18 57q-29 43 -82 43q-47 0 -78.5 -37t-31.5 -105q0 -11 2 -27q2 -9 12 -9z" />
    <glyph glyph-name="ecircumflex" unicode="&#xea;" horiz-adv-x="588" 
d="M161 616l-56 57l138 134h82l138 -134l-56 -57l-123 91zM307 -12q-131 0 -205 78t-74 211q0 129 77 208t193 79q99 0 169 -56q81 -66 81 -149q0 -16 -10.5 -24.5t-46.5 -25.5q-142 -66 -288 -101q-12 -3 -12 -12q0 -38 35 -66.5t102 -28.5q91 0 167 73l53 -65
q-40 -54 -103 -87.5t-138 -33.5zM192 297q18 0 76 17.5t96 35.5q24 11 24 25q0 30 -18 57q-29 43 -82 43q-47 0 -78.5 -37t-31.5 -105q0 -11 2 -27q2 -9 12 -9z" />
    <glyph glyph-name="edieresis" unicode="&#xeb;" horiz-adv-x="588" 
d="M171 634q-32 0 -55.5 23.5t-23.5 55.5t23.5 55.5t55.5 23.5t55.5 -23.5t23.5 -55.5t-23.5 -55.5t-55.5 -23.5zM397 634q-32 0 -55.5 23.5t-23.5 55.5t23.5 55.5t55.5 23.5t55.5 -23.5t23.5 -55.5t-23.5 -55.5t-55.5 -23.5zM307 -12q-131 0 -205 78t-74 211q0 129 77 208
t193 79q99 0 169 -56q81 -66 81 -149q0 -16 -10.5 -24.5t-46.5 -25.5q-142 -66 -288 -101q-12 -3 -12 -12q0 -38 35 -66.5t102 -28.5q91 0 167 73l53 -65q-40 -54 -103 -87.5t-138 -33.5zM192 297q18 0 76 17.5t96 35.5q24 11 24 25q0 30 -18 57q-29 43 -82 43
q-47 0 -78.5 -37t-31.5 -105q0 -11 2 -27q2 -9 12 -9z" />
    <glyph glyph-name="igrave" unicode="&#xec;" horiz-adv-x="333" 
d="M183 612l-174 154l88 86l149 -180zM25 0l-3 67q10 5 31 12l15 5q19 7 25 16t6 31v290q0 24 -6.5 32.5t-25.5 14.5l-15 5q-22 7 -29 12l3 67h226v-421q0 -21 6.5 -31t24.5 -16l15 -5q21 -7 31 -12l-3 -67h-301z" />
    <glyph glyph-name="iacute" unicode="&#xed;" horiz-adv-x="333" 
d="M119 612l-63 60l149 180l88 -86zM25 0l-3 67q10 5 31 12l15 5q19 7 25 16t6 31v290q0 24 -6.5 32.5t-25.5 14.5l-15 5q-22 7 -29 12l3 67h226v-421q0 -21 6.5 -31t24.5 -16l15 -5q21 -7 31 -12l-3 -67h-301z" />
    <glyph glyph-name="icircumflex" unicode="&#xee;" horiz-adv-x="333" 
d="M53 616l-62 57l118 134h82l118 -134l-61 -57l-98 91zM25 0l-3 67q10 5 31 12l15 5q19 7 25 16t6 31v290q0 24 -6.5 32.5t-25.5 14.5l-15 5q-22 7 -29 12l3 67h226v-421q0 -21 6.5 -31t24.5 -16l15 -5q21 -7 31 -12l-3 -67h-301z" />
    <glyph glyph-name="idieresis" unicode="&#xef;" horiz-adv-x="333" 
d="M52 634q-34 0 -53 22.5t-19 56.5t19 56.5t53 22.5t53 -22.5t19 -56.5t-19 -56.5t-53 -22.5zM248 634q-34 0 -53 22.5t-19 56.5t19 56.5t53 22.5t53 -22.5t19 -56.5t-19 -56.5t-53 -22.5zM25 0l-3 67q10 5 31 12l15 5q19 7 25 16t6 31v290q0 24 -6.5 32.5t-25.5 14.5
l-15 5q-22 7 -29 12l3 67h226v-421q0 -21 6.5 -31t24.5 -16l15 -5q21 -7 31 -12l-3 -67h-301z" />
    <glyph glyph-name="eth" unicode="&#xf0;" horiz-adv-x="591" 
d="M416 700q145 -174 145 -395q0 -137 -70.5 -227t-198.5 -90q-121 0 -191.5 77.5t-70.5 208.5q0 130 66 210t173 80q70 0 117 -38q-21 69 -66 124l-93 -51l-38 70l74 42q-34 36 -63 59l69 56q48 -30 90 -68l97 54l40 -71zM297 85q39 0 63 32t31.5 71t7.5 86q0 192 -103 192
q-104 0 -104 -192q0 -34 4 -63.5t14.5 -59.5t32.5 -48t54 -18z" />
    <glyph glyph-name="ntilde" unicode="&#xf1;" horiz-adv-x="677" 
d="M285 679q-46 0 -68 -58l-76 54q19 56 56.5 85t83.5 29q36 0 81 -28.5t64 -28.5q39 0 55 63l73 -47q-10 -49 -42.5 -87t-76.5 -38q-42 0 -86 28t-64 28zM626 79q15 -6 27 -12l-3 -67h-210v346q0 54 -17.5 79.5t-57.5 25.5q-56 0 -86.5 -41t-30.5 -113v-166q0 -21 6.5 -31
t24.5 -16l15 -5q21 -7 31 -12l-3 -67h-301l-3 67q10 5 31 12l15 5q19 7 25 16t6 31v290q0 24 -6.5 32.5t-25.5 14.5l-15 5q-22 7 -29 12l3 67h226v-58q64 70 160 70q86 0 135.5 -53t49.5 -145v-235q0 -25 4.5 -34t17.5 -14z" />
    <glyph glyph-name="ograve" unicode="&#xf2;" horiz-adv-x="610" 
d="M371 617l-217 132l83 98l186 -160zM304 -12q-124 0 -200 78.5t-76 209.5q0 130 78 209t201 79q124 0 199.5 -78.5t75.5 -209.5q0 -130 -78 -209t-200 -79zM306 83q54 0 83 49.5t29 143.5t-29 143.5t-82 49.5q-55 0 -85 -48.5t-30 -144.5q0 -94 29 -143.5t85 -49.5z" />
    <glyph glyph-name="oacute" unicode="&#xf3;" horiz-adv-x="610" 
d="M259 617l-52 70l186 160l83 -98zM304 -12q-124 0 -200 78.5t-76 209.5q0 130 78 209t201 79q124 0 199.5 -78.5t75.5 -209.5q0 -130 -78 -209t-200 -79zM306 83q54 0 83 49.5t29 143.5t-29 143.5t-82 49.5q-55 0 -85 -48.5t-30 -144.5q0 -94 29 -143.5t85 -49.5z" />
    <glyph glyph-name="ocircumflex" unicode="&#xf4;" horiz-adv-x="610" 
d="M186 616l-56 57l138 134h82l138 -134l-56 -57l-123 91zM304 -12q-124 0 -200 78.5t-76 209.5q0 130 78 209t201 79q124 0 199.5 -78.5t75.5 -209.5q0 -130 -78 -209t-200 -79zM306 83q54 0 83 49.5t29 143.5t-29 143.5t-82 49.5q-55 0 -85 -48.5t-30 -144.5
q0 -94 29 -143.5t85 -49.5z" />
    <glyph glyph-name="otilde" unicode="&#xf5;" horiz-adv-x="610" 
d="M178 621l-76 54q19 56 56.5 85t83.5 29q36 0 81 -28.5t64 -28.5q39 0 55 63l73 -47q-10 -49 -42.5 -87t-76.5 -38q-42 0 -86 28t-64 28q-46 0 -68 -58zM304 -12q-124 0 -200 78.5t-76 209.5q0 130 78 209t201 79q124 0 199.5 -78.5t75.5 -209.5q0 -130 -78 -209t-200 -79
zM306 83q54 0 83 49.5t29 143.5t-29 143.5t-82 49.5q-55 0 -85 -48.5t-30 -144.5q0 -94 29 -143.5t85 -49.5z" />
    <glyph glyph-name="odieresis" unicode="&#xf6;" horiz-adv-x="610" 
d="M196 634q-32 0 -55.5 23.5t-23.5 55.5t23.5 55.5t55.5 23.5t55.5 -23.5t23.5 -55.5t-23.5 -55.5t-55.5 -23.5zM422 634q-32 0 -55.5 23.5t-23.5 55.5t23.5 55.5t55.5 23.5t55.5 -23.5t23.5 -55.5t-23.5 -55.5t-55.5 -23.5zM304 -12q-124 0 -200 78.5t-76 209.5
q0 130 78 209t201 79q124 0 199.5 -78.5t75.5 -209.5q0 -130 -78 -209t-200 -79zM306 83q54 0 83 49.5t29 143.5t-29 143.5t-82 49.5q-55 0 -85 -48.5t-30 -144.5q0 -94 29 -143.5t85 -49.5z" />
    <glyph glyph-name="divide" unicode="&#xf7;" horiz-adv-x="605" 
d="M303 435q-35 0 -59.5 24.5t-24.5 59.5q0 34 24.5 58.5t59.5 24.5t59.5 -24.5t24.5 -58.5q0 -35 -24.5 -59.5t-59.5 -24.5zM31 270v101h543v-101h-543zM303 38q-35 0 -59.5 25t-24.5 59t24.5 59t59.5 25t59.5 -25t24.5 -59t-24.5 -59t-59.5 -25z" />
    <glyph glyph-name="oslash" unicode="&#xf8;" horiz-adv-x="610" 
d="M486 505q96 -79 96 -229q0 -130 -78 -209t-200 -79q-55 0 -100 16l-50 -90l-80 42l51 91q-97 80 -97 229q0 130 78 209t201 79q56 0 100 -16l52 92l80 -42zM192 276q0 -56 10 -93l153 273q-20 13 -48 13q-55 0 -85 -48.5t-30 -144.5zM306 83q54 0 83 49.5t29 143.5
q0 52 -9 91l-153 -271q22 -13 50 -13z" />
    <glyph glyph-name="ugrave" unicode="&#xf9;" horiz-adv-x="648" 
d="M410 687l-52 -70l-217 132l83 98zM598 78q16 -5 24 -11l-3 -67h-199v75q-62 -87 -166 -87q-80 0 -128.5 53.5t-48.5 144.5v247q0 27 -21 35l-11 4q-18 6 -27 12l3 68h209v-351q0 -100 68 -100q49 0 79 40t30 108v184q0 27 -21 35l-11 4q-22 7 -29 12l3 68h211v-421
q0 -24 4.5 -33.5t18.5 -14.5z" />
    <glyph glyph-name="uacute" unicode="&#xfa;" horiz-adv-x="648" 
d="M463 749l-217 -132l-52 70l186 160zM598 78q16 -5 24 -11l-3 -67h-199v75q-62 -87 -166 -87q-80 0 -128.5 53.5t-48.5 144.5v247q0 27 -21 35l-11 4q-18 6 -27 12l3 68h209v-351q0 -100 68 -100q49 0 79 40t30 108v184q0 27 -21 35l-11 4q-22 7 -29 12l3 68h211v-421
q0 -24 4.5 -33.5t18.5 -14.5z" />
    <glyph glyph-name="ucircumflex" unicode="&#xfb;" horiz-adv-x="648" 
d="M296 707l-123 -91l-56 57l138 134h82l138 -134l-56 -57zM598 78q16 -5 24 -11l-3 -67h-199v75q-62 -87 -166 -87q-80 0 -128.5 53.5t-48.5 144.5v247q0 27 -21 35l-11 4q-18 6 -27 12l3 68h209v-351q0 -100 68 -100q49 0 79 40t30 108v184q0 27 -21 35l-11 4
q-22 7 -29 12l3 68h211v-421q0 -24 4.5 -33.5t18.5 -14.5z" />
    <glyph glyph-name="udieresis" unicode="&#xfc;" horiz-adv-x="648" 
d="M183 634q-32 0 -55.5 23.5t-23.5 55.5t23.5 55.5t55.5 23.5t55.5 -23.5t23.5 -55.5t-23.5 -55.5t-55.5 -23.5zM409 634q-32 0 -55.5 23.5t-23.5 55.5t23.5 55.5t55.5 23.5t55.5 -23.5t23.5 -55.5t-23.5 -55.5t-55.5 -23.5zM598 78q16 -5 24 -11l-3 -67h-199v75
q-62 -87 -166 -87q-80 0 -128.5 53.5t-48.5 144.5v247q0 27 -21 35l-11 4q-18 6 -27 12l3 68h209v-351q0 -100 68 -100q49 0 79 40t30 108v184q0 27 -21 35l-11 4q-22 7 -29 12l3 68h211v-421q0 -24 4.5 -33.5t18.5 -14.5z" />
    <glyph glyph-name="yacute" unicode="&#xfd;" horiz-adv-x="616" 
d="M498 749l-217 -132l-52 70l186 160zM609 552l3 -67q-12 -6 -30 -12l-15 -5q-30 -10 -45 -49l-139 -369q-60 -159 -109.5 -216.5t-121.5 -57.5q-63 0 -102 36.5t-39 99.5v4q0 46 37 46h98l4 -32q7 -49 36 -49q34 0 73 104l-168 435q-16 40 -40 48l-15 5q-21 7 -31 12l3 67
h295l3 -66q-11 -5 -29 -11l-17 -5q-26 -8 -15 -40l86 -254l85 253q10 32 -16 41l-11 4q-19 6 -30 11l3 67h247z" />
    <glyph glyph-name="thorn" unicode="&#xfe;" horiz-adv-x="641" 
d="M384 564q101 0 165 -79t64 -209q0 -129 -66.5 -208.5t-164.5 -79.5q-90 0 -142 57v-126q0 -22 6.5 -31.5t26.5 -15.5l16 -5q26 -8 37 -12l-3 -67h-310l-3 67q10 5 31 12l15 5q19 7 25 16t6 31v738q0 24 -6.5 32.5t-25.5 14.5l-15 5q-22 7 -29 12l3 67h226v-287
q53 63 144 63zM349 86q47 0 73.5 49t26.5 141q0 190 -100 190q-114 0 -114 -190q0 -92 29.5 -141t84.5 -49z" />
    <glyph glyph-name="ydieresis" unicode="&#xff;" horiz-adv-x="616" 
d="M218 634q-32 0 -55.5 23.5t-23.5 55.5t23.5 55.5t55.5 23.5t55.5 -23.5t23.5 -55.5t-23.5 -55.5t-55.5 -23.5zM444 634q-32 0 -55.5 23.5t-23.5 55.5t23.5 55.5t55.5 23.5t55.5 -23.5t23.5 -55.5t-23.5 -55.5t-55.5 -23.5zM609 552l3 -67q-12 -6 -30 -12l-15 -5
q-30 -10 -45 -49l-139 -369q-60 -159 -109.5 -216.5t-121.5 -57.5q-63 0 -102 36.5t-39 99.5v4q0 46 37 46h98l4 -32q7 -49 36 -49q34 0 73 104l-168 435q-16 40 -40 48l-15 5q-21 7 -31 12l3 67h295l3 -66q-11 -5 -29 -11l-17 -5q-26 -8 -15 -40l86 -254l85 253
q10 32 -16 41l-11 4q-19 6 -30 11l3 67h247z" />
    <glyph glyph-name="Amacron" unicode="&#x100;" horiz-adv-x="749" 
d="M183 882v101h390v-101h-390zM12 0l-3 64q7 7 33 18l10 4q22 9 32.5 22.5t27.5 61.5l204 618h123l215 -648q10 -27 19 -37t28 -18l5 -2q24 -8 36 -16l-5 -67h-331l-4 64q13 8 39 17l14 5q26 10 32 25.5t-2 47.5l-23 76q-4 11 -15 11h-191q-11 0 -15 -11l-24 -78
q-11 -41 -8.5 -53.5t19.5 -17.5l15 -5q22 -7 35 -17l-6 -64h-260zM286 340h131q13 0 9 13l-72 234h-6l-71 -234q-4 -13 9 -13z" />
    <glyph glyph-name="amacron" unicode="&#x101;" horiz-adv-x="602" 
d="M493 750v-101h-390v101h390zM557 77q14 -4 21 -10l-3 -67h-197v66q-24 -35 -67.5 -56.5t-93.5 -21.5q-81 0 -133 44t-52 113q0 74 53 117.5t168 63.5l86 17q17 4 21.5 9t4.5 21v17q0 87 -83 87q-67 0 -67 -64v-51h-128q-14 0 -21 14q-6 12 -6 34q0 67 56 110.5t165 43.5
q118 0 177.5 -48.5t59.5 -140.5v-244q0 -26 4 -35.5t21 -14.5zM365 199v68q-25 -9 -55 -16l-28 -7q-90 -19 -90 -83q0 -30 20 -51t50 -21q45 0 74 29.5t29 80.5z" />
    <glyph glyph-name="Abreve" unicode="&#x102;" horiz-adv-x="749" 
d="M378 854q-82 0 -128.5 42t-51.5 112h101q14 -59 79 -59t79 59h101q-5 -70 -52 -112t-128 -42zM12 0l-3 64q7 7 33 18l10 4q22 9 32.5 22.5t27.5 61.5l204 618h123l215 -648q10 -27 19 -37t28 -18l5 -2q24 -8 36 -16l-5 -67h-331l-4 64q13 8 39 17l14 5q26 10 32 25.5
t-2 47.5l-23 76q-4 11 -15 11h-191q-11 0 -15 -11l-24 -78q-11 -41 -8.5 -53.5t19.5 -17.5l15 -5q22 -7 35 -17l-6 -64h-260zM286 340h131q13 0 9 13l-72 234h-6l-71 -234q-4 -13 9 -13z" />
    <glyph glyph-name="abreve" unicode="&#x103;" horiz-adv-x="602" 
d="M297 613q-79 0 -127.5 45t-51.5 118h101q5 -32 26.5 -50t52.5 -18t52.5 18t26.5 50h101q-3 -73 -52.5 -118t-128.5 -45zM557 77q14 -4 21 -10l-3 -67h-197v66q-24 -35 -67.5 -56.5t-93.5 -21.5q-81 0 -133 44t-52 113q0 74 53 117.5t168 63.5l86 17q17 4 21.5 9t4.5 21
v17q0 87 -83 87q-67 0 -67 -64v-51h-128q-14 0 -21 14q-6 12 -6 34q0 67 56 110.5t165 43.5q118 0 177.5 -48.5t59.5 -140.5v-244q0 -26 4 -35.5t21 -14.5zM365 199v68q-25 -9 -55 -16l-28 -7q-90 -19 -90 -83q0 -30 20 -51t50 -21q45 0 74 29.5t29 80.5z" />
    <glyph glyph-name="Aogonek" unicode="&#x104;" horiz-adv-x="749" 
d="M648 0q-55 -37 -55 -91q0 -41 39 -41q29 0 65 33l40 -55q-59 -63 -133 -63q-62 0 -96 25.5t-34 74.5q0 33 20 66t50 51h-138l-4 64q13 8 39 17l14 5q26 10 32 25.5t-2 47.5l-23 76q-4 11 -15 11h-191q-11 0 -15 -11l-24 -78q-11 -41 -8.5 -53.5t19.5 -17.5l15 -5
q22 -7 35 -17l-6 -64h-260l-3 64q7 7 33 18l10 4q22 9 32.5 22.5t27.5 61.5l204 618h123l215 -648q10 -27 19 -37t28 -18l5 -2q24 -8 36 -16l-5 -67h-89zM417 340q13 0 9 13l-72 234h-6l-71 -234q-4 -13 9 -13h131z" />
    <glyph glyph-name="aogonek" unicode="&#x105;" horiz-adv-x="602" 
d="M584 -99l40 -55q-59 -63 -137 -63q-58 0 -92 28.5t-34 77.5q0 33 21.5 63t54.5 45q-24 7 -39.5 26.5t-16.5 47.5q-23 -37 -67.5 -60t-96.5 -23q-81 0 -133 44t-52 113q0 74 53 117.5t168 63.5l86 17q17 4 21.5 9t4.5 21v17q0 87 -83 87q-67 0 -67 -64v-51h-128
q-14 0 -21 14q-6 12 -6 34q0 67 56 110.5t165 43.5q118 0 177.5 -48.5t59.5 -140.5v-244q0 -26 4 -35.5t21 -14.5l14 -4q14 -4 21 -10l-3 -67h-11q-30 0 -57 -27.5t-27 -58.5q0 -46 39 -46q29 0 65 33zM365 199v68q-25 -9 -55 -16l-28 -7q-90 -19 -90 -83q0 -30 20 -51
t50 -21q45 0 74 29.5t29 80.5z" />
    <glyph glyph-name="Cacute" unicode="&#x106;" horiz-adv-x="636" 
d="M267 840l-43 79l221 125l63 -111zM351 -12q-153 0 -233 102.5t-80 298.5t80 303.5t223 107.5q86 0 139 -40q9 -6 12 6l6 28h93v-240h-95l-5 30q-20 118 -118 118q-79 0 -122 -79.5t-43 -224.5q0 -151 41.5 -230t120.5 -79q100 0 161 150l81 -34q-74 -217 -261 -217z" />
    <glyph glyph-name="cacute" unicode="&#x107;" horiz-adv-x="557" 
d="M246 617l-52 70l186 160l83 -98zM296 -12q-120 0 -194 75t-74 215q0 132 72.5 209t185.5 77q68 0 112 -27q11 -6 15 6l4 18h88v-222h-95l-2 16q-8 62 -32.5 90t-68.5 28q-53 0 -84 -45.5t-31 -137.5q0 -96 37 -145.5t101 -49.5q69 0 142 65l56 -62q-100 -110 -232 -110z
" />
    <glyph glyph-name="Ccircumflex" unicode="&#x108;" horiz-adv-x="636" 
d="M229 837l-56 63l121 127h116l121 -128l-56 -63l-123 95zM351 -12q-153 0 -233 102.5t-80 298.5t80 303.5t223 107.5q86 0 139 -40q9 -6 12 6l6 28h93v-240h-95l-5 30q-20 118 -118 118q-79 0 -122 -79.5t-43 -224.5q0 -151 41.5 -230t120.5 -79q100 0 161 150l81 -34
q-74 -217 -261 -217z" />
    <glyph glyph-name="ccircumflex" unicode="&#x109;" horiz-adv-x="557" 
d="M173 616l-56 57l138 134h82l138 -134l-56 -57l-123 91zM296 -12q-120 0 -194 75t-74 215q0 132 72.5 209t185.5 77q68 0 112 -27q11 -6 15 6l4 18h88v-222h-95l-2 16q-8 62 -32.5 90t-68.5 28q-53 0 -84 -45.5t-31 -137.5q0 -96 37 -145.5t101 -49.5q69 0 142 65l56 -62
q-100 -110 -232 -110z" />
    <glyph glyph-name="Cdotaccent" unicode="&#x10a;" horiz-adv-x="636" 
d="M353 871q-40 0 -65.5 24.5t-25.5 62.5t25.5 62t65.5 24q39 0 64 -24t25 -62q0 -37 -25.5 -62t-63.5 -25zM351 -12q-153 0 -233 102.5t-80 298.5t80 303.5t223 107.5q86 0 139 -40q9 -6 12 6l6 28h93v-240h-95l-5 30q-20 118 -118 118q-79 0 -122 -79.5t-43 -224.5
q0 -151 41.5 -230t120.5 -79q100 0 161 150l81 -34q-74 -217 -261 -217z" />
    <glyph glyph-name="cdotaccent" unicode="&#x10b;" horiz-adv-x="557" 
d="M296 637q-37 0 -63 26t-26 64t25.5 63.5t63.5 25.5q37 0 63 -25.5t26 -63.5q0 -37 -26.5 -63.5t-62.5 -26.5zM296 -12q-120 0 -194 75t-74 215q0 132 72.5 209t185.5 77q68 0 112 -27q11 -6 15 6l4 18h88v-222h-95l-2 16q-8 62 -32.5 90t-68.5 28q-53 0 -84 -45.5
t-31 -137.5q0 -96 37 -145.5t101 -49.5q69 0 142 65l56 -62q-100 -110 -232 -110z" />
    <glyph glyph-name="Ccaron" unicode="&#x10c;" horiz-adv-x="636" 
d="M294 858l-121 127l56 63l123 -94l123 95l56 -63l-121 -128h-116zM351 -12q-153 0 -233 102.5t-80 298.5t80 303.5t223 107.5q86 0 139 -40q9 -6 12 6l6 28h93v-240h-95l-5 30q-20 118 -118 118q-79 0 -122 -79.5t-43 -224.5q0 -151 41.5 -230t120.5 -79q100 0 161 150
l81 -34q-74 -217 -261 -217z" />
    <glyph glyph-name="ccaron" unicode="&#x10d;" horiz-adv-x="557" 
d="M255 630l-138 134l56 57l123 -91l123 91l56 -57l-138 -134h-82zM296 -12q-120 0 -194 75t-74 215q0 132 72.5 209t185.5 77q68 0 112 -27q11 -6 15 6l4 18h88v-222h-95l-2 16q-8 62 -32.5 90t-68.5 28q-53 0 -84 -45.5t-31 -137.5q0 -96 37 -145.5t101 -49.5q69 0 142 65
l56 -62q-100 -110 -232 -110z" />
    <glyph glyph-name="Dcaron" unicode="&#x10e;" horiz-adv-x="725" 
d="M308 858l-121 127l56 63l123 -94l123 95l56 -63l-121 -128h-116zM44 0l-6 70q9 9 27 14l19 6q23 7 28 20.5t5 56.5v455q0 44 -5 56t-29 20l-20 7q-15 5 -24 14l5 69h271q178 0 275 -100t97 -286q0 -192 -96 -297t-269 -105h-278zM291 99h17q95 0 152 80.5t57 217.5
q0 292 -207 292h-19q-14 0 -14 -14v-562q0 -14 14 -14z" />
    <glyph glyph-name="dcaron" unicode="&#x10f;" horiz-adv-x="628" 
d="M685 800q38 0 60 -23.5t22 -61.5q0 -42 -27 -88.5t-73 -87.5l-67 43q52 44 52 82q0 9 -10 17.5t-19.5 22t-9.5 34.5q0 28 20.5 45t51.5 17zM577 83l15 -5q16 -5 24 -11l-3 -67h-199v68q-55 -80 -149 -80q-105 0 -171 78.5t-66 209.5t65.5 209.5t168.5 78.5q91 0 139 -66
v159q0 24 -6.5 32.5t-25.5 14.5l-15 5q-22 7 -29 12l3 67h226v-657q0 -24 4.5 -33.5t18.5 -14.5zM295 86q52 0 81.5 49.5t29.5 140.5q0 190 -106 190q-108 0 -108 -189q0 -191 103 -191z" />
    <glyph glyph-name="Dcroat" unicode="&#x110;" horiz-adv-x="725" 
d="M315 788q178 0 275 -100t97 -286q0 -192 -96 -297t-269 -105h-278l-6 70q9 9 27 14l19 6q23 7 28 20.5t5 56.5v194h-88v102h88v159q0 44 -5 56t-29 20l-20 7q-15 5 -24 14l5 69h271zM308 99q95 0 152 80.5t57 217.5q0 292 -207 292h-19q-14 0 -14 -14v-212h122v-102h-122
v-248q0 -14 14 -14h17z" />
    <glyph glyph-name="dcroat" unicode="&#x111;" horiz-adv-x="630" 
d="M620 591h-66v-460q0 -24 4.5 -33.5t18.5 -14.5l15 -5q16 -5 24 -11l-3 -67h-199v68q-55 -80 -149 -80q-105 0 -171 78.5t-66 209.5t65.5 209.5t168.5 78.5q91 0 139 -66v93h-99v80h98q-1 15 -8 21t-23 12l-15 5q-22 7 -29 12l3 67h226v-117h66v-80zM295 86
q52 0 81.5 49.5t29.5 140.5q0 190 -106 190q-108 0 -108 -189q0 -191 103 -191z" />
    <glyph glyph-name="Emacron" unicode="&#x112;" horiz-adv-x="614" 
d="M123 882v101h390v-101h-390zM44 0l-6 70q7 7 27 14l19 6q23 7 28 20.5t5 56.5v455q0 44 -5 56t-29 20l-16 6q-17 6 -28 15l5 69h505v-219h-66q-6 9 -22 56l-15 44q-4 13 -10 16t-23 3h-122q-14 0 -14 -14v-210q0 -14 14 -14h26q24 0 32.5 5.5t17.5 26.5l5 12q6 16 15 31
l51 -4v-237l-51 -4q-8 10 -15 26l-5 12q-10 23 -19.5 30t-30.5 7h-26q-14 0 -14 -14v-227q0 -14 14 -14h144q17 0 23 3t10 16l15 44q12 36 22 56h66v-219h-527z" />
    <glyph glyph-name="emacron" unicode="&#x113;" horiz-adv-x="588" 
d="M89 649v101h390v-101h-390zM307 -12q-131 0 -205 78t-74 211q0 129 77 208t193 79q99 0 169 -56q81 -66 81 -149q0 -16 -10.5 -24.5t-46.5 -25.5q-142 -66 -288 -101q-12 -3 -12 -12q0 -38 35 -66.5t102 -28.5q91 0 167 73l53 -65q-40 -54 -103 -87.5t-138 -33.5z
M192 297q18 0 76 17.5t96 35.5q24 11 24 25q0 30 -18 57q-29 43 -82 43q-47 0 -78.5 -37t-31.5 -105q0 -11 2 -27q2 -9 12 -9z" />
    <glyph glyph-name="Ebreve" unicode="&#x114;" horiz-adv-x="614" 
d="M318 854q-82 0 -128.5 42t-51.5 112h101q14 -59 79 -59t79 59h101q-5 -70 -52 -112t-128 -42zM44 0l-6 70q7 7 27 14l19 6q23 7 28 20.5t5 56.5v455q0 44 -5 56t-29 20l-16 6q-17 6 -28 15l5 69h505v-219h-66q-6 9 -22 56l-15 44q-4 13 -10 16t-23 3h-122q-14 0 -14 -14
v-210q0 -14 14 -14h26q24 0 32.5 5.5t17.5 26.5l5 12q6 16 15 31l51 -4v-237l-51 -4q-8 10 -15 26l-5 12q-10 23 -19.5 30t-30.5 7h-26q-14 0 -14 -14v-227q0 -14 14 -14h144q17 0 23 3t10 16l15 44q12 36 22 56h66v-219h-527z" />
    <glyph glyph-name="ebreve" unicode="&#x115;" horiz-adv-x="588" 
d="M283 613q-79 0 -127.5 45t-51.5 118h101q5 -32 26.5 -50t52.5 -18t52.5 18t26.5 50h101q-3 -73 -52.5 -118t-128.5 -45zM307 -12q-131 0 -205 78t-74 211q0 129 77 208t193 79q99 0 169 -56q81 -66 81 -149q0 -16 -10.5 -24.5t-46.5 -25.5q-142 -66 -288 -101
q-12 -3 -12 -12q0 -38 35 -66.5t102 -28.5q91 0 167 73l53 -65q-40 -54 -103 -87.5t-138 -33.5zM192 297q18 0 76 17.5t96 35.5q24 11 24 25q0 30 -18 57q-29 43 -82 43q-47 0 -78.5 -37t-31.5 -105q0 -11 2 -27q2 -9 12 -9z" />
    <glyph glyph-name="Edotaccent" unicode="&#x116;" horiz-adv-x="614" 
d="M319 871q-40 0 -65.5 24.5t-25.5 62.5t25.5 62t65.5 24q39 0 64 -24t25 -62q0 -37 -25.5 -62t-63.5 -25zM44 0l-6 70q7 7 27 14l19 6q23 7 28 20.5t5 56.5v455q0 44 -5 56t-29 20l-16 6q-17 6 -28 15l5 69h505v-219h-66q-6 9 -22 56l-15 44q-4 13 -10 16t-23 3h-122
q-14 0 -14 -14v-210q0 -14 14 -14h26q24 0 32.5 5.5t17.5 26.5l5 12q6 16 15 31l51 -4v-237l-51 -4q-8 10 -15 26l-5 12q-10 23 -19.5 30t-30.5 7h-26q-14 0 -14 -14v-227q0 -14 14 -14h144q17 0 23 3t10 16l15 44q12 36 22 56h66v-219h-527z" />
    <glyph glyph-name="edotaccent" unicode="&#x117;" horiz-adv-x="588" 
d="M284 637q-37 0 -63 26t-26 64t25.5 63.5t63.5 25.5q37 0 63 -25.5t26 -63.5q0 -37 -26.5 -63.5t-62.5 -26.5zM307 -12q-131 0 -205 78t-74 211q0 129 77 208t193 79q99 0 169 -56q81 -66 81 -149q0 -16 -10.5 -24.5t-46.5 -25.5q-142 -66 -288 -101q-12 -3 -12 -12
q0 -38 35 -66.5t102 -28.5q91 0 167 73l53 -65q-40 -54 -103 -87.5t-138 -33.5zM192 297q18 0 76 17.5t96 35.5q24 11 24 25q0 30 -18 57q-29 43 -82 43q-47 0 -78.5 -37t-31.5 -105q0 -11 2 -27q2 -9 12 -9z" />
    <glyph glyph-name="Eogonek" unicode="&#x118;" horiz-adv-x="614" 
d="M583 -99l40 -55q-59 -63 -133 -63q-62 0 -96 25.5t-34 74.5q0 33 20 66t50 51h-386l-6 70q7 7 27 14l19 6q23 7 28 20.5t5 56.5v455q0 44 -5 56t-29 20l-16 6q-17 6 -28 15l5 69h505v-219h-66q-6 9 -22 56l-15 44q-4 13 -10 16t-23 3h-122q-14 0 -14 -14v-210
q0 -14 14 -14h26q24 0 32.5 5.5t17.5 26.5l5 12q6 16 15 31l51 -4v-237l-51 -4q-8 10 -15 26l-5 12q-10 23 -19.5 30t-30.5 7h-26q-14 0 -14 -14v-227q0 -14 14 -14h144q17 0 23 3t10 16l15 44q12 36 22 56h66v-219h-37q-55 -37 -55 -91q0 -41 39 -41q29 0 65 33z" />
    <glyph glyph-name="eogonek" unicode="&#x119;" horiz-adv-x="596" 
d="M413 -217q-60 0 -92 26.5t-32 73.5q0 27 18 56.5t49 52.5q-21 -4 -51 -4q-131 0 -204 77.5t-73 211.5q0 130 76.5 208.5t198.5 78.5q104 0 172 -57q81 -69 81 -148q0 -17 -10.5 -25.5t-46.5 -24.5q-126 -56 -294 -101q-12 -3 -12 -12q0 -39 36.5 -66t101.5 -27
q41 0 85.5 18t76.5 50l57 -62q-34 -42 -78 -72q-33 -23 -49.5 -55.5t-16.5 -62.5q0 -22 12 -36.5t31 -14.5q27 0 63 33l40 -55q-59 -63 -139 -63zM194 296q18 0 79.5 18t98.5 36q24 11 24 25q0 33 -16 57q-29 40 -83 40q-51 0 -84 -36t-33 -104q0 -11 2 -27q2 -9 12 -9z" />
    <glyph glyph-name="Ecaron" unicode="&#x11a;" horiz-adv-x="614" 
d="M260 858l-121 127l56 63l123 -94l123 95l56 -63l-121 -128h-116zM44 0l-6 70q7 7 27 14l19 6q23 7 28 20.5t5 56.5v455q0 44 -5 56t-29 20l-16 6q-17 6 -28 15l5 69h505v-219h-66q-6 9 -22 56l-15 44q-4 13 -10 16t-23 3h-122q-14 0 -14 -14v-210q0 -14 14 -14h26
q24 0 32.5 5.5t17.5 26.5l5 12q6 16 15 31l51 -4v-237l-51 -4q-8 10 -15 26l-5 12q-10 23 -19.5 30t-30.5 7h-26q-14 0 -14 -14v-227q0 -14 14 -14h144q17 0 23 3t10 16l15 44q12 36 22 56h66v-219h-527z" />
    <glyph glyph-name="ecaron" unicode="&#x11b;" horiz-adv-x="588" 
d="M243 630l-138 134l56 57l123 -91l123 91l56 -57l-138 -134h-82zM307 -12q-131 0 -205 78t-74 211q0 129 77 208t193 79q99 0 169 -56q81 -66 81 -149q0 -16 -10.5 -24.5t-46.5 -25.5q-142 -66 -288 -101q-12 -3 -12 -12q0 -38 35 -66.5t102 -28.5q91 0 167 73l53 -65
q-40 -54 -103 -87.5t-138 -33.5zM192 297q18 0 76 17.5t96 35.5q24 11 24 25q0 30 -18 57q-29 43 -82 43q-47 0 -78.5 -37t-31.5 -105q0 -11 2 -27q2 -9 12 -9z" />
    <glyph glyph-name="Gcircumflex" unicode="&#x11c;" horiz-adv-x="698" 
d="M234 837l-56 63l121 127h116l121 -128l-56 -63l-123 95zM341 -12q-147 0 -225 103.5t-78 297.5q0 197 81.5 304t234.5 107q82 0 139 -41q10 -7 13 6l5 29h93v-240h-95l-5 30q-20 118 -129 118q-83 0 -125 -78t-42 -226q0 -309 160 -309q53 0 84.5 37.5t31.5 97.5v62
q0 22 -8 32t-28 12l-17 2q-35 4 -56 10l5 84h252v-426h-101l-18 51q-6 17 -19 3q-52 -66 -153 -66z" />
    <glyph glyph-name="gcircumflex" unicode="&#x11d;" horiz-adv-x="650" 
d="M307 707l-123 -91l-56 57l138 134h82l138 -134l-56 -57zM624 552v-100h-97q36 -48 36 -120q0 -66 -31.5 -116.5t-89.5 -74.5q78 -15 118 -58t40 -106q0 -88 -77.5 -144.5t-207.5 -56.5q-145 0 -215 49.5t-70 135.5v3q0 36 32 36h118l3 -23q15 -110 140 -110
q55 0 83.5 27.5t28.5 75.5q0 102 -125 109l-19 1q-259 14 -259 252q0 108 71 170.5t194 62.5q50 0 94 -13h233zM303 170q96 0 96 155q0 152 -99 152q-104 0 -104 -152q0 -155 107 -155z" />
    <glyph glyph-name="Gbreve" unicode="&#x11e;" horiz-adv-x="698" 
d="M357 854q-82 0 -128.5 42t-51.5 112h101q14 -59 79 -59t79 59h101q-5 -70 -52 -112t-128 -42zM341 -12q-147 0 -225 103.5t-78 297.5q0 197 81.5 304t234.5 107q82 0 139 -41q10 -7 13 6l5 29h93v-240h-95l-5 30q-20 118 -129 118q-83 0 -125 -78t-42 -226
q0 -309 160 -309q53 0 84.5 37.5t31.5 97.5v62q0 22 -8 32t-28 12l-17 2q-35 4 -56 10l5 84h252v-426h-101l-18 51q-6 17 -19 3q-52 -66 -153 -66z" />
    <glyph glyph-name="gbreve" unicode="&#x11f;" horiz-adv-x="650" 
d="M306 613q-79 0 -127.5 45t-51.5 118h101q5 -32 26.5 -50t52.5 -18t52.5 18t26.5 50h101q-3 -73 -52.5 -118t-128.5 -45zM624 552v-100h-97q36 -48 36 -120q0 -66 -31.5 -116.5t-89.5 -74.5q78 -15 118 -58t40 -106q0 -88 -77.5 -144.5t-207.5 -56.5q-145 0 -215 49.5
t-70 135.5v3q0 36 32 36h118l3 -23q15 -110 140 -110q55 0 83.5 27.5t28.5 75.5q0 102 -125 109l-19 1q-259 14 -259 252q0 108 71 170.5t194 62.5q50 0 94 -13h233zM303 170q96 0 96 155q0 152 -99 152q-104 0 -104 -152q0 -155 107 -155z" />
    <glyph glyph-name="Gdotaccent" unicode="&#x120;" horiz-adv-x="698" 
d="M358 871q-40 0 -65.5 24.5t-25.5 62.5t25.5 62t65.5 24q39 0 64 -24t25 -62q0 -37 -25.5 -62t-63.5 -25zM341 -12q-147 0 -225 103.5t-78 297.5q0 197 81.5 304t234.5 107q82 0 139 -41q10 -7 13 6l5 29h93v-240h-95l-5 30q-20 118 -129 118q-83 0 -125 -78t-42 -226
q0 -309 160 -309q53 0 84.5 37.5t31.5 97.5v62q0 22 -8 32t-28 12l-17 2q-35 4 -56 10l5 84h252v-426h-101l-18 51q-6 17 -19 3q-52 -66 -153 -66z" />
    <glyph glyph-name="gdotaccent" unicode="&#x121;" horiz-adv-x="650" 
d="M307 637q-37 0 -63 26t-26 64t25.5 63.5t63.5 25.5q37 0 63 -25.5t26 -63.5q0 -37 -26.5 -63.5t-62.5 -26.5zM624 552v-100h-97q36 -48 36 -120q0 -66 -31.5 -116.5t-89.5 -74.5q78 -15 118 -58t40 -106q0 -88 -77.5 -144.5t-207.5 -56.5q-145 0 -215 49.5t-70 135.5v3
q0 36 32 36h118l3 -23q15 -110 140 -110q55 0 83.5 27.5t28.5 75.5q0 102 -125 109l-19 1q-259 14 -259 252q0 108 71 170.5t194 62.5q50 0 94 -13h233zM303 170q96 0 96 155q0 152 -99 152q-104 0 -104 -152q0 -155 107 -155z" />
    <glyph glyph-name="Gcommaaccent" unicode="&#x122;" horiz-adv-x="698" 
d="M341 -12q-147 0 -225 103.5t-78 297.5q0 197 81.5 304t234.5 107q82 0 139 -41q10 -7 13 6l5 29h93v-240h-95l-5 30q-20 118 -129 118q-83 0 -125 -78t-42 -226q0 -309 160 -309q53 0 84.5 37.5t31.5 97.5v62q0 22 -8 32t-28 12l-17 2q-35 4 -56 10l5 84h252v-426h-101
l-18 51q-6 17 -19 3q-52 -66 -153 -66zM352 -338l-68 46q57 43 57 77q0 10 -10.5 20t-20.5 25t-10 39q0 28 21 47.5t51 19.5q40 0 63.5 -27.5t23.5 -66.5q0 -46 -27 -94t-80 -86z" />
    <glyph glyph-name="gcommaaccent" unicode="&#x123;" horiz-adv-x="650" 
d="M306 616q-40 0 -63.5 27.5t-23.5 66.5q0 46 27 94t80 86l68 -46q-57 -43 -57 -77q0 -10 10.5 -20t20.5 -25t10 -39q0 -28 -21 -47.5t-51 -19.5zM624 552v-100h-97q36 -48 36 -120q0 -66 -31.5 -116.5t-89.5 -74.5q78 -15 118 -58t40 -106q0 -88 -77.5 -144.5
t-207.5 -56.5q-145 0 -215 49.5t-70 135.5v3q0 36 32 36h118l3 -23q15 -110 140 -110q55 0 83.5 27.5t28.5 75.5q0 102 -125 109l-19 1q-259 14 -259 252q0 108 71 170.5t194 62.5q50 0 94 -13h233zM303 170q96 0 96 155q0 152 -99 152q-104 0 -104 -152q0 -155 107 -155z
" />
    <glyph glyph-name="Hcircumflex" unicode="&#x124;" horiz-adv-x="798" 
d="M276 837l-56 63l121 127h116l121 -128l-56 -63l-123 95zM44 0l-6 70q9 9 27 14l19 6q23 7 28 20.5t5 56.5v455q0 43 -5 55t-29 21l-16 6q-17 6 -28 15l5 69h306l6 -70q-10 -8 -24 -13l-22 -7q-23 -7 -28 -20.5t-5 -56.5v-129q0 -14 14 -14h216q14 0 14 14v130q0 43 -5 55
t-29 21l-16 6q-17 6 -28 15l5 69h306l6 -70q-10 -8 -24 -13l-22 -7q-23 -7 -28 -20.5t-5 -56.5v-455q0 -43 5 -56t27 -20l15 -5q20 -7 31 -16l-5 -69h-306l-6 70q9 9 27 14l19 6q23 7 28 20.5t5 56.5v198q0 14 -14 14h-216q-14 0 -14 -14v-199q0 -43 5 -56t27 -20l15 -5
q20 -7 31 -16l-5 -69h-306z" />
    <glyph glyph-name="hcircumflex" unicode="&#x125;" horiz-adv-x="664" 
d="M145 931l-123 -94l-56 63l121 127h116l121 -128l-56 -63zM613 79q11 -4 27 -12l-3 -67h-210v349q0 107 -77 107q-50 0 -76.5 -41t-26.5 -117v-167q0 -21 6.5 -31t24.5 -16l15 -5q21 -7 31 -12l-3 -67h-301l-3 67q10 5 31 12l15 5q19 7 25 16t6 31v526q0 24 -6.5 32.5
t-25.5 14.5l-15 5q-24 8 -29 12l3 67h226v-287q60 63 149 63q83 0 133.5 -53.5t50.5 -144.5v-235q0 -25 5 -34.5t17 -13.5z" />
    <glyph glyph-name="Hbar" unicode="&#x126;" horiz-adv-x="816" 
d="M798 553h-108v-387q0 -43 5 -56t27 -20l15 -5q20 -7 31 -16l-5 -69h-306l-6 70q9 9 27 14l19 6q23 7 28 20.5t5 56.5v198q0 14 -14 14h-216q-14 0 -14 -14v-199q0 -43 5 -56t27 -20l15 -5q20 -7 31 -16l-5 -69h-306l-6 70q9 9 27 14l19 6q23 7 28 20.5t5 56.5v386h-108
v83h108q0 32 -6 43t-28 19l-16 6q-17 6 -28 15l5 69h306l6 -70q-10 -8 -24 -13l-22 -7q-21 -7 -26.5 -18t-6.5 -44h244q0 32 -6 43t-28 19l-16 6q-17 6 -28 15l5 69h306l6 -70q-10 -8 -24 -13l-22 -7q-21 -7 -26.5 -18t-6.5 -44h108v-83zM530 492v61h-244v-61q0 -14 14 -14
h216q14 0 14 14z" />
    <glyph glyph-name="hbar" unicode="&#x127;" horiz-adv-x="664" 
d="M613 79q11 -4 27 -12l-3 -67h-210v349q0 107 -77 107q-50 0 -76.5 -41t-26.5 -117v-167q0 -21 6.5 -31t24.5 -16l15 -5q21 -7 31 -12l-3 -67h-301l-3 67q10 5 31 12l15 5q19 7 25 16t6 31v460h-64v80h63q-1 15 -8 21t-23 12l-15 5q-24 8 -29 12l3 67h226v-117h101v-80
h-101v-90q60 63 149 63q83 0 133.5 -53.5t50.5 -144.5v-235q0 -25 5 -34.5t17 -13.5z" />
    <glyph glyph-name="Itilde" unicode="&#x128;" horiz-adv-x="406" 
d="M68 847l-78 46q18 51 57 80.5t84 29.5q35 0 80 -25.5t63 -25.5q39 0 54 53l75 -46q-9 -44 -43 -78.5t-79 -34.5q-40 0 -83 25t-63 25q-49 0 -67 -49zM50 0l-6 70q9 9 27 14l19 6q23 7 28 20.5t5 56.5v455q0 43 -5 55t-29 21l-16 6q-17 6 -28 15l5 69h306l6 -70
q-10 -8 -24 -13l-22 -7q-23 -7 -28 -20.5t-5 -56.5v-455q0 -43 5 -56t27 -20l15 -5q20 -7 31 -16l-5 -69h-306z" />
    <glyph glyph-name="itilde" unicode="&#x129;" horiz-adv-x="333" 
d="M40 621l-75 39q9 58 44 92t78 34q31 0 74.5 -25.5t58.5 -25.5q31 0 43 60l77 -32q-9 -55 -39.5 -95t-70.5 -40q-33 0 -76 25t-59 25q-39 0 -55 -57zM25 0l-3 67q10 5 31 12l15 5q19 7 25 16t6 31v290q0 24 -6.5 32.5t-25.5 14.5l-15 5q-22 7 -29 12l3 67h226v-421
q0 -21 6.5 -31t24.5 -16l15 -5q21 -7 31 -12l-3 -67h-301z" />
    <glyph glyph-name="Imacron" unicode="&#x12a;" horiz-adv-x="406" 
d="M8 882v101h390v-101h-390zM50 0l-6 70q9 9 27 14l19 6q23 7 28 20.5t5 56.5v455q0 43 -5 55t-29 21l-16 6q-17 6 -28 15l5 69h306l6 -70q-10 -8 -24 -13l-22 -7q-23 -7 -28 -20.5t-5 -56.5v-455q0 -43 5 -56t27 -20l15 -5q20 -7 31 -16l-5 -69h-306z" />
    <glyph glyph-name="imacron" unicode="&#x12b;" horiz-adv-x="333" 
d="M5 649v101h290v-101h-290zM25 0l-3 67q10 5 31 12l15 5q19 7 25 16t6 31v290q0 24 -6.5 32.5t-25.5 14.5l-15 5q-22 7 -29 12l3 67h226v-421q0 -21 6.5 -31t24.5 -16l15 -5q21 -7 31 -12l-3 -67h-301z" />
    <glyph glyph-name="Ibreve" unicode="&#x12c;" horiz-adv-x="406" 
d="M203 854q-82 0 -128.5 42t-51.5 112h101q14 -59 79 -59t79 59h101q-5 -70 -52 -112t-128 -42zM50 0l-6 70q9 9 27 14l19 6q23 7 28 20.5t5 56.5v455q0 43 -5 55t-29 21l-16 6q-17 6 -28 15l5 69h306l6 -70q-10 -8 -24 -13l-22 -7q-23 -7 -28 -20.5t-5 -56.5v-455
q0 -43 5 -56t27 -20l15 -5q20 -7 31 -16l-5 -69h-306z" />
    <glyph glyph-name="ibreve" unicode="&#x12d;" horiz-adv-x="333" 
d="M149 613q-75 0 -115.5 46.5t-43.5 116.5h101q4 -68 59 -68q56 0 60 68h101q-3 -69 -45 -116t-117 -47zM25 0l-3 67q10 5 31 12l15 5q19 7 25 16t6 31v290q0 24 -6.5 32.5t-25.5 14.5l-15 5q-22 7 -29 12l3 67h226v-421q0 -21 6.5 -31t24.5 -16l15 -5q21 -7 31 -12l-3 -67
h-301z" />
    <glyph glyph-name="Iogonek" unicode="&#x12e;" horiz-adv-x="406" 
d="M268 0q-55 -37 -55 -91q0 -41 39 -41q29 0 65 33l40 -55q-59 -63 -133 -63q-62 0 -96 25.5t-34 74.5q0 33 20 66t50 51h-114l-6 70q9 9 27 14l19 6q23 7 28 20.5t5 56.5v455q0 43 -5 55t-29 21l-16 6q-17 6 -28 15l5 69h306l6 -70q-10 -8 -24 -13l-22 -7
q-23 -7 -28 -20.5t-5 -56.5v-455q0 -43 5 -56t27 -20l15 -5q20 -7 31 -16l-5 -69h-88z" />
    <glyph glyph-name="iogonek" unicode="&#x12f;" horiz-adv-x="333" 
d="M174 617q-41 0 -68.5 26.5t-27.5 65.5t27.5 65t68.5 26q40 0 67 -26t27 -65t-27 -65.5t-67 -26.5zM232 0q-48 -40 -48 -94q0 -36 31 -36q25 0 53 31l34 -58q-46 -60 -113 -60q-51 0 -81.5 27.5t-30.5 76.5q0 67 53 113h-105l-3 67q10 5 31 12l15 5q19 7 25 16t6 31v290
q0 24 -6.5 32.5t-25.5 14.5l-15 5q-22 7 -29 12l3 67h226v-421q0 -21 6.5 -31t24.5 -16l15 -5q21 -7 31 -12l-3 -67h-94z" />
    <glyph glyph-name="Idotaccent" unicode="&#x130;" horiz-adv-x="406" 
d="M204 871q-40 0 -65.5 24.5t-25.5 62.5t25.5 62t65.5 24q39 0 64 -24t25 -62q0 -37 -25.5 -62t-63.5 -25zM50 0l-6 70q9 9 27 14l19 6q23 7 28 20.5t5 56.5v455q0 43 -5 55t-29 21l-16 6q-17 6 -28 15l5 69h306l6 -70q-10 -8 -24 -13l-22 -7q-23 -7 -28 -20.5t-5 -56.5
v-455q0 -43 5 -56t27 -20l15 -5q20 -7 31 -16l-5 -69h-306z" />
    <glyph glyph-name="dotlessi" unicode="&#x131;" horiz-adv-x="333" 
d="M25 0l-3 67q10 5 31 12l15 5q19 7 25 16t6 31v290q0 24 -6.5 32.5t-25.5 14.5l-15 5q-22 7 -29 12l3 67h226v-421q0 -21 6.5 -31t24.5 -16l15 -5q21 -7 31 -12l-3 -67h-301z" />
    <glyph glyph-name="IJ" unicode="&#x132;" horiz-adv-x="897" 
d="M50 0l-6 70q9 9 27 14l19 6q23 7 28 20.5t5 56.5v455q0 43 -5 55t-29 21l-16 6q-17 6 -28 15l5 69h306l6 -70q-10 -8 -24 -13l-22 -7q-23 -7 -28 -20.5t-5 -56.5v-455q0 -43 5 -56t27 -20l15 -5q20 -7 31 -16l-5 -69h-306zM589 -12q-86 0 -138.5 42.5t-52.5 111.5
q0 61 48 61h112v-66q0 -35 8.5 -49.5t29.5 -14.5t29.5 15t8.5 53v481q0 43 -5 55t-29 21l-16 6q-17 6 -28 15l5 69h306l6 -70q-10 -8 -24 -13l-22 -7q-23 -7 -28 -20.5t-5 -56.5v-404q0 -111 -53 -170t-152 -59z" />
    <glyph glyph-name="ij" unicode="&#x133;" horiz-adv-x="661" 
d="M174 617q-41 0 -68.5 26.5t-27.5 65.5t27.5 65t68.5 26q40 0 67 -26t27 -65t-27 -65.5t-67 -26.5zM527 617q-41 0 -68.5 26.5t-27.5 65.5t27.5 65t68.5 26q40 0 67 -26t27 -65t-27 -65.5t-67 -26.5zM25 0l-3 67q10 5 31 12l15 5q19 7 25 16t6 31v290q0 24 -6.5 32.5
t-25.5 14.5l-15 5q-22 7 -29 12l3 67h226v-421q0 -21 6.5 -31t24.5 -16l15 -5q21 -7 31 -12l-3 -67h-301zM411 -224q-77 0 -122 34.5t-45 95.5v5q0 22 9 35q10 13 29 13h91v-52q0 -50 39 -50q40 0 40 58v506q0 24 -6.5 32.5t-25.5 14.5l-15 5q-22 7 -29 12l3 67h226v-561
q0 -107 -47 -161t-147 -54z" />
    <glyph glyph-name="Jcircumflex" unicode="&#x134;" horiz-adv-x="533" 
d="M227 837l-56 63l121 127h116l121 -128l-56 -63l-123 95zM225 -12q-86 0 -138.5 42.5t-52.5 111.5q0 61 48 61h112v-66q0 -35 8.5 -49.5t29.5 -14.5t29.5 15t8.5 53v481q0 43 -5 55t-29 21l-16 6q-17 6 -28 15l5 69h306l6 -70q-10 -8 -24 -13l-22 -7q-23 -7 -28 -20.5
t-5 -56.5v-404q0 -111 -53 -170t-152 -59z" />
    <glyph glyph-name="jcircumflex" unicode="&#x135;" horiz-adv-x="308" 
d="M57 616l-62 57l118 134h82l118 -134l-61 -57l-98 91zM58 -224q-77 0 -122 34.5t-45 95.5v5q0 22 9 35q10 13 29 13h91v-52q0 -50 39 -50q40 0 40 58v506q0 24 -6.5 32.5t-25.5 14.5l-15 5q-22 7 -29 12l3 67h226v-561q0 -107 -47 -161t-147 -54z" />
    <glyph glyph-name="Kcommaaccent" unicode="&#x136;" horiz-adv-x="704" 
d="M657 83q24 -7 33 -14l-4 -69h-213l-175 353q-5 11 -15 4q-6 -5 -6 -21v-170q0 -43 5 -56t27 -20l15 -5q20 -7 31 -16l-5 -69h-306l-6 70q9 9 27 14l19 6q23 7 28 20.5t5 56.5v455q0 43 -5 55t-29 21l-16 6q-17 6 -28 15l5 69h306l6 -70q-10 -8 -24 -13l-22 -7
q-23 -7 -28 -20.5t-5 -56.5v-138l155 185q24 29 1 42l-9 5q-11 6 -21 14l7 59h268l4 -66q-7 -9 -33 -15l-22 -6q-57 -16 -95 -59l-120 -138q-10 -13 -2 -27l163 -321q16 -32 31.5 -46.5t39.5 -22.5zM383 -64q40 0 63.5 -27.5t23.5 -66.5q0 -46 -27 -94t-80 -86l-68 46
q57 43 57 77q0 10 -10 20t-20.5 25t-10.5 39q0 28 21 47.5t51 19.5z" />
    <glyph glyph-name="kcommaaccent" unicode="&#x137;" horiz-adv-x="632" 
d="M578 79q9 -3 27 -12l-3 -67h-172l-133 236q-7 13 -15 5l-26 -26q-9 -9 -9 -20v-64q0 -24 4.5 -33.5t19.5 -14.5l15 -5q15 -5 27 -11l-3 -67h-290l-3 67q10 5 31 12l15 5q19 7 25 16t6 31v526q0 24 -6.5 32.5t-25.5 14.5l-15 5q-24 8 -29 12l3 67h226v-465l111 110
q14 13 14 23.5t-10 13.5l-10 4q-14 6 -22 11l3 67h260l3 -67q-10 -5 -31 -12l-16 -5q-46 -15 -94 -60l-58 -56q-5 -5 0 -15l117 -205q22 -39 50 -48zM355 -64q40 0 63.5 -27.5t23.5 -66.5q0 -46 -27 -94t-80 -86l-68 46q57 43 57 77q0 10 -10 20t-20.5 25t-10.5 39
q0 28 21 47.5t51 19.5z" />
    <glyph glyph-name="kgreenlandic" unicode="&#x138;" horiz-adv-x="633" 
d="M579 79q12 -5 27 -12l-3 -67h-172l-133 236q-7 13 -15 5l-26 -26q-9 -9 -9 -20v-64q0 -24 4.5 -33.5t19.5 -14.5l15 -5q15 -5 27 -11l-3 -67h-290l-3 67q10 5 31 12l15 5q19 7 25 16t6 31v290q0 24 -6.5 32.5t-25.5 14.5l-15 5q-22 7 -29 12l3 67h226v-229l111 110
q13 12 13.5 23t-11.5 15l-10 4l-20 10l3 67h260l3 -67q-10 -5 -31 -12l-16 -5q-45 -14 -94 -60l-58 -56q-5 -5 0 -15l117 -205q21 -38 50 -48z" />
    <glyph glyph-name="Lacute" unicode="&#x139;" horiz-adv-x="581" 
d="M115 840l-43 79l221 125l63 -111zM44 0l-6 70q9 9 27 14l19 6q23 7 28 20.5t5 56.5v455q0 43 -5 55t-29 21l-16 6q-17 6 -28 15l5 69h306l6 -70q-10 -8 -24 -13l-22 -7q-23 -7 -28 -20.5t-5 -56.5v-507q0 -14 14 -14h128q17 0 23 3t10 16l15 44q16 47 22 56h66v-219h-511
z" />
    <glyph glyph-name="lacute" unicode="&#x13a;" horiz-adv-x="336" 
d="M63 840l-43 79l221 125l63 -111zM20 0l-3 67q10 5 31 12l15 5q19 7 25 16t6 31v526q0 24 -6.5 32.5t-25.5 14.5l-15 5q-24 8 -29 12l3 67h226v-657q0 -21 6.5 -31t24.5 -16l15 -5q21 -7 31 -12l-3 -67h-301z" />
    <glyph glyph-name="Lcommaaccent" unicode="&#x13b;" horiz-adv-x="581" 
d="M44 0l-6 70q9 9 27 14l19 6q23 7 28 20.5t5 56.5v455q0 43 -5 55t-29 21l-16 6q-17 6 -28 15l5 69h306l6 -70q-10 -8 -24 -13l-22 -7q-23 -7 -28 -20.5t-5 -56.5v-507q0 -14 14 -14h128q17 0 23 3t10 16l15 44q16 47 22 56h66v-219h-511zM281 -338l-68 46q57 43 57 77
q0 10 -10 20t-20.5 25t-10.5 39q0 28 21 47.5t51 19.5q40 0 63.5 -27.5t23.5 -66.5q0 -46 -27 -94t-80 -86z" />
    <glyph glyph-name="lcommaaccent" unicode="&#x13c;" horiz-adv-x="336" 
d="M20 0l-3 67q10 5 31 12l15 5q19 7 25 16t6 31v526q0 24 -6.5 32.5t-25.5 14.5l-15 5q-24 8 -29 12l3 67h226v-657q0 -21 6.5 -31t24.5 -16l15 -5q21 -7 31 -12l-3 -67h-301zM149 -338l-68 46q57 43 57 77q0 10 -10 20t-20.5 25t-10.5 39q0 28 21 47.5t51 19.5
q40 0 63.5 -27.5t23.5 -66.5q0 -46 -27 -94t-80 -86z" />
    <glyph glyph-name="Lcaron" unicode="&#x13d;" horiz-adv-x="581" 
d="M488 539l-67 43q52 44 52 82q0 9 -9.5 17.5t-19.5 22t-10 34.5q0 28 20.5 45t51.5 17q38 0 60 -23.5t22 -61.5q0 -42 -27 -88.5t-73 -87.5zM44 0l-6 70q9 9 27 14l19 6q23 7 28 20.5t5 56.5v455q0 43 -5 55t-29 21l-16 6q-17 6 -28 15l5 69h306l6 -70q-10 -8 -24 -13
l-22 -7q-23 -7 -28 -20.5t-5 -56.5v-507q0 -14 14 -14h128q17 0 23 3t10 16l15 44q16 47 22 56h66v-219h-511z" />
    <glyph glyph-name="lcaron" unicode="&#x13e;" horiz-adv-x="336" 
d="M360 539l-67 43q52 44 52 82q0 9 -9.5 17.5t-19.5 22t-10 34.5q0 28 20.5 45t51.5 17q38 0 60 -23.5t22 -61.5q0 -42 -27 -88.5t-73 -87.5zM20 0l-3 67q10 5 31 12l15 5q19 7 25 16t6 31v526q0 24 -6.5 32.5t-25.5 14.5l-15 5q-24 8 -29 12l3 67h226v-657q0 -21 6.5 -31
t24.5 -16l15 -5q21 -7 31 -12l-3 -67h-301z" />
    <glyph glyph-name="Ldot" unicode="&#x13f;" horiz-adv-x="634" 
d="M44 0l-6 70q9 9 27 14l19 6q23 7 28 20.5t5 56.5v455q0 43 -5 55t-29 21l-16 6q-17 6 -28 15l5 69h306l6 -70q-10 -8 -24 -13l-22 -7q-23 -7 -28 -20.5t-5 -56.5v-507q0 -14 14 -14h128q17 0 23 3t10 16l15 44q16 47 22 56h66v-219h-511zM515 370q-42 0 -71 28.5
t-29 70.5q0 41 29 69.5t71 28.5q41 0 69.5 -28.5t28.5 -69.5q0 -42 -28.5 -70.5t-69.5 -28.5z" />
    <glyph glyph-name="ldot" unicode="&#x140;" horiz-adv-x="497" 
d="M20 0l-3 67q10 5 31 12l15 5q19 7 25 16t6 31v526q0 24 -6.5 32.5t-25.5 14.5l-15 5q-24 8 -29 12l3 67h226v-657q0 -21 6.5 -31t24.5 -16l15 -5q21 -7 31 -12l-3 -67h-301zM419 317q-42 0 -71 28.5t-29 70.5q0 41 29 69.5t71 28.5q41 0 69.5 -28.5t28.5 -69.5
q0 -42 -28.5 -70.5t-69.5 -28.5z" />
    <glyph glyph-name="Lslash" unicode="&#x141;" horiz-adv-x="596" 
d="M504 219h66v-219h-511l-6 70q9 9 27 14l19 6q23 7 28 20.5t5 56.5v153l-74 -39l-43 81l117 61v199q0 43 -5 55t-29 21l-16 6q-17 6 -28 15l5 69h306l6 -70q-10 -8 -24 -13l-22 -7q-23 -7 -28 -20.5t-5 -56.5v-115l130 68l42 -80l-172 -90v-290q0 -14 14 -14h128
q17 0 23 3t10 16l15 44q16 47 22 56z" />
    <glyph glyph-name="lslash" unicode="&#x142;" horiz-adv-x="407" 
d="M295 84l15 -5q21 -7 31 -12l-3 -67h-301l-3 67q10 5 31 12l15 5q19 7 25 16t6 31v215l-63 -36l-43 81l106 60v206q0 24 -6.5 32.5t-25.5 14.5l-15 5q-24 8 -29 12l3 67h226v-250l76 43l42 -80l-118 -67v-303q0 -21 6.5 -31t24.5 -16z" />
    <glyph glyph-name="Nacute" unicode="&#x143;" horiz-adv-x="777" 
d="M304 840l-43 79l221 125l63 -111zM44 0l-6 70q9 9 27 14l19 6q23 7 28 20.5t5 56.5v455q0 44 -5 56t-29 20l-20 7q-15 5 -24 14l5 69h224l292 -512v346q0 43 -5 56t-27 20l-15 5q-20 7 -31 16l5 69h254l6 -70q-9 -9 -27 -14l-19 -6q-23 -7 -28 -20.5t-5 -56.5v-621h-126
l-317 553v-387q0 -43 5 -56t27 -20l15 -5q20 -7 31 -16l-5 -69h-254z" />
    <glyph glyph-name="nacute" unicode="&#x144;" horiz-adv-x="677" 
d="M515 749l-217 -132l-52 70l186 160zM626 79q15 -6 27 -12l-3 -67h-210v346q0 54 -17.5 79.5t-57.5 25.5q-56 0 -86.5 -41t-30.5 -113v-166q0 -21 6.5 -31t24.5 -16l15 -5q21 -7 31 -12l-3 -67h-301l-3 67q10 5 31 12l15 5q19 7 25 16t6 31v290q0 24 -6.5 32.5t-25.5 14.5
l-15 5q-22 7 -29 12l3 67h226v-58q64 70 160 70q86 0 135.5 -53t49.5 -145v-235q0 -25 4.5 -34t17.5 -14z" />
    <glyph glyph-name="Ncommaaccent" unicode="&#x145;" horiz-adv-x="777" 
d="M44 0l-6 70q9 9 27 14l19 6q23 7 28 20.5t5 56.5v455q0 44 -5 56t-29 20l-20 7q-15 5 -24 14l5 69h224l292 -512v346q0 43 -5 56t-27 20l-15 5q-20 7 -31 16l5 69h254l6 -70q-9 -9 -27 -14l-19 -6q-23 -7 -28 -20.5t-5 -56.5v-621h-126l-317 553v-387q0 -43 5 -56t27 -20
l15 -5q20 -7 31 -16l-5 -69h-254zM391 -338l-68 46q57 43 57 77q0 10 -10 20t-20.5 25t-10.5 39q0 28 21 47.5t51 19.5q40 0 63.5 -27.5t23.5 -66.5q0 -46 -27 -94t-80 -86z" />
    <glyph glyph-name="ncommaaccent" unicode="&#x146;" horiz-adv-x="677" 
d="M626 79q15 -6 27 -12l-3 -67h-210v346q0 54 -17.5 79.5t-57.5 25.5q-56 0 -86.5 -41t-30.5 -113v-166q0 -21 6.5 -31t24.5 -16l15 -5q21 -7 31 -12l-3 -67h-301l-3 67q10 5 31 12l15 5q19 7 25 16t6 31v290q0 24 -6.5 32.5t-25.5 14.5l-15 5q-22 7 -29 12l3 67h226v-58
q64 70 160 70q86 0 135.5 -53t49.5 -145v-235q0 -25 4.5 -34t17.5 -14zM359 -64q40 0 63.5 -27.5t23.5 -66.5q0 -46 -27 -94t-80 -86l-68 46q57 43 57 77q0 10 -10 20t-20.5 25t-10.5 39q0 28 21 47.5t51 19.5z" />
    <glyph glyph-name="Ncaron" unicode="&#x147;" horiz-adv-x="777" 
d="M331 858l-121 127l56 63l123 -94l123 95l56 -63l-121 -128h-116zM44 0l-6 70q9 9 27 14l19 6q23 7 28 20.5t5 56.5v455q0 44 -5 56t-29 20l-20 7q-15 5 -24 14l5 69h224l292 -512v346q0 43 -5 56t-27 20l-15 5q-20 7 -31 16l5 69h254l6 -70q-9 -9 -27 -14l-19 -6
q-23 -7 -28 -20.5t-5 -56.5v-621h-126l-317 553v-387q0 -43 5 -56t27 -20l15 -5q20 -7 31 -16l-5 -69h-254z" />
    <glyph glyph-name="ncaron" unicode="&#x148;" horiz-adv-x="677" 
d="M389 630h-82l-138 134l56 57l123 -91l123 91l56 -57zM626 79q15 -6 27 -12l-3 -67h-210v346q0 54 -17.5 79.5t-57.5 25.5q-56 0 -86.5 -41t-30.5 -113v-166q0 -21 6.5 -31t24.5 -16l15 -5q21 -7 31 -12l-3 -67h-301l-3 67q10 5 31 12l15 5q19 7 25 16t6 31v290
q0 24 -6.5 32.5t-25.5 14.5l-15 5q-22 7 -29 12l3 67h226v-58q64 70 160 70q86 0 135.5 -53t49.5 -145v-235q0 -25 4.5 -34t17.5 -14z" />
    <glyph glyph-name="Eng" unicode="&#x14a;" horiz-adv-x="777" 
d="M741 788l6 -70q-9 -9 -27 -14l-19 -6q-23 -7 -28 -20.5t-5 -56.5v-608q0 -128 -41 -182.5t-130 -54.5q-36 0 -71 7v91q22 -6 50 -6q48 0 67.5 24t20.5 87v12l-339 567v-392q0 -43 5 -56t27 -20l15 -5q20 -7 31 -16l-5 -69h-254l-6 70q9 9 27 14l19 6q23 7 28 20.5t5 56.5
v455q0 44 -5 56t-29 20l-20 7q-15 5 -24 14l5 69h224l292 -501v335q0 43 -5 56t-27 20l-15 5q-20 7 -31 16l5 69h254z" />
    <glyph glyph-name="eng" unicode="&#x14b;" horiz-adv-x="637" 
d="M21 0l-3 67q10 5 31 12l15 5q19 7 25 16t6 31v290q0 24 -6.5 32.5t-25.5 14.5l-15 5q-22 7 -29 12l3 67h226v-58q65 70 160 70q86 0 135.5 -53t49.5 -145v-366q0 -224 -174 -224q-42 0 -82 9v86q16 -4 40 -4q35 0 49 26.5t14 85.5v367q0 54 -17.5 79.5t-57.5 25.5
q-56 0 -86.5 -41t-30.5 -113v-166q0 -21 6.5 -31t24.5 -16l15 -5q21 -7 31 -12l-3 -67h-301z" />
    <glyph glyph-name="Omacron" unicode="&#x14c;" horiz-adv-x="707" 
d="M159 882v101h390v-101h-390zM351 -12q-154 0 -233.5 102t-79.5 299t82.5 304t234.5 107q150 0 232 -105.5t82 -300.5q0 -196 -82 -301t-236 -105zM353 87q69 0 107.5 81t38.5 227t-38 226t-107 80q-68 0 -107 -81t-39 -222q0 -148 38.5 -229.5t106.5 -81.5z" />
    <glyph glyph-name="omacron" unicode="&#x14d;" horiz-adv-x="610" 
d="M114 649v101h390v-101h-390zM304 -12q-124 0 -200 78.5t-76 209.5q0 130 78 209t201 79q124 0 199.5 -78.5t75.5 -209.5q0 -130 -78 -209t-200 -79zM306 83q54 0 83 49.5t29 143.5t-29 143.5t-82 49.5q-55 0 -85 -48.5t-30 -144.5q0 -94 29 -143.5t85 -49.5z" />
    <glyph glyph-name="Obreve" unicode="&#x14e;" horiz-adv-x="707" 
d="M354 854q-82 0 -128.5 42t-51.5 112h101q14 -59 79 -59t79 59h101q-5 -70 -52 -112t-128 -42zM351 -12q-154 0 -233.5 102t-79.5 299t82.5 304t234.5 107q150 0 232 -105.5t82 -300.5q0 -196 -82 -301t-236 -105zM353 87q69 0 107.5 81t38.5 227t-38 226t-107 80
q-68 0 -107 -81t-39 -222q0 -148 38.5 -229.5t106.5 -81.5z" />
    <glyph glyph-name="obreve" unicode="&#x14f;" horiz-adv-x="610" 
d="M308 613q-79 0 -127.5 45t-51.5 118h101q5 -32 26.5 -50t52.5 -18t52.5 18t26.5 50h101q-3 -73 -52.5 -118t-128.5 -45zM304 -12q-124 0 -200 78.5t-76 209.5q0 130 78 209t201 79q124 0 199.5 -78.5t75.5 -209.5q0 -130 -78 -209t-200 -79zM306 83q54 0 83 49.5
t29 143.5t-29 143.5t-82 49.5q-55 0 -85 -48.5t-30 -144.5q0 -94 29 -143.5t85 -49.5z" />
    <glyph glyph-name="Ohungarumlaut" unicode="&#x150;" horiz-adv-x="707" 
d="M179 827l-58 76l183 153l79 -93zM446 827l-58 76l183 153l79 -93zM351 -12q-154 0 -233.5 102t-79.5 299t82.5 304t234.5 107q150 0 232 -105.5t82 -300.5q0 -196 -82 -301t-236 -105zM353 87q69 0 107.5 81t38.5 227t-38 226t-107 80q-68 0 -107 -81t-39 -222
q0 -148 38.5 -229.5t106.5 -81.5z" />
    <glyph glyph-name="ohungarumlaut" unicode="&#x151;" horiz-adv-x="610" 
d="M165 602l-72 63l156 181l96 -77zM405 602l-72 63l156 181l96 -77zM304 -12q-124 0 -200 78.5t-76 209.5q0 130 78 209t201 79q124 0 199.5 -78.5t75.5 -209.5q0 -130 -78 -209t-200 -79zM306 83q54 0 83 49.5t29 143.5t-29 143.5t-82 49.5q-55 0 -85 -48.5t-30 -144.5
q0 -94 29 -143.5t85 -49.5z" />
    <glyph glyph-name="OE" unicode="&#x152;" horiz-adv-x="975" 
d="M322 -12q-133 0 -208.5 103.5t-75.5 297.5q0 192 82.5 301.5t211.5 109.5q49 0 89 -20t61 -54v62h428v-219h-66q-6 9 -22 56l-15 44q-4 13 -10 16t-23 3h-122q-14 0 -14 -14v-210q0 -14 14 -14h26q24 0 32.5 5.5t17.5 26.5l5 12q5 14 15 31l51 -4v-237l-51 -4
q-8 10 -15 26l-5 12q-11 26 -18.5 31.5t-31.5 5.5h-26q-14 0 -14 -14v-227q0 -14 14 -14h144q17 0 23 3t10 16l15 44q16 47 22 56h66v-219h-451v77q-19 -39 -61 -64t-98 -25zM355 87q40 0 73.5 30t49.5 84v403q-12 42 -44.5 69.5t-72.5 27.5q-71 0 -112 -80.5t-41 -222.5
q0 -148 39 -229.5t108 -81.5z" />
    <glyph glyph-name="oe" unicode="&#x153;" horiz-adv-x="971" 
d="M304 -12q-124 0 -200 78.5t-76 209.5q0 130 77.5 209t198.5 79q114 0 192 -84q30 37 81 60.5t105 23.5q100 0 168 -57q80 -68 80 -148q0 -16 -12 -25.5t-48 -26.5q-136 -62 -284 -99q-12 -3 -12 -12q0 -40 35.5 -67.5t101.5 -27.5q91 0 167 73l53 -65
q-40 -54 -103.5 -87.5t-141.5 -33.5q-60 0 -112 22.5t-82 58.5q-69 -81 -188 -81zM574 297q18 0 76 17.5t96 35.5q24 11 24 25q0 30 -18 57q-29 43 -82 43q-47 0 -78.5 -37t-31.5 -105q0 -11 2 -27q2 -9 12 -9zM306 83q54 0 83 49.5t29 143.5t-29 143.5t-82 49.5
q-55 0 -85 -48.5t-30 -144.5q0 -94 29 -143.5t85 -49.5z" />
    <glyph glyph-name="Racute" unicode="&#x154;" horiz-adv-x="672" 
d="M257 840l-43 79l221 125l63 -111zM44 0l-6 70q9 9 27 14l19 6q23 7 28 20.5t5 56.5v455q0 43 -5 55t-29 21l-16 6q-17 6 -28 15l5 69h284q275 0 275 -224q0 -66 -35 -117.5t-92 -77.5q-10 -4 -5 -17l87 -187q19 -42 32 -56t36 -22l9 -3q17 -6 30 -15l-4 -69h-196
l-140 322q-5 11 -16 11h-18q-14 0 -14 -15v-152q0 -43 5 -56t27 -20l15 -5q20 -7 31 -16l-5 -69h-306zM292 433h11q62 0 96 33t34 94q0 66 -31.5 97t-94.5 31h-15q-15 0 -15 -15v-225q0 -15 15 -15z" />
    <glyph glyph-name="racute" unicode="&#x155;" horiz-adv-x="535" 
d="M449 749l-217 -132l-52 70l186 160zM401 564q53 0 83.5 -33t30.5 -90v-5q0 -33 -11 -45q-10 -12 -33 -12h-96l-4 42q-3 34 -30 34q-39 0 -66.5 -50.5t-27.5 -126.5v-147q0 -20 8 -29t30 -17l15 -5q24 -8 34 -13l-3 -67h-310l-3 67q10 5 31 12l15 5q19 7 24.5 16t5.5 31
v290q0 24 -6.5 32.5t-25.5 14.5l-15 5q-22 7 -29 12l3 67h226v-74q62 86 154 86z" />
    <glyph glyph-name="Rcommaaccent" unicode="&#x156;" horiz-adv-x="672" 
d="M44 0l-6 70q9 9 27 14l19 6q23 7 28 20.5t5 56.5v455q0 43 -5 55t-29 21l-16 6q-17 6 -28 15l5 69h284q275 0 275 -224q0 -66 -35 -117.5t-92 -77.5q-10 -4 -5 -17l87 -187q19 -42 32 -56t36 -22l9 -3q17 -6 30 -15l-4 -69h-196l-140 322q-5 11 -16 11h-18q-14 0 -14 -15
v-152q0 -43 5 -56t27 -20l15 -5q20 -7 31 -16l-5 -69h-306zM292 433h11q62 0 96 33t34 94q0 66 -31.5 97t-94.5 31h-15q-15 0 -15 -15v-225q0 -15 15 -15zM351 -338l-68 46q57 43 57 77q0 10 -10 20t-20.5 25t-10.5 39q0 28 21 47.5t51 19.5q40 0 63.5 -27.5t23.5 -66.5
q0 -46 -27 -94t-80 -86z" />
    <glyph glyph-name="rcommaaccent" unicode="&#x157;" horiz-adv-x="535" 
d="M401 564q53 0 83.5 -33t30.5 -90v-5q0 -33 -11 -45q-10 -12 -33 -12h-96l-4 42q-3 34 -30 34q-39 0 -66.5 -50.5t-27.5 -126.5v-147q0 -20 8 -29t30 -17l15 -5q24 -8 34 -13l-3 -67h-310l-3 67q10 5 31 12l15 5q19 7 24.5 16t5.5 31v290q0 24 -6.5 32.5t-25.5 14.5l-15 5
q-22 7 -29 12l3 67h226v-74q62 86 154 86zM174 -64q40 0 63.5 -27.5t23.5 -66.5q0 -46 -27 -94t-80 -86l-68 46q57 43 57 77q0 10 -10 20t-20.5 25t-10.5 39q0 28 21 47.5t51 19.5z" />
    <glyph glyph-name="Rcaron" unicode="&#x158;" horiz-adv-x="672" 
d="M284 858l-121 127l56 63l123 -94l123 95l56 -63l-121 -128h-116zM44 0l-6 70q9 9 27 14l19 6q23 7 28 20.5t5 56.5v455q0 43 -5 55t-29 21l-16 6q-17 6 -28 15l5 69h284q275 0 275 -224q0 -66 -35 -117.5t-92 -77.5q-10 -4 -5 -17l87 -187q19 -42 32 -56t36 -22l9 -3
q17 -6 30 -15l-4 -69h-196l-140 322q-5 11 -16 11h-18q-14 0 -14 -15v-152q0 -43 5 -56t27 -20l15 -5q20 -7 31 -16l-5 -69h-306zM292 433h11q62 0 96 33t34 94q0 66 -31.5 97t-94.5 31h-15q-15 0 -15 -15v-225q0 -15 15 -15z" />
    <glyph glyph-name="rcaron" unicode="&#x159;" horiz-adv-x="535" 
d="M323 630h-82l-138 134l56 57l123 -91l123 91l56 -57zM401 564q53 0 83.5 -33t30.5 -90v-5q0 -33 -11 -45q-10 -12 -33 -12h-96l-4 42q-3 34 -30 34q-39 0 -66.5 -50.5t-27.5 -126.5v-147q0 -20 8 -29t30 -17l15 -5q24 -8 34 -13l-3 -67h-310l-3 67q10 5 31 12l15 5
q19 7 24.5 16t5.5 31v290q0 24 -6.5 32.5t-25.5 14.5l-15 5q-22 7 -29 12l3 67h226v-74q62 86 154 86z" />
    <glyph glyph-name="Sacute" unicode="&#x15a;" horiz-adv-x="607" 
d="M219 840l-43 79l221 125l63 -111zM315 -12q-98 0 -160 55q-16 15 -18 -7l-4 -36h-90v275h97l2 -32q5 -71 47.5 -114t108.5 -43q49 0 82.5 29.5t33.5 73.5q0 63 -91 117l-127 77q-139 83 -139 215q0 91 64.5 146.5t168.5 55.5q81 0 131 -44q13 -13 16 6l6 31h90v-226h-97
l-4 41q-4 47 -36.5 72t-85.5 25q-43 0 -69.5 -22.5t-26.5 -60.5q0 -53 88 -108l133 -83q136 -85 136 -203q0 -106 -71.5 -173t-184.5 -67z" />
    <glyph glyph-name="sacute" unicode="&#x15b;" horiz-adv-x="510" 
d="M202 617l-52 70l186 160l83 -98zM272 -12q-37 0 -72.5 12t-54.5 28q-11 9 -15 -6l-6 -22h-84v203h94l3 -27q5 -44 38 -68.5t85 -24.5q38 0 57.5 15t19.5 37q0 21 -14.5 34.5t-53.5 31.5l-107 48q-113 51 -113 160q0 67 53 111t129 44q73 0 120 -37q10 -8 11 5l3 23h84
v-176h-93l-4 21q-14 71 -102 71q-30 0 -47 -13t-17 -33q0 -19 13 -31.5t46 -27.5l122 -56q107 -49 107 -148q0 -76 -56 -125t-146 -49z" />
    <glyph glyph-name="Scircumflex" unicode="&#x15c;" horiz-adv-x="607" 
d="M181 837l-56 63l121 127h116l121 -128l-56 -63l-123 95zM315 -12q-98 0 -160 55q-16 15 -18 -7l-4 -36h-90v275h97l2 -32q5 -71 47.5 -114t108.5 -43q49 0 82.5 29.5t33.5 73.5q0 63 -91 117l-127 77q-139 83 -139 215q0 91 64.5 146.5t168.5 55.5q81 0 131 -44
q13 -13 16 6l6 31h90v-226h-97l-4 41q-4 47 -36.5 72t-85.5 25q-43 0 -69.5 -22.5t-26.5 -60.5q0 -53 88 -108l133 -83q136 -85 136 -203q0 -106 -71.5 -173t-184.5 -67z" />
    <glyph glyph-name="scircumflex" unicode="&#x15d;" horiz-adv-x="510" 
d="M129 616l-56 57l138 134h82l138 -134l-56 -57l-123 91zM272 -12q-37 0 -72.5 12t-54.5 28q-11 9 -15 -6l-6 -22h-84v203h94l3 -27q5 -44 38 -68.5t85 -24.5q38 0 57.5 15t19.5 37q0 21 -14.5 34.5t-53.5 31.5l-107 48q-113 51 -113 160q0 67 53 111t129 44q73 0 120 -37
q10 -8 11 5l3 23h84v-176h-93l-4 21q-14 71 -102 71q-30 0 -47 -13t-17 -33q0 -19 13 -31.5t46 -27.5l122 -56q107 -49 107 -148q0 -76 -56 -125t-146 -49z" />
    <glyph glyph-name="Scedilla" unicode="&#x15e;" horiz-adv-x="607" 
d="M571 228q0 -96 -58.5 -160.5t-155.5 -76.5l-8 -17q46 -11 72.5 -37t26.5 -64q0 -42 -34.5 -71t-94.5 -29q-71 0 -122 33l26 62q35 -23 67 -23q19 0 30 10t11 26q0 39 -70 59l23 50q-79 9 -129 53q-16 15 -18 -7l-4 -36h-90v275h97l2 -32q5 -71 47.5 -114t108.5 -43
q49 0 82.5 29.5t33.5 73.5q0 63 -91 117l-127 77q-139 83 -139 215q0 91 64.5 146.5t168.5 55.5q81 0 131 -44q13 -13 16 6l6 31h90v-226h-97l-4 41q-4 47 -36.5 72t-85.5 25q-43 0 -69.5 -22.5t-26.5 -60.5q0 -53 88 -108l133 -83q136 -85 136 -203z" />
    <glyph glyph-name="scedilla" unicode="&#x15f;" horiz-adv-x="510" 
d="M474 162q0 -70 -48.5 -118t-127.5 -55l-7 -15q46 -11 72.5 -37t26.5 -64q0 -42 -34.5 -71t-94.5 -29q-71 0 -122 33l26 62q35 -23 67 -23q19 0 30 10t11 26q0 39 -70 59l24 53q-52 10 -82 35q-11 9 -15 -6l-6 -22h-84v203h94l3 -27q5 -44 38 -68.5t85 -24.5q38 0 57.5 15
t19.5 37q0 21 -14.5 34.5t-53.5 31.5l-107 48q-113 51 -113 160q0 67 53 111t129 44q73 0 120 -37q10 -8 11 5l3 23h84v-176h-93l-4 21q-14 71 -102 71q-30 0 -47 -13t-17 -33q0 -19 13 -31.5t46 -27.5l122 -56q107 -49 107 -148z" />
    <glyph glyph-name="Scaron" unicode="&#x160;" horiz-adv-x="607" 
d="M246 858l-121 127l56 63l123 -94l123 95l56 -63l-121 -128h-116zM315 -12q-98 0 -160 55q-16 15 -18 -7l-4 -36h-90v275h97l2 -32q5 -71 47.5 -114t108.5 -43q49 0 82.5 29.5t33.5 73.5q0 63 -91 117l-127 77q-139 83 -139 215q0 91 64.5 146.5t168.5 55.5q81 0 131 -44
q13 -13 16 6l6 31h90v-226h-97l-4 41q-4 47 -36.5 72t-85.5 25q-43 0 -69.5 -22.5t-26.5 -60.5q0 -53 88 -108l133 -83q136 -85 136 -203q0 -106 -71.5 -173t-184.5 -67z" />
    <glyph glyph-name="scaron" unicode="&#x161;" horiz-adv-x="510" 
d="M211 630l-138 134l56 57l123 -91l123 91l56 -57l-138 -134h-82zM272 -12q-37 0 -72.5 12t-54.5 28q-11 9 -15 -6l-6 -22h-84v203h94l3 -27q5 -44 38 -68.5t85 -24.5q38 0 57.5 15t19.5 37q0 21 -14.5 34.5t-53.5 31.5l-107 48q-113 51 -113 160q0 67 53 111t129 44
q73 0 120 -37q10 -8 11 5l3 23h84v-176h-93l-4 21q-14 71 -102 71q-30 0 -47 -13t-17 -33q0 -19 13 -31.5t46 -27.5l122 -56q107 -49 107 -148q0 -76 -56 -125t-146 -49z" />
    <glyph glyph-name="uni0162" unicode="&#x162;" horiz-adv-x="680" 
d="M187 0l-6 70q9 9 27 14l19 6q23 7 28 20.5t5 56.5v507q0 14 -14 14h-74q-17 0 -23 -3t-10 -16l-15 -44q-16 -47 -22 -56h-66v219h608v-219h-66q-6 9 -22 56l-15 44q-4 13 -10 16t-23 3h-74q-14 0 -14 -14v-508q0 -43 5 -56t27 -20l15 -5q20 -7 31 -16l-5 -69h-306z
M319 -338l-68 46q57 43 57 77q0 10 -10 20t-20.5 25t-10.5 39q0 28 21 47.5t51 19.5q40 0 63.5 -27.5t23.5 -66.5q0 -46 -27 -94t-80 -86z" />
    <glyph glyph-name="uni0163" unicode="&#x163;" horiz-adv-x="427" 
d="M234 -12q-146 0 -146 151v313h-80v89l47 12q27 7 39 17t17 30l34 120h96v-168h123v-100h-123v-300q0 -27 8.5 -38t27.5 -11q32 0 78 32l49 -70q-84 -77 -170 -77zM212 -338l-68 46q57 43 57 77q0 10 -10.5 20t-20.5 25t-10 39q0 28 21 47.5t51 19.5q40 0 63.5 -27.5
t23.5 -66.5q0 -46 -27 -94t-80 -86z" />
    <glyph glyph-name="Tcaron" unicode="&#x164;" horiz-adv-x="680" 
d="M282 858l-121 127l56 63l123 -94l123 95l56 -63l-121 -128h-116zM187 0l-6 70q9 9 27 14l19 6q23 7 28 20.5t5 56.5v507q0 14 -14 14h-74q-17 0 -23 -3t-10 -16l-15 -44q-16 -47 -22 -56h-66v219h608v-219h-66q-6 9 -22 56l-15 44q-4 13 -10 16t-23 3h-74q-14 0 -14 -14
v-508q0 -43 5 -56t27 -20l15 -5q20 -7 31 -16l-5 -69h-306z" />
    <glyph glyph-name="tcaron" unicode="&#x165;" horiz-adv-x="427" 
d="M358 613l-67 43q52 44 52 82q0 9 -9.5 17.5t-19.5 22t-10 34.5q0 28 20.5 45t51.5 17q38 0 60 -23.5t22 -61.5q0 -42 -27 -88.5t-73 -87.5zM234 -12q-146 0 -146 151v313h-80v89l47 12q27 7 39 17t17 30l34 120h96v-168h123v-100h-123v-300q0 -27 8.5 -38t27.5 -11
q32 0 78 32l49 -70q-84 -77 -170 -77z" />
    <glyph glyph-name="Tbar" unicode="&#x166;" horiz-adv-x="680" 
d="M36 788h608v-219h-66q-6 9 -22 56l-15 44q-4 13 -10 16t-23 3h-74q-14 0 -14 -14v-231h121v-102h-121v-175q0 -43 5 -56t27 -20l15 -5q20 -7 31 -16l-5 -69h-306l-6 70q9 9 27 14l19 6q23 7 28 20.5t5 56.5v174h-121v102h121v231q0 14 -14 14h-74q-17 0 -23 -3t-10 -16
l-15 -44q-16 -47 -22 -56h-66v219z" />
    <glyph glyph-name="tbar" unicode="&#x167;" horiz-adv-x="427" 
d="M355 135l49 -70q-84 -77 -170 -77q-146 0 -146 151v110h-74v100h74v103h-80v89l47 12q27 7 39 17t17 30l34 120h96v-168h123v-100h-123v-103h113v-100h-113v-97q0 -27 8.5 -38t27.5 -11q32 0 78 32z" />
    <glyph glyph-name="Utilde" unicode="&#x168;" horiz-adv-x="745" 
d="M262 847l-78 46q18 51 57 80.5t84 29.5q35 0 80 -25.5t63 -25.5q39 0 54 53l75 -46q-9 -44 -43 -78.5t-79 -34.5q-40 0 -83 25t-63 25q-49 0 -67 -49zM375 -12q-131 0 -202 68t-71 195v371q0 43 -5 56t-27 20l-15 5q-20 7 -31 16l5 69h306l6 -70q-9 -9 -27 -14l-19 -6
q-23 -7 -28 -20.5t-5 -56.5v-368q0 -80 34 -117t106 -37q132 0 132 163v360q0 43 -5 56t-27 20l-15 5q-20 7 -31 16l5 69h254l6 -70q-9 -9 -27 -14l-19 -6q-23 -7 -28 -20.5t-5 -56.5v-367q0 -125 -71 -195.5t-196 -70.5z" />
    <glyph glyph-name="utilde" unicode="&#x169;" horiz-adv-x="648" 
d="M233 679q-46 0 -68 -58l-76 54q19 56 56.5 85t83.5 29q36 0 81 -28.5t64 -28.5q39 0 55 63l73 -47q-10 -49 -42.5 -87t-76.5 -38q-42 0 -86 28t-64 28zM598 78q16 -5 24 -11l-3 -67h-199v75q-62 -87 -166 -87q-80 0 -128.5 53.5t-48.5 144.5v247q0 27 -21 35l-11 4
q-18 6 -27 12l3 68h209v-351q0 -100 68 -100q49 0 79 40t30 108v184q0 27 -21 35l-11 4q-22 7 -29 12l3 68h211v-421q0 -24 4.5 -33.5t18.5 -14.5z" />
    <glyph glyph-name="Umacron" unicode="&#x16a;" horiz-adv-x="745" 
d="M202 882v101h390v-101h-390zM375 -12q-131 0 -202 68t-71 195v371q0 43 -5 56t-27 20l-15 5q-20 7 -31 16l5 69h306l6 -70q-9 -9 -27 -14l-19 -6q-23 -7 -28 -20.5t-5 -56.5v-368q0 -80 34 -117t106 -37q132 0 132 163v360q0 43 -5 56t-27 20l-15 5q-20 7 -31 16l5 69
h254l6 -70q-9 -9 -27 -14l-19 -6q-23 -7 -28 -20.5t-5 -56.5v-367q0 -125 -71 -195.5t-196 -70.5z" />
    <glyph glyph-name="umacron" unicode="&#x16b;" horiz-adv-x="648" 
d="M491 750v-101h-390v101h390zM598 78q16 -5 24 -11l-3 -67h-199v75q-62 -87 -166 -87q-80 0 -128.5 53.5t-48.5 144.5v247q0 27 -21 35l-11 4q-18 6 -27 12l3 68h209v-351q0 -100 68 -100q49 0 79 40t30 108v184q0 27 -21 35l-11 4q-22 7 -29 12l3 68h211v-421
q0 -24 4.5 -33.5t18.5 -14.5z" />
    <glyph glyph-name="Ubreve" unicode="&#x16c;" horiz-adv-x="745" 
d="M397 854q-82 0 -128.5 42t-51.5 112h101q14 -59 79 -59t79 59h101q-5 -70 -52 -112t-128 -42zM375 -12q-131 0 -202 68t-71 195v371q0 43 -5 56t-27 20l-15 5q-20 7 -31 16l5 69h306l6 -70q-9 -9 -27 -14l-19 -6q-23 -7 -28 -20.5t-5 -56.5v-368q0 -80 34 -117t106 -37
q132 0 132 163v360q0 43 -5 56t-27 20l-15 5q-20 7 -31 16l5 69h254l6 -70q-9 -9 -27 -14l-19 -6q-23 -7 -28 -20.5t-5 -56.5v-367q0 -125 -71 -195.5t-196 -70.5z" />
    <glyph glyph-name="ubreve" unicode="&#x16d;" horiz-adv-x="648" 
d="M295 613q-79 0 -127.5 45t-51.5 118h101q5 -32 26.5 -50t52.5 -18t52.5 18t26.5 50h101q-3 -73 -52.5 -118t-128.5 -45zM598 78q16 -5 24 -11l-3 -67h-199v75q-62 -87 -166 -87q-80 0 -128.5 53.5t-48.5 144.5v247q0 27 -21 35l-11 4q-18 6 -27 12l3 68h209v-351
q0 -100 68 -100q49 0 79 40t30 108v184q0 27 -21 35l-11 4q-22 7 -29 12l3 68h211v-421q0 -24 4.5 -33.5t18.5 -14.5z" />
    <glyph glyph-name="Uring" unicode="&#x16e;" horiz-adv-x="745" 
d="M396 847q-54 0 -90.5 26.5t-36.5 75.5q0 48 36 75.5t93 27.5q54 0 90.5 -26.5t36.5 -75.5q0 -48 -36 -75.5t-93 -27.5zM398 908q19 0 31 12t12 30q0 20 -13 30.5t-32 10.5t-31 -11t-12 -30t13 -30.5t32 -11.5zM375 -12q-131 0 -202 68t-71 195v371q0 43 -5 56t-27 20
l-15 5q-20 7 -31 16l5 69h306l6 -70q-9 -9 -27 -14l-19 -6q-23 -7 -28 -20.5t-5 -56.5v-368q0 -80 34 -117t106 -37q132 0 132 163v360q0 43 -5 56t-27 20l-15 5q-20 7 -31 16l5 69h254l6 -70q-9 -9 -27 -14l-19 -6q-23 -7 -28 -20.5t-5 -56.5v-367q0 -125 -71 -195.5
t-196 -70.5z" />
    <glyph glyph-name="uring" unicode="&#x16f;" horiz-adv-x="648" 
d="M295 610q-54 0 -90.5 27t-36.5 80q0 51 36 79.5t93 28.5q54 0 90.5 -28t36.5 -79q0 -52 -35.5 -80t-93.5 -28zM295 763q-19 0 -31 -12t-12 -33t13 -33t32 -12t31 12.5t12 32.5q0 22 -13 33.5t-32 11.5zM598 78q16 -5 24 -11l-3 -67h-199v75q-62 -87 -166 -87
q-80 0 -128.5 53.5t-48.5 144.5v247q0 27 -21 35l-11 4q-18 6 -27 12l3 68h209v-351q0 -100 68 -100q49 0 79 40t30 108v184q0 27 -21 35l-11 4q-22 7 -29 12l3 68h211v-421q0 -24 4.5 -33.5t18.5 -14.5z" />
    <glyph glyph-name="Uhungarumlaut" unicode="&#x170;" horiz-adv-x="745" 
d="M222 827l-58 76l183 153l79 -93zM489 827l-58 76l183 153l79 -93zM375 -12q-131 0 -202 68t-71 195v371q0 43 -5 56t-27 20l-15 5q-20 7 -31 16l5 69h306l6 -70q-9 -9 -27 -14l-19 -6q-23 -7 -28 -20.5t-5 -56.5v-368q0 -80 34 -117t106 -37q132 0 132 163v360
q0 43 -5 56t-27 20l-15 5q-20 7 -31 16l5 69h254l6 -70q-9 -9 -27 -14l-19 -6q-23 -7 -28 -20.5t-5 -56.5v-367q0 -125 -71 -195.5t-196 -70.5z" />
    <glyph glyph-name="uhungarumlaut" unicode="&#x171;" horiz-adv-x="648" 
d="M332 769l-180 -167l-72 63l156 181zM392 602l-72 63l156 181l96 -77zM598 78q16 -5 24 -11l-3 -67h-199v75q-62 -87 -166 -87q-80 0 -128.5 53.5t-48.5 144.5v247q0 27 -21 35l-11 4q-18 6 -27 12l3 68h209v-351q0 -100 68 -100q49 0 79 40t30 108v184q0 27 -21 35l-11 4
q-22 7 -29 12l3 68h211v-421q0 -24 4.5 -33.5t18.5 -14.5z" />
    <glyph glyph-name="Uogonek" unicode="&#x172;" horiz-adv-x="745" 
d="M715 788l6 -70q-9 -9 -27 -14l-19 -6q-23 -7 -28 -20.5t-5 -56.5v-367q0 -163 -118 -231q-40 -23 -60.5 -55t-20.5 -59q0 -41 39 -41q29 0 65 33l40 -55q-59 -63 -133 -63q-61 0 -95.5 25t-34.5 72q0 32 19.5 61.5t51.5 46.5h-20q-131 0 -202 68t-71 195v371q0 43 -5 56
t-27 20l-15 5q-20 7 -31 16l5 69h306l6 -70q-9 -9 -27 -14l-19 -6q-23 -7 -28 -20.5t-5 -56.5v-368q0 -80 34 -117t106 -37q132 0 132 163v360q0 43 -5 56t-27 20l-15 5q-20 7 -31 16l5 69h254z" />
    <glyph glyph-name="uogonek" unicode="&#x173;" horiz-adv-x="648" 
d="M627 -99l40 -55q-59 -63 -137 -63q-58 0 -92 28.5t-34 77.5q0 32 20.5 61.5t52.5 45.5q-52 13 -63 72q-60 -80 -160 -80q-80 0 -128.5 53.5t-48.5 144.5v247q0 27 -21 35l-11 4q-18 6 -27 12l3 68h209v-351q0 -100 68 -100q49 0 79 40t30 108v184q0 27 -21 35l-11 4
q-22 7 -29 12l3 68h211v-421q0 -24 4.5 -33.5t18.5 -14.5l15 -5q16 -5 24 -11l-3 -67h-9q-33 0 -60 -27t-27 -59q0 -46 39 -46q29 0 65 33z" />
    <glyph glyph-name="Wcircumflex" unicode="&#x174;" horiz-adv-x="973" 
d="M517 931l-123 -94l-56 63l121 127h116l121 -128l-56 -63zM955 788l7 -68q-7 -6 -29 -13l-12 -4q-19 -6 -29 -21.5t-18 -52.5l-145 -629h-139l-110 478l-117 -478h-139l-144 660q-7 32 -26 38l-15 5q-20 7 -31 16l5 69h309l8 -70q-7 -7 -27 -13l-15 -4q-24 -7 -31.5 -23
t0.5 -57l74 -384l121 551h127l112 -550l85 385q8 41 0.5 56t-33.5 23l-17 5q-24 8 -36 16l3 65h262z" />
    <glyph glyph-name="wcircumflex" unicode="&#x175;" horiz-adv-x="882" 
d="M345 616l-56 57l138 134h82l138 -134l-56 -57l-123 91zM221 0l-136 433q-8 27 -34 35l-15 5q-21 7 -31 12l3 67h294l3 -66q-7 -4 -27 -11l-17 -5q-26 -8 -18 -38l67 -240l96 360h119l99 -360l65 244q4 16 0.5 22.5t-16.5 11.5l-11 4q-19 6 -30 11l3 67h240l3 -67
q-10 -5 -28 -11l-14 -5q-33 -12 -43 -41l-133 -428h-124l-95 311l-95 -311h-125z" />
    <glyph glyph-name="Ycircumflex" unicode="&#x176;" horiz-adv-x="674" 
d="M358 931l-123 -94l-56 63l121 127h116l121 -128l-56 -63zM669 788l7 -68q-7 -6 -29 -13l-15 -5q-19 -6 -33.5 -22.5t-33.5 -56.5l-139 -295v-162q0 -43 5 -56t27 -20l15 -5q20 -7 31 -16l-5 -69h-306l-6 70q9 9 27 14l19 6q23 7 28 20.5t5 56.5v149l-152 306
q-20 42 -31 56t-27 20l-15 5q-24 9 -33 16l5 69h305l8 -70q-7 -7 -27 -13l-13 -4q-39 -12 -13 -67l97 -197l92 198q28 58 -3 67l-17 5q-23 7 -33 15l4 66h256z" />
    <glyph glyph-name="ycircumflex" unicode="&#x177;" horiz-adv-x="616" 
d="M331 707l-123 -91l-56 57l138 134h82l138 -134l-56 -57zM609 552l3 -67q-12 -6 -30 -12l-15 -5q-30 -10 -45 -49l-139 -369q-60 -159 -109.5 -216.5t-121.5 -57.5q-63 0 -102 36.5t-39 99.5v4q0 46 37 46h98l4 -32q7 -49 36 -49q34 0 73 104l-168 435q-16 40 -40 48
l-15 5q-21 7 -31 12l3 67h295l3 -66q-11 -5 -29 -11l-17 -5q-26 -8 -15 -40l86 -254l85 253q10 32 -16 41l-11 4q-19 6 -30 11l3 67h247z" />
    <glyph glyph-name="Ydieresis" unicode="&#x178;" horiz-adv-x="674" 
d="M245 851q-35 0 -57.5 21.5t-22.5 55.5t22.5 55.5t57.5 21.5t57 -21.5t22 -55.5t-22 -55.5t-57 -21.5zM472 851q-35 0 -57.5 21.5t-22.5 55.5t22.5 55.5t57.5 21.5t57 -21.5t22 -55.5t-22 -55.5t-57 -21.5zM669 788l7 -68q-7 -6 -29 -13l-15 -5q-19 -6 -33.5 -22.5
t-33.5 -56.5l-139 -295v-162q0 -43 5 -56t27 -20l15 -5q20 -7 31 -16l-5 -69h-306l-6 70q9 9 27 14l19 6q23 7 28 20.5t5 56.5v149l-152 306q-20 42 -31 56t-27 20l-15 5q-24 9 -33 16l5 69h305l8 -70q-7 -7 -27 -13l-13 -4q-39 -12 -13 -67l97 -197l92 198q28 58 -3 67
l-17 5q-23 7 -33 15l4 66h256z" />
    <glyph glyph-name="Zacute" unicode="&#x179;" horiz-adv-x="604" 
d="M462 933l-241 -93l-43 79l221 125zM513 219h66v-219h-554v68l355 625h-195q-17 0 -23 -3t-10 -16l-17 -49q-16 -47 -22 -56h-66v219h522v-68l-357 -625h230q17 0 23 3t10 16l16 49q14 41 22 56z" />
    <glyph glyph-name="zacute" unicode="&#x17a;" horiz-adv-x="555" 
d="M448 749l-217 -132l-52 70l186 160zM447 208h70v-208h-484v82l289 377h-153q-20 0 -27 -21l-28 -94h-70v208h463v-82l-284 -377h169q20 0 27 21z" />
    <glyph glyph-name="Zdotaccent" unicode="&#x17b;" horiz-adv-x="604" 
d="M307 871q-40 0 -65.5 24.5t-25.5 62.5t25.5 62t65.5 24q39 0 64 -24t25 -62q0 -37 -25.5 -62t-63.5 -25zM513 219h66v-219h-554v68l355 625h-195q-17 0 -23 -3t-10 -16l-17 -49q-16 -47 -22 -56h-66v219h522v-68l-357 -625h230q17 0 23 3t10 16l16 49q14 41 22 56z" />
    <glyph glyph-name="zdotaccent" unicode="&#x17c;" horiz-adv-x="555" 
d="M281 637q-37 0 -63 26t-26 64t25.5 63.5t63.5 25.5q37 0 63 -25.5t26 -63.5q0 -37 -26.5 -63.5t-62.5 -26.5zM447 208h70v-208h-484v82l289 377h-153q-20 0 -27 -21l-28 -94h-70v208h463v-82l-284 -377h169q20 0 27 21z" />
    <glyph glyph-name="Zcaron" unicode="&#x17d;" horiz-adv-x="604" 
d="M364 858h-116l-121 127l56 63l123 -94l123 95l56 -63zM513 219h66v-219h-554v68l355 625h-195q-17 0 -23 -3t-10 -16l-17 -49q-16 -47 -22 -56h-66v219h522v-68l-357 -625h230q17 0 23 3t10 16l16 49q14 41 22 56z" />
    <glyph glyph-name="zcaron" unicode="&#x17e;" horiz-adv-x="555" 
d="M322 630h-82l-138 134l56 57l123 -91l123 91l56 -57zM447 208h70v-208h-484v82l289 377h-153q-20 0 -27 -21l-28 -94h-70v208h463v-82l-284 -377h169q20 0 27 21z" />
    <glyph glyph-name="longs" unicode="&#x17f;" horiz-adv-x="393" 
d="M31 0l-3 67q10 5 31 12l15 5q19 7 25 16t6 31v321h-87v100h87v53q0 97 51.5 146t144.5 49q77 0 123.5 -36.5t46.5 -105.5v-5q0 -20 -6 -26q-8 -8 -30 -8h-93v44q0 56 -40 56q-24 0 -34 -15.5t-10 -51.5v-521q0 -20 8.5 -29t33.5 -18l15 -5q21 -7 31 -12l-3 -67h-312z" />
    <glyph glyph-name="florin" unicode="&#x192;" horiz-adv-x="600" 
d="M37 -224q-68 0 -112.5 37t-44.5 105v5q0 20 7 27t26 7h96v-44q0 -56 37 -56q22 0 33.5 23t21.5 84l62 374h-107v100h124l24 145q18 109 75.5 163t146.5 54q68 0 112.5 -37t44.5 -105v-5q0 -20 -6 -26q-8 -8 -30 -8h-93v44q0 30 -7 43t-27 13q-22 0 -34.5 -23.5
t-23.5 -83.5l-31 -174h127v-100h-143l-56 -345q-35 -217 -222 -217z" />
    <glyph glyph-name="uni01CD" unicode="&#x1cd;" horiz-adv-x="749" 
d="M320 858l-121 127l56 63l123 -94l123 95l56 -63l-121 -128h-116zM12 0l-3 64q7 7 33 18l10 4q22 9 32.5 22.5t27.5 61.5l204 618h123l215 -648q10 -27 19 -37t28 -18l5 -2q24 -8 36 -16l-5 -67h-331l-4 64q13 8 39 17l14 5q26 10 32 25.5t-2 47.5l-23 76q-4 11 -15 11
h-191q-11 0 -15 -11l-24 -78q-11 -41 -8.5 -53.5t19.5 -17.5l15 -5q22 -7 35 -17l-6 -64h-260zM286 340h131q13 0 9 13l-72 234h-6l-71 -234q-4 -13 9 -13z" />
    <glyph glyph-name="uni01CE" unicode="&#x1ce;" horiz-adv-x="602" 
d="M339 630h-82l-138 134l56 57l123 -91l123 91l56 -57zM557 77q14 -4 21 -10l-3 -67h-197v66q-24 -35 -67.5 -56.5t-93.5 -21.5q-81 0 -133 44t-52 113q0 74 53 117.5t168 63.5l86 17q17 4 21.5 9t4.5 21v17q0 87 -83 87q-67 0 -67 -64v-51h-128q-14 0 -21 14q-6 12 -6 34
q0 67 56 110.5t165 43.5q118 0 177.5 -48.5t59.5 -140.5v-244q0 -26 4 -35.5t21 -14.5zM365 199v68q-25 -9 -55 -16l-28 -7q-90 -19 -90 -83q0 -30 20 -51t50 -21q45 0 74 29.5t29 80.5z" />
    <glyph glyph-name="AEacute" unicode="&#x1fc;" horiz-adv-x="959" 
d="M503 840l-43 79l221 125l63 -111zM7 0l-3 64q12 9 36 19l22 9q45 18 73 84l195 449q11 25 11 39q0 18 -27 29l-26 11q-20 8 -30 15l5 69h631v-219h-66q-6 9 -22 56l-15 44q-4 13 -10 16t-23 3h-122q-14 0 -14 -14v-210q0 -14 14 -14h26q24 0 32.5 5.5t17.5 26.5l5 12
q5 14 15 31l51 -4v-237l-51 -4q-8 10 -15 26l-5 12q-11 26 -18.5 31.5t-31.5 5.5h-26q-14 0 -14 -14v-227q0 -14 14 -14h144q17 0 23 3t10 16l15 44q16 47 22 56h66v-219h-527l-6 70q7 7 27 14l19 6q23 7 28 20.5t5 56.5v58q0 17 -16 17h-162q-15 0 -21 -14l-45 -102
q-5 -12 -5 -18q0 -16 20 -22l15 -5q24 -8 33 -17l-6 -64h-268zM329 337h110q23 0 23 29v310h-13l-129 -317q-3 -6 -3 -13q0 -9 12 -9z" />
    <glyph glyph-name="aeacute" unicode="&#x1fd;" horiz-adv-x="918" 
d="M419 617l-52 70l186 160l83 -98zM217 -12q-81 0 -133 44t-52 113q0 74 53 117.5t168 63.5l86 17q17 4 21.5 9t4.5 21v17q0 87 -83 87q-67 0 -67 -64v-51h-128q-14 0 -21 14q-6 12 -6 34q0 67 56 110.5t165 43.5q120 0 178 -69q26 30 74 49.5t100 19.5q97 0 168 -60
q34 -30 55.5 -69t21.5 -77q0 -15 -12 -24t-47 -26q-52 -25 -140.5 -55.5t-145.5 -44.5q-12 -3 -12 -13q0 -39 36 -66.5t103 -27.5q90 0 165 73l53 -65q-39 -54 -104 -87.5t-140 -33.5q-74 0 -133 28t-87 73q-26 -44 -77 -72.5t-120 -28.5zM522 297q18 0 76 17.5t96 35.5
q24 11 24 25q0 30 -18 57q-29 43 -82 43q-47 0 -78.5 -37t-31.5 -105q0 -11 2 -27q2 -9 12 -9zM262 89q45 0 74 29.5t29 80.5v68q-25 -9 -55 -16l-28 -7q-90 -19 -90 -83q0 -30 20 -51t50 -21z" />
    <glyph glyph-name="Oslashacute" unicode="&#x1fe;" horiz-adv-x="707" 
d="M510 933l-241 -93l-43 79l221 125zM578 706q91 -106 91 -312q0 -196 -82 -301t-236 -105q-90 0 -155 35l-59 -106l-78 46l66 118q-87 104 -87 308q0 197 82.5 304t234.5 107q87 0 152 -36l57 102l78 -46zM208 398q0 -84 12 -146l224 399q-36 50 -90 50q-68 0 -107 -81
t-39 -222zM353 87q69 0 107.5 81t38.5 227q0 87 -13 146l-224 -401q36 -53 91 -53z" />
    <glyph glyph-name="oslashacute" unicode="&#x1ff;" horiz-adv-x="610" 
d="M476 749l-217 -132l-52 70l186 160zM486 505q96 -79 96 -229q0 -130 -78 -209t-200 -79q-55 0 -100 16l-50 -90l-80 42l51 91q-97 80 -97 229q0 130 78 209t201 79q56 0 100 -16l52 92l80 -42zM192 276q0 -56 10 -93l153 273q-20 13 -48 13q-55 0 -85 -48.5t-30 -144.5z
M306 83q54 0 83 49.5t29 143.5q0 52 -9 91l-153 -271q22 -13 50 -13z" />
    <glyph glyph-name="Scommaaccent" unicode="&#x218;" horiz-adv-x="607" 
d="M315 -12q-98 0 -160 55q-16 15 -18 -7l-4 -36h-90v275h97l2 -32q5 -71 47.5 -114t108.5 -43q49 0 82.5 29.5t33.5 73.5q0 63 -91 117l-127 77q-139 83 -139 215q0 91 64.5 146.5t168.5 55.5q81 0 131 -44q13 -13 16 6l6 31h90v-226h-97l-4 41q-4 47 -36.5 72t-85.5 25
q-43 0 -69.5 -22.5t-26.5 -60.5q0 -53 88 -108l133 -83q136 -85 136 -203q0 -106 -71.5 -173t-184.5 -67zM304 -338l-68 46q57 43 57 77q0 10 -10.5 20t-20.5 25t-10 39q0 28 21 47.5t51 19.5q40 0 63.5 -27.5t23.5 -66.5q0 -46 -27 -94t-80 -86z" />
    <glyph glyph-name="scommaaccent" unicode="&#x219;" horiz-adv-x="510" 
d="M272 -12q-37 0 -72.5 12t-54.5 28q-11 9 -15 -6l-6 -22h-84v203h94l3 -27q5 -44 38 -68.5t85 -24.5q38 0 57.5 15t19.5 37q0 21 -14.5 34.5t-53.5 31.5l-107 48q-113 51 -113 160q0 67 53 111t129 44q73 0 120 -37q10 -8 11 5l3 23h84v-176h-93l-4 21q-14 71 -102 71
q-30 0 -47 -13t-17 -33q0 -19 13 -31.5t46 -27.5l122 -56q107 -49 107 -148q0 -76 -56 -125t-146 -49zM246 -338l-68 46q57 43 57 77q0 10 -10.5 20t-20.5 25t-10 39q0 28 21 47.5t51 19.5q40 0 63.5 -27.5t23.5 -66.5q0 -46 -27 -94t-80 -86z" />
    <glyph glyph-name="uni021A" unicode="&#x21a;" horiz-adv-x="680" 
d="M187 0l-6 70q9 9 27 14l19 6q23 7 28 20.5t5 56.5v507q0 14 -14 14h-74q-17 0 -23 -3t-10 -16l-15 -44q-16 -47 -22 -56h-66v219h608v-219h-66q-6 9 -22 56l-15 44q-4 13 -10 16t-23 3h-74q-14 0 -14 -14v-508q0 -43 5 -56t27 -20l15 -5q20 -7 31 -16l-5 -69h-306z
M319 -338l-68 46q57 43 57 77q0 10 -10 20t-20.5 25t-10.5 39q0 28 21 47.5t51 19.5q40 0 63.5 -27.5t23.5 -66.5q0 -46 -27 -94t-80 -86z" />
    <glyph glyph-name="uni021B" unicode="&#x21b;" horiz-adv-x="427" 
d="M234 -12q-146 0 -146 151v313h-80v89l47 12q27 7 39 17t17 30l34 120h96v-168h123v-100h-123v-300q0 -27 8.5 -38t27.5 -11q32 0 78 32l49 -70q-84 -77 -170 -77zM212 -338l-68 46q57 43 57 77q0 10 -10.5 20t-20.5 25t-10 39q0 28 21 47.5t51 19.5q40 0 63.5 -27.5
t23.5 -66.5q0 -46 -27 -94t-80 -86z" />
    <glyph glyph-name="uni0237" unicode="&#x237;" horiz-adv-x="308" 
d="M58 -224q-77 0 -122 34.5t-45 95.5v5q0 22 9 35q10 13 29 13h91v-52q0 -50 39 -50q40 0 40 58v506q0 24 -6.5 32.5t-25.5 14.5l-15 5q-22 7 -29 12l3 67h226v-561q0 -107 -47 -161t-147 -54z" />
    <glyph glyph-name="circumflex" unicode="&#x2c6;" horiz-adv-x="400" 
d="M77 616l-56 57l138 134h82l138 -134l-56 -57l-123 91z" />
    <glyph glyph-name="caron" unicode="&#x2c7;" horiz-adv-x="400" 
d="M159 630l-138 134l56 57l123 -91l123 91l56 -57l-138 -134h-82z" />
    <glyph glyph-name="breve" unicode="&#x2d8;" horiz-adv-x="400" 
d="M199 613q-79 0 -127.5 45t-51.5 118h101q5 -32 26.5 -50t52.5 -18t52.5 18t26.5 50h101q-3 -73 -52.5 -118t-128.5 -45z" />
    <glyph glyph-name="dotaccent" unicode="&#x2d9;" horiz-adv-x="400" 
d="M200 637q-37 0 -63 26t-26 64t25.5 63.5t63.5 25.5q37 0 63 -25.5t26 -63.5q0 -37 -26.5 -63.5t-62.5 -26.5z" />
    <glyph glyph-name="ring" unicode="&#x2da;" horiz-adv-x="400" 
d="M199 610q-54 0 -90.5 27t-36.5 80q0 51 36 79.5t93 28.5q54 0 90.5 -28t36.5 -79q0 -52 -35.5 -80t-93.5 -28zM201 673q19 0 31 12.5t12 32.5q0 22 -13 33.5t-32 11.5t-31 -12t-12 -33t13 -33t32 -12z" />
    <glyph glyph-name="ogonek" unicode="&#x2db;" horiz-adv-x="400" 
d="M205 -217q-62 0 -96 25.5t-34 74.5q0 35 23 70.5t56 51.5h103q-30 -17 -46.5 -43.5t-16.5 -52.5q0 -41 39 -41q29 0 65 33l40 -55q-59 -63 -133 -63z" />
    <glyph glyph-name="tilde" unicode="&#x2dc;" horiz-adv-x="400" 
d="M70 621l-76 54q19 56 56.5 85t83.5 29q36 0 81 -28.5t64 -28.5q39 0 55 63l73 -47q-10 -49 -42.5 -87t-76.5 -38q-42 0 -86 28t-64 28q-46 0 -68 -58z" />
    <glyph glyph-name="hungarumlaut" unicode="&#x2dd;" horiz-adv-x="400" 
d="M26 602l-72 63l156 181l96 -77zM266 602l-72 63l156 181l96 -77z" />
    <glyph glyph-name="gravecomb" unicode="&#x300;" 
d="M-108 617l-217 132l83 98l186 -160z" />
    <glyph glyph-name="acutecomb" unicode="&#x301;" 
d="M-263 617l-52 70l186 160l83 -98z" />
    <glyph glyph-name="uni0302" unicode="&#x302;" 
d="M-323 616l-56 57l138 134h82l138 -134l-56 -57l-123 91z" />
    <glyph glyph-name="tildecomb" unicode="&#x303;" 
d="M-330 621l-76 54q19 56 56.5 85t83.5 29q36 0 81 -28.5t64 -28.5q39 0 55 63l73 -47q-10 -49 -42.5 -87t-76.5 -38q-42 0 -86 28t-64 28q-46 0 -68 -58z" />
    <glyph glyph-name="uni0304" unicode="&#x304;" 
d="M-395 649v101h390v-101h-390z" />
    <glyph glyph-name="uni0306" unicode="&#x306;" 
d="M-201 613q-79 0 -127.5 45t-51.5 118h101q5 -32 26.5 -50t52.5 -18t52.5 18t26.5 50h101q-3 -73 -52.5 -118t-128.5 -45z" />
    <glyph glyph-name="uni0307" unicode="&#x307;" 
d="M-200 637q-37 0 -63 26t-26 64t25.5 63.5t63.5 25.5q37 0 63 -25.5t26 -63.5q0 -37 -26.5 -63.5t-62.5 -26.5z" />
    <glyph glyph-name="uni0308" unicode="&#x308;" 
d="M-313 634q-32 0 -55.5 23.5t-23.5 55.5t23.5 55.5t55.5 23.5t55.5 -23.5t23.5 -55.5t-23.5 -55.5t-55.5 -23.5zM-87 634q-32 0 -55.5 23.5t-23.5 55.5t23.5 55.5t55.5 23.5t55.5 -23.5t23.5 -55.5t-23.5 -55.5t-55.5 -23.5z" />
    <glyph glyph-name="uni030A" unicode="&#x30a;" 
d="M-201 610q-54 0 -90.5 27t-36.5 80q0 51 36 79.5t93 28.5q54 0 90.5 -28t36.5 -79q0 -52 -35.5 -80t-93.5 -28zM-199 673q19 0 31 12.5t12 32.5q0 22 -13 33.5t-32 11.5t-31 -12t-12 -33t13 -33t32 -12z" />
    <glyph glyph-name="uni030B" unicode="&#x30b;" 
d="M-374 602l-72 63l156 181l96 -77zM-134 602l-72 63l156 181l96 -77z" />
    <glyph glyph-name="uni030C" unicode="&#x30c;" 
d="M-241 630l-138 134l56 57l123 -91l123 91l56 -57l-138 -134h-82z" />
    <glyph glyph-name="uni0315" unicode="&#x315;" 
d="M-216 539l-67 43q52 44 52 82q0 9 -10 17.5t-19.5 22t-9.5 34.5q0 28 20.5 45t51.5 17q38 0 60 -23.5t22 -61.5q0 -42 -27 -88.5t-73 -87.5z" />
    <glyph glyph-name="uni0326" unicode="&#x326;" 
d="M-218 -338l-68 46q57 43 57 77q0 10 -10.5 20t-20.5 25t-10 39q0 28 21 47.5t51 19.5q40 0 63.5 -27.5t23.5 -66.5q0 -46 -27 -94t-80 -86z" />
    <glyph glyph-name="uni0327" unicode="&#x327;" 
d="M-203 -227q-71 0 -122 33l26 62q35 -23 67 -23q19 0 30 10t11 26q0 39 -70 59l28 62h73l-13 -28q46 -11 72.5 -37t26.5 -64q0 -42 -34.5 -71t-94.5 -29z" />
    <glyph glyph-name="uni0328" unicode="&#x328;" 
d="M-195 -217q-62 0 -96 25.5t-34 74.5q0 35 23 70.5t56 51.5h103q-30 -17 -46.5 -43.5t-16.5 -52.5q0 -41 39 -41q29 0 65 33l40 -55q-59 -63 -133 -63z" />
    <glyph glyph-name="uni0394" unicode="&#x394;" horiz-adv-x="736" 
d="M436 788l280 -788h-696l283 788h133zM351 636l-182 -531h356z" />
    <glyph glyph-name="uni03A9" unicode="&#x3a9;" horiz-adv-x="747" 
d="M721 411q0 -94 -43 -175.5t-114 -137.5h156v-98h-296v88q57 51 92 138t35 187q0 291 -176 291q-84 0 -131 -75.5t-47 -206.5q0 -110 32.5 -197t92.5 -138v-87h-296v98h156q-69 55 -111.5 142t-42.5 182q0 159 99 268.5t250 109.5t247.5 -104.5t96.5 -284.5z" />
    <glyph glyph-name="uni03BC" unicode="&#x3bc;" horiz-adv-x="661" 
d="M621 113l32 -46q-18 -36 -52 -57.5t-76 -21.5q-36 0 -63.5 24t-34.5 65q-17 -41 -48 -65t-70 -24q-57 0 -81 37v-237h-145v645q0 27 -21 35l-11 4q-18 6 -27 12l3 68h209v-351q0 -100 68 -100q49 0 79 40t30 108v184q0 27 -21 35l-11 4q-22 7 -29 12l3 68h211v-425
q0 -30 20 -30q19 0 35 16z" />
    <glyph glyph-name="pi" unicode="&#x3c0;" horiz-adv-x="689" 
d="M516 -12q-58 0 -86 29t-28 98v344h-152v-459h-153v459h-82v93h622v-93h-82v-331q0 -34 21 -34q23 0 43 18l36 -46q-16 -33 -54.5 -55.5t-84.5 -22.5z" />
    <glyph glyph-name="Wgrave" unicode="&#x1e80;" horiz-adv-x="973" 
d="M637 919l-43 -79l-241 93l63 111zM955 788l7 -68q-7 -6 -29 -13l-12 -4q-19 -6 -29 -21.5t-18 -52.5l-145 -629h-139l-110 478l-117 -478h-139l-144 660q-7 32 -26 38l-15 5q-20 7 -31 16l5 69h309l8 -70q-7 -7 -27 -13l-15 -4q-24 -7 -31.5 -23t0.5 -57l74 -384l121 551
h127l112 -550l85 385q8 41 0.5 56t-33.5 23l-17 5q-24 8 -36 16l3 65h262z" />
    <glyph glyph-name="wgrave" unicode="&#x1e81;" horiz-adv-x="882" 
d="M530 617l-217 132l83 98l186 -160zM221 0l-136 433q-8 27 -34 35l-15 5q-21 7 -31 12l3 67h294l3 -66q-7 -4 -27 -11l-17 -5q-26 -8 -18 -38l67 -240l96 360h119l99 -360l65 244q4 16 0.5 22.5t-16.5 11.5l-11 4q-19 6 -30 11l3 67h240l3 -67q-10 -5 -28 -11l-14 -5
q-33 -12 -43 -41l-133 -428h-124l-95 311l-95 -311h-125z" />
    <glyph glyph-name="Wacute" unicode="&#x1e82;" horiz-adv-x="973" 
d="M673 933l-241 -93l-43 79l221 125zM955 788l7 -68q-7 -6 -29 -13l-12 -4q-19 -6 -29 -21.5t-18 -52.5l-145 -629h-139l-110 478l-117 -478h-139l-144 660q-7 32 -26 38l-15 5q-20 7 -31 16l5 69h309l8 -70q-7 -7 -27 -13l-15 -4q-24 -7 -31.5 -23t0.5 -57l74 -384
l121 551h127l112 -550l85 385q8 41 0.5 56t-33.5 23l-17 5q-24 8 -36 16l3 65h262z" />
    <glyph glyph-name="wacute" unicode="&#x1e83;" horiz-adv-x="882" 
d="M418 617l-52 70l186 160l83 -98zM221 0l-136 433q-8 27 -34 35l-15 5q-21 7 -31 12l3 67h294l3 -66q-7 -4 -27 -11l-17 -5q-26 -8 -18 -38l67 -240l96 360h119l99 -360l65 244q4 16 0.5 22.5t-16.5 11.5l-11 4q-19 6 -30 11l3 67h240l3 -67q-10 -5 -28 -11l-14 -5
q-33 -12 -43 -41l-133 -428h-124l-95 311l-95 -311h-125z" />
    <glyph glyph-name="Wdieresis" unicode="&#x1e84;" horiz-adv-x="973" 
d="M404 851q-35 0 -57.5 21.5t-22.5 55.5t22.5 55.5t57.5 21.5t57 -21.5t22 -55.5t-22 -55.5t-57 -21.5zM631 851q-35 0 -57.5 21.5t-22.5 55.5t22.5 55.5t57.5 21.5t57 -21.5t22 -55.5t-22 -55.5t-57 -21.5zM955 788l7 -68q-7 -6 -29 -13l-12 -4q-19 -6 -29 -21.5
t-18 -52.5l-145 -629h-139l-110 478l-117 -478h-139l-144 660q-7 32 -26 38l-15 5q-20 7 -31 16l5 69h309l8 -70q-7 -7 -27 -13l-15 -4q-24 -7 -31.5 -23t0.5 -57l74 -384l121 551h127l112 -550l85 385q8 41 0.5 56t-33.5 23l-17 5q-24 8 -36 16l3 65h262z" />
    <glyph glyph-name="wdieresis" unicode="&#x1e85;" horiz-adv-x="882" 
d="M355 634q-32 0 -55.5 23.5t-23.5 55.5t23.5 55.5t55.5 23.5t55.5 -23.5t23.5 -55.5t-23.5 -55.5t-55.5 -23.5zM581 634q-32 0 -55.5 23.5t-23.5 55.5t23.5 55.5t55.5 23.5t55.5 -23.5t23.5 -55.5t-23.5 -55.5t-55.5 -23.5zM221 0l-136 433q-8 27 -34 35l-15 5
q-21 7 -31 12l3 67h294l3 -66q-7 -4 -27 -11l-17 -5q-26 -8 -18 -38l67 -240l96 360h119l99 -360l65 244q4 16 0.5 22.5t-16.5 11.5l-11 4q-19 6 -30 11l3 67h240l3 -67q-10 -5 -28 -11l-14 -5q-33 -12 -43 -41l-133 -428h-124l-95 311l-95 -311h-125z" />
    <glyph glyph-name="uni1E9E" unicode="&#x1e9e;" horiz-adv-x="754" 
d="M556 -12q-79 0 -118 55q-4 7 -8.5 5t-5.5 -12l-3 -36h-86v218h97l3 -37q4 -46 24 -69t53 -23q26 0 45.5 21.5t19.5 51.5q0 39 -25 62.5t-89 59.5q-48 27 -75 56.5t-27 80.5q0 28 13.5 50t32.5 37t37.5 29.5t32 34.5t13.5 45q0 36 -27 60t-66 24q-125 0 -125 -165v-536
h-234l-6 70q8 8 27 14l19 6q20 6 26.5 17.5t6.5 39.5v380q0 132 74.5 202.5t214.5 70.5q110 0 184 -53.5t74 -126.5q0 -39 -21.5 -69t-47 -44.5t-47 -32.5t-21.5 -36q0 -16 15 -28t68 -42q27 -15 47 -30t42 -38t34 -53.5t12 -67.5q0 -78 -54 -134.5t-129 -56.5z" />
    <glyph glyph-name="Ygrave" unicode="&#x1ef2;" horiz-adv-x="674" 
d="M478 919l-43 -79l-241 93l63 111zM669 788l7 -68q-7 -6 -29 -13l-15 -5q-19 -6 -33.5 -22.5t-33.5 -56.5l-139 -295v-162q0 -43 5 -56t27 -20l15 -5q20 -7 31 -16l-5 -69h-306l-6 70q9 9 27 14l19 6q23 7 28 20.5t5 56.5v149l-152 306q-20 42 -31 56t-27 20l-15 5
q-24 9 -33 16l5 69h305l8 -70q-7 -7 -27 -13l-13 -4q-39 -12 -13 -67l97 -197l92 198q28 58 -3 67l-17 5q-23 7 -33 15l4 66h256z" />
    <glyph glyph-name="ygrave" unicode="&#x1ef3;" horiz-adv-x="616" 
d="M445 687l-52 -70l-217 132l83 98zM609 552l3 -67q-12 -6 -30 -12l-15 -5q-30 -10 -45 -49l-139 -369q-60 -159 -109.5 -216.5t-121.5 -57.5q-63 0 -102 36.5t-39 99.5v4q0 46 37 46h98l4 -32q7 -49 36 -49q34 0 73 104l-168 435q-16 40 -40 48l-15 5q-21 7 -31 12l3 67
h295l3 -66q-11 -5 -29 -11l-17 -5q-26 -8 -15 -40l86 -254l85 253q10 32 -16 41l-11 4q-19 6 -30 11l3 67h247z" />
    <glyph glyph-name="uni2002" unicode="&#x2002;" horiz-adv-x="660" 
 />
    <glyph glyph-name="uni2003" unicode="&#x2003;" horiz-adv-x="960" 
 />
    <glyph glyph-name="uni2009" unicode="&#x2009;" horiz-adv-x="192" 
 />
    <glyph glyph-name="uni200A" unicode="&#x200a;" horiz-adv-x="60" 
 />
    <glyph glyph-name="endash" unicode="&#x2013;" horiz-adv-x="660" 
d="M40 253v100h580v-100h-580z" />
    <glyph glyph-name="emdash" unicode="&#x2014;" horiz-adv-x="960" 
d="M40 253v100h880v-100h-880z" />
    <glyph glyph-name="quoteleft" unicode="&#x2018;" horiz-adv-x="259" 
d="M134 442q-42 0 -68 30.5t-26 89.5q0 100 126 239l60 -44q-72 -95 -72 -126q0 -15 31.5 -50t31.5 -62q0 -33 -23 -55t-60 -22z" />
    <glyph glyph-name="quoteright" unicode="&#x2019;" horiz-adv-x="259" 
d="M93 441l-60 44q72 95 72 126q0 15 -31.5 50t-31.5 62q0 33 23 55t60 22q42 0 68 -30.5t26 -89.5q0 -100 -126 -239z" />
    <glyph glyph-name="quotesinglbase" unicode="&#x201a;" horiz-adv-x="259" 
d="M94 -183l-60 44q72 95 72 126q0 15 -31.5 50t-31.5 62q0 33 23 55t60 22q42 0 68 -30.5t26 -89.5q0 -100 -126 -239z" />
    <glyph glyph-name="quotedblleft" unicode="&#x201c;" horiz-adv-x="457" 
d="M119 441q-42 0 -68 30.5t-26 89.5q0 101 127 239l59 -44q-72 -98 -72 -126q0 -15 31.5 -50t31.5 -62q0 -33 -23 -55t-60 -22zM347 441q-42 0 -68 30.5t-26 89.5q0 102 126 239l60 -44q-72 -95 -72 -126q0 -15 31.5 -50t31.5 -62q0 -33 -23.5 -55t-59.5 -22z" />
    <glyph glyph-name="quotedblright" unicode="&#x201d;" horiz-adv-x="457" 
d="M78 441l-60 44q72 95 72 126q0 15 -31.5 50t-31.5 62q0 33 23.5 55t59.5 22q42 0 68 -30.5t26 -89.5q0 -102 -126 -239zM305 441l-59 44q72 98 72 126q0 15 -31.5 50t-31.5 62q0 33 23 55t60 22q42 0 68 -30.5t26 -89.5q0 -101 -127 -239z" />
    <glyph glyph-name="quotedblbase" unicode="&#x201e;" horiz-adv-x="457" 
d="M78 -183l-60 44q72 95 72 126q0 15 -31.5 50t-31.5 62q0 33 23 55t60 22q42 0 68 -30.5t26 -89.5q0 -100 -126 -239zM306 -183l-60 44q72 95 72 126q0 15 -31.5 50t-31.5 62q0 33 23 55t60 22q42 0 68 -30.5t26 -89.5q0 -100 -126 -239z" />
    <glyph glyph-name="dagger" unicode="&#x2020;" horiz-adv-x="571" 
d="M240 87l-14 249l12 100l-188 -10v110l188 -9l-11 103l8 93h98l7 -93l-10 -103l191 9v-110l-191 11l11 -102l-14 -248h-87z" />
    <glyph glyph-name="daggerdbl" unicode="&#x2021;" horiz-adv-x="575" 
d="M235 -2l-10 103l11 91l-186 -12v110l187 -13l-10 83l9 84l-186 -13v110l187 -12l-12 91l11 103h98l11 -103l-11 -90l191 11v-110l-191 13l9 -84l-9 -83l191 13v-110l-191 12l11 -91l-11 -103h-99z" />
    <glyph glyph-name="bullet" unicode="&#x2022;" horiz-adv-x="600" 
d="M300 95q-88 0 -151.5 63.5t-63.5 151.5t63.5 151.5t151.5 63.5t151.5 -63.5t63.5 -151.5t-63.5 -151.5t-151.5 -63.5z" />
    <glyph glyph-name="ellipsis" unicode="&#x2026;" horiz-adv-x="813" 
d="M134 -10q-39 0 -66.5 27t-27.5 66q0 38 27.5 65t66.5 27q38 0 65 -27t27 -65q0 -39 -27 -66t-65 -27zM405 -10q-39 0 -66.5 27t-27.5 66q0 38 27.5 65t66.5 27q38 0 65 -27t27 -65q0 -39 -27 -66t-65 -27zM676 -10q-39 0 -66.5 27t-27.5 66q0 38 27.5 65t66.5 27
q38 0 65 -27t27 -65q0 -39 -27 -66t-65 -27z" />
    <glyph glyph-name="perthousand" unicode="&#x2030;" horiz-adv-x="1261" 
d="M179 -18l-71 41l528 782l75 -44zM220 420q-82 0 -129 46q-56 55 -56 144q0 93 53 144q49 46 135 46q87 0 130 -43q57 -51 57 -145q0 -91 -56 -145q-47 -47 -134 -47zM222 483q22 0 43 19q29 29 29 109q0 85 -27 111q-19 18 -46 18q-21 0 -42 -19q-14 -14 -21.5 -46.5
t-7.5 -62.5q0 -84 27 -111q18 -18 45 -18zM606 -12q-83 0 -129 46q-56 56 -56 144q0 93 53 144q49 46 135 46q82 0 130 -43q57 -51 57 -145q0 -91 -56 -145q-48 -47 -134 -47zM1035 -12q-83 0 -129 46q-56 56 -56 144q0 93 53 144q49 46 135 46q82 0 130 -43q57 -51 57 -145
q0 -91 -56 -145q-48 -47 -134 -47zM608 51q22 0 43 19q29 28 29 109q0 85 -27 111q-19 18 -46 18q-22 0 -41 -19q-29 -29 -29 -109q0 -82 27 -111q17 -18 44 -18zM1037 51q22 0 43 19q29 28 29 109q0 85 -27 111q-19 18 -46 18q-22 0 -41 -19q-29 -29 -29 -109
q0 -82 27 -111q17 -18 44 -18z" />
    <glyph glyph-name="guilsinglleft" unicode="&#x2039;" horiz-adv-x="312" 
d="M172 90l-118 205q-8 14 0 29l120 205l63 -31l-85 -184l85 -191z" />
    <glyph glyph-name="guilsinglright" unicode="&#x203a;" horiz-adv-x="312" 
d="M140 90l-65 33l85 191l-85 184l63 31l120 -205q8 -15 0 -29z" />
    <glyph glyph-name="fraction" unicode="&#x2044;" horiz-adv-x="458" 
d="M14 -21l-79 59l509 783l79 -55z" />
    <glyph glyph-name="Euro" unicode="&#x20ac;" horiz-adv-x="712" 
d="M613 239l81 -34q-74 -217 -261 -217q-123 0 -199 67t-102 197h-92v88h81q-1 16 -1 49q0 29 1 43h-81v88h91q25 136 100.5 208t191.5 72q86 0 139 -40q9 -6 12 6l6 28h93v-240h-95l-5 30q-20 118 -118 118q-60 0 -99.5 -47t-55.5 -135h195v-88h-204q-1 -11 -1 -34
q0 -22 2 -58h203v-88h-192q34 -163 149 -163q100 0 161 150z" />
    <glyph glyph-name="uni2113" unicode="&#x2113;" horiz-adv-x="336" 
d="M20 0l-3 67q10 5 31 12l15 5q19 7 25 16t6 31v526q0 24 -6.5 32.5t-25.5 14.5l-15 5q-24 8 -29 12l3 67h226v-657q0 -21 6.5 -31t24.5 -16l15 -5q21 -7 31 -12l-3 -67h-301z" />
    <glyph glyph-name="uni2116" unicode="&#x2116;" horiz-adv-x="1216" 
d="M996 423q-81 0 -132.5 51.5t-51.5 137.5q0 85 52.5 136.5t133.5 51.5q82 0 132.5 -51t50.5 -137q0 -85 -52.5 -137t-132.5 -52zM44 0l-6 70q9 9 27 14l19 6q23 7 28 20.5t5 56.5v455q0 44 -5 56t-29 20l-20 7q-15 5 -24 14l5 69h224l292 -512v346q0 43 -5 56t-27 20
l-15 5q-20 7 -31 16l5 69h254l6 -70q-9 -9 -27 -14l-19 -6q-23 -7 -28 -20.5t-5 -56.5v-621h-126l-317 553v-387q0 -43 5 -56t27 -20l15 -5q20 -7 31 -16l-5 -69h-254zM997 485q74 0 74 127q0 61 -19 93.5t-54 32.5q-75 0 -75 -126q0 -127 74 -127zM816 303v65h361v-65h-361
z" />
    <glyph glyph-name="trademark" unicode="&#x2122;" horiz-adv-x="1021" 
d="M145 429l-3 39q3 2 16 7l9 3q10 3 13 9t3 25v214q0 7 -8 7h-65q-15 0 -18 -12l-5 -26q-3 -17 -12 -35h-50v128h411v-129h-50q-9 22 -11 33l-6 29q-3 12 -18 12h-64q-8 0 -8 -7v-215q0 -29 13 -33l9 -3q15 -5 19 -8l-3 -38h-172zM490 429l-3 43q7 4 17 7l10 3q11 3 14 9
t3 24v182q0 33 -17 39l-10 3q-9 3 -17 7l3 42h153l97 -188l97 188h151l3 -42q-5 -3 -16 -6l-12 -3q-10 -2 -13.5 -9t-3.5 -25v-188q0 -18 3.5 -24t13.5 -9l9 -3q14 -5 19 -8l-3 -42h-179l-4 43q7 4 18 7l10 3q10 3 13.5 9t3.5 24v171l-89 -174h-74l-88 169v-166
q0 -17 3.5 -23t13.5 -10l8 -3q12 -5 19 -8l-2 -42h-151z" />
    <glyph glyph-name="uni2126" unicode="&#x2126;" horiz-adv-x="747" 
d="M721 411q0 -94 -43 -175.5t-114 -137.5h156v-98h-296v88q57 51 92 138t35 187q0 291 -176 291q-84 0 -131 -75.5t-47 -206.5q0 -110 32.5 -197t92.5 -138v-87h-296v98h156q-69 55 -111.5 142t-42.5 182q0 159 99 268.5t250 109.5t247.5 -104.5t96.5 -284.5z" />
    <glyph glyph-name="estimated" unicode="&#x212e;" horiz-adv-x="960" 
d="M480 -16q-159 0 -271.5 103t-112.5 249t112.5 249t271.5 103t271.5 -103t112.5 -249q0 -11 -1 -16h-623v-196q44 -51 106.5 -79.5t133.5 -28.5q147 0 243 112h66q-54 -67 -135 -105.5t-174 -38.5zM240 352h480v196q-97 108 -240 108q-145 0 -240 -108v-196z" />
    <glyph glyph-name="arrowleft" unicode="&#x2190;" horiz-adv-x="958" 
d="M353 47l-321 321l321 321l80 -77l-192 -187h687v-114h-687l192 -187z" />
    <glyph glyph-name="arrowup" unicode="&#x2191;" horiz-adv-x="722" 
d="M304 -60v687l-187 -192l-77 80l321 321l321 -321l-77 -80l-187 192v-687h-114z" />
    <glyph glyph-name="arrowright" unicode="&#x2192;" horiz-adv-x="961" 
d="M30 321v114h687l-192 187l80 77l321 -321l-321 -321l-80 77l192 187h-687z" />
    <glyph glyph-name="arrowdown" unicode="&#x2193;" horiz-adv-x="722" 
d="M361 -60l-321 321l77 80l187 -192v687h114v-687l187 192l77 -80z" />
    <glyph glyph-name="partialdiff" unicode="&#x2202;" horiz-adv-x="621" 
d="M291 -12q-119 0 -191 73t-72 187q0 141 84.5 228.5t202.5 87.5q68 0 118 -42q-14 75 -66 141.5t-128 112.5l49 69q151 -75 228 -204t77 -284q0 -58 -11 -111t-35 -100.5t-59 -82t-85.5 -55t-111.5 -20.5zM292 78q36 0 64 23t43.5 60.5t23 79t7.5 83.5q0 71 -25.5 110
t-69.5 39q-48 0 -82 -40t-48 -91.5t-14 -105.5q0 -158 101 -158z" />
    <glyph glyph-name="uni2206" unicode="&#x2206;" horiz-adv-x="736" 
d="M436 788l280 -788h-696l283 788h133zM351 636l-182 -531h356z" />
    <glyph glyph-name="product" unicode="&#x220f;" horiz-adv-x="772" 
d="M43 -111l-6 70q9 9 27 14l19 6q23 7 28 20.5t5 56.5v632h-96v100h732v-100h-96v-633q0 -43 5 -56t27 -20l15 -5q20 -7 31 -16l-5 -69h-306l-6 70q9 9 27 14l19 6q23 7 28 20.5t5 56.5v632h-220v-633q0 -43 5 -56t27 -20l15 -5q20 -7 31 -16l-5 -69h-306z" />
    <glyph glyph-name="summation" unicode="&#x2211;" horiz-adv-x="615" 
d="M46 -111v103l243 351l-233 334v111h518v-219h-66q-6 9 -22 56l-15 45q-5 13 -12 18t-23 5h-218l224 -324l-255 -354h261q17 0 23 3t10 16l16 49q14 41 22 56h66v-250h-539z" />
    <glyph glyph-name="minus" unicode="&#x2212;" horiz-adv-x="605" 
d="M31 270v101h543v-101h-543z" />
    <glyph glyph-name="radical" unicode="&#x221a;" horiz-adv-x="629" 
d="M549 826l90 -23l-276 -803h-132l-128 423q-7 23 -15 31.5t-23 13.5l-16 5q-18 6 -30 12l3 67h195l107 -383z" />
    <glyph glyph-name="infinity" unicode="&#x221e;" horiz-adv-x="793" 
d="M593 161q-102 0 -194 98q-102 -90 -201 -90q-72 0 -122.5 45t-50.5 122q0 70 53 119.5t124 49.5q101 0 196 -95q89 87 199 87q75 0 123 -47t48 -123q0 -68 -49.5 -117t-125.5 -49zM198 268q71 0 133 75q-65 69 -125 69q-37 0 -58.5 -19.5t-21.5 -52.5t20.5 -52.5
t51.5 -19.5zM592 250q33 0 54 21.5t21 58.5q0 30 -20.5 48.5t-53.5 18.5q-61 0 -124 -73q25 -30 59 -52t64 -22z" />
    <glyph glyph-name="integral" unicode="&#x222b;" horiz-adv-x="600" 
d="M78 -224q-68 0 -112.5 37t-44.5 105v5q0 20 7 27t25 7h97v-42q0 -58 37 -58q23 0 32 25t9 98v603q0 107 57 162t149 55q80 0 126.5 -36.5t46.5 -105.5v-5q0 -20 -6 -26q-8 -8 -30 -8h-93v44q0 56 -42 56q-50 0 -50 -107v-596q0 -125 -57 -182.5t-151 -57.5z" />
    <glyph glyph-name="approxequal" unicode="&#x2248;" horiz-adv-x="605" 
d="M414 358q-43 0 -81 18.5t-70.5 37t-62.5 18.5q-32 0 -67 -20t-52 -51l-71 63q27 48 78.5 80t110.5 32q53 0 115 -37t107 -37q65 0 113 68l62 -61q-26 -46 -74.5 -78.5t-107.5 -32.5zM414 125q-43 0 -81 18.5t-70.5 37t-62.5 18.5q-32 0 -67 -20t-52 -51l-71 63
q27 48 78.5 80t110.5 32q53 0 115 -37t107 -37q65 0 113 68l62 -61q-26 -46 -74.5 -78.5t-107.5 -32.5z" />
    <glyph glyph-name="notequal" unicode="&#x2260;" horiz-adv-x="605" 
d="M574 393h-176l-88 -142h264v-101h-327l-97 -155l-75 49l66 106h-110v101h173l89 142h-262v101h325l95 152l75 -48l-65 -104h113v-101z" />
    <glyph glyph-name="lessequal" unicode="&#x2264;" horiz-adv-x="605" 
d="M558 263l-36 -91l-472 193v121l469 196l38 -91l-406 -165zM31 101h543v-101h-543v101z" />
    <glyph glyph-name="greaterequal" unicode="&#x2265;" horiz-adv-x="605" 
d="M86 172l-36 91l407 163l-406 165l38 91l469 -196v-121zM31 101h543v-101h-543v101z" />
    <glyph glyph-name="dotmath" unicode="&#x22c5;" horiz-adv-x="498" 
d="M250 215q-42 0 -71 28.5t-29 70.5q0 41 29 69.5t71 28.5q41 0 69.5 -28.5t28.5 -69.5q0 -42 -28.5 -70.5t-69.5 -28.5z" />
    <glyph glyph-name="lozenge" unicode="&#x25ca;" horiz-adv-x="641" 
d="M288 -21l-278 406l283 403h66l272 -403l-282 -406h-61zM324 116l184 262l-189 279l-185 -261z" />
    <glyph glyph-name="uniF8FF" unicode="&#xf8ff;" horiz-adv-x="934" 
d="M218 -42q-15 0 -26 9.5t-11 25.5q0 7 5 22l84 257l-219 159q-23 16 -23 37q0 17 11.5 26.5t29.5 9.5h276l84 259q12 33 38 33t38 -33l84 -259h276q18 0 29.5 -9.5t11.5 -26.5q0 -21 -23 -37l-219 -159l84 -257q5 -15 5 -22q0 -16 -11 -25.5t-26 -9.5q-14 0 -31 12
l-218 159l-218 -159q-17 -12 -31 -12zM223 0l244 178l244 -178l-93 287v1l242 176h-300l-93 287l-93 -287h-300l242 -176v-1z" />
    <glyph glyph-name="uni00A40301" horiz-adv-x="533" 
d="M265 840l-43 79l221 125l63 -111zM225 -12q-86 0 -138.5 42.5t-52.5 111.5q0 61 48 61h112v-66q0 -35 8.5 -49.5t29.5 -14.5t29.5 15t8.5 53v481q0 43 -5 55t-29 21l-16 6q-17 6 -28 15l5 69h306l6 -70q-10 -8 -24 -13l-22 -7q-23 -7 -28 -20.5t-5 -56.5v-404
q0 -111 -53 -170t-152 -59z" />
    <glyph glyph-name="Cacute.loclPLK" horiz-adv-x="636" 
d="M366 845l-81 51l121 193l108 -74zM351 -12q-153 0 -233 102.5t-80 298.5t80 303.5t223 107.5q86 0 139 -40q9 -6 12 6l6 28h93v-240h-95l-5 30q-20 118 -118 118q-79 0 -122 -79.5t-43 -224.5q0 -151 41.5 -230t120.5 -79q100 0 161 150l81 -34q-74 -217 -261 -217z" />
    <glyph glyph-name="Nacute.loclPLK" horiz-adv-x="777" 
d="M403 845l-81 51l121 193l108 -74zM44 0l-6 70q9 9 27 14l19 6q23 7 28 20.5t5 56.5v455q0 44 -5 56t-29 20l-20 7q-15 5 -24 14l5 69h224l292 -512v346q0 43 -5 56t-27 20l-15 5q-20 7 -31 16l5 69h254l6 -70q-9 -9 -27 -14l-19 -6q-23 -7 -28 -20.5t-5 -56.5v-621h-126
l-317 553v-387q0 -43 5 -56t27 -20l15 -5q20 -7 31 -16l-5 -69h-254z" />
    <glyph glyph-name="Oacute.loclPLK" horiz-adv-x="707" 
d="M368 845l-81 51l121 193l108 -74zM351 -12q-154 0 -233.5 102t-79.5 299t82.5 304t234.5 107q150 0 232 -105.5t82 -300.5q0 -196 -82 -301t-236 -105zM353 87q69 0 107.5 81t38.5 227t-38 226t-107 80q-68 0 -107 -81t-39 -222q0 -148 38.5 -229.5t106.5 -81.5z" />
    <glyph glyph-name="Sacute.loclPLK" horiz-adv-x="607" 
d="M318 845l-81 51l121 193l108 -74zM315 -12q-98 0 -160 55q-16 15 -18 -7l-4 -36h-90v275h97l2 -32q5 -71 47.5 -114t108.5 -43q49 0 82.5 29.5t33.5 73.5q0 63 -91 117l-127 77q-139 83 -139 215q0 91 64.5 146.5t168.5 55.5q81 0 131 -44q13 -13 16 6l6 31h90v-226h-97
l-4 41q-4 47 -36.5 72t-85.5 25q-43 0 -69.5 -22.5t-26.5 -60.5q0 -53 88 -108l133 -83q136 -85 136 -203q0 -106 -71.5 -173t-184.5 -67z" />
    <glyph glyph-name="Zacute.loclPLK" horiz-adv-x="604" 
d="M468 1015l-148 -170l-81 51l121 193zM513 219h66v-219h-554v68l355 625h-195q-17 0 -23 -3t-10 -16l-17 -49q-16 -47 -22 -56h-66v219h522v-68l-357 -625h230q17 0 23 3t10 16l16 49q14 41 22 56z" />
    <glyph glyph-name="i.loclTRK" horiz-adv-x="333" 
d="M174 617q-41 0 -68.5 26.5t-27.5 65.5t27.5 65t68.5 26q40 0 67 -26t27 -65t-27 -65.5t-67 -26.5zM25 0l-3 67q10 5 31 12l15 5q19 7 25 16t6 31v290q0 24 -6.5 32.5t-25.5 14.5l-15 5q-22 7 -29 12l3 67h226v-421q0 -21 6.5 -31t24.5 -16l15 -5q21 -7 31 -12l-3 -67
h-301z" />
    <glyph glyph-name="uni006A0301" horiz-adv-x="308" 
d="M123 612l-63 60l149 180l88 -86zM58 -224q-77 0 -122 34.5t-45 95.5v5q0 22 9 35q10 13 29 13h91v-52q0 -50 39 -50q40 0 40 58v506q0 24 -6.5 32.5t-25.5 14.5l-15 5q-22 7 -29 12l3 67h226v-561q0 -107 -47 -161t-147 -54z" />
    <glyph glyph-name="germandbls.calt" horiz-adv-x="754" 
d="M556 -12q-79 0 -118 55q-4 7 -8.5 5t-5.5 -12l-3 -36h-86v218h97l3 -37q4 -46 24 -69t53 -23q26 0 45.5 21.5t19.5 51.5q0 39 -25 62.5t-89 59.5q-48 27 -75 56.5t-27 80.5q0 28 13.5 50t32.5 37t37.5 29.5t32 34.5t13.5 45q0 36 -27 60t-66 24q-125 0 -125 -165v-536
h-234l-6 70q8 8 27 14l19 6q20 6 26.5 17.5t6.5 39.5v380q0 132 74.5 202.5t214.5 70.5q110 0 184 -53.5t74 -126.5q0 -39 -21.5 -69t-47 -44.5t-47 -32.5t-21.5 -36q0 -16 15 -28t68 -42q27 -15 47 -30t42 -38t34 -53.5t12 -67.5q0 -78 -54 -134.5t-129 -56.5z" />
    <glyph glyph-name="cacute.loclPLK" horiz-adv-x="557" 
d="M286 611l-73 53l134 200l104 -81zM296 -12q-120 0 -194 75t-74 215q0 132 72.5 209t185.5 77q68 0 112 -27q11 -6 15 6l4 18h88v-222h-95l-2 16q-8 62 -32.5 90t-68.5 28q-53 0 -84 -45.5t-31 -137.5q0 -96 37 -145.5t101 -49.5q69 0 142 65l56 -62q-100 -110 -232 -110z
" />
    <glyph glyph-name="nacute.loclPLK" horiz-adv-x="677" 
d="M503 783l-165 -172l-73 53l134 200zM626 79q15 -6 27 -12l-3 -67h-210v346q0 54 -17.5 79.5t-57.5 25.5q-56 0 -86.5 -41t-30.5 -113v-166q0 -21 6.5 -31t24.5 -16l15 -5q21 -7 31 -12l-3 -67h-301l-3 67q10 5 31 12l15 5q19 7 25 16t6 31v290q0 24 -6.5 32.5t-25.5 14.5
l-15 5q-22 7 -29 12l3 67h226v-58q64 70 160 70q86 0 135.5 -53t49.5 -145v-235q0 -25 4.5 -34t17.5 -14z" />
    <glyph glyph-name="oacute.loclPLK" horiz-adv-x="610" 
d="M299 611l-73 53l134 200l104 -81zM304 -12q-124 0 -200 78.5t-76 209.5q0 130 78 209t201 79q124 0 199.5 -78.5t75.5 -209.5q0 -130 -78 -209t-200 -79zM306 83q54 0 83 49.5t29 143.5t-29 143.5t-82 49.5q-55 0 -85 -48.5t-30 -144.5q0 -94 29 -143.5t85 -49.5z" />
    <glyph glyph-name="sacute.loclPLK" horiz-adv-x="510" 
d="M242 611l-73 53l134 200l104 -81zM272 -12q-37 0 -72.5 12t-54.5 28q-11 9 -15 -6l-6 -22h-84v203h94l3 -27q5 -44 38 -68.5t85 -24.5q38 0 57.5 15t19.5 37q0 21 -14.5 34.5t-53.5 31.5l-107 48q-113 51 -113 160q0 67 53 111t129 44q73 0 120 -37q10 -8 11 5l3 23h84
v-176h-93l-4 21q-14 71 -102 71q-30 0 -47 -13t-17 -33q0 -19 13 -31.5t46 -27.5l122 -56q107 -49 107 -148q0 -76 -56 -125t-146 -49z" />
    <glyph glyph-name="zacute.loclPLK" horiz-adv-x="555" 
d="M436 783l-165 -172l-73 53l134 200zM447 208h70v-208h-484v82l289 377h-153q-20 0 -27 -21l-28 -94h-70v208h463v-82l-284 -377h169q20 0 27 21z" />
    <glyph glyph-name="uni0308.case" 
d="M-313 851q-35 0 -57.5 21.5t-22.5 55.5t22.5 55.5t57.5 21.5t57 -21.5t22 -55.5t-22 -55.5t-57 -21.5zM-86 851q-35 0 -57.5 21.5t-22.5 55.5t22.5 55.5t57.5 21.5t57 -21.5t22 -55.5t-22 -55.5t-57 -21.5z" />
    <glyph glyph-name="uni0307.case" 
d="M-199 871q-40 0 -65.5 24.5t-25.5 62.5t25.5 62t65.5 24q39 0 64 -24t25 -62q0 -37 -25.5 -62t-63.5 -25z" />
    <glyph glyph-name="gravecomb.case" 
d="M-108 840l-241 93l63 111l221 -125z" />
    <glyph glyph-name="acutecomb.case" 
d="M-296 840l-43 79l221 125l63 -111z" />
    <glyph glyph-name="uni030B.case" 
d="M-358 827l-58 76l183 153l79 -93zM-91 827l-58 76l183 153l79 -93z" />
    <glyph glyph-name="uni0302.case" 
d="M-323 837l-56 63l121 127h116l121 -128l-56 -63l-123 95z" />
    <glyph glyph-name="uni030C.case" 
d="M-258 858l-121 127l56 63l123 -94l123 95l56 -63l-121 -128h-116z" />
    <glyph glyph-name="uni0306.case" 
d="M-200 854q-82 0 -128.5 42t-51.5 112h101q14 -59 79 -59t79 59h101q-5 -70 -52 -112t-128 -42z" />
    <glyph glyph-name="uni030A.case" 
d="M-201 847q-54 0 -90.5 26.5t-36.5 75.5q0 48 36 75.5t93 27.5q54 0 90.5 -26.5t36.5 -75.5q0 -48 -36 -75.5t-93 -27.5zM-199 908q19 0 31 12t12 30q0 20 -13 30.5t-32 10.5t-31 -11t-12 -30t13 -30.5t32 -11.5z" />
    <glyph glyph-name="tildecomb.case" 
d="M-328 847l-78 46q18 51 57 80.5t84 29.5q35 0 80 -25.5t63 -25.5q39 0 54 53l75 -46q-9 -44 -43 -78.5t-79 -34.5q-40 0 -83 25t-63 25q-49 0 -67 -49z" />
    <glyph glyph-name="uni0304.case" 
d="M-395 882v101h390v-101h-390z" />
    <glyph glyph-name="acutecomb.loclPLK" 
d="M-200 611l-73 53l134 200l104 -81z" />
    <glyph glyph-name="acutecomb.case.loclPLK" 
d="M-156 831l-81 51l121 193l108 -74z" />
    <glyph glyph-name="uni0308.narrow" 
d="M-298 634q-34 0 -53 22.5t-19 56.5t19 56.5t53 22.5t53 -22.5t19 -56.5t-19 -56.5t-53 -22.5zM-102 634q-34 0 -53 22.5t-19 56.5t19 56.5t53 22.5t53 -22.5t19 -56.5t-19 -56.5t-53 -22.5z" />
    <glyph glyph-name="gravecomb.narrow" 
d="M-137 612l-174 154l88 86l149 -180z" />
    <glyph glyph-name="acutecomb.narrow" 
d="M-244 612l-63 60l149 180l88 -86z" />
    <glyph glyph-name="uni0302.narrow" 
d="M-297 616l-62 57l118 134h82l118 -134l-61 -57l-98 91z" />
    <glyph glyph-name="uni030C.narrow" 
d="M-241 630l-118 134l62 57l97 -91l98 91l61 -57l-118 -134h-82z" />
    <glyph glyph-name="uni0306.narrow" 
d="M-201 613q-75 0 -115.5 46.5t-43.5 116.5h101q4 -68 59 -68q56 0 60 68h101q-3 -69 -45 -116t-117 -47z" />
    <glyph glyph-name="tildecomb.narrow" 
d="M-312 621l-75 39q9 58 44 92t78 34q31 0 74.5 -25.5t58.5 -25.5q31 0 43 60l77 -32q-9 -55 -39.5 -95t-70.5 -40q-33 0 -76 25t-59 25q-39 0 -55 -57z" />
    <glyph glyph-name="uni0304.narrow" 
d="M-345 649v101h290v-101h-290z" />
    <glyph glyph-name="uni0328.narrow" 
d="M-195 -217q-51 0 -81.5 27.5t-30.5 76.5q0 34 17 66.5t42 51.5h102q-24 -18 -39 -46t-15 -53q0 -36 31 -36q25 0 53 31l34 -58q-46 -60 -113 -60z" />
    <glyph glyph-name="acute.case" horiz-adv-x="400" 
d="M104 840l-43 79l221 125l63 -111z" />
    <glyph glyph-name="breve.case" horiz-adv-x="400" 
d="M200 854q-82 0 -128.5 42t-51.5 112h101q14 -59 79 -59t79 59h101q-5 -70 -52 -112t-128 -42z" />
    <glyph glyph-name="caron.case" horiz-adv-x="400" 
d="M142 858l-121 127l56 63l123 -94l123 95l56 -63l-121 -128h-116z" />
    <glyph glyph-name="circumflex.case" horiz-adv-x="400" 
d="M77 837l-56 63l121 127h116l121 -128l-56 -63l-123 95z" />
    <glyph glyph-name="dieresis.case" horiz-adv-x="400" 
d="M87 851q-35 0 -57.5 21.5t-22.5 55.5t22.5 55.5t57.5 21.5t57 -21.5t22 -55.5t-22 -55.5t-57 -21.5zM314 851q-35 0 -57.5 21.5t-22.5 55.5t22.5 55.5t57.5 21.5t57 -21.5t22 -55.5t-22 -55.5t-57 -21.5z" />
    <glyph glyph-name="dotaccent.case" horiz-adv-x="400" 
d="M201 871q-40 0 -65.5 24.5t-25.5 62.5t25.5 62t65.5 24q39 0 64 -24t25 -62q0 -37 -25.5 -62t-63.5 -25z" />
    <glyph glyph-name="grave.case" horiz-adv-x="400" 
d="M292 840l-241 93l63 111l221 -125z" />
    <glyph glyph-name="hungarumlaut.case" horiz-adv-x="400" 
d="M42 827l-58 76l183 153l79 -93zM309 827l-58 76l183 153l79 -93z" />
    <glyph glyph-name="macron.case" horiz-adv-x="400" 
d="M5 882v101h390v-101h-390z" />
    <glyph glyph-name="ring.case" horiz-adv-x="400" 
d="M199 847q-54 0 -90.5 26.5t-36.5 75.5q0 48 36 75.5t93 27.5q54 0 90.5 -26.5t36.5 -75.5q0 -48 -36 -75.5t-93 -27.5zM201 908q19 0 31 12t12 30q0 20 -13 30.5t-32 10.5t-31 -11t-12 -30t13 -30.5t32 -11.5z" />
    <glyph glyph-name="tilde.case" horiz-adv-x="400" 
d="M72 847l-78 46q18 51 57 80.5t84 29.5q35 0 80 -25.5t63 -25.5q39 0 54 53l75 -46q-9 -44 -43 -78.5t-79 -34.5q-40 0 -83 25t-63 25q-49 0 -67 -49z" />
    </font>
</defs>
</svg>
