<?xml version="1.0" standalone="no"?>
<!DOCTYPE svg PUBLIC "-//W3C//DTD SVG 1.1//EN" "http://www.w3.org/Graphics/SVG/1.1/DTD/svg11.dtd" >
<svg xmlns="http://www.w3.org/2000/svg" xmlns:xlink="http://www.w3.org/1999/xlink" version="1.1">
<metadata>
Created by FontForge 20170731 at Tue Oct  2 14:36:39 2018
 By Aleksey,,,
Copyright (c) 2018 by Fontsmith Ltd. All rights reserved. This font may not be altered in any way without prior permission of Fontsmith Ltd.
</metadata>
<defs>
<font id="HeinekenSerif18-Regular" horiz-adv-x="0" >
  <font-face 
    font-family="Heineken Serif 18"
    font-weight="400"
    font-stretch="normal"
    units-per-em="1000"
    panose-1="2 4 8 6 6 6 2 6 7 3"
    ascent="788"
    descent="-212"
    x-height="552"
    cap-height="788"
    bbox="-426 -325 1213 1071"
    underline-thickness="100"
    underline-position="-300"
    unicode-range="U+000D-FB02"
  />
<missing-glyph horiz-adv-x="702" 
d="M70 0v788h562v-788h-562zM352 445l191 287h-383zM127 107l190 287l-190 287v-574zM577 107v574l-192 -287zM160 57h383l-191 286z" />
    <glyph glyph-name="fi" unicode="fi" horiz-adv-x="724" 
d="M36 0l-3 52q13 7 34 13l15 5q20 7 26.5 17t6.5 33v356h-94v76h94v64q0 94 49.5 139t128.5 45q69 0 112 -36t43 -97v-5q0 -19 -5 -24q-8 -9 -31 -9h-62v36q0 67 -58 67q-67 0 -67 -90v-90h116v-76h-116v-356q0 -23 8.5 -32.5t35.5 -16.5l17 -5q31 -10 41 -14l-3 -52h-288z
M564 627q-34 0 -56.5 21.5t-22.5 54.5q0 32 22.5 53.5t56.5 21.5q33 0 54.5 -21.5t21.5 -53.5q0 -33 -21.5 -54.5t-54.5 -21.5zM438 0l-3 52q12 6 33 12l15 5q18 7 23.5 16.5t5.5 30.5v320q0 24 -6.5 32.5t-25.5 14.5l-15 5q-19 6 -29 12l3 52h183v-436q0 -21 6 -31t23 -16
l15 -5q21 -6 33 -12l-3 -52h-258z" />
    <glyph glyph-name="fl" unicode="fl" horiz-adv-x="761" 
d="M36 0l-3 52q13 7 34 13l15 5q20 7 26.5 17t6.5 33v356h-94v76h94v64q0 94 49.5 139t128.5 45q69 0 112 -36t43 -97v-5q0 -19 -5 -24q-8 -9 -31 -9h-62v36q0 67 -58 67q-67 0 -67 -90v-90h116v-76h-116v-356q0 -23 8.5 -32.5t35.5 -16.5l17 -5q31 -10 41 -14l-3 -52h-288z
M486 0l-3 52q10 5 31 12l15 5q19 7 25 16t6 31v556q0 24 -6.5 32.5t-25.5 14.5l-14 5q-21 6 -30 12l3 52h183v-672q0 -22 6 -31.5t24 -15.5l15 -5q24 -8 32 -12l-3 -52h-258z" />
    <glyph glyph-name=".notdef" horiz-adv-x="702" 
d="M70 0v788h562v-788h-562zM352 445l191 287h-383zM127 107l190 287l-190 287v-574zM577 107v574l-192 -287zM160 57h383l-191 286z" />
    <glyph glyph-name=".null" 
 />
    <glyph glyph-name="nonmarkingreturn" horiz-adv-x="333" 
 />
    <glyph glyph-name="CR" unicode="&#xd;" horiz-adv-x="240" 
 />
    <glyph glyph-name="space" unicode=" " horiz-adv-x="240" 
 />
    <glyph glyph-name="exclam" unicode="!" horiz-adv-x="273" 
d="M97 206l-21 582h121l-22 -582h-78zM136 -10q-33 0 -55.5 21.5t-22.5 54.5t22.5 54.5t55.5 21.5t56 -21.5t23 -54.5t-23 -54.5t-56 -21.5z" />
    <glyph glyph-name="quotedbl" unicode="&#x22;" horiz-adv-x="368" 
d="M64 498l-23 290h113l-23 -290h-67zM238 498l-23 290h112l-22 -290h-67z" />
    <glyph glyph-name="numbersign" unicode="#" horiz-adv-x="610" 
d="M87 0l38 252h-98v62h107l26 170h-97v62h107l35 242h80l-36 -242h149l37 242h79l-37 -242h106v-62h-115l-25 -170h102v-62h-112l-38 -252h-79l39 252h-151l-38 -252h-79zM214 314h149l26 170h-150z" />
    <glyph glyph-name="dollar" unicode="$" horiz-adv-x="578" 
d="M541 212q0 -89 -55.5 -149.5t-145.5 -71.5v-106h-83v106q-69 9 -118 47q-17 13 -20 -9l-4 -29h-71v251h76l2 -36q5 -72 49 -112t118 -40q62 0 100.5 34.5t38.5 91.5q0 42 -25.5 73t-89.5 67l-117 67q-143 79 -143 211q0 80 53.5 132t141.5 60v110h83v-114q49 -11 84 -39
q14 -11 18 6l6 31h71v-208h-76l-5 34q-20 108 -143 108q-54 0 -86.5 -28.5t-32.5 -77.5q0 -37 23.5 -66.5t75.5 -59.5l126 -73q79 -45 114 -95.5t35 -114.5z" />
    <glyph glyph-name="percent" unicode="%" horiz-adv-x="833" 
d="M214 420q-78 0 -123 45q-55 53 -55 145q0 88 51 141q49 49 130 49q73 0 121 -42q57 -49 57 -146q0 -90 -56 -146q-46 -46 -125 -46zM174 -15l-55 33l527 782l57 -34zM216 472q37 0 62 29q32 34 32 110q0 85 -32 114q-25 24 -63 24q-37 0 -62 -27q-33 -36 -33 -110
q0 -81 33 -115q24 -25 63 -25zM616 -12q-78 0 -123 45q-55 53 -55 145q0 88 51 141q49 49 130 49q74 0 121 -42q57 -49 57 -146q0 -92 -56 -146q-46 -46 -125 -46zM618 40q36 0 63 29q31 32 31 110q0 85 -32 114q-25 24 -63 24q-37 0 -61 -27q-33 -34 -33 -110
q0 -79 33 -115q22 -25 62 -25z" />
    <glyph glyph-name="ampersand" unicode="&#x26;" horiz-adv-x="772" 
d="M293 -12q-116 0 -184 63t-68 169q0 151 164 246q-36 49 -52.5 87t-16.5 82q0 74 55 119.5t135 45.5q78 0 124 -42.5t46 -106.5q0 -100 -150 -188l177 -238q21 36 41 85q12 33 7.5 47.5t-24.5 20.5l-17 5q-22 5 -36 15l3 47h224l5 -51q-6 -4 -28 -13l-15 -5
q-13 -5 -23 -20t-28 -57q-27 -68 -65 -131l42 -53q31 -37 57 -45l12 -4q26 -10 33 -14l-3 -52h-152q-34 39 -63 80q-94 -92 -200 -92zM300 527q96 57 96 126q0 33 -19 52t-50 19q-35 0 -55.5 -21.5t-20.5 -56.5q0 -53 49 -119zM313 68q74 0 137 69l-195 263
q-92 -63 -92 -172q0 -73 39.5 -116.5t110.5 -43.5z" />
    <glyph glyph-name="quotesingle" unicode="'" horiz-adv-x="195" 
d="M64 498l-23 290h113l-23 -290h-67z" />
    <glyph glyph-name="parenleft" unicode="(" horiz-adv-x="297" 
d="M199 -217q-64 110 -102 248.5t-38 281.5q0 292 138 528l52 -21q-97 -252 -97 -501q0 -264 99 -517z" />
    <glyph glyph-name="parenright" unicode=")" horiz-adv-x="297" 
d="M98 -217l-52 19q99 253 99 517q0 249 -97 501l52 21q138 -236 138 -528q0 -143 -38 -281.5t-102 -248.5z" />
    <glyph glyph-name="asterisk" unicode="*" horiz-adv-x="602" 
d="M152 364q-19 0 -19 19q0 2 2 10l52 158l-135 98q-11 8 -11 19q0 7 6 12.5t15 5.5h169l51 159q5 15 19 15t19 -15l53 -159h167q9 0 15 -5.5t6 -12.5q0 -11 -11 -19l-134 -98l51 -158q2 -8 2 -10q0 -19 -19 -19q-9 0 -17 7l-132 97l-132 -97q-8 -7 -17 -7z" />
    <glyph glyph-name="plus" unicode="+" horiz-adv-x="578" 
d="M246 66v215h-214v79h214v215h86v-215h214v-79h-214v-215h-86z" />
    <glyph glyph-name="comma" unicode="," horiz-adv-x="254" 
d="M89 -178l-54 41q71 85 71 116q0 16 -29 48t-29 56q0 31 20.5 50.5t52.5 19.5q39 0 61.5 -28t22.5 -81q0 -95 -116 -222z" />
    <glyph glyph-name="hyphen" unicode="-" horiz-adv-x="305" 
d="M40 264v78h225v-78h-225z" />
    <glyph glyph-name="period" unicode="." horiz-adv-x="250" 
d="M123 -10q-34 0 -58 23.5t-24 58.5q0 34 24 57t58 23t57.5 -23t23.5 -57q0 -35 -23.5 -58.5t-57.5 -23.5z" />
    <glyph glyph-name="slash" unicode="/" horiz-adv-x="499" 
d="M73 -126l-75 32l429 958l75 -32z" />
    <glyph glyph-name="zero" unicode="0" horiz-adv-x="630" 
d="M317 -12q-133 0 -205.5 107.5t-72.5 303.5q0 188 75 294.5t204 106.5t201 -109t72 -302q0 -187 -74 -294t-200 -107zM315 64q72 0 112.5 83.5t40.5 247.5q0 165 -39 247t-111 82q-73 0 -115 -84t-42 -247q0 -162 40 -245.5t114 -83.5z" />
    <glyph glyph-name="one" unicode="1" horiz-adv-x="458" 
d="M67 0l-5 53q11 5 53 17l25 6q31 8 41.5 21.5t10.5 50.5v511l-127 -50l-24 62l178 117h85v-641q0 -38 10 -51.5t38 -20.5l24 -6l53 -16l-5 -53h-357z" />
    <glyph glyph-name="two" unicode="2" horiz-adv-x="565" 
d="M463 201h53v-201h-468v80l125 135q106 115 152 204.5t46 180.5q0 124 -93 124q-49 0 -74 -30t-25 -98v-60h-78q-23 0 -35 12t-12 36v10q0 93 63.5 149.5t165.5 56.5q98 0 154 -54.5t56 -148.5q0 -98 -51.5 -189.5t-177.5 -213.5l-99 -97h232q15 0 22 4t11 16l10 26
q12 33 23 58z" />
    <glyph glyph-name="three" unicode="3" horiz-adv-x="565" 
d="M278 -12q-110 0 -174.5 54t-64.5 143v7q0 30 9.5 42t33.5 12h77v-50q0 -132 122 -132q63 0 99.5 38t36.5 109q0 75 -38 112.5t-124 41.5l-44 2v74l43 2q70 2 101.5 39t31.5 117q0 64 -26.5 94.5t-71.5 30.5q-49 0 -78 -34t-29 -98v-50h-79q-22 0 -31.5 10.5t-9.5 36.5v7
q0 90 66.5 147t166.5 57q96 0 153.5 -53.5t57.5 -142.5q0 -69 -35 -119.5t-94 -65.5v-5q159 -33 159 -196q0 -109 -71.5 -169.5t-186.5 -60.5z" />
    <glyph glyph-name="four" unicode="4" horiz-adv-x="609" 
d="M564 188h-77v-80q0 -33 19 -40l15 -4q12 -4 33 -13l-3 -52h-257l-3 52q7 4 33 12l17 5q20 6 27 14.5t7 25.5v80h-338v59l368 541h82v-515h77v-85zM144 273h231v340z" />
    <glyph glyph-name="five" unicode="5" horiz-adv-x="565" 
d="M305 496q97 0 157 -64.5t60 -179.5q0 -124 -69 -194t-180 -70q-102 0 -168 52t-66 138v11q0 24 8.5 33t29.5 9h78v-40q0 -58 31.5 -92.5t90.5 -34.5q62 0 94.5 47t32.5 134q0 82 -38 125t-106 43q-69 0 -130 -36l-49 44l58 367h331v-100h-259l-34 -217q53 25 128 25z" />
    <glyph glyph-name="six" unicode="6" horiz-adv-x="563" 
d="M318 518q96 0 153 -68.5t57 -183.5q0 -125 -66.5 -201.5t-173.5 -76.5q-116 0 -182.5 86t-66.5 274q0 206 74 329t210 123q82 0 127.5 -39t45.5 -106v-7q0 -17 -8 -23t-27 -6h-79l-4 32q-9 73 -71 73q-66 0 -105.5 -78t-44.5 -205q27 36 69 56.5t92 20.5zM286 64
q57 0 90 48.5t33 147.5q0 88 -32.5 135t-84.5 47q-59 0 -95.5 -50.5t-36.5 -131.5q0 -90 34.5 -143t91.5 -53z" />
    <glyph glyph-name="seven" unicode="7" horiz-adv-x="532" 
d="M37 788h484v-68q-233 -297 -233 -637v-83h-123v79q0 296 236 605h-248q-16 0 -21.5 -3.5t-9.5 -16.5l-10 -34q-12 -49 -24 -69h-51v227z" />
    <glyph glyph-name="eight" unicode="8" horiz-adv-x="572" 
d="M366 436q83 -44 128 -94t45 -134q0 -91 -73.5 -155.5t-176.5 -64.5q-108 0 -179 58.5t-71 152.5q0 70 39.5 125.5t113.5 89.5q-60 38 -93 82.5t-33 110.5q0 83 66 138t163 55q92 0 151.5 -45.5t59.5 -128.5q0 -58 -37 -109t-103 -81zM293 729q-48 0 -81 -31t-33 -79
q0 -50 32 -83.5t91 -65.5q97 48 97 150q0 49 -28.5 79t-77.5 30zM290 59q62 0 99 38t37 95q0 33 -12.5 59.5t-42 50.5t-50.5 37.5t-65 37.5q-104 -64 -104 -178q0 -62 38 -101t100 -39z" />
    <glyph glyph-name="nine" unicode="9" horiz-adv-x="566" 
d="M279 800q117 0 182.5 -89t65.5 -267q0 -216 -72.5 -336t-194.5 -120q-91 0 -144 44.5t-53 111.5v4q0 32 24 32h91l2 -23q10 -93 88 -93q62 0 99 76t41 211q-24 -38 -65 -59.5t-89 -21.5q-98 0 -158.5 69.5t-60.5 183.5q0 124 70 200.5t174 76.5zM273 346q58 0 94.5 48.5
t36.5 133.5q0 94 -34 145t-90 51q-54 0 -90 -49.5t-36 -145.5q0 -88 35.5 -135.5t83.5 -47.5z" />
    <glyph glyph-name="colon" unicode=":" horiz-adv-x="250" 
d="M123 402q-34 0 -58 23.5t-24 57.5t24 57.5t58 23.5t57.5 -23.5t23.5 -57.5t-23.5 -57.5t-57.5 -23.5zM123 -10q-34 0 -58 23.5t-24 58.5q0 34 24 57t58 23t57.5 -23t23.5 -57q0 -35 -23.5 -58.5t-57.5 -23.5z" />
    <glyph glyph-name="semicolon" unicode=";" horiz-adv-x="251" 
d="M124 402q-35 0 -59 23.5t-24 57.5t24 57.5t59 23.5q33 0 56.5 -23.5t23.5 -57.5t-23.5 -57.5t-56.5 -23.5zM89 -178l-54 41q71 77 71 116q0 16 -29 48t-29 56q0 31 20.5 50.5t52.5 19.5q39 0 61.5 -28t22.5 -81q0 -95 -116 -222z" />
    <glyph glyph-name="less" unicode="&#x3c;" horiz-adv-x="578" 
d="M539 491l-414 -168l414 -166l-28 -72l-463 188v98l461 193z" />
    <glyph glyph-name="equal" unicode="=" horiz-adv-x="578" 
d="M32 401v79h514v-79h-514zM32 166v78h514v-78h-514z" />
    <glyph glyph-name="greater" unicode="&#x3e;" horiz-adv-x="578" 
d="M69 564l462 -193v-98l-463 -188l-29 72l414 166l-414 168z" />
    <glyph glyph-name="question" unicode="?" horiz-adv-x="493" 
d="M197 206q-10 44 -10 89q0 46 16.5 83.5t40.5 63.5t48 50.5t40.5 56.5t16.5 69q0 50 -24 79t-67 29q-101 0 -101 -131v-51h-85q-21 0 -29 10.5t-8 35.5v5q0 89 60 147t166 58q96 0 151.5 -53t55.5 -130q0 -49 -18.5 -86.5t-45 -62.5t-53.5 -51t-48 -66t-25 -93l-4 -52h-77
zM239 -10q-33 0 -55.5 21.5t-22.5 54.5t22.5 54.5t55.5 21.5t56 -21.5t23 -54.5t-23 -54.5t-56 -21.5z" />
    <glyph glyph-name="at" unicode="@" horiz-adv-x="887" 
d="M496 800q168 0 256.5 -95t88.5 -246q0 -130 -55.5 -213.5t-146.5 -83.5q-43 0 -69.5 24.5t-26.5 69.5q-17 -43 -52.5 -67.5t-75.5 -24.5q-64 0 -103.5 48t-39.5 134q0 101 53.5 168.5t124.5 67.5q73 0 98 -61l10 55h67l-21 -243q-5 -51 4 -77.5t39 -26.5q43 0 73 65
t30 165q0 124 -67.5 199.5t-186.5 75.5q-140 0 -244.5 -121.5t-104.5 -293.5q0 -147 70 -234t184 -87q102 0 172 66l33 -49q-79 -85 -211 -85q-155 0 -249.5 100.5t-94.5 287.5q0 127 58 237.5t161 177.5t226 67zM433 235q38 0 66.5 47t28.5 122q0 53 -17.5 82t-50.5 29
q-42 0 -70.5 -46.5t-28.5 -116.5q0 -56 18.5 -86.5t53.5 -30.5z" />
    <glyph glyph-name="A" unicode="A" horiz-adv-x="727" 
d="M14 0l-4 50q9 7 31 16l13 5q21 9 31.5 23t26.5 60l207 634h91l223 -671q8 -22 17.5 -31.5t26.5 -15.5l8 -3q22 -7 34 -16l-5 -51h-285l-5 50q11 7 34 15l16 5q21 6 29 15.5t7.5 28.5t-11.5 55l-24 77q-3 10 -14 10h-222q-10 0 -14 -10l-34 -110q-10 -34 -6.5 -47.5
t20.5 -18.5l17 -5q23 -6 34 -16l-6 -49h-236zM265 330h170q15 0 10 14l-94 292h-4l-91 -292q-5 -14 9 -14z" />
    <glyph glyph-name="B" unicode="B" horiz-adv-x="638" 
d="M44 0l-5 52q9 8 25 14l19 6q23 8 28.5 20.5t5.5 56.5v490q0 43 -5.5 56t-28.5 21l-20 7q-14 5 -24 13l5 52h248q126 0 191 -47t65 -139q0 -66 -31.5 -109.5t-86.5 -59.5v-5q77 -13 122 -65.5t45 -135.5q0 -110 -74 -168.5t-218 -58.5h-261zM248 464h24q81 0 119.5 31
t38.5 98q0 117 -140 117h-44q-14 0 -14 -14v-217q0 -15 16 -15zM246 78h54q177 0 177 155q0 154 -182 154h-47q-16 0 -16 -15v-280q0 -14 14 -14z" />
    <glyph glyph-name="C" unicode="C" horiz-adv-x="610" 
d="M335 -12q-141 0 -218.5 103.5t-77.5 297.5q0 196 78 303.5t219 107.5q82 0 140 -44q10 -6 13 6l7 32h71v-216h-73l-6 27q-25 120 -134 120q-98 0 -145.5 -87.5t-47.5 -239.5q0 -329 188 -329q106 0 175 137l61 -30q-34 -83 -96 -135.5t-154 -52.5z" />
    <glyph glyph-name="D" unicode="D" horiz-adv-x="696" 
d="M45 0l-6 53q7 7 27 14l19 6q23 7 28 20.5t5 56.5v488q0 43 -5.5 56t-28.5 21l-19 6q-15 5 -26 14l6 53h234q189 0 283.5 -100t94.5 -286q0 -193 -95 -297.5t-279 -104.5h-238zM247 77h25q263 0 263 320q0 154 -59 234t-202 80h-27q-14 0 -14 -14v-606q0 -14 14 -14z" />
    <glyph glyph-name="E" unicode="E" horiz-adv-x="597" 
d="M45 0l-6 53q7 7 27 14l19 6q23 7 28 20.5t5 56.5v489q0 44 -5 56t-30 21l-18 6q-16 6 -25 14l5 52h488v-202h-50q-7 11 -21 54l-16 51q-4 13 -10 16t-23 3h-166q-14 0 -14 -14v-241q0 -14 14 -14h50q31 0 41 5.5t17 26.5l5 15q6 17 15 30l42 -5v-219l-42 -5q-7 7 -14 25
l-7 18q-8 21 -20 27.5t-38 6.5h-49q-14 0 -14 -14v-260q0 -14 14 -14h187q17 0 23 3.5t10 15.5l14 42q14 48 23 63h50v-202h-509z" />
    <glyph glyph-name="F" unicode="F" horiz-adv-x="569" 
d="M45 0l-6 53q7 7 27 14l19 6q23 7 28 20.5t5 56.5v489q0 44 -5 56t-30 21l-18 6q-16 6 -25 14l5 52h488v-202h-50q-7 11 -21 54l-16 51q-4 13 -10 16t-23 3h-166q-14 0 -14 -14v-254q0 -14 14 -14h50q30 0 39.5 5.5t18.5 26.5l5 16q5 14 15 29l42 -5v-219l-42 -5
q-7 7 -14 25l-7 18q-8 23 -18.5 28.5t-39.5 5.5h-49q-14 0 -14 -14v-190q0 -44 5 -56t29 -20l19 -6q21 -7 31 -15l-5 -52h-267z" />
    <glyph glyph-name="G" unicode="G" horiz-adv-x="671" 
d="M338 -12q-142 0 -220.5 104t-78.5 297q0 196 81 303.5t230 107.5q77 0 143 -44q10 -7 13 6l6 32h71v-216h-73l-6 27q-25 120 -142 120q-103 0 -152 -86.5t-49 -240.5q0 -329 197 -329q59 0 98 40.5t39 111.5v70q0 33 -6.5 44.5t-27.5 15.5l-28 6q-25 4 -42 11l6 59h207
v-427h-68l-19 58q-6 17 -19 2q-25 -33 -67.5 -52.5t-92.5 -19.5z" />
    <glyph glyph-name="H" unicode="H" horiz-adv-x="767" 
d="M45 0l-6 53q7 7 27 14l19 6q23 7 28 20.5t5 56.5v489q0 43 -5.5 55.5t-28.5 20.5l-17 6q-18 6 -28 15l6 52h261l5 -52q-10 -9 -27 -15l-19 -6q-22 -7 -27 -20t-5 -56v-159q0 -14 14 -14h274q14 0 14 14v159q0 44 -5 56t-28 20l-18 6q-18 6 -27 15l5 52h261l5 -52
q-11 -9 -27 -15l-19 -6q-22 -7 -27 -20t-5 -56v-490q0 -43 5 -56t27 -20l15 -5q20 -7 31 -16l-5 -52h-261l-6 53q11 9 27 14l19 6q23 7 28 20t5 57v225q0 14 -14 14h-274q-14 0 -14 -14v-226q0 -43 5 -56t27 -20l15 -5q20 -7 31 -16l-5 -52h-261z" />
    <glyph glyph-name="I" unicode="I" horiz-adv-x="362" 
d="M51 0l-6 53q7 7 27 14l19 6q23 7 28 20.5t5 56.5v489q0 43 -5.5 55.5t-28.5 20.5l-17 6q-18 6 -28 15l6 52h261l5 -52q-10 -9 -27 -15l-19 -6q-22 -7 -27 -20t-5 -56v-490q0 -43 5 -56t27 -20l15 -5q20 -7 31 -16l-5 -52h-261z" />
    <glyph glyph-name="J" unicode="J" horiz-adv-x="489" 
d="M207 -12q-83 0 -127.5 41t-44.5 113q0 59 41 59h74v-62q0 -44 14.5 -63.5t46.5 -19.5t45.5 19t13.5 67v497q0 45 -5 56.5t-29 20.5l-18 6q-16 5 -26 13l5 53h261l6 -52q-10 -9 -24 -13l-25 -9q-19 -6 -24.5 -19t-5.5 -52v-457q0 -198 -178 -198z" />
    <glyph glyph-name="K" unicode="K" horiz-adv-x="659" 
d="M614 67q22 -6 30 -14l-4 -53h-166l-208 363q-6 10 -10 11t-13 -5q-10 -9 -10 -26v-194q0 -43 5 -56t27 -20l15 -5q20 -7 31 -16l-5 -52h-261l-6 53q9 9 27 14l19 6q23 7 28 20.5t5 56.5v489q0 44 -5.5 56.5t-29.5 20.5l-17 6q-16 5 -27 14l6 52h261l5 -52q-8 -8 -25 -14
l-23 -8q-21 -7 -25.5 -20t-4.5 -56v-176l193 223q22 24 -5 37l-11 5q-17 7 -24 14l7 47h240l5 -50q-7 -7 -32 -15l-20 -5q-46 -13 -84 -56l-158 -178q-11 -12 -2 -27l191 -330q14 -26 27.5 -37t40.5 -19z" />
    <glyph glyph-name="L" unicode="L" horiz-adv-x="568" 
d="M45 0l-6 53q9 9 27 14l19 6q23 7 28 20.5t5 56.5v489q0 43 -5.5 55.5t-28.5 20.5l-17 6q-18 6 -28 15l6 52h266l6 -52q-9 -8 -28 -13l-24 -8q-22 -6 -27 -19t-5 -57v-547q0 -14 14 -14h174q17 0 23 3t10 16l13 42q16 47 23 63h51v-202h-496z" />
    <glyph glyph-name="M" unicode="M" horiz-adv-x="902" 
d="M45 0l-6 52q9 9 27 14l19 7q22 7 27.5 20t5.5 57v488q0 43 -5.5 55.5t-28.5 20.5l-20 7q-15 5 -24 14l5 53h204l204 -468l204 468h201l5 -52q-7 -7 -27 -15l-18 -6q-21 -8 -27 -20.5t-6 -55.5v-490q0 -44 5 -56.5t27 -19.5l15 -5q21 -7 31 -16l-5 -52h-261l-6 53
q7 7 27 14l19 6q22 7 27.5 20t5.5 57v476l-192 -442h-86l-192 437v-474q0 -43 5 -55t27 -19l16 -5q21 -8 30 -16l-5 -52h-228z" />
    <glyph glyph-name="N" unicode="N" horiz-adv-x="752" 
d="M45 0l-6 52q9 9 27 14l19 7q23 7 28 20.5t5 56.5v488q0 44 -5 56t-29 20l-20 7q-15 5 -24 14l5 53h188l327 -586v439q0 43 -5 55t-27 19l-15 5q-20 7 -31 16l5 52h228l6 -52q-9 -9 -27 -14l-19 -7q-23 -7 -28 -20.5t-5 -56.5v-638h-93l-349 623v-476q0 -43 5 -55t27 -19
l16 -5q18 -6 30 -16l-5 -52h-228z" />
    <glyph glyph-name="O" unicode="O" horiz-adv-x="680" 
d="M338 -12q-143 0 -221 105t-78 296q0 193 80 302t223 109q140 0 219.5 -107.5t79.5 -298.5q0 -192 -80 -299t-223 -107zM340 67q86 0 132.5 85.5t46.5 242.5q0 156 -46.5 241t-131.5 85t-132.5 -85t-47.5 -238q0 -158 46.5 -244.5t132.5 -86.5z" />
    <glyph glyph-name="P" unicode="P" horiz-adv-x="616" 
d="M45 0l-6 53q8 8 27 14l19 6q22 7 27.5 20t5.5 57v489q0 44 -5.5 56t-29.5 21l-18 6q-16 6 -25 14l5 52h258q134 0 205.5 -59.5t71.5 -177.5q0 -125 -77.5 -188t-224.5 -63h-30q-15 0 -15 -15v-136q0 -40 8 -53t38 -23l16 -5q24 -8 37 -16l-5 -52h-282zM248 378h36
q89 0 132 40t43 129q0 163 -156 163h-56q-14 0 -14 -15v-302q0 -15 15 -15z" />
    <glyph glyph-name="Q" unicode="Q" horiz-adv-x="680" 
d="M374 -10q7 -103 123 -103h57v-75q0 -26 -12.5 -35t-47.5 -9q-103 0 -154.5 65t-54.5 159q-119 19 -182.5 122t-63.5 275q0 193 80 302t223 109q140 0 219.5 -107.5t79.5 -298.5q0 -179 -70 -284.5t-197 -119.5zM161 398q0 -158 46.5 -244.5t132.5 -86.5t132.5 85.5
t46.5 242.5q0 156 -46.5 241t-131.5 85t-132.5 -85t-47.5 -238z" />
    <glyph glyph-name="R" unicode="R" horiz-adv-x="642" 
d="M45 0l-6 53q8 8 27 14l19 6q22 7 27.5 20t5.5 57v489q0 44 -5.5 56t-29.5 21l-18 6q-16 6 -25 14l5 52h257q270 0 270 -218q0 -154 -141 -203q-12 -5 -6 -16l111 -224q15 -29 25.5 -39t31.5 -17l10 -3q21 -6 31 -15l-4 -53h-157l-155 328q-6 12 -22 12h-49q-14 0 -14 -15
v-176q0 -43 5.5 -56t26.5 -20l17 -6q20 -6 29 -15l-5 -52h-261zM248 418h30q89 0 130.5 35t41.5 113q0 75 -38.5 109.5t-117.5 34.5h-47q-14 0 -14 -15v-262q0 -15 15 -15z" />
    <glyph glyph-name="S" unicode="S" horiz-adv-x="578" 
d="M300 -12q-97 0 -161 50q-17 13 -20 -9l-4 -29h-71v251h76l2 -36q5 -72 49 -112t118 -40q62 0 100.5 34.5t38.5 91.5q0 42 -25.5 73t-89.5 67l-117 67q-143 79 -143 211q0 87 61.5 140t160.5 53q85 0 140 -44q14 -11 18 6l6 31h71v-208h-76l-5 34q-20 108 -143 108
q-54 0 -86.5 -28.5t-32.5 -77.5q0 -37 23.5 -66.5t75.5 -59.5l126 -73q79 -45 114 -95.5t35 -114.5q0 -99 -67.5 -161.5t-173.5 -62.5z" />
    <glyph glyph-name="T" unicode="T" horiz-adv-x="654" 
d="M192 0l-6 52q11 9 29 14l22 7q23 7 28 20t5 56v547q0 14 -14 14h-99q-17 0 -23 -3t-10 -16l-16 -51q-14 -43 -21 -54h-50v202h580v-202h-50q-10 17 -21 54l-16 51q-4 13 -10 16t-23 3h-99q-14 0 -14 -14v-547q0 -43 5 -56t27 -20l20 -6q22 -7 31 -15l-5 -52h-270z" />
    <glyph glyph-name="U" unicode="U" horiz-adv-x="716" 
d="M360 -12q-125 0 -191 67t-66 196v388q0 43 -5.5 56t-26.5 20l-17 6q-20 6 -29 15l5 52h261l6 -52q-9 -9 -29 -15l-17 -6q-22 -7 -27.5 -20t-5.5 -56v-384q0 -93 39 -137t122 -44q79 0 115.5 46.5t36.5 148.5v370q0 43 -5.5 56t-27.5 20l-17 6q-18 6 -29 15l6 52h227
l6 -52q-9 -9 -29 -15l-17 -6q-22 -7 -27.5 -20t-5.5 -56v-377q0 -274 -252 -274z" />
    <glyph glyph-name="V" unicode="V" horiz-adv-x="713" 
d="M695 788l6 -52q-6 -5 -28 -13l-17 -6q-18 -7 -28 -21.5t-23 -55.5l-197 -640h-100l-210 658q-9 28 -18 40t-26 18l-14 4q-22 8 -31 16l5 52h273l7 -53q-7 -7 -27 -12l-17 -5q-26 -8 -30 -25t12 -73l142 -471l151 499q9 33 4.5 48t-25.5 20l-17 5q-23 6 -36 17l5 50h239z
" />
    <glyph glyph-name="W" unicode="W" horiz-adv-x="952" 
d="M934 788l6 -52q-9 -7 -28 -13l-15 -5q-17 -6 -28 -21.5t-19 -53.5l-142 -643h-110l-122 564l-134 -564h-110l-145 676q-7 30 -33 39l-14 5q-24 9 -31 16l5 52h271l8 -53q-8 -6 -32 -14l-17 -5q-22 -6 -29.5 -20.5t-0.5 -45.5l95 -487l139 625h97l127 -617l100 474
q7 37 1 51t-30 21l-17 5q-19 6 -34 16l5 50h237z" />
    <glyph glyph-name="X" unicode="X" horiz-adv-x="708" 
d="M664 68q27 -11 34 -16l-5 -52h-285l-7 53q8 6 27 12l16 4q25 6 24.5 26.5t-30.5 70.5l-96 163l-126 -197q-19 -31 -21.5 -45t12.5 -18l15 -4q22 -7 32 -15l-5 -50h-233l-6 52q5 4 28 13l17 6q24 9 39.5 23t39.5 50l165 254l-156 263q-16 27 -28.5 37t-36.5 18l-13 4
q-22 7 -35 16l5 52h284l7 -53q-6 -6 -26 -12l-15 -4q-25 -6 -24.5 -26t31.5 -71l77 -131l101 169q31 51 2 59l-15 4q-22 7 -32 15l5 50h233l6 -52q-5 -4 -28 -13l-17 -6q-22 -8 -35.5 -21t-34.5 -47l-143 -227l167 -279q33 -58 73 -71z" />
    <glyph glyph-name="Y" unicode="Y" horiz-adv-x="654" 
d="M649 788l6 -52q-5 -5 -29 -13l-15 -6q-18 -6 -31 -21t-32 -53l-152 -304v-190q0 -44 5 -56.5t27 -19.5l20 -6q22 -7 31 -15l-5 -52h-270l-6 52q9 9 29 14l22 7q22 7 27 19.5t5 56.5v184l-167 320q-16 32 -26 43t-29 18l-18 6q-24 9 -32 16l5 52h282l7 -53q-9 -7 -28 -12
l-21 -6q-28 -9 -31 -24.5t20 -60.5l111 -211l114 233q26 54 -8 63l-18 6q-22 7 -32 15l5 50h234z" />
    <glyph glyph-name="Z" unicode="Z" horiz-adv-x="575" 
d="M499 202h50v-202h-523v55l379 658h-235q-17 0 -23 -3.5t-10 -15.5l-19 -58q-12 -36 -19 -50h-51v202h494v-55l-380 -658h267q17 0 23 3t10 16l18 60q15 40 19 48z" />
    <glyph glyph-name="bracketleft" unicode="[" horiz-adv-x="328" 
d="M96 -212v1045h176v-63h-98v-919h98v-63h-176z" />
    <glyph glyph-name="backslash" unicode="\" horiz-adv-x="499" 
d="M427 -126l-429 958l75 32l429 -958z" />
    <glyph glyph-name="bracketright" unicode="]" horiz-adv-x="328" 
d="M232 -212h-176v63h98v919h-98v63h176v-1045z" />
    <glyph glyph-name="asciicircum" unicode="^" horiz-adv-x="578" 
d="M529 384l-66 -34l-172 332l-174 -332l-67 34l213 404h61z" />
    <glyph glyph-name="underscore" unicode="_" horiz-adv-x="551" 
d="M0 -174v72h551v-72h-551z" />
    <glyph glyph-name="grave" unicode="`" horiz-adv-x="400" 
d="M286 620l-203 126l65 78l177 -152z" />
    <glyph glyph-name="a" unicode="a" horiz-adv-x="588" 
d="M538 62q14 -4 25 -10l-3 -52h-157v90q-22 -45 -70.5 -73.5t-109.5 -28.5q-81 0 -134 42t-53 114t48 113t165 65l113 24q15 3 20 9t5 21v18q0 99 -111 99q-90 0 -90 -73v-44h-96q-12 0 -19 10t-7 31q0 63 55 105t158 42q220 0 220 -179v-273q0 -24 4.5 -33t21.5 -13z
M387 210v76q-25 -10 -70 -20l-43 -11q-67 -15 -95 -37.5t-28 -63.5q0 -38 27.5 -63t71.5 -25q60 0 98.5 39t38.5 105z" />
    <glyph glyph-name="b" unicode="b" horiz-adv-x="631" 
d="M377 564q104 0 163 -79t59 -208q0 -125 -64 -207t-162 -82q-61 0 -110 29t-75 78v-95h-164l-3 52q4 2 31 11l15 4q18 6 23.5 15t5.5 30v560q0 24 -6.5 32.5t-25.5 14.5l-13 5q-16 5 -31 12l3 52h183v-312q58 88 171 88zM353 65q60 0 94.5 60t34.5 152q0 100 -34.5 155
t-95.5 55q-70 0 -109.5 -55.5t-39.5 -155.5q0 -99 41 -155t109 -56z" />
    <glyph glyph-name="c" unicode="c" horiz-adv-x="544" 
d="M291 -12q-114 0 -186.5 74t-72.5 211q0 134 72.5 212.5t181.5 78.5q70 0 115 -32q11 -7 15 5l4 21h68v-196h-74l-3 16q-9 62 -37 87.5t-76 25.5q-61 0 -105 -53t-44 -153q0 -106 44.5 -160.5t118.5 -54.5q83 0 156 83l43 -45q-87 -120 -220 -120z" />
    <glyph glyph-name="d" unicode="d" horiz-adv-x="615" 
d="M574 62q13 -2 27 -10l-3 -52h-158v96q-26 -48 -69.5 -78t-100.5 -30q-104 0 -171 77.5t-67 211.5q0 127 66 207t171 80q104 0 155 -85v193q0 24 -6.5 32.5t-25.5 14.5l-13 5q-16 5 -31 12l3 52h183v-676q0 -23 4.5 -32t20.5 -13zM289 65q62 0 100.5 55.5t38.5 160.5
q0 95 -36 150.5t-103 55.5q-63 0 -101.5 -54.5t-38.5 -154.5q0 -98 36 -155.5t104 -57.5z" />
    <glyph glyph-name="e" unicode="e" horiz-adv-x="583" 
d="M305 -12q-126 0 -199.5 80t-73.5 209q0 132 75.5 209.5t187.5 77.5q93 0 159 -53q36 -29 59 -67.5t23 -76.5q0 -17 -11.5 -27.5t-42.5 -24.5q-157 -68 -320 -97q-11 -3 -11 -11q0 -48 46.5 -91t122.5 -43q103 0 177 88l41 -47q-37 -57 -97.5 -91.5t-135.5 -34.5zM155 289
q25 0 101 20.5t125 40.5q18 7 25 13t7 16q0 39 -32 73q-33 40 -93 40q-64 0 -105 -46t-41 -125q0 -12 2 -24q2 -8 11 -8z" />
    <glyph glyph-name="f" unicode="f" horiz-adv-x="363" 
d="M36 0l-3 52q13 7 34 13l15 5q20 7 26.5 17t6.5 33v356h-94v76h94v64q0 94 49.5 139t128.5 45q69 0 112 -36t43 -97v-5q0 -19 -5 -24q-8 -9 -31 -9h-62v36q0 67 -58 67q-67 0 -67 -90v-90h116v-76h-116v-356q0 -23 8.5 -32.5t35.5 -16.5l17 -5q31 -10 41 -14l-3 -52h-288z
" />
    <glyph glyph-name="g" unicode="g" horiz-adv-x="635" 
d="M606 552v-76h-109q50 -55 50 -142q0 -71 -31 -125.5t-92 -80.5q77 -15 117.5 -56t40.5 -103q0 -84 -72 -138.5t-197 -54.5q-141 0 -210 50.5t-69 137.5v3q0 19 8 26t25 7h81l3 -27q11 -124 167 -124q73 0 109.5 31.5t36.5 82.5q0 106 -160 116l-17 1q-119 7 -183.5 68.5
t-64.5 179.5q0 109 71 173t182 64q55 0 94 -13h220zM302 149q57 0 92.5 46t35.5 134q0 82 -36.5 124.5t-96.5 42.5q-63 0 -102 -42.5t-39 -127.5q0 -90 40.5 -133.5t105.5 -43.5z" />
    <glyph glyph-name="h" unicode="h" horiz-adv-x="646" 
d="M593 64q15 -5 28 -12l-3 -52h-176v363q0 55 -25 86t-71 31q-70 0 -102 -55t-32 -136v-169q0 -23 7 -33t29 -17l16 -6q18 -5 33 -12l-3 -52h-271l-3 52q10 5 33 12l16 6q20 7 26.5 17t6.5 33v552q0 24 -6 33t-25 14l-16 5q-25 10 -29 12l3 52h183v-307q58 83 161 83
q84 0 131.5 -51t47.5 -136v-263q0 -22 6 -31t22 -14z" />
    <glyph glyph-name="i" unicode="i" horiz-adv-x="310" 
d="M150 627q-34 0 -56.5 21.5t-22.5 54.5q0 32 22.5 53.5t56.5 21.5q33 0 54.5 -21.5t21.5 -53.5q0 -33 -21.5 -54.5t-54.5 -21.5zM24 0l-3 52q12 6 33 12l15 5q18 7 23.5 16.5t5.5 30.5v320q0 24 -6.5 32.5t-25.5 14.5l-15 5q-19 6 -29 12l3 52h183v-436q0 -21 6 -31
t23 -16l15 -5q21 -6 33 -12l-3 -52h-258z" />
    <glyph glyph-name="j" unicode="j" horiz-adv-x="265" 
d="M143 627q-34 0 -56 21.5t-22 54.5q0 32 22.5 53.5t55.5 21.5t55 -21.5t22 -53.5q0 -33 -21.5 -54.5t-55.5 -21.5zM36 -224q-72 0 -113.5 37t-41.5 102v5q0 18 8 29q10 10 26 10h64v-44q0 -71 58 -71q55 0 55 77v515q0 23 -6.5 32t-25.5 15l-15 5q-24 9 -29 12l3 52h183
v-586q0 -190 -166 -190z" />
    <glyph glyph-name="k" unicode="k" horiz-adv-x="597" 
d="M541 63q12 -4 25 -11l-3 -52h-140l-144 253q-10 18 -20 8l-43 -41q-9 -10 -9 -21v-83q0 -23 5 -32.5t22 -15.5l15 -5q18 -5 29 -11l-3 -52h-252l-3 52q6 3 30 11l15 5q20 7 26 16t6 31v557q0 24 -6.5 32.5t-25.5 14.5l-15 5q-20 7 -29 12l3 52h183v-486l153 149
q14 12 14 22t-12 13l-16 5q-17 5 -25 9l3 52h233l3 -53q-6 -3 -30 -11l-17 -5q-31 -9 -74 -49l-87 -84q-9 -9 -1 -20l124 -216q22 -37 45 -44z" />
    <glyph glyph-name="l" unicode="l" horiz-adv-x="298" 
d="M23 0l-3 52q10 5 31 12l15 5q19 7 25 16t6 31v556q0 24 -6.5 32.5t-25.5 14.5l-14 5q-21 6 -30 12l3 52h183v-672q0 -22 6 -31.5t24 -15.5l15 -5q24 -8 32 -12l-3 -52h-258z" />
    <glyph glyph-name="m" unicode="m" horiz-adv-x="972" 
d="M918 64q7 -2 29 -12l-3 -52h-176v360q0 120 -89 120q-61 0 -97.5 -46.5t-36.5 -124.5v-193q0 -23 6 -32.5t22 -14.5l13 -5q3 -1 29 -12l-3 -52h-177v365q0 115 -85 115q-70 0 -103.5 -49.5t-33.5 -125.5v-185q0 -23 7 -33t29 -17l16 -6q18 -5 33 -12l-3 -52h-271l-3 52
q10 5 33 12l16 6q20 7 26.5 17t6.5 33v312q0 25 -6.5 34t-26.5 16l-16 5q-28 11 -32 13l3 52h188v-76q57 88 161 88q109 0 152 -94q64 94 175 94q83 0 130 -50.5t47 -146.5v-247q0 -26 5 -35.5t22 -15.5z" />
    <glyph glyph-name="n" unicode="n" horiz-adv-x="654" 
d="M600 64q7 -2 29 -12l-3 -52h-177v362q0 115 -96 115q-72 0 -106 -55t-34 -133v-169q0 -23 7 -33t29 -17l16 -6q18 -5 33 -12l-3 -52h-271l-3 52q15 7 33 12l16 6q20 7 26.5 17t6.5 33v312q0 25 -7 34.5t-27 15.5l-16 6q-18 6 -31 12l3 52h188v-75q59 87 168 87
q85 0 131.5 -50.5t46.5 -136.5v-263q0 -22 6 -30.5t22 -14.5z" />
    <glyph glyph-name="o" unicode="o" horiz-adv-x="597" 
d="M297 -12q-116 0 -190.5 78.5t-74.5 208.5q0 129 76 209t191 80q121 0 193.5 -79t72.5 -210q0 -129 -76.5 -208t-191.5 -79zM300 63q64 0 106 54.5t42 158.5q0 105 -41.5 159t-106.5 54q-63 0 -107 -55t-44 -158t43.5 -158t107.5 -55z" />
    <glyph glyph-name="p" unicode="p" horiz-adv-x="628" 
d="M370 564q100 0 163 -77.5t63 -207.5q0 -128 -64.5 -209.5t-160.5 -81.5q-110 0 -168 84v-166q0 -24 7 -34t28 -16l16 -4q9 -2 41 -12l-3 -52h-277l-3 52q13 5 34 12l15 5q20 7 26 17t6 32v526q0 25 -7 34.5t-27 15.5l-16 6q-22 7 -31 12l3 52h188v-73q27 40 72.5 62.5
t94.5 22.5zM352 65q56 0 91.5 58.5t35.5 154.5q0 101 -35.5 155t-95.5 54q-68 0 -108 -54.5t-40 -153.5q0 -101 40 -157.5t112 -56.5z" />
    <glyph glyph-name="q" unicode="q" horiz-adv-x="604" 
d="M333 -212l-3 52q11 6 38 14l17 5q22 6 30.5 15.5t8.5 30.5v168q-23 -39 -64 -62t-91 -23q-105 0 -171 79.5t-66 211.5q0 128 67.5 206.5t167.5 78.5q52 0 95.5 -24.5t66.5 -64.5l16 77h89v-647q0 -23 5 -32.5t20 -14.5l14 -5q12 -4 30 -13l-3 -52h-267zM288 65
q65 0 102.5 59t37.5 153q0 97 -37 152t-104 55q-62 0 -100 -52.5t-38 -151.5q0 -102 37 -158.5t102 -56.5z" />
    <glyph glyph-name="r" unicode="r" horiz-adv-x="509" 
d="M374 564q51 0 81.5 -30.5t30.5 -82.5v-4q0 -26 -10 -37q-12 -12 -35 -12h-63l-3 37q-3 46 -38 46q-49 0 -87 -56t-38 -136v-169q0 -23 8 -32t31 -17l17 -6q24 -7 38 -13l-2 -52h-280l-3 52q8 4 32 12l18 6q19 7 25 17t6 33v312q0 25 -6.5 34t-27.5 16l-16 5q-18 5 -31 13
l3 52h188v-90q27 46 69 74t93 28z" />
    <glyph glyph-name="s" unicode="s" horiz-adv-x="513" 
d="M281 -12q-100 0 -150 42q-10 8 -13 -4l-7 -26h-66v203h74l3 -30q11 -112 148 -112q48 0 73 21t25 54q0 29 -17 47t-61 34l-116 43q-121 45 -121 146q0 70 57 114t139 44q72 0 117 -37q9 -8 11 5l4 23h66v-172h-73l-6 27q-2 12 -9 27q-24 54 -100 54q-48 0 -75 -18.5
t-27 -53.5q0 -23 19 -38.5t57 -30.5l125 -47q114 -43 114 -148q0 -72 -51.5 -119.5t-139.5 -47.5z" />
    <glyph glyph-name="t" unicode="t" horiz-adv-x="403" 
d="M230 -12q-134 0 -134 140v348h-86v66l46 10q25 5 36.5 15.5t16.5 32.5l29 120h68v-168h120v-76h-120v-337q0 -34 11.5 -49.5t37.5 -15.5q37 0 84 40l38 -54q-70 -72 -147 -72z" />
    <glyph glyph-name="u" unicode="u" horiz-adv-x="632" 
d="M574 62q15 -2 28 -10l-3 -52h-163v95q-54 -107 -172 -107q-82 0 -129.5 50.5t-47.5 147.5v257q0 20 -4 28t-17 12l-13 5q-21 7 -28 12l3 52h169v-354q0 -126 94 -126q62 0 97.5 48.5t35.5 139.5v183q0 19 -5.5 27t-20.5 13l-13 5q-21 7 -29 12l3 52h175v-440q0 -22 5 -31
t20 -14z" />
    <glyph glyph-name="v" unicode="v" horiz-adv-x="607" 
d="M599 552l2 -53q-13 -7 -33 -13l-16 -5q-17 -6 -25.5 -17t-21.5 -43l-157 -421h-91l-170 447q-11 31 -33 37l-15 5q-15 5 -32 11l2 52h265l1 -51q-10 -4 -32 -11l-17 -5q-31 -9 -20 -39l110 -314l107 295q10 27 7.5 39.5t-20.5 17.5l-13 4q-26 8 -36 12l3 52h235z" />
    <glyph glyph-name="w" unicode="w" horiz-adv-x="860" 
d="M233 0l-147 449q-7 28 -32 35l-15 5q-15 5 -32 11l2 52h261l2 -51q-10 -4 -32 -11l-16 -5q-29 -8 -21 -39l90 -297l104 403h93l110 -403l82 285q7 23 4.5 34.5t-19.5 15.5l-13 4q-26 8 -35 12l2 52h231l2 -53q-10 -6 -32 -13l-15 -5q-19 -6 -28.5 -17t-17.5 -38
l-134 -426h-90l-109 377l-104 -377h-91z" />
    <glyph glyph-name="x" unicode="x" horiz-adv-x="618" 
d="M577 63q15 -5 29 -11l-2 -52h-256l-2 51q12 5 31 11l15 5q28 8 5 36l-100 119l-78 -96q-16 -21 -17.5 -36.5t16.5 -22.5l13 -4q24 -7 34 -11l-3 -52h-245l-2 53q8 4 32 13l15 5q32 10 67 53l121 152l-147 176q-19 22 -47 33l-13 4l-30 11l3 52h261l1 -51q-8 -4 -31 -11
l-16 -5q-29 -8 -4 -38l89 -106l72 88q37 47 6 55l-14 4q-16 5 -34 12l2 52h240l3 -53q-8 -4 -33 -13l-14 -5q-34 -11 -71 -56l-110 -139l148 -177q29 -33 53 -42z" />
    <glyph glyph-name="y" unicode="y" horiz-adv-x="606" 
d="M598 552l2 -53q-12 -6 -30 -12l-19 -6q-18 -6 -27.5 -19t-21.5 -45l-132 -356q-63 -171 -109.5 -228t-116.5 -57q-59 0 -95 38.5t-36 105.5v4q0 38 35 38h73l3 -33q4 -37 15 -54.5t33 -17.5q27 0 46.5 31t45.5 102l-162 422q-17 42 -26 55.5t-25 17.5l-13 4q-2 1 -14 5
t-17 6l2 52h263l1 -51q-15 -7 -32 -11l-16 -5q-31 -8 -19 -41l112 -314l109 307q7 21 2.5 32t-23.5 16l-14 4l-31 11l2 52h235z" />
    <glyph glyph-name="z" unicode="z" horiz-adv-x="548" 
d="M450 197h55v-197h-468v63l320 418h-199q-20 0 -26 -22l-30 -107h-56v200h450v-63l-316 -417h215q22 0 27 20z" />
    <glyph glyph-name="braceleft" unicode="{" horiz-adv-x="309" 
d="M240 -210q-74 0 -104.5 34.5t-30.5 125.5v286q0 53 -46 53h-25v70h24q47 0 47 58v242q0 92 30.5 128t104.5 36h38v-64h-30q-40 0 -53 -20.5t-13 -79.5v-251q0 -62 -52 -80l-8 -3l8 -3q52 -15 52 -76v-288q0 -63 13 -84t53 -21h30v-63h-38z" />
    <glyph glyph-name="bar" unicode="|" horiz-adv-x="399" 
d="M156 -212v1081h87v-1081h-87z" />
    <glyph glyph-name="braceright" unicode="}" horiz-adv-x="309" 
d="M69 -210h-38v63h30q40 0 53 21t13 84v288q0 61 52 76l8 3l-8 3q-52 18 -52 80v251q0 59 -13 79.5t-53 20.5h-30v64h38q74 0 104.5 -36t30.5 -128v-242q0 -58 47 -58h24v-70h-25q-46 0 -46 -53v-286q0 -91 -30.5 -125.5t-104.5 -34.5z" />
    <glyph glyph-name="asciitilde" unicode="~" horiz-adv-x="578" 
d="M409 341q-34 0 -68 15t-56.5 32.5t-51.5 32.5t-54 15q-34 0 -65.5 -22.5t-51.5 -56.5l-54 48q27 49 73.5 79.5t100.5 30.5q32 0 63.5 -14.5t53.5 -32.5t52.5 -32.5t59.5 -14.5q31 0 60.5 22t49.5 57l49 -47q-24 -45 -68 -78.5t-93 -33.5z" />
    <glyph glyph-name="uni00A0" unicode="&#xa0;" horiz-adv-x="240" 
 />
    <glyph glyph-name="exclamdown" unicode="&#xa1;" horiz-adv-x="273" 
d="M136 456q-33 0 -55.5 21.5t-22.5 54.5t22.5 54.5t55.5 21.5t56 -21.5t23 -54.5t-23 -54.5t-56 -21.5zM76 -190l21 582h78l22 -582h-121z" />
    <glyph glyph-name="cent" unicode="&#xa2;" horiz-adv-x="538" 
d="M511 227q-76 -105 -192 -119v-105h-79v108q-94 16 -151 88.5t-57 192.5q0 118 56.5 193.5t147.5 92.5v107h78v-103q50 -6 87 -31q11 -7 15 5l4 21h68v-196h-74l-3 16q-9 62 -37 87.5t-76 25.5q-61 0 -105 -53t-44 -153q0 -106 44.5 -160.5t118.5 -54.5q83 0 156 83z" />
    <glyph glyph-name="sterling" unicode="&#xa3;" horiz-adv-x="587" 
d="M505 203h51v-203h-512v74q154 69 154 177q0 53 -32 99h-122v66h84q-64 95 -64 174q0 96 70 153t172 57q101 0 164.5 -50.5t63.5 -137.5v-7q0 -26 -9.5 -36t-33.5 -10h-77v50q0 53 -30 84t-79 31q-54 0 -87.5 -34.5t-33.5 -93.5q0 -80 71 -180h162v-66h-130q17 -42 17 -85
q0 -106 -99 -173h229q17 0 25 5.5t13 20.5l9 27q16 44 24 58z" />
    <glyph glyph-name="currency" unicode="&#xa4;" horiz-adv-x="708" 
d="M99 24l-58 63l113 105q-30 53 -30 124t33 132l-114 108l61 64l108 -104q58 49 136 49q85 0 145 -54l110 106l64 -61l-122 -113q31 -57 31 -127q0 -64 -28 -120l117 -111l-62 -62l-105 102q-65 -57 -150 -57q-80 0 -145 54zM350 146q58 0 94.5 42.5t36.5 119.5
q0 83 -36.5 131.5t-95.5 48.5t-95 -43t-36 -123q0 -81 35.5 -128.5t96.5 -47.5z" />
    <glyph glyph-name="yen" unicode="&#xa5;" horiz-adv-x="654" 
d="M649 788l6 -52q-5 -5 -29 -13l-15 -6q-19 -6 -32 -21t-32 -52l-116 -226h142v-69h-177v-101h177v-69h-177v-30q0 -44 5 -56.5t27 -19.5l20 -6q22 -7 31 -15l-5 -52h-270l-6 52q9 9 29 14l22 7q22 7 27 19.5t5 56.5v30h-177v69h177v101h-177v69h140l-131 239
q-14 28 -24.5 39t-29.5 18l-18 6q-24 9 -32 16l5 52h282l7 -53q-9 -7 -28 -12l-21 -6q-28 -9 -30.5 -24t20.5 -59l111 -202l112 222q27 54 -7 63l-18 6q-22 7 -32 15l5 50h234z" />
    <glyph glyph-name="brokenbar" unicode="&#xa6;" horiz-adv-x="399" 
d="M156 468v401h87v-401h-87zM156 -212v401h87v-401h-87z" />
    <glyph glyph-name="section" unicode="&#xa7;" horiz-adv-x="570" 
d="M46 -159v230h74l4 -30q9 -78 53 -116.5t107 -38.5q55 0 86 29.5t31 77.5q0 45 -26.5 69.5t-90.5 48.5l-75 28q-154 56 -154 180q0 43 24 85t64 69q-73 55 -73 145q0 76 57 129t151 53q75 0 122 -44q10 -11 13 5l6 34h66v-199h-78l-3 29q-5 54 -37 80.5t-80 26.5
q-52 0 -83.5 -28.5t-31.5 -73.5q0 -43 27.5 -66.5t89.5 -47.5l77 -29q82 -31 118.5 -74.5t36.5 -103.5q0 -41 -22 -82.5t-58 -73.5q69 -54 69 -139q0 -81 -58 -139t-153 -58q-107 0 -166 62q-3 4 -6.5 2.5t-4.5 -8.5l-4 -32h-72zM380 189q37 41 37 85q0 45 -22 69t-73 44
l-125 49q-39 -37 -39 -88q0 -42 23.5 -67t78.5 -45q59 -22 120 -47z" />
    <glyph glyph-name="dieresis" unicode="&#xa8;" horiz-adv-x="400" 
d="M97 635q-28 0 -48.5 20.5t-20.5 48.5t20.5 48.5t48.5 20.5t48.5 -20.5t20.5 -48.5t-20.5 -48.5t-48.5 -20.5zM303 635q-28 0 -48.5 20.5t-20.5 48.5t20.5 48.5t48.5 20.5t48.5 -20.5t20.5 -48.5t-20.5 -48.5t-48.5 -20.5z" />
    <glyph glyph-name="copyright" unicode="&#xa9;" horiz-adv-x="863" 
d="M431 -12q-165 0 -280 117.5t-115 288.5t115 288.5t280 117.5q168 0 282 -117t114 -289t-114 -289t-282 -117zM431 45q138 0 231.5 101t93.5 248t-93.5 248t-231.5 101q-135 0 -229.5 -101t-94.5 -248t94.5 -248t229.5 -101zM442 151q-98 0 -160 65t-62 176
q0 108 62 177.5t159 69.5q78 0 127.5 -40.5t49.5 -103.5v-6q0 -17 -6 -23t-21 -6h-69v30q0 42 -22 67t-61 25q-56 0 -89.5 -50t-33.5 -133q0 -85 38 -133.5t106 -48.5q81 0 137 70l37 -36q-69 -100 -192 -100z" />
    <glyph glyph-name="ordfeminine" unicode="&#xaa;" horiz-adv-x="429" 
d="M374 474q12 -5 15 -8v-35h-108v60q-13 -30 -45 -49t-73 -19q-55 0 -91 28t-36 75q0 46 29 71.5t104 41.5l77 18q14 2 18.5 6.5t4.5 14.5v8q0 65 -67 65q-60 0 -60 -46v-30h-65q-9 0 -15 7q-5 7 -5 20q0 42 38 70t107 28q71 0 109 -30t38 -87v-178q0 -14 3 -19.5t13 -8.5z
M269 571v43q-13 -7 -39 -12l-36 -9q-39 -9 -56.5 -22.5t-17.5 -38.5q0 -24 17.5 -38.5t46.5 -14.5q40 0 62.5 24t22.5 68zM44 309v54h342v-54h-342z" />
    <glyph glyph-name="guillemotleft" unicode="&#xab;" horiz-adv-x="476" 
d="M172 100l-117 196q-8 14 0 29l116 195l53 -27l-87 -179l89 -186zM346 111l-114 187q-7 12 0 25l113 187l51 -28l-81 -168l85 -172z" />
    <glyph glyph-name="logicalnot" unicode="&#xac;" horiz-adv-x="578" 
d="M460 150v251h-428v79h514v-330h-86z" />
    <glyph glyph-name="uni00AD" unicode="&#xad;" horiz-adv-x="305" 
d="M40 264v78h225v-78h-225z" />
    <glyph glyph-name="registered" unicode="&#xae;" horiz-adv-x="663" 
d="M331 229q-123 0 -203 83t-80 207t80 207t203 83q124 0 204 -83t80 -207t-80 -207t-204 -83zM331 283q98 0 157 67t59 169t-59 169t-157 67q-97 0 -156 -67t-59 -169t59 -169t156 -67zM229 367v321h98q56 0 86.5 -24.5t30.5 -69.5q0 -67 -53 -83q-6 -2 -3 -10l28 -71
q8 -19 21 -26l6 -3q10 -4 14 -7l-2 -27h-74l-48 125q-2 6 -10 6h-25q-8 0 -8 -8v-123h-61zM299 541h23q58 0 58 54q0 49 -53 49h-28q-9 0 -9 -8v-87q0 -8 9 -8z" />
    <glyph glyph-name="macron" unicode="&#xaf;" horiz-adv-x="400" 
d="M10 655v79h380v-79h-380z" />
    <glyph glyph-name="degree" unicode="&#xb0;" horiz-adv-x="330" 
d="M166 597q-63 0 -106.5 42.5t-43.5 105.5t44 106.5t106 43.5q61 0 104.5 -43.5t43.5 -104.5q0 -64 -43.5 -107t-104.5 -43zM166 669q31 0 51.5 21.5t20.5 54.5q0 35 -20.5 56.5t-51.5 21.5q-32 0 -52.5 -21t-20.5 -55q0 -35 20.5 -56.5t52.5 -21.5z" />
    <glyph glyph-name="plusminus" unicode="&#xb1;" horiz-adv-x="578" 
d="M246 198v201h-214v78h214v201h86v-201h214v-78h-214v-201h-86zM32 0v79h514v-79h-514z" />
    <glyph glyph-name="uni00B2" unicode="&#xb2;" horiz-adv-x="381" 
d="M303 519h40v-130h-309v66q115 80 158 126t43 100q0 66 -54 66q-60 0 -60 -75v-38h-52q-22 0 -30.5 7t-8.5 27q0 57 39.5 94.5t114.5 37.5q66 0 105.5 -32.5t39.5 -90.5q0 -63 -54.5 -115.5t-157.5 -104.5h142q17 0 25 18l5 12q9 25 14 32z" />
    <glyph glyph-name="uni00B3" unicode="&#xb3;" horiz-adv-x="395" 
d="M197 388q-78 0 -120 33.5t-42 83.5q0 17 5 23.5t17 6.5h66v-24q0 -32 19.5 -51t53.5 -19q29 0 48 18t19 50q0 31 -20 49t-52 18h-18v49h18q65 0 65 65q0 57 -57 57q-29 0 -46.5 -17.5t-17.5 -49.5v-16h-61q-26 0 -26 27q0 46 43 77.5t110 31.5q63 0 103.5 -29t40.5 -76
q0 -67 -76 -92v-1q38 -7 63 -32t25 -61q0 -52 -45.5 -86.5t-114.5 -34.5z" />
    <glyph glyph-name="acute" unicode="&#xb4;" horiz-adv-x="400" 
d="M137 620l-39 52l177 152l65 -78z" />
    <glyph glyph-name="uni00B5" unicode="&#xb5;" horiz-adv-x="639" 
d="M600 92l29 -40q-40 -64 -110 -64q-36 0 -60.5 25.5t-26.5 70.5q-21 -44 -57.5 -70t-81.5 -26q-31 0 -58.5 13t-41.5 34v-247h-106v655q0 20 -4 28t-17 12l-13 5q-21 7 -28 12l3 52h169v-354q0 -126 94 -126q62 0 97.5 48.5t35.5 139.5v183q0 19 -5.5 27t-20.5 13l-13 5
q-21 7 -29 12l3 52h175v-448q0 -33 25 -33q21 0 41 21z" />
    <glyph glyph-name="paragraph" unicode="&#xb6;" horiz-adv-x="662" 
d="M214 -172l-1 53q7 3 37 11l25 6q33 8 33 63v403h-20q-115 0 -176 59.5t-61 153.5q0 95 62.5 153t175.5 58h290v-960h-82v892h-108v-892h-175z" />
    <glyph glyph-name="periodcentered" unicode="&#xb7;" horiz-adv-x="479" 
d="M240 230q-38 0 -63.5 26t-25.5 63t26 62.5t63 25.5t62.5 -25.5t25.5 -62.5q0 -38 -25.5 -63.5t-62.5 -25.5z" />
    <glyph glyph-name="cedilla" unicode="&#xb8;" horiz-adv-x="400" 
d="M197 -227q-64 0 -111 32l22 53q35 -25 72 -25q20 0 31.5 11t11.5 29q0 49 -76 62l27 67h56l-13 -33q46 -11 71 -37t25 -62q0 -40 -31 -68.5t-85 -28.5z" />
    <glyph glyph-name="uni00B9" unicode="&#xb9;" horiz-adv-x="283" 
d="M112 389v298q0 20 -5 28t-20 11l-16 4q-14 3 -26 8v50h154v-399h-87z" />
    <glyph glyph-name="ordmasculine" unicode="&#xba;" horiz-adv-x="423" 
d="M212 423q-78 0 -127 51.5t-49 137.5t50.5 137t126.5 51q78 0 126 -50.5t48 -137.5q0 -85 -50 -137t-125 -52zM211 474q42 0 67 37t25 101q0 65 -24.5 101t-66.5 36t-66.5 -35t-24.5 -102q0 -64 24 -101t66 -37zM38 309v54h342v-54h-342z" />
    <glyph glyph-name="guillemotright" unicode="&#xbb;" horiz-adv-x="476" 
d="M291 100l-54 28l89 186l-87 179l53 27l116 -195q8 -15 0 -29zM117 111l-54 31l85 172l-81 168l51 28l113 -187q7 -13 0 -25z" />
    <glyph glyph-name="onequarter" unicode="&#xbc;" horiz-adv-x="776" 
d="M602 811l59 -41l-514 -783l-58 43zM122 687q0 20 -5 28t-20 11l-16 4q-14 3 -26 8v50h154v-399h-87v298zM666 141h49v-56h-49v-85h-87v85h-198v49l191 264h94v-257zM449 141h130v181z" />
    <glyph glyph-name="onehalf" unicode="&#xbd;" horiz-adv-x="845" 
d="M602 811l59 -41l-514 -783l-58 43zM122 687q0 20 -5 28t-20 11l-16 4q-14 3 -26 8v50h154v-399h-87v298zM750 130h40v-130h-309v66q115 80 158 126t43 100q0 66 -54 66q-60 0 -60 -75v-38h-52q-22 0 -30.5 7t-8.5 27q0 57 39.5 94.5t114.5 37.5q66 0 105.5 -32.5
t39.5 -90.5q0 -63 -54.5 -115.5t-157.5 -104.5h142q17 0 25 18l5 12q9 25 14 32z" />
    <glyph glyph-name="threequarters" unicode="&#xbe;" horiz-adv-x="845" 
d="M672 811l59 -41l-514 -783l-58 43zM357 509q0 -52 -45.5 -86.5t-114.5 -34.5q-78 0 -120 33.5t-42 83.5q0 17 5 23.5t17 6.5h66v-24q0 -32 19.5 -51t53.5 -19q29 0 48 18t19 50q0 31 -20 49t-52 18h-18v49h18q65 0 65 65q0 57 -57 57q-29 0 -46.5 -17.5t-17.5 -49.5v-16
h-61q-26 0 -26 27q0 46 43 77.5t110 31.5q63 0 103.5 -29t40.5 -76q0 -67 -76 -92v-1q38 -7 63 -32t25 -61zM735 141h49v-56h-49v-85h-87v85h-198v49l191 264h94v-257zM518 141h130v181z" />
    <glyph glyph-name="questiondown" unicode="&#xbf;" horiz-adv-x="493" 
d="M259 456q-33 0 -56 21.5t-23 54.5t23 54.5t56 21.5t55.5 -21.5t22.5 -54.5t-22.5 -54.5t-55.5 -21.5zM237 -202q-96 0 -151.5 53t-55.5 130q0 49 18.5 86.5t45 62.5t53.5 51t48 66t25 93l4 52h77q10 -44 10 -89q0 -46 -16.5 -83.5t-40.5 -63.5t-48 -50.5t-40.5 -56.5
t-16.5 -69q0 -50 24 -79t67 -29q101 0 101 131v51h85q21 0 29 -10.5t8 -35.5v-5q0 -89 -60 -147t-166 -58z" />
    <glyph glyph-name="Agrave" unicode="&#xc0;" horiz-adv-x="727" 
d="M446 854l-229 78l47 91l212 -109zM14 0l-4 50q9 7 31 16l13 5q21 9 31.5 23t26.5 60l207 634h91l223 -671q8 -22 17.5 -31.5t26.5 -15.5l8 -3q22 -7 34 -16l-5 -51h-285l-5 50q11 7 34 15l16 5q21 6 29 15.5t7.5 28.5t-11.5 55l-24 77q-3 10 -14 10h-222q-10 0 -14 -10
l-34 -110q-10 -34 -6.5 -47.5t20.5 -18.5l17 -5q23 -6 34 -16l-6 -49h-236zM265 330h170q15 0 10 14l-94 292h-4l-91 -292q-5 -14 9 -14z" />
    <glyph glyph-name="Aacute" unicode="&#xc1;" horiz-adv-x="727" 
d="M276 854l-30 60l212 109l47 -91zM14 0l-4 50q9 7 31 16l13 5q21 9 31.5 23t26.5 60l207 634h91l223 -671q8 -22 17.5 -31.5t26.5 -15.5l8 -3q22 -7 34 -16l-5 -51h-285l-5 50q11 7 34 15l16 5q21 6 29 15.5t7.5 28.5t-11.5 55l-24 77q-3 10 -14 10h-222q-10 0 -14 -10
l-34 -110q-10 -34 -6.5 -47.5t20.5 -18.5l17 -5q23 -6 34 -16l-6 -49h-236zM265 330h170q15 0 10 14l-94 292h-4l-91 -292q-5 -14 9 -14z" />
    <glyph glyph-name="Acircumflex" unicode="&#xc2;" horiz-adv-x="727" 
d="M251 842l-44 48l118 126h82l118 -126l-44 -49l-115 95zM14 0l-4 50q9 7 31 16l13 5q21 9 31.5 23t26.5 60l207 634h91l223 -671q8 -22 17.5 -31.5t26.5 -15.5l8 -3q22 -7 34 -16l-5 -51h-285l-5 50q11 7 34 15l16 5q21 6 29 15.5t7.5 28.5t-11.5 55l-24 77q-3 10 -14 10
h-222q-10 0 -14 -10l-34 -110q-10 -34 -6.5 -47.5t20.5 -18.5l17 -5q23 -6 34 -16l-6 -49h-236zM265 330h170q15 0 10 14l-94 292h-4l-91 -292q-5 -14 9 -14z" />
    <glyph glyph-name="Atilde" unicode="&#xc3;" horiz-adv-x="727" 
d="M230 861l-59 34q17 45 50 71t72 26q34 0 80 -26t66 -26q41 0 56 50l57 -34q-10 -41 -40 -70t-69 -29q-36 0 -83 26t-64 26q-47 0 -66 -48zM14 0l-4 50q9 7 31 16l13 5q21 9 31.5 23t26.5 60l207 634h91l223 -671q8 -22 17.5 -31.5t26.5 -15.5l8 -3q22 -7 34 -16l-5 -51
h-285l-5 50q11 7 34 15l16 5q21 6 29 15.5t7.5 28.5t-11.5 55l-24 77q-3 10 -14 10h-222q-10 0 -14 -10l-34 -110q-10 -34 -6.5 -47.5t20.5 -18.5l17 -5q23 -6 34 -16l-6 -49h-236zM265 330h170q15 0 10 14l-94 292h-4l-91 -292q-5 -14 9 -14z" />
    <glyph glyph-name="Adieresis" unicode="&#xc4;" horiz-adv-x="727" 
d="M267 859q-31 0 -50 18.5t-19 49.5t19 49.5t50 18.5t49 -18.5t18 -49.5t-18 -49.5t-49 -18.5zM464 859q-31 0 -49.5 18.5t-18.5 49.5t18.5 49.5t49.5 18.5t49.5 -18.5t18.5 -49.5t-18.5 -49.5t-49.5 -18.5zM14 0l-4 50q9 7 31 16l13 5q21 9 31.5 23t26.5 60l207 634h91
l223 -671q8 -22 17.5 -31.5t26.5 -15.5l8 -3q22 -7 34 -16l-5 -51h-285l-5 50q11 7 34 15l16 5q21 6 29 15.5t7.5 28.5t-11.5 55l-24 77q-3 10 -14 10h-222q-10 0 -14 -10l-34 -110q-10 -34 -6.5 -47.5t20.5 -18.5l17 -5q23 -6 34 -16l-6 -49h-236zM265 330h170q15 0 10 14
l-94 292h-4l-91 -292q-5 -14 9 -14z" />
    <glyph glyph-name="Aring" unicode="&#xc5;" horiz-adv-x="727" 
d="M364 847q-53 0 -86.5 26.5t-33.5 74.5q0 47 33.5 74t87.5 27q53 0 86 -26.5t33 -73.5t-33 -74.5t-87 -27.5zM365 899q23 0 37 13.5t14 36.5t-14.5 35.5t-37.5 12.5t-37 -13t-14 -35q0 -23 14.5 -36.5t37.5 -13.5zM14 0l-4 50q9 7 31 16l13 5q21 9 31.5 23t26.5 60
l207 634h91l223 -671q8 -22 17.5 -31.5t26.5 -15.5l8 -3q22 -7 34 -16l-5 -51h-285l-5 50q11 7 34 15l16 5q21 6 29 15.5t7.5 28.5t-11.5 55l-24 77q-3 10 -14 10h-222q-10 0 -14 -10l-34 -110q-10 -34 -6.5 -47.5t20.5 -18.5l17 -5q23 -6 34 -16l-6 -49h-236zM265 330h170
q15 0 10 14l-94 292h-4l-91 -292q-5 -14 9 -14z" />
    <glyph glyph-name="AE" unicode="&#xc6;" horiz-adv-x="955" 
d="M8 0l-3 50q11 8 34 16l19 7q23 8 38 25.5t32 53.5l214 457q29 58 29 73q0 10 -6.5 16.5t-24.5 13.5l-21 9q-15 5 -33 15l5 52h600v-202h-50q-7 11 -21 54l-16 51q-4 13 -10 16t-23 3h-167q-14 0 -14 -14v-241q0 -14 14 -14h51q31 0 40.5 5.5t16.5 26.5l5 15q7 18 15 30
l43 -5v-219l-43 -5q-8 10 -14 25l-6 18q-9 23 -19.5 28.5t-38.5 5.5h-50q-14 0 -14 -14v-260q0 -14 14 -14h188q17 0 23 3t10 16l14 42q15 53 23 63h50v-202h-509l-6 53q7 7 27 14l19 6q23 7 28 20.5t5 56.5v88q0 16 -15 16h-188q-15 0 -21 -14l-52 -114q-11 -22 -11 -33
q0 -17 22 -23l16 -5q25 -8 33 -16l-6 -49h-246zM311 329h145q20 0 20 24v345h-14l-156 -344q-6 -12 -6 -17q0 -8 11 -8z" />
    <glyph glyph-name="Ccedilla" unicode="&#xc7;" horiz-adv-x="610" 
d="M585 176q-33 -80 -92.5 -132.5t-146.5 -55.5l-8 -19q46 -11 71 -37t25 -62q0 -40 -31 -68.5t-85 -28.5q-64 0 -111 32l22 53q35 -25 72 -25q20 0 31.5 11t11.5 29q0 49 -76 62l23 56q-121 16 -186.5 118t-65.5 280q0 196 78 303.5t219 107.5q82 0 140 -44q10 -6 13 6
l7 32h71v-216h-73l-6 27q-25 120 -134 120q-98 0 -145.5 -87.5t-47.5 -239.5q0 -329 188 -329q106 0 175 137z" />
    <glyph glyph-name="Egrave" unicode="&#xc8;" horiz-adv-x="597" 
d="M394 854l-229 78l47 91l212 -109zM45 0l-6 53q7 7 27 14l19 6q23 7 28 20.5t5 56.5v489q0 44 -5 56t-30 21l-18 6q-16 6 -25 14l5 52h488v-202h-50q-7 11 -21 54l-16 51q-4 13 -10 16t-23 3h-166q-14 0 -14 -14v-241q0 -14 14 -14h50q31 0 41 5.5t17 26.5l5 15
q6 17 15 30l42 -5v-219l-42 -5q-7 7 -14 25l-7 18q-8 21 -20 27.5t-38 6.5h-49q-14 0 -14 -14v-260q0 -14 14 -14h187q17 0 23 3.5t10 15.5l14 42q14 48 23 63h50v-202h-509z" />
    <glyph glyph-name="Eacute" unicode="&#xc9;" horiz-adv-x="597" 
d="M224 854l-30 60l212 109l47 -91zM45 0l-6 53q7 7 27 14l19 6q23 7 28 20.5t5 56.5v489q0 44 -5 56t-30 21l-18 6q-16 6 -25 14l5 52h488v-202h-50q-7 11 -21 54l-16 51q-4 13 -10 16t-23 3h-166q-14 0 -14 -14v-241q0 -14 14 -14h50q31 0 41 5.5t17 26.5l5 15q6 17 15 30
l42 -5v-219l-42 -5q-7 7 -14 25l-7 18q-8 21 -20 27.5t-38 6.5h-49q-14 0 -14 -14v-260q0 -14 14 -14h187q17 0 23 3.5t10 15.5l14 42q14 48 23 63h50v-202h-509z" />
    <glyph glyph-name="Ecircumflex" unicode="&#xca;" horiz-adv-x="597" 
d="M199 842l-44 48l118 126h82l118 -126l-44 -49l-115 95zM45 0l-6 53q7 7 27 14l19 6q23 7 28 20.5t5 56.5v489q0 44 -5 56t-30 21l-18 6q-16 6 -25 14l5 52h488v-202h-50q-7 11 -21 54l-16 51q-4 13 -10 16t-23 3h-166q-14 0 -14 -14v-241q0 -14 14 -14h50q31 0 41 5.5
t17 26.5l5 15q6 17 15 30l42 -5v-219l-42 -5q-7 7 -14 25l-7 18q-8 21 -20 27.5t-38 6.5h-49q-14 0 -14 -14v-260q0 -14 14 -14h187q17 0 23 3.5t10 15.5l14 42q14 48 23 63h50v-202h-509z" />
    <glyph glyph-name="Edieresis" unicode="&#xcb;" horiz-adv-x="597" 
d="M215 859q-31 0 -50 18.5t-19 49.5t19 49.5t50 18.5t49 -18.5t18 -49.5t-18 -49.5t-49 -18.5zM412 859q-31 0 -49.5 18.5t-18.5 49.5t18.5 49.5t49.5 18.5t49.5 -18.5t18.5 -49.5t-18.5 -49.5t-49.5 -18.5zM45 0l-6 53q7 7 27 14l19 6q23 7 28 20.5t5 56.5v489q0 44 -5 56
t-30 21l-18 6q-16 6 -25 14l5 52h488v-202h-50q-7 11 -21 54l-16 51q-4 13 -10 16t-23 3h-166q-14 0 -14 -14v-241q0 -14 14 -14h50q31 0 41 5.5t17 26.5l5 15q6 17 15 30l42 -5v-219l-42 -5q-7 7 -14 25l-7 18q-8 21 -20 27.5t-38 6.5h-49q-14 0 -14 -14v-260q0 -14 14 -14
h187q17 0 23 3.5t10 15.5l14 42q14 48 23 63h50v-202h-509z" />
    <glyph glyph-name="Igrave" unicode="&#xcc;" horiz-adv-x="362" 
d="M263 854l-229 78l47 91l212 -109zM51 0l-6 53q7 7 27 14l19 6q23 7 28 20.5t5 56.5v489q0 43 -5.5 55.5t-28.5 20.5l-17 6q-18 6 -28 15l6 52h261l5 -52q-10 -9 -27 -15l-19 -6q-22 -7 -27 -20t-5 -56v-490q0 -43 5 -56t27 -20l15 -5q20 -7 31 -16l-5 -52h-261z" />
    <glyph glyph-name="Iacute" unicode="&#xcd;" horiz-adv-x="362" 
d="M93 854l-30 60l212 109l47 -91zM51 0l-6 53q7 7 27 14l19 6q23 7 28 20.5t5 56.5v489q0 43 -5.5 55.5t-28.5 20.5l-17 6q-18 6 -28 15l6 52h261l5 -52q-10 -9 -27 -15l-19 -6q-22 -7 -27 -20t-5 -56v-490q0 -43 5 -56t27 -20l15 -5q20 -7 31 -16l-5 -52h-261z" />
    <glyph glyph-name="Icircumflex" unicode="&#xce;" horiz-adv-x="362" 
d="M68 842l-44 48l118 126h82l118 -126l-44 -49l-115 95zM51 0l-6 53q7 7 27 14l19 6q23 7 28 20.5t5 56.5v489q0 43 -5.5 55.5t-28.5 20.5l-17 6q-18 6 -28 15l6 52h261l5 -52q-10 -9 -27 -15l-19 -6q-22 -7 -27 -20t-5 -56v-490q0 -43 5 -56t27 -20l15 -5q20 -7 31 -16
l-5 -52h-261z" />
    <glyph glyph-name="Idieresis" unicode="&#xcf;" horiz-adv-x="362" 
d="M84 859q-31 0 -50 18.5t-19 49.5t19 49.5t50 18.5t49 -18.5t18 -49.5t-18 -49.5t-49 -18.5zM281 859q-31 0 -49.5 18.5t-18.5 49.5t18.5 49.5t49.5 18.5t49.5 -18.5t18.5 -49.5t-18.5 -49.5t-49.5 -18.5zM51 0l-6 53q7 7 27 14l19 6q23 7 28 20.5t5 56.5v489
q0 43 -5.5 55.5t-28.5 20.5l-17 6q-18 6 -28 15l6 52h261l5 -52q-10 -9 -27 -15l-19 -6q-22 -7 -27 -20t-5 -56v-490q0 -43 5 -56t27 -20l15 -5q20 -7 31 -16l-5 -52h-261z" />
    <glyph glyph-name="Eth" unicode="&#xd0;" horiz-adv-x="696" 
d="M279 788q189 0 283.5 -100t94.5 -286q0 -193 -95 -297.5t-279 -104.5h-238l-6 53q7 7 27 14l19 6q23 7 28 20.5t5 56.5v226h-82v79h82v183q0 43 -5.5 56t-28.5 21l-19 6q-15 5 -26 14l6 53h234zM272 77q263 0 263 320q0 154 -59 234t-202 80h-27q-14 0 -14 -14v-242h164
v-79h-164v-285q0 -14 14 -14h25z" />
    <glyph glyph-name="Ntilde" unicode="&#xd1;" horiz-adv-x="752" 
d="M246 861l-59 34q17 45 50 71t72 26q34 0 80 -26t66 -26q41 0 56 50l57 -34q-10 -41 -40 -70t-69 -29q-36 0 -83 26t-64 26q-47 0 -66 -48zM45 0l-6 52q9 9 27 14l19 7q23 7 28 20.5t5 56.5v488q0 44 -5 56t-29 20l-20 7q-15 5 -24 14l5 53h188l327 -586v439q0 43 -5 55
t-27 19l-15 5q-20 7 -31 16l5 52h228l6 -52q-9 -9 -27 -14l-19 -7q-23 -7 -28 -20.5t-5 -56.5v-638h-93l-349 623v-476q0 -43 5 -55t27 -19l16 -5q18 -6 30 -16l-5 -52h-228z" />
    <glyph glyph-name="Ograve" unicode="&#xd2;" horiz-adv-x="680" 
d="M423 854l-229 78l47 91l212 -109zM338 -12q-143 0 -221 105t-78 296q0 193 80 302t223 109q140 0 219.5 -107.5t79.5 -298.5q0 -192 -80 -299t-223 -107zM340 67q86 0 132.5 85.5t46.5 242.5q0 156 -46.5 241t-131.5 85t-132.5 -85t-47.5 -238q0 -158 46.5 -244.5
t132.5 -86.5z" />
    <glyph glyph-name="Oacute" unicode="&#xd3;" horiz-adv-x="680" 
d="M253 854l-30 60l212 109l47 -91zM338 -12q-143 0 -221 105t-78 296q0 193 80 302t223 109q140 0 219.5 -107.5t79.5 -298.5q0 -192 -80 -299t-223 -107zM340 67q86 0 132.5 85.5t46.5 242.5q0 156 -46.5 241t-131.5 85t-132.5 -85t-47.5 -238q0 -158 46.5 -244.5
t132.5 -86.5z" />
    <glyph glyph-name="Ocircumflex" unicode="&#xd4;" horiz-adv-x="680" 
d="M228 842l-44 48l118 126h82l118 -126l-44 -49l-115 95zM338 -12q-143 0 -221 105t-78 296q0 193 80 302t223 109q140 0 219.5 -107.5t79.5 -298.5q0 -192 -80 -299t-223 -107zM340 67q86 0 132.5 85.5t46.5 242.5q0 156 -46.5 241t-131.5 85t-132.5 -85t-47.5 -238
q0 -158 46.5 -244.5t132.5 -86.5z" />
    <glyph glyph-name="Otilde" unicode="&#xd5;" horiz-adv-x="680" 
d="M207 861l-59 34q17 45 50 71t72 26q34 0 80 -26t66 -26q41 0 56 50l57 -34q-10 -41 -40 -70t-69 -29q-36 0 -83 26t-64 26q-47 0 -66 -48zM338 -12q-143 0 -221 105t-78 296q0 193 80 302t223 109q140 0 219.5 -107.5t79.5 -298.5q0 -192 -80 -299t-223 -107zM340 67
q86 0 132.5 85.5t46.5 242.5q0 156 -46.5 241t-131.5 85t-132.5 -85t-47.5 -238q0 -158 46.5 -244.5t132.5 -86.5z" />
    <glyph glyph-name="Odieresis" unicode="&#xd6;" horiz-adv-x="680" 
d="M244 859q-31 0 -50 18.5t-19 49.5t19 49.5t50 18.5t49 -18.5t18 -49.5t-18 -49.5t-49 -18.5zM441 859q-31 0 -49.5 18.5t-18.5 49.5t18.5 49.5t49.5 18.5t49.5 -18.5t18.5 -49.5t-18.5 -49.5t-49.5 -18.5zM338 -12q-143 0 -221 105t-78 296q0 193 80 302t223 109
q140 0 219.5 -107.5t79.5 -298.5q0 -192 -80 -299t-223 -107zM340 67q86 0 132.5 85.5t46.5 242.5q0 156 -46.5 241t-131.5 85t-132.5 -85t-47.5 -238q0 -158 46.5 -244.5t132.5 -86.5z" />
    <glyph glyph-name="multiply" unicode="&#xd7;" horiz-adv-x="578" 
d="M92 76l-54 52l196 198l-187 193l53 53l190 -192l185 191l55 -51l-187 -191l196 -199l-53 -53l-197 198z" />
    <glyph glyph-name="Oslash" unicode="&#xd8;" horiz-adv-x="680" 
d="M553 703q88 -107 88 -309q0 -192 -80 -299t-223 -107q-94 0 -161 46l-62 -110l-60 36l69 123q-85 107 -85 306q0 193 80 302t223 109q92 0 159 -47l60 107l60 -36zM161 398q0 -123 28 -200l263 469q-43 54 -111 54q-85 0 -132.5 -85t-47.5 -238zM340 67q86 0 132.5 85.5
t46.5 242.5q0 123 -28 198l-264 -470q44 -56 113 -56z" />
    <glyph glyph-name="Ugrave" unicode="&#xd9;" horiz-adv-x="716" 
d="M457 854l-229 78l47 91l212 -109zM360 -12q-125 0 -191 67t-66 196v388q0 43 -5.5 56t-26.5 20l-17 6q-20 6 -29 15l5 52h261l6 -52q-9 -9 -29 -15l-17 -6q-22 -7 -27.5 -20t-5.5 -56v-384q0 -93 39 -137t122 -44q79 0 115.5 46.5t36.5 148.5v370q0 43 -5.5 56t-27.5 20
l-17 6q-18 6 -29 15l6 52h227l6 -52q-9 -9 -29 -15l-17 -6q-22 -7 -27.5 -20t-5.5 -56v-377q0 -274 -252 -274z" />
    <glyph glyph-name="Uacute" unicode="&#xda;" horiz-adv-x="716" 
d="M287 854l-30 60l212 109l47 -91zM360 -12q-125 0 -191 67t-66 196v388q0 43 -5.5 56t-26.5 20l-17 6q-20 6 -29 15l5 52h261l6 -52q-9 -9 -29 -15l-17 -6q-22 -7 -27.5 -20t-5.5 -56v-384q0 -93 39 -137t122 -44q79 0 115.5 46.5t36.5 148.5v370q0 43 -5.5 56t-27.5 20
l-17 6q-18 6 -29 15l6 52h227l6 -52q-9 -9 -29 -15l-17 -6q-22 -7 -27.5 -20t-5.5 -56v-377q0 -274 -252 -274z" />
    <glyph glyph-name="Ucircumflex" unicode="&#xdb;" horiz-adv-x="716" 
d="M262 842l-44 48l118 126h82l118 -126l-44 -49l-115 95zM360 -12q-125 0 -191 67t-66 196v388q0 43 -5.5 56t-26.5 20l-17 6q-20 6 -29 15l5 52h261l6 -52q-9 -9 -29 -15l-17 -6q-22 -7 -27.5 -20t-5.5 -56v-384q0 -93 39 -137t122 -44q79 0 115.5 46.5t36.5 148.5v370
q0 43 -5.5 56t-27.5 20l-17 6q-18 6 -29 15l6 52h227l6 -52q-9 -9 -29 -15l-17 -6q-22 -7 -27.5 -20t-5.5 -56v-377q0 -274 -252 -274z" />
    <glyph glyph-name="Udieresis" unicode="&#xdc;" horiz-adv-x="716" 
d="M278 859q-31 0 -50 18.5t-19 49.5t19 49.5t50 18.5t49 -18.5t18 -49.5t-18 -49.5t-49 -18.5zM475 859q-31 0 -49.5 18.5t-18.5 49.5t18.5 49.5t49.5 18.5t49.5 -18.5t18.5 -49.5t-18.5 -49.5t-49.5 -18.5zM360 -12q-125 0 -191 67t-66 196v388q0 43 -5.5 56t-26.5 20
l-17 6q-20 6 -29 15l5 52h261l6 -52q-9 -9 -29 -15l-17 -6q-22 -7 -27.5 -20t-5.5 -56v-384q0 -93 39 -137t122 -44q79 0 115.5 46.5t36.5 148.5v370q0 43 -5.5 56t-27.5 20l-17 6q-18 6 -29 15l6 52h227l6 -52q-9 -9 -29 -15l-17 -6q-22 -7 -27.5 -20t-5.5 -56v-377
q0 -274 -252 -274z" />
    <glyph glyph-name="Yacute" unicode="&#xdd;" horiz-adv-x="654" 
d="M491 932l-229 -78l-30 60l212 109zM649 788l6 -52q-5 -5 -29 -13l-15 -6q-18 -6 -31 -21t-32 -53l-152 -304v-190q0 -44 5 -56.5t27 -19.5l20 -6q22 -7 31 -15l-5 -52h-270l-6 52q9 9 29 14l22 7q22 7 27 19.5t5 56.5v184l-167 320q-16 32 -26 43t-29 18l-18 6
q-24 9 -32 16l5 52h282l7 -53q-9 -7 -28 -12l-21 -6q-28 -9 -31 -24.5t20 -60.5l111 -211l114 233q26 54 -8 63l-18 6q-22 7 -32 15l5 50h234z" />
    <glyph glyph-name="Thorn" unicode="&#xde;" horiz-adv-x="614" 
d="M51 0l-6 53q7 7 27 14l19 6q23 7 28 20.5t5 56.5v489q0 43 -5.5 55.5t-28.5 20.5l-17 6q-18 6 -28 15l6 52h261l5 -52q-10 -9 -27 -15l-22 -7q-29 -9 -29 -35v-32q0 -15 16 -15h50q134 0 205 -54.5t71 -163.5q0 -113 -73.5 -173t-215.5 -60h-37q-16 0 -16 -17v-38
q0 -26 5.5 -36t26.5 -17l15 -5q20 -7 31 -16l-5 -52h-261zM254 257h39q168 0 168 153q0 74 -42.5 110t-114.5 36h-51q-14 0 -14 -15v-269q0 -15 15 -15z" />
    <glyph glyph-name="germandbls" unicode="&#xdf;" horiz-adv-x="640" 
d="M483 -12q-60 0 -101 39q-11 11 -15 -3l-6 -24h-69v193h75l4 -38q9 -90 81 -90q27 0 45 17t18 48q0 29 -18.5 55t-61.5 61l-51 43q-43 36 -60.5 61t-17.5 61q0 27 13 51t31 42.5t36.5 37.5t31.5 45t13 56q0 40 -27.5 66t-66.5 26q-53 0 -84 -33t-31 -102v-600h-192l-2 49
q13 8 33 13l18 6q20 6 26.5 18.5t6.5 42.5v347h-91v76h91v43q0 98 64.5 151.5t162.5 53.5q91 0 147.5 -45.5t56.5 -113.5q0 -38 -20 -71.5t-44 -53t-44 -43.5t-20 -47q0 -20 13 -35.5t44 -39.5l47 -37q52 -42 77.5 -79t25.5 -94q0 -70 -43.5 -111.5t-95.5 -41.5z" />
    <glyph glyph-name="agrave" unicode="&#xe0;" horiz-adv-x="588" 
d="M394 672l-39 -52l-203 126l65 78zM538 62q14 -4 25 -10l-3 -52h-157v90q-22 -45 -70.5 -73.5t-109.5 -28.5q-81 0 -134 42t-53 114t48 113t165 65l113 24q15 3 20 9t5 21v18q0 99 -111 99q-90 0 -90 -73v-44h-96q-12 0 -19 10t-7 31q0 63 55 105t158 42q220 0 220 -179
v-273q0 -24 4.5 -33t21.5 -13zM387 210v76q-25 -10 -70 -20l-43 -11q-67 -15 -95 -37.5t-28 -63.5q0 -38 27.5 -63t71.5 -25q60 0 98.5 39t38.5 105z" />
    <glyph glyph-name="aacute" unicode="&#xe1;" horiz-adv-x="588" 
d="M440 746l-203 -126l-39 52l177 152zM538 62q14 -4 25 -10l-3 -52h-157v90q-22 -45 -70.5 -73.5t-109.5 -28.5q-81 0 -134 42t-53 114t48 113t165 65l113 24q15 3 20 9t5 21v18q0 99 -111 99q-90 0 -90 -73v-44h-96q-12 0 -19 10t-7 31q0 63 55 105t158 42q220 0 220 -179
v-273q0 -24 4.5 -33t21.5 -13zM387 210v76q-25 -10 -70 -20l-43 -11q-67 -15 -95 -37.5t-28 -63.5q0 -38 27.5 -63t71.5 -25q60 0 98.5 39t38.5 105z" />
    <glyph glyph-name="acircumflex" unicode="&#xe2;" horiz-adv-x="588" 
d="M287 710l-112 -86l-45 45l125 124h64l126 -124l-46 -45zM538 62q14 -4 25 -10l-3 -52h-157v90q-22 -45 -70.5 -73.5t-109.5 -28.5q-81 0 -134 42t-53 114t48 113t165 65l113 24q15 3 20 9t5 21v18q0 99 -111 99q-90 0 -90 -73v-44h-96q-12 0 -19 10t-7 31q0 63 55 105
t158 42q220 0 220 -179v-273q0 -24 4.5 -33t21.5 -13zM387 210v76q-25 -10 -70 -20l-43 -11q-67 -15 -95 -37.5t-28 -63.5q0 -38 27.5 -63t71.5 -25q60 0 98.5 39t38.5 105z" />
    <glyph glyph-name="atilde" unicode="&#xe3;" horiz-adv-x="588" 
d="M217 686q-48 0 -69 -57l-59 40q16 48 50 75.5t76 27.5q36 0 83.5 -29.5t66.5 -29.5q43 0 59 60l57 -37q-9 -43 -39.5 -76t-69.5 -33q-38 0 -86 29.5t-69 29.5zM538 62q14 -4 25 -10l-3 -52h-157v90q-22 -45 -70.5 -73.5t-109.5 -28.5q-81 0 -134 42t-53 114t48 113
t165 65l113 24q15 3 20 9t5 21v18q0 99 -111 99q-90 0 -90 -73v-44h-96q-12 0 -19 10t-7 31q0 63 55 105t158 42q220 0 220 -179v-273q0 -24 4.5 -33t21.5 -13zM387 210v76q-25 -10 -70 -20l-43 -11q-67 -15 -95 -37.5t-28 -63.5q0 -38 27.5 -63t71.5 -25q60 0 98.5 39
t38.5 105z" />
    <glyph glyph-name="adieresis" unicode="&#xe4;" horiz-adv-x="588" 
d="M184 635q-28 0 -48.5 20.5t-20.5 48.5t20.5 48.5t48.5 20.5t48.5 -20.5t20.5 -48.5t-20.5 -48.5t-48.5 -20.5zM390 635q-28 0 -48.5 20.5t-20.5 48.5t20.5 48.5t48.5 20.5t48.5 -20.5t20.5 -48.5t-20.5 -48.5t-48.5 -20.5zM538 62q14 -4 25 -10l-3 -52h-157v90
q-22 -45 -70.5 -73.5t-109.5 -28.5q-81 0 -134 42t-53 114t48 113t165 65l113 24q15 3 20 9t5 21v18q0 99 -111 99q-90 0 -90 -73v-44h-96q-12 0 -19 10t-7 31q0 63 55 105t158 42q220 0 220 -179v-273q0 -24 4.5 -33t21.5 -13zM387 210v76q-25 -10 -70 -20l-43 -11
q-67 -15 -95 -37.5t-28 -63.5q0 -38 27.5 -63t71.5 -25q60 0 98.5 39t38.5 105z" />
    <glyph glyph-name="aring" unicode="&#xe5;" horiz-adv-x="588" 
d="M286 610q-53 0 -86.5 28.5t-33.5 78.5q0 48 33.5 77.5t87.5 29.5q52 0 86 -29t34 -77q0 -50 -33.5 -79t-87.5 -29zM286 771q-23 0 -37.5 -15t-14.5 -38q0 -24 15 -39.5t38 -15.5t37 15.5t14 39.5t-15 38.5t-37 14.5zM538 62q14 -4 25 -10l-3 -52h-157v90
q-22 -45 -70.5 -73.5t-109.5 -28.5q-81 0 -134 42t-53 114t48 113t165 65l113 24q15 3 20 9t5 21v18q0 99 -111 99q-90 0 -90 -73v-44h-96q-12 0 -19 10t-7 31q0 63 55 105t158 42q220 0 220 -179v-273q0 -24 4.5 -33t21.5 -13zM387 210v76q-25 -10 -70 -20l-43 -11
q-67 -15 -95 -37.5t-28 -63.5q0 -38 27.5 -63t71.5 -25q60 0 98.5 39t38.5 105z" />
    <glyph glyph-name="ae" unicode="&#xe6;" horiz-adv-x="933" 
d="M223 -12q-81 0 -134 42t-53 114t48 113t165 65l113 24q15 3 20 9t5 21v18q0 99 -111 99q-90 0 -90 -73v-44h-96q-12 0 -19 10t-7 31q0 63 55 105t158 42q134 0 182 -87q28 40 80 63.5t109 23.5q93 0 158 -55q36 -29 58 -68t22 -75q0 -16 -12.5 -27t-42.5 -24
q-66 -29 -159 -57t-160 -40q-10 -2 -10 -12q0 -50 46 -91.5t123 -41.5q102 0 176 88l41 -47q-36 -57 -97.5 -91.5t-137.5 -34.5q-77 0 -137 33.5t-88 87.5q-21 -52 -77 -86.5t-128 -34.5zM505 289q25 0 101.5 20.5t124.5 40.5q18 7 25 13t7 16q0 39 -32 73q-33 40 -93 40
q-64 0 -105 -46t-41 -125q0 -12 2 -24q2 -8 11 -8zM250 66q60 0 98.5 39t38.5 105v76q-25 -10 -70 -20l-43 -11q-67 -15 -95 -37.5t-28 -63.5q0 -38 27.5 -63t71.5 -25z" />
    <glyph glyph-name="ccedilla" unicode="&#xe7;" horiz-adv-x="544" 
d="M511 108q-80 -110 -200 -119l-8 -20q46 -11 71 -37t25 -62q0 -40 -31 -68.5t-85 -28.5q-64 0 -111 32l22 53q35 -25 72 -25q20 0 31.5 11t11.5 29q0 49 -76 62l22 55q-100 12 -161.5 85t-61.5 198q0 134 72.5 212.5t181.5 78.5q70 0 115 -32q11 -7 15 5l4 21h68v-196h-74
l-3 16q-9 62 -37 87.5t-76 25.5q-61 0 -105 -53t-44 -153q0 -106 44.5 -160.5t118.5 -54.5q83 0 156 83z" />
    <glyph glyph-name="egrave" unicode="&#xe8;" horiz-adv-x="583" 
d="M354 620l-203 126l65 78l177 -152zM305 -12q-126 0 -199.5 80t-73.5 209q0 132 75.5 209.5t187.5 77.5q93 0 159 -53q36 -29 59 -67.5t23 -76.5q0 -17 -11.5 -27.5t-42.5 -24.5q-157 -68 -320 -97q-11 -3 -11 -11q0 -48 46.5 -91t122.5 -43q103 0 177 88l41 -47
q-37 -57 -97.5 -91.5t-135.5 -34.5zM155 289q25 0 101 20.5t125 40.5q18 7 25 13t7 16q0 39 -32 73q-33 40 -93 40q-64 0 -105 -46t-41 -125q0 -12 2 -24q2 -8 11 -8z" />
    <glyph glyph-name="eacute" unicode="&#xe9;" horiz-adv-x="583" 
d="M236 620l-39 52l177 152l65 -78zM305 -12q-126 0 -199.5 80t-73.5 209q0 132 75.5 209.5t187.5 77.5q93 0 159 -53q36 -29 59 -67.5t23 -76.5q0 -17 -11.5 -27.5t-42.5 -24.5q-157 -68 -320 -97q-11 -3 -11 -11q0 -48 46.5 -91t122.5 -43q103 0 177 88l41 -47
q-37 -57 -97.5 -91.5t-135.5 -34.5zM155 289q25 0 101 20.5t125 40.5q18 7 25 13t7 16q0 39 -32 73q-33 40 -93 40q-64 0 -105 -46t-41 -125q0 -12 2 -24q2 -8 11 -8z" />
    <glyph glyph-name="ecircumflex" unicode="&#xea;" horiz-adv-x="583" 
d="M174 624l-45 45l125 124h64l126 -124l-46 -45l-112 86zM305 -12q-126 0 -199.5 80t-73.5 209q0 132 75.5 209.5t187.5 77.5q93 0 159 -53q36 -29 59 -67.5t23 -76.5q0 -17 -11.5 -27.5t-42.5 -24.5q-157 -68 -320 -97q-11 -3 -11 -11q0 -48 46.5 -91t122.5 -43
q103 0 177 88l41 -47q-37 -57 -97.5 -91.5t-135.5 -34.5zM155 289q25 0 101 20.5t125 40.5q18 7 25 13t7 16q0 39 -32 73q-33 40 -93 40q-64 0 -105 -46t-41 -125q0 -12 2 -24q2 -8 11 -8z" />
    <glyph glyph-name="edieresis" unicode="&#xeb;" horiz-adv-x="583" 
d="M183 635q-28 0 -48.5 20.5t-20.5 48.5t20.5 48.5t48.5 20.5t48.5 -20.5t20.5 -48.5t-20.5 -48.5t-48.5 -20.5zM389 635q-28 0 -48.5 20.5t-20.5 48.5t20.5 48.5t48.5 20.5t48.5 -20.5t20.5 -48.5t-20.5 -48.5t-48.5 -20.5zM305 -12q-126 0 -199.5 80t-73.5 209
q0 132 75.5 209.5t187.5 77.5q93 0 159 -53q36 -29 59 -67.5t23 -76.5q0 -17 -11.5 -27.5t-42.5 -24.5q-157 -68 -320 -97q-11 -3 -11 -11q0 -48 46.5 -91t122.5 -43q103 0 177 88l41 -47q-37 -57 -97.5 -91.5t-135.5 -34.5zM155 289q25 0 101 20.5t125 40.5q18 7 25 13
t7 16q0 39 -32 73q-33 40 -93 40q-64 0 -105 -46t-41 -125q0 -12 2 -24q2 -8 11 -8z" />
    <glyph glyph-name="igrave" unicode="&#xec;" horiz-adv-x="295" 
d="M176 612l-165 145l67 66l146 -164zM28 0l-3 52q12 6 33 12l15 5q18 7 23.5 16.5t5.5 30.5v320q0 24 -6.5 32.5t-25.5 14.5l-15 5q-19 6 -29 12l3 52h183v-436q0 -21 6 -31t23 -16l15 -5q21 -6 33 -12l-3 -52h-258z" />
    <glyph glyph-name="iacute" unicode="&#xed;" horiz-adv-x="295" 
d="M104 612l-49 47l146 164l67 -66zM28 0l-3 52q12 6 33 12l15 5q18 7 23.5 16.5t5.5 30.5v320q0 24 -6.5 32.5t-25.5 14.5l-15 5q-19 6 -29 12l3 52h183v-436q0 -21 6 -31t23 -16l15 -5q21 -6 33 -12l-3 -52h-258z" />
    <glyph glyph-name="icircumflex" unicode="&#xee;" horiz-adv-x="295" 
d="M43 623l-49 43l106 127h64l106 -127l-49 -43l-89 89zM28 0l-3 52q12 6 33 12l15 5q18 7 23.5 16.5t5.5 30.5v320q0 24 -6.5 32.5t-25.5 14.5l-15 5q-19 6 -29 12l3 52h183v-436q0 -21 6 -31t23 -16l15 -5q21 -6 33 -12l-3 -52h-258z" />
    <glyph glyph-name="idieresis" unicode="&#xef;" horiz-adv-x="295" 
d="M44 635q-29 0 -47 20t-18 49t18 49t47 20t47 -20t18 -49t-18 -49t-47 -20zM220 635q-29 0 -47 20t-18 49t18 49t47 20t47 -20t18 -49t-18 -49t-47 -20zM28 0l-3 52q12 6 33 12l15 5q18 7 23.5 16.5t5.5 30.5v320q0 24 -6.5 32.5t-25.5 14.5l-15 5q-19 6 -29 12l3 52h183
v-436q0 -21 6 -31t23 -16l15 -5q21 -6 33 -12l-3 -52h-258z" />
    <glyph glyph-name="eth" unicode="&#xf0;" horiz-adv-x="576" 
d="M396 707q146 -168 146 -409q0 -144 -69.5 -227t-185.5 -83q-113 0 -183 77t-70 211q0 127 66.5 207.5t173.5 80.5q83 0 137 -59q-27 94 -88 162l-101 -54l-31 56l84 46q-27 28 -80 66l56 45q60 -38 97 -74l98 55l32 -56zM291 65q64 0 99 60t35 155q0 87 -33 147t-104 60
q-66 0 -102 -58.5t-36 -152.5q0 -55 12.5 -100t45.5 -78t83 -33z" />
    <glyph glyph-name="ntilde" unicode="&#xf1;" horiz-adv-x="654" 
d="M272 686q-48 0 -69 -57l-59 40q16 48 50 75.5t76 27.5q36 0 83.5 -29.5t66.5 -29.5q43 0 59 60l57 -37q-9 -43 -39.5 -76t-69.5 -33q-38 0 -86 29.5t-69 29.5zM600 64q7 -2 29 -12l-3 -52h-177v362q0 115 -96 115q-72 0 -106 -55t-34 -133v-169q0 -23 7 -33t29 -17l16 -6
q18 -5 33 -12l-3 -52h-271l-3 52q15 7 33 12l16 6q20 7 26.5 17t6.5 33v312q0 25 -7 34.5t-27 15.5l-16 6q-18 6 -31 12l3 52h188v-75q59 87 168 87q85 0 131.5 -50.5t46.5 -136.5v-263q0 -22 6 -30.5t22 -14.5z" />
    <glyph glyph-name="ograve" unicode="&#xf2;" horiz-adv-x="597" 
d="M369 620l-203 126l65 78l177 -152zM297 -12q-116 0 -190.5 78.5t-74.5 208.5q0 129 76 209t191 80q121 0 193.5 -79t72.5 -210q0 -129 -76.5 -208t-191.5 -79zM300 63q64 0 106 54.5t42 158.5q0 105 -41.5 159t-106.5 54q-63 0 -107 -55t-44 -158t43.5 -158t107.5 -55z
" />
    <glyph glyph-name="oacute" unicode="&#xf3;" horiz-adv-x="597" 
d="M251 620l-39 52l177 152l65 -78zM297 -12q-116 0 -190.5 78.5t-74.5 208.5q0 129 76 209t191 80q121 0 193.5 -79t72.5 -210q0 -129 -76.5 -208t-191.5 -79zM300 63q64 0 106 54.5t42 158.5q0 105 -41.5 159t-106.5 54q-63 0 -107 -55t-44 -158t43.5 -158t107.5 -55z" />
    <glyph glyph-name="ocircumflex" unicode="&#xf4;" horiz-adv-x="597" 
d="M189 624l-45 45l125 124h64l126 -124l-46 -45l-112 86zM297 -12q-116 0 -190.5 78.5t-74.5 208.5q0 129 76 209t191 80q121 0 193.5 -79t72.5 -210q0 -129 -76.5 -208t-191.5 -79zM300 63q64 0 106 54.5t42 158.5q0 105 -41.5 159t-106.5 54q-63 0 -107 -55t-44 -158
t43.5 -158t107.5 -55z" />
    <glyph glyph-name="otilde" unicode="&#xf5;" horiz-adv-x="597" 
d="M162 629l-59 40q16 48 50 75.5t76 27.5q36 0 83.5 -29.5t66.5 -29.5q43 0 59 60l57 -37q-9 -43 -39.5 -76t-69.5 -33q-38 0 -86 29.5t-69 29.5q-48 0 -69 -57zM297 -12q-116 0 -190.5 78.5t-74.5 208.5q0 129 76 209t191 80q121 0 193.5 -79t72.5 -210q0 -129 -76.5 -208
t-191.5 -79zM300 63q64 0 106 54.5t42 158.5q0 105 -41.5 159t-106.5 54q-63 0 -107 -55t-44 -158t43.5 -158t107.5 -55z" />
    <glyph glyph-name="odieresis" unicode="&#xf6;" horiz-adv-x="597" 
d="M198 635q-28 0 -48.5 20.5t-20.5 48.5t20.5 48.5t48.5 20.5t48.5 -20.5t20.5 -48.5t-20.5 -48.5t-48.5 -20.5zM404 635q-28 0 -48.5 20.5t-20.5 48.5t20.5 48.5t48.5 20.5t48.5 -20.5t20.5 -48.5t-20.5 -48.5t-48.5 -20.5zM297 -12q-116 0 -190.5 78.5t-74.5 208.5
q0 129 76 209t191 80q121 0 193.5 -79t72.5 -210q0 -129 -76.5 -208t-191.5 -79zM300 63q64 0 106 54.5t42 158.5q0 105 -41.5 159t-106.5 54q-63 0 -107 -55t-44 -158t43.5 -158t107.5 -55z" />
    <glyph glyph-name="divide" unicode="&#xf7;" horiz-adv-x="578" 
d="M290 435q-31 0 -52.5 22t-21.5 53q0 33 21.5 54t52.5 21t53 -21.5t22 -53.5q0 -31 -22 -53t-53 -22zM32 281v79h514v-79h-514zM290 55q-31 0 -52.5 22t-21.5 54t21.5 53.5t52.5 21.5t53 -21.5t22 -53.5q0 -31 -22 -53.5t-53 -22.5z" />
    <glyph glyph-name="oslash" unicode="&#xf8;" horiz-adv-x="597" 
d="M472 507q96 -79 96 -232q0 -129 -76.5 -208t-191.5 -79q-60 0 -109 21l-52 -92l-62 32l55 96q-97 81 -97 230q0 129 76 209t191 80q62 0 111 -21l51 90l61 -32zM152 276q0 -84 31 -139l189 333q-31 19 -69 19q-63 0 -107 -55t-44 -158zM303 63q64 0 106 54.5t42 158.5
q0 87 -30 141l-188 -334q32 -20 70 -20z" />
    <glyph glyph-name="ugrave" unicode="&#xf9;" horiz-adv-x="632" 
d="M401 672l-39 -52l-203 126l65 78zM574 62q15 -2 28 -10l-3 -52h-163v95q-54 -107 -172 -107q-82 0 -129.5 50.5t-47.5 147.5v257q0 20 -4 28t-17 12l-13 5q-21 7 -28 12l3 52h169v-354q0 -126 94 -126q62 0 97.5 48.5t35.5 139.5v183q0 19 -5.5 27t-20.5 13l-13 5
q-21 7 -29 12l3 52h175v-440q0 -22 5 -31t20 -14z" />
    <glyph glyph-name="uacute" unicode="&#xfa;" horiz-adv-x="632" 
d="M447 746l-203 -126l-39 52l177 152zM574 62q15 -2 28 -10l-3 -52h-163v95q-54 -107 -172 -107q-82 0 -129.5 50.5t-47.5 147.5v257q0 20 -4 28t-17 12l-13 5q-21 7 -28 12l3 52h169v-354q0 -126 94 -126q62 0 97.5 48.5t35.5 139.5v183q0 19 -5.5 27t-20.5 13l-13 5
q-21 7 -29 12l3 52h175v-440q0 -22 5 -31t20 -14z" />
    <glyph glyph-name="ucircumflex" unicode="&#xfb;" horiz-adv-x="632" 
d="M294 710l-112 -86l-45 45l125 124h64l126 -124l-46 -45zM574 62q15 -2 28 -10l-3 -52h-163v95q-54 -107 -172 -107q-82 0 -129.5 50.5t-47.5 147.5v257q0 20 -4 28t-17 12l-13 5q-21 7 -28 12l3 52h169v-354q0 -126 94 -126q62 0 97.5 48.5t35.5 139.5v183q0 19 -5.5 27
t-20.5 13l-13 5q-21 7 -29 12l3 52h175v-440q0 -22 5 -31t20 -14z" />
    <glyph glyph-name="udieresis" unicode="&#xfc;" horiz-adv-x="632" 
d="M191 635q-28 0 -48.5 20.5t-20.5 48.5t20.5 48.5t48.5 20.5t48.5 -20.5t20.5 -48.5t-20.5 -48.5t-48.5 -20.5zM397 635q-28 0 -48.5 20.5t-20.5 48.5t20.5 48.5t48.5 20.5t48.5 -20.5t20.5 -48.5t-20.5 -48.5t-48.5 -20.5zM574 62q15 -2 28 -10l-3 -52h-163v95
q-54 -107 -172 -107q-82 0 -129.5 50.5t-47.5 147.5v257q0 20 -4 28t-17 12l-13 5q-21 7 -28 12l3 52h169v-354q0 -126 94 -126q62 0 97.5 48.5t35.5 139.5v183q0 19 -5.5 27t-20.5 13l-13 5q-21 7 -29 12l3 52h175v-440q0 -22 5 -31t20 -14z" />
    <glyph glyph-name="yacute" unicode="&#xfd;" horiz-adv-x="606" 
d="M470 746l-203 -126l-39 52l177 152zM598 552l2 -53q-12 -6 -30 -12l-19 -6q-18 -6 -27.5 -19t-21.5 -45l-132 -356q-63 -171 -109.5 -228t-116.5 -57q-59 0 -95 38.5t-36 105.5v4q0 38 35 38h73l3 -33q4 -37 15 -54.5t33 -17.5q27 0 46.5 31t45.5 102l-162 422
q-17 42 -26 55.5t-25 17.5l-13 4q-2 1 -14 5t-17 6l2 52h263l1 -51q-15 -7 -32 -11l-16 -5q-31 -8 -19 -41l112 -314l109 307q7 21 2.5 32t-23.5 16l-14 4l-31 11l2 52h235z" />
    <glyph glyph-name="thorn" unicode="&#xfe;" horiz-adv-x="628" 
d="M370 564q100 0 163 -77.5t63 -207.5q0 -128 -64.5 -209.5t-161.5 -81.5q-109 0 -167 84v-166q0 -24 7 -34t28 -16l16 -4q30 -8 41 -12l-3 -52h-277l-3 52q13 5 34 12l15 5q20 7 26 17t6 32v766q0 24 -6.5 32.5t-25.5 14.5l-13 5q-16 5 -31 12l3 52h183v-311
q27 41 72.5 64t94.5 23zM352 65q56 0 91.5 58.5t35.5 154.5q0 101 -35.5 155t-95.5 54q-68 0 -108 -54.5t-40 -153.5q0 -101 40 -157.5t112 -56.5z" />
    <glyph glyph-name="ydieresis" unicode="&#xff;" horiz-adv-x="606" 
d="M214 635q-28 0 -48.5 20.5t-20.5 48.5t20.5 48.5t48.5 20.5t48.5 -20.5t20.5 -48.5t-20.5 -48.5t-48.5 -20.5zM420 635q-28 0 -48.5 20.5t-20.5 48.5t20.5 48.5t48.5 20.5t48.5 -20.5t20.5 -48.5t-20.5 -48.5t-48.5 -20.5zM598 552l2 -53q-12 -6 -30 -12l-19 -6
q-18 -6 -27.5 -19t-21.5 -45l-132 -356q-63 -171 -109.5 -228t-116.5 -57q-59 0 -95 38.5t-36 105.5v4q0 38 35 38h73l3 -33q4 -37 15 -54.5t33 -17.5q27 0 46.5 31t45.5 102l-162 422q-17 42 -26 55.5t-25 17.5l-13 4q-2 1 -14 5t-17 6l2 52h263l1 -51q-15 -7 -32 -11
l-16 -5q-31 -8 -19 -41l112 -314l109 307q7 21 2.5 32t-23.5 16l-14 4l-31 11l2 52h235z" />
    <glyph glyph-name="Amacron" unicode="&#x100;" horiz-adv-x="727" 
d="M194 892v79h342v-79h-342zM14 0l-4 50q9 7 31 16l13 5q21 9 31.5 23t26.5 60l207 634h91l223 -671q8 -22 17.5 -31.5t26.5 -15.5l8 -3q22 -7 34 -16l-5 -51h-285l-5 50q11 7 34 15l16 5q21 6 29 15.5t7.5 28.5t-11.5 55l-24 77q-3 10 -14 10h-222q-10 0 -14 -10l-34 -110
q-10 -34 -6.5 -47.5t20.5 -18.5l17 -5q23 -6 34 -16l-6 -49h-236zM265 330h170q15 0 10 14l-94 292h-4l-91 -292q-5 -14 9 -14z" />
    <glyph glyph-name="amacron" unicode="&#x101;" horiz-adv-x="588" 
d="M477 734v-79h-380v79h380zM538 62q14 -4 25 -10l-3 -52h-157v90q-22 -45 -70.5 -73.5t-109.5 -28.5q-81 0 -134 42t-53 114t48 113t165 65l113 24q15 3 20 9t5 21v18q0 99 -111 99q-90 0 -90 -73v-44h-96q-12 0 -19 10t-7 31q0 63 55 105t158 42q220 0 220 -179v-273
q0 -24 4.5 -33t21.5 -13zM387 210v76q-25 -10 -70 -20l-43 -11q-67 -15 -95 -37.5t-28 -63.5q0 -38 27.5 -63t71.5 -25q60 0 98.5 39t38.5 105z" />
    <glyph glyph-name="Abreve" unicode="&#x102;" horiz-adv-x="727" 
d="M365 862q-71 0 -112.5 36.5t-49.5 103.5h78q16 -64 84 -64q70 0 84 64h78q-7 -67 -50 -103.5t-112 -36.5zM14 0l-4 50q9 7 31 16l13 5q21 9 31.5 23t26.5 60l207 634h91l223 -671q8 -22 17.5 -31.5t26.5 -15.5l8 -3q22 -7 34 -16l-5 -51h-285l-5 50q11 7 34 15l16 5
q21 6 29 15.5t7.5 28.5t-11.5 55l-24 77q-3 10 -14 10h-222q-10 0 -14 -10l-34 -110q-10 -34 -6.5 -47.5t20.5 -18.5l17 -5q23 -6 34 -16l-6 -49h-236zM265 330h170q15 0 10 14l-94 292h-4l-91 -292q-5 -14 9 -14z" />
    <glyph glyph-name="abreve" unicode="&#x103;" horiz-adv-x="588" 
d="M286 625q-73 0 -115.5 40t-47.5 105h79q5 -33 27.5 -51.5t57.5 -18.5q70 0 85 70h79q-5 -64 -48.5 -104.5t-116.5 -40.5zM538 62q14 -4 25 -10l-3 -52h-157v90q-22 -45 -70.5 -73.5t-109.5 -28.5q-81 0 -134 42t-53 114t48 113t165 65l113 24q15 3 20 9t5 21v18
q0 99 -111 99q-90 0 -90 -73v-44h-96q-12 0 -19 10t-7 31q0 63 55 105t158 42q220 0 220 -179v-273q0 -24 4.5 -33t21.5 -13zM387 210v76q-25 -10 -70 -20l-43 -11q-67 -15 -95 -37.5t-28 -63.5q0 -38 27.5 -63t71.5 -25q60 0 98.5 39t38.5 105z" />
    <glyph glyph-name="Aogonek" unicode="&#x104;" horiz-adv-x="727" 
d="M611 -148q35 0 73 35l33 -45q-56 -59 -124 -59q-54 0 -85 26.5t-31 73.5q0 34 17.5 66t48.5 51h-114l-5 50q11 7 34 15l16 5q21 6 29 15.5t7.5 28.5t-11.5 55l-24 77q-3 10 -14 10h-222q-10 0 -14 -10l-34 -110q-10 -34 -6.5 -47.5t20.5 -18.5l17 -5q23 -6 34 -16l-6 -49
h-236l-4 50q9 7 31 16l13 5q21 9 31.5 23t26.5 60l207 634h91l223 -671q8 -22 17.5 -31.5t26.5 -15.5l8 -3q22 -7 34 -16l-5 -51h-86q-63 -41 -63 -101q0 -21 12 -34t34 -13zM435 330q15 0 10 14l-94 292h-4l-91 -292q-5 -14 9 -14h170z" />
    <glyph glyph-name="aogonek" unicode="&#x105;" horiz-adv-x="584" 
d="M571 -113l33 -45q-56 -59 -126 -59q-52 0 -83 28.5t-31 77.5q0 35 21 66t54 47q-21 9 -33 29t-10 47q-25 -40 -71 -65t-102 -25q-81 0 -134 42t-53 114t48 113t165 65l113 24q15 3 20 9t5 21v18q0 99 -111 99q-90 0 -90 -73v-44h-96q-12 0 -19 10t-7 31q0 63 55 105
t158 42q220 0 220 -179v-273q0 -24 4.5 -33t21.5 -13l15 -4q14 -4 25 -10l-3 -52h-11q-38 0 -67.5 -29t-29.5 -66q0 -24 12 -38.5t34 -14.5q35 0 73 35zM387 210v76q-25 -10 -70 -20l-43 -11q-67 -15 -95 -37.5t-28 -63.5q0 -38 27.5 -63t71.5 -25q60 0 98.5 39t38.5 105z
" />
    <glyph glyph-name="Cacute" unicode="&#x106;" horiz-adv-x="610" 
d="M251 854l-30 60l212 109l47 -91zM335 -12q-141 0 -218.5 103.5t-77.5 297.5q0 196 78 303.5t219 107.5q82 0 140 -44q10 -6 13 6l7 32h71v-216h-73l-6 27q-25 120 -134 120q-98 0 -145.5 -87.5t-47.5 -239.5q0 -329 188 -329q106 0 175 137l61 -30q-34 -83 -96 -135.5
t-154 -52.5z" />
    <glyph glyph-name="cacute" unicode="&#x107;" horiz-adv-x="544" 
d="M240 620l-39 52l177 152l65 -78zM291 -12q-114 0 -186.5 74t-72.5 211q0 134 72.5 212.5t181.5 78.5q70 0 115 -32q11 -7 15 5l4 21h68v-196h-74l-3 16q-9 62 -37 87.5t-76 25.5q-61 0 -105 -53t-44 -153q0 -106 44.5 -160.5t118.5 -54.5q83 0 156 83l43 -45
q-87 -120 -220 -120z" />
    <glyph glyph-name="Ccircumflex" unicode="&#x108;" horiz-adv-x="610" 
d="M226 842l-44 48l118 126h82l118 -126l-44 -49l-115 95zM335 -12q-141 0 -218.5 103.5t-77.5 297.5q0 196 78 303.5t219 107.5q82 0 140 -44q10 -6 13 6l7 32h71v-216h-73l-6 27q-25 120 -134 120q-98 0 -145.5 -87.5t-47.5 -239.5q0 -329 188 -329q106 0 175 137l61 -30
q-34 -83 -96 -135.5t-154 -52.5z" />
    <glyph glyph-name="ccircumflex" unicode="&#x109;" horiz-adv-x="544" 
d="M178 624l-45 45l125 124h64l126 -124l-46 -45l-112 86zM291 -12q-114 0 -186.5 74t-72.5 211q0 134 72.5 212.5t181.5 78.5q70 0 115 -32q11 -7 15 5l4 21h68v-196h-74l-3 16q-9 62 -37 87.5t-76 25.5q-61 0 -105 -53t-44 -153q0 -106 44.5 -160.5t118.5 -54.5
q83 0 156 83l43 -45q-87 -120 -220 -120z" />
    <glyph glyph-name="Cdotaccent" unicode="&#x10a;" horiz-adv-x="610" 
d="M341 874q-34 0 -56 21t-22 53q0 33 22 53.5t56 20.5q33 0 54.5 -20.5t21.5 -53.5q0 -32 -21.5 -53t-54.5 -21zM335 -12q-141 0 -218.5 103.5t-77.5 297.5q0 196 78 303.5t219 107.5q82 0 140 -44q10 -6 13 6l7 32h71v-216h-73l-6 27q-25 120 -134 120q-98 0 -145.5 -87.5
t-47.5 -239.5q0 -329 188 -329q106 0 175 137l61 -30q-34 -83 -96 -135.5t-154 -52.5z" />
    <glyph glyph-name="cdotaccent" unicode="&#x10b;" horiz-adv-x="544" 
d="M290 641q-32 0 -53.5 22t-21.5 54q0 33 21.5 54t53.5 21q31 0 53 -21.5t22 -53.5t-22 -54t-53 -22zM291 -12q-114 0 -186.5 74t-72.5 211q0 134 72.5 212.5t181.5 78.5q70 0 115 -32q11 -7 15 5l4 21h68v-196h-74l-3 16q-9 62 -37 87.5t-76 25.5q-61 0 -105 -53t-44 -153
q0 -106 44.5 -160.5t118.5 -54.5q83 0 156 83l43 -45q-87 -120 -220 -120z" />
    <glyph glyph-name="Ccaron" unicode="&#x10c;" horiz-adv-x="610" 
d="M299 859l-118 126l44 49l115 -94l115 94l44 -48l-118 -127h-82zM335 -12q-141 0 -218.5 103.5t-77.5 297.5q0 196 78 303.5t219 107.5q82 0 140 -44q10 -6 13 6l7 32h71v-216h-73l-6 27q-25 120 -134 120q-98 0 -145.5 -87.5t-47.5 -239.5q0 -329 188 -329q106 0 175 137
l61 -30q-34 -83 -96 -135.5t-154 -52.5z" />
    <glyph glyph-name="ccaron" unicode="&#x10d;" horiz-adv-x="544" 
d="M258 630l-125 124l46 45l111 -87l111 87l46 -45l-125 -124h-64zM291 -12q-114 0 -186.5 74t-72.5 211q0 134 72.5 212.5t181.5 78.5q70 0 115 -32q11 -7 15 5l4 21h68v-196h-74l-3 16q-9 62 -37 87.5t-76 25.5q-61 0 -105 -53t-44 -153q0 -106 44.5 -160.5t118.5 -54.5
q83 0 156 83l43 -45q-87 -120 -220 -120z" />
    <glyph glyph-name="Dcaron" unicode="&#x10e;" horiz-adv-x="696" 
d="M307 859l-118 126l44 49l115 -94l115 94l44 -48l-118 -127h-82zM45 0l-6 53q7 7 27 14l19 6q23 7 28 20.5t5 56.5v488q0 43 -5.5 56t-28.5 21l-19 6q-15 5 -26 14l6 53h234q189 0 283.5 -100t94.5 -286q0 -193 -95 -297.5t-279 -104.5h-238zM247 77h25q263 0 263 320
q0 154 -59 234t-202 80h-27q-14 0 -14 -14v-606q0 -14 14 -14z" />
    <glyph glyph-name="dcaron" unicode="&#x10f;" horiz-adv-x="615" 
d="M659 800q33 0 53.5 -23.5t20.5 -59.5q0 -97 -94 -172l-54 36q55 39 55 84q0 13 -21.5 34t-21.5 47q0 23 17.5 38.5t44.5 15.5zM559 67l15 -5q13 -2 27 -10l-3 -52h-158v96q-26 -48 -69.5 -78t-100.5 -30q-104 0 -171 77.5t-67 211.5q0 127 66 207t171 80q104 0 155 -85
v193q0 24 -6.5 32.5t-25.5 14.5l-13 5q-16 5 -31 12l3 52h183v-676q0 -23 4.5 -32t20.5 -13zM289 65q62 0 100.5 55.5t38.5 160.5q0 95 -36 150.5t-103 55.5q-63 0 -101.5 -54.5t-38.5 -154.5q0 -98 36 -155.5t104 -57.5z" />
    <glyph glyph-name="Dcroat" unicode="&#x110;" horiz-adv-x="696" 
d="M279 788q189 0 283.5 -100t94.5 -286q0 -193 -95 -297.5t-279 -104.5h-238l-6 53q7 7 27 14l19 6q23 7 28 20.5t5 56.5v226h-82v79h82v183q0 43 -5.5 56t-28.5 21l-19 6q-15 5 -26 14l6 53h234zM272 77q263 0 263 320q0 154 -59 234t-202 80h-27q-14 0 -14 -14v-242h164
v-79h-164v-285q0 -14 14 -14h25z" />
    <glyph glyph-name="dcroat" unicode="&#x111;" horiz-adv-x="618" 
d="M608 601h-74v-489q0 -23 4.5 -32t20.5 -13l15 -5q13 -2 27 -10l-3 -52h-163v87q-58 -99 -165 -99q-104 0 -171 77.5t-67 211.5q0 127 66 207t171 80q104 0 155 -85v122h-116v65h116v6q0 24 -6.5 32.5t-25.5 14.5l-13 5q-16 5 -31 12l3 52h183v-122h74v-65zM289 65
q62 0 100.5 55.5t38.5 160.5q0 95 -36 150.5t-103 55.5q-63 0 -101.5 -54.5t-38.5 -154.5q0 -98 36 -155.5t104 -57.5z" />
    <glyph glyph-name="Emacron" unicode="&#x112;" horiz-adv-x="597" 
d="M142 892v79h342v-79h-342zM45 0l-6 53q7 7 27 14l19 6q23 7 28 20.5t5 56.5v489q0 44 -5 56t-30 21l-18 6q-16 6 -25 14l5 52h488v-202h-50q-7 11 -21 54l-16 51q-4 13 -10 16t-23 3h-166q-14 0 -14 -14v-241q0 -14 14 -14h50q31 0 41 5.5t17 26.5l5 15q6 17 15 30l42 -5
v-219l-42 -5q-7 7 -14 25l-7 18q-8 21 -20 27.5t-38 6.5h-49q-14 0 -14 -14v-260q0 -14 14 -14h187q17 0 23 3.5t10 15.5l14 42q14 48 23 63h50v-202h-509z" />
    <glyph glyph-name="emacron" unicode="&#x113;" horiz-adv-x="583" 
d="M96 655v79h380v-79h-380zM305 -12q-126 0 -199.5 80t-73.5 209q0 132 75.5 209.5t187.5 77.5q93 0 159 -53q36 -29 59 -67.5t23 -76.5q0 -17 -11.5 -27.5t-42.5 -24.5q-157 -68 -320 -97q-11 -3 -11 -11q0 -48 46.5 -91t122.5 -43q103 0 177 88l41 -47
q-37 -57 -97.5 -91.5t-135.5 -34.5zM155 289q25 0 101 20.5t125 40.5q18 7 25 13t7 16q0 39 -32 73q-33 40 -93 40q-64 0 -105 -46t-41 -125q0 -12 2 -24q2 -8 11 -8z" />
    <glyph glyph-name="Ebreve" unicode="&#x114;" horiz-adv-x="597" 
d="M313 862q-71 0 -112.5 36.5t-49.5 103.5h78q16 -64 84 -64q70 0 84 64h78q-7 -67 -50 -103.5t-112 -36.5zM45 0l-6 53q7 7 27 14l19 6q23 7 28 20.5t5 56.5v489q0 44 -5 56t-30 21l-18 6q-16 6 -25 14l5 52h488v-202h-50q-7 11 -21 54l-16 51q-4 13 -10 16t-23 3h-166
q-14 0 -14 -14v-241q0 -14 14 -14h50q31 0 41 5.5t17 26.5l5 15q6 17 15 30l42 -5v-219l-42 -5q-7 7 -14 25l-7 18q-8 21 -20 27.5t-38 6.5h-49q-14 0 -14 -14v-260q0 -14 14 -14h187q17 0 23 3.5t10 15.5l14 42q14 48 23 63h50v-202h-509z" />
    <glyph glyph-name="ebreve" unicode="&#x115;" horiz-adv-x="583" 
d="M285 625q-73 0 -115.5 40t-47.5 105h79q5 -33 27.5 -51.5t57.5 -18.5q70 0 85 70h79q-5 -64 -48.5 -104.5t-116.5 -40.5zM305 -12q-126 0 -199.5 80t-73.5 209q0 132 75.5 209.5t187.5 77.5q93 0 159 -53q36 -29 59 -67.5t23 -76.5q0 -17 -11.5 -27.5t-42.5 -24.5
q-157 -68 -320 -97q-11 -3 -11 -11q0 -48 46.5 -91t122.5 -43q103 0 177 88l41 -47q-37 -57 -97.5 -91.5t-135.5 -34.5zM155 289q25 0 101 20.5t125 40.5q18 7 25 13t7 16q0 39 -32 73q-33 40 -93 40q-64 0 -105 -46t-41 -125q0 -12 2 -24q2 -8 11 -8z" />
    <glyph glyph-name="Edotaccent" unicode="&#x116;" horiz-adv-x="597" 
d="M314 874q-34 0 -56 21t-22 53q0 33 22 53.5t56 20.5q33 0 54.5 -20.5t21.5 -53.5q0 -32 -21.5 -53t-54.5 -21zM45 0l-6 53q7 7 27 14l19 6q23 7 28 20.5t5 56.5v489q0 44 -5 56t-30 21l-18 6q-16 6 -25 14l5 52h488v-202h-50q-7 11 -21 54l-16 51q-4 13 -10 16t-23 3
h-166q-14 0 -14 -14v-241q0 -14 14 -14h50q31 0 41 5.5t17 26.5l5 15q6 17 15 30l42 -5v-219l-42 -5q-7 7 -14 25l-7 18q-8 21 -20 27.5t-38 6.5h-49q-14 0 -14 -14v-260q0 -14 14 -14h187q17 0 23 3.5t10 15.5l14 42q14 48 23 63h50v-202h-509z" />
    <glyph glyph-name="edotaccent" unicode="&#x117;" horiz-adv-x="583" 
d="M286 641q-32 0 -53.5 22t-21.5 54q0 33 21.5 54t53.5 21q31 0 53 -21.5t22 -53.5t-22 -54t-53 -22zM305 -12q-126 0 -199.5 80t-73.5 209q0 132 75.5 209.5t187.5 77.5q93 0 159 -53q36 -29 59 -67.5t23 -76.5q0 -17 -11.5 -27.5t-42.5 -24.5q-157 -68 -320 -97
q-11 -3 -11 -11q0 -48 46.5 -91t122.5 -43q103 0 177 88l41 -47q-37 -57 -97.5 -91.5t-135.5 -34.5zM155 289q25 0 101 20.5t125 40.5q18 7 25 13t7 16q0 39 -32 73q-33 40 -93 40q-64 0 -105 -46t-41 -125q0 -12 2 -24q2 -8 11 -8z" />
    <glyph glyph-name="Eogonek" unicode="&#x118;" horiz-adv-x="597" 
d="M573 -113l33 -45q-56 -59 -124 -59q-54 0 -85 26.5t-31 73.5q0 34 17.5 66t48.5 51h-387l-6 53q7 7 27 14l19 6q23 7 28 20.5t5 56.5v489q0 44 -5 56t-30 21l-18 6q-16 6 -25 14l5 52h488v-202h-50q-7 11 -21 54l-16 51q-4 13 -10 16t-23 3h-166q-14 0 -14 -14v-241
q0 -14 14 -14h50q31 0 41 5.5t17 26.5l5 15q6 17 15 30l42 -5v-219l-42 -5q-7 7 -14 25l-7 18q-8 21 -20 27.5t-38 6.5h-49q-14 0 -14 -14v-260q0 -14 14 -14h187q17 0 23 3.5t10 15.5l14 42q14 48 23 63h50v-202h-37q-63 -41 -63 -101q0 -21 12 -34t34 -13q35 0 73 35z" />
    <glyph glyph-name="eogonek" unicode="&#x119;" horiz-adv-x="585" 
d="M403 -217q-52 0 -82.5 27t-30.5 73q0 61 61 109q-20 -4 -47 -4q-126 0 -199 80t-73 209q0 133 75.5 210t190.5 77q95 0 160 -53q36 -30 59 -68t23 -76q0 -17 -11.5 -27.5t-42.5 -24.5q-151 -65 -323 -97q-10 -2 -10 -11q0 -49 46.5 -91t121.5 -42q48 0 94.5 22t80.5 63
l43 -45q-33 -49 -84 -84q-78 -55 -78 -126q0 -23 13.5 -37.5t35.5 -14.5q34 0 71 35l33 -45q-56 -59 -127 -59zM156 289q25 0 103.5 20.5t126.5 40.5q18 7 24.5 13t6.5 16q0 40 -31 73q-34 39 -93 39q-66 0 -108 -45.5t-42 -125.5q0 -11 2 -23q2 -8 11 -8z" />
    <glyph glyph-name="Ecaron" unicode="&#x11a;" horiz-adv-x="597" 
d="M272 859l-118 126l44 49l115 -94l115 94l44 -48l-118 -127h-82zM45 0l-6 53q7 7 27 14l19 6q23 7 28 20.5t5 56.5v489q0 44 -5 56t-30 21l-18 6q-16 6 -25 14l5 52h488v-202h-50q-7 11 -21 54l-16 51q-4 13 -10 16t-23 3h-166q-14 0 -14 -14v-241q0 -14 14 -14h50
q31 0 41 5.5t17 26.5l5 15q6 17 15 30l42 -5v-219l-42 -5q-7 7 -14 25l-7 18q-8 21 -20 27.5t-38 6.5h-49q-14 0 -14 -14v-260q0 -14 14 -14h187q17 0 23 3.5t10 15.5l14 42q14 48 23 63h50v-202h-509z" />
    <glyph glyph-name="ecaron" unicode="&#x11b;" horiz-adv-x="583" 
d="M254 630l-125 124l46 45l111 -87l111 87l46 -45l-125 -124h-64zM305 -12q-126 0 -199.5 80t-73.5 209q0 132 75.5 209.5t187.5 77.5q93 0 159 -53q36 -29 59 -67.5t23 -76.5q0 -17 -11.5 -27.5t-42.5 -24.5q-157 -68 -320 -97q-11 -3 -11 -11q0 -48 46.5 -91t122.5 -43
q103 0 177 88l41 -47q-37 -57 -97.5 -91.5t-135.5 -34.5zM155 289q25 0 101 20.5t125 40.5q18 7 25 13t7 16q0 39 -32 73q-33 40 -93 40q-64 0 -105 -46t-41 -125q0 -12 2 -24q2 -8 11 -8z" />
    <glyph glyph-name="Gcircumflex" unicode="&#x11c;" horiz-adv-x="671" 
d="M235 842l-44 48l118 126h82l118 -126l-44 -49l-115 95zM338 -12q-142 0 -220.5 104t-78.5 297q0 196 81 303.5t230 107.5q77 0 143 -44q10 -7 13 6l6 32h71v-216h-73l-6 27q-25 120 -142 120q-103 0 -152 -86.5t-49 -240.5q0 -329 197 -329q59 0 98 40.5t39 111.5v70
q0 33 -6.5 44.5t-27.5 15.5l-28 6q-25 4 -42 11l6 59h207v-427h-68l-19 58q-6 17 -19 2q-25 -33 -67.5 -52.5t-92.5 -19.5z" />
    <glyph glyph-name="gcircumflex" unicode="&#x11d;" horiz-adv-x="635" 
d="M296 710l-112 -86l-45 45l125 124h64l126 -124l-46 -45zM606 552v-76h-109q50 -55 50 -142q0 -71 -31 -125.5t-92 -80.5q77 -15 117.5 -56t40.5 -103q0 -84 -72 -138.5t-197 -54.5q-141 0 -210 50.5t-69 137.5v3q0 19 8 26t25 7h81l3 -27q11 -124 167 -124
q73 0 109.5 31.5t36.5 82.5q0 106 -160 116l-17 1q-119 7 -183.5 68.5t-64.5 179.5q0 109 71 173t182 64q55 0 94 -13h220zM302 149q57 0 92.5 46t35.5 134q0 82 -36.5 124.5t-96.5 42.5q-63 0 -102 -42.5t-39 -127.5q0 -90 40.5 -133.5t105.5 -43.5z" />
    <glyph glyph-name="Gbreve" unicode="&#x11e;" horiz-adv-x="671" 
d="M349 862q-71 0 -112.5 36.5t-49.5 103.5h78q16 -64 84 -64q70 0 84 64h78q-7 -67 -50 -103.5t-112 -36.5zM338 -12q-142 0 -220.5 104t-78.5 297q0 196 81 303.5t230 107.5q77 0 143 -44q10 -7 13 6l6 32h71v-216h-73l-6 27q-25 120 -142 120q-103 0 -152 -86.5
t-49 -240.5q0 -329 197 -329q59 0 98 40.5t39 111.5v70q0 33 -6.5 44.5t-27.5 15.5l-28 6q-25 4 -42 11l6 59h207v-427h-68l-19 58q-6 17 -19 2q-25 -33 -67.5 -52.5t-92.5 -19.5z" />
    <glyph glyph-name="gbreve" unicode="&#x11f;" horiz-adv-x="635" 
d="M295 625q-73 0 -115.5 40t-47.5 105h79q5 -33 27.5 -51.5t57.5 -18.5q70 0 85 70h79q-5 -64 -48.5 -104.5t-116.5 -40.5zM606 552v-76h-109q50 -55 50 -142q0 -71 -31 -125.5t-92 -80.5q77 -15 117.5 -56t40.5 -103q0 -84 -72 -138.5t-197 -54.5q-141 0 -210 50.5
t-69 137.5v3q0 19 8 26t25 7h81l3 -27q11 -124 167 -124q73 0 109.5 31.5t36.5 82.5q0 106 -160 116l-17 1q-119 7 -183.5 68.5t-64.5 179.5q0 109 71 173t182 64q55 0 94 -13h220zM302 149q57 0 92.5 46t35.5 134q0 82 -36.5 124.5t-96.5 42.5q-63 0 -102 -42.5t-39 -127.5
q0 -90 40.5 -133.5t105.5 -43.5z" />
    <glyph glyph-name="Gdotaccent" unicode="&#x120;" horiz-adv-x="671" 
d="M350 874q-34 0 -56 21t-22 53q0 33 22 53.5t56 20.5q33 0 54.5 -20.5t21.5 -53.5q0 -32 -21.5 -53t-54.5 -21zM338 -12q-142 0 -220.5 104t-78.5 297q0 196 81 303.5t230 107.5q77 0 143 -44q10 -7 13 6l6 32h71v-216h-73l-6 27q-25 120 -142 120q-103 0 -152 -86.5
t-49 -240.5q0 -329 197 -329q59 0 98 40.5t39 111.5v70q0 33 -6.5 44.5t-27.5 15.5l-28 6q-25 4 -42 11l6 59h207v-427h-68l-19 58q-6 17 -19 2q-25 -33 -67.5 -52.5t-92.5 -19.5z" />
    <glyph glyph-name="gdotaccent" unicode="&#x121;" horiz-adv-x="635" 
d="M296 641q-32 0 -53.5 22t-21.5 54q0 33 21.5 54t53.5 21q31 0 53 -21.5t22 -53.5t-22 -54t-53 -22zM606 552v-76h-109q50 -55 50 -142q0 -71 -31 -125.5t-92 -80.5q77 -15 117.5 -56t40.5 -103q0 -84 -72 -138.5t-197 -54.5q-141 0 -210 50.5t-69 137.5v3q0 19 8 26t25 7
h81l3 -27q11 -124 167 -124q73 0 109.5 31.5t36.5 82.5q0 106 -160 116l-17 1q-119 7 -183.5 68.5t-64.5 179.5q0 109 71 173t182 64q55 0 94 -13h220zM302 149q57 0 92.5 46t35.5 134q0 82 -36.5 124.5t-96.5 42.5q-63 0 -102 -42.5t-39 -127.5q0 -90 40.5 -133.5
t105.5 -43.5z" />
    <glyph glyph-name="Gcommaaccent" unicode="&#x122;" horiz-adv-x="671" 
d="M338 -12q-142 0 -220.5 104t-78.5 297q0 196 81 303.5t230 107.5q77 0 143 -44q10 -7 13 6l6 32h71v-216h-73l-6 27q-25 120 -142 120q-103 0 -152 -86.5t-49 -240.5q0 -329 197 -329q59 0 98 40.5t39 111.5v70q0 33 -6.5 44.5t-27.5 15.5l-28 6q-25 4 -42 11l6 59h207
v-427h-68l-19 58q-6 17 -19 2q-25 -33 -67.5 -52.5t-92.5 -19.5zM326 -325l-51 35q56 44 56 84q0 14 -19.5 34t-19.5 48q0 24 18 40.5t44 16.5q34 0 54 -23.5t20 -59.5q0 -100 -102 -175z" />
    <glyph glyph-name="gcommaaccent" unicode="&#x123;" horiz-adv-x="635" 
d="M297 619q-34 0 -54 23.5t-20 59.5q0 100 102 175l51 -35q-56 -44 -56 -84q0 -14 19.5 -34t19.5 -48q0 -24 -18 -40.5t-44 -16.5zM606 552v-76h-109q50 -55 50 -142q0 -71 -31 -125.5t-92 -80.5q77 -15 117.5 -56t40.5 -103q0 -84 -72 -138.5t-197 -54.5q-141 0 -210 50.5
t-69 137.5v3q0 19 8 26t25 7h81l3 -27q11 -124 167 -124q73 0 109.5 31.5t36.5 82.5q0 106 -160 116l-17 1q-119 7 -183.5 68.5t-64.5 179.5q0 109 71 173t182 64q55 0 94 -13h220zM302 149q57 0 92.5 46t35.5 134q0 82 -36.5 124.5t-96.5 42.5q-63 0 -102 -42.5t-39 -127.5
q0 -90 40.5 -133.5t105.5 -43.5z" />
    <glyph glyph-name="Hcircumflex" unicode="&#x124;" horiz-adv-x="767" 
d="M270 842l-44 48l118 126h82l118 -126l-44 -49l-115 95zM45 0l-6 53q7 7 27 14l19 6q23 7 28 20.5t5 56.5v489q0 43 -5.5 55.5t-28.5 20.5l-17 6q-18 6 -28 15l6 52h261l5 -52q-10 -9 -27 -15l-19 -6q-22 -7 -27 -20t-5 -56v-159q0 -14 14 -14h274q14 0 14 14v159
q0 44 -5 56t-28 20l-18 6q-18 6 -27 15l5 52h261l5 -52q-11 -9 -27 -15l-19 -6q-22 -7 -27 -20t-5 -56v-490q0 -43 5 -56t27 -20l15 -5q20 -7 31 -16l-5 -52h-261l-6 53q11 9 27 14l19 6q23 7 28 20t5 57v225q0 14 -14 14h-274q-14 0 -14 -14v-226q0 -43 5 -56t27 -20l15 -5
q20 -7 31 -16l-5 -52h-261z" />
    <glyph glyph-name="hcircumflex" unicode="&#x125;" horiz-adv-x="646" 
d="M245 841l-115 95l-115 -94l-44 48l118 126h82l118 -126zM593 64q15 -5 28 -12l-3 -52h-176v363q0 55 -25 86t-71 31q-70 0 -102 -55t-32 -136v-169q0 -23 7 -33t29 -17l16 -6q18 -5 33 -12l-3 -52h-271l-3 52q10 5 33 12l16 6q20 7 26.5 17t6.5 33v552q0 24 -6 33t-25 14
l-16 5q-25 10 -29 12l3 52h183v-307q58 83 161 83q84 0 131.5 -51t47.5 -136v-263q0 -22 6 -31t22 -14z" />
    <glyph glyph-name="Hbar" unicode="&#x126;" horiz-adv-x="758" 
d="M739 564h-94v-415q0 -43 5 -56t27 -20l15 -5q20 -7 31 -16l-5 -52h-261l-6 53q11 9 27 14l19 6q23 7 28 20t5 57v225q0 14 -14 14h-274q-14 0 -14 -14v-226q0 -43 5 -56t27 -20l15 -5q20 -7 31 -16l-5 -52h-261l-6 53q8 7 27 14l19 6q23 7 28 20.5t5 56.5v414h-94v67h94
v8q0 43 -5.5 55.5t-28.5 20.5l-17 6q-18 6 -28 15l6 52h261l5 -52q-10 -9 -27 -15l-19 -6q-22 -7 -27 -20t-5 -56v-8h302v8q0 44 -5 56t-28 20l-18 6q-18 6 -27 15l5 52h261l5 -52q-11 -9 -27 -15l-19 -6q-22 -7 -27 -20t-5 -56v-8h94v-67zM530 480v84h-302v-84
q0 -14 14 -14h274q14 0 14 14z" />
    <glyph glyph-name="hbar" unicode="&#x127;" horiz-adv-x="656" 
d="M602 64q7 -2 29 -12l-3 -52h-177v363q0 55 -25 86t-71 31q-70 0 -102 -55t-32 -136v-169q0 -23 7 -33t29 -17l16 -6q23 -7 33 -12l-3 -52h-271l-3 52q15 7 33 12l16 6q20 7 26.5 17t6.5 33v480h-83v65h83v7q0 24 -6 33t-25 14l-16 5q-25 10 -29 12l3 52h183v-123h115v-65
h-115v-119q58 83 161 83q84 0 131.5 -51t47.5 -136v-263q0 -22 6 -31t22 -14z" />
    <glyph glyph-name="Itilde" unicode="&#x128;" horiz-adv-x="362" 
d="M47 861l-59 34q17 45 50 71t72 26q34 0 80 -26t66 -26q41 0 56 50l57 -34q-10 -41 -40 -70t-69 -29q-36 0 -83 26t-64 26q-47 0 -66 -48zM51 0l-6 53q7 7 27 14l19 6q23 7 28 20.5t5 56.5v489q0 43 -5.5 55.5t-28.5 20.5l-17 6q-18 6 -28 15l6 52h261l5 -52
q-10 -9 -27 -15l-19 -6q-22 -7 -27 -20t-5 -56v-490q0 -43 5 -56t27 -20l15 -5q20 -7 31 -16l-5 -52h-261z" />
    <glyph glyph-name="itilde" unicode="&#x129;" horiz-adv-x="295" 
d="M20 628l-61 31q10 52 40.5 82t70.5 30q30 0 73.5 -28.5t59.5 -28.5q37 0 48 61l61 -25q-9 -50 -37.5 -85t-64.5 -35q-33 0 -75.5 28t-58.5 28q-40 0 -56 -58zM28 0l-3 52q12 6 33 12l15 5q18 7 23.5 16.5t5.5 30.5v320q0 24 -6.5 32.5t-25.5 14.5l-15 5q-19 6 -29 12
l3 52h183v-436q0 -21 6 -31t23 -16l15 -5q21 -6 33 -12l-3 -52h-258z" />
    <glyph glyph-name="Imacron" unicode="&#x12a;" horiz-adv-x="362" 
d="M11 892v79h342v-79h-342zM51 0l-6 53q7 7 27 14l19 6q23 7 28 20.5t5 56.5v489q0 43 -5.5 55.5t-28.5 20.5l-17 6q-18 6 -28 15l6 52h261l5 -52q-10 -9 -27 -15l-19 -6q-22 -7 -27 -20t-5 -56v-490q0 -43 5 -56t27 -20l15 -5q20 -7 31 -16l-5 -52h-261z" />
    <glyph glyph-name="imacron" unicode="&#x12b;" horiz-adv-x="295" 
d="M-3 655v78h270v-78h-270zM28 0l-3 52q12 6 33 12l15 5q18 7 23.5 16.5t5.5 30.5v320q0 24 -6.5 32.5t-25.5 14.5l-15 5q-19 6 -29 12l3 52h183v-436q0 -21 6 -31t23 -16l15 -5q21 -6 33 -12l-3 -52h-258z" />
    <glyph glyph-name="Ibreve" unicode="&#x12c;" horiz-adv-x="362" 
d="M182 862q-71 0 -112.5 36.5t-49.5 103.5h78q16 -64 84 -64q70 0 84 64h78q-7 -67 -50 -103.5t-112 -36.5zM51 0l-6 53q7 7 27 14l19 6q23 7 28 20.5t5 56.5v489q0 43 -5.5 55.5t-28.5 20.5l-17 6q-18 6 -28 15l6 52h261l5 -52q-10 -9 -27 -15l-19 -6q-22 -7 -27 -20
t-5 -56v-490q0 -43 5 -56t27 -20l15 -5q20 -7 31 -16l-5 -52h-261z" />
    <glyph glyph-name="ibreve" unicode="&#x12d;" horiz-adv-x="295" 
d="M132 625q-66 0 -102.5 41t-40.5 104h79q5 -70 65 -70q56 0 66 70h79q-5 -62 -43.5 -103.5t-102.5 -41.5zM28 0l-3 52q12 6 33 12l15 5q18 7 23.5 16.5t5.5 30.5v320q0 24 -6.5 32.5t-25.5 14.5l-15 5q-19 6 -29 12l3 52h183v-436q0 -21 6 -31t23 -16l15 -5q21 -6 33 -12
l-3 -52h-258z" />
    <glyph glyph-name="Iogonek" unicode="&#x12e;" horiz-adv-x="362" 
d="M292 -113l33 -45q-56 -59 -124 -59q-54 0 -85 26.5t-31 73.5q0 34 17.5 66t48.5 51h-100l-6 53q7 7 27 14l19 6q23 7 28 20.5t5 56.5v489q0 43 -5.5 55.5t-28.5 20.5l-17 6q-18 6 -28 15l6 52h261l5 -52q-10 -9 -27 -15l-19 -6q-22 -7 -27 -20t-5 -56v-490q0 -43 5 -56
t27 -20l15 -5q20 -7 31 -16l-5 -52h-76q-63 -41 -63 -101q0 -21 12 -34t34 -13q35 0 73 35z" />
    <glyph glyph-name="iogonek" unicode="&#x12f;" horiz-adv-x="310" 
d="M150 627q-34 0 -56.5 21.5t-22.5 54.5q0 32 22.5 53.5t56.5 21.5q33 0 54.5 -21.5t21.5 -53.5q0 -33 -21.5 -54.5t-54.5 -21.5zM194 0q-51 -43 -51 -102q0 -23 11 -34t27 -11q31 0 59 30l28 -48q-42 -52 -102 -52q-46 0 -75 26.5t-29 75.5q0 32 15 63.5t38 51.5h-91
l-3 52q12 6 33 12l15 5q18 7 23.5 16.5t5.5 30.5v320q0 24 -6.5 32.5t-25.5 14.5l-15 5q-19 6 -29 12l3 52h183v-436q0 -21 6 -31t23 -16l15 -5q21 -6 33 -12l-3 -52h-88z" />
    <glyph glyph-name="Idotaccent" unicode="&#x130;" horiz-adv-x="362" 
d="M183 874q-34 0 -56 21t-22 53q0 33 22 53.5t56 20.5q33 0 54.5 -20.5t21.5 -53.5q0 -32 -21.5 -53t-54.5 -21zM51 0l-6 53q7 7 27 14l19 6q23 7 28 20.5t5 56.5v489q0 43 -5.5 55.5t-28.5 20.5l-17 6q-18 6 -28 15l6 52h261l5 -52q-10 -9 -27 -15l-19 -6q-22 -7 -27 -20
t-5 -56v-490q0 -43 5 -56t27 -20l15 -5q20 -7 31 -16l-5 -52h-261z" />
    <glyph glyph-name="dotlessi" unicode="&#x131;" horiz-adv-x="295" 
d="M28 0l-3 52q12 6 33 12l15 5q18 7 23.5 16.5t5.5 30.5v320q0 24 -6.5 32.5t-25.5 14.5l-15 5q-19 6 -29 12l3 52h183v-436q0 -21 6 -31t23 -16l15 -5q21 -6 33 -12l-3 -52h-258z" />
    <glyph glyph-name="IJ" unicode="&#x132;" horiz-adv-x="809" 
d="M51 0l-6 53q7 7 27 14l19 6q23 7 28 20.5t5 56.5v489q0 43 -5.5 55.5t-28.5 20.5l-17 6q-18 6 -28 15l6 52h261l5 -52q-10 -9 -27 -15l-19 -6q-22 -7 -27 -20t-5 -56v-490q0 -43 5 -56t27 -20l15 -5q20 -7 31 -16l-5 -52h-261zM527 -12q-83 0 -127.5 41t-44.5 113
q0 59 41 59h74v-62q0 -44 14.5 -63.5t46.5 -19.5t45.5 19t13.5 67v497q0 45 -5 56.5t-29 20.5l-18 6q-16 5 -26 13l5 53h261l6 -52q-10 -9 -24 -13l-25 -9q-19 -6 -24.5 -19t-5.5 -52v-457q0 -198 -178 -198z" />
    <glyph glyph-name="ij" unicode="&#x133;" horiz-adv-x="595" 
d="M150 627q-34 0 -56.5 21.5t-22.5 54.5q0 32 22.5 53.5t56.5 21.5q33 0 54.5 -21.5t21.5 -53.5q0 -33 -21.5 -54.5t-54.5 -21.5zM473 627q-34 0 -56 21.5t-22 54.5q0 32 22.5 53.5t55.5 21.5t55 -21.5t22 -53.5q0 -33 -21.5 -54.5t-55.5 -21.5zM24 0l-3 52q12 6 33 12
l15 5q18 7 23.5 16.5t5.5 30.5v320q0 24 -6.5 32.5t-25.5 14.5l-15 5q-19 6 -29 12l3 52h183v-436q0 -21 6 -31t23 -16l15 -5q21 -6 33 -12l-3 -52h-258zM366 -224q-72 0 -113.5 37t-41.5 102v5q0 18 8 29q10 10 26 10h64v-44q0 -71 58 -71q55 0 55 77v515q0 23 -6.5 32
t-25.5 15l-15 5q-24 9 -29 12l3 52h183v-586q0 -190 -166 -190z" />
    <glyph glyph-name="Jcircumflex" unicode="&#x134;" horiz-adv-x="489" 
d="M215 842l-44 48l118 126h82l118 -126l-44 -49l-115 95zM207 -12q-83 0 -127.5 41t-44.5 113q0 59 41 59h74v-62q0 -44 14.5 -63.5t46.5 -19.5t45.5 19t13.5 67v497q0 45 -5 56.5t-29 20.5l-18 6q-16 5 -26 13l5 53h261l6 -52q-10 -9 -24 -13l-25 -9q-19 -6 -24.5 -19
t-5.5 -52v-457q0 -198 -178 -198z" />
    <glyph glyph-name="jcircumflex" unicode="&#x135;" horiz-adv-x="267" 
d="M34 623l-49 43l106 127h64l106 -127l-49 -43l-89 89zM36 -224q-72 0 -113.5 37t-41.5 102v5q0 18 8 29q10 10 26 10h64v-44q0 -71 58 -71q55 0 55 77v515q0 23 -6.5 32t-25.5 15l-15 5q-22 8 -29 12l3 52h183v-586q0 -190 -166 -190z" />
    <glyph glyph-name="Kcommaaccent" unicode="&#x136;" horiz-adv-x="659" 
d="M614 67q22 -6 30 -14l-4 -53h-166l-208 363q-6 10 -10 11t-13 -5q-10 -9 -10 -26v-194q0 -43 5 -56t27 -20l15 -5q20 -7 31 -16l-5 -52h-261l-6 53q9 9 27 14l19 6q23 7 28 20.5t5 56.5v489q0 44 -5.5 56.5t-29.5 20.5l-17 6q-16 5 -27 14l6 52h261l5 -52q-8 -8 -25 -14
l-23 -8q-21 -7 -25.5 -20t-4.5 -56v-176l193 223q22 24 -5 37l-11 5q-17 7 -24 14l7 47h240l5 -50q-7 -7 -32 -15l-20 -5q-46 -13 -84 -56l-158 -178q-11 -12 -2 -27l191 -330q14 -26 27.5 -37t40.5 -19zM370 -67q34 0 54 -23.5t20 -59.5q0 -100 -102 -175l-51 35
q56 44 56 84q0 14 -19.5 34t-19.5 48q0 24 18 40.5t44 16.5z" />
    <glyph glyph-name="kcommaaccent" unicode="&#x137;" horiz-adv-x="597" 
d="M541 63q12 -4 25 -11l-3 -52h-140l-144 253q-10 18 -20 8l-43 -41q-9 -10 -9 -21v-83q0 -23 5 -32.5t22 -15.5l15 -5q18 -5 29 -11l-3 -52h-252l-3 52q6 3 30 11l15 5q20 7 26 16t6 31v557q0 24 -6.5 32.5t-25.5 14.5l-15 5q-20 7 -29 12l3 52h183v-486l153 149
q14 12 14 22t-12 13l-16 5q-17 5 -25 9l3 52h233l3 -53q-6 -3 -30 -11l-17 -5q-31 -9 -74 -49l-87 -84q-9 -9 -1 -20l124 -216q22 -37 45 -44zM337 -67q34 0 54 -23.5t20 -59.5q0 -100 -102 -175l-51 35q56 44 56 84q0 14 -19.5 34t-19.5 48q0 24 18 40.5t44 16.5z" />
    <glyph glyph-name="kgreenlandic" unicode="&#x138;" horiz-adv-x="598" 
d="M542 63q12 -4 25 -11l-3 -52h-140l-144 253q-10 18 -20 8l-43 -41q-9 -10 -9 -21v-83q0 -23 5 -32.5t22 -15.5l15 -5q18 -5 29 -11l-3 -52h-252l-3 52q6 3 30 11l15 5q20 7 26 16t6 31v321q0 24 -6.5 32.5t-25.5 14.5l-15 5q-20 7 -29 12l3 52h183v-249l153 148
q13 13 13 22.5t-12 13.5l-16 4q-14 5 -24 9l3 52h233l3 -53q-6 -3 -30 -11l-17 -5q-33 -9 -74 -49l-87 -84q-9 -9 -1 -20l124 -216q20 -35 45 -44z" />
    <glyph glyph-name="Lacute" unicode="&#x139;" horiz-adv-x="568" 
d="M89 854l-30 60l212 109l47 -91zM45 0l-6 53q9 9 27 14l19 6q23 7 28 20.5t5 56.5v489q0 43 -5.5 55.5t-28.5 20.5l-17 6q-18 6 -28 15l6 52h266l6 -52q-9 -8 -28 -13l-24 -8q-22 -6 -27 -19t-5 -57v-547q0 -14 14 -14h174q17 0 23 3t10 16l13 42q16 47 23 63h51v-202
h-496z" />
    <glyph glyph-name="lacute" unicode="&#x13a;" horiz-adv-x="298" 
d="M40 854l-30 60l212 109l47 -91zM23 0l-3 52q10 5 31 12l15 5q19 7 25 16t6 31v556q0 24 -6.5 32.5t-25.5 14.5l-14 5q-21 6 -30 12l3 52h183v-672q0 -22 6 -31.5t24 -15.5l15 -5q24 -8 32 -12l-3 -52h-258z" />
    <glyph glyph-name="Lcommaaccent" unicode="&#x13b;" horiz-adv-x="568" 
d="M45 0l-6 53q9 9 27 14l19 6q23 7 28 20.5t5 56.5v489q0 43 -5.5 55.5t-28.5 20.5l-17 6q-18 6 -28 15l6 52h266l6 -52q-9 -8 -28 -13l-24 -8q-22 -6 -27 -19t-5 -57v-547q0 -14 14 -14h174q17 0 23 3t10 16l13 42q16 47 23 63h51v-202h-496zM276 -325l-51 35q56 44 56 84
q0 14 -19.5 34t-19.5 48q0 24 18 40.5t44 16.5q34 0 54 -23.5t20 -59.5q0 -100 -102 -175z" />
    <glyph glyph-name="lcommaaccent" unicode="&#x13c;" horiz-adv-x="298" 
d="M23 0l-3 52q10 5 31 12l15 5q19 7 25 16t6 31v556q0 24 -6.5 32.5t-25.5 14.5l-14 5q-21 6 -30 12l3 52h183v-672q0 -22 6 -31.5t24 -15.5l15 -5q24 -8 32 -12l-3 -52h-258zM125 -325l-51 35q56 44 56 84q0 14 -19.5 34t-19.5 48q0 24 18 40.5t44 16.5q34 0 54 -23.5
t20 -59.5q0 -100 -102 -175z" />
    <glyph glyph-name="Lcaron" unicode="&#x13d;" horiz-adv-x="568" 
d="M444 545l-54 36q55 39 55 84q0 13 -21.5 34t-21.5 47q0 23 17.5 38.5t44.5 15.5q33 0 53.5 -23.5t20.5 -59.5q0 -97 -94 -172zM45 0l-6 53q9 9 27 14l19 6q23 7 28 20.5t5 56.5v489q0 43 -5.5 55.5t-28.5 20.5l-17 6q-18 6 -28 15l6 52h266l6 -52q-9 -8 -28 -13l-24 -8
q-22 -6 -27 -19t-5 -57v-547q0 -14 14 -14h174q17 0 23 3t10 16l13 42q16 47 23 63h51v-202h-496z" />
    <glyph glyph-name="lcaron" unicode="&#x13e;" horiz-adv-x="298" 
d="M311 545l-54 36q55 39 55 84q0 13 -21.5 34t-21.5 47q0 23 17.5 38.5t44.5 15.5q33 0 53.5 -23.5t20.5 -59.5q0 -97 -94 -172zM23 0l-3 52q10 5 31 12l15 5q19 7 25 16t6 31v556q0 24 -6.5 32.5t-25.5 14.5l-14 5q-21 6 -30 12l3 52h183v-672q0 -22 6 -31.5t24 -15.5
l15 -5q24 -8 32 -12l-3 -52h-258z" />
    <glyph glyph-name="Ldot" unicode="&#x13f;" horiz-adv-x="591" 
d="M45 0l-6 53q9 9 27 14l19 6q23 7 28 20.5t5 56.5v489q0 43 -5.5 55.5t-28.5 20.5l-17 6q-18 6 -28 15l6 52h266l6 -52q-9 -8 -28 -13l-24 -8q-22 -6 -27 -19t-5 -57v-547q0 -14 14 -14h174q17 0 23 3t10 16l13 42q16 47 23 63h51v-202h-496zM472 382q-38 0 -63.5 26
t-25.5 63t26 62.5t63 25.5t62.5 -25.5t25.5 -62.5q0 -38 -25.5 -63.5t-62.5 -25.5z" />
    <glyph glyph-name="ldot" unicode="&#x140;" horiz-adv-x="453" 
d="M23 0l-3 52q10 5 31 12l15 5q19 7 25 16t6 31v556q0 24 -6.5 32.5t-25.5 14.5l-14 5q-21 6 -30 12l3 52h183v-672q0 -22 6 -31.5t24 -15.5l15 -5q24 -8 32 -12l-3 -52h-258zM376 332q-38 0 -63.5 26t-25.5 63t26 62.5t63 25.5t62.5 -25.5t25.5 -62.5q0 -38 -25.5 -63.5
t-62.5 -25.5z" />
    <glyph glyph-name="Lslash" unicode="&#x141;" horiz-adv-x="591" 
d="M513 202h51v-202h-496l-6 53q9 9 27 14l19 6q23 7 28 20.5t5 56.5v190l-91 -48l-34 64l125 65v218q0 43 -5.5 55.5t-28.5 20.5l-17 6q-18 6 -28 15l6 52h266l6 -52q-9 -8 -28 -13l-24 -8q-22 -6 -27 -19t-5 -57v-158l177 93l34 -64l-211 -110v-308q0 -14 14 -14h174
q17 0 23 3t10 16l13 42q16 47 23 63z" />
    <glyph glyph-name="lslash" unicode="&#x142;" horiz-adv-x="383" 
d="M258 69l15 -5q24 -8 32 -12l-3 -52h-258l-3 52q10 5 31 12l15 5q19 7 25 16t6 31v254l-77 -44l-34 63l111 63v220q0 24 -6.5 32.5t-25.5 14.5l-14 5q-21 6 -30 12l3 52h183v-274l93 53l33 -62l-126 -72v-317q0 -22 6 -31.5t24 -15.5z" />
    <glyph glyph-name="Nacute" unicode="&#x143;" horiz-adv-x="752" 
d="M292 854l-30 60l212 109l47 -91zM45 0l-6 52q9 9 27 14l19 7q23 7 28 20.5t5 56.5v488q0 44 -5 56t-29 20l-20 7q-15 5 -24 14l5 53h188l327 -586v439q0 43 -5 55t-27 19l-15 5q-20 7 -31 16l5 52h228l6 -52q-9 -9 -27 -14l-19 -7q-23 -7 -28 -20.5t-5 -56.5v-638h-93
l-349 623v-476q0 -43 5 -55t27 -19l16 -5q18 -6 30 -16l-5 -52h-228z" />
    <glyph glyph-name="nacute" unicode="&#x144;" horiz-adv-x="654" 
d="M495 746l-203 -126l-39 52l177 152zM600 64q7 -2 29 -12l-3 -52h-177v362q0 115 -96 115q-72 0 -106 -55t-34 -133v-169q0 -23 7 -33t29 -17l16 -6q18 -5 33 -12l-3 -52h-271l-3 52q15 7 33 12l16 6q20 7 26.5 17t6.5 33v312q0 25 -7 34.5t-27 15.5l-16 6q-18 6 -31 12
l3 52h188v-75q59 87 168 87q85 0 131.5 -50.5t46.5 -136.5v-263q0 -22 6 -30.5t22 -14.5z" />
    <glyph glyph-name="Ncommaaccent" unicode="&#x145;" horiz-adv-x="752" 
d="M45 0l-6 52q9 9 27 14l19 7q23 7 28 20.5t5 56.5v488q0 44 -5 56t-29 20l-20 7q-15 5 -24 14l5 53h188l327 -586v439q0 43 -5 55t-27 19l-15 5q-20 7 -31 16l5 52h228l6 -52q-9 -9 -27 -14l-19 -7q-23 -7 -28 -20.5t-5 -56.5v-638h-93l-349 623v-476q0 -43 5 -55t27 -19
l16 -5q18 -6 30 -16l-5 -52h-228zM377 -325l-51 35q56 44 56 84q0 14 -19.5 34t-19.5 48q0 24 18 40.5t44 16.5q34 0 54 -23.5t20 -59.5q0 -100 -102 -175z" />
    <glyph glyph-name="ncommaaccent" unicode="&#x146;" horiz-adv-x="654" 
d="M600 64q7 -2 29 -12l-3 -52h-177v362q0 115 -96 115q-72 0 -106 -55t-34 -133v-169q0 -23 7 -33t29 -17l16 -6q18 -5 33 -12l-3 -52h-271l-3 52q15 7 33 12l16 6q20 7 26.5 17t6.5 33v312q0 25 -7 34.5t-27 15.5l-16 6q-18 6 -31 12l3 52h188v-75q59 87 168 87
q85 0 131.5 -50.5t46.5 -136.5v-263q0 -22 6 -30.5t22 -14.5zM359 -67q34 0 54 -23.5t20 -59.5q0 -100 -102 -175l-51 35q56 44 56 84q0 14 -19.5 34t-19.5 48q0 24 18 40.5t44 16.5z" />
    <glyph glyph-name="Ncaron" unicode="&#x147;" horiz-adv-x="752" 
d="M340 859l-118 126l44 49l115 -94l115 94l44 -48l-118 -127h-82zM45 0l-6 52q9 9 27 14l19 7q23 7 28 20.5t5 56.5v488q0 44 -5 56t-29 20l-20 7q-15 5 -24 14l5 53h188l327 -586v439q0 43 -5 55t-27 19l-15 5q-20 7 -31 16l5 52h228l6 -52q-9 -9 -27 -14l-19 -7
q-23 -7 -28 -20.5t-5 -56.5v-638h-93l-349 623v-476q0 -43 5 -55t27 -19l16 -5q18 -6 30 -16l-5 -52h-228z" />
    <glyph glyph-name="ncaron" unicode="&#x148;" horiz-adv-x="654" 
d="M374 630h-64l-125 124l46 45l111 -87l111 87l46 -45zM600 64q7 -2 29 -12l-3 -52h-177v362q0 115 -96 115q-72 0 -106 -55t-34 -133v-169q0 -23 7 -33t29 -17l16 -6q18 -5 33 -12l-3 -52h-271l-3 52q15 7 33 12l16 6q20 7 26.5 17t6.5 33v312q0 25 -7 34.5t-27 15.5
l-16 6q-18 6 -31 12l3 52h188v-75q59 87 168 87q85 0 131.5 -50.5t46.5 -136.5v-263q0 -22 6 -30.5t22 -14.5z" />
    <glyph glyph-name="Eng" unicode="&#x14a;" horiz-adv-x="752" 
d="M715 788l6 -52q-9 -9 -27 -14l-19 -7q-23 -7 -28 -20.5t-5 -56.5v-656q0 -108 -36 -157t-112 -49q-33 0 -68 7v75q25 -7 55 -7q44 0 62.5 25.5t19.5 85.5v38l-363 625v-478q0 -43 5 -55t27 -19l16 -5q18 -6 30 -16l-5 -52h-228l-6 52q9 9 27 14l19 7q23 7 28 20.5t5 56.5
v488q0 44 -5 56t-29 20l-20 7q-15 5 -24 14l5 53h188l327 -572v425q0 43 -5 55t-27 19l-15 5q-20 7 -31 16l5 52h228z" />
    <glyph glyph-name="eng" unicode="&#x14b;" horiz-adv-x="609" 
d="M24 0l-3 52q15 7 33 12l16 6q20 7 26.5 17t6.5 33v312q0 25 -7 34.5t-27 15.5l-16 6q-18 6 -31 12l3 52h188v-78q57 90 168 90q85 0 131.5 -50.5t46.5 -136.5v-379q0 -114 -34 -168t-115 -54q-35 0 -71 9v72q17 -5 44 -5q38 0 52 27.5t14 101.5v381q0 115 -96 115
q-72 0 -106 -55t-34 -133v-169q0 -23 7 -33t29 -17l16 -6q18 -5 33 -12l-3 -52h-271z" />
    <glyph glyph-name="Omacron" unicode="&#x14c;" horiz-adv-x="680" 
d="M171 892v79h342v-79h-342zM338 -12q-143 0 -221 105t-78 296q0 193 80 302t223 109q140 0 219.5 -107.5t79.5 -298.5q0 -192 -80 -299t-223 -107zM340 67q86 0 132.5 85.5t46.5 242.5q0 156 -46.5 241t-131.5 85t-132.5 -85t-47.5 -238q0 -158 46.5 -244.5t132.5 -86.5z
" />
    <glyph glyph-name="omacron" unicode="&#x14d;" horiz-adv-x="597" 
d="M111 655v79h380v-79h-380zM297 -12q-116 0 -190.5 78.5t-74.5 208.5q0 129 76 209t191 80q121 0 193.5 -79t72.5 -210q0 -129 -76.5 -208t-191.5 -79zM300 63q64 0 106 54.5t42 158.5q0 105 -41.5 159t-106.5 54q-63 0 -107 -55t-44 -158t43.5 -158t107.5 -55z" />
    <glyph glyph-name="Obreve" unicode="&#x14e;" horiz-adv-x="680" 
d="M342 862q-71 0 -112.5 36.5t-49.5 103.5h78q16 -64 84 -64q70 0 84 64h78q-7 -67 -50 -103.5t-112 -36.5zM338 -12q-143 0 -221 105t-78 296q0 193 80 302t223 109q140 0 219.5 -107.5t79.5 -298.5q0 -192 -80 -299t-223 -107zM340 67q86 0 132.5 85.5t46.5 242.5
q0 156 -46.5 241t-131.5 85t-132.5 -85t-47.5 -238q0 -158 46.5 -244.5t132.5 -86.5z" />
    <glyph glyph-name="obreve" unicode="&#x14f;" horiz-adv-x="597" 
d="M300 625q-73 0 -115.5 40t-47.5 105h79q5 -33 27.5 -51.5t57.5 -18.5q70 0 85 70h79q-5 -64 -48.5 -104.5t-116.5 -40.5zM297 -12q-116 0 -190.5 78.5t-74.5 208.5q0 129 76 209t191 80q121 0 193.5 -79t72.5 -210q0 -129 -76.5 -208t-191.5 -79zM300 63q64 0 106 54.5
t42 158.5q0 105 -41.5 159t-106.5 54q-63 0 -107 -55t-44 -158t43.5 -158t107.5 -55z" />
    <glyph glyph-name="Ohungarumlaut" unicode="&#x150;" horiz-adv-x="680" 
d="M179 832l-43 56l182 154l62 -74zM420 832l-43 56l181 154l62 -74zM338 -12q-143 0 -221 105t-78 296q0 193 80 302t223 109q140 0 219.5 -107.5t79.5 -298.5q0 -192 -80 -299t-223 -107zM340 67q86 0 132.5 85.5t46.5 242.5q0 156 -46.5 241t-131.5 85t-132.5 -85
t-47.5 -238q0 -158 46.5 -244.5t132.5 -86.5z" />
    <glyph glyph-name="ohungarumlaut" unicode="&#x151;" horiz-adv-x="597" 
d="M159 601l-54 47l152 172l75 -61zM384 601l-55 47l152 172l75 -61zM297 -12q-116 0 -190.5 78.5t-74.5 208.5q0 129 76 209t191 80q121 0 193.5 -79t72.5 -210q0 -129 -76.5 -208t-191.5 -79zM300 63q64 0 106 54.5t42 158.5q0 105 -41.5 159t-106.5 54q-63 0 -107 -55
t-44 -158t43.5 -158t107.5 -55z" />
    <glyph glyph-name="OE" unicode="&#x152;" horiz-adv-x="970" 
d="M319 -12q-130 0 -205 105.5t-75 295.5q0 196 81 303.5t205 107.5q57 0 101.5 -25.5t66.5 -70.5v84h413v-202h-50q-7 11 -21 54l-16 51q-4 13 -10 16t-23 3h-166q-14 0 -14 -14v-241q0 -14 14 -14h50q31 0 41 5.5t17 26.5l5 15q6 17 15 30l42 -5v-219l-42 -5q-8 8 -15 25
l-6 18q-9 23 -19.5 28.5t-38.5 5.5h-49q-14 0 -14 -14v-260q0 -14 14 -14h187q17 0 23 3t10 16l14 42q14 49 23 63h50v-202h-434v94q-20 -47 -68 -76.5t-106 -29.5zM337 68q53 0 94 38t60 109v369q-12 59 -53.5 98t-95.5 39q-82 0 -131.5 -86.5t-49.5 -239.5t48 -240
t128 -87z" />
    <glyph glyph-name="oe" unicode="&#x153;" horiz-adv-x="995" 
d="M297 -12q-116 0 -190.5 78.5t-74.5 208.5q0 129 75.5 209t189.5 80q135 0 208 -107q30 50 85.5 78.5t117.5 28.5q93 0 158 -53q36 -30 59 -68t23 -76q0 -17 -12.5 -28t-43.5 -25q-153 -67 -318 -96q-10 -2 -10 -11q0 -49 46 -91.5t122 -42.5q103 0 177 88l41 -47
q-37 -57 -97.5 -91.5t-137.5 -34.5q-69 0 -124.5 29.5t-87.5 78.5q-34 -51 -88.5 -79.5t-117.5 -28.5zM566 289q25 0 101.5 20t125.5 41q18 7 25 13t7 16q0 37 -32 73q-35 40 -93 40q-64 0 -105.5 -46t-41.5 -125q0 -12 2 -24q2 -8 11 -8zM300 63q64 0 106 54.5t42 158.5
q0 105 -41.5 159t-106.5 54q-63 0 -107 -55t-44 -158t43.5 -158t107.5 -55z" />
    <glyph glyph-name="Racute" unicode="&#x154;" horiz-adv-x="642" 
d="M234 854l-30 60l212 109l47 -91zM45 0l-6 53q8 8 27 14l19 6q22 7 27.5 20t5.5 57v489q0 44 -5.5 56t-29.5 21l-18 6q-16 6 -25 14l5 52h257q270 0 270 -218q0 -154 -141 -203q-12 -5 -6 -16l111 -224q15 -29 25.5 -39t31.5 -17l10 -3q21 -6 31 -15l-4 -53h-157l-155 328
q-6 12 -22 12h-49q-14 0 -14 -15v-176q0 -43 5.5 -56t26.5 -20l17 -6q20 -6 29 -15l-5 -52h-261zM248 418h30q89 0 130.5 35t41.5 113q0 75 -38.5 109.5t-117.5 34.5h-47q-14 0 -14 -15v-262q0 -15 15 -15z" />
    <glyph glyph-name="racute" unicode="&#x155;" horiz-adv-x="509" 
d="M422 746l-203 -126l-39 52l177 152zM374 564q51 0 81.5 -30.5t30.5 -82.5v-4q0 -26 -10 -37q-12 -12 -35 -12h-63l-3 37q-3 46 -38 46q-49 0 -87 -56t-38 -136v-169q0 -23 8 -32t31 -17l17 -6q24 -7 38 -13l-2 -52h-280l-3 52q8 4 32 12l18 6q19 7 25 17t6 33v312
q0 25 -6.5 34t-27.5 16l-16 5q-18 5 -31 13l3 52h188v-90q27 46 69 74t93 28z" />
    <glyph glyph-name="Rcommaaccent" unicode="&#x156;" horiz-adv-x="642" 
d="M45 0l-6 53q8 8 27 14l19 6q22 7 27.5 20t5.5 57v489q0 44 -5.5 56t-29.5 21l-18 6q-16 6 -25 14l5 52h257q270 0 270 -218q0 -154 -141 -203q-12 -5 -6 -16l111 -224q15 -29 25.5 -39t31.5 -17l10 -3q21 -6 31 -15l-4 -53h-157l-155 328q-6 12 -22 12h-49q-14 0 -14 -15
v-176q0 -43 5.5 -56t26.5 -20l17 -6q20 -6 29 -15l-5 -52h-261zM248 418h30q89 0 130.5 35t41.5 113q0 75 -38.5 109.5t-117.5 34.5h-47q-14 0 -14 -15v-262q0 -15 15 -15zM337 -325l-51 35q56 44 56 84q0 14 -19.5 34t-19.5 48q0 24 18 40.5t44 16.5q34 0 54 -23.5
t20 -59.5q0 -100 -102 -175z" />
    <glyph glyph-name="rcommaaccent" unicode="&#x157;" horiz-adv-x="509" 
d="M374 564q51 0 81.5 -30.5t30.5 -82.5v-4q0 -26 -10 -37q-12 -12 -35 -12h-63l-3 37q-3 46 -38 46q-49 0 -87 -56t-38 -136v-169q0 -23 8 -32t31 -17l17 -6q24 -7 38 -13l-2 -52h-280l-3 52q8 4 32 12l18 6q19 7 25 17t6 33v312q0 25 -6.5 34t-27.5 16l-16 5q-18 5 -31 13
l3 52h188v-90q27 46 69 74t93 28zM163 -67q34 0 54 -23.5t20 -59.5q0 -100 -102 -175l-51 35q56 44 56 84q0 14 -19.5 34t-19.5 48q0 24 18 40.5t44 16.5z" />
    <glyph glyph-name="Rcaron" unicode="&#x158;" horiz-adv-x="642" 
d="M282 859l-118 126l44 49l115 -94l115 94l44 -48l-118 -127h-82zM45 0l-6 53q8 8 27 14l19 6q22 7 27.5 20t5.5 57v489q0 44 -5.5 56t-29.5 21l-18 6q-16 6 -25 14l5 52h257q270 0 270 -218q0 -154 -141 -203q-12 -5 -6 -16l111 -224q15 -29 25.5 -39t31.5 -17l10 -3
q21 -6 31 -15l-4 -53h-157l-155 328q-6 12 -22 12h-49q-14 0 -14 -15v-176q0 -43 5.5 -56t26.5 -20l17 -6q20 -6 29 -15l-5 -52h-261zM248 418h30q89 0 130.5 35t41.5 113q0 75 -38.5 109.5t-117.5 34.5h-47q-14 0 -14 -15v-262q0 -15 15 -15z" />
    <glyph glyph-name="rcaron" unicode="&#x159;" horiz-adv-x="509" 
d="M301 630h-64l-125 124l46 45l111 -87l111 87l46 -45zM374 564q51 0 81.5 -30.5t30.5 -82.5v-4q0 -26 -10 -37q-12 -12 -35 -12h-63l-3 37q-3 46 -38 46q-49 0 -87 -56t-38 -136v-169q0 -23 8 -32t31 -17l17 -6q24 -7 38 -13l-2 -52h-280l-3 52q8 4 32 12l18 6q19 7 25 17
t6 33v312q0 25 -6.5 34t-27.5 16l-16 5q-18 5 -31 13l3 52h188v-90q27 46 69 74t93 28z" />
    <glyph glyph-name="Sacute" unicode="&#x15a;" horiz-adv-x="578" 
d="M199 854l-30 60l212 109l47 -91zM300 -12q-97 0 -161 50q-17 13 -20 -9l-4 -29h-71v251h76l2 -36q5 -72 49 -112t118 -40q62 0 100.5 34.5t38.5 91.5q0 42 -25.5 73t-89.5 67l-117 67q-143 79 -143 211q0 87 61.5 140t160.5 53q85 0 140 -44q14 -11 18 6l6 31h71v-208
h-76l-5 34q-20 108 -143 108q-54 0 -86.5 -28.5t-32.5 -77.5q0 -37 23.5 -66.5t75.5 -59.5l126 -73q79 -45 114 -95.5t35 -114.5q0 -99 -67.5 -161.5t-173.5 -62.5z" />
    <glyph glyph-name="sacute" unicode="&#x15b;" horiz-adv-x="513" 
d="M202 620l-39 52l177 152l65 -78zM281 -12q-100 0 -150 42q-10 8 -13 -4l-7 -26h-66v203h74l3 -30q11 -112 148 -112q48 0 73 21t25 54q0 29 -17 47t-61 34l-116 43q-121 45 -121 146q0 70 57 114t139 44q72 0 117 -37q9 -8 11 5l4 23h66v-172h-73l-6 27q-2 12 -9 27
q-24 54 -100 54q-48 0 -75 -18.5t-27 -53.5q0 -23 19 -38.5t57 -30.5l125 -47q114 -43 114 -148q0 -72 -51.5 -119.5t-139.5 -47.5z" />
    <glyph glyph-name="Scircumflex" unicode="&#x15c;" horiz-adv-x="578" 
d="M174 842l-44 48l118 126h82l118 -126l-44 -49l-115 95zM300 -12q-97 0 -161 50q-17 13 -20 -9l-4 -29h-71v251h76l2 -36q5 -72 49 -112t118 -40q62 0 100.5 34.5t38.5 91.5q0 42 -25.5 73t-89.5 67l-117 67q-143 79 -143 211q0 87 61.5 140t160.5 53q85 0 140 -44
q14 -11 18 6l6 31h71v-208h-76l-5 34q-20 108 -143 108q-54 0 -86.5 -28.5t-32.5 -77.5q0 -37 23.5 -66.5t75.5 -59.5l126 -73q79 -45 114 -95.5t35 -114.5q0 -99 -67.5 -161.5t-173.5 -62.5z" />
    <glyph glyph-name="scircumflex" unicode="&#x15d;" horiz-adv-x="513" 
d="M140 624l-45 45l125 124h64l126 -124l-46 -45l-112 86zM281 -12q-100 0 -150 42q-10 8 -13 -4l-7 -26h-66v203h74l3 -30q11 -112 148 -112q48 0 73 21t25 54q0 29 -17 47t-61 34l-116 43q-121 45 -121 146q0 70 57 114t139 44q72 0 117 -37q9 -8 11 5l4 23h66v-172h-73
l-6 27q-2 12 -9 27q-24 54 -100 54q-48 0 -75 -18.5t-27 -53.5q0 -23 19 -38.5t57 -30.5l125 -47q114 -43 114 -148q0 -72 -51.5 -119.5t-139.5 -47.5z" />
    <glyph glyph-name="Scedilla" unicode="&#x15e;" horiz-adv-x="578" 
d="M541 212q0 -91 -57.5 -151.5t-151.5 -70.5l-8 -21q46 -11 71 -37t25 -62q0 -40 -31 -68.5t-85 -28.5q-64 0 -111 32l22 53q35 -25 72 -25q20 0 31.5 11t11.5 29q0 49 -76 62l22 54q-82 6 -137 49q-17 13 -20 -9l-4 -29h-71v251h76l2 -36q5 -72 49 -112t118 -40
q62 0 100.5 34.5t38.5 91.5q0 42 -25.5 73t-89.5 67l-117 67q-143 79 -143 211q0 87 61.5 140t160.5 53q85 0 140 -44q14 -11 18 6l6 31h71v-208h-76l-5 34q-20 108 -143 108q-54 0 -86.5 -28.5t-32.5 -77.5q0 -37 23.5 -66.5t75.5 -59.5l126 -73q79 -45 114 -95.5
t35 -114.5z" />
    <glyph glyph-name="scedilla" unicode="&#x15f;" horiz-adv-x="513" 
d="M472 155q0 -70 -48.5 -117t-132.5 -50l-8 -19q46 -11 71 -37t25 -62q0 -40 -31 -68.5t-85 -28.5q-64 0 -111 32l22 53q35 -25 72 -25q20 0 31.5 11t11.5 29q0 49 -76 62l23 56q-69 9 -105 39q-10 8 -13 -4l-7 -26h-66v203h74l3 -30q11 -112 148 -112q48 0 73 21t25 54
q0 29 -17 47t-61 34l-116 43q-121 45 -121 146q0 70 57 114t139 44q72 0 117 -37q9 -8 11 5l4 23h66v-172h-73l-6 27q-2 12 -9 27q-24 54 -100 54q-48 0 -75 -18.5t-27 -53.5q0 -23 19 -38.5t57 -30.5l125 -47q114 -43 114 -148z" />
    <glyph glyph-name="Scaron" unicode="&#x160;" horiz-adv-x="578" 
d="M247 859l-118 126l44 49l115 -94l115 94l44 -48l-118 -127h-82zM300 -12q-97 0 -161 50q-17 13 -20 -9l-4 -29h-71v251h76l2 -36q5 -72 49 -112t118 -40q62 0 100.5 34.5t38.5 91.5q0 42 -25.5 73t-89.5 67l-117 67q-143 79 -143 211q0 87 61.5 140t160.5 53
q85 0 140 -44q14 -11 18 6l6 31h71v-208h-76l-5 34q-20 108 -143 108q-54 0 -86.5 -28.5t-32.5 -77.5q0 -37 23.5 -66.5t75.5 -59.5l126 -73q79 -45 114 -95.5t35 -114.5q0 -99 -67.5 -161.5t-173.5 -62.5z" />
    <glyph glyph-name="scaron" unicode="&#x161;" horiz-adv-x="513" 
d="M220 630l-125 124l46 45l111 -87l111 87l46 -45l-125 -124h-64zM281 -12q-100 0 -150 42q-10 8 -13 -4l-7 -26h-66v203h74l3 -30q11 -112 148 -112q48 0 73 21t25 54q0 29 -17 47t-61 34l-116 43q-121 45 -121 146q0 70 57 114t139 44q72 0 117 -37q9 -8 11 5l4 23h66
v-172h-73l-6 27q-2 12 -9 27q-24 54 -100 54q-48 0 -75 -18.5t-27 -53.5q0 -23 19 -38.5t57 -30.5l125 -47q114 -43 114 -148q0 -72 -51.5 -119.5t-139.5 -47.5z" />
    <glyph glyph-name="uni0162" unicode="&#x162;" horiz-adv-x="654" 
d="M192 0l-6 52q11 9 29 14l22 7q23 7 28 20t5 56v547q0 14 -14 14h-99q-17 0 -23 -3t-10 -16l-16 -51q-14 -43 -21 -54h-50v202h580v-202h-50q-10 17 -21 54l-16 51q-4 13 -10 16t-23 3h-99q-14 0 -14 -14v-547q0 -43 5 -56t27 -20l20 -6q22 -7 31 -15l-5 -52h-270z
M298 -325l-51 35q56 44 56 84q0 14 -19.5 34t-19.5 48q0 24 18 40.5t44 16.5q34 0 54 -23.5t20 -59.5q0 -100 -102 -175z" />
    <glyph glyph-name="uni0163" unicode="&#x163;" horiz-adv-x="403" 
d="M230 -12q-134 0 -134 140v348h-86v66l46 10q25 5 36.5 15.5t16.5 32.5l29 120h68v-168h120v-76h-120v-337q0 -34 11.5 -49.5t37.5 -15.5q37 0 84 40l38 -54q-70 -72 -147 -72zM195 -325l-51 35q56 44 56 84q0 14 -19.5 34t-19.5 48q0 24 18 40.5t44 16.5q34 0 54 -23.5
t20 -59.5q0 -100 -102 -175z" />
    <glyph glyph-name="Tcaron" unicode="&#x164;" horiz-adv-x="654" 
d="M287 859l-118 126l44 49l115 -94l115 94l44 -48l-118 -127h-82zM192 0l-6 52q11 9 29 14l22 7q23 7 28 20t5 56v547q0 14 -14 14h-99q-17 0 -23 -3t-10 -16l-16 -51q-14 -43 -21 -54h-50v202h580v-202h-50q-10 17 -21 54l-16 51q-4 13 -10 16t-23 3h-99q-14 0 -14 -14
v-547q0 -43 5 -56t27 -20l20 -6q22 -7 31 -15l-5 -52h-270z" />
    <glyph glyph-name="tcaron" unicode="&#x165;" horiz-adv-x="403" 
d="M314 619l-54 36q55 39 55 84q0 13 -21.5 34t-21.5 47q0 23 17.5 38.5t44.5 15.5q33 0 53.5 -23.5t20.5 -59.5q0 -97 -94 -172zM230 -12q-134 0 -134 140v348h-86v66l46 10q25 5 36.5 15.5t16.5 32.5l29 120h68v-168h120v-76h-120v-337q0 -34 11.5 -49.5t37.5 -15.5
q37 0 84 40l38 -54q-70 -72 -147 -72z" />
    <glyph glyph-name="Tbar" unicode="&#x166;" horiz-adv-x="654" 
d="M37 788h580v-202h-50q-10 17 -21 54l-16 51q-4 13 -10 16t-23 3h-99q-14 0 -14 -14v-267h133v-74h-133v-206q0 -43 5 -56t27 -20l20 -6q22 -7 31 -15l-5 -52h-270l-6 52q11 9 29 14l22 7q23 7 28 20t5 56v206h-133v74h133v267q0 14 -14 14h-99q-17 0 -23 -3t-10 -16
l-16 -51q-14 -43 -21 -54h-50v202z" />
    <glyph glyph-name="tbar" unicode="&#x167;" horiz-adv-x="403" 
d="M340 114l38 -54q-70 -72 -147 -72q-134 0 -134 140v134h-77v76h77v138h-86v66l46 10q25 5 36.5 15.5t16.5 32.5l29 120h68v-168h120v-76h-120v-138h110v-76h-110v-123q0 -34 11.5 -49.5t37.5 -15.5q37 0 84 40z" />
    <glyph glyph-name="Utilde" unicode="&#x168;" horiz-adv-x="716" 
d="M241 861l-59 34q17 45 50 71t72 26q34 0 80 -26t66 -26q41 0 56 50l57 -34q-10 -41 -40 -70t-69 -29q-36 0 -83 26t-64 26q-47 0 -66 -48zM360 -12q-125 0 -191 67t-66 196v388q0 43 -5.5 56t-26.5 20l-17 6q-20 6 -29 15l5 52h261l6 -52q-9 -9 -29 -15l-17 -6
q-22 -7 -27.5 -20t-5.5 -56v-384q0 -93 39 -137t122 -44q79 0 115.5 46.5t36.5 148.5v370q0 43 -5.5 56t-27.5 20l-17 6q-18 6 -29 15l6 52h227l6 -52q-9 -9 -29 -15l-17 -6q-22 -7 -27.5 -20t-5.5 -56v-377q0 -274 -252 -274z" />
    <glyph glyph-name="utilde" unicode="&#x169;" horiz-adv-x="632" 
d="M224 686q-48 0 -69 -57l-59 40q16 48 50 75.5t76 27.5q36 0 83.5 -29.5t66.5 -29.5q43 0 59 60l57 -37q-9 -43 -39.5 -76t-69.5 -33q-38 0 -86 29.5t-69 29.5zM574 62q15 -2 28 -10l-3 -52h-163v95q-54 -107 -172 -107q-82 0 -129.5 50.5t-47.5 147.5v257q0 20 -4 28
t-17 12l-13 5q-21 7 -28 12l3 52h169v-354q0 -126 94 -126q62 0 97.5 48.5t35.5 139.5v183q0 19 -5.5 27t-20.5 13l-13 5q-21 7 -29 12l3 52h175v-440q0 -22 5 -31t20 -14z" />
    <glyph glyph-name="Umacron" unicode="&#x16a;" horiz-adv-x="716" 
d="M205 892v79h342v-79h-342zM360 -12q-125 0 -191 67t-66 196v388q0 43 -5.5 56t-26.5 20l-17 6q-20 6 -29 15l5 52h261l6 -52q-9 -9 -29 -15l-17 -6q-22 -7 -27.5 -20t-5.5 -56v-384q0 -93 39 -137t122 -44q79 0 115.5 46.5t36.5 148.5v370q0 43 -5.5 56t-27.5 20l-17 6
q-18 6 -29 15l6 52h227l6 -52q-9 -9 -29 -15l-17 -6q-22 -7 -27.5 -20t-5.5 -56v-377q0 -274 -252 -274z" />
    <glyph glyph-name="umacron" unicode="&#x16b;" horiz-adv-x="632" 
d="M484 734v-79h-380v79h380zM574 62q15 -2 28 -10l-3 -52h-163v95q-54 -107 -172 -107q-82 0 -129.5 50.5t-47.5 147.5v257q0 20 -4 28t-17 12l-13 5q-21 7 -28 12l3 52h169v-354q0 -126 94 -126q62 0 97.5 48.5t35.5 139.5v183q0 19 -5.5 27t-20.5 13l-13 5q-21 7 -29 12
l3 52h175v-440q0 -22 5 -31t20 -14z" />
    <glyph glyph-name="Ubreve" unicode="&#x16c;" horiz-adv-x="716" 
d="M376 862q-71 0 -112.5 36.5t-49.5 103.5h78q16 -64 84 -64q70 0 84 64h78q-7 -67 -50 -103.5t-112 -36.5zM360 -12q-125 0 -191 67t-66 196v388q0 43 -5.5 56t-26.5 20l-17 6q-20 6 -29 15l5 52h261l6 -52q-9 -9 -29 -15l-17 -6q-22 -7 -27.5 -20t-5.5 -56v-384
q0 -93 39 -137t122 -44q79 0 115.5 46.5t36.5 148.5v370q0 43 -5.5 56t-27.5 20l-17 6q-18 6 -29 15l6 52h227l6 -52q-9 -9 -29 -15l-17 -6q-22 -7 -27.5 -20t-5.5 -56v-377q0 -274 -252 -274z" />
    <glyph glyph-name="ubreve" unicode="&#x16d;" horiz-adv-x="632" 
d="M293 625q-73 0 -115.5 40t-47.5 105h79q5 -33 27.5 -51.5t57.5 -18.5q70 0 85 70h79q-5 -64 -48.5 -104.5t-116.5 -40.5zM574 62q15 -2 28 -10l-3 -52h-163v95q-54 -107 -172 -107q-82 0 -129.5 50.5t-47.5 147.5v257q0 20 -4 28t-17 12l-13 5q-21 7 -28 12l3 52h169
v-354q0 -126 94 -126q62 0 97.5 48.5t35.5 139.5v183q0 19 -5.5 27t-20.5 13l-13 5q-21 7 -29 12l3 52h175v-440q0 -22 5 -31t20 -14z" />
    <glyph glyph-name="Uring" unicode="&#x16e;" horiz-adv-x="716" 
d="M375 847q-53 0 -86.5 26.5t-33.5 74.5q0 47 33.5 74t87.5 27q52 0 85.5 -26.5t33.5 -73.5t-33 -74.5t-87 -27.5zM376 899q23 0 37 13.5t14 36.5t-14.5 35.5t-37.5 12.5t-37 -13t-14 -35q0 -23 14.5 -36.5t37.5 -13.5zM360 -12q-125 0 -191 67t-66 196v388q0 43 -5.5 56
t-26.5 20l-17 6q-20 6 -29 15l5 52h261l6 -52q-9 -9 -29 -15l-17 -6q-22 -7 -27.5 -20t-5.5 -56v-384q0 -93 39 -137t122 -44q79 0 115.5 46.5t36.5 148.5v370q0 43 -5.5 56t-27.5 20l-17 6q-18 6 -29 15l6 52h227l6 -52q-9 -9 -29 -15l-17 -6q-22 -7 -27.5 -20t-5.5 -56
v-377q0 -274 -252 -274z" />
    <glyph glyph-name="uring" unicode="&#x16f;" horiz-adv-x="632" 
d="M293 610q-53 0 -86.5 28.5t-33.5 78.5q0 48 33.5 77.5t87.5 29.5q52 0 86 -29t34 -77q0 -50 -33.5 -79t-87.5 -29zM293 771q-23 0 -37.5 -15t-14.5 -38q0 -24 15 -39.5t38 -15.5t37 15.5t14 39.5t-15 38.5t-37 14.5zM574 62q15 -2 28 -10l-3 -52h-163v95
q-54 -107 -172 -107q-82 0 -129.5 50.5t-47.5 147.5v257q0 20 -4 28t-17 12l-13 5q-21 7 -28 12l3 52h169v-354q0 -126 94 -126q62 0 97.5 48.5t35.5 139.5v183q0 19 -5.5 27t-20.5 13l-13 5q-21 7 -29 12l3 52h175v-440q0 -22 5 -31t20 -14z" />
    <glyph glyph-name="Uhungarumlaut" unicode="&#x170;" horiz-adv-x="716" 
d="M213 832l-43 56l182 154l62 -74zM454 832l-43 56l181 154l62 -74zM360 -12q-125 0 -191 67t-66 196v388q0 43 -5.5 56t-26.5 20l-17 6q-20 6 -29 15l5 52h261l6 -52q-9 -9 -29 -15l-17 -6q-22 -7 -27.5 -20t-5.5 -56v-384q0 -93 39 -137t122 -44q79 0 115.5 46.5
t36.5 148.5v370q0 43 -5.5 56t-27.5 20l-17 6q-18 6 -29 15l6 52h227l6 -52q-9 -9 -29 -15l-17 -6q-22 -7 -27.5 -20t-5.5 -56v-377q0 -274 -252 -274z" />
    <glyph glyph-name="uhungarumlaut" unicode="&#x171;" horiz-adv-x="632" 
d="M325 759l-173 -158l-54 47l152 172zM377 601l-55 47l152 172l75 -61zM574 62q15 -2 28 -10l-3 -52h-163v95q-54 -107 -172 -107q-82 0 -129.5 50.5t-47.5 147.5v257q0 20 -4 28t-17 12l-13 5q-21 7 -28 12l3 52h169v-354q0 -126 94 -126q62 0 97.5 48.5t35.5 139.5v183
q0 19 -5.5 27t-20.5 13l-13 5q-21 7 -29 12l3 52h175v-440q0 -22 5 -31t20 -14z" />
    <glyph glyph-name="Uogonek" unicode="&#x172;" horiz-adv-x="716" 
d="M685 788l6 -52q-9 -9 -29 -15l-17 -6q-22 -7 -27.5 -20t-5.5 -56v-377q0 -174 -109 -241q-96 -58 -96 -122q0 -21 12 -34t34 -13q36 0 73 35l33 -45q-56 -59 -124 -59q-53 0 -84.5 26t-31.5 72q0 31 19 60.5t49 47.5q-9 -1 -25 -1q-125 0 -192 67.5t-67 195.5v388
q0 43 -5.5 56t-26.5 20l-17 6q-20 6 -29 15l5 52h261l6 -52q-9 -9 -29 -15l-17 -6q-22 -7 -27.5 -20t-5.5 -56v-384q0 -93 39 -137t122 -44q79 0 115.5 46.5t36.5 148.5v370q0 43 -5.5 56t-27.5 20l-17 6q-18 6 -29 15l6 52h227z" />
    <glyph glyph-name="uogonek" unicode="&#x173;" horiz-adv-x="628" 
d="M609 -113l32 -45q-56 -59 -126 -59q-52 0 -83 28t-31 78q0 35 21.5 66.5t54.5 47.5q-45 15 -50 70q-58 -85 -163 -85q-82 0 -129.5 50.5t-47.5 147.5v257q0 20 -4 28t-17 12l-13 5q-21 7 -28 12l3 52h169v-354q0 -126 94 -126q62 0 97.5 48.5t35.5 139.5v183
q0 19 -5.5 27t-20.5 13l-13 5q-21 7 -29 12l3 52h175v-440q0 -22 5 -31t20 -14l16 -5q18 -5 27 -10l-3 -52h-10q-40 0 -69.5 -29t-29.5 -66q0 -24 12 -38.5t34 -14.5q35 0 73 35z" />
    <glyph glyph-name="Wcircumflex" unicode="&#x174;" horiz-adv-x="952" 
d="M498 936l-115 -94l-44 48l118 126h82l118 -126l-44 -49zM934 788l6 -52q-9 -7 -28 -13l-15 -5q-17 -6 -28 -21.5t-19 -53.5l-142 -643h-110l-122 564l-134 -564h-110l-145 676q-7 30 -33 39l-14 5q-24 9 -31 16l5 52h271l8 -53q-8 -6 -32 -14l-17 -5q-22 -6 -29.5 -20.5
t-0.5 -45.5l95 -487l139 625h97l127 -617l100 474q7 37 1 51t-30 21l-17 5q-19 6 -34 16l5 50h237z" />
    <glyph glyph-name="wcircumflex" unicode="&#x175;" horiz-adv-x="860" 
d="M334 624l-45 45l125 124h64l126 -124l-46 -45l-112 86zM233 0l-147 449q-7 28 -32 35l-15 5q-15 5 -32 11l2 52h261l2 -51q-10 -4 -32 -11l-16 -5q-29 -8 -21 -39l90 -297l104 403h93l110 -403l82 285q7 23 4.5 34.5t-19.5 15.5l-13 4q-26 8 -35 12l2 52h231l2 -53
q-10 -6 -32 -13l-15 -5q-19 -6 -28.5 -17t-17.5 -38l-134 -426h-90l-109 377l-104 -377h-91z" />
    <glyph glyph-name="Ycircumflex" unicode="&#x176;" horiz-adv-x="654" 
d="M352 936l-115 -94l-44 48l118 126h82l118 -126l-44 -49zM649 788l6 -52q-5 -5 -29 -13l-15 -6q-18 -6 -31 -21t-32 -53l-152 -304v-190q0 -44 5 -56.5t27 -19.5l20 -6q22 -7 31 -15l-5 -52h-270l-6 52q9 9 29 14l22 7q22 7 27 19.5t5 56.5v184l-167 320q-16 32 -26 43
t-29 18l-18 6q-24 9 -32 16l5 52h282l7 -53q-9 -7 -28 -12l-21 -6q-28 -9 -31 -24.5t20 -60.5l111 -211l114 233q26 54 -8 63l-18 6q-22 7 -32 15l5 50h234z" />
    <glyph glyph-name="ycircumflex" unicode="&#x177;" horiz-adv-x="606" 
d="M317 710l-112 -86l-45 45l125 124h64l126 -124l-46 -45zM598 552l2 -53q-12 -6 -30 -12l-19 -6q-18 -6 -27.5 -19t-21.5 -45l-132 -356q-63 -171 -109.5 -228t-116.5 -57q-59 0 -95 38.5t-36 105.5v4q0 38 35 38h73l3 -33q4 -37 15 -54.5t33 -17.5q27 0 46.5 31t45.5 102
l-162 422q-17 42 -26 55.5t-25 17.5l-13 4q-2 1 -14 5t-17 6l2 52h263l1 -51q-15 -7 -32 -11l-16 -5q-31 -8 -19 -41l112 -314l109 307q7 21 2.5 32t-23.5 16l-14 4l-31 11l2 52h235z" />
    <glyph glyph-name="Ydieresis" unicode="&#x178;" horiz-adv-x="654" 
d="M253 859q-31 0 -50 18.5t-19 49.5t19 49.5t50 18.5t49 -18.5t18 -49.5t-18 -49.5t-49 -18.5zM450 859q-31 0 -49.5 18.5t-18.5 49.5t18.5 49.5t49.5 18.5t49.5 -18.5t18.5 -49.5t-18.5 -49.5t-49.5 -18.5zM649 788l6 -52q-5 -5 -29 -13l-15 -6q-18 -6 -31 -21t-32 -53
l-152 -304v-190q0 -44 5 -56.5t27 -19.5l20 -6q22 -7 31 -15l-5 -52h-270l-6 52q9 9 29 14l22 7q22 7 27 19.5t5 56.5v184l-167 320q-16 32 -26 43t-29 18l-18 6q-24 9 -32 16l5 52h282l7 -53q-9 -7 -28 -12l-21 -6q-28 -9 -31 -24.5t20 -60.5l111 -211l114 233q26 54 -8 63
l-18 6q-22 7 -32 15l5 50h234z" />
    <glyph glyph-name="Zacute" unicode="&#x179;" horiz-adv-x="575" 
d="M435 932l-229 -78l-30 60l212 109zM499 202h50v-202h-523v55l379 658h-235q-17 0 -23 -3.5t-10 -15.5l-19 -58q-12 -36 -19 -50h-51v202h494v-55l-380 -658h267q17 0 23 3t10 16l18 60q15 40 19 48z" />
    <glyph glyph-name="zacute" unicode="&#x17a;" horiz-adv-x="548" 
d="M430 746l-203 -126l-39 52l177 152zM450 197h55v-197h-468v63l320 418h-199q-20 0 -26 -22l-30 -107h-56v200h450v-63l-316 -417h215q22 0 27 20z" />
    <glyph glyph-name="Zdotaccent" unicode="&#x17b;" horiz-adv-x="575" 
d="M296 874q-34 0 -56 21t-22 53q0 33 22 53.5t56 20.5q33 0 54.5 -20.5t21.5 -53.5q0 -32 -21.5 -53t-54.5 -21zM499 202h50v-202h-523v55l379 658h-235q-17 0 -23 -3.5t-10 -15.5l-19 -58q-12 -36 -19 -50h-51v202h494v-55l-380 -658h267q17 0 23 3t10 16l18 60
q15 40 19 48z" />
    <glyph glyph-name="zdotaccent" unicode="&#x17c;" horiz-adv-x="548" 
d="M277 641q-32 0 -53.5 22t-21.5 54q0 33 21.5 54t53.5 21q31 0 53 -21.5t22 -53.5t-22 -54t-53 -22zM450 197h55v-197h-468v63l320 418h-199q-20 0 -26 -22l-30 -107h-56v200h450v-63l-316 -417h215q22 0 27 20z" />
    <glyph glyph-name="Zcaron" unicode="&#x17d;" horiz-adv-x="575" 
d="M336 859h-82l-118 126l44 49l115 -94l115 94l44 -48zM499 202h50v-202h-523v55l379 658h-235q-17 0 -23 -3.5t-10 -15.5l-19 -58q-12 -36 -19 -50h-51v202h494v-55l-380 -658h267q17 0 23 3t10 16l18 60q15 40 19 48z" />
    <glyph glyph-name="zcaron" unicode="&#x17e;" horiz-adv-x="548" 
d="M309 630h-64l-125 124l46 45l111 -87l111 87l46 -45zM450 197h55v-197h-468v63l320 418h-199q-20 0 -26 -22l-30 -107h-56v200h450v-63l-316 -417h215q22 0 27 20z" />
    <glyph glyph-name="longs" unicode="&#x17f;" horiz-adv-x="363" 
d="M36 0l-3 52q13 7 34 13l15 5q20 7 26.5 17t6.5 33v356h-94v76h94v64q0 94 49.5 139t128.5 45q69 0 112 -36t43 -97v-5q0 -19 -5 -24q-8 -9 -31 -9h-62v36q0 67 -58 67q-67 0 -67 -90v-522q0 -23 8.5 -32.5t35.5 -16.5l17 -5q31 -10 41 -14l-3 -52h-288z" />
    <glyph glyph-name="florin" unicode="&#x192;" horiz-adv-x="567" 
d="M26 -224q-65 0 -105 37.5t-40 106.5v4q0 19 7 26t26 7h65v-41q0 -72 53 -72q30 0 47 29t29 99l64 377h-118v76h130l27 158q20 115 70 166t128 51q61 0 100.5 -34t39.5 -99v-4q0 -19 -4 -24q-7 -11 -37 -11h-57v42q0 62 -46 62q-32 0 -50.5 -30.5t-30.5 -102.5l-31 -174
h134v-76h-146l-60 -359q-20 -116 -67.5 -165t-127.5 -49z" />
    <glyph glyph-name="uni01CD" unicode="&#x1cd;" horiz-adv-x="727" 
d="M324 859l-118 126l44 49l115 -94l115 94l44 -48l-118 -127h-82zM14 0l-4 50q9 7 31 16l13 5q21 9 31.5 23t26.5 60l207 634h91l223 -671q8 -22 17.5 -31.5t26.5 -15.5l8 -3q22 -7 34 -16l-5 -51h-285l-5 50q11 7 34 15l16 5q21 6 29 15.5t7.5 28.5t-11.5 55l-24 77
q-3 10 -14 10h-222q-10 0 -14 -10l-34 -110q-10 -34 -6.5 -47.5t20.5 -18.5l17 -5q23 -6 34 -16l-6 -49h-236zM265 330h170q15 0 10 14l-94 292h-4l-91 -292q-5 -14 9 -14z" />
    <glyph glyph-name="uni01CE" unicode="&#x1ce;" horiz-adv-x="588" 
d="M319 630h-64l-125 124l46 45l111 -87l111 87l46 -45zM538 62q14 -4 25 -10l-3 -52h-157v90q-22 -45 -70.5 -73.5t-109.5 -28.5q-81 0 -134 42t-53 114t48 113t165 65l113 24q15 3 20 9t5 21v18q0 99 -111 99q-90 0 -90 -73v-44h-96q-12 0 -19 10t-7 31q0 63 55 105
t158 42q220 0 220 -179v-273q0 -24 4.5 -33t21.5 -13zM387 210v76q-25 -10 -70 -20l-43 -11q-67 -15 -95 -37.5t-28 -63.5q0 -38 27.5 -63t71.5 -25q60 0 98.5 39t38.5 105z" />
    <glyph glyph-name="AEacute" unicode="&#x1fc;" horiz-adv-x="955" 
d="M517 854l-30 60l212 109l47 -91zM8 0l-3 50q11 8 34 16l19 7q23 8 38 25.5t32 53.5l214 457q29 58 29 73q0 10 -6.5 16.5t-24.5 13.5l-21 9q-15 5 -33 15l5 52h600v-202h-50q-7 11 -21 54l-16 51q-4 13 -10 16t-23 3h-167q-14 0 -14 -14v-241q0 -14 14 -14h51
q31 0 40.5 5.5t16.5 26.5l5 15q7 18 15 30l43 -5v-219l-43 -5q-8 10 -14 25l-6 18q-9 23 -19.5 28.5t-38.5 5.5h-50q-14 0 -14 -14v-260q0 -14 14 -14h188q17 0 23 3t10 16l14 42q15 53 23 63h50v-202h-509l-6 53q7 7 27 14l19 6q23 7 28 20.5t5 56.5v88q0 16 -15 16h-188
q-15 0 -21 -14l-52 -114q-11 -22 -11 -33q0 -17 22 -23l16 -5q25 -8 33 -16l-6 -49h-246zM311 329h145q20 0 20 24v345h-14l-156 -344q-6 -12 -6 -17q0 -8 11 -8z" />
    <glyph glyph-name="aeacute" unicode="&#x1fd;" horiz-adv-x="933" 
d="M420 620l-39 52l177 152l65 -78zM223 -12q-81 0 -134 42t-53 114t48 113t165 65l113 24q15 3 20 9t5 21v18q0 99 -111 99q-90 0 -90 -73v-44h-96q-12 0 -19 10t-7 31q0 63 55 105t158 42q134 0 182 -87q28 40 80 63.5t109 23.5q93 0 158 -55q36 -29 58 -68t22 -75
q0 -16 -12.5 -27t-42.5 -24q-66 -29 -159 -57t-160 -40q-10 -2 -10 -12q0 -50 46 -91.5t123 -41.5q102 0 176 88l41 -47q-36 -57 -97.5 -91.5t-137.5 -34.5q-77 0 -137 33.5t-88 87.5q-21 -52 -77 -86.5t-128 -34.5zM505 289q25 0 101.5 20.5t124.5 40.5q18 7 25 13t7 16
q0 39 -32 73q-33 40 -93 40q-64 0 -105 -46t-41 -125q0 -12 2 -24q2 -8 11 -8zM250 66q60 0 98.5 39t38.5 105v76q-25 -10 -70 -20l-43 -11q-67 -15 -95 -37.5t-28 -63.5q0 -38 27.5 -63t71.5 -25z" />
    <glyph glyph-name="Oslashacute" unicode="&#x1fe;" horiz-adv-x="680" 
d="M493 932l-229 -78l-30 60l212 109zM553 703q88 -107 88 -309q0 -192 -80 -299t-223 -107q-94 0 -161 46l-62 -110l-60 36l69 123q-85 107 -85 306q0 193 80 302t223 109q92 0 159 -47l60 107l60 -36zM161 398q0 -123 28 -200l263 469q-43 54 -111 54q-85 0 -132.5 -85
t-47.5 -238zM340 67q86 0 132.5 85.5t46.5 242.5q0 123 -28 198l-264 -470q44 -56 113 -56z" />
    <glyph glyph-name="oslashacute" unicode="&#x1ff;" horiz-adv-x="597" 
d="M458 746l-203 -126l-39 52l177 152zM472 507q96 -79 96 -232q0 -129 -76.5 -208t-191.5 -79q-60 0 -109 21l-52 -92l-62 32l55 96q-97 81 -97 230q0 129 76 209t191 80q62 0 111 -21l51 90l61 -32zM152 276q0 -84 31 -139l189 333q-31 19 -69 19q-63 0 -107 -55t-44 -158
zM303 63q64 0 106 54.5t42 158.5q0 87 -30 141l-188 -334q32 -20 70 -20z" />
    <glyph glyph-name="Scommaaccent" unicode="&#x218;" horiz-adv-x="578" 
d="M300 -12q-97 0 -161 50q-17 13 -20 -9l-4 -29h-71v251h76l2 -36q5 -72 49 -112t118 -40q62 0 100.5 34.5t38.5 91.5q0 42 -25.5 73t-89.5 67l-117 67q-143 79 -143 211q0 87 61.5 140t160.5 53q85 0 140 -44q14 -11 18 6l6 31h71v-208h-76l-5 34q-20 108 -143 108
q-54 0 -86.5 -28.5t-32.5 -77.5q0 -37 23.5 -66.5t75.5 -59.5l126 -73q79 -45 114 -95.5t35 -114.5q0 -99 -67.5 -161.5t-173.5 -62.5zM279 -325l-51 35q56 44 56 84q0 14 -19.5 34t-19.5 48q0 24 18 40.5t44 16.5q34 0 54 -23.5t20 -59.5q0 -100 -102 -175z" />
    <glyph glyph-name="scommaaccent" unicode="&#x219;" horiz-adv-x="513" 
d="M281 -12q-100 0 -150 42q-10 8 -13 -4l-7 -26h-66v203h74l3 -30q11 -112 148 -112q48 0 73 21t25 54q0 29 -17 47t-61 34l-116 43q-121 45 -121 146q0 70 57 114t139 44q72 0 117 -37q9 -8 11 5l4 23h66v-172h-73l-6 27q-2 12 -9 27q-24 54 -100 54q-48 0 -75 -18.5
t-27 -53.5q0 -23 19 -38.5t57 -30.5l125 -47q114 -43 114 -148q0 -72 -51.5 -119.5t-139.5 -47.5zM238 -325l-51 35q56 44 56 84q0 14 -19.5 34t-19.5 48q0 24 18 40.5t44 16.5q34 0 54 -23.5t20 -59.5q0 -100 -102 -175z" />
    <glyph glyph-name="uni021A" unicode="&#x21a;" horiz-adv-x="654" 
d="M192 0l-6 52q11 9 29 14l22 7q23 7 28 20t5 56v547q0 14 -14 14h-99q-17 0 -23 -3t-10 -16l-16 -51q-14 -43 -21 -54h-50v202h580v-202h-50q-10 17 -21 54l-16 51q-4 13 -10 16t-23 3h-99q-14 0 -14 -14v-547q0 -43 5 -56t27 -20l20 -6q22 -7 31 -15l-5 -52h-270z
M298 -325l-51 35q56 44 56 84q0 14 -19.5 34t-19.5 48q0 24 18 40.5t44 16.5q34 0 54 -23.5t20 -59.5q0 -100 -102 -175z" />
    <glyph glyph-name="uni021B" unicode="&#x21b;" horiz-adv-x="403" 
d="M230 -12q-134 0 -134 140v348h-86v66l46 10q25 5 36.5 15.5t16.5 32.5l29 120h68v-168h120v-76h-120v-337q0 -34 11.5 -49.5t37.5 -15.5q37 0 84 40l38 -54q-70 -72 -147 -72zM195 -325l-51 35q56 44 56 84q0 14 -19.5 34t-19.5 48q0 24 18 40.5t44 16.5q34 0 54 -23.5
t20 -59.5q0 -100 -102 -175z" />
    <glyph glyph-name="uni0237" unicode="&#x237;" horiz-adv-x="267" 
d="M36 -224q-72 0 -113.5 37t-41.5 102v5q0 18 8 29q10 10 26 10h64v-44q0 -71 58 -71q55 0 55 77v515q0 23 -6.5 32t-25.5 15l-15 5q-22 8 -29 12l3 52h183v-586q0 -190 -166 -190z" />
    <glyph glyph-name="circumflex" unicode="&#x2c6;" horiz-adv-x="400" 
d="M88 624l-45 45l125 124h64l126 -124l-46 -45l-112 86z" />
    <glyph glyph-name="caron" unicode="&#x2c7;" horiz-adv-x="400" 
d="M168 630l-125 124l46 45l111 -87l111 87l46 -45l-125 -124h-64z" />
    <glyph glyph-name="breve" unicode="&#x2d8;" horiz-adv-x="400" 
d="M199 625q-73 0 -115.5 40t-47.5 105h79q5 -33 27.5 -51.5t57.5 -18.5q70 0 85 70h79q-5 -64 -48.5 -104.5t-116.5 -40.5z" />
    <glyph glyph-name="dotaccent" unicode="&#x2d9;" horiz-adv-x="400" 
d="M200 641q-32 0 -53.5 22t-21.5 54q0 33 21.5 54t53.5 21q31 0 53 -21.5t22 -53.5t-22 -54t-53 -22z" />
    <glyph glyph-name="ring" unicode="&#x2da;" horiz-adv-x="400" 
d="M199 610q-53 0 -86.5 28.5t-33.5 78.5q0 48 33.5 77.5t87.5 29.5q52 0 86 -29t34 -77q0 -50 -33.5 -79t-87.5 -29zM200 663q23 0 37 15.5t14 39.5t-15 38.5t-37 14.5q-23 0 -37.5 -15t-14.5 -38q0 -24 15 -39.5t38 -15.5z" />
    <glyph glyph-name="ogonek" unicode="&#x2db;" horiz-adv-x="400" 
d="M202 -217q-54 0 -85 26.5t-31 73.5q0 37 20 71t55 51h84q-71 -41 -71 -106q0 -21 12 -34t34 -13q35 0 73 35l33 -45q-56 -59 -124 -59z" />
    <glyph glyph-name="tilde" unicode="&#x2dc;" horiz-adv-x="400" 
d="M63 629l-59 40q16 48 50 75.5t76 27.5q36 0 83.5 -29.5t66.5 -29.5q43 0 59 60l57 -37q-9 -43 -39.5 -76t-69.5 -33q-38 0 -86 29.5t-69 29.5q-48 0 -69 -57z" />
    <glyph glyph-name="hungarumlaut" unicode="&#x2dd;" horiz-adv-x="400" 
d="M28 601l-54 47l152 172l75 -61zM253 601l-55 47l152 172l75 -61z" />
    <glyph glyph-name="gravecomb" unicode="&#x300;" 
d="M-114 620l-203 126l65 78l177 -152z" />
    <glyph glyph-name="acutecomb" unicode="&#x301;" 
d="M-263 620l-39 52l177 152l65 -78z" />
    <glyph glyph-name="uni0302" unicode="&#x302;" 
d="M-312 624l-45 45l125 124h64l126 -124l-46 -45l-112 86z" />
    <glyph glyph-name="tildecomb" unicode="&#x303;" 
d="M-337 629l-59 40q16 48 50 75.5t76 27.5q36 0 83.5 -29.5t66.5 -29.5q43 0 59 60l57 -37q-9 -43 -39.5 -76t-69.5 -33q-38 0 -86 29.5t-69 29.5q-48 0 -69 -57z" />
    <glyph glyph-name="uni0304" unicode="&#x304;" 
d="M-390 655v79h380v-79h-380z" />
    <glyph glyph-name="uni0306" unicode="&#x306;" 
d="M-201 625q-73 0 -115.5 40t-47.5 105h79q5 -33 27.5 -51.5t57.5 -18.5q70 0 85 70h79q-5 -64 -48.5 -104.5t-116.5 -40.5z" />
    <glyph glyph-name="uni0307" unicode="&#x307;" 
d="M-200 641q-32 0 -53.5 22t-21.5 54q0 33 21.5 54t53.5 21q31 0 53 -21.5t22 -53.5t-22 -54t-53 -22z" />
    <glyph glyph-name="uni0308" unicode="&#x308;" 
d="M-303 635q-28 0 -48.5 20.5t-20.5 48.5t20.5 48.5t48.5 20.5t48.5 -20.5t20.5 -48.5t-20.5 -48.5t-48.5 -20.5zM-97 635q-28 0 -48.5 20.5t-20.5 48.5t20.5 48.5t48.5 20.5t48.5 -20.5t20.5 -48.5t-20.5 -48.5t-48.5 -20.5z" />
    <glyph glyph-name="uni030A" unicode="&#x30a;" 
d="M-201 610q-53 0 -86.5 28.5t-33.5 78.5q0 48 33.5 77.5t87.5 29.5q52 0 86 -29t34 -77q0 -50 -33.5 -79t-87.5 -29zM-200 663q23 0 37 15.5t14 39.5t-15 38.5t-37 14.5q-23 0 -37.5 -15t-14.5 -38q0 -24 15 -39.5t38 -15.5z" />
    <glyph glyph-name="uni030B" unicode="&#x30b;" 
d="M-372 601l-54 47l152 172l75 -61zM-147 601l-55 47l152 172l75 -61z" />
    <glyph glyph-name="uni030C" unicode="&#x30c;" 
d="M-232 630l-125 124l46 45l111 -87l111 87l46 -45l-125 -124h-64z" />
    <glyph glyph-name="uni0315" unicode="&#x315;" 
d="M-221 545l-54 36q55 39 55 84q0 13 -21.5 34t-21.5 47q0 23 17.5 38.5t44.5 15.5q33 0 53.5 -23.5t20.5 -59.5q0 -97 -94 -172z" />
    <glyph glyph-name="uni0326" unicode="&#x326;" 
d="M-228 -325l-51 35q56 44 56 84q0 14 -19.5 34t-19.5 48q0 24 18 40.5t44 16.5q34 0 54 -23.5t20 -59.5q0 -100 -102 -175z" />
    <glyph glyph-name="uni0327" unicode="&#x327;" 
d="M-203 -227q-64 0 -111 32l22 53q35 -25 72 -25q20 0 31.5 11t11.5 29q0 49 -76 62l27 67h56l-13 -33q46 -11 71 -37t25 -62q0 -40 -31 -68.5t-85 -28.5z" />
    <glyph glyph-name="uni0328" unicode="&#x328;" 
d="M-198 -217q-54 0 -85 26.5t-31 73.5q0 37 20 71t55 51h84q-71 -41 -71 -106q0 -21 12 -34t34 -13q35 0 73 35l33 -45q-56 -59 -124 -59z" />
    <glyph glyph-name="uni0394" unicode="&#x394;" horiz-adv-x="704" 
d="M404 788l279 -788h-662l283 788h100zM342 673l-206 -591h407z" />
    <glyph glyph-name="uni03A9" unicode="&#x3a9;" horiz-adv-x="713" 
d="M686 409q0 -95 -44 -183.5t-120 -150.5h162v-75h-273v67q153 139 153 344q0 145 -51.5 228t-153.5 83q-96 0 -150.5 -84t-54.5 -220q0 -218 148 -352v-66h-275v75h164q-74 61 -116.5 153.5t-42.5 190.5q0 165 93.5 273t235.5 108t233.5 -101.5t91.5 -289.5z" />
    <glyph glyph-name="uni03BC" unicode="&#x3bc;" horiz-adv-x="639" 
d="M600 92l29 -40q-40 -64 -110 -64q-36 0 -60.5 25.5t-26.5 70.5q-21 -44 -57.5 -70t-81.5 -26q-31 0 -58.5 13t-41.5 34v-247h-106v655q0 20 -4 28t-17 12l-13 5q-21 7 -28 12l3 52h169v-354q0 -126 94 -126q62 0 97.5 48.5t35.5 139.5v183q0 19 -5.5 27t-20.5 13l-13 5
q-21 7 -29 12l3 52h175v-448q0 -33 25 -33q21 0 41 21z" />
    <glyph glyph-name="pi" unicode="&#x3c0;" horiz-adv-x="651" 
d="M499 -12q-50 0 -73 25.5t-23 80.5v386h-185v-480h-110v480h-90v72h584v-72h-89v-377q0 -34 22 -34q24 0 47 23l32 -41q-17 -27 -48 -45t-67 -18z" />
    <glyph glyph-name="Wgrave" unicode="&#x1e80;" horiz-adv-x="952" 
d="M608 914l-30 -60l-229 78l47 91zM934 788l6 -52q-9 -7 -28 -13l-15 -5q-17 -6 -28 -21.5t-19 -53.5l-142 -643h-110l-122 564l-134 -564h-110l-145 676q-7 30 -33 39l-14 5q-24 9 -31 16l5 52h271l8 -53q-8 -6 -32 -14l-17 -5q-22 -6 -29.5 -20.5t-0.5 -45.5l95 -487
l139 625h97l127 -617l100 474q7 37 1 51t-30 21l-17 5q-19 6 -34 16l5 50h237z" />
    <glyph glyph-name="wgrave" unicode="&#x1e81;" horiz-adv-x="860" 
d="M514 620l-203 126l65 78l177 -152zM233 0l-147 449q-7 28 -32 35l-15 5q-15 5 -32 11l2 52h261l2 -51q-10 -4 -32 -11l-16 -5q-29 -8 -21 -39l90 -297l104 403h93l110 -403l82 285q7 23 4.5 34.5t-19.5 15.5l-13 4q-26 8 -35 12l2 52h231l2 -53q-10 -6 -32 -13l-15 -5
q-19 -6 -28.5 -17t-17.5 -38l-134 -426h-90l-109 377l-104 -377h-91z" />
    <glyph glyph-name="Wacute" unicode="&#x1e82;" horiz-adv-x="952" 
d="M637 932l-229 -78l-30 60l212 109zM934 788l6 -52q-9 -7 -28 -13l-15 -5q-17 -6 -28 -21.5t-19 -53.5l-142 -643h-110l-122 564l-134 -564h-110l-145 676q-7 30 -33 39l-14 5q-24 9 -31 16l5 52h271l8 -53q-8 -6 -32 -14l-17 -5q-22 -6 -29.5 -20.5t-0.5 -45.5l95 -487
l139 625h97l127 -617l100 474q7 37 1 51t-30 21l-17 5q-19 6 -34 16l5 50h237z" />
    <glyph glyph-name="wacute" unicode="&#x1e83;" horiz-adv-x="860" 
d="M396 620l-39 52l177 152l65 -78zM233 0l-147 449q-7 28 -32 35l-15 5q-15 5 -32 11l2 52h261l2 -51q-10 -4 -32 -11l-16 -5q-29 -8 -21 -39l90 -297l104 403h93l110 -403l82 285q7 23 4.5 34.5t-19.5 15.5l-13 4q-26 8 -35 12l2 52h231l2 -53q-10 -6 -32 -13l-15 -5
q-19 -6 -28.5 -17t-17.5 -38l-134 -426h-90l-109 377l-104 -377h-91z" />
    <glyph glyph-name="Wdieresis" unicode="&#x1e84;" horiz-adv-x="952" 
d="M399 859q-31 0 -50 18.5t-19 49.5t19 49.5t50 18.5t49 -18.5t18 -49.5t-18 -49.5t-49 -18.5zM596 859q-31 0 -49.5 18.5t-18.5 49.5t18.5 49.5t49.5 18.5t49.5 -18.5t18.5 -49.5t-18.5 -49.5t-49.5 -18.5zM934 788l6 -52q-9 -7 -28 -13l-15 -5q-17 -6 -28 -21.5
t-19 -53.5l-142 -643h-110l-122 564l-134 -564h-110l-145 676q-7 30 -33 39l-14 5q-24 9 -31 16l5 52h271l8 -53q-8 -6 -32 -14l-17 -5q-22 -6 -29.5 -20.5t-0.5 -45.5l95 -487l139 625h97l127 -617l100 474q7 37 1 51t-30 21l-17 5q-19 6 -34 16l5 50h237z" />
    <glyph glyph-name="wdieresis" unicode="&#x1e85;" horiz-adv-x="860" 
d="M343 635q-28 0 -48.5 20.5t-20.5 48.5t20.5 48.5t48.5 20.5t48.5 -20.5t20.5 -48.5t-20.5 -48.5t-48.5 -20.5zM549 635q-28 0 -48.5 20.5t-20.5 48.5t20.5 48.5t48.5 20.5t48.5 -20.5t20.5 -48.5t-20.5 -48.5t-48.5 -20.5zM233 0l-147 449q-7 28 -32 35l-15 5
q-15 5 -32 11l2 52h261l2 -51q-10 -4 -32 -11l-16 -5q-29 -8 -21 -39l90 -297l104 403h93l110 -403l82 285q7 23 4.5 34.5t-19.5 15.5l-13 4q-26 8 -35 12l2 52h231l2 -53q-10 -6 -32 -13l-15 -5q-19 -6 -28.5 -17t-17.5 -38l-134 -426h-90l-109 377l-104 -377h-91z" />
    <glyph glyph-name="uni1E9E" unicode="&#x1e9e;" horiz-adv-x="710" 
d="M517 -12q-78 0 -119 50q-14 15 -17 -8l-3 -30h-68v221h74l3 -40q4 -58 31.5 -87t72.5 -29q36 0 61 26.5t25 66.5q0 47 -26 74t-86 61q-58 31 -84 59t-26 72q0 27 14 49t33.5 38t39.5 31t34 36.5t14 47.5q0 43 -32 70.5t-85 27.5q-65 0 -105.5 -45.5t-40.5 -145.5v-533
h-188l-6 53q7 7 27 14l19 6q21 6 27 19t6 38v399q0 133 68.5 202t194.5 69q103 0 169.5 -50t66.5 -122q0 -33 -15 -59t-36 -42t-42 -30t-36 -29.5t-15 -32.5q0 -19 16 -32.5t73 -45.5q32 -18 52 -31.5t42 -36t33 -53t11 -68.5q0 -76 -51.5 -128t-125.5 -52z" />
    <glyph glyph-name="Ygrave" unicode="&#x1ef2;" horiz-adv-x="654" 
d="M462 914l-30 -60l-229 78l47 91zM649 788l6 -52q-5 -5 -29 -13l-15 -6q-18 -6 -31 -21t-32 -53l-152 -304v-190q0 -44 5 -56.5t27 -19.5l20 -6q22 -7 31 -15l-5 -52h-270l-6 52q9 9 29 14l22 7q22 7 27 19.5t5 56.5v184l-167 320q-16 32 -26 43t-29 18l-18 6
q-24 9 -32 16l5 52h282l7 -53q-9 -7 -28 -12l-21 -6q-28 -9 -31 -24.5t20 -60.5l111 -211l114 233q26 54 -8 63l-18 6q-22 7 -32 15l5 50h234z" />
    <glyph glyph-name="ygrave" unicode="&#x1ef3;" horiz-adv-x="606" 
d="M424 672l-39 -52l-203 126l65 78zM598 552l2 -53q-12 -6 -30 -12l-19 -6q-18 -6 -27.5 -19t-21.5 -45l-132 -356q-63 -171 -109.5 -228t-116.5 -57q-59 0 -95 38.5t-36 105.5v4q0 38 35 38h73l3 -33q4 -37 15 -54.5t33 -17.5q27 0 46.5 31t45.5 102l-162 422
q-17 42 -26 55.5t-25 17.5l-13 4q-2 1 -14 5t-17 6l2 52h263l1 -51q-15 -7 -32 -11l-16 -5q-31 -8 -19 -41l112 -314l109 307q7 21 2.5 32t-23.5 16l-14 4l-31 11l2 52h235z" />
    <glyph glyph-name="uni2002" unicode="&#x2002;" horiz-adv-x="631" 
 />
    <glyph glyph-name="uni2003" unicode="&#x2003;" horiz-adv-x="931" 
 />
    <glyph glyph-name="uni2009" unicode="&#x2009;" horiz-adv-x="186" 
 />
    <glyph glyph-name="uni200A" unicode="&#x200a;" horiz-adv-x="58" 
 />
    <glyph glyph-name="endash" unicode="&#x2013;" horiz-adv-x="631" 
d="M40 264v78h551v-78h-551z" />
    <glyph glyph-name="emdash" unicode="&#x2014;" horiz-adv-x="931" 
d="M40 264v78h851v-78h-851z" />
    <glyph glyph-name="quoteleft" unicode="&#x2018;" horiz-adv-x="230" 
d="M118 470q-39 0 -61.5 27.5t-22.5 81.5q0 94 116 222l54 -41q-71 -84 -71 -116q0 -16 29 -48t29 -56q0 -30 -21 -50t-52 -20z" />
    <glyph glyph-name="quoteright" unicode="&#x2019;" horiz-adv-x="230" 
d="M81 470l-54 40q71 86 71 116q0 16 -29 48t-29 56q0 31 20.5 50.5t52.5 19.5q39 0 61.5 -28t22.5 -81q0 -94 -116 -221z" />
    <glyph glyph-name="quotesinglbase" unicode="&#x201a;" horiz-adv-x="230" 
d="M81 -178l-54 41q71 83 71 116q0 16 -29 48t-29 56q0 30 21 50t52 20q39 0 61.5 -28t22.5 -81q0 -90 -116 -222z" />
    <glyph glyph-name="quotedblleft" unicode="&#x201c;" horiz-adv-x="425" 
d="M110 470q-39 0 -61.5 27.5t-22.5 81.5q0 94 116 221l54 -41q-71 -85 -71 -116q0 -16 29 -48t29 -55q0 -31 -21 -50.5t-52 -19.5zM320 470q-39 0 -61.5 28t-22.5 81q0 94 116 221l54 -41q-71 -85 -71 -116q0 -16 29 -48t29 -55q0 -31 -21 -50.5t-52 -19.5z" />
    <glyph glyph-name="quotedblright" unicode="&#x201d;" horiz-adv-x="425" 
d="M73 470l-54 40q71 86 71 116q0 16 -29 48t-29 56q0 30 21 50t52 20q39 0 61.5 -28t22.5 -81q0 -94 -116 -221zM283 470l-54 40q71 86 71 116q0 16 -29 48t-29 56q0 30 21 50t52 20q39 0 61.5 -27.5t22.5 -81.5q0 -94 -116 -221z" />
    <glyph glyph-name="quotedblbase" unicode="&#x201e;" horiz-adv-x="425" 
d="M73 -178l-54 41q71 85 71 116q0 16 -29 48t-29 56q0 31 20.5 50.5t52.5 19.5q39 0 61.5 -28t22.5 -81q0 -90 -116 -222zM283 -178l-54 41q71 83 71 116q0 16 -29 48t-29 56q0 30 21 50t52 20q39 0 61.5 -28t22.5 -81q0 -95 -116 -222z" />
    <glyph glyph-name="dagger" unicode="&#x2020;" horiz-adv-x="528" 
d="M231 87l-14 249l12 110l-178 -10v90l178 -9l-11 113l8 93h77l7 -93l-10 -113l177 9v-90l-177 11l11 -112l-14 -248h-66z" />
    <glyph glyph-name="daggerdbl" unicode="&#x2021;" horiz-adv-x="533" 
d="M226 -1l-9 98l11 106l-174 -10v91l174 -12l-10 89l10 89l-177 -12v91l178 -11l-12 107l10 98h77l9 -98l-11 -106l177 10v-91l-177 12l10 -89l-10 -89l180 12v-91l-180 10l11 -106l-10 -98h-77z" />
    <glyph glyph-name="bullet" unicode="&#x2022;" horiz-adv-x="556" 
d="M278 118q-79 0 -135.5 56.5t-56.5 135.5t56.5 135.5t135.5 56.5t135.5 -56.5t56.5 -135.5t-56.5 -135.5t-135.5 -56.5z" />
    <glyph glyph-name="ellipsis" unicode="&#x2026;" horiz-adv-x="750" 
d="M123 -10q-34 0 -58 23.5t-24 58.5q0 34 24 57t58 23t57.5 -23t23.5 -57q0 -35 -23.5 -58.5t-57.5 -23.5zM373 -10q-34 0 -58 23.5t-24 58.5q0 34 24 57t58 23t57.5 -23t23.5 -57q0 -35 -23.5 -58.5t-57.5 -23.5zM623 -10q-34 0 -58 23.5t-24 58.5q0 34 24 57t58 23
t57.5 -23t23.5 -57q0 -35 -23.5 -58.5t-57.5 -23.5z" />
    <glyph glyph-name="perthousand" unicode="&#x2030;" horiz-adv-x="1249" 
d="M214 420q-78 0 -123 45q-55 53 -55 145q0 88 51 141q49 49 130 49q77 0 121 -42q57 -49 57 -146q0 -92 -56 -146q-46 -46 -125 -46zM174 -15l-55 33l527 782l57 -34zM216 472q36 0 62 29q32 34 32 110q0 85 -32 114q-25 24 -63 24q-37 0 -62 -27q-33 -36 -33 -110
q0 -81 33 -115q24 -25 63 -25zM616 -12q-78 0 -123 45q-55 53 -55 145q0 88 51 141q49 49 130 49q74 0 121 -42q57 -49 57 -146q0 -92 -56 -146q-46 -46 -125 -46zM1032 -12q-78 0 -123 45q-55 53 -55 145q0 88 51 141q49 49 130 49q74 0 121 -42q57 -50 57 -146
q0 -92 -56 -146q-48 -46 -125 -46zM618 40q36 0 63 29q31 32 31 110q0 85 -32 114q-25 24 -63 24q-37 0 -61 -27q-33 -34 -33 -110q0 -79 33 -115q22 -25 62 -25zM1034 40q36 0 62 29q32 32 32 110q0 84 -33 114q-24 24 -62 24q-37 0 -61 -27q-33 -34 -33 -110
q0 -79 33 -115q22 -25 62 -25z" />
    <glyph glyph-name="guilsinglleft" unicode="&#x2039;" horiz-adv-x="302" 
d="M172 100l-117 196q-8 14 0 29l116 195l53 -27l-87 -179l89 -186z" />
    <glyph glyph-name="guilsinglright" unicode="&#x203a;" horiz-adv-x="302" 
d="M129 100l-53 28l89 186l-87 179l53 27l116 -195q8 -15 0 -29z" />
    <glyph glyph-name="fraction" unicode="&#x2044;" horiz-adv-x="444" 
d="M-6 -13l-58 43l513 781l59 -41z" />
    <glyph glyph-name="Euro" unicode="&#x20ac;" horiz-adv-x="693" 
d="M613 206l61 -30q-34 -83 -96 -135.5t-154 -52.5q-119 0 -193 74t-95 215h-95v70h88q-1 14 -1 42q0 19 2 53h-89v69h96q23 140 97 214.5t191 74.5q82 0 140 -44q10 -6 13 6l7 32h71v-216h-73l-6 27q-25 120 -134 120q-152 0 -185 -214h202v-69h-209q-1 -14 -1 -44
q0 -35 1 -51h209v-70h-202q32 -208 180 -208q106 0 175 137z" />
    <glyph glyph-name="uni2113" unicode="&#x2113;" horiz-adv-x="298" 
d="M23 0l-3 52q10 5 31 12l15 5q19 7 25 16t6 31v556q0 24 -6.5 32.5t-25.5 14.5l-14 5q-21 6 -30 12l3 52h183v-672q0 -22 6 -31.5t24 -15.5l15 -5q24 -8 32 -12l-3 -52h-258z" />
    <glyph glyph-name="uni2116" unicode="&#x2116;" horiz-adv-x="1175" 
d="M964 423q-78 0 -127 51.5t-49 137.5t50.5 137t126.5 51q78 0 126 -50.5t48 -137.5q0 -85 -50 -137t-125 -52zM45 0l-6 52q9 9 27 14l19 7q23 7 28 20.5t5 56.5v488q0 44 -5 56t-29 20l-20 7q-15 5 -24 14l5 53h188l327 -586v439q0 43 -5 55t-27 19l-15 5q-20 7 -31 16
l5 52h228l6 -52q-9 -9 -27 -14l-19 -7q-23 -7 -28 -20.5t-5 -56.5v-638h-93l-349 623v-476q0 -43 5 -55t27 -19l16 -5q18 -6 30 -16l-5 -52h-228zM963 474q42 0 67 37t25 101q0 65 -24.5 101t-66.5 36t-66.5 -35t-24.5 -102q0 -64 24 -101t66 -37zM790 309v54h342v-54h-342z
" />
    <glyph glyph-name="trademark" unicode="&#x2122;" horiz-adv-x="985" 
d="M144 429l-2 33q5 5 16 8l10 3q10 3 13.5 9.5t3.5 23.5v227q0 6 -8 6h-77q-13 0 -16 -13l-6 -26q-4 -18 -11 -31h-41v119h395v-120h-42q-5 13 -10 30l-6 29q-3 12 -17 12h-76q-7 0 -7 -6v-228q0 -18 2 -24t10 -8l10 -3q17 -7 18 -8l-2 -33h-157zM473 429l-3 35q6 4 17 7
l9 3q10 2 13 8t3 25v199q0 19 -3 26t-13 11l-10 3q-5 2 -15 7l2 35h131l109 -201l110 201h128l3 -35q-5 -3 -16 -6l-10 -3q-10 -2 -13.5 -8.5t-3.5 -24.5v-203q0 -18 3 -24.5t13 -9.5l9 -2q8 -3 18 -8l-3 -35h-156l-4 35q7 5 17 8l9 2q10 3 13 9.5t3 24.5v196l-104 -192h-57
l-104 189v-194q0 -17 3 -23.5t13 -10.5l8 -2q16 -6 18 -7l-2 -35h-135z" />
    <glyph glyph-name="uni2126" unicode="&#x2126;" horiz-adv-x="713" 
d="M686 409q0 -95 -44 -183.5t-120 -150.5h162v-75h-273v67q153 139 153 344q0 145 -51.5 228t-153.5 83q-96 0 -150.5 -84t-54.5 -220q0 -218 148 -352v-66h-275v75h164q-74 61 -116.5 153.5t-42.5 190.5q0 165 93.5 273t235.5 108t233.5 -101.5t91.5 -289.5z" />
    <glyph glyph-name="estimated" unicode="&#x212e;" horiz-adv-x="960" 
d="M480 -16q-159 0 -271.5 103t-112.5 249t112.5 249t271.5 103t271.5 -103t112.5 -249q0 -11 -1 -16h-623v-196q44 -51 106.5 -79.5t133.5 -28.5q147 0 243 112h66q-54 -67 -135 -105.5t-174 -38.5zM240 352h480v196q-97 108 -240 108q-145 0 -240 -108v-196z" />
    <glyph glyph-name="arrowleft" unicode="&#x2190;" horiz-adv-x="954" 
d="M356 33l-321 321l321 321l73 -70l-207 -201h709v-100h-709l207 -201z" />
    <glyph glyph-name="arrowup" unicode="&#x2191;" horiz-adv-x="722" 
d="M311 -60v709l-201 -207l-70 73l321 321l321 -321l-70 -73l-201 207v-709h-100z" />
    <glyph glyph-name="arrowright" unicode="&#x2192;" horiz-adv-x="961" 
d="M30 328v100h709l-207 201l73 70l321 -321l-321 -321l-73 70l207 201h-709z" />
    <glyph glyph-name="arrowdown" unicode="&#x2193;" horiz-adv-x="722" 
d="M361 -60l-321 321l70 73l201 -206v708h100v-708l201 206l70 -73z" />
    <glyph glyph-name="partialdiff" unicode="&#x2202;" horiz-adv-x="593" 
d="M276 -12q-107 0 -175.5 70.5t-68.5 188.5q0 139 79 226.5t196 87.5q85 0 137 -62q-19 91 -75.5 167t-133.5 124l39 55q137 -72 212 -201t75 -294q0 -67 -17 -129.5t-50.5 -115.5t-89.5 -85t-128 -32zM274 61q44 0 78.5 25t53.5 65t28 82.5t9 85.5q0 83 -35.5 125.5
t-87.5 42.5q-57 0 -97.5 -41t-57 -95.5t-16.5 -112.5q0 -86 33.5 -131.5t91.5 -45.5z" />
    <glyph glyph-name="uni2206" unicode="&#x2206;" horiz-adv-x="704" 
d="M404 788l279 -788h-662l283 788h100zM342 673l-206 -591h407z" />
    <glyph glyph-name="product" unicode="&#x220f;" horiz-adv-x="714" 
d="M47 -111l-6 53q8 8 28 14l19 6q22 7 27 19t5 54v675h-99v78h672v-78h-99v-672q0 -44 5 -56.5t27 -19.5l15 -5q20 -7 31 -16l-5 -52h-261l-6 53q8 8 28 14l19 6q22 7 27 19.5t5 57.5v671h-244v-676q0 -42 5 -53.5t27 -18.5l15 -5q20 -7 31 -16l-5 -52h-261z" />
    <glyph glyph-name="summation" unicode="&#x2211;" horiz-adv-x="601" 
d="M47 -111v85l267 381l-251 354v79h495v-202h-50q-10 18 -20 50l-17 56q-4 13 -11 17t-24 4h-251l241 -343l-272 -383h295q17 0 23 3.5t10 15.5l19 63q11 34 19 48h50v-228h-523z" />
    <glyph glyph-name="minus" unicode="&#x2212;" horiz-adv-x="578" 
d="M32 281v79h514v-79h-514z" />
    <glyph glyph-name="radical" unicode="&#x221a;" horiz-adv-x="603" 
d="M542 824l70 -18l-279 -806h-96l-133 438q-7 23 -15 31.5t-23 13.5l-16 5q-18 6 -30 12l3 52h161l120 -416z" />
    <glyph glyph-name="infinity" unicode="&#x221e;" horiz-adv-x="775" 
d="M586 172q-99 0 -195 109q-50 -50 -97 -75.5t-104 -25.5q-68 0 -116 42t-48 115q0 68 48.5 114t119.5 46q98 0 195 -104q94 96 199 96q72 0 116.5 -45t44.5 -115q0 -67 -46.5 -112t-116.5 -45zM191 256q43 0 76 21.5t72 65.5q-77 82 -143 82q-43 0 -67 -24t-24 -61
q0 -36 23.5 -60t62.5 -24zM584 242q39 0 63 24.5t24 66.5q0 32 -24.5 56t-62.5 24q-68 0 -141 -83q74 -88 141 -88z" />
    <glyph glyph-name="integral" unicode="&#x222b;" horiz-adv-x="575" 
d="M67 -224q-64 0 -104.5 35.5t-40.5 105.5v4q0 18 6 26q7 7 25 7h68v-41q0 -69 51 -69q33 0 48.5 30.5t15.5 105.5v615q0 98 50 151.5t137 53.5q73 0 115.5 -38t42.5 -104v-4q0 -16 -5 -22q-6 -9 -27 -9h-67v40q0 69 -58 69q-74 0 -74 -120v-608q0 -115 -48 -171.5
t-135 -56.5z" />
    <glyph glyph-name="approxequal" unicode="&#x2248;" horiz-adv-x="578" 
d="M404 373q-34 0 -66.5 11.5t-53.5 26t-48 26t-51 11.5q-33 0 -67 -19.5t-55 -51.5l-54 48q28 47 75.5 75t101.5 28q48 0 113.5 -38t109.5 -38q63 0 112 68l50 -47q-24 -41 -69 -70.5t-98 -29.5zM404 142q-43 0 -82.5 19t-73 37.5t-63.5 18.5q-33 0 -67 -19.5t-55 -51.5
l-54 48q28 47 75.5 75t101.5 28q48 0 113.5 -38t109.5 -38q64 0 112 68l50 -47q-24 -41 -69 -70.5t-98 -29.5z" />
    <glyph glyph-name="notequal" unicode="&#x2260;" horiz-adv-x="578" 
d="M546 401h-169l-98 -157h267v-78h-316l-102 -164l-57 37l80 127h-119v78h167l99 157h-266v79h315l101 161l56 -36l-78 -125h120v-79z" />
    <glyph glyph-name="lessequal" unicode="&#x2264;" horiz-adv-x="578" 
d="M539 253l-28 -72l-463 189v97l461 193l30 -72l-414 -169zM33 79h514v-79h-514v79z" />
    <glyph glyph-name="greaterequal" unicode="&#x2265;" horiz-adv-x="578" 
d="M69 181l-29 72l415 166l-414 169l30 72l461 -193v-97zM31 79h514v-79h-514v79z" />
    <glyph glyph-name="dotmath" unicode="&#x22c5;" horiz-adv-x="479" 
d="M240 230q-38 0 -63.5 26t-25.5 63t26 62.5t63 25.5t62.5 -25.5t25.5 -62.5q0 -38 -25.5 -63.5t-62.5 -25.5z" />
    <glyph glyph-name="lozenge" unicode="&#x25ca;" horiz-adv-x="640" 
d="M290 -21l-279 407l282 402h64l272 -404l-282 -405h-57zM324 84l206 293l-211 313l-208 -293z" />
    <glyph glyph-name="uniF8FF" unicode="&#xf8ff;" horiz-adv-x="936" 
d="M219 -42q-15 0 -26 9.5t-11 25.5q0 7 5 22l84 257l-219 159q-23 16 -23 37q0 17 11.5 26.5t29.5 9.5h276l84 259q12 33 38 33t38 -33l84 -259h276q18 0 29.5 -9.5t11.5 -26.5q0 -21 -23 -37l-219 -159l84 -257q5 -15 5 -22q0 -16 -11 -25.5t-26 -9.5t-31 12l-218 159
l-218 -159q-16 -12 -31 -12zM224 0l244 178l244 -178l-93 287v1l242 176h-300l-93 287l-93 -287h-300l242 -176v-1z" />
    <glyph glyph-name="uni00A40301" horiz-adv-x="489" 
d="M240 854l-30 60l212 109l47 -91zM207 -12q-83 0 -127.5 41t-44.5 113q0 59 41 59h74v-62q0 -44 14.5 -63.5t46.5 -19.5t45.5 19t13.5 67v497q0 45 -5 56.5t-29 20.5l-18 6q-16 5 -26 13l5 53h261l6 -52q-10 -9 -24 -13l-25 -9q-19 -6 -24.5 -19t-5.5 -52v-457
q0 -198 -178 -198z" />
    <glyph glyph-name="Cacute.loclPLK" horiz-adv-x="610" 
d="M344 848l-60 38l119 185l84 -57zM335 -12q-141 0 -218.5 103.5t-77.5 297.5q0 196 78 303.5t219 107.5q82 0 140 -44q10 -6 13 6l7 32h71v-216h-73l-6 27q-25 120 -134 120q-98 0 -145.5 -87.5t-47.5 -239.5q0 -329 188 -329q106 0 175 137l61 -30q-34 -83 -96 -135.5
t-154 -52.5z" />
    <glyph glyph-name="Nacute.loclPLK" horiz-adv-x="752" 
d="M385 848l-60 38l119 185l84 -57zM45 0l-6 52q9 9 27 14l19 7q23 7 28 20.5t5 56.5v488q0 44 -5 56t-29 20l-20 7q-15 5 -24 14l5 53h188l327 -586v439q0 43 -5 55t-27 19l-15 5q-20 7 -31 16l5 52h228l6 -52q-9 -9 -27 -14l-19 -7q-23 -7 -28 -20.5t-5 -56.5v-638h-93
l-349 623v-476q0 -43 5 -55t27 -19l16 -5q18 -6 30 -16l-5 -52h-228z" />
    <glyph glyph-name="Oacute.loclPLK" horiz-adv-x="680" 
d="M346 848l-60 38l119 185l84 -57zM338 -12q-143 0 -221 105t-78 296q0 193 80 302t223 109q140 0 219.5 -107.5t79.5 -298.5q0 -192 -80 -299t-223 -107zM340 67q86 0 132.5 85.5t46.5 242.5q0 156 -46.5 241t-131.5 85t-132.5 -85t-47.5 -238q0 -158 46.5 -244.5
t132.5 -86.5z" />
    <glyph glyph-name="Sacute.loclPLK" horiz-adv-x="578" 
d="M292 848l-60 38l119 185l84 -57zM300 -12q-97 0 -161 50q-17 13 -20 -9l-4 -29h-71v251h76l2 -36q5 -72 49 -112t118 -40q62 0 100.5 34.5t38.5 91.5q0 42 -25.5 73t-89.5 67l-117 67q-143 79 -143 211q0 87 61.5 140t160.5 53q85 0 140 -44q14 -11 18 6l6 31h71v-208
h-76l-5 34q-20 108 -143 108q-54 0 -86.5 -28.5t-32.5 -77.5q0 -37 23.5 -66.5t75.5 -59.5l126 -73q79 -45 114 -95.5t35 -114.5q0 -99 -67.5 -161.5t-173.5 -62.5z" />
    <glyph glyph-name="Zacute.loclPLK" horiz-adv-x="575" 
d="M442 1014l-143 -166l-60 38l119 185zM499 202h50v-202h-523v55l379 658h-235q-17 0 -23 -3.5t-10 -15.5l-19 -58q-12 -36 -19 -50h-51v202h494v-55l-380 -658h267q17 0 23 3t10 16l18 60q15 40 19 48z" />
    <glyph glyph-name="i.loclTRK" horiz-adv-x="310" 
d="M150 627q-34 0 -56.5 21.5t-22.5 54.5q0 32 22.5 53.5t56.5 21.5q33 0 54.5 -21.5t21.5 -53.5q0 -33 -21.5 -54.5t-54.5 -21.5zM24 0l-3 52q12 6 33 12l15 5q18 7 23.5 16.5t5.5 30.5v320q0 24 -6.5 32.5t-25.5 14.5l-15 5q-19 6 -29 12l3 52h183v-436q0 -21 6 -31
t23 -16l15 -5q21 -6 33 -12l-3 -52h-258z" />
    <glyph glyph-name="uni006A0301" horiz-adv-x="267" 
d="M95 612l-49 47l146 164l67 -66zM36 -224q-72 0 -113.5 37t-41.5 102v5q0 18 8 29q10 10 26 10h64v-44q0 -71 58 -71q55 0 55 77v515q0 23 -6.5 32t-25.5 15l-15 5q-22 8 -29 12l3 52h183v-586q0 -190 -166 -190z" />
    <glyph glyph-name="germandbls.calt" horiz-adv-x="710" 
d="M517 -12q-78 0 -119 50q-14 15 -17 -8l-3 -30h-68v221h74l3 -40q4 -58 31.5 -87t72.5 -29q36 0 61 26.5t25 66.5q0 47 -26 74t-86 61q-58 31 -84 59t-26 72q0 27 14 49t33.5 38t39.5 31t34 36.5t14 47.5q0 43 -32 70.5t-85 27.5q-65 0 -105.5 -45.5t-40.5 -145.5v-533
h-188l-6 53q7 7 27 14l19 6q21 6 27 19t6 38v399q0 133 68.5 202t194.5 69q103 0 169.5 -50t66.5 -122q0 -33 -15 -59t-36 -42t-42 -30t-36 -29.5t-15 -32.5q0 -19 16 -32.5t73 -45.5q32 -18 52 -31.5t42 -36t33 -53t11 -68.5q0 -76 -51.5 -128t-125.5 -52z" />
    <glyph glyph-name="cacute.loclPLK" horiz-adv-x="544" 
d="M274 611l-55 41l127 182l79 -62zM291 -12q-114 0 -186.5 74t-72.5 211q0 134 72.5 212.5t181.5 78.5q70 0 115 -32q11 -7 15 5l4 21h68v-196h-74l-3 16q-9 62 -37 87.5t-76 25.5q-61 0 -105 -53t-44 -153q0 -106 44.5 -160.5t118.5 -54.5q83 0 156 83l43 -45
q-87 -120 -220 -120z" />
    <glyph glyph-name="nacute.loclPLK" horiz-adv-x="654" 
d="M477 772l-151 -161l-55 41l127 182zM600 64q7 -2 29 -12l-3 -52h-177v362q0 115 -96 115q-72 0 -106 -55t-34 -133v-169q0 -23 7 -33t29 -17l16 -6q18 -5 33 -12l-3 -52h-271l-3 52q15 7 33 12l16 6q20 7 26.5 17t6.5 33v312q0 25 -7 34.5t-27 15.5l-16 6q-18 6 -31 12
l3 52h188v-75q59 87 168 87q85 0 131.5 -50.5t46.5 -136.5v-263q0 -22 6 -30.5t22 -14.5z" />
    <glyph glyph-name="oacute.loclPLK" horiz-adv-x="597" 
d="M285 611l-55 41l127 182l79 -62zM297 -12q-116 0 -190.5 78.5t-74.5 208.5q0 129 76 209t191 80q121 0 193.5 -79t72.5 -210q0 -129 -76.5 -208t-191.5 -79zM300 63q64 0 106 54.5t42 158.5q0 105 -41.5 159t-106.5 54q-63 0 -107 -55t-44 -158t43.5 -158t107.5 -55z" />
    <glyph glyph-name="sacute.loclPLK" horiz-adv-x="513" 
d="M236 611l-55 41l127 182l79 -62zM281 -12q-100 0 -150 42q-10 8 -13 -4l-7 -26h-66v203h74l3 -30q11 -112 148 -112q48 0 73 21t25 54q0 29 -17 47t-61 34l-116 43q-121 45 -121 146q0 70 57 114t139 44q72 0 117 -37q9 -8 11 5l4 23h66v-172h-73l-6 27q-2 12 -9 27
q-24 54 -100 54q-48 0 -75 -18.5t-27 -53.5q0 -23 19 -38.5t57 -30.5l125 -47q114 -43 114 -148q0 -72 -51.5 -119.5t-139.5 -47.5z" />
    <glyph glyph-name="zacute.loclPLK" horiz-adv-x="548" 
d="M412 772l-151 -161l-55 41l127 182zM450 197h55v-197h-468v63l320 418h-199q-20 0 -26 -22l-30 -107h-56v200h450v-63l-316 -417h215q22 0 27 20z" />
    <glyph glyph-name="uni0308.case" 
d="M-298 859q-31 0 -50 18.5t-19 49.5t19 49.5t50 18.5t49 -18.5t18 -49.5t-18 -49.5t-49 -18.5zM-101 859q-31 0 -49.5 18.5t-18.5 49.5t18.5 49.5t49.5 18.5t49.5 -18.5t18.5 -49.5t-18.5 -49.5t-49.5 -18.5z" />
    <glyph glyph-name="uni0307.case" 
d="M-199 874q-34 0 -56 21t-22 53q0 33 22 53.5t56 20.5q33 0 54.5 -20.5t21.5 -53.5q0 -32 -21.5 -53t-54.5 -21z" />
    <glyph glyph-name="gravecomb.case" 
d="M-120 854l-229 78l47 91l212 -109z" />
    <glyph glyph-name="acutecomb.case" 
d="M-292 854l-30 60l212 109l47 -91z" />
    <glyph glyph-name="uni030B.case" 
d="M-356 832l-43 56l182 154l62 -74zM-115 832l-43 56l181 154l62 -74z" />
    <glyph glyph-name="uni0302.case" 
d="M-315 842l-44 48l118 126h82l118 -126l-44 -49l-115 95z" />
    <glyph glyph-name="uni030C.case" 
d="M-241 859l-118 126l44 49l115 -94l115 94l44 -48l-118 -127h-82z" />
    <glyph glyph-name="uni0306.case" 
d="M-200 862q-71 0 -112.5 36.5t-49.5 103.5h78q16 -64 84 -64q70 0 84 64h78q-7 -67 -50 -103.5t-112 -36.5z" />
    <glyph glyph-name="uni030A.case" 
d="M-201 847q-53 0 -86.5 26.5t-33.5 74.5q0 47 33.5 74t87.5 27q52 0 85.5 -26.5t33.5 -73.5t-33 -74.5t-87 -27.5zM-200 899q23 0 37 13.5t14 36.5t-14.5 35.5t-37.5 12.5t-37 -13t-14 -35q0 -23 14.5 -36.5t37.5 -13.5z" />
    <glyph glyph-name="tildecomb.case" 
d="M-331 861l-59 34q17 45 50 71t72 26q34 0 80 -26t66 -26q41 0 56 50l57 -34q-10 -41 -40 -70t-69 -29q-36 0 -83 26t-64 26q-47 0 -66 -48z" />
    <glyph glyph-name="uni0304.case" 
d="M-371 892v79h342v-79h-342z" />
    <glyph glyph-name="acutecomb.loclPLK" 
d="M-206 611l-55 41l127 182l79 -62z" />
    <glyph glyph-name="acutecomb.case.loclPLK" 
d="M-177 834l-60 38l119 185l84 -57z" />
    <glyph glyph-name="uni0308.narrow" 
d="M-288 635q-29 0 -47 20t-18 49t18 49t47 20t47 -20t18 -49t-18 -49t-47 -20zM-112 635q-29 0 -47 20t-18 49t18 49t47 20t47 -20t18 -49t-18 -49t-47 -20z" />
    <glyph glyph-name="gravecomb.narrow" 
d="M-127 612l-165 145l67 66l146 -164z" />
    <glyph glyph-name="acutecomb.narrow" 
d="M-244 612l-49 47l146 164l67 -66z" />
    <glyph glyph-name="uni0302.narrow" 
d="M-289 623l-49 43l106 127h64l106 -127l-49 -43l-89 89z" />
    <glyph glyph-name="uni030C.narrow" 
d="M-232 637l-111 126l49 43l94 -88l94 88l49 -43l-111 -126h-64z" />
    <glyph glyph-name="uni0306.narrow" 
d="M-201 625q-66 0 -102.5 41t-40.5 104h79q5 -70 65 -70q56 0 66 70h79q-5 -62 -43.5 -103.5t-102.5 -41.5z" />
    <glyph glyph-name="tildecomb.narrow" 
d="M-314 628l-61 31q10 52 40.5 82t70.5 30q30 0 73.5 -28.5t59.5 -28.5q37 0 48 61l61 -25q-9 -50 -37.5 -85t-64.5 -35q-33 0 -75.5 28t-58.5 28q-40 0 -56 -58z" />
    <glyph glyph-name="uni0304.narrow" 
d="M-335 655v78h270v-78h-270z" />
    <glyph glyph-name="uni0328.narrow" 
d="M-184 -217q-46 0 -75 26.5t-29 75.5q0 34 17 67.5t42 52.5h79q-57 -43 -57 -107q0 -23 11 -34t27 -11q31 0 59 30l28 -48q-42 -52 -102 -52z" />
    <glyph glyph-name="acute.case" horiz-adv-x="400" 
d="M108 854l-30 60l212 109l47 -91z" />
    <glyph glyph-name="breve.case" horiz-adv-x="400" 
d="M200 862q-71 0 -112.5 36.5t-49.5 103.5h78q16 -64 84 -64q70 0 84 64h78q-7 -67 -50 -103.5t-112 -36.5z" />
    <glyph glyph-name="caron.case" horiz-adv-x="400" 
d="M159 859l-118 126l44 49l115 -94l115 94l44 -48l-118 -127h-82z" />
    <glyph glyph-name="circumflex.case" horiz-adv-x="400" 
d="M85 842l-44 48l118 126h82l118 -126l-44 -49l-115 95z" />
    <glyph glyph-name="dieresis.case" horiz-adv-x="400" 
d="M102 859q-31 0 -50 18.5t-19 49.5t19 49.5t50 18.5t49 -18.5t18 -49.5t-18 -49.5t-49 -18.5zM299 859q-31 0 -49.5 18.5t-18.5 49.5t18.5 49.5t49.5 18.5t49.5 -18.5t18.5 -49.5t-18.5 -49.5t-49.5 -18.5z" />
    <glyph glyph-name="dotaccent.case" horiz-adv-x="400" 
d="M201 874q-34 0 -56 21t-22 53q0 33 22 53.5t56 20.5q33 0 54.5 -20.5t21.5 -53.5q0 -32 -21.5 -53t-54.5 -21z" />
    <glyph glyph-name="grave.case" horiz-adv-x="400" 
d="M280 854l-229 78l47 91l212 -109z" />
    <glyph glyph-name="hungarumlaut.case" horiz-adv-x="400" 
d="M44 832l-43 56l182 154l62 -74zM285 832l-43 56l181 154l62 -74z" />
    <glyph glyph-name="macron.case" horiz-adv-x="400" 
d="M29 892v79h342v-79h-342z" />
    <glyph glyph-name="ring.case" horiz-adv-x="400" 
d="M199 847q-53 0 -86.5 26.5t-33.5 74.5q0 47 33.5 74t87.5 27q52 0 85.5 -26.5t33.5 -73.5t-33 -74.5t-87 -27.5zM200 899q23 0 37 13.5t14 36.5t-14.5 35.5t-37.5 12.5t-37 -13t-14 -35q0 -23 14.5 -36.5t37.5 -13.5z" />
    <glyph glyph-name="tilde.case" horiz-adv-x="400" 
d="M69 861l-59 34q17 45 50 71t72 26q34 0 80 -26t66 -26q41 0 56 50l57 -34q-10 -41 -40 -70t-69 -29q-36 0 -83 26t-64 26q-47 0 -66 -48z" />
    </font>
</defs>
</svg>
